M48
; DRILL file {KiCad (5.1.6-0-10_14)} date Thursday, October 15, 2020 at 10:38:46 AM
; FORMAT={-:-/ absolute / inch / decimal}
; #@! TF.CreationDate,2020-10-15T10:38:46-05:00
; #@! TF.GenerationSoftware,Kicad,Pcbnew,(5.1.6-0-10_14)
; #@! TF.FileFunction,Plated,1,2,PTH
FMAT,2
INCH
T1C0.0118
T2C0.0157
T3C0.0197
T4C0.0315
T5C0.0394
T6C0.0984
%
G90
G05
T1
X1.4437Y-3.9559
X1.4575Y-4.002
X2.6406Y-3.9846
X2.6921Y-3.9957
X2.7449Y-3.9134
X2.7449Y-3.9634
X2.7703Y-3.937
X2.9055Y-3.9516
X2.9167Y-3.8014
X2.9204Y-3.8547
X2.9421Y-3.9319
T2
X1.2894Y-3.7992
X1.5173Y-3.7311
X1.5715Y-3.9134
X1.6285Y-3.9134
X1.6508Y-3.8146
X1.865Y-3.6882
X1.9854Y-3.6858
X2.4606Y-3.7917
X2.589Y-3.7358
X2.7898Y-3.6516
X2.7961Y-3.602
X2.9925Y-3.728
X3.15Y-3.9165
X3.174Y-3.7035
T3
X1.9185Y-4.0472
X2.4283Y-3.6146
T4
X2.1783Y-3.6051
X2.2571Y-3.6051
X2.3862Y-3.9697
X2.465Y-3.9697
X1.378Y-4.1
X1.4567Y-4.1
T5
X1.6Y-4.1
X1.7Y-4.1
X2.4Y-4.1
X2.5Y-4.1
X2.6Y-4.1
X2.7Y-4.1
X2.8Y-4.1
X2.9Y-4.1
T6
X3.2283Y-4.0945
X1.2205Y-4.0945
T0
M30
