%TF.GenerationSoftware,KiCad,Pcbnew,(5.1.6-0-10_14)*%
%TF.CreationDate,2020-10-15T10:38:44-05:00*%
%TF.ProjectId,MBRadio_4732_BO,4d425261-6469-46f5-9f34-3733325f424f,rev?*%
%TF.SameCoordinates,Original*%
%TF.FileFunction,Paste,Top*%
%TF.FilePolarity,Positive*%
%FSLAX46Y46*%
G04 Gerber Fmt 4.6, Leading zero omitted, Abs format (unit mm)*
G04 Created by KiCad (PCBNEW (5.1.6-0-10_14)) date 2020-10-15 10:38:44*
%MOMM*%
%LPD*%
G01*
G04 APERTURE LIST*
%ADD10R,0.800000X0.900000*%
%ADD11R,2.700000X2.900000*%
%ADD12R,2.700000X2.100000*%
%ADD13R,1.050000X2.200000*%
%ADD14R,1.000000X1.050000*%
%ADD15R,1.000000X1.800000*%
G04 APERTURE END LIST*
%TO.C,U5*%
G36*
G01*
X37550000Y-95745000D02*
X37550000Y-95445000D01*
G75*
G02*
X37700000Y-95295000I150000J0D01*
G01*
X39350000Y-95295000D01*
G75*
G02*
X39500000Y-95445000I0J-150000D01*
G01*
X39500000Y-95745000D01*
G75*
G02*
X39350000Y-95895000I-150000J0D01*
G01*
X37700000Y-95895000D01*
G75*
G02*
X37550000Y-95745000I0J150000D01*
G01*
G37*
G36*
G01*
X37550000Y-97015000D02*
X37550000Y-96715000D01*
G75*
G02*
X37700000Y-96565000I150000J0D01*
G01*
X39350000Y-96565000D01*
G75*
G02*
X39500000Y-96715000I0J-150000D01*
G01*
X39500000Y-97015000D01*
G75*
G02*
X39350000Y-97165000I-150000J0D01*
G01*
X37700000Y-97165000D01*
G75*
G02*
X37550000Y-97015000I0J150000D01*
G01*
G37*
G36*
G01*
X37550000Y-98285000D02*
X37550000Y-97985000D01*
G75*
G02*
X37700000Y-97835000I150000J0D01*
G01*
X39350000Y-97835000D01*
G75*
G02*
X39500000Y-97985000I0J-150000D01*
G01*
X39500000Y-98285000D01*
G75*
G02*
X39350000Y-98435000I-150000J0D01*
G01*
X37700000Y-98435000D01*
G75*
G02*
X37550000Y-98285000I0J150000D01*
G01*
G37*
G36*
G01*
X37550000Y-99555000D02*
X37550000Y-99255000D01*
G75*
G02*
X37700000Y-99105000I150000J0D01*
G01*
X39350000Y-99105000D01*
G75*
G02*
X39500000Y-99255000I0J-150000D01*
G01*
X39500000Y-99555000D01*
G75*
G02*
X39350000Y-99705000I-150000J0D01*
G01*
X37700000Y-99705000D01*
G75*
G02*
X37550000Y-99555000I0J150000D01*
G01*
G37*
G36*
G01*
X42500000Y-99555000D02*
X42500000Y-99255000D01*
G75*
G02*
X42650000Y-99105000I150000J0D01*
G01*
X44300000Y-99105000D01*
G75*
G02*
X44450000Y-99255000I0J-150000D01*
G01*
X44450000Y-99555000D01*
G75*
G02*
X44300000Y-99705000I-150000J0D01*
G01*
X42650000Y-99705000D01*
G75*
G02*
X42500000Y-99555000I0J150000D01*
G01*
G37*
G36*
G01*
X42500000Y-98285000D02*
X42500000Y-97985000D01*
G75*
G02*
X42650000Y-97835000I150000J0D01*
G01*
X44300000Y-97835000D01*
G75*
G02*
X44450000Y-97985000I0J-150000D01*
G01*
X44450000Y-98285000D01*
G75*
G02*
X44300000Y-98435000I-150000J0D01*
G01*
X42650000Y-98435000D01*
G75*
G02*
X42500000Y-98285000I0J150000D01*
G01*
G37*
G36*
G01*
X42500000Y-97015000D02*
X42500000Y-96715000D01*
G75*
G02*
X42650000Y-96565000I150000J0D01*
G01*
X44300000Y-96565000D01*
G75*
G02*
X44450000Y-96715000I0J-150000D01*
G01*
X44450000Y-97015000D01*
G75*
G02*
X44300000Y-97165000I-150000J0D01*
G01*
X42650000Y-97165000D01*
G75*
G02*
X42500000Y-97015000I0J150000D01*
G01*
G37*
G36*
G01*
X42500000Y-95745000D02*
X42500000Y-95445000D01*
G75*
G02*
X42650000Y-95295000I150000J0D01*
G01*
X44300000Y-95295000D01*
G75*
G02*
X44450000Y-95445000I0J-150000D01*
G01*
X44450000Y-95745000D01*
G75*
G02*
X44300000Y-95895000I-150000J0D01*
G01*
X42650000Y-95895000D01*
G75*
G02*
X42500000Y-95745000I0J150000D01*
G01*
G37*
%TD*%
%TO.C,C1*%
G36*
G01*
X74040000Y-95452500D02*
X74040000Y-95107500D01*
G75*
G02*
X74187500Y-94960000I147500J0D01*
G01*
X74482500Y-94960000D01*
G75*
G02*
X74630000Y-95107500I0J-147500D01*
G01*
X74630000Y-95452500D01*
G75*
G02*
X74482500Y-95600000I-147500J0D01*
G01*
X74187500Y-95600000D01*
G75*
G02*
X74040000Y-95452500I0J147500D01*
G01*
G37*
G36*
G01*
X75010000Y-95452500D02*
X75010000Y-95107500D01*
G75*
G02*
X75157500Y-94960000I147500J0D01*
G01*
X75452500Y-94960000D01*
G75*
G02*
X75600000Y-95107500I0J-147500D01*
G01*
X75600000Y-95452500D01*
G75*
G02*
X75452500Y-95600000I-147500J0D01*
G01*
X75157500Y-95600000D01*
G75*
G02*
X75010000Y-95452500I0J147500D01*
G01*
G37*
%TD*%
%TO.C,C2*%
G36*
G01*
X75020000Y-94372500D02*
X75020000Y-94027500D01*
G75*
G02*
X75167500Y-93880000I147500J0D01*
G01*
X75462500Y-93880000D01*
G75*
G02*
X75610000Y-94027500I0J-147500D01*
G01*
X75610000Y-94372500D01*
G75*
G02*
X75462500Y-94520000I-147500J0D01*
G01*
X75167500Y-94520000D01*
G75*
G02*
X75020000Y-94372500I0J147500D01*
G01*
G37*
G36*
G01*
X74050000Y-94372500D02*
X74050000Y-94027500D01*
G75*
G02*
X74197500Y-93880000I147500J0D01*
G01*
X74492500Y-93880000D01*
G75*
G02*
X74640000Y-94027500I0J-147500D01*
G01*
X74640000Y-94372500D01*
G75*
G02*
X74492500Y-94520000I-147500J0D01*
G01*
X74197500Y-94520000D01*
G75*
G02*
X74050000Y-94372500I0J147500D01*
G01*
G37*
%TD*%
%TO.C,C6*%
G36*
G01*
X63670000Y-94082500D02*
X63670000Y-93737500D01*
G75*
G02*
X63817500Y-93590000I147500J0D01*
G01*
X64112500Y-93590000D01*
G75*
G02*
X64260000Y-93737500I0J-147500D01*
G01*
X64260000Y-94082500D01*
G75*
G02*
X64112500Y-94230000I-147500J0D01*
G01*
X63817500Y-94230000D01*
G75*
G02*
X63670000Y-94082500I0J147500D01*
G01*
G37*
G36*
G01*
X64640000Y-94082500D02*
X64640000Y-93737500D01*
G75*
G02*
X64787500Y-93590000I147500J0D01*
G01*
X65082500Y-93590000D01*
G75*
G02*
X65230000Y-93737500I0J-147500D01*
G01*
X65230000Y-94082500D01*
G75*
G02*
X65082500Y-94230000I-147500J0D01*
G01*
X64787500Y-94230000D01*
G75*
G02*
X64640000Y-94082500I0J147500D01*
G01*
G37*
%TD*%
%TO.C,C7*%
G36*
G01*
X45375000Y-92756250D02*
X45375000Y-92243750D01*
G75*
G02*
X45593750Y-92025000I218750J0D01*
G01*
X46031250Y-92025000D01*
G75*
G02*
X46250000Y-92243750I0J-218750D01*
G01*
X46250000Y-92756250D01*
G75*
G02*
X46031250Y-92975000I-218750J0D01*
G01*
X45593750Y-92975000D01*
G75*
G02*
X45375000Y-92756250I0J218750D01*
G01*
G37*
G36*
G01*
X46950000Y-92756250D02*
X46950000Y-92243750D01*
G75*
G02*
X47168750Y-92025000I218750J0D01*
G01*
X47606250Y-92025000D01*
G75*
G02*
X47825000Y-92243750I0J-218750D01*
G01*
X47825000Y-92756250D01*
G75*
G02*
X47606250Y-92975000I-218750J0D01*
G01*
X47168750Y-92975000D01*
G75*
G02*
X46950000Y-92756250I0J218750D01*
G01*
G37*
%TD*%
%TO.C,C9*%
G36*
G01*
X60500000Y-96032500D02*
X60500000Y-95687500D01*
G75*
G02*
X60647500Y-95540000I147500J0D01*
G01*
X60942500Y-95540000D01*
G75*
G02*
X61090000Y-95687500I0J-147500D01*
G01*
X61090000Y-96032500D01*
G75*
G02*
X60942500Y-96180000I-147500J0D01*
G01*
X60647500Y-96180000D01*
G75*
G02*
X60500000Y-96032500I0J147500D01*
G01*
G37*
G36*
G01*
X59530000Y-96032500D02*
X59530000Y-95687500D01*
G75*
G02*
X59677500Y-95540000I147500J0D01*
G01*
X59972500Y-95540000D01*
G75*
G02*
X60120000Y-95687500I0J-147500D01*
G01*
X60120000Y-96032500D01*
G75*
G02*
X59972500Y-96180000I-147500J0D01*
G01*
X59677500Y-96180000D01*
G75*
G02*
X59530000Y-96032500I0J147500D01*
G01*
G37*
%TD*%
%TO.C,C12*%
G36*
G01*
X39525000Y-92756250D02*
X39525000Y-92243750D01*
G75*
G02*
X39743750Y-92025000I218750J0D01*
G01*
X40181250Y-92025000D01*
G75*
G02*
X40400000Y-92243750I0J-218750D01*
G01*
X40400000Y-92756250D01*
G75*
G02*
X40181250Y-92975000I-218750J0D01*
G01*
X39743750Y-92975000D01*
G75*
G02*
X39525000Y-92756250I0J218750D01*
G01*
G37*
G36*
G01*
X41100000Y-92756250D02*
X41100000Y-92243750D01*
G75*
G02*
X41318750Y-92025000I218750J0D01*
G01*
X41756250Y-92025000D01*
G75*
G02*
X41975000Y-92243750I0J-218750D01*
G01*
X41975000Y-92756250D01*
G75*
G02*
X41756250Y-92975000I-218750J0D01*
G01*
X41318750Y-92975000D01*
G75*
G02*
X41100000Y-92756250I0J218750D01*
G01*
G37*
%TD*%
%TO.C,C13*%
G36*
G01*
X36912500Y-96180000D02*
X36567500Y-96180000D01*
G75*
G02*
X36420000Y-96032500I0J147500D01*
G01*
X36420000Y-95737500D01*
G75*
G02*
X36567500Y-95590000I147500J0D01*
G01*
X36912500Y-95590000D01*
G75*
G02*
X37060000Y-95737500I0J-147500D01*
G01*
X37060000Y-96032500D01*
G75*
G02*
X36912500Y-96180000I-147500J0D01*
G01*
G37*
G36*
G01*
X36912500Y-97150000D02*
X36567500Y-97150000D01*
G75*
G02*
X36420000Y-97002500I0J147500D01*
G01*
X36420000Y-96707500D01*
G75*
G02*
X36567500Y-96560000I147500J0D01*
G01*
X36912500Y-96560000D01*
G75*
G02*
X37060000Y-96707500I0J-147500D01*
G01*
X37060000Y-97002500D01*
G75*
G02*
X36912500Y-97150000I-147500J0D01*
G01*
G37*
%TD*%
%TO.C,C14*%
G36*
G01*
X42540000Y-100557500D02*
X42540000Y-100902500D01*
G75*
G02*
X42392500Y-101050000I-147500J0D01*
G01*
X42097500Y-101050000D01*
G75*
G02*
X41950000Y-100902500I0J147500D01*
G01*
X41950000Y-100557500D01*
G75*
G02*
X42097500Y-100410000I147500J0D01*
G01*
X42392500Y-100410000D01*
G75*
G02*
X42540000Y-100557500I0J-147500D01*
G01*
G37*
G36*
G01*
X41570000Y-100557500D02*
X41570000Y-100902500D01*
G75*
G02*
X41422500Y-101050000I-147500J0D01*
G01*
X41127500Y-101050000D01*
G75*
G02*
X40980000Y-100902500I0J147500D01*
G01*
X40980000Y-100557500D01*
G75*
G02*
X41127500Y-100410000I147500J0D01*
G01*
X41422500Y-100410000D01*
G75*
G02*
X41570000Y-100557500I0J-147500D01*
G01*
G37*
%TD*%
D10*
%TO.C,D2*%
X64400000Y-95080000D03*
X62500000Y-95080000D03*
X63450000Y-97080000D03*
%TD*%
D11*
%TO.C,J3*%
X46750000Y-102800000D03*
X57450000Y-96300000D03*
D12*
X46750000Y-96450000D03*
%TD*%
%TO.C,J2*%
G36*
G01*
X79335000Y-99800000D02*
X78085000Y-99800000D01*
G75*
G02*
X77935000Y-99650000I0J150000D01*
G01*
X77935000Y-99350000D01*
G75*
G02*
X78085000Y-99200000I150000J0D01*
G01*
X79335000Y-99200000D01*
G75*
G02*
X79485000Y-99350000I0J-150000D01*
G01*
X79485000Y-99650000D01*
G75*
G02*
X79335000Y-99800000I-150000J0D01*
G01*
G37*
G36*
G01*
X79335000Y-98800000D02*
X78085000Y-98800000D01*
G75*
G02*
X77935000Y-98650000I0J150000D01*
G01*
X77935000Y-98350000D01*
G75*
G02*
X78085000Y-98200000I150000J0D01*
G01*
X79335000Y-98200000D01*
G75*
G02*
X79485000Y-98350000I0J-150000D01*
G01*
X79485000Y-98650000D01*
G75*
G02*
X79335000Y-98800000I-150000J0D01*
G01*
G37*
G36*
G01*
X79335000Y-97800000D02*
X78085000Y-97800000D01*
G75*
G02*
X77935000Y-97650000I0J150000D01*
G01*
X77935000Y-97350000D01*
G75*
G02*
X78085000Y-97200000I150000J0D01*
G01*
X79335000Y-97200000D01*
G75*
G02*
X79485000Y-97350000I0J-150000D01*
G01*
X79485000Y-97650000D01*
G75*
G02*
X79335000Y-97800000I-150000J0D01*
G01*
G37*
G36*
G01*
X79335000Y-96800000D02*
X78085000Y-96800000D01*
G75*
G02*
X77935000Y-96650000I0J150000D01*
G01*
X77935000Y-96350000D01*
G75*
G02*
X78085000Y-96200000I150000J0D01*
G01*
X79335000Y-96200000D01*
G75*
G02*
X79485000Y-96350000I0J-150000D01*
G01*
X79485000Y-96650000D01*
G75*
G02*
X79335000Y-96800000I-150000J0D01*
G01*
G37*
G36*
G01*
X83235400Y-101400000D02*
X81934600Y-101400000D01*
G75*
G02*
X81685000Y-101150400I0J249600D01*
G01*
X81685000Y-100449600D01*
G75*
G02*
X81934600Y-100200000I249600J0D01*
G01*
X83235400Y-100200000D01*
G75*
G02*
X83485000Y-100449600I0J-249600D01*
G01*
X83485000Y-101150400D01*
G75*
G02*
X83235400Y-101400000I-249600J0D01*
G01*
G37*
G36*
G01*
X83235400Y-95800000D02*
X81934600Y-95800000D01*
G75*
G02*
X81685000Y-95550400I0J249600D01*
G01*
X81685000Y-94849600D01*
G75*
G02*
X81934600Y-94600000I249600J0D01*
G01*
X83235400Y-94600000D01*
G75*
G02*
X83485000Y-94849600I0J-249600D01*
G01*
X83485000Y-95550400D01*
G75*
G02*
X83235400Y-95800000I-249600J0D01*
G01*
G37*
%TD*%
%TO.C,L1*%
G36*
G01*
X65485000Y-98313750D02*
X65485000Y-98826250D01*
G75*
G02*
X65266250Y-99045000I-218750J0D01*
G01*
X64828750Y-99045000D01*
G75*
G02*
X64610000Y-98826250I0J218750D01*
G01*
X64610000Y-98313750D01*
G75*
G02*
X64828750Y-98095000I218750J0D01*
G01*
X65266250Y-98095000D01*
G75*
G02*
X65485000Y-98313750I0J-218750D01*
G01*
G37*
G36*
G01*
X63910000Y-98313750D02*
X63910000Y-98826250D01*
G75*
G02*
X63691250Y-99045000I-218750J0D01*
G01*
X63253750Y-99045000D01*
G75*
G02*
X63035000Y-98826250I0J218750D01*
G01*
X63035000Y-98313750D01*
G75*
G02*
X63253750Y-98095000I218750J0D01*
G01*
X63691250Y-98095000D01*
G75*
G02*
X63910000Y-98313750I0J-218750D01*
G01*
G37*
%TD*%
%TO.C,R2*%
G36*
G01*
X73910000Y-90942500D02*
X73910000Y-90597500D01*
G75*
G02*
X74057500Y-90450000I147500J0D01*
G01*
X74352500Y-90450000D01*
G75*
G02*
X74500000Y-90597500I0J-147500D01*
G01*
X74500000Y-90942500D01*
G75*
G02*
X74352500Y-91090000I-147500J0D01*
G01*
X74057500Y-91090000D01*
G75*
G02*
X73910000Y-90942500I0J147500D01*
G01*
G37*
G36*
G01*
X74880000Y-90942500D02*
X74880000Y-90597500D01*
G75*
G02*
X75027500Y-90450000I147500J0D01*
G01*
X75322500Y-90450000D01*
G75*
G02*
X75470000Y-90597500I0J-147500D01*
G01*
X75470000Y-90942500D01*
G75*
G02*
X75322500Y-91090000I-147500J0D01*
G01*
X75027500Y-91090000D01*
G75*
G02*
X74880000Y-90942500I0J147500D01*
G01*
G37*
%TD*%
%TO.C,R5*%
G36*
G01*
X42470000Y-92672500D02*
X42470000Y-92327500D01*
G75*
G02*
X42617500Y-92180000I147500J0D01*
G01*
X42912500Y-92180000D01*
G75*
G02*
X43060000Y-92327500I0J-147500D01*
G01*
X43060000Y-92672500D01*
G75*
G02*
X42912500Y-92820000I-147500J0D01*
G01*
X42617500Y-92820000D01*
G75*
G02*
X42470000Y-92672500I0J147500D01*
G01*
G37*
G36*
G01*
X43440000Y-92672500D02*
X43440000Y-92327500D01*
G75*
G02*
X43587500Y-92180000I147500J0D01*
G01*
X43882500Y-92180000D01*
G75*
G02*
X44030000Y-92327500I0J-147500D01*
G01*
X44030000Y-92672500D01*
G75*
G02*
X43882500Y-92820000I-147500J0D01*
G01*
X43587500Y-92820000D01*
G75*
G02*
X43440000Y-92672500I0J147500D01*
G01*
G37*
%TD*%
%TO.C,R12*%
G36*
G01*
X43440000Y-93672500D02*
X43440000Y-93327500D01*
G75*
G02*
X43587500Y-93180000I147500J0D01*
G01*
X43882500Y-93180000D01*
G75*
G02*
X44030000Y-93327500I0J-147500D01*
G01*
X44030000Y-93672500D01*
G75*
G02*
X43882500Y-93820000I-147500J0D01*
G01*
X43587500Y-93820000D01*
G75*
G02*
X43440000Y-93672500I0J147500D01*
G01*
G37*
G36*
G01*
X42470000Y-93672500D02*
X42470000Y-93327500D01*
G75*
G02*
X42617500Y-93180000I147500J0D01*
G01*
X42912500Y-93180000D01*
G75*
G02*
X43060000Y-93327500I0J-147500D01*
G01*
X43060000Y-93672500D01*
G75*
G02*
X42912500Y-93820000I-147500J0D01*
G01*
X42617500Y-93820000D01*
G75*
G02*
X42470000Y-93672500I0J147500D01*
G01*
G37*
%TD*%
%TO.C,R13*%
G36*
G01*
X43490000Y-100557500D02*
X43490000Y-100902500D01*
G75*
G02*
X43342500Y-101050000I-147500J0D01*
G01*
X43047500Y-101050000D01*
G75*
G02*
X42900000Y-100902500I0J147500D01*
G01*
X42900000Y-100557500D01*
G75*
G02*
X43047500Y-100410000I147500J0D01*
G01*
X43342500Y-100410000D01*
G75*
G02*
X43490000Y-100557500I0J-147500D01*
G01*
G37*
G36*
G01*
X44460000Y-100557500D02*
X44460000Y-100902500D01*
G75*
G02*
X44312500Y-101050000I-147500J0D01*
G01*
X44017500Y-101050000D01*
G75*
G02*
X43870000Y-100902500I0J147500D01*
G01*
X43870000Y-100557500D01*
G75*
G02*
X44017500Y-100410000I147500J0D01*
G01*
X44312500Y-100410000D01*
G75*
G02*
X44460000Y-100557500I0J-147500D01*
G01*
G37*
%TD*%
%TO.C,U1*%
G36*
G01*
X66550000Y-91625000D02*
X66550000Y-91325000D01*
G75*
G02*
X66700000Y-91175000I150000J0D01*
G01*
X68350000Y-91175000D01*
G75*
G02*
X68500000Y-91325000I0J-150000D01*
G01*
X68500000Y-91625000D01*
G75*
G02*
X68350000Y-91775000I-150000J0D01*
G01*
X66700000Y-91775000D01*
G75*
G02*
X66550000Y-91625000I0J150000D01*
G01*
G37*
G36*
G01*
X66550000Y-92895000D02*
X66550000Y-92595000D01*
G75*
G02*
X66700000Y-92445000I150000J0D01*
G01*
X68350000Y-92445000D01*
G75*
G02*
X68500000Y-92595000I0J-150000D01*
G01*
X68500000Y-92895000D01*
G75*
G02*
X68350000Y-93045000I-150000J0D01*
G01*
X66700000Y-93045000D01*
G75*
G02*
X66550000Y-92895000I0J150000D01*
G01*
G37*
G36*
G01*
X66550000Y-94165000D02*
X66550000Y-93865000D01*
G75*
G02*
X66700000Y-93715000I150000J0D01*
G01*
X68350000Y-93715000D01*
G75*
G02*
X68500000Y-93865000I0J-150000D01*
G01*
X68500000Y-94165000D01*
G75*
G02*
X68350000Y-94315000I-150000J0D01*
G01*
X66700000Y-94315000D01*
G75*
G02*
X66550000Y-94165000I0J150000D01*
G01*
G37*
G36*
G01*
X66550000Y-95435000D02*
X66550000Y-95135000D01*
G75*
G02*
X66700000Y-94985000I150000J0D01*
G01*
X68350000Y-94985000D01*
G75*
G02*
X68500000Y-95135000I0J-150000D01*
G01*
X68500000Y-95435000D01*
G75*
G02*
X68350000Y-95585000I-150000J0D01*
G01*
X66700000Y-95585000D01*
G75*
G02*
X66550000Y-95435000I0J150000D01*
G01*
G37*
G36*
G01*
X66550000Y-96705000D02*
X66550000Y-96405000D01*
G75*
G02*
X66700000Y-96255000I150000J0D01*
G01*
X68350000Y-96255000D01*
G75*
G02*
X68500000Y-96405000I0J-150000D01*
G01*
X68500000Y-96705000D01*
G75*
G02*
X68350000Y-96855000I-150000J0D01*
G01*
X66700000Y-96855000D01*
G75*
G02*
X66550000Y-96705000I0J150000D01*
G01*
G37*
G36*
G01*
X66550000Y-97975000D02*
X66550000Y-97675000D01*
G75*
G02*
X66700000Y-97525000I150000J0D01*
G01*
X68350000Y-97525000D01*
G75*
G02*
X68500000Y-97675000I0J-150000D01*
G01*
X68500000Y-97975000D01*
G75*
G02*
X68350000Y-98125000I-150000J0D01*
G01*
X66700000Y-98125000D01*
G75*
G02*
X66550000Y-97975000I0J150000D01*
G01*
G37*
G36*
G01*
X66550000Y-99245000D02*
X66550000Y-98945000D01*
G75*
G02*
X66700000Y-98795000I150000J0D01*
G01*
X68350000Y-98795000D01*
G75*
G02*
X68500000Y-98945000I0J-150000D01*
G01*
X68500000Y-99245000D01*
G75*
G02*
X68350000Y-99395000I-150000J0D01*
G01*
X66700000Y-99395000D01*
G75*
G02*
X66550000Y-99245000I0J150000D01*
G01*
G37*
G36*
G01*
X66550000Y-100515000D02*
X66550000Y-100215000D01*
G75*
G02*
X66700000Y-100065000I150000J0D01*
G01*
X68350000Y-100065000D01*
G75*
G02*
X68500000Y-100215000I0J-150000D01*
G01*
X68500000Y-100515000D01*
G75*
G02*
X68350000Y-100665000I-150000J0D01*
G01*
X66700000Y-100665000D01*
G75*
G02*
X66550000Y-100515000I0J150000D01*
G01*
G37*
G36*
G01*
X71500000Y-100515000D02*
X71500000Y-100215000D01*
G75*
G02*
X71650000Y-100065000I150000J0D01*
G01*
X73300000Y-100065000D01*
G75*
G02*
X73450000Y-100215000I0J-150000D01*
G01*
X73450000Y-100515000D01*
G75*
G02*
X73300000Y-100665000I-150000J0D01*
G01*
X71650000Y-100665000D01*
G75*
G02*
X71500000Y-100515000I0J150000D01*
G01*
G37*
G36*
G01*
X71500000Y-99245000D02*
X71500000Y-98945000D01*
G75*
G02*
X71650000Y-98795000I150000J0D01*
G01*
X73300000Y-98795000D01*
G75*
G02*
X73450000Y-98945000I0J-150000D01*
G01*
X73450000Y-99245000D01*
G75*
G02*
X73300000Y-99395000I-150000J0D01*
G01*
X71650000Y-99395000D01*
G75*
G02*
X71500000Y-99245000I0J150000D01*
G01*
G37*
G36*
G01*
X71500000Y-97975000D02*
X71500000Y-97675000D01*
G75*
G02*
X71650000Y-97525000I150000J0D01*
G01*
X73300000Y-97525000D01*
G75*
G02*
X73450000Y-97675000I0J-150000D01*
G01*
X73450000Y-97975000D01*
G75*
G02*
X73300000Y-98125000I-150000J0D01*
G01*
X71650000Y-98125000D01*
G75*
G02*
X71500000Y-97975000I0J150000D01*
G01*
G37*
G36*
G01*
X71500000Y-96705000D02*
X71500000Y-96405000D01*
G75*
G02*
X71650000Y-96255000I150000J0D01*
G01*
X73300000Y-96255000D01*
G75*
G02*
X73450000Y-96405000I0J-150000D01*
G01*
X73450000Y-96705000D01*
G75*
G02*
X73300000Y-96855000I-150000J0D01*
G01*
X71650000Y-96855000D01*
G75*
G02*
X71500000Y-96705000I0J150000D01*
G01*
G37*
G36*
G01*
X71500000Y-95435000D02*
X71500000Y-95135000D01*
G75*
G02*
X71650000Y-94985000I150000J0D01*
G01*
X73300000Y-94985000D01*
G75*
G02*
X73450000Y-95135000I0J-150000D01*
G01*
X73450000Y-95435000D01*
G75*
G02*
X73300000Y-95585000I-150000J0D01*
G01*
X71650000Y-95585000D01*
G75*
G02*
X71500000Y-95435000I0J150000D01*
G01*
G37*
G36*
G01*
X71500000Y-94165000D02*
X71500000Y-93865000D01*
G75*
G02*
X71650000Y-93715000I150000J0D01*
G01*
X73300000Y-93715000D01*
G75*
G02*
X73450000Y-93865000I0J-150000D01*
G01*
X73450000Y-94165000D01*
G75*
G02*
X73300000Y-94315000I-150000J0D01*
G01*
X71650000Y-94315000D01*
G75*
G02*
X71500000Y-94165000I0J150000D01*
G01*
G37*
G36*
G01*
X71500000Y-92895000D02*
X71500000Y-92595000D01*
G75*
G02*
X71650000Y-92445000I150000J0D01*
G01*
X73300000Y-92445000D01*
G75*
G02*
X73450000Y-92595000I0J-150000D01*
G01*
X73450000Y-92895000D01*
G75*
G02*
X73300000Y-93045000I-150000J0D01*
G01*
X71650000Y-93045000D01*
G75*
G02*
X71500000Y-92895000I0J150000D01*
G01*
G37*
G36*
G01*
X71500000Y-91625000D02*
X71500000Y-91325000D01*
G75*
G02*
X71650000Y-91175000I150000J0D01*
G01*
X73300000Y-91175000D01*
G75*
G02*
X73450000Y-91325000I0J-150000D01*
G01*
X73450000Y-91625000D01*
G75*
G02*
X73300000Y-91775000I-150000J0D01*
G01*
X71650000Y-91775000D01*
G75*
G02*
X71500000Y-91625000I0J150000D01*
G01*
G37*
%TD*%
%TO.C,J1*%
G36*
G01*
X33675000Y-96200000D02*
X34925000Y-96200000D01*
G75*
G02*
X35075000Y-96350000I0J-150000D01*
G01*
X35075000Y-96650000D01*
G75*
G02*
X34925000Y-96800000I-150000J0D01*
G01*
X33675000Y-96800000D01*
G75*
G02*
X33525000Y-96650000I0J150000D01*
G01*
X33525000Y-96350000D01*
G75*
G02*
X33675000Y-96200000I150000J0D01*
G01*
G37*
G36*
G01*
X33675000Y-97200000D02*
X34925000Y-97200000D01*
G75*
G02*
X35075000Y-97350000I0J-150000D01*
G01*
X35075000Y-97650000D01*
G75*
G02*
X34925000Y-97800000I-150000J0D01*
G01*
X33675000Y-97800000D01*
G75*
G02*
X33525000Y-97650000I0J150000D01*
G01*
X33525000Y-97350000D01*
G75*
G02*
X33675000Y-97200000I150000J0D01*
G01*
G37*
G36*
G01*
X33675000Y-98200000D02*
X34925000Y-98200000D01*
G75*
G02*
X35075000Y-98350000I0J-150000D01*
G01*
X35075000Y-98650000D01*
G75*
G02*
X34925000Y-98800000I-150000J0D01*
G01*
X33675000Y-98800000D01*
G75*
G02*
X33525000Y-98650000I0J150000D01*
G01*
X33525000Y-98350000D01*
G75*
G02*
X33675000Y-98200000I150000J0D01*
G01*
G37*
G36*
G01*
X33675000Y-99200000D02*
X34925000Y-99200000D01*
G75*
G02*
X35075000Y-99350000I0J-150000D01*
G01*
X35075000Y-99650000D01*
G75*
G02*
X34925000Y-99800000I-150000J0D01*
G01*
X33675000Y-99800000D01*
G75*
G02*
X33525000Y-99650000I0J150000D01*
G01*
X33525000Y-99350000D01*
G75*
G02*
X33675000Y-99200000I150000J0D01*
G01*
G37*
G36*
G01*
X29774600Y-94600000D02*
X31075400Y-94600000D01*
G75*
G02*
X31325000Y-94849600I0J-249600D01*
G01*
X31325000Y-95550400D01*
G75*
G02*
X31075400Y-95800000I-249600J0D01*
G01*
X29774600Y-95800000D01*
G75*
G02*
X29525000Y-95550400I0J249600D01*
G01*
X29525000Y-94849600D01*
G75*
G02*
X29774600Y-94600000I249600J0D01*
G01*
G37*
G36*
G01*
X29774600Y-100200000D02*
X31075400Y-100200000D01*
G75*
G02*
X31325000Y-100449600I0J-249600D01*
G01*
X31325000Y-101150400D01*
G75*
G02*
X31075400Y-101400000I-249600J0D01*
G01*
X29774600Y-101400000D01*
G75*
G02*
X29525000Y-101150400I0J249600D01*
G01*
X29525000Y-100449600D01*
G75*
G02*
X29774600Y-100200000I249600J0D01*
G01*
G37*
%TD*%
%TO.C,C8*%
G36*
G01*
X48425000Y-92756250D02*
X48425000Y-92243750D01*
G75*
G02*
X48643750Y-92025000I218750J0D01*
G01*
X49081250Y-92025000D01*
G75*
G02*
X49300000Y-92243750I0J-218750D01*
G01*
X49300000Y-92756250D01*
G75*
G02*
X49081250Y-92975000I-218750J0D01*
G01*
X48643750Y-92975000D01*
G75*
G02*
X48425000Y-92756250I0J218750D01*
G01*
G37*
G36*
G01*
X50000000Y-92756250D02*
X50000000Y-92243750D01*
G75*
G02*
X50218750Y-92025000I218750J0D01*
G01*
X50656250Y-92025000D01*
G75*
G02*
X50875000Y-92243750I0J-218750D01*
G01*
X50875000Y-92756250D01*
G75*
G02*
X50656250Y-92975000I-218750J0D01*
G01*
X50218750Y-92975000D01*
G75*
G02*
X50000000Y-92756250I0J218750D01*
G01*
G37*
%TD*%
D13*
%TO.C,J5*%
X63155000Y-91825000D03*
D14*
X61680000Y-93350000D03*
D13*
X60205000Y-91825000D03*
%TD*%
%TO.C,R3*%
G36*
G01*
X75560000Y-98917500D02*
X75560000Y-99262500D01*
G75*
G02*
X75412500Y-99410000I-147500J0D01*
G01*
X75117500Y-99410000D01*
G75*
G02*
X74970000Y-99262500I0J147500D01*
G01*
X74970000Y-98917500D01*
G75*
G02*
X75117500Y-98770000I147500J0D01*
G01*
X75412500Y-98770000D01*
G75*
G02*
X75560000Y-98917500I0J-147500D01*
G01*
G37*
G36*
G01*
X74590000Y-98917500D02*
X74590000Y-99262500D01*
G75*
G02*
X74442500Y-99410000I-147500J0D01*
G01*
X74147500Y-99410000D01*
G75*
G02*
X74000000Y-99262500I0J147500D01*
G01*
X74000000Y-98917500D01*
G75*
G02*
X74147500Y-98770000I147500J0D01*
G01*
X74442500Y-98770000D01*
G75*
G02*
X74590000Y-98917500I0J-147500D01*
G01*
G37*
%TD*%
%TO.C,C3*%
G36*
G01*
X78695000Y-103883750D02*
X78695000Y-104396250D01*
G75*
G02*
X78476250Y-104615000I-218750J0D01*
G01*
X78038750Y-104615000D01*
G75*
G02*
X77820000Y-104396250I0J218750D01*
G01*
X77820000Y-103883750D01*
G75*
G02*
X78038750Y-103665000I218750J0D01*
G01*
X78476250Y-103665000D01*
G75*
G02*
X78695000Y-103883750I0J-218750D01*
G01*
G37*
G36*
G01*
X77120000Y-103883750D02*
X77120000Y-104396250D01*
G75*
G02*
X76901250Y-104615000I-218750J0D01*
G01*
X76463750Y-104615000D01*
G75*
G02*
X76245000Y-104396250I0J218750D01*
G01*
X76245000Y-103883750D01*
G75*
G02*
X76463750Y-103665000I218750J0D01*
G01*
X76901250Y-103665000D01*
G75*
G02*
X77120000Y-103883750I0J-218750D01*
G01*
G37*
%TD*%
D15*
%TO.C,Y1*%
X77010000Y-92480000D03*
X74510000Y-92480000D03*
%TD*%
%TO.C,R1*%
G36*
G01*
X65880000Y-101637500D02*
X65880000Y-101982500D01*
G75*
G02*
X65732500Y-102130000I-147500J0D01*
G01*
X65437500Y-102130000D01*
G75*
G02*
X65290000Y-101982500I0J147500D01*
G01*
X65290000Y-101637500D01*
G75*
G02*
X65437500Y-101490000I147500J0D01*
G01*
X65732500Y-101490000D01*
G75*
G02*
X65880000Y-101637500I0J-147500D01*
G01*
G37*
G36*
G01*
X64910000Y-101637500D02*
X64910000Y-101982500D01*
G75*
G02*
X64762500Y-102130000I-147500J0D01*
G01*
X64467500Y-102130000D01*
G75*
G02*
X64320000Y-101982500I0J147500D01*
G01*
X64320000Y-101637500D01*
G75*
G02*
X64467500Y-101490000I147500J0D01*
G01*
X64762500Y-101490000D01*
G75*
G02*
X64910000Y-101637500I0J-147500D01*
G01*
G37*
%TD*%
%TO.C,R4*%
G36*
G01*
X64910000Y-100637500D02*
X64910000Y-100982500D01*
G75*
G02*
X64762500Y-101130000I-147500J0D01*
G01*
X64467500Y-101130000D01*
G75*
G02*
X64320000Y-100982500I0J147500D01*
G01*
X64320000Y-100637500D01*
G75*
G02*
X64467500Y-100490000I147500J0D01*
G01*
X64762500Y-100490000D01*
G75*
G02*
X64910000Y-100637500I0J-147500D01*
G01*
G37*
G36*
G01*
X65880000Y-100637500D02*
X65880000Y-100982500D01*
G75*
G02*
X65732500Y-101130000I-147500J0D01*
G01*
X65437500Y-101130000D01*
G75*
G02*
X65290000Y-100982500I0J147500D01*
G01*
X65290000Y-100637500D01*
G75*
G02*
X65437500Y-100490000I147500J0D01*
G01*
X65732500Y-100490000D01*
G75*
G02*
X65880000Y-100637500I0J-147500D01*
G01*
G37*
%TD*%
%TO.C,D1*%
G36*
G01*
X81080000Y-91377500D02*
X81080000Y-91722500D01*
G75*
G02*
X80932500Y-91870000I-147500J0D01*
G01*
X80637500Y-91870000D01*
G75*
G02*
X80490000Y-91722500I0J147500D01*
G01*
X80490000Y-91377500D01*
G75*
G02*
X80637500Y-91230000I147500J0D01*
G01*
X80932500Y-91230000D01*
G75*
G02*
X81080000Y-91377500I0J-147500D01*
G01*
G37*
G36*
G01*
X80110000Y-91377500D02*
X80110000Y-91722500D01*
G75*
G02*
X79962500Y-91870000I-147500J0D01*
G01*
X79667500Y-91870000D01*
G75*
G02*
X79520000Y-91722500I0J147500D01*
G01*
X79520000Y-91377500D01*
G75*
G02*
X79667500Y-91230000I147500J0D01*
G01*
X79962500Y-91230000D01*
G75*
G02*
X80110000Y-91377500I0J-147500D01*
G01*
G37*
%TD*%
%TO.C,R6*%
G36*
G01*
X81080000Y-92627500D02*
X81080000Y-92972500D01*
G75*
G02*
X80932500Y-93120000I-147500J0D01*
G01*
X80637500Y-93120000D01*
G75*
G02*
X80490000Y-92972500I0J147500D01*
G01*
X80490000Y-92627500D01*
G75*
G02*
X80637500Y-92480000I147500J0D01*
G01*
X80932500Y-92480000D01*
G75*
G02*
X81080000Y-92627500I0J-147500D01*
G01*
G37*
G36*
G01*
X80110000Y-92627500D02*
X80110000Y-92972500D01*
G75*
G02*
X79962500Y-93120000I-147500J0D01*
G01*
X79667500Y-93120000D01*
G75*
G02*
X79520000Y-92972500I0J147500D01*
G01*
X79520000Y-92627500D01*
G75*
G02*
X79667500Y-92480000I147500J0D01*
G01*
X79962500Y-92480000D01*
G75*
G02*
X80110000Y-92627500I0J-147500D01*
G01*
G37*
%TD*%
M02*
