%TF.GenerationSoftware,KiCad,Pcbnew,(5.1.6-0-10_14)*%
%TF.CreationDate,2020-10-15T10:38:44-05:00*%
%TF.ProjectId,MBRadio_4732_BO,4d425261-6469-46f5-9f34-3733325f424f,rev?*%
%TF.SameCoordinates,Original*%
%TF.FileFunction,Soldermask,Top*%
%TF.FilePolarity,Negative*%
%FSLAX46Y46*%
G04 Gerber Fmt 4.6, Leading zero omitted, Abs format (unit mm)*
G04 Created by KiCad (PCBNEW (5.1.6-0-10_14)) date 2020-10-15 10:38:44*
%MOMM*%
%LPD*%
G01*
G04 APERTURE LIST*
%ADD10C,3.600000*%
%ADD11R,0.900000X1.000000*%
%ADD12C,1.700000*%
%ADD13R,2.800000X3.000000*%
%ADD14R,2.800000X2.200000*%
%ADD15R,1.800000X1.800000*%
%ADD16O,1.800000X1.800000*%
%ADD17R,1.150000X2.300000*%
%ADD18R,1.100000X1.150000*%
%ADD19O,1.450000X1.450000*%
%ADD20R,1.450000X1.450000*%
%ADD21R,1.100000X1.900000*%
G04 APERTURE END LIST*
%TO.C,U5*%
G36*
G01*
X37500000Y-95770000D02*
X37500000Y-95420000D01*
G75*
G02*
X37675000Y-95245000I175000J0D01*
G01*
X39375000Y-95245000D01*
G75*
G02*
X39550000Y-95420000I0J-175000D01*
G01*
X39550000Y-95770000D01*
G75*
G02*
X39375000Y-95945000I-175000J0D01*
G01*
X37675000Y-95945000D01*
G75*
G02*
X37500000Y-95770000I0J175000D01*
G01*
G37*
G36*
G01*
X37500000Y-97040000D02*
X37500000Y-96690000D01*
G75*
G02*
X37675000Y-96515000I175000J0D01*
G01*
X39375000Y-96515000D01*
G75*
G02*
X39550000Y-96690000I0J-175000D01*
G01*
X39550000Y-97040000D01*
G75*
G02*
X39375000Y-97215000I-175000J0D01*
G01*
X37675000Y-97215000D01*
G75*
G02*
X37500000Y-97040000I0J175000D01*
G01*
G37*
G36*
G01*
X37500000Y-98310000D02*
X37500000Y-97960000D01*
G75*
G02*
X37675000Y-97785000I175000J0D01*
G01*
X39375000Y-97785000D01*
G75*
G02*
X39550000Y-97960000I0J-175000D01*
G01*
X39550000Y-98310000D01*
G75*
G02*
X39375000Y-98485000I-175000J0D01*
G01*
X37675000Y-98485000D01*
G75*
G02*
X37500000Y-98310000I0J175000D01*
G01*
G37*
G36*
G01*
X37500000Y-99580000D02*
X37500000Y-99230000D01*
G75*
G02*
X37675000Y-99055000I175000J0D01*
G01*
X39375000Y-99055000D01*
G75*
G02*
X39550000Y-99230000I0J-175000D01*
G01*
X39550000Y-99580000D01*
G75*
G02*
X39375000Y-99755000I-175000J0D01*
G01*
X37675000Y-99755000D01*
G75*
G02*
X37500000Y-99580000I0J175000D01*
G01*
G37*
G36*
G01*
X42450000Y-99580000D02*
X42450000Y-99230000D01*
G75*
G02*
X42625000Y-99055000I175000J0D01*
G01*
X44325000Y-99055000D01*
G75*
G02*
X44500000Y-99230000I0J-175000D01*
G01*
X44500000Y-99580000D01*
G75*
G02*
X44325000Y-99755000I-175000J0D01*
G01*
X42625000Y-99755000D01*
G75*
G02*
X42450000Y-99580000I0J175000D01*
G01*
G37*
G36*
G01*
X42450000Y-98310000D02*
X42450000Y-97960000D01*
G75*
G02*
X42625000Y-97785000I175000J0D01*
G01*
X44325000Y-97785000D01*
G75*
G02*
X44500000Y-97960000I0J-175000D01*
G01*
X44500000Y-98310000D01*
G75*
G02*
X44325000Y-98485000I-175000J0D01*
G01*
X42625000Y-98485000D01*
G75*
G02*
X42450000Y-98310000I0J175000D01*
G01*
G37*
G36*
G01*
X42450000Y-97040000D02*
X42450000Y-96690000D01*
G75*
G02*
X42625000Y-96515000I175000J0D01*
G01*
X44325000Y-96515000D01*
G75*
G02*
X44500000Y-96690000I0J-175000D01*
G01*
X44500000Y-97040000D01*
G75*
G02*
X44325000Y-97215000I-175000J0D01*
G01*
X42625000Y-97215000D01*
G75*
G02*
X42450000Y-97040000I0J175000D01*
G01*
G37*
G36*
G01*
X42450000Y-95770000D02*
X42450000Y-95420000D01*
G75*
G02*
X42625000Y-95245000I175000J0D01*
G01*
X44325000Y-95245000D01*
G75*
G02*
X44500000Y-95420000I0J-175000D01*
G01*
X44500000Y-95770000D01*
G75*
G02*
X44325000Y-95945000I-175000J0D01*
G01*
X42625000Y-95945000D01*
G75*
G02*
X42450000Y-95770000I0J175000D01*
G01*
G37*
%TD*%
D10*
%TO.C,REF\u002A\u002A*%
X82000000Y-104000000D03*
%TD*%
%TO.C,REF\u002A\u002A*%
X31000000Y-104000000D03*
%TD*%
%TO.C,C1*%
G36*
G01*
X73990000Y-95477500D02*
X73990000Y-95082500D01*
G75*
G02*
X74162500Y-94910000I172500J0D01*
G01*
X74507500Y-94910000D01*
G75*
G02*
X74680000Y-95082500I0J-172500D01*
G01*
X74680000Y-95477500D01*
G75*
G02*
X74507500Y-95650000I-172500J0D01*
G01*
X74162500Y-95650000D01*
G75*
G02*
X73990000Y-95477500I0J172500D01*
G01*
G37*
G36*
G01*
X74960000Y-95477500D02*
X74960000Y-95082500D01*
G75*
G02*
X75132500Y-94910000I172500J0D01*
G01*
X75477500Y-94910000D01*
G75*
G02*
X75650000Y-95082500I0J-172500D01*
G01*
X75650000Y-95477500D01*
G75*
G02*
X75477500Y-95650000I-172500J0D01*
G01*
X75132500Y-95650000D01*
G75*
G02*
X74960000Y-95477500I0J172500D01*
G01*
G37*
%TD*%
%TO.C,C2*%
G36*
G01*
X74970000Y-94397500D02*
X74970000Y-94002500D01*
G75*
G02*
X75142500Y-93830000I172500J0D01*
G01*
X75487500Y-93830000D01*
G75*
G02*
X75660000Y-94002500I0J-172500D01*
G01*
X75660000Y-94397500D01*
G75*
G02*
X75487500Y-94570000I-172500J0D01*
G01*
X75142500Y-94570000D01*
G75*
G02*
X74970000Y-94397500I0J172500D01*
G01*
G37*
G36*
G01*
X74000000Y-94397500D02*
X74000000Y-94002500D01*
G75*
G02*
X74172500Y-93830000I172500J0D01*
G01*
X74517500Y-93830000D01*
G75*
G02*
X74690000Y-94002500I0J-172500D01*
G01*
X74690000Y-94397500D01*
G75*
G02*
X74517500Y-94570000I-172500J0D01*
G01*
X74172500Y-94570000D01*
G75*
G02*
X74000000Y-94397500I0J172500D01*
G01*
G37*
%TD*%
%TO.C,C6*%
G36*
G01*
X63620000Y-94107500D02*
X63620000Y-93712500D01*
G75*
G02*
X63792500Y-93540000I172500J0D01*
G01*
X64137500Y-93540000D01*
G75*
G02*
X64310000Y-93712500I0J-172500D01*
G01*
X64310000Y-94107500D01*
G75*
G02*
X64137500Y-94280000I-172500J0D01*
G01*
X63792500Y-94280000D01*
G75*
G02*
X63620000Y-94107500I0J172500D01*
G01*
G37*
G36*
G01*
X64590000Y-94107500D02*
X64590000Y-93712500D01*
G75*
G02*
X64762500Y-93540000I172500J0D01*
G01*
X65107500Y-93540000D01*
G75*
G02*
X65280000Y-93712500I0J-172500D01*
G01*
X65280000Y-94107500D01*
G75*
G02*
X65107500Y-94280000I-172500J0D01*
G01*
X64762500Y-94280000D01*
G75*
G02*
X64590000Y-94107500I0J172500D01*
G01*
G37*
%TD*%
%TO.C,C7*%
G36*
G01*
X45325000Y-92781250D02*
X45325000Y-92218750D01*
G75*
G02*
X45568750Y-91975000I243750J0D01*
G01*
X46056250Y-91975000D01*
G75*
G02*
X46300000Y-92218750I0J-243750D01*
G01*
X46300000Y-92781250D01*
G75*
G02*
X46056250Y-93025000I-243750J0D01*
G01*
X45568750Y-93025000D01*
G75*
G02*
X45325000Y-92781250I0J243750D01*
G01*
G37*
G36*
G01*
X46900000Y-92781250D02*
X46900000Y-92218750D01*
G75*
G02*
X47143750Y-91975000I243750J0D01*
G01*
X47631250Y-91975000D01*
G75*
G02*
X47875000Y-92218750I0J-243750D01*
G01*
X47875000Y-92781250D01*
G75*
G02*
X47631250Y-93025000I-243750J0D01*
G01*
X47143750Y-93025000D01*
G75*
G02*
X46900000Y-92781250I0J243750D01*
G01*
G37*
%TD*%
%TO.C,C9*%
G36*
G01*
X60450000Y-96057500D02*
X60450000Y-95662500D01*
G75*
G02*
X60622500Y-95490000I172500J0D01*
G01*
X60967500Y-95490000D01*
G75*
G02*
X61140000Y-95662500I0J-172500D01*
G01*
X61140000Y-96057500D01*
G75*
G02*
X60967500Y-96230000I-172500J0D01*
G01*
X60622500Y-96230000D01*
G75*
G02*
X60450000Y-96057500I0J172500D01*
G01*
G37*
G36*
G01*
X59480000Y-96057500D02*
X59480000Y-95662500D01*
G75*
G02*
X59652500Y-95490000I172500J0D01*
G01*
X59997500Y-95490000D01*
G75*
G02*
X60170000Y-95662500I0J-172500D01*
G01*
X60170000Y-96057500D01*
G75*
G02*
X59997500Y-96230000I-172500J0D01*
G01*
X59652500Y-96230000D01*
G75*
G02*
X59480000Y-96057500I0J172500D01*
G01*
G37*
%TD*%
%TO.C,C12*%
G36*
G01*
X39475000Y-92781250D02*
X39475000Y-92218750D01*
G75*
G02*
X39718750Y-91975000I243750J0D01*
G01*
X40206250Y-91975000D01*
G75*
G02*
X40450000Y-92218750I0J-243750D01*
G01*
X40450000Y-92781250D01*
G75*
G02*
X40206250Y-93025000I-243750J0D01*
G01*
X39718750Y-93025000D01*
G75*
G02*
X39475000Y-92781250I0J243750D01*
G01*
G37*
G36*
G01*
X41050000Y-92781250D02*
X41050000Y-92218750D01*
G75*
G02*
X41293750Y-91975000I243750J0D01*
G01*
X41781250Y-91975000D01*
G75*
G02*
X42025000Y-92218750I0J-243750D01*
G01*
X42025000Y-92781250D01*
G75*
G02*
X41781250Y-93025000I-243750J0D01*
G01*
X41293750Y-93025000D01*
G75*
G02*
X41050000Y-92781250I0J243750D01*
G01*
G37*
%TD*%
%TO.C,C13*%
G36*
G01*
X36937500Y-96230000D02*
X36542500Y-96230000D01*
G75*
G02*
X36370000Y-96057500I0J172500D01*
G01*
X36370000Y-95712500D01*
G75*
G02*
X36542500Y-95540000I172500J0D01*
G01*
X36937500Y-95540000D01*
G75*
G02*
X37110000Y-95712500I0J-172500D01*
G01*
X37110000Y-96057500D01*
G75*
G02*
X36937500Y-96230000I-172500J0D01*
G01*
G37*
G36*
G01*
X36937500Y-97200000D02*
X36542500Y-97200000D01*
G75*
G02*
X36370000Y-97027500I0J172500D01*
G01*
X36370000Y-96682500D01*
G75*
G02*
X36542500Y-96510000I172500J0D01*
G01*
X36937500Y-96510000D01*
G75*
G02*
X37110000Y-96682500I0J-172500D01*
G01*
X37110000Y-97027500D01*
G75*
G02*
X36937500Y-97200000I-172500J0D01*
G01*
G37*
%TD*%
%TO.C,C14*%
G36*
G01*
X42590000Y-100532500D02*
X42590000Y-100927500D01*
G75*
G02*
X42417500Y-101100000I-172500J0D01*
G01*
X42072500Y-101100000D01*
G75*
G02*
X41900000Y-100927500I0J172500D01*
G01*
X41900000Y-100532500D01*
G75*
G02*
X42072500Y-100360000I172500J0D01*
G01*
X42417500Y-100360000D01*
G75*
G02*
X42590000Y-100532500I0J-172500D01*
G01*
G37*
G36*
G01*
X41620000Y-100532500D02*
X41620000Y-100927500D01*
G75*
G02*
X41447500Y-101100000I-172500J0D01*
G01*
X41102500Y-101100000D01*
G75*
G02*
X40930000Y-100927500I0J172500D01*
G01*
X40930000Y-100532500D01*
G75*
G02*
X41102500Y-100360000I172500J0D01*
G01*
X41447500Y-100360000D01*
G75*
G02*
X41620000Y-100532500I0J-172500D01*
G01*
G37*
%TD*%
D11*
%TO.C,D2*%
X64400000Y-95080000D03*
X62500000Y-95080000D03*
X63450000Y-97080000D03*
%TD*%
D12*
%TO.C,J3*%
X52100000Y-102600000D03*
X52100000Y-96600000D03*
D13*
X46750000Y-102800000D03*
X57450000Y-96300000D03*
D14*
X46750000Y-96450000D03*
%TD*%
%TO.C,J2*%
G36*
G01*
X79360000Y-99850000D02*
X78060000Y-99850000D01*
G75*
G02*
X77885000Y-99675000I0J175000D01*
G01*
X77885000Y-99325000D01*
G75*
G02*
X78060000Y-99150000I175000J0D01*
G01*
X79360000Y-99150000D01*
G75*
G02*
X79535000Y-99325000I0J-175000D01*
G01*
X79535000Y-99675000D01*
G75*
G02*
X79360000Y-99850000I-175000J0D01*
G01*
G37*
G36*
G01*
X79360000Y-98850000D02*
X78060000Y-98850000D01*
G75*
G02*
X77885000Y-98675000I0J175000D01*
G01*
X77885000Y-98325000D01*
G75*
G02*
X78060000Y-98150000I175000J0D01*
G01*
X79360000Y-98150000D01*
G75*
G02*
X79535000Y-98325000I0J-175000D01*
G01*
X79535000Y-98675000D01*
G75*
G02*
X79360000Y-98850000I-175000J0D01*
G01*
G37*
G36*
G01*
X79360000Y-97850000D02*
X78060000Y-97850000D01*
G75*
G02*
X77885000Y-97675000I0J175000D01*
G01*
X77885000Y-97325000D01*
G75*
G02*
X78060000Y-97150000I175000J0D01*
G01*
X79360000Y-97150000D01*
G75*
G02*
X79535000Y-97325000I0J-175000D01*
G01*
X79535000Y-97675000D01*
G75*
G02*
X79360000Y-97850000I-175000J0D01*
G01*
G37*
G36*
G01*
X79360000Y-96850000D02*
X78060000Y-96850000D01*
G75*
G02*
X77885000Y-96675000I0J175000D01*
G01*
X77885000Y-96325000D01*
G75*
G02*
X78060000Y-96150000I175000J0D01*
G01*
X79360000Y-96150000D01*
G75*
G02*
X79535000Y-96325000I0J-175000D01*
G01*
X79535000Y-96675000D01*
G75*
G02*
X79360000Y-96850000I-175000J0D01*
G01*
G37*
G36*
G01*
X83264600Y-101450000D02*
X81905400Y-101450000D01*
G75*
G02*
X81635000Y-101179600I0J270400D01*
G01*
X81635000Y-100420400D01*
G75*
G02*
X81905400Y-100150000I270400J0D01*
G01*
X83264600Y-100150000D01*
G75*
G02*
X83535000Y-100420400I0J-270400D01*
G01*
X83535000Y-101179600D01*
G75*
G02*
X83264600Y-101450000I-270400J0D01*
G01*
G37*
G36*
G01*
X83264600Y-95850000D02*
X81905400Y-95850000D01*
G75*
G02*
X81635000Y-95579600I0J270400D01*
G01*
X81635000Y-94820400D01*
G75*
G02*
X81905400Y-94550000I270400J0D01*
G01*
X83264600Y-94550000D01*
G75*
G02*
X83535000Y-94820400I0J-270400D01*
G01*
X83535000Y-95579600D01*
G75*
G02*
X83264600Y-95850000I-270400J0D01*
G01*
G37*
%TD*%
%TO.C,L1*%
G36*
G01*
X65535000Y-98288750D02*
X65535000Y-98851250D01*
G75*
G02*
X65291250Y-99095000I-243750J0D01*
G01*
X64803750Y-99095000D01*
G75*
G02*
X64560000Y-98851250I0J243750D01*
G01*
X64560000Y-98288750D01*
G75*
G02*
X64803750Y-98045000I243750J0D01*
G01*
X65291250Y-98045000D01*
G75*
G02*
X65535000Y-98288750I0J-243750D01*
G01*
G37*
G36*
G01*
X63960000Y-98288750D02*
X63960000Y-98851250D01*
G75*
G02*
X63716250Y-99095000I-243750J0D01*
G01*
X63228750Y-99095000D01*
G75*
G02*
X62985000Y-98851250I0J243750D01*
G01*
X62985000Y-98288750D01*
G75*
G02*
X63228750Y-98045000I243750J0D01*
G01*
X63716250Y-98045000D01*
G75*
G02*
X63960000Y-98288750I0J-243750D01*
G01*
G37*
%TD*%
%TO.C,R2*%
G36*
G01*
X73860000Y-90967500D02*
X73860000Y-90572500D01*
G75*
G02*
X74032500Y-90400000I172500J0D01*
G01*
X74377500Y-90400000D01*
G75*
G02*
X74550000Y-90572500I0J-172500D01*
G01*
X74550000Y-90967500D01*
G75*
G02*
X74377500Y-91140000I-172500J0D01*
G01*
X74032500Y-91140000D01*
G75*
G02*
X73860000Y-90967500I0J172500D01*
G01*
G37*
G36*
G01*
X74830000Y-90967500D02*
X74830000Y-90572500D01*
G75*
G02*
X75002500Y-90400000I172500J0D01*
G01*
X75347500Y-90400000D01*
G75*
G02*
X75520000Y-90572500I0J-172500D01*
G01*
X75520000Y-90967500D01*
G75*
G02*
X75347500Y-91140000I-172500J0D01*
G01*
X75002500Y-91140000D01*
G75*
G02*
X74830000Y-90967500I0J172500D01*
G01*
G37*
%TD*%
%TO.C,R5*%
G36*
G01*
X42420000Y-92697500D02*
X42420000Y-92302500D01*
G75*
G02*
X42592500Y-92130000I172500J0D01*
G01*
X42937500Y-92130000D01*
G75*
G02*
X43110000Y-92302500I0J-172500D01*
G01*
X43110000Y-92697500D01*
G75*
G02*
X42937500Y-92870000I-172500J0D01*
G01*
X42592500Y-92870000D01*
G75*
G02*
X42420000Y-92697500I0J172500D01*
G01*
G37*
G36*
G01*
X43390000Y-92697500D02*
X43390000Y-92302500D01*
G75*
G02*
X43562500Y-92130000I172500J0D01*
G01*
X43907500Y-92130000D01*
G75*
G02*
X44080000Y-92302500I0J-172500D01*
G01*
X44080000Y-92697500D01*
G75*
G02*
X43907500Y-92870000I-172500J0D01*
G01*
X43562500Y-92870000D01*
G75*
G02*
X43390000Y-92697500I0J172500D01*
G01*
G37*
%TD*%
%TO.C,R12*%
G36*
G01*
X43390000Y-93697500D02*
X43390000Y-93302500D01*
G75*
G02*
X43562500Y-93130000I172500J0D01*
G01*
X43907500Y-93130000D01*
G75*
G02*
X44080000Y-93302500I0J-172500D01*
G01*
X44080000Y-93697500D01*
G75*
G02*
X43907500Y-93870000I-172500J0D01*
G01*
X43562500Y-93870000D01*
G75*
G02*
X43390000Y-93697500I0J172500D01*
G01*
G37*
G36*
G01*
X42420000Y-93697500D02*
X42420000Y-93302500D01*
G75*
G02*
X42592500Y-93130000I172500J0D01*
G01*
X42937500Y-93130000D01*
G75*
G02*
X43110000Y-93302500I0J-172500D01*
G01*
X43110000Y-93697500D01*
G75*
G02*
X42937500Y-93870000I-172500J0D01*
G01*
X42592500Y-93870000D01*
G75*
G02*
X42420000Y-93697500I0J172500D01*
G01*
G37*
%TD*%
%TO.C,R13*%
G36*
G01*
X43540000Y-100532500D02*
X43540000Y-100927500D01*
G75*
G02*
X43367500Y-101100000I-172500J0D01*
G01*
X43022500Y-101100000D01*
G75*
G02*
X42850000Y-100927500I0J172500D01*
G01*
X42850000Y-100532500D01*
G75*
G02*
X43022500Y-100360000I172500J0D01*
G01*
X43367500Y-100360000D01*
G75*
G02*
X43540000Y-100532500I0J-172500D01*
G01*
G37*
G36*
G01*
X44510000Y-100532500D02*
X44510000Y-100927500D01*
G75*
G02*
X44337500Y-101100000I-172500J0D01*
G01*
X43992500Y-101100000D01*
G75*
G02*
X43820000Y-100927500I0J172500D01*
G01*
X43820000Y-100532500D01*
G75*
G02*
X43992500Y-100360000I172500J0D01*
G01*
X44337500Y-100360000D01*
G75*
G02*
X44510000Y-100532500I0J-172500D01*
G01*
G37*
%TD*%
%TO.C,U1*%
G36*
G01*
X66500000Y-91650000D02*
X66500000Y-91300000D01*
G75*
G02*
X66675000Y-91125000I175000J0D01*
G01*
X68375000Y-91125000D01*
G75*
G02*
X68550000Y-91300000I0J-175000D01*
G01*
X68550000Y-91650000D01*
G75*
G02*
X68375000Y-91825000I-175000J0D01*
G01*
X66675000Y-91825000D01*
G75*
G02*
X66500000Y-91650000I0J175000D01*
G01*
G37*
G36*
G01*
X66500000Y-92920000D02*
X66500000Y-92570000D01*
G75*
G02*
X66675000Y-92395000I175000J0D01*
G01*
X68375000Y-92395000D01*
G75*
G02*
X68550000Y-92570000I0J-175000D01*
G01*
X68550000Y-92920000D01*
G75*
G02*
X68375000Y-93095000I-175000J0D01*
G01*
X66675000Y-93095000D01*
G75*
G02*
X66500000Y-92920000I0J175000D01*
G01*
G37*
G36*
G01*
X66500000Y-94190000D02*
X66500000Y-93840000D01*
G75*
G02*
X66675000Y-93665000I175000J0D01*
G01*
X68375000Y-93665000D01*
G75*
G02*
X68550000Y-93840000I0J-175000D01*
G01*
X68550000Y-94190000D01*
G75*
G02*
X68375000Y-94365000I-175000J0D01*
G01*
X66675000Y-94365000D01*
G75*
G02*
X66500000Y-94190000I0J175000D01*
G01*
G37*
G36*
G01*
X66500000Y-95460000D02*
X66500000Y-95110000D01*
G75*
G02*
X66675000Y-94935000I175000J0D01*
G01*
X68375000Y-94935000D01*
G75*
G02*
X68550000Y-95110000I0J-175000D01*
G01*
X68550000Y-95460000D01*
G75*
G02*
X68375000Y-95635000I-175000J0D01*
G01*
X66675000Y-95635000D01*
G75*
G02*
X66500000Y-95460000I0J175000D01*
G01*
G37*
G36*
G01*
X66500000Y-96730000D02*
X66500000Y-96380000D01*
G75*
G02*
X66675000Y-96205000I175000J0D01*
G01*
X68375000Y-96205000D01*
G75*
G02*
X68550000Y-96380000I0J-175000D01*
G01*
X68550000Y-96730000D01*
G75*
G02*
X68375000Y-96905000I-175000J0D01*
G01*
X66675000Y-96905000D01*
G75*
G02*
X66500000Y-96730000I0J175000D01*
G01*
G37*
G36*
G01*
X66500000Y-98000000D02*
X66500000Y-97650000D01*
G75*
G02*
X66675000Y-97475000I175000J0D01*
G01*
X68375000Y-97475000D01*
G75*
G02*
X68550000Y-97650000I0J-175000D01*
G01*
X68550000Y-98000000D01*
G75*
G02*
X68375000Y-98175000I-175000J0D01*
G01*
X66675000Y-98175000D01*
G75*
G02*
X66500000Y-98000000I0J175000D01*
G01*
G37*
G36*
G01*
X66500000Y-99270000D02*
X66500000Y-98920000D01*
G75*
G02*
X66675000Y-98745000I175000J0D01*
G01*
X68375000Y-98745000D01*
G75*
G02*
X68550000Y-98920000I0J-175000D01*
G01*
X68550000Y-99270000D01*
G75*
G02*
X68375000Y-99445000I-175000J0D01*
G01*
X66675000Y-99445000D01*
G75*
G02*
X66500000Y-99270000I0J175000D01*
G01*
G37*
G36*
G01*
X66500000Y-100540000D02*
X66500000Y-100190000D01*
G75*
G02*
X66675000Y-100015000I175000J0D01*
G01*
X68375000Y-100015000D01*
G75*
G02*
X68550000Y-100190000I0J-175000D01*
G01*
X68550000Y-100540000D01*
G75*
G02*
X68375000Y-100715000I-175000J0D01*
G01*
X66675000Y-100715000D01*
G75*
G02*
X66500000Y-100540000I0J175000D01*
G01*
G37*
G36*
G01*
X71450000Y-100540000D02*
X71450000Y-100190000D01*
G75*
G02*
X71625000Y-100015000I175000J0D01*
G01*
X73325000Y-100015000D01*
G75*
G02*
X73500000Y-100190000I0J-175000D01*
G01*
X73500000Y-100540000D01*
G75*
G02*
X73325000Y-100715000I-175000J0D01*
G01*
X71625000Y-100715000D01*
G75*
G02*
X71450000Y-100540000I0J175000D01*
G01*
G37*
G36*
G01*
X71450000Y-99270000D02*
X71450000Y-98920000D01*
G75*
G02*
X71625000Y-98745000I175000J0D01*
G01*
X73325000Y-98745000D01*
G75*
G02*
X73500000Y-98920000I0J-175000D01*
G01*
X73500000Y-99270000D01*
G75*
G02*
X73325000Y-99445000I-175000J0D01*
G01*
X71625000Y-99445000D01*
G75*
G02*
X71450000Y-99270000I0J175000D01*
G01*
G37*
G36*
G01*
X71450000Y-98000000D02*
X71450000Y-97650000D01*
G75*
G02*
X71625000Y-97475000I175000J0D01*
G01*
X73325000Y-97475000D01*
G75*
G02*
X73500000Y-97650000I0J-175000D01*
G01*
X73500000Y-98000000D01*
G75*
G02*
X73325000Y-98175000I-175000J0D01*
G01*
X71625000Y-98175000D01*
G75*
G02*
X71450000Y-98000000I0J175000D01*
G01*
G37*
G36*
G01*
X71450000Y-96730000D02*
X71450000Y-96380000D01*
G75*
G02*
X71625000Y-96205000I175000J0D01*
G01*
X73325000Y-96205000D01*
G75*
G02*
X73500000Y-96380000I0J-175000D01*
G01*
X73500000Y-96730000D01*
G75*
G02*
X73325000Y-96905000I-175000J0D01*
G01*
X71625000Y-96905000D01*
G75*
G02*
X71450000Y-96730000I0J175000D01*
G01*
G37*
G36*
G01*
X71450000Y-95460000D02*
X71450000Y-95110000D01*
G75*
G02*
X71625000Y-94935000I175000J0D01*
G01*
X73325000Y-94935000D01*
G75*
G02*
X73500000Y-95110000I0J-175000D01*
G01*
X73500000Y-95460000D01*
G75*
G02*
X73325000Y-95635000I-175000J0D01*
G01*
X71625000Y-95635000D01*
G75*
G02*
X71450000Y-95460000I0J175000D01*
G01*
G37*
G36*
G01*
X71450000Y-94190000D02*
X71450000Y-93840000D01*
G75*
G02*
X71625000Y-93665000I175000J0D01*
G01*
X73325000Y-93665000D01*
G75*
G02*
X73500000Y-93840000I0J-175000D01*
G01*
X73500000Y-94190000D01*
G75*
G02*
X73325000Y-94365000I-175000J0D01*
G01*
X71625000Y-94365000D01*
G75*
G02*
X71450000Y-94190000I0J175000D01*
G01*
G37*
G36*
G01*
X71450000Y-92920000D02*
X71450000Y-92570000D01*
G75*
G02*
X71625000Y-92395000I175000J0D01*
G01*
X73325000Y-92395000D01*
G75*
G02*
X73500000Y-92570000I0J-175000D01*
G01*
X73500000Y-92920000D01*
G75*
G02*
X73325000Y-93095000I-175000J0D01*
G01*
X71625000Y-93095000D01*
G75*
G02*
X71450000Y-92920000I0J175000D01*
G01*
G37*
G36*
G01*
X71450000Y-91650000D02*
X71450000Y-91300000D01*
G75*
G02*
X71625000Y-91125000I175000J0D01*
G01*
X73325000Y-91125000D01*
G75*
G02*
X73500000Y-91300000I0J-175000D01*
G01*
X73500000Y-91650000D01*
G75*
G02*
X73325000Y-91825000I-175000J0D01*
G01*
X71625000Y-91825000D01*
G75*
G02*
X71450000Y-91650000I0J175000D01*
G01*
G37*
%TD*%
%TO.C,J1*%
G36*
G01*
X33650000Y-96150000D02*
X34950000Y-96150000D01*
G75*
G02*
X35125000Y-96325000I0J-175000D01*
G01*
X35125000Y-96675000D01*
G75*
G02*
X34950000Y-96850000I-175000J0D01*
G01*
X33650000Y-96850000D01*
G75*
G02*
X33475000Y-96675000I0J175000D01*
G01*
X33475000Y-96325000D01*
G75*
G02*
X33650000Y-96150000I175000J0D01*
G01*
G37*
G36*
G01*
X33650000Y-97150000D02*
X34950000Y-97150000D01*
G75*
G02*
X35125000Y-97325000I0J-175000D01*
G01*
X35125000Y-97675000D01*
G75*
G02*
X34950000Y-97850000I-175000J0D01*
G01*
X33650000Y-97850000D01*
G75*
G02*
X33475000Y-97675000I0J175000D01*
G01*
X33475000Y-97325000D01*
G75*
G02*
X33650000Y-97150000I175000J0D01*
G01*
G37*
G36*
G01*
X33650000Y-98150000D02*
X34950000Y-98150000D01*
G75*
G02*
X35125000Y-98325000I0J-175000D01*
G01*
X35125000Y-98675000D01*
G75*
G02*
X34950000Y-98850000I-175000J0D01*
G01*
X33650000Y-98850000D01*
G75*
G02*
X33475000Y-98675000I0J175000D01*
G01*
X33475000Y-98325000D01*
G75*
G02*
X33650000Y-98150000I175000J0D01*
G01*
G37*
G36*
G01*
X33650000Y-99150000D02*
X34950000Y-99150000D01*
G75*
G02*
X35125000Y-99325000I0J-175000D01*
G01*
X35125000Y-99675000D01*
G75*
G02*
X34950000Y-99850000I-175000J0D01*
G01*
X33650000Y-99850000D01*
G75*
G02*
X33475000Y-99675000I0J175000D01*
G01*
X33475000Y-99325000D01*
G75*
G02*
X33650000Y-99150000I175000J0D01*
G01*
G37*
G36*
G01*
X29745400Y-94550000D02*
X31104600Y-94550000D01*
G75*
G02*
X31375000Y-94820400I0J-270400D01*
G01*
X31375000Y-95579600D01*
G75*
G02*
X31104600Y-95850000I-270400J0D01*
G01*
X29745400Y-95850000D01*
G75*
G02*
X29475000Y-95579600I0J270400D01*
G01*
X29475000Y-94820400D01*
G75*
G02*
X29745400Y-94550000I270400J0D01*
G01*
G37*
G36*
G01*
X29745400Y-100150000D02*
X31104600Y-100150000D01*
G75*
G02*
X31375000Y-100420400I0J-270400D01*
G01*
X31375000Y-101179600D01*
G75*
G02*
X31104600Y-101450000I-270400J0D01*
G01*
X29745400Y-101450000D01*
G75*
G02*
X29475000Y-101179600I0J270400D01*
G01*
X29475000Y-100420400D01*
G75*
G02*
X29745400Y-100150000I270400J0D01*
G01*
G37*
%TD*%
D15*
%TO.C,J6*%
X40640000Y-104140000D03*
D16*
X43180000Y-104140000D03*
%TD*%
%TO.C,C8*%
G36*
G01*
X48375000Y-92781250D02*
X48375000Y-92218750D01*
G75*
G02*
X48618750Y-91975000I243750J0D01*
G01*
X49106250Y-91975000D01*
G75*
G02*
X49350000Y-92218750I0J-243750D01*
G01*
X49350000Y-92781250D01*
G75*
G02*
X49106250Y-93025000I-243750J0D01*
G01*
X48618750Y-93025000D01*
G75*
G02*
X48375000Y-92781250I0J243750D01*
G01*
G37*
G36*
G01*
X49950000Y-92781250D02*
X49950000Y-92218750D01*
G75*
G02*
X50193750Y-91975000I243750J0D01*
G01*
X50681250Y-91975000D01*
G75*
G02*
X50925000Y-92218750I0J-243750D01*
G01*
X50925000Y-92781250D01*
G75*
G02*
X50681250Y-93025000I-243750J0D01*
G01*
X50193750Y-93025000D01*
G75*
G02*
X49950000Y-92781250I0J243750D01*
G01*
G37*
%TD*%
D17*
%TO.C,J5*%
X63155000Y-91825000D03*
D18*
X61680000Y-93350000D03*
D17*
X60205000Y-91825000D03*
%TD*%
D19*
%TO.C,J4*%
X57330000Y-91570000D03*
D20*
X55330000Y-91570000D03*
%TD*%
%TO.C,JP1*%
X37000000Y-104140000D03*
D19*
X35000000Y-104140000D03*
%TD*%
%TO.C,R3*%
G36*
G01*
X75610000Y-98892500D02*
X75610000Y-99287500D01*
G75*
G02*
X75437500Y-99460000I-172500J0D01*
G01*
X75092500Y-99460000D01*
G75*
G02*
X74920000Y-99287500I0J172500D01*
G01*
X74920000Y-98892500D01*
G75*
G02*
X75092500Y-98720000I172500J0D01*
G01*
X75437500Y-98720000D01*
G75*
G02*
X75610000Y-98892500I0J-172500D01*
G01*
G37*
G36*
G01*
X74640000Y-98892500D02*
X74640000Y-99287500D01*
G75*
G02*
X74467500Y-99460000I-172500J0D01*
G01*
X74122500Y-99460000D01*
G75*
G02*
X73950000Y-99287500I0J172500D01*
G01*
X73950000Y-98892500D01*
G75*
G02*
X74122500Y-98720000I172500J0D01*
G01*
X74467500Y-98720000D01*
G75*
G02*
X74640000Y-98892500I0J-172500D01*
G01*
G37*
%TD*%
D15*
%TO.C,J7*%
X73660000Y-104140000D03*
D16*
X71120000Y-104140000D03*
X68580000Y-104140000D03*
X66040000Y-104140000D03*
X63500000Y-104140000D03*
X60960000Y-104140000D03*
%TD*%
%TO.C,C3*%
G36*
G01*
X78745000Y-103858750D02*
X78745000Y-104421250D01*
G75*
G02*
X78501250Y-104665000I-243750J0D01*
G01*
X78013750Y-104665000D01*
G75*
G02*
X77770000Y-104421250I0J243750D01*
G01*
X77770000Y-103858750D01*
G75*
G02*
X78013750Y-103615000I243750J0D01*
G01*
X78501250Y-103615000D01*
G75*
G02*
X78745000Y-103858750I0J-243750D01*
G01*
G37*
G36*
G01*
X77170000Y-103858750D02*
X77170000Y-104421250D01*
G75*
G02*
X76926250Y-104665000I-243750J0D01*
G01*
X76438750Y-104665000D01*
G75*
G02*
X76195000Y-104421250I0J243750D01*
G01*
X76195000Y-103858750D01*
G75*
G02*
X76438750Y-103615000I243750J0D01*
G01*
X76926250Y-103615000D01*
G75*
G02*
X77170000Y-103858750I0J-243750D01*
G01*
G37*
%TD*%
D21*
%TO.C,Y1*%
X77010000Y-92480000D03*
X74510000Y-92480000D03*
%TD*%
D20*
%TO.C,JP2*%
X60610000Y-100830000D03*
D19*
X62610000Y-100830000D03*
%TD*%
%TO.C,R1*%
G36*
G01*
X65930000Y-101612500D02*
X65930000Y-102007500D01*
G75*
G02*
X65757500Y-102180000I-172500J0D01*
G01*
X65412500Y-102180000D01*
G75*
G02*
X65240000Y-102007500I0J172500D01*
G01*
X65240000Y-101612500D01*
G75*
G02*
X65412500Y-101440000I172500J0D01*
G01*
X65757500Y-101440000D01*
G75*
G02*
X65930000Y-101612500I0J-172500D01*
G01*
G37*
G36*
G01*
X64960000Y-101612500D02*
X64960000Y-102007500D01*
G75*
G02*
X64787500Y-102180000I-172500J0D01*
G01*
X64442500Y-102180000D01*
G75*
G02*
X64270000Y-102007500I0J172500D01*
G01*
X64270000Y-101612500D01*
G75*
G02*
X64442500Y-101440000I172500J0D01*
G01*
X64787500Y-101440000D01*
G75*
G02*
X64960000Y-101612500I0J-172500D01*
G01*
G37*
%TD*%
%TO.C,R4*%
G36*
G01*
X64960000Y-100612500D02*
X64960000Y-101007500D01*
G75*
G02*
X64787500Y-101180000I-172500J0D01*
G01*
X64442500Y-101180000D01*
G75*
G02*
X64270000Y-101007500I0J172500D01*
G01*
X64270000Y-100612500D01*
G75*
G02*
X64442500Y-100440000I172500J0D01*
G01*
X64787500Y-100440000D01*
G75*
G02*
X64960000Y-100612500I0J-172500D01*
G01*
G37*
G36*
G01*
X65930000Y-100612500D02*
X65930000Y-101007500D01*
G75*
G02*
X65757500Y-101180000I-172500J0D01*
G01*
X65412500Y-101180000D01*
G75*
G02*
X65240000Y-101007500I0J172500D01*
G01*
X65240000Y-100612500D01*
G75*
G02*
X65412500Y-100440000I172500J0D01*
G01*
X65757500Y-100440000D01*
G75*
G02*
X65930000Y-100612500I0J-172500D01*
G01*
G37*
%TD*%
%TO.C,D1*%
G36*
G01*
X81130000Y-91352500D02*
X81130000Y-91747500D01*
G75*
G02*
X80957500Y-91920000I-172500J0D01*
G01*
X80612500Y-91920000D01*
G75*
G02*
X80440000Y-91747500I0J172500D01*
G01*
X80440000Y-91352500D01*
G75*
G02*
X80612500Y-91180000I172500J0D01*
G01*
X80957500Y-91180000D01*
G75*
G02*
X81130000Y-91352500I0J-172500D01*
G01*
G37*
G36*
G01*
X80160000Y-91352500D02*
X80160000Y-91747500D01*
G75*
G02*
X79987500Y-91920000I-172500J0D01*
G01*
X79642500Y-91920000D01*
G75*
G02*
X79470000Y-91747500I0J172500D01*
G01*
X79470000Y-91352500D01*
G75*
G02*
X79642500Y-91180000I172500J0D01*
G01*
X79987500Y-91180000D01*
G75*
G02*
X80160000Y-91352500I0J-172500D01*
G01*
G37*
%TD*%
%TO.C,R6*%
G36*
G01*
X81130000Y-92602500D02*
X81130000Y-92997500D01*
G75*
G02*
X80957500Y-93170000I-172500J0D01*
G01*
X80612500Y-93170000D01*
G75*
G02*
X80440000Y-92997500I0J172500D01*
G01*
X80440000Y-92602500D01*
G75*
G02*
X80612500Y-92430000I172500J0D01*
G01*
X80957500Y-92430000D01*
G75*
G02*
X81130000Y-92602500I0J-172500D01*
G01*
G37*
G36*
G01*
X80160000Y-92602500D02*
X80160000Y-92997500D01*
G75*
G02*
X79987500Y-93170000I-172500J0D01*
G01*
X79642500Y-93170000D01*
G75*
G02*
X79470000Y-92997500I0J172500D01*
G01*
X79470000Y-92602500D01*
G75*
G02*
X79642500Y-92430000I172500J0D01*
G01*
X79987500Y-92430000D01*
G75*
G02*
X80160000Y-92602500I0J-172500D01*
G01*
G37*
%TD*%
M02*
