%TF.GenerationSoftware,KiCad,Pcbnew,(5.1.6-0-10_14)*%
%TF.CreationDate,2021-04-21T18:18:53-05:00*%
%TF.ProjectId,MBRadio_4732_BO3,4d425261-6469-46f5-9f34-3733325f424f,rev?*%
%TF.SameCoordinates,Original*%
%TF.FileFunction,Legend,Top*%
%TF.FilePolarity,Positive*%
%FSLAX46Y46*%
G04 Gerber Fmt 4.6, Leading zero omitted, Abs format (unit mm)*
G04 Created by KiCad (PCBNEW (5.1.6-0-10_14)) date 2021-04-21 18:18:53*
%MOMM*%
%LPD*%
G01*
G04 APERTURE LIST*
%ADD10C,0.100000*%
%ADD11C,0.120000*%
%ADD12C,0.152400*%
%ADD13C,0.127000*%
%ADD14C,0.340000*%
%ADD15C,0.150000*%
%ADD16C,0.400000*%
%ADD17C,0.015000*%
G04 APERTURE END LIST*
D10*
X96447410Y-114112380D02*
X96572410Y-113112380D01*
X96512886Y-113588571D02*
X97084315Y-113588571D01*
X97018839Y-114112380D02*
X97143839Y-113112380D01*
X97560505Y-113588571D02*
X97893839Y-113588571D01*
X97971220Y-114112380D02*
X97495029Y-114112380D01*
X97620029Y-113112380D01*
X98096220Y-113112380D01*
X98387886Y-113826666D02*
X98864077Y-113826666D01*
X98256934Y-114112380D02*
X98715267Y-113112380D01*
X98923601Y-114112380D01*
X99256934Y-114112380D02*
X99381934Y-113112380D01*
X99620029Y-113112380D01*
X99756934Y-113160000D01*
X99840267Y-113255238D01*
X99875982Y-113350476D01*
X99899791Y-113540952D01*
X99881934Y-113683809D01*
X99810505Y-113874285D01*
X99750982Y-113969523D01*
X99643839Y-114064761D01*
X99495029Y-114112380D01*
X99256934Y-114112380D01*
X100256934Y-114112380D02*
X100381934Y-113112380D01*
X100762886Y-113112380D01*
X100852172Y-113160000D01*
X100893839Y-113207619D01*
X100929553Y-113302857D01*
X100911696Y-113445714D01*
X100852172Y-113540952D01*
X100798601Y-113588571D01*
X100697410Y-113636190D01*
X100316458Y-113636190D01*
X101256934Y-114112380D02*
X101381934Y-113112380D01*
X101322410Y-113588571D02*
X101893839Y-113588571D01*
X101828363Y-114112380D02*
X101953363Y-113112380D01*
X102620029Y-113112380D02*
X102810505Y-113112380D01*
X102899791Y-113160000D01*
X102983125Y-113255238D01*
X103006934Y-113445714D01*
X102965267Y-113779047D01*
X102893839Y-113969523D01*
X102786696Y-114064761D01*
X102685505Y-114112380D01*
X102495029Y-114112380D01*
X102405744Y-114064761D01*
X102322410Y-113969523D01*
X102298601Y-113779047D01*
X102340267Y-113445714D01*
X102411696Y-113255238D01*
X102518839Y-113160000D01*
X102620029Y-113112380D01*
X103352172Y-114112380D02*
X103477172Y-113112380D01*
X103923601Y-114112380D01*
X104048601Y-113112380D01*
X104465267Y-113588571D02*
X104798601Y-113588571D01*
X104875982Y-114112380D02*
X104399791Y-114112380D01*
X104524791Y-113112380D01*
X105000982Y-113112380D01*
X105262886Y-114064761D02*
X105399791Y-114112380D01*
X105637886Y-114112380D01*
X105739077Y-114064761D01*
X105792648Y-114017142D01*
X105852172Y-113921904D01*
X105864077Y-113826666D01*
X105828363Y-113731428D01*
X105786696Y-113683809D01*
X105697410Y-113636190D01*
X105512886Y-113588571D01*
X105423601Y-113540952D01*
X105381934Y-113493333D01*
X105346220Y-113398095D01*
X105358125Y-113302857D01*
X105417648Y-113207619D01*
X105471220Y-113160000D01*
X105572410Y-113112380D01*
X105810505Y-113112380D01*
X105947410Y-113160000D01*
X107940982Y-121864761D02*
X108077886Y-121912380D01*
X108315982Y-121912380D01*
X108417172Y-121864761D01*
X108470744Y-121817142D01*
X108530267Y-121721904D01*
X108542172Y-121626666D01*
X108506458Y-121531428D01*
X108464791Y-121483809D01*
X108375505Y-121436190D01*
X108190982Y-121388571D01*
X108101696Y-121340952D01*
X108060029Y-121293333D01*
X108024315Y-121198095D01*
X108036220Y-121102857D01*
X108095744Y-121007619D01*
X108149315Y-120960000D01*
X108250505Y-120912380D01*
X108488601Y-120912380D01*
X108625505Y-120960000D01*
X108935029Y-121912380D02*
X109060029Y-120912380D01*
X109440982Y-120912380D01*
X109530267Y-120960000D01*
X109571934Y-121007619D01*
X109607648Y-121102857D01*
X109589791Y-121245714D01*
X109530267Y-121340952D01*
X109476696Y-121388571D01*
X109375505Y-121436190D01*
X108994553Y-121436190D01*
X110000505Y-121388571D02*
X110333839Y-121388571D01*
X110411220Y-121912380D02*
X109935029Y-121912380D01*
X110060029Y-120912380D01*
X110536220Y-120912380D01*
X110827886Y-121626666D02*
X111304077Y-121626666D01*
X110696934Y-121912380D02*
X111155267Y-120912380D01*
X111363601Y-121912380D01*
X111696934Y-121912380D02*
X111821934Y-120912380D01*
X112268363Y-121912380D02*
X111911220Y-121340952D01*
X112393363Y-120912380D02*
X111750505Y-121483809D01*
X112762410Y-121388571D02*
X113095744Y-121388571D01*
X113173125Y-121912380D02*
X112696934Y-121912380D01*
X112821934Y-120912380D01*
X113298125Y-120912380D01*
X114173125Y-121912380D02*
X113899315Y-121436190D01*
X113601696Y-121912380D02*
X113726696Y-120912380D01*
X114107648Y-120912380D01*
X114196934Y-120960000D01*
X114238601Y-121007619D01*
X114274315Y-121102857D01*
X114256458Y-121245714D01*
X114196934Y-121340952D01*
X114143363Y-121388571D01*
X114042172Y-121436190D01*
X113661220Y-121436190D01*
X76988619Y-135652042D02*
X76651901Y-135988759D01*
X76033183Y-135193264D01*
X76900230Y-134999652D02*
X77135932Y-134763949D01*
X77561038Y-135079622D02*
X77224321Y-135416339D01*
X76605602Y-134620844D01*
X76942320Y-134284127D01*
X77775696Y-134124186D02*
X77539994Y-134359888D01*
X77864084Y-134776576D02*
X77245366Y-133981081D01*
X77582083Y-133644364D01*
X77750442Y-133476005D02*
X78154503Y-133071944D01*
X78571191Y-134069469D02*
X77952472Y-133273974D01*
X74369245Y-135584698D02*
X73838914Y-135441593D01*
X73965184Y-135988759D02*
X73346465Y-135193264D01*
X73615839Y-134923890D01*
X73712645Y-134894427D01*
X73775780Y-134898636D01*
X73868377Y-134940725D01*
X73956766Y-135054368D01*
X73982019Y-135163801D01*
X73977810Y-135235353D01*
X73939930Y-135340578D01*
X73670556Y-135609952D01*
X74672290Y-135281652D02*
X74053572Y-134486157D01*
X74790141Y-133816931D02*
X74693335Y-133846394D01*
X74592320Y-133947409D01*
X74520767Y-134086305D01*
X74512350Y-134229410D01*
X74537603Y-134338843D01*
X74621783Y-134524038D01*
X74710171Y-134637680D01*
X74861694Y-134755531D01*
X74954291Y-134797621D01*
X75080560Y-134806038D01*
X75211038Y-134742904D01*
X75278382Y-134675560D01*
X75349934Y-134536664D01*
X75354143Y-134465112D01*
X75147904Y-134199947D01*
X75013217Y-134334634D01*
X75716115Y-134237828D02*
X75097396Y-133442333D01*
X75392024Y-133821140D02*
X75796085Y-133417079D01*
X76120176Y-133833767D02*
X75501457Y-133038272D01*
X75737159Y-132802569D02*
X76141220Y-132398508D01*
X76557908Y-133396034D02*
X75939190Y-132600539D01*
X63703169Y-134315000D02*
X63636205Y-134279285D01*
X63529062Y-134279285D01*
X63417455Y-134315000D01*
X63337098Y-134386428D01*
X63292455Y-134457857D01*
X63238883Y-134600714D01*
X63225491Y-134707857D01*
X63243348Y-134850714D01*
X63270133Y-134922142D01*
X63332633Y-134993571D01*
X63435312Y-135029285D01*
X63506741Y-135029285D01*
X63618348Y-134993571D01*
X63658526Y-134957857D01*
X63689776Y-134707857D01*
X63546919Y-134707857D01*
X63971026Y-135029285D02*
X64064776Y-134279285D01*
X64350491Y-134279285D01*
X64417455Y-134315000D01*
X64448705Y-134350714D01*
X64475491Y-134422142D01*
X64462098Y-134529285D01*
X64417455Y-134600714D01*
X64377276Y-134636428D01*
X64301383Y-134672142D01*
X64015669Y-134672142D01*
X64721026Y-135029285D02*
X64814776Y-134279285D01*
X65314776Y-134279285D02*
X65457633Y-134279285D01*
X65524598Y-134315000D01*
X65587098Y-134386428D01*
X65604955Y-134529285D01*
X65573705Y-134779285D01*
X65520133Y-134922142D01*
X65439776Y-134993571D01*
X65363883Y-135029285D01*
X65221026Y-135029285D01*
X65154062Y-134993571D01*
X65091562Y-134922142D01*
X65073705Y-134779285D01*
X65104955Y-134529285D01*
X65158526Y-134386428D01*
X65238883Y-134315000D01*
X65314776Y-134279285D01*
X66435312Y-135029285D02*
X66529062Y-134279285D01*
X66712098Y-134815000D01*
X67029062Y-134279285D01*
X66935312Y-135029285D01*
X67386205Y-134279285D02*
X67310312Y-134886428D01*
X67337098Y-134957857D01*
X67368348Y-134993571D01*
X67435312Y-135029285D01*
X67578169Y-135029285D01*
X67654062Y-134993571D01*
X67694241Y-134957857D01*
X67738883Y-134886428D01*
X67814776Y-134279285D01*
X68064776Y-134279285D02*
X68493348Y-134279285D01*
X68185312Y-135029285D02*
X68279062Y-134279285D01*
X68698705Y-134636428D02*
X68948705Y-134636428D01*
X69006741Y-135029285D02*
X68649598Y-135029285D01*
X68743348Y-134279285D01*
X69100491Y-134279285D01*
X63721741Y-130819285D02*
X63815491Y-130069285D01*
X64127991Y-130140714D02*
X64168169Y-130105000D01*
X64244062Y-130069285D01*
X64422633Y-130069285D01*
X64489598Y-130105000D01*
X64520848Y-130140714D01*
X64547633Y-130212142D01*
X64538705Y-130283571D01*
X64489598Y-130390714D01*
X64007455Y-130819285D01*
X64471741Y-130819285D01*
X65230669Y-130747857D02*
X65190491Y-130783571D01*
X65078883Y-130819285D01*
X65007455Y-130819285D01*
X64904776Y-130783571D01*
X64842276Y-130712142D01*
X64815491Y-130640714D01*
X64797633Y-130497857D01*
X64811026Y-130390714D01*
X64864598Y-130247857D01*
X64909241Y-130176428D01*
X64989598Y-130105000D01*
X65101205Y-130069285D01*
X65172633Y-130069285D01*
X65275312Y-130105000D01*
X65306562Y-130140714D01*
X66105669Y-130605000D02*
X66462812Y-130605000D01*
X66007455Y-130819285D02*
X66351205Y-130069285D01*
X66507455Y-130819285D01*
X66757455Y-130819285D02*
X66851205Y-130069285D01*
X67029776Y-130069285D01*
X67132455Y-130105000D01*
X67194955Y-130176428D01*
X67221741Y-130247857D01*
X67239598Y-130390714D01*
X67226205Y-130497857D01*
X67172633Y-130640714D01*
X67127991Y-130712142D01*
X67047633Y-130783571D01*
X66936026Y-130819285D01*
X66757455Y-130819285D01*
X67507455Y-130819285D02*
X67601205Y-130069285D01*
X67779776Y-130069285D01*
X67882455Y-130105000D01*
X67944955Y-130176428D01*
X67971741Y-130247857D01*
X67989598Y-130390714D01*
X67976205Y-130497857D01*
X67922633Y-130640714D01*
X67877991Y-130712142D01*
X67797633Y-130783571D01*
X67686026Y-130819285D01*
X67507455Y-130819285D01*
X68686026Y-130819285D02*
X68480669Y-130462142D01*
X68257455Y-130819285D02*
X68351205Y-130069285D01*
X68636919Y-130069285D01*
X68703883Y-130105000D01*
X68735133Y-130140714D01*
X68761919Y-130212142D01*
X68748526Y-130319285D01*
X68703883Y-130390714D01*
X68663705Y-130426428D01*
X68587812Y-130462142D01*
X68302098Y-130462142D01*
X53820267Y-132126666D02*
X54296458Y-132126666D01*
X53689315Y-132412380D02*
X54147648Y-131412380D01*
X54355982Y-132412380D01*
X54689315Y-132412380D02*
X54814315Y-131412380D01*
X55058363Y-132126666D01*
X55480982Y-131412380D01*
X55355982Y-132412380D01*
X57959553Y-112668571D02*
X57626220Y-112668571D01*
X57560744Y-113192380D02*
X57685744Y-112192380D01*
X58161934Y-112192380D01*
X58417886Y-113192380D02*
X58542886Y-112192380D01*
X58786934Y-112906666D01*
X59209553Y-112192380D01*
X59084553Y-113192380D01*
X60405982Y-112144761D02*
X59388125Y-113430476D01*
X60566696Y-113144761D02*
X60703601Y-113192380D01*
X60941696Y-113192380D01*
X61042886Y-113144761D01*
X61096458Y-113097142D01*
X61155982Y-113001904D01*
X61167886Y-112906666D01*
X61132172Y-112811428D01*
X61090505Y-112763809D01*
X61001220Y-112716190D01*
X60816696Y-112668571D01*
X60727410Y-112620952D01*
X60685744Y-112573333D01*
X60650029Y-112478095D01*
X60661934Y-112382857D01*
X60721458Y-112287619D01*
X60775029Y-112240000D01*
X60876220Y-112192380D01*
X61114315Y-112192380D01*
X61251220Y-112240000D01*
X61590505Y-112192380D02*
X61703601Y-113192380D01*
X61983363Y-112478095D01*
X62084553Y-113192380D01*
X62447648Y-112192380D01*
X71494050Y-134860755D02*
X71397244Y-134890218D01*
X71296228Y-134991233D01*
X71224676Y-135130129D01*
X71216258Y-135273234D01*
X71241512Y-135382667D01*
X71325691Y-135567862D01*
X71414080Y-135681504D01*
X71565602Y-135799355D01*
X71658200Y-135841445D01*
X71784469Y-135849863D01*
X71914947Y-135786728D01*
X71982290Y-135719385D01*
X72053843Y-135580489D01*
X72058052Y-135508937D01*
X71851812Y-135243771D01*
X71717125Y-135378458D01*
X72420023Y-135281652D02*
X71801305Y-134486157D01*
X72824084Y-134877591D01*
X72205366Y-134082096D01*
X73160802Y-134540874D02*
X72542083Y-133745379D01*
X72710442Y-133577020D01*
X72840920Y-133513885D01*
X72967189Y-133522303D01*
X73059786Y-133564393D01*
X73211309Y-133682244D01*
X73299698Y-133795886D01*
X73383877Y-133981081D01*
X73409131Y-134090514D01*
X73400713Y-134233619D01*
X73329160Y-134372515D01*
X73160802Y-134540874D01*
X78996706Y-135988759D02*
X78377988Y-135193264D01*
X79055632Y-135525772D01*
X78849393Y-134721859D01*
X79468111Y-135517354D01*
X79186110Y-134385142D02*
X79686977Y-135029114D01*
X79779575Y-135071204D01*
X79842709Y-135075413D01*
X79939515Y-135045950D01*
X80074202Y-134911263D01*
X80112083Y-134806039D01*
X80116292Y-134734486D01*
X80091038Y-134625053D01*
X79590171Y-133981081D01*
X79825873Y-133745378D02*
X80229934Y-133341317D01*
X80646622Y-134338843D02*
X80027904Y-133543348D01*
X80760264Y-133484422D02*
X80995967Y-133248720D01*
X81421073Y-133564393D02*
X81084355Y-133901110D01*
X80465637Y-133105615D01*
X80802354Y-132768898D01*
X81088974Y-134860755D02*
X80992167Y-134890217D01*
X80891152Y-134991233D01*
X80819600Y-135130129D01*
X80811182Y-135273234D01*
X80836436Y-135382667D01*
X80920615Y-135567861D01*
X81009003Y-135681504D01*
X81160526Y-135799355D01*
X81253123Y-135841444D01*
X81379393Y-135849862D01*
X81509871Y-135786728D01*
X81577214Y-135719384D01*
X81648767Y-135580488D01*
X81652975Y-135508936D01*
X81446736Y-135243771D01*
X81312049Y-135378458D01*
X82014947Y-135281651D02*
X81396228Y-134486156D01*
X81665602Y-134216782D01*
X81762409Y-134187320D01*
X81825543Y-134191529D01*
X81918141Y-134233618D01*
X82006529Y-134347260D01*
X82031783Y-134456694D01*
X82027574Y-134528246D01*
X81989693Y-134633470D01*
X81720319Y-134902844D01*
X82722054Y-134574545D02*
X82103335Y-133779050D01*
X82574740Y-133307645D02*
X82709427Y-133172958D01*
X82806233Y-133143495D01*
X82932502Y-133151913D01*
X83084025Y-133269764D01*
X83290264Y-133534929D01*
X83374444Y-133720124D01*
X83366026Y-133863229D01*
X83328145Y-133968453D01*
X83193458Y-134103140D01*
X83096652Y-134132603D01*
X82970383Y-134124185D01*
X82818860Y-134006334D01*
X82612620Y-133741169D01*
X82528441Y-133555974D01*
X82536859Y-133412869D01*
X82574740Y-133307645D01*
X84169939Y-133126659D02*
X83765878Y-133530720D01*
X83967908Y-133328690D02*
X83349190Y-132533195D01*
X83370235Y-132714180D01*
X83361817Y-132857285D01*
X83323936Y-132962510D01*
X84175065Y-135584697D02*
X83644735Y-135441592D01*
X83771004Y-135988758D02*
X83152286Y-135193263D01*
X83421660Y-134923889D01*
X83518466Y-134894426D01*
X83581601Y-134898635D01*
X83674198Y-134940725D01*
X83762586Y-135054367D01*
X83787840Y-135163800D01*
X83783631Y-135235353D01*
X83745750Y-135340577D01*
X83476376Y-135609951D01*
X84154020Y-134864963D02*
X84389723Y-134629261D01*
X84814828Y-134944934D02*
X84478111Y-135281651D01*
X83859393Y-134486156D01*
X84196110Y-134149439D01*
X85054740Y-134637679D02*
X85185218Y-134574545D01*
X85353576Y-134406186D01*
X85391457Y-134300962D01*
X85395666Y-134229409D01*
X85370412Y-134119976D01*
X85311487Y-134044214D01*
X85218889Y-134002125D01*
X85155755Y-133997916D01*
X85058949Y-134027379D01*
X84894799Y-134124185D01*
X84797993Y-134153648D01*
X84734858Y-134149439D01*
X84642261Y-134107349D01*
X84583335Y-134031588D01*
X84558081Y-133922154D01*
X84562290Y-133850602D01*
X84600171Y-133745378D01*
X84768530Y-133577019D01*
X84899008Y-133513884D01*
X85467219Y-133551765D02*
X85702921Y-133316063D01*
X86128027Y-133631736D02*
X85791309Y-133968453D01*
X85172591Y-133172958D01*
X85509308Y-132836240D01*
X85711339Y-132634210D02*
X86115400Y-132230149D01*
X86532088Y-133227674D02*
X85913369Y-132432179D01*
X87120797Y-135984550D02*
X87251275Y-135921415D01*
X87419634Y-135753056D01*
X87457515Y-135647832D01*
X87461724Y-135576280D01*
X87436470Y-135466847D01*
X87377544Y-135391085D01*
X87284947Y-135348995D01*
X87221812Y-135344786D01*
X87125006Y-135374249D01*
X86960856Y-135471056D01*
X86864050Y-135500518D01*
X86800915Y-135496309D01*
X86708318Y-135454220D01*
X86649393Y-135378458D01*
X86624139Y-135269025D01*
X86628348Y-135197473D01*
X86666228Y-135092248D01*
X86834587Y-134923890D01*
X86965065Y-134860755D01*
X88202502Y-134835501D02*
X88198293Y-134907054D01*
X88126741Y-135045950D01*
X88059397Y-135113293D01*
X87928919Y-135176428D01*
X87802650Y-135168010D01*
X87710053Y-135125920D01*
X87558530Y-135008069D01*
X87470141Y-134894427D01*
X87385962Y-134709232D01*
X87360708Y-134599799D01*
X87369126Y-134456694D01*
X87440679Y-134317798D01*
X87508022Y-134250455D01*
X87638500Y-134187320D01*
X87701635Y-134191529D01*
X88901191Y-134271499D02*
X88564473Y-134608217D01*
X87945755Y-133812722D01*
X89543961Y-135984550D02*
X89674439Y-135921415D01*
X89842798Y-135753056D01*
X89880679Y-135647832D01*
X89884888Y-135576280D01*
X89859634Y-135466846D01*
X89800708Y-135391085D01*
X89708111Y-135348995D01*
X89644976Y-135344786D01*
X89548170Y-135374249D01*
X89384020Y-135471055D01*
X89287214Y-135500518D01*
X89224080Y-135496309D01*
X89131482Y-135454220D01*
X89072557Y-135378458D01*
X89047303Y-135269025D01*
X89051512Y-135197472D01*
X89089393Y-135092248D01*
X89257751Y-134923889D01*
X89388229Y-134860755D01*
X90280531Y-135315324D02*
X89661812Y-134519828D01*
X89830171Y-134351470D01*
X89960649Y-134288335D01*
X90086918Y-134296753D01*
X90179515Y-134338843D01*
X90331038Y-134456694D01*
X90419427Y-134570336D01*
X90503606Y-134755531D01*
X90528860Y-134864964D01*
X90520442Y-135008069D01*
X90448889Y-135146965D01*
X90280531Y-135315324D01*
X90777189Y-134414604D02*
X91113907Y-134077887D01*
X90886622Y-134709232D02*
X90503606Y-133678035D01*
X91358027Y-134237828D01*
X91209511Y-135260607D02*
X91647244Y-134822874D01*
X91647244Y-135361622D01*
X91748259Y-135260607D01*
X91845065Y-135231144D01*
X91908200Y-135235353D01*
X92000797Y-135277443D01*
X92148111Y-135466846D01*
X92173365Y-135576280D01*
X92169156Y-135647832D01*
X92131275Y-135753056D01*
X91929245Y-135955087D01*
X91832438Y-135984549D01*
X91769304Y-135980341D01*
X92510082Y-135239562D02*
X92573217Y-135243771D01*
X92569008Y-135315323D01*
X92505873Y-135311114D01*
X92510082Y-135239562D01*
X92569008Y-135315323D01*
X92219663Y-134250454D02*
X92657396Y-133812722D01*
X92657396Y-134351470D01*
X92758411Y-134250454D01*
X92855218Y-134220992D01*
X92918352Y-134225200D01*
X93010950Y-134267290D01*
X93158263Y-134456694D01*
X93183517Y-134566127D01*
X93179308Y-134637679D01*
X93141428Y-134742904D01*
X92939397Y-134944934D01*
X92842591Y-134974397D01*
X92779456Y-134970188D01*
X92859427Y-133610691D02*
X93713847Y-134170484D01*
X93330831Y-133139286D01*
X94704553Y-137052380D02*
X94829553Y-136052380D01*
X95210505Y-136052380D01*
X95299791Y-136100000D01*
X95341458Y-136147619D01*
X95377172Y-136242857D01*
X95359315Y-136385714D01*
X95299791Y-136480952D01*
X95246220Y-136528571D01*
X95145029Y-136576190D01*
X94764077Y-136576190D01*
X96020029Y-136052380D02*
X96210505Y-136052380D01*
X96299791Y-136100000D01*
X96383125Y-136195238D01*
X96406934Y-136385714D01*
X96365267Y-136719047D01*
X96293839Y-136909523D01*
X96186696Y-137004761D01*
X96085505Y-137052380D01*
X95895029Y-137052380D01*
X95805744Y-137004761D01*
X95722410Y-136909523D01*
X95698601Y-136719047D01*
X95740267Y-136385714D01*
X95811696Y-136195238D01*
X95918839Y-136100000D01*
X96020029Y-136052380D01*
X96781934Y-136052380D02*
X96895029Y-137052380D01*
X97174791Y-136338095D01*
X97275982Y-137052380D01*
X97639077Y-136052380D01*
X97960505Y-136528571D02*
X98293839Y-136528571D01*
X98371220Y-137052380D02*
X97895029Y-137052380D01*
X98020029Y-136052380D01*
X98496220Y-136052380D01*
X99371220Y-137052380D02*
X99097410Y-136576190D01*
X98799791Y-137052380D02*
X98924791Y-136052380D01*
X99305744Y-136052380D01*
X99395029Y-136100000D01*
X99436696Y-136147619D01*
X99472410Y-136242857D01*
X99454553Y-136385714D01*
X99395029Y-136480952D01*
X99341458Y-136528571D01*
X99240267Y-136576190D01*
X98859315Y-136576190D01*
X102499761Y-129664047D02*
X102499761Y-129014047D01*
X102778333Y-129075952D02*
X102809285Y-129045000D01*
X102871190Y-129014047D01*
X103025952Y-129014047D01*
X103087857Y-129045000D01*
X103118809Y-129075952D01*
X103149761Y-129137857D01*
X103149761Y-129199761D01*
X103118809Y-129292619D01*
X102747380Y-129664047D01*
X103149761Y-129664047D01*
X103799761Y-129602142D02*
X103768809Y-129633095D01*
X103675952Y-129664047D01*
X103614047Y-129664047D01*
X103521190Y-129633095D01*
X103459285Y-129571190D01*
X103428333Y-129509285D01*
X103397380Y-129385476D01*
X103397380Y-129292619D01*
X103428333Y-129168809D01*
X103459285Y-129106904D01*
X103521190Y-129045000D01*
X103614047Y-129014047D01*
X103675952Y-129014047D01*
X103768809Y-129045000D01*
X103799761Y-129075952D01*
D11*
X70430000Y-133860000D02*
X70560000Y-133860000D01*
X69790000Y-133860000D02*
X69800000Y-133860000D01*
X69750000Y-133860000D02*
X69790000Y-133860000D01*
X68280000Y-133550000D02*
X68280000Y-132490000D01*
X66220000Y-133550000D02*
X68280000Y-133550000D01*
X66220000Y-131430000D02*
X67210000Y-131430000D01*
X113590000Y-117800000D02*
X113590000Y-115280000D01*
X69710000Y-132450000D02*
X70460000Y-132450000D01*
D10*
X70618167Y-133860000D02*
G75*
G03*
X70618167Y-133860000I-108167J0D01*
G01*
X69868167Y-133860000D02*
G75*
G03*
X69868167Y-133860000I-108167J0D01*
G01*
X70568167Y-132450000D02*
G75*
G03*
X70568167Y-132450000I-108167J0D01*
G01*
X69818167Y-132450000D02*
G75*
G03*
X69818167Y-132450000I-108167J0D01*
G01*
X69133571Y-131274047D02*
X69195476Y-131274047D01*
X69257380Y-131305000D01*
X69288333Y-131335952D01*
X69319285Y-131397857D01*
X69350238Y-131521666D01*
X69350238Y-131676428D01*
X69319285Y-131800238D01*
X69288333Y-131862142D01*
X69257380Y-131893095D01*
X69195476Y-131924047D01*
X69133571Y-131924047D01*
X69071666Y-131893095D01*
X69040714Y-131862142D01*
X69009761Y-131800238D01*
X68978809Y-131676428D01*
X68978809Y-131521666D01*
X69009761Y-131397857D01*
X69040714Y-131335952D01*
X69071666Y-131305000D01*
X69133571Y-131274047D01*
X69566904Y-131924047D02*
X69907380Y-131490714D01*
X69566904Y-131490714D02*
X69907380Y-131924047D01*
X70495476Y-131924047D02*
X70124047Y-131924047D01*
X70309761Y-131924047D02*
X70309761Y-131274047D01*
X70247857Y-131366904D01*
X70185952Y-131428809D01*
X70124047Y-131459761D01*
X71114523Y-131924047D02*
X70743095Y-131924047D01*
X70928809Y-131924047D02*
X70928809Y-131274047D01*
X70866904Y-131366904D01*
X70805000Y-131428809D01*
X70743095Y-131459761D01*
D11*
X101350000Y-130710000D02*
X100080000Y-130710000D01*
D10*
X69133571Y-132844047D02*
X69195476Y-132844047D01*
X69257380Y-132875000D01*
X69288333Y-132905952D01*
X69319285Y-132967857D01*
X69350238Y-133091666D01*
X69350238Y-133246428D01*
X69319285Y-133370238D01*
X69288333Y-133432142D01*
X69257380Y-133463095D01*
X69195476Y-133494047D01*
X69133571Y-133494047D01*
X69071666Y-133463095D01*
X69040714Y-133432142D01*
X69009761Y-133370238D01*
X68978809Y-133246428D01*
X68978809Y-133091666D01*
X69009761Y-132967857D01*
X69040714Y-132905952D01*
X69071666Y-132875000D01*
X69133571Y-132844047D01*
X69566904Y-133494047D02*
X69907380Y-133060714D01*
X69566904Y-133060714D02*
X69907380Y-133494047D01*
X70433571Y-132844047D02*
X70309761Y-132844047D01*
X70247857Y-132875000D01*
X70216904Y-132905952D01*
X70155000Y-132998809D01*
X70124047Y-133122619D01*
X70124047Y-133370238D01*
X70155000Y-133432142D01*
X70185952Y-133463095D01*
X70247857Y-133494047D01*
X70371666Y-133494047D01*
X70433571Y-133463095D01*
X70464523Y-133432142D01*
X70495476Y-133370238D01*
X70495476Y-133215476D01*
X70464523Y-133153571D01*
X70433571Y-133122619D01*
X70371666Y-133091666D01*
X70247857Y-133091666D01*
X70185952Y-133122619D01*
X70155000Y-133153571D01*
X70124047Y-133215476D01*
X70712142Y-132844047D02*
X71114523Y-132844047D01*
X70897857Y-133091666D01*
X70990714Y-133091666D01*
X71052619Y-133122619D01*
X71083571Y-133153571D01*
X71114523Y-133215476D01*
X71114523Y-133370238D01*
X71083571Y-133432142D01*
X71052619Y-133463095D01*
X70990714Y-133494047D01*
X70805000Y-133494047D01*
X70743095Y-133463095D01*
X70712142Y-133432142D01*
D11*
X107530000Y-115280000D02*
X113530000Y-115280000D01*
X107530000Y-117780000D02*
X113530000Y-117780000D01*
X107530000Y-115280000D02*
X107530000Y-117780000D01*
D10*
X108712142Y-116261071D02*
X108819285Y-116296785D01*
X108997857Y-116296785D01*
X109069285Y-116261071D01*
X109105000Y-116225357D01*
X109140714Y-116153928D01*
X109140714Y-116082500D01*
X109105000Y-116011071D01*
X109069285Y-115975357D01*
X108997857Y-115939642D01*
X108855000Y-115903928D01*
X108783571Y-115868214D01*
X108747857Y-115832500D01*
X108712142Y-115761071D01*
X108712142Y-115689642D01*
X108747857Y-115618214D01*
X108783571Y-115582500D01*
X108855000Y-115546785D01*
X109033571Y-115546785D01*
X109140714Y-115582500D01*
X109462142Y-116296785D02*
X109462142Y-115546785D01*
X110140714Y-115796785D02*
X110140714Y-116296785D01*
X109962142Y-115511071D02*
X109783571Y-116046785D01*
X110247857Y-116046785D01*
X110462142Y-115546785D02*
X110962142Y-115546785D01*
X110640714Y-116296785D01*
X111176428Y-115546785D02*
X111640714Y-115546785D01*
X111390714Y-115832500D01*
X111497857Y-115832500D01*
X111569285Y-115868214D01*
X111605000Y-115903928D01*
X111640714Y-115975357D01*
X111640714Y-116153928D01*
X111605000Y-116225357D01*
X111569285Y-116261071D01*
X111497857Y-116296785D01*
X111283571Y-116296785D01*
X111212142Y-116261071D01*
X111176428Y-116225357D01*
X111890714Y-116296785D02*
X112283571Y-115796785D01*
X111890714Y-115796785D02*
X112283571Y-116296785D01*
X108855000Y-117128928D02*
X108962142Y-117164642D01*
X108997857Y-117200357D01*
X109033571Y-117271785D01*
X109033571Y-117378928D01*
X108997857Y-117450357D01*
X108962142Y-117486071D01*
X108890714Y-117521785D01*
X108605000Y-117521785D01*
X108605000Y-116771785D01*
X108855000Y-116771785D01*
X108926428Y-116807500D01*
X108962142Y-116843214D01*
X108997857Y-116914642D01*
X108997857Y-116986071D01*
X108962142Y-117057500D01*
X108926428Y-117093214D01*
X108855000Y-117128928D01*
X108605000Y-117128928D01*
X109497857Y-116771785D02*
X109640714Y-116771785D01*
X109712142Y-116807500D01*
X109783571Y-116878928D01*
X109819285Y-117021785D01*
X109819285Y-117271785D01*
X109783571Y-117414642D01*
X109712142Y-117486071D01*
X109640714Y-117521785D01*
X109497857Y-117521785D01*
X109426428Y-117486071D01*
X109355000Y-117414642D01*
X109319285Y-117271785D01*
X109319285Y-117021785D01*
X109355000Y-116878928D01*
X109426428Y-116807500D01*
X109497857Y-116771785D01*
X110605000Y-116771785D02*
X110855000Y-117521785D01*
X111105000Y-116771785D01*
X111283571Y-116771785D02*
X111747857Y-116771785D01*
X111497857Y-117057500D01*
X111605000Y-117057500D01*
X111676428Y-117093214D01*
X111712142Y-117128928D01*
X111747857Y-117200357D01*
X111747857Y-117378928D01*
X111712142Y-117450357D01*
X111676428Y-117486071D01*
X111605000Y-117521785D01*
X111390714Y-117521785D01*
X111319285Y-117486071D01*
X111283571Y-117450357D01*
X112033571Y-117307500D02*
X112390714Y-117307500D01*
X111962142Y-117521785D02*
X112212142Y-116771785D01*
X112462142Y-117521785D01*
D11*
%TO.C,R8*%
X98427221Y-119180000D02*
X98752779Y-119180000D01*
X98427221Y-118160000D02*
X98752779Y-118160000D01*
D12*
%TO.C,C4*%
X92026200Y-111766900D02*
G75*
G03*
X92026200Y-111766900I-76200J0D01*
G01*
%TO.C,C3*%
X102869300Y-132940000D02*
G75*
G03*
X102869300Y-132940000I-76200J0D01*
G01*
D11*
%TO.C,C13*%
X97070000Y-127542779D02*
X97070000Y-127217221D01*
X96050000Y-127542779D02*
X96050000Y-127217221D01*
%TO.C,U5*%
X101240000Y-131060000D02*
X103190000Y-131060000D01*
X101240000Y-131060000D02*
X99290000Y-131060000D01*
X101240000Y-125940000D02*
X103190000Y-125940000D01*
X101240000Y-125940000D02*
X97790000Y-125940000D01*
%TO.C,D2*%
X70630000Y-109020000D02*
X69700000Y-109020000D01*
X67470000Y-109020000D02*
X68400000Y-109020000D01*
X67470000Y-109020000D02*
X67470000Y-111180000D01*
X70630000Y-109020000D02*
X70630000Y-110480000D01*
D13*
%TO.C,J3*%
X106000000Y-101500000D02*
X106000000Y-100500000D01*
X106000000Y-100500000D02*
X103500000Y-100500000D01*
X96500000Y-108000000D02*
X96500000Y-100500000D01*
X96500000Y-100500000D02*
X98500000Y-100500000D01*
X106000000Y-110900000D02*
X106000000Y-112500000D01*
X106000000Y-112500000D02*
X96500000Y-112500000D01*
X96500000Y-112500000D02*
X96500000Y-111600000D01*
D14*
X107170000Y-101000000D02*
G75*
G03*
X107170000Y-101000000I-170000J0D01*
G01*
D11*
%TO.C,L1*%
X68737221Y-112230000D02*
X69062779Y-112230000D01*
X68737221Y-113250000D02*
X69062779Y-113250000D01*
%TO.C,U1*%
X71470000Y-124050000D02*
X73420000Y-124050000D01*
X71470000Y-124050000D02*
X69520000Y-124050000D01*
X71470000Y-113930000D02*
X73420000Y-113930000D01*
X71470000Y-113930000D02*
X68020000Y-113930000D01*
%TO.C,JP1*%
X64160000Y-131430000D02*
X64160000Y-133550000D01*
X66220000Y-131430000D02*
X64160000Y-131430000D01*
X66220000Y-133550000D02*
X64160000Y-133550000D01*
X66220000Y-131430000D02*
X66220000Y-133550000D01*
X67220000Y-131430000D02*
X68280000Y-131430000D01*
X68280000Y-131430000D02*
X68280000Y-132490000D01*
%TO.C,J5*%
X56750000Y-112750000D02*
X57250000Y-112500000D01*
X57250000Y-112500000D02*
X57250000Y-113000000D01*
X57250000Y-113000000D02*
X56750000Y-112750000D01*
%TO.C,Q1*%
X100440000Y-115440000D02*
X100440000Y-116900000D01*
X97280000Y-115440000D02*
X97280000Y-117600000D01*
X97280000Y-115440000D02*
X98210000Y-115440000D01*
X100440000Y-115440000D02*
X99510000Y-115440000D01*
%TO.C,Q2*%
X104600000Y-115450000D02*
X103670000Y-115450000D01*
X101440000Y-115450000D02*
X102370000Y-115450000D01*
X101440000Y-115450000D02*
X101440000Y-117610000D01*
X104600000Y-115450000D02*
X104600000Y-116910000D01*
%TO.C,C7*%
X86590000Y-111937221D02*
X86590000Y-112262779D01*
X85570000Y-111937221D02*
X85570000Y-112262779D01*
%TO.C,C8*%
X87400000Y-111937221D02*
X87400000Y-112262779D01*
X88420000Y-111937221D02*
X88420000Y-112262779D01*
%TO.C,JP3*%
X68250000Y-135690000D02*
X68250000Y-136750000D01*
X67190000Y-135690000D02*
X68250000Y-135690000D01*
X66190000Y-135690000D02*
X66190000Y-137810000D01*
X66190000Y-137810000D02*
X64130000Y-137810000D01*
X66190000Y-135690000D02*
X64130000Y-135690000D01*
X64130000Y-135690000D02*
X64130000Y-137810000D01*
D15*
%TO.C,U2*%
X79095000Y-114950000D02*
X77970000Y-114950000D01*
X79095000Y-123425000D02*
X83245000Y-123425000D01*
X79095000Y-114475000D02*
X83245000Y-114475000D01*
X79095000Y-123425000D02*
X79095000Y-122867500D01*
X83245000Y-123425000D02*
X83245000Y-122867500D01*
X83245000Y-114475000D02*
X83245000Y-115032500D01*
X79095000Y-114475000D02*
X79095000Y-114950000D01*
D11*
%TO.C,X1*%
X94565000Y-121600000D02*
X94565000Y-117800000D01*
X91415000Y-121600000D02*
X94565000Y-121600000D01*
%TO.C,J7*%
X71010000Y-136670000D02*
X71010000Y-139330000D01*
X91390000Y-136670000D02*
X71010000Y-136670000D01*
X91390000Y-139330000D02*
X71010000Y-139330000D01*
X91390000Y-136670000D02*
X91390000Y-139330000D01*
X92660000Y-136670000D02*
X93990000Y-136670000D01*
X93990000Y-136670000D02*
X93990000Y-138000000D01*
%TO.C,SH1*%
X66955000Y-102465000D02*
X68555000Y-102465000D01*
X66955000Y-128975000D02*
X68555000Y-128975000D01*
X72955000Y-102465000D02*
X74555000Y-102465000D01*
X72955000Y-128975000D02*
X74555000Y-128975000D01*
X78625000Y-102465000D02*
X80225000Y-102465000D01*
X78625000Y-128975000D02*
X80225000Y-128975000D01*
X84625000Y-102465000D02*
X86225000Y-102465000D01*
X84625000Y-128975000D02*
X86225000Y-128975000D01*
X63335000Y-106085000D02*
X63335000Y-107685000D01*
X89845000Y-106085000D02*
X89845000Y-107685000D01*
X63335000Y-112085000D02*
X63335000Y-113685000D01*
X89845000Y-112085000D02*
X89845000Y-113685000D01*
X63335000Y-117755000D02*
X63335000Y-119355000D01*
X89845000Y-117755000D02*
X89845000Y-119355000D01*
X63335000Y-123755000D02*
X63335000Y-125355000D01*
X89845000Y-123755000D02*
X89845000Y-125355000D01*
%TO.C,C12*%
X102097221Y-120720000D02*
X102422779Y-120720000D01*
X102097221Y-121740000D02*
X102422779Y-121740000D01*
D13*
%TO.C,J6*%
X114630000Y-123250000D02*
X114630000Y-130250000D01*
X114630000Y-130250000D02*
X107630000Y-130250000D01*
X107630000Y-130250000D02*
X107630000Y-123250000D01*
X107630000Y-123250000D02*
X114630000Y-123250000D01*
D16*
X111430000Y-122460000D02*
G75*
G03*
X111430000Y-122460000I-200000J0D01*
G01*
D11*
%TO.C,JP0*%
X72030000Y-105010000D02*
X72030000Y-107010000D01*
X69230000Y-105010000D02*
X72030000Y-105010000D01*
X69230000Y-107010000D02*
X69230000Y-105010000D01*
X72030000Y-107010000D02*
X69230000Y-107010000D01*
D13*
%TO.C,J4*%
X51350000Y-121000000D02*
X50350000Y-121000000D01*
X50350000Y-121000000D02*
X50350000Y-123500000D01*
X57850000Y-130500000D02*
X50350000Y-130500000D01*
X50350000Y-130500000D02*
X50350000Y-128500000D01*
X60750000Y-121000000D02*
X62350000Y-121000000D01*
X62350000Y-121000000D02*
X62350000Y-130500000D01*
X62350000Y-130500000D02*
X61450000Y-130500000D01*
D14*
X51020000Y-120000000D02*
G75*
G03*
X51020000Y-120000000I-170000J0D01*
G01*
D11*
%TO.C,D1*%
X98285000Y-137315000D02*
X95800000Y-137315000D01*
X98285000Y-138685000D02*
X98285000Y-137315000D01*
X95800000Y-138685000D02*
X98285000Y-138685000D01*
%TO.C,R6*%
X99837221Y-138510000D02*
X100162779Y-138510000D01*
X99837221Y-137490000D02*
X100162779Y-137490000D01*
%TO.C,C11*%
X85837221Y-108160000D02*
X86162779Y-108160000D01*
X85837221Y-107140000D02*
X86162779Y-107140000D01*
%TO.C,C15*%
X85837221Y-105590000D02*
X86162779Y-105590000D01*
X85837221Y-106610000D02*
X86162779Y-106610000D01*
%TO.C,R7*%
X102912779Y-119190000D02*
X102587221Y-119190000D01*
X102912779Y-118170000D02*
X102587221Y-118170000D01*
%TO.C,R3*%
X75022779Y-126420000D02*
X74697221Y-126420000D01*
X75022779Y-127440000D02*
X74697221Y-127440000D01*
%TO.C,R1*%
X86562779Y-123490000D02*
X86237221Y-123490000D01*
X86562779Y-122470000D02*
X86237221Y-122470000D01*
%TO.C,R4*%
X86562779Y-120950000D02*
X86237221Y-120950000D01*
X86562779Y-121970000D02*
X86237221Y-121970000D01*
%TO.C,R14*%
X86237221Y-125010000D02*
X86562779Y-125010000D01*
X86237221Y-123990000D02*
X86562779Y-123990000D01*
%TO.C,R10*%
X80172779Y-125140000D02*
X79847221Y-125140000D01*
X80172779Y-126160000D02*
X79847221Y-126160000D01*
%TO.C,R11*%
X86237221Y-120450000D02*
X86562779Y-120450000D01*
X86237221Y-119430000D02*
X86562779Y-119430000D01*
%TO.C,R15*%
X71607221Y-126420000D02*
X71932779Y-126420000D01*
X71607221Y-127440000D02*
X71932779Y-127440000D01*
%TO.C,R16*%
X74597221Y-125930000D02*
X74922779Y-125930000D01*
X74597221Y-124910000D02*
X74922779Y-124910000D01*
%TO.C,R2*%
X96412779Y-120320000D02*
X96087221Y-120320000D01*
X96412779Y-121340000D02*
X96087221Y-121340000D01*
%TO.C,R5*%
X99402779Y-121740000D02*
X99077221Y-121740000D01*
X99402779Y-120720000D02*
X99077221Y-120720000D01*
%TO.C,R12*%
X105617221Y-120520000D02*
X105942779Y-120520000D01*
X105617221Y-119500000D02*
X105942779Y-119500000D01*
%TO.C,R13*%
X104322779Y-123550000D02*
X103997221Y-123550000D01*
X104322779Y-124570000D02*
X103997221Y-124570000D01*
%TO.C,R9*%
X86562779Y-117910000D02*
X86237221Y-117910000D01*
X86562779Y-118930000D02*
X86237221Y-118930000D01*
%TO.C,C10*%
X86562779Y-116240000D02*
X86237221Y-116240000D01*
X86562779Y-117260000D02*
X86237221Y-117260000D01*
%TO.C,C9*%
X65797221Y-125080000D02*
X66122779Y-125080000D01*
X65797221Y-124060000D02*
X66122779Y-124060000D01*
%TO.C,R8*%
D10*
X96189999Y-118684284D02*
X95939999Y-118327141D01*
X95761427Y-118684284D02*
X95761427Y-117934284D01*
X96047141Y-117934284D01*
X96118570Y-117969999D01*
X96154284Y-118005713D01*
X96189999Y-118077141D01*
X96189999Y-118184284D01*
X96154284Y-118255713D01*
X96118570Y-118291427D01*
X96047141Y-118327141D01*
X95761427Y-118327141D01*
X96618570Y-118255713D02*
X96547141Y-118219999D01*
X96511427Y-118184284D01*
X96475713Y-118112856D01*
X96475713Y-118077141D01*
X96511427Y-118005713D01*
X96547141Y-117969999D01*
X96618570Y-117934284D01*
X96761427Y-117934284D01*
X96832856Y-117969999D01*
X96868570Y-118005713D01*
X96904284Y-118077141D01*
X96904284Y-118112856D01*
X96868570Y-118184284D01*
X96832856Y-118219999D01*
X96761427Y-118255713D01*
X96618570Y-118255713D01*
X96547141Y-118291427D01*
X96511427Y-118327141D01*
X96475713Y-118398570D01*
X96475713Y-118541427D01*
X96511427Y-118612856D01*
X96547141Y-118648570D01*
X96618570Y-118684284D01*
X96761427Y-118684284D01*
X96832856Y-118648570D01*
X96868570Y-118612856D01*
X96904284Y-118541427D01*
X96904284Y-118398570D01*
X96868570Y-118327141D01*
X96832856Y-118291427D01*
X96761427Y-118255713D01*
%TO.C,C4*%
X90895000Y-112047857D02*
X90859285Y-112083571D01*
X90752142Y-112119285D01*
X90680714Y-112119285D01*
X90573571Y-112083571D01*
X90502142Y-112012142D01*
X90466428Y-111940714D01*
X90430714Y-111797857D01*
X90430714Y-111690714D01*
X90466428Y-111547857D01*
X90502142Y-111476428D01*
X90573571Y-111405000D01*
X90680714Y-111369285D01*
X90752142Y-111369285D01*
X90859285Y-111405000D01*
X90895000Y-111440714D01*
X91537857Y-111619285D02*
X91537857Y-112119285D01*
X91359285Y-111333571D02*
X91180714Y-111869285D01*
X91645000Y-111869285D01*
D15*
X91402380Y-114060000D02*
X91640476Y-114060000D01*
X91545238Y-114298095D02*
X91640476Y-114060000D01*
X91545238Y-113821904D01*
X91830952Y-114202857D02*
X91640476Y-114060000D01*
X91830952Y-113917142D01*
%TO.C,C3*%
D10*
X97785000Y-132217857D02*
X97749285Y-132253571D01*
X97642142Y-132289285D01*
X97570714Y-132289285D01*
X97463571Y-132253571D01*
X97392142Y-132182142D01*
X97356428Y-132110714D01*
X97320714Y-131967857D01*
X97320714Y-131860714D01*
X97356428Y-131717857D01*
X97392142Y-131646428D01*
X97463571Y-131575000D01*
X97570714Y-131539285D01*
X97642142Y-131539285D01*
X97749285Y-131575000D01*
X97785000Y-131610714D01*
X98035000Y-131539285D02*
X98499285Y-131539285D01*
X98249285Y-131825000D01*
X98356428Y-131825000D01*
X98427857Y-131860714D01*
X98463571Y-131896428D01*
X98499285Y-131967857D01*
X98499285Y-132146428D01*
X98463571Y-132217857D01*
X98427857Y-132253571D01*
X98356428Y-132289285D01*
X98142142Y-132289285D01*
X98070714Y-132253571D01*
X98035000Y-132217857D01*
D15*
X100500000Y-132392380D02*
X100500000Y-132630476D01*
X100261904Y-132535238D02*
X100500000Y-132630476D01*
X100738095Y-132535238D01*
X100357142Y-132820952D02*
X100500000Y-132630476D01*
X100642857Y-132820952D01*
%TO.C,C13*%
D10*
X94492142Y-126912142D02*
X94461190Y-126943095D01*
X94368333Y-126974047D01*
X94306428Y-126974047D01*
X94213571Y-126943095D01*
X94151666Y-126881190D01*
X94120714Y-126819285D01*
X94089761Y-126695476D01*
X94089761Y-126602619D01*
X94120714Y-126478809D01*
X94151666Y-126416904D01*
X94213571Y-126355000D01*
X94306428Y-126324047D01*
X94368333Y-126324047D01*
X94461190Y-126355000D01*
X94492142Y-126385952D01*
X95111190Y-126974047D02*
X94739761Y-126974047D01*
X94925476Y-126974047D02*
X94925476Y-126324047D01*
X94863571Y-126416904D01*
X94801666Y-126478809D01*
X94739761Y-126509761D01*
X95327857Y-126324047D02*
X95730238Y-126324047D01*
X95513571Y-126571666D01*
X95606428Y-126571666D01*
X95668333Y-126602619D01*
X95699285Y-126633571D01*
X95730238Y-126695476D01*
X95730238Y-126850238D01*
X95699285Y-126912142D01*
X95668333Y-126943095D01*
X95606428Y-126974047D01*
X95420714Y-126974047D01*
X95358809Y-126943095D01*
X95327857Y-126912142D01*
%TO.C,U5*%
X100428571Y-128128738D02*
X100428571Y-128736690D01*
X100464285Y-128808214D01*
X100500000Y-128843976D01*
X100571428Y-128879738D01*
X100714285Y-128879738D01*
X100785714Y-128843976D01*
X100821428Y-128808214D01*
X100857142Y-128736690D01*
X100857142Y-128128738D01*
X101571428Y-128128738D02*
X101214285Y-128128738D01*
X101178571Y-128486357D01*
X101214285Y-128450595D01*
X101285714Y-128414833D01*
X101464285Y-128414833D01*
X101535714Y-128450595D01*
X101571428Y-128486357D01*
X101607142Y-128557880D01*
X101607142Y-128736690D01*
X101571428Y-128808214D01*
X101535714Y-128843976D01*
X101464285Y-128879738D01*
X101285714Y-128879738D01*
X101214285Y-128843976D01*
X101178571Y-128808214D01*
%TO.C,C6*%
X66651666Y-113042142D02*
X66620714Y-113073095D01*
X66527857Y-113104047D01*
X66465952Y-113104047D01*
X66373095Y-113073095D01*
X66311190Y-113011190D01*
X66280238Y-112949285D01*
X66249285Y-112825476D01*
X66249285Y-112732619D01*
X66280238Y-112608809D01*
X66311190Y-112546904D01*
X66373095Y-112485000D01*
X66465952Y-112454047D01*
X66527857Y-112454047D01*
X66620714Y-112485000D01*
X66651666Y-112515952D01*
X67208809Y-112454047D02*
X67085000Y-112454047D01*
X67023095Y-112485000D01*
X66992142Y-112515952D01*
X66930238Y-112608809D01*
X66899285Y-112732619D01*
X66899285Y-112980238D01*
X66930238Y-113042142D01*
X66961190Y-113073095D01*
X67023095Y-113104047D01*
X67146904Y-113104047D01*
X67208809Y-113073095D01*
X67239761Y-113042142D01*
X67270714Y-112980238D01*
X67270714Y-112825476D01*
X67239761Y-112763571D01*
X67208809Y-112732619D01*
X67146904Y-112701666D01*
X67023095Y-112701666D01*
X66961190Y-112732619D01*
X66930238Y-112763571D01*
X66899285Y-112825476D01*
%TO.C,C14*%
X105667857Y-122957857D02*
X105632142Y-122993571D01*
X105525000Y-123029285D01*
X105453571Y-123029285D01*
X105346428Y-122993571D01*
X105275000Y-122922142D01*
X105239285Y-122850714D01*
X105203571Y-122707857D01*
X105203571Y-122600714D01*
X105239285Y-122457857D01*
X105275000Y-122386428D01*
X105346428Y-122315000D01*
X105453571Y-122279285D01*
X105525000Y-122279285D01*
X105632142Y-122315000D01*
X105667857Y-122350714D01*
X106382142Y-123029285D02*
X105953571Y-123029285D01*
X106167857Y-123029285D02*
X106167857Y-122279285D01*
X106096428Y-122386428D01*
X106025000Y-122457857D01*
X105953571Y-122493571D01*
X107025000Y-122529285D02*
X107025000Y-123029285D01*
X106846428Y-122243571D02*
X106667857Y-122779285D01*
X107132142Y-122779285D01*
%TO.C,D2*%
X66320238Y-110164047D02*
X66320238Y-109514047D01*
X66475000Y-109514047D01*
X66567857Y-109545000D01*
X66629761Y-109606904D01*
X66660714Y-109668809D01*
X66691666Y-109792619D01*
X66691666Y-109885476D01*
X66660714Y-110009285D01*
X66629761Y-110071190D01*
X66567857Y-110133095D01*
X66475000Y-110164047D01*
X66320238Y-110164047D01*
X66939285Y-109575952D02*
X66970238Y-109545000D01*
X67032142Y-109514047D01*
X67186904Y-109514047D01*
X67248809Y-109545000D01*
X67279761Y-109575952D01*
X67310714Y-109637857D01*
X67310714Y-109699761D01*
X67279761Y-109792619D01*
X66908333Y-110164047D01*
X67310714Y-110164047D01*
%TO.C,L1*%
X70771666Y-113194047D02*
X70462142Y-113194047D01*
X70462142Y-112544047D01*
X71328809Y-113194047D02*
X70957380Y-113194047D01*
X71143095Y-113194047D02*
X71143095Y-112544047D01*
X71081190Y-112636904D01*
X71019285Y-112698809D01*
X70957380Y-112729761D01*
%TO.C,U1*%
X70718571Y-118669285D02*
X70718571Y-119276428D01*
X70754285Y-119347857D01*
X70790000Y-119383571D01*
X70861428Y-119419285D01*
X71004285Y-119419285D01*
X71075714Y-119383571D01*
X71111428Y-119347857D01*
X71147142Y-119276428D01*
X71147142Y-118669285D01*
X71897142Y-119419285D02*
X71468571Y-119419285D01*
X71682857Y-119419285D02*
X71682857Y-118669285D01*
X71611428Y-118776428D01*
X71540000Y-118847857D01*
X71468571Y-118883571D01*
%TO.C,J5*%
X58166666Y-107632380D02*
X58166666Y-108346666D01*
X58119047Y-108489523D01*
X58023809Y-108584761D01*
X57880952Y-108632380D01*
X57785714Y-108632380D01*
X59119047Y-107632380D02*
X58642857Y-107632380D01*
X58595238Y-108108571D01*
X58642857Y-108060952D01*
X58738095Y-108013333D01*
X58976190Y-108013333D01*
X59071428Y-108060952D01*
X59119047Y-108108571D01*
X59166666Y-108203809D01*
X59166666Y-108441904D01*
X59119047Y-108537142D01*
X59071428Y-108584761D01*
X58976190Y-108632380D01*
X58738095Y-108632380D01*
X58642857Y-108584761D01*
X58595238Y-108537142D01*
%TO.C,Q1*%
X96278571Y-116490714D02*
X96207142Y-116455000D01*
X96135714Y-116383571D01*
X96028571Y-116276428D01*
X95957142Y-116240714D01*
X95885714Y-116240714D01*
X95921428Y-116419285D02*
X95850000Y-116383571D01*
X95778571Y-116312142D01*
X95742857Y-116169285D01*
X95742857Y-115919285D01*
X95778571Y-115776428D01*
X95850000Y-115705000D01*
X95921428Y-115669285D01*
X96064285Y-115669285D01*
X96135714Y-115705000D01*
X96207142Y-115776428D01*
X96242857Y-115919285D01*
X96242857Y-116169285D01*
X96207142Y-116312142D01*
X96135714Y-116383571D01*
X96064285Y-116419285D01*
X95921428Y-116419285D01*
X96957142Y-116419285D02*
X96528571Y-116419285D01*
X96742857Y-116419285D02*
X96742857Y-115669285D01*
X96671428Y-115776428D01*
X96600000Y-115847857D01*
X96528571Y-115883571D01*
%TO.C,Q2*%
X105508571Y-116520714D02*
X105437142Y-116485000D01*
X105365714Y-116413571D01*
X105258571Y-116306428D01*
X105187142Y-116270714D01*
X105115714Y-116270714D01*
X105151428Y-116449285D02*
X105080000Y-116413571D01*
X105008571Y-116342142D01*
X104972857Y-116199285D01*
X104972857Y-115949285D01*
X105008571Y-115806428D01*
X105080000Y-115735000D01*
X105151428Y-115699285D01*
X105294285Y-115699285D01*
X105365714Y-115735000D01*
X105437142Y-115806428D01*
X105472857Y-115949285D01*
X105472857Y-116199285D01*
X105437142Y-116342142D01*
X105365714Y-116413571D01*
X105294285Y-116449285D01*
X105151428Y-116449285D01*
X105758571Y-115770714D02*
X105794285Y-115735000D01*
X105865714Y-115699285D01*
X106044285Y-115699285D01*
X106115714Y-115735000D01*
X106151428Y-115770714D01*
X106187142Y-115842142D01*
X106187142Y-115913571D01*
X106151428Y-116020714D01*
X105722857Y-116449285D01*
X106187142Y-116449285D01*
%TO.C,C5*%
X84365000Y-111257857D02*
X84329285Y-111293571D01*
X84222142Y-111329285D01*
X84150714Y-111329285D01*
X84043571Y-111293571D01*
X83972142Y-111222142D01*
X83936428Y-111150714D01*
X83900714Y-111007857D01*
X83900714Y-110900714D01*
X83936428Y-110757857D01*
X83972142Y-110686428D01*
X84043571Y-110615000D01*
X84150714Y-110579285D01*
X84222142Y-110579285D01*
X84329285Y-110615000D01*
X84365000Y-110650714D01*
X85043571Y-110579285D02*
X84686428Y-110579285D01*
X84650714Y-110936428D01*
X84686428Y-110900714D01*
X84757857Y-110865000D01*
X84936428Y-110865000D01*
X85007857Y-110900714D01*
X85043571Y-110936428D01*
X85079285Y-111007857D01*
X85079285Y-111186428D01*
X85043571Y-111257857D01*
X85007857Y-111293571D01*
X84936428Y-111329285D01*
X84757857Y-111329285D01*
X84686428Y-111293571D01*
X84650714Y-111257857D01*
%TO.C,C7*%
X85985000Y-110407857D02*
X85949285Y-110443571D01*
X85842142Y-110479285D01*
X85770714Y-110479285D01*
X85663571Y-110443571D01*
X85592142Y-110372142D01*
X85556428Y-110300714D01*
X85520714Y-110157857D01*
X85520714Y-110050714D01*
X85556428Y-109907857D01*
X85592142Y-109836428D01*
X85663571Y-109765000D01*
X85770714Y-109729285D01*
X85842142Y-109729285D01*
X85949285Y-109765000D01*
X85985000Y-109800714D01*
X86235000Y-109729285D02*
X86735000Y-109729285D01*
X86413571Y-110479285D01*
%TO.C,C8*%
X87735000Y-110387857D02*
X87699285Y-110423571D01*
X87592142Y-110459285D01*
X87520714Y-110459285D01*
X87413571Y-110423571D01*
X87342142Y-110352142D01*
X87306428Y-110280714D01*
X87270714Y-110137857D01*
X87270714Y-110030714D01*
X87306428Y-109887857D01*
X87342142Y-109816428D01*
X87413571Y-109745000D01*
X87520714Y-109709285D01*
X87592142Y-109709285D01*
X87699285Y-109745000D01*
X87735000Y-109780714D01*
X88163571Y-110030714D02*
X88092142Y-109995000D01*
X88056428Y-109959285D01*
X88020714Y-109887857D01*
X88020714Y-109852142D01*
X88056428Y-109780714D01*
X88092142Y-109745000D01*
X88163571Y-109709285D01*
X88306428Y-109709285D01*
X88377857Y-109745000D01*
X88413571Y-109780714D01*
X88449285Y-109852142D01*
X88449285Y-109887857D01*
X88413571Y-109959285D01*
X88377857Y-109995000D01*
X88306428Y-110030714D01*
X88163571Y-110030714D01*
X88092142Y-110066428D01*
X88056428Y-110102142D01*
X88020714Y-110173571D01*
X88020714Y-110316428D01*
X88056428Y-110387857D01*
X88092142Y-110423571D01*
X88163571Y-110459285D01*
X88306428Y-110459285D01*
X88377857Y-110423571D01*
X88413571Y-110387857D01*
X88449285Y-110316428D01*
X88449285Y-110173571D01*
X88413571Y-110102142D01*
X88377857Y-110066428D01*
X88306428Y-110030714D01*
%TO.C,U2*%
X80538571Y-117339285D02*
X80538571Y-117946428D01*
X80574285Y-118017857D01*
X80610000Y-118053571D01*
X80681428Y-118089285D01*
X80824285Y-118089285D01*
X80895714Y-118053571D01*
X80931428Y-118017857D01*
X80967142Y-117946428D01*
X80967142Y-117339285D01*
X81288571Y-117410714D02*
X81324285Y-117375000D01*
X81395714Y-117339285D01*
X81574285Y-117339285D01*
X81645714Y-117375000D01*
X81681428Y-117410714D01*
X81717142Y-117482142D01*
X81717142Y-117553571D01*
X81681428Y-117660714D01*
X81252857Y-118089285D01*
X81717142Y-118089285D01*
%TO.C,X1*%
X92452857Y-116719285D02*
X92952857Y-117469285D01*
X92952857Y-116719285D02*
X92452857Y-117469285D01*
X93631428Y-117469285D02*
X93202857Y-117469285D01*
X93417142Y-117469285D02*
X93417142Y-116719285D01*
X93345714Y-116826428D01*
X93274285Y-116897857D01*
X93202857Y-116933571D01*
%TO.C,J7*%
D15*
X69346666Y-137452380D02*
X69346666Y-138166666D01*
X69299047Y-138309523D01*
X69203809Y-138404761D01*
X69060952Y-138452380D01*
X68965714Y-138452380D01*
X69727619Y-137452380D02*
X70394285Y-137452380D01*
X69965714Y-138452380D01*
%TO.C,SH1*%
X64804285Y-104694761D02*
X64947142Y-104742380D01*
X65185238Y-104742380D01*
X65280476Y-104694761D01*
X65328095Y-104647142D01*
X65375714Y-104551904D01*
X65375714Y-104456666D01*
X65328095Y-104361428D01*
X65280476Y-104313809D01*
X65185238Y-104266190D01*
X64994761Y-104218571D01*
X64899523Y-104170952D01*
X64851904Y-104123333D01*
X64804285Y-104028095D01*
X64804285Y-103932857D01*
X64851904Y-103837619D01*
X64899523Y-103790000D01*
X64994761Y-103742380D01*
X65232857Y-103742380D01*
X65375714Y-103790000D01*
X65804285Y-104742380D02*
X65804285Y-103742380D01*
X65804285Y-104218571D02*
X66375714Y-104218571D01*
X66375714Y-104742380D02*
X66375714Y-103742380D01*
X67375714Y-104742380D02*
X66804285Y-104742380D01*
X67090000Y-104742380D02*
X67090000Y-103742380D01*
X66994761Y-103885238D01*
X66899523Y-103980476D01*
X66804285Y-104028095D01*
%TO.C,C1*%
D10*
X94275000Y-123087857D02*
X94239285Y-123123571D01*
X94132142Y-123159285D01*
X94060714Y-123159285D01*
X93953571Y-123123571D01*
X93882142Y-123052142D01*
X93846428Y-122980714D01*
X93810714Y-122837857D01*
X93810714Y-122730714D01*
X93846428Y-122587857D01*
X93882142Y-122516428D01*
X93953571Y-122445000D01*
X94060714Y-122409285D01*
X94132142Y-122409285D01*
X94239285Y-122445000D01*
X94275000Y-122480714D01*
X94989285Y-123159285D02*
X94560714Y-123159285D01*
X94775000Y-123159285D02*
X94775000Y-122409285D01*
X94703571Y-122516428D01*
X94632142Y-122587857D01*
X94560714Y-122623571D01*
%TO.C,C2*%
X94175000Y-124047857D02*
X94139285Y-124083571D01*
X94032142Y-124119285D01*
X93960714Y-124119285D01*
X93853571Y-124083571D01*
X93782142Y-124012142D01*
X93746428Y-123940714D01*
X93710714Y-123797857D01*
X93710714Y-123690714D01*
X93746428Y-123547857D01*
X93782142Y-123476428D01*
X93853571Y-123405000D01*
X93960714Y-123369285D01*
X94032142Y-123369285D01*
X94139285Y-123405000D01*
X94175000Y-123440714D01*
X94460714Y-123440714D02*
X94496428Y-123405000D01*
X94567857Y-123369285D01*
X94746428Y-123369285D01*
X94817857Y-123405000D01*
X94853571Y-123440714D01*
X94889285Y-123512142D01*
X94889285Y-123583571D01*
X94853571Y-123690714D01*
X94425000Y-124119285D01*
X94889285Y-124119285D01*
%TO.C,C12*%
X104327857Y-121507857D02*
X104292142Y-121543571D01*
X104185000Y-121579285D01*
X104113571Y-121579285D01*
X104006428Y-121543571D01*
X103935000Y-121472142D01*
X103899285Y-121400714D01*
X103863571Y-121257857D01*
X103863571Y-121150714D01*
X103899285Y-121007857D01*
X103935000Y-120936428D01*
X104006428Y-120865000D01*
X104113571Y-120829285D01*
X104185000Y-120829285D01*
X104292142Y-120865000D01*
X104327857Y-120900714D01*
X105042142Y-121579285D02*
X104613571Y-121579285D01*
X104827857Y-121579285D02*
X104827857Y-120829285D01*
X104756428Y-120936428D01*
X104685000Y-121007857D01*
X104613571Y-121043571D01*
X105327857Y-120900714D02*
X105363571Y-120865000D01*
X105435000Y-120829285D01*
X105613571Y-120829285D01*
X105685000Y-120865000D01*
X105720714Y-120900714D01*
X105756428Y-120972142D01*
X105756428Y-121043571D01*
X105720714Y-121150714D01*
X105292142Y-121579285D01*
X105756428Y-121579285D01*
%TO.C,J4*%
D17*
X53189054Y-116802869D02*
X53189054Y-117518285D01*
X53141359Y-117661368D01*
X53045970Y-117756757D01*
X52902887Y-117804452D01*
X52807498Y-117804452D01*
X54095248Y-117136730D02*
X54095248Y-117804452D01*
X53856776Y-116755174D02*
X53618303Y-117470591D01*
X54238331Y-117470591D01*
%TO.C,R6*%
D10*
X102125000Y-138379285D02*
X101875000Y-138022142D01*
X101696428Y-138379285D02*
X101696428Y-137629285D01*
X101982142Y-137629285D01*
X102053571Y-137665000D01*
X102089285Y-137700714D01*
X102125000Y-137772142D01*
X102125000Y-137879285D01*
X102089285Y-137950714D01*
X102053571Y-137986428D01*
X101982142Y-138022142D01*
X101696428Y-138022142D01*
X102767857Y-137629285D02*
X102625000Y-137629285D01*
X102553571Y-137665000D01*
X102517857Y-137700714D01*
X102446428Y-137807857D01*
X102410714Y-137950714D01*
X102410714Y-138236428D01*
X102446428Y-138307857D01*
X102482142Y-138343571D01*
X102553571Y-138379285D01*
X102696428Y-138379285D01*
X102767857Y-138343571D01*
X102803571Y-138307857D01*
X102839285Y-138236428D01*
X102839285Y-138057857D01*
X102803571Y-137986428D01*
X102767857Y-137950714D01*
X102696428Y-137915000D01*
X102553571Y-137915000D01*
X102482142Y-137950714D01*
X102446428Y-137986428D01*
X102410714Y-138057857D01*
%TO.C,C11*%
X85517857Y-106487857D02*
X85482142Y-106523571D01*
X85375000Y-106559285D01*
X85303571Y-106559285D01*
X85196428Y-106523571D01*
X85125000Y-106452142D01*
X85089285Y-106380714D01*
X85053571Y-106237857D01*
X85053571Y-106130714D01*
X85089285Y-105987857D01*
X85125000Y-105916428D01*
X85196428Y-105845000D01*
X85303571Y-105809285D01*
X85375000Y-105809285D01*
X85482142Y-105845000D01*
X85517857Y-105880714D01*
X86232142Y-106559285D02*
X85803571Y-106559285D01*
X86017857Y-106559285D02*
X86017857Y-105809285D01*
X85946428Y-105916428D01*
X85875000Y-105987857D01*
X85803571Y-106023571D01*
X86946428Y-106559285D02*
X86517857Y-106559285D01*
X86732142Y-106559285D02*
X86732142Y-105809285D01*
X86660714Y-105916428D01*
X86589285Y-105987857D01*
X86517857Y-106023571D01*
%TO.C,C15*%
X85517857Y-104937857D02*
X85482142Y-104973571D01*
X85375000Y-105009285D01*
X85303571Y-105009285D01*
X85196428Y-104973571D01*
X85125000Y-104902142D01*
X85089285Y-104830714D01*
X85053571Y-104687857D01*
X85053571Y-104580714D01*
X85089285Y-104437857D01*
X85125000Y-104366428D01*
X85196428Y-104295000D01*
X85303571Y-104259285D01*
X85375000Y-104259285D01*
X85482142Y-104295000D01*
X85517857Y-104330714D01*
X86232142Y-105009285D02*
X85803571Y-105009285D01*
X86017857Y-105009285D02*
X86017857Y-104259285D01*
X85946428Y-104366428D01*
X85875000Y-104437857D01*
X85803571Y-104473571D01*
X86910714Y-104259285D02*
X86553571Y-104259285D01*
X86517857Y-104616428D01*
X86553571Y-104580714D01*
X86625000Y-104545000D01*
X86803571Y-104545000D01*
X86875000Y-104580714D01*
X86910714Y-104616428D01*
X86946428Y-104687857D01*
X86946428Y-104866428D01*
X86910714Y-104937857D01*
X86875000Y-104973571D01*
X86803571Y-105009285D01*
X86625000Y-105009285D01*
X86553571Y-104973571D01*
X86517857Y-104937857D01*
%TO.C,R7*%
X104805000Y-119089285D02*
X104555000Y-118732142D01*
X104376428Y-119089285D02*
X104376428Y-118339285D01*
X104662142Y-118339285D01*
X104733571Y-118375000D01*
X104769285Y-118410714D01*
X104805000Y-118482142D01*
X104805000Y-118589285D01*
X104769285Y-118660714D01*
X104733571Y-118696428D01*
X104662142Y-118732142D01*
X104376428Y-118732142D01*
X105055000Y-118339285D02*
X105555000Y-118339285D01*
X105233571Y-119089285D01*
%TO.C,R3*%
X71765000Y-127489285D02*
X71515000Y-127132142D01*
X71336428Y-127489285D02*
X71336428Y-126739285D01*
X71622142Y-126739285D01*
X71693571Y-126775000D01*
X71729285Y-126810714D01*
X71765000Y-126882142D01*
X71765000Y-126989285D01*
X71729285Y-127060714D01*
X71693571Y-127096428D01*
X71622142Y-127132142D01*
X71336428Y-127132142D01*
X72015000Y-126739285D02*
X72479285Y-126739285D01*
X72229285Y-127025000D01*
X72336428Y-127025000D01*
X72407857Y-127060714D01*
X72443571Y-127096428D01*
X72479285Y-127167857D01*
X72479285Y-127346428D01*
X72443571Y-127417857D01*
X72407857Y-127453571D01*
X72336428Y-127489285D01*
X72122142Y-127489285D01*
X72050714Y-127453571D01*
X72015000Y-127417857D01*
%TO.C,R1*%
X88325000Y-123249285D02*
X88075000Y-122892142D01*
X87896428Y-123249285D02*
X87896428Y-122499285D01*
X88182142Y-122499285D01*
X88253571Y-122535000D01*
X88289285Y-122570714D01*
X88325000Y-122642142D01*
X88325000Y-122749285D01*
X88289285Y-122820714D01*
X88253571Y-122856428D01*
X88182142Y-122892142D01*
X87896428Y-122892142D01*
X89039285Y-123249285D02*
X88610714Y-123249285D01*
X88825000Y-123249285D02*
X88825000Y-122499285D01*
X88753571Y-122606428D01*
X88682142Y-122677857D01*
X88610714Y-122713571D01*
%TO.C,R4*%
X88275000Y-121909285D02*
X88025000Y-121552142D01*
X87846428Y-121909285D02*
X87846428Y-121159285D01*
X88132142Y-121159285D01*
X88203571Y-121195000D01*
X88239285Y-121230714D01*
X88275000Y-121302142D01*
X88275000Y-121409285D01*
X88239285Y-121480714D01*
X88203571Y-121516428D01*
X88132142Y-121552142D01*
X87846428Y-121552142D01*
X88917857Y-121409285D02*
X88917857Y-121909285D01*
X88739285Y-121123571D02*
X88560714Y-121659285D01*
X89025000Y-121659285D01*
%TO.C,R14*%
X88257857Y-124909285D02*
X88007857Y-124552142D01*
X87829285Y-124909285D02*
X87829285Y-124159285D01*
X88115000Y-124159285D01*
X88186428Y-124195000D01*
X88222142Y-124230714D01*
X88257857Y-124302142D01*
X88257857Y-124409285D01*
X88222142Y-124480714D01*
X88186428Y-124516428D01*
X88115000Y-124552142D01*
X87829285Y-124552142D01*
X88972142Y-124909285D02*
X88543571Y-124909285D01*
X88757857Y-124909285D02*
X88757857Y-124159285D01*
X88686428Y-124266428D01*
X88615000Y-124337857D01*
X88543571Y-124373571D01*
X89615000Y-124409285D02*
X89615000Y-124909285D01*
X89436428Y-124123571D02*
X89257857Y-124659285D01*
X89722142Y-124659285D01*
%TO.C,R10*%
X82057857Y-126189285D02*
X81807857Y-125832142D01*
X81629285Y-126189285D02*
X81629285Y-125439285D01*
X81915000Y-125439285D01*
X81986428Y-125475000D01*
X82022142Y-125510714D01*
X82057857Y-125582142D01*
X82057857Y-125689285D01*
X82022142Y-125760714D01*
X81986428Y-125796428D01*
X81915000Y-125832142D01*
X81629285Y-125832142D01*
X82772142Y-126189285D02*
X82343571Y-126189285D01*
X82557857Y-126189285D02*
X82557857Y-125439285D01*
X82486428Y-125546428D01*
X82415000Y-125617857D01*
X82343571Y-125653571D01*
X83236428Y-125439285D02*
X83307857Y-125439285D01*
X83379285Y-125475000D01*
X83415000Y-125510714D01*
X83450714Y-125582142D01*
X83486428Y-125725000D01*
X83486428Y-125903571D01*
X83450714Y-126046428D01*
X83415000Y-126117857D01*
X83379285Y-126153571D01*
X83307857Y-126189285D01*
X83236428Y-126189285D01*
X83165000Y-126153571D01*
X83129285Y-126117857D01*
X83093571Y-126046428D01*
X83057857Y-125903571D01*
X83057857Y-125725000D01*
X83093571Y-125582142D01*
X83129285Y-125510714D01*
X83165000Y-125475000D01*
X83236428Y-125439285D01*
%TO.C,R11*%
X88084285Y-120299285D02*
X87884285Y-119942142D01*
X87741428Y-120299285D02*
X87741428Y-119549285D01*
X87970000Y-119549285D01*
X88027142Y-119585000D01*
X88055714Y-119620714D01*
X88084285Y-119692142D01*
X88084285Y-119799285D01*
X88055714Y-119870714D01*
X88027142Y-119906428D01*
X87970000Y-119942142D01*
X87741428Y-119942142D01*
X88655714Y-120299285D02*
X88312857Y-120299285D01*
X88484285Y-120299285D02*
X88484285Y-119549285D01*
X88427142Y-119656428D01*
X88370000Y-119727857D01*
X88312857Y-119763571D01*
X89227142Y-120299285D02*
X88884285Y-120299285D01*
X89055714Y-120299285D02*
X89055714Y-119549285D01*
X88998571Y-119656428D01*
X88941428Y-119727857D01*
X88884285Y-119763571D01*
%TO.C,R15*%
X68587857Y-127319285D02*
X68337857Y-126962142D01*
X68159285Y-127319285D02*
X68159285Y-126569285D01*
X68445000Y-126569285D01*
X68516428Y-126605000D01*
X68552142Y-126640714D01*
X68587857Y-126712142D01*
X68587857Y-126819285D01*
X68552142Y-126890714D01*
X68516428Y-126926428D01*
X68445000Y-126962142D01*
X68159285Y-126962142D01*
X69302142Y-127319285D02*
X68873571Y-127319285D01*
X69087857Y-127319285D02*
X69087857Y-126569285D01*
X69016428Y-126676428D01*
X68945000Y-126747857D01*
X68873571Y-126783571D01*
X69980714Y-126569285D02*
X69623571Y-126569285D01*
X69587857Y-126926428D01*
X69623571Y-126890714D01*
X69695000Y-126855000D01*
X69873571Y-126855000D01*
X69945000Y-126890714D01*
X69980714Y-126926428D01*
X70016428Y-126997857D01*
X70016428Y-127176428D01*
X69980714Y-127247857D01*
X69945000Y-127283571D01*
X69873571Y-127319285D01*
X69695000Y-127319285D01*
X69623571Y-127283571D01*
X69587857Y-127247857D01*
%TO.C,R16*%
X78342856Y-125924284D02*
X78092856Y-125567141D01*
X77914284Y-125924284D02*
X77914284Y-125174284D01*
X78199999Y-125174284D01*
X78271427Y-125209999D01*
X78307141Y-125245713D01*
X78342856Y-125317141D01*
X78342856Y-125424284D01*
X78307141Y-125495713D01*
X78271427Y-125531427D01*
X78199999Y-125567141D01*
X77914284Y-125567141D01*
X79057141Y-125924284D02*
X78628570Y-125924284D01*
X78842856Y-125924284D02*
X78842856Y-125174284D01*
X78771427Y-125281427D01*
X78699999Y-125352856D01*
X78628570Y-125388570D01*
X79699999Y-125174284D02*
X79557141Y-125174284D01*
X79485713Y-125209999D01*
X79449999Y-125245713D01*
X79378570Y-125352856D01*
X79342856Y-125495713D01*
X79342856Y-125781427D01*
X79378570Y-125852856D01*
X79414284Y-125888570D01*
X79485713Y-125924284D01*
X79628570Y-125924284D01*
X79699999Y-125888570D01*
X79735713Y-125852856D01*
X79771427Y-125781427D01*
X79771427Y-125602856D01*
X79735713Y-125531427D01*
X79699999Y-125495713D01*
X79628570Y-125459999D01*
X79485713Y-125459999D01*
X79414284Y-125495713D01*
X79378570Y-125531427D01*
X79342856Y-125602856D01*
%TO.C,R2*%
X96155000Y-122439285D02*
X95905000Y-122082142D01*
X95726428Y-122439285D02*
X95726428Y-121689285D01*
X96012142Y-121689285D01*
X96083571Y-121725000D01*
X96119285Y-121760714D01*
X96155000Y-121832142D01*
X96155000Y-121939285D01*
X96119285Y-122010714D01*
X96083571Y-122046428D01*
X96012142Y-122082142D01*
X95726428Y-122082142D01*
X96440714Y-121760714D02*
X96476428Y-121725000D01*
X96547857Y-121689285D01*
X96726428Y-121689285D01*
X96797857Y-121725000D01*
X96833571Y-121760714D01*
X96869285Y-121832142D01*
X96869285Y-121903571D01*
X96833571Y-122010714D01*
X96405000Y-122439285D01*
X96869285Y-122439285D01*
%TO.C,R5*%
X99165000Y-122849285D02*
X98915000Y-122492142D01*
X98736428Y-122849285D02*
X98736428Y-122099285D01*
X99022142Y-122099285D01*
X99093571Y-122135000D01*
X99129285Y-122170714D01*
X99165000Y-122242142D01*
X99165000Y-122349285D01*
X99129285Y-122420714D01*
X99093571Y-122456428D01*
X99022142Y-122492142D01*
X98736428Y-122492142D01*
X99843571Y-122099285D02*
X99486428Y-122099285D01*
X99450714Y-122456428D01*
X99486428Y-122420714D01*
X99557857Y-122385000D01*
X99736428Y-122385000D01*
X99807857Y-122420714D01*
X99843571Y-122456428D01*
X99879285Y-122527857D01*
X99879285Y-122706428D01*
X99843571Y-122777857D01*
X99807857Y-122813571D01*
X99736428Y-122849285D01*
X99557857Y-122849285D01*
X99486428Y-122813571D01*
X99450714Y-122777857D01*
%TO.C,R12*%
X107857857Y-120379285D02*
X107607857Y-120022142D01*
X107429285Y-120379285D02*
X107429285Y-119629285D01*
X107715000Y-119629285D01*
X107786428Y-119665000D01*
X107822142Y-119700714D01*
X107857857Y-119772142D01*
X107857857Y-119879285D01*
X107822142Y-119950714D01*
X107786428Y-119986428D01*
X107715000Y-120022142D01*
X107429285Y-120022142D01*
X108572142Y-120379285D02*
X108143571Y-120379285D01*
X108357857Y-120379285D02*
X108357857Y-119629285D01*
X108286428Y-119736428D01*
X108215000Y-119807857D01*
X108143571Y-119843571D01*
X108857857Y-119700714D02*
X108893571Y-119665000D01*
X108965000Y-119629285D01*
X109143571Y-119629285D01*
X109215000Y-119665000D01*
X109250714Y-119700714D01*
X109286428Y-119772142D01*
X109286428Y-119843571D01*
X109250714Y-119950714D01*
X108822142Y-120379285D01*
X109286428Y-120379285D01*
%TO.C,R13*%
X101097857Y-124389285D02*
X100847857Y-124032142D01*
X100669285Y-124389285D02*
X100669285Y-123639285D01*
X100955000Y-123639285D01*
X101026428Y-123675000D01*
X101062142Y-123710714D01*
X101097857Y-123782142D01*
X101097857Y-123889285D01*
X101062142Y-123960714D01*
X101026428Y-123996428D01*
X100955000Y-124032142D01*
X100669285Y-124032142D01*
X101812142Y-124389285D02*
X101383571Y-124389285D01*
X101597857Y-124389285D02*
X101597857Y-123639285D01*
X101526428Y-123746428D01*
X101455000Y-123817857D01*
X101383571Y-123853571D01*
X102062142Y-123639285D02*
X102526428Y-123639285D01*
X102276428Y-123925000D01*
X102383571Y-123925000D01*
X102455000Y-123960714D01*
X102490714Y-123996428D01*
X102526428Y-124067857D01*
X102526428Y-124246428D01*
X102490714Y-124317857D01*
X102455000Y-124353571D01*
X102383571Y-124389285D01*
X102169285Y-124389285D01*
X102097857Y-124353571D01*
X102062142Y-124317857D01*
%TO.C,R9*%
X88445000Y-118759285D02*
X88195000Y-118402142D01*
X88016428Y-118759285D02*
X88016428Y-118009285D01*
X88302142Y-118009285D01*
X88373571Y-118045000D01*
X88409285Y-118080714D01*
X88445000Y-118152142D01*
X88445000Y-118259285D01*
X88409285Y-118330714D01*
X88373571Y-118366428D01*
X88302142Y-118402142D01*
X88016428Y-118402142D01*
X88802142Y-118759285D02*
X88945000Y-118759285D01*
X89016428Y-118723571D01*
X89052142Y-118687857D01*
X89123571Y-118580714D01*
X89159285Y-118437857D01*
X89159285Y-118152142D01*
X89123571Y-118080714D01*
X89087857Y-118045000D01*
X89016428Y-118009285D01*
X88873571Y-118009285D01*
X88802142Y-118045000D01*
X88766428Y-118080714D01*
X88730714Y-118152142D01*
X88730714Y-118330714D01*
X88766428Y-118402142D01*
X88802142Y-118437857D01*
X88873571Y-118473571D01*
X89016428Y-118473571D01*
X89087857Y-118437857D01*
X89123571Y-118402142D01*
X89159285Y-118330714D01*
%TO.C,C10*%
X85837857Y-115847857D02*
X85802142Y-115883571D01*
X85695000Y-115919285D01*
X85623571Y-115919285D01*
X85516428Y-115883571D01*
X85445000Y-115812142D01*
X85409285Y-115740714D01*
X85373571Y-115597857D01*
X85373571Y-115490714D01*
X85409285Y-115347857D01*
X85445000Y-115276428D01*
X85516428Y-115205000D01*
X85623571Y-115169285D01*
X85695000Y-115169285D01*
X85802142Y-115205000D01*
X85837857Y-115240714D01*
X86552142Y-115919285D02*
X86123571Y-115919285D01*
X86337857Y-115919285D02*
X86337857Y-115169285D01*
X86266428Y-115276428D01*
X86195000Y-115347857D01*
X86123571Y-115383571D01*
X87016428Y-115169285D02*
X87087857Y-115169285D01*
X87159285Y-115205000D01*
X87195000Y-115240714D01*
X87230714Y-115312142D01*
X87266428Y-115455000D01*
X87266428Y-115633571D01*
X87230714Y-115776428D01*
X87195000Y-115847857D01*
X87159285Y-115883571D01*
X87087857Y-115919285D01*
X87016428Y-115919285D01*
X86945000Y-115883571D01*
X86909285Y-115847857D01*
X86873571Y-115776428D01*
X86837857Y-115633571D01*
X86837857Y-115455000D01*
X86873571Y-115312142D01*
X86909285Y-115240714D01*
X86945000Y-115205000D01*
X87016428Y-115169285D01*
%TO.C,C9*%
X65955000Y-126107857D02*
X65919285Y-126143571D01*
X65812142Y-126179285D01*
X65740714Y-126179285D01*
X65633571Y-126143571D01*
X65562142Y-126072142D01*
X65526428Y-126000714D01*
X65490714Y-125857857D01*
X65490714Y-125750714D01*
X65526428Y-125607857D01*
X65562142Y-125536428D01*
X65633571Y-125465000D01*
X65740714Y-125429285D01*
X65812142Y-125429285D01*
X65919285Y-125465000D01*
X65955000Y-125500714D01*
X66312142Y-126179285D02*
X66455000Y-126179285D01*
X66526428Y-126143571D01*
X66562142Y-126107857D01*
X66633571Y-126000714D01*
X66669285Y-125857857D01*
X66669285Y-125572142D01*
X66633571Y-125500714D01*
X66597857Y-125465000D01*
X66526428Y-125429285D01*
X66383571Y-125429285D01*
X66312142Y-125465000D01*
X66276428Y-125500714D01*
X66240714Y-125572142D01*
X66240714Y-125750714D01*
X66276428Y-125822142D01*
X66312142Y-125857857D01*
X66383571Y-125893571D01*
X66526428Y-125893571D01*
X66597857Y-125857857D01*
X66633571Y-125822142D01*
X66669285Y-125750714D01*
%TD*%
M02*
