%TF.GenerationSoftware,KiCad,Pcbnew,(5.1.6-0-10_14)*%
%TF.CreationDate,2021-04-21T18:18:53-05:00*%
%TF.ProjectId,MBRadio_4732_BO3,4d425261-6469-46f5-9f34-3733325f424f,rev?*%
%TF.SameCoordinates,Original*%
%TF.FileFunction,Soldermask,Top*%
%TF.FilePolarity,Negative*%
%FSLAX46Y46*%
G04 Gerber Fmt 4.6, Leading zero omitted, Abs format (unit mm)*
G04 Created by KiCad (PCBNEW (5.1.6-0-10_14)) date 2021-04-21 18:18:53*
%MOMM*%
%LPD*%
G01*
G04 APERTURE LIST*
%ADD10R,1.446200X0.653200*%
%ADD11R,0.653200X1.293800*%
%ADD12R,0.653200X1.446200*%
%ADD13R,1.293800X0.653200*%
%ADD14C,5.700000*%
%ADD15R,0.900000X1.000000*%
%ADD16C,1.700000*%
%ADD17R,2.800000X3.000000*%
%ADD18R,2.800000X2.200000*%
%ADD19R,1.450000X1.450000*%
%ADD20O,1.450000X1.450000*%
%ADD21R,5.180000X2.390000*%
%ADD22R,5.180000X2.520000*%
%ADD23R,1.300000X0.500000*%
%ADD24R,1.200000X1.400000*%
%ADD25R,1.800000X1.800000*%
%ADD26O,1.800000X1.800000*%
%ADD27R,1.100000X1.100000*%
%ADD28R,2.670000X1.100000*%
%ADD29R,3.900000X1.100000*%
%ADD30R,3.570000X1.100000*%
%ADD31R,1.100000X2.670000*%
%ADD32R,1.100000X3.900000*%
%ADD33R,1.100000X3.570000*%
%ADD34R,1.900000X1.900000*%
%ADD35C,1.900000*%
%ADD36C,0.100000*%
%ADD37R,3.000000X2.800000*%
%ADD38R,2.200000X2.800000*%
G04 APERTURE END LIST*
%TO.C,R8*%
G36*
G01*
X97315000Y-118951250D02*
X97315000Y-118388750D01*
G75*
G02*
X97558750Y-118145000I243750J0D01*
G01*
X98046250Y-118145000D01*
G75*
G02*
X98290000Y-118388750I0J-243750D01*
G01*
X98290000Y-118951250D01*
G75*
G02*
X98046250Y-119195000I-243750J0D01*
G01*
X97558750Y-119195000D01*
G75*
G02*
X97315000Y-118951250I0J243750D01*
G01*
G37*
G36*
G01*
X98890000Y-118951250D02*
X98890000Y-118388750D01*
G75*
G02*
X99133750Y-118145000I243750J0D01*
G01*
X99621250Y-118145000D01*
G75*
G02*
X99865000Y-118388750I0J-243750D01*
G01*
X99865000Y-118951250D01*
G75*
G02*
X99621250Y-119195000I-243750J0D01*
G01*
X99133750Y-119195000D01*
G75*
G02*
X98890000Y-118951250I0J243750D01*
G01*
G37*
%TD*%
D10*
%TO.C,C4*%
X91950000Y-112881700D03*
X91950000Y-115238300D03*
D11*
X92696500Y-114060000D03*
X91203500Y-114060000D03*
%TD*%
D12*
%TO.C,C3*%
X101678300Y-132940000D03*
X99321700Y-132940000D03*
D13*
X100500000Y-133686500D03*
X100500000Y-132193500D03*
%TD*%
D14*
%TO.C,REF\u002A\u002A*%
X111500000Y-136500000D03*
%TD*%
%TO.C,REF\u002A\u002A*%
X111500000Y-103500000D03*
%TD*%
%TO.C,REF\u002A\u002A*%
X53500000Y-136500000D03*
%TD*%
%TO.C,REF\u002A\u002A*%
X53500000Y-103500000D03*
%TD*%
%TO.C,C13*%
G36*
G01*
X96841250Y-127080000D02*
X96278750Y-127080000D01*
G75*
G02*
X96035000Y-126836250I0J243750D01*
G01*
X96035000Y-126348750D01*
G75*
G02*
X96278750Y-126105000I243750J0D01*
G01*
X96841250Y-126105000D01*
G75*
G02*
X97085000Y-126348750I0J-243750D01*
G01*
X97085000Y-126836250D01*
G75*
G02*
X96841250Y-127080000I-243750J0D01*
G01*
G37*
G36*
G01*
X96841250Y-128655000D02*
X96278750Y-128655000D01*
G75*
G02*
X96035000Y-128411250I0J243750D01*
G01*
X96035000Y-127923750D01*
G75*
G02*
X96278750Y-127680000I243750J0D01*
G01*
X96841250Y-127680000D01*
G75*
G02*
X97085000Y-127923750I0J-243750D01*
G01*
X97085000Y-128411250D01*
G75*
G02*
X96841250Y-128655000I-243750J0D01*
G01*
G37*
%TD*%
%TO.C,U5*%
G36*
G01*
X97740000Y-126770000D02*
X97740000Y-126420000D01*
G75*
G02*
X97915000Y-126245000I175000J0D01*
G01*
X99615000Y-126245000D01*
G75*
G02*
X99790000Y-126420000I0J-175000D01*
G01*
X99790000Y-126770000D01*
G75*
G02*
X99615000Y-126945000I-175000J0D01*
G01*
X97915000Y-126945000D01*
G75*
G02*
X97740000Y-126770000I0J175000D01*
G01*
G37*
G36*
G01*
X97740000Y-128040000D02*
X97740000Y-127690000D01*
G75*
G02*
X97915000Y-127515000I175000J0D01*
G01*
X99615000Y-127515000D01*
G75*
G02*
X99790000Y-127690000I0J-175000D01*
G01*
X99790000Y-128040000D01*
G75*
G02*
X99615000Y-128215000I-175000J0D01*
G01*
X97915000Y-128215000D01*
G75*
G02*
X97740000Y-128040000I0J175000D01*
G01*
G37*
G36*
G01*
X97740000Y-129310000D02*
X97740000Y-128960000D01*
G75*
G02*
X97915000Y-128785000I175000J0D01*
G01*
X99615000Y-128785000D01*
G75*
G02*
X99790000Y-128960000I0J-175000D01*
G01*
X99790000Y-129310000D01*
G75*
G02*
X99615000Y-129485000I-175000J0D01*
G01*
X97915000Y-129485000D01*
G75*
G02*
X97740000Y-129310000I0J175000D01*
G01*
G37*
G36*
G01*
X97740000Y-130580000D02*
X97740000Y-130230000D01*
G75*
G02*
X97915000Y-130055000I175000J0D01*
G01*
X99615000Y-130055000D01*
G75*
G02*
X99790000Y-130230000I0J-175000D01*
G01*
X99790000Y-130580000D01*
G75*
G02*
X99615000Y-130755000I-175000J0D01*
G01*
X97915000Y-130755000D01*
G75*
G02*
X97740000Y-130580000I0J175000D01*
G01*
G37*
G36*
G01*
X102690000Y-130580000D02*
X102690000Y-130230000D01*
G75*
G02*
X102865000Y-130055000I175000J0D01*
G01*
X104565000Y-130055000D01*
G75*
G02*
X104740000Y-130230000I0J-175000D01*
G01*
X104740000Y-130580000D01*
G75*
G02*
X104565000Y-130755000I-175000J0D01*
G01*
X102865000Y-130755000D01*
G75*
G02*
X102690000Y-130580000I0J175000D01*
G01*
G37*
G36*
G01*
X102690000Y-129310000D02*
X102690000Y-128960000D01*
G75*
G02*
X102865000Y-128785000I175000J0D01*
G01*
X104565000Y-128785000D01*
G75*
G02*
X104740000Y-128960000I0J-175000D01*
G01*
X104740000Y-129310000D01*
G75*
G02*
X104565000Y-129485000I-175000J0D01*
G01*
X102865000Y-129485000D01*
G75*
G02*
X102690000Y-129310000I0J175000D01*
G01*
G37*
G36*
G01*
X102690000Y-128040000D02*
X102690000Y-127690000D01*
G75*
G02*
X102865000Y-127515000I175000J0D01*
G01*
X104565000Y-127515000D01*
G75*
G02*
X104740000Y-127690000I0J-175000D01*
G01*
X104740000Y-128040000D01*
G75*
G02*
X104565000Y-128215000I-175000J0D01*
G01*
X102865000Y-128215000D01*
G75*
G02*
X102690000Y-128040000I0J175000D01*
G01*
G37*
G36*
G01*
X102690000Y-126770000D02*
X102690000Y-126420000D01*
G75*
G02*
X102865000Y-126245000I175000J0D01*
G01*
X104565000Y-126245000D01*
G75*
G02*
X104740000Y-126420000I0J-175000D01*
G01*
X104740000Y-126770000D01*
G75*
G02*
X104565000Y-126945000I-175000J0D01*
G01*
X102865000Y-126945000D01*
G75*
G02*
X102690000Y-126770000I0J175000D01*
G01*
G37*
%TD*%
%TO.C,C6*%
G36*
G01*
X64530000Y-112967500D02*
X64530000Y-112572500D01*
G75*
G02*
X64702500Y-112400000I172500J0D01*
G01*
X65047500Y-112400000D01*
G75*
G02*
X65220000Y-112572500I0J-172500D01*
G01*
X65220000Y-112967500D01*
G75*
G02*
X65047500Y-113140000I-172500J0D01*
G01*
X64702500Y-113140000D01*
G75*
G02*
X64530000Y-112967500I0J172500D01*
G01*
G37*
G36*
G01*
X65500000Y-112967500D02*
X65500000Y-112572500D01*
G75*
G02*
X65672500Y-112400000I172500J0D01*
G01*
X66017500Y-112400000D01*
G75*
G02*
X66190000Y-112572500I0J-172500D01*
G01*
X66190000Y-112967500D01*
G75*
G02*
X66017500Y-113140000I-172500J0D01*
G01*
X65672500Y-113140000D01*
G75*
G02*
X65500000Y-112967500I0J172500D01*
G01*
G37*
%TD*%
%TO.C,C14*%
G36*
G01*
X103290000Y-122867500D02*
X103290000Y-122472500D01*
G75*
G02*
X103462500Y-122300000I172500J0D01*
G01*
X103807500Y-122300000D01*
G75*
G02*
X103980000Y-122472500I0J-172500D01*
G01*
X103980000Y-122867500D01*
G75*
G02*
X103807500Y-123040000I-172500J0D01*
G01*
X103462500Y-123040000D01*
G75*
G02*
X103290000Y-122867500I0J172500D01*
G01*
G37*
G36*
G01*
X104260000Y-122867500D02*
X104260000Y-122472500D01*
G75*
G02*
X104432500Y-122300000I172500J0D01*
G01*
X104777500Y-122300000D01*
G75*
G02*
X104950000Y-122472500I0J-172500D01*
G01*
X104950000Y-122867500D01*
G75*
G02*
X104777500Y-123040000I-172500J0D01*
G01*
X104432500Y-123040000D01*
G75*
G02*
X104260000Y-122867500I0J172500D01*
G01*
G37*
%TD*%
D15*
%TO.C,D2*%
X68100000Y-110780000D03*
X70000000Y-110780000D03*
X69050000Y-108780000D03*
%TD*%
D16*
%TO.C,J3*%
X101000000Y-103500000D03*
X101000000Y-109500000D03*
D17*
X106350000Y-103300000D03*
X95650000Y-109800000D03*
D18*
X106350000Y-109650000D03*
%TD*%
%TO.C,L1*%
G36*
G01*
X67625000Y-113021250D02*
X67625000Y-112458750D01*
G75*
G02*
X67868750Y-112215000I243750J0D01*
G01*
X68356250Y-112215000D01*
G75*
G02*
X68600000Y-112458750I0J-243750D01*
G01*
X68600000Y-113021250D01*
G75*
G02*
X68356250Y-113265000I-243750J0D01*
G01*
X67868750Y-113265000D01*
G75*
G02*
X67625000Y-113021250I0J243750D01*
G01*
G37*
G36*
G01*
X69200000Y-113021250D02*
X69200000Y-112458750D01*
G75*
G02*
X69443750Y-112215000I243750J0D01*
G01*
X69931250Y-112215000D01*
G75*
G02*
X70175000Y-112458750I0J-243750D01*
G01*
X70175000Y-113021250D01*
G75*
G02*
X69931250Y-113265000I-243750J0D01*
G01*
X69443750Y-113265000D01*
G75*
G02*
X69200000Y-113021250I0J243750D01*
G01*
G37*
%TD*%
%TO.C,U1*%
G36*
G01*
X67970000Y-114720000D02*
X67970000Y-114370000D01*
G75*
G02*
X68145000Y-114195000I175000J0D01*
G01*
X69845000Y-114195000D01*
G75*
G02*
X70020000Y-114370000I0J-175000D01*
G01*
X70020000Y-114720000D01*
G75*
G02*
X69845000Y-114895000I-175000J0D01*
G01*
X68145000Y-114895000D01*
G75*
G02*
X67970000Y-114720000I0J175000D01*
G01*
G37*
G36*
G01*
X67970000Y-115990000D02*
X67970000Y-115640000D01*
G75*
G02*
X68145000Y-115465000I175000J0D01*
G01*
X69845000Y-115465000D01*
G75*
G02*
X70020000Y-115640000I0J-175000D01*
G01*
X70020000Y-115990000D01*
G75*
G02*
X69845000Y-116165000I-175000J0D01*
G01*
X68145000Y-116165000D01*
G75*
G02*
X67970000Y-115990000I0J175000D01*
G01*
G37*
G36*
G01*
X67970000Y-117260000D02*
X67970000Y-116910000D01*
G75*
G02*
X68145000Y-116735000I175000J0D01*
G01*
X69845000Y-116735000D01*
G75*
G02*
X70020000Y-116910000I0J-175000D01*
G01*
X70020000Y-117260000D01*
G75*
G02*
X69845000Y-117435000I-175000J0D01*
G01*
X68145000Y-117435000D01*
G75*
G02*
X67970000Y-117260000I0J175000D01*
G01*
G37*
G36*
G01*
X67970000Y-118530000D02*
X67970000Y-118180000D01*
G75*
G02*
X68145000Y-118005000I175000J0D01*
G01*
X69845000Y-118005000D01*
G75*
G02*
X70020000Y-118180000I0J-175000D01*
G01*
X70020000Y-118530000D01*
G75*
G02*
X69845000Y-118705000I-175000J0D01*
G01*
X68145000Y-118705000D01*
G75*
G02*
X67970000Y-118530000I0J175000D01*
G01*
G37*
G36*
G01*
X67970000Y-119800000D02*
X67970000Y-119450000D01*
G75*
G02*
X68145000Y-119275000I175000J0D01*
G01*
X69845000Y-119275000D01*
G75*
G02*
X70020000Y-119450000I0J-175000D01*
G01*
X70020000Y-119800000D01*
G75*
G02*
X69845000Y-119975000I-175000J0D01*
G01*
X68145000Y-119975000D01*
G75*
G02*
X67970000Y-119800000I0J175000D01*
G01*
G37*
G36*
G01*
X67970000Y-121070000D02*
X67970000Y-120720000D01*
G75*
G02*
X68145000Y-120545000I175000J0D01*
G01*
X69845000Y-120545000D01*
G75*
G02*
X70020000Y-120720000I0J-175000D01*
G01*
X70020000Y-121070000D01*
G75*
G02*
X69845000Y-121245000I-175000J0D01*
G01*
X68145000Y-121245000D01*
G75*
G02*
X67970000Y-121070000I0J175000D01*
G01*
G37*
G36*
G01*
X67970000Y-122340000D02*
X67970000Y-121990000D01*
G75*
G02*
X68145000Y-121815000I175000J0D01*
G01*
X69845000Y-121815000D01*
G75*
G02*
X70020000Y-121990000I0J-175000D01*
G01*
X70020000Y-122340000D01*
G75*
G02*
X69845000Y-122515000I-175000J0D01*
G01*
X68145000Y-122515000D01*
G75*
G02*
X67970000Y-122340000I0J175000D01*
G01*
G37*
G36*
G01*
X67970000Y-123610000D02*
X67970000Y-123260000D01*
G75*
G02*
X68145000Y-123085000I175000J0D01*
G01*
X69845000Y-123085000D01*
G75*
G02*
X70020000Y-123260000I0J-175000D01*
G01*
X70020000Y-123610000D01*
G75*
G02*
X69845000Y-123785000I-175000J0D01*
G01*
X68145000Y-123785000D01*
G75*
G02*
X67970000Y-123610000I0J175000D01*
G01*
G37*
G36*
G01*
X72920000Y-123610000D02*
X72920000Y-123260000D01*
G75*
G02*
X73095000Y-123085000I175000J0D01*
G01*
X74795000Y-123085000D01*
G75*
G02*
X74970000Y-123260000I0J-175000D01*
G01*
X74970000Y-123610000D01*
G75*
G02*
X74795000Y-123785000I-175000J0D01*
G01*
X73095000Y-123785000D01*
G75*
G02*
X72920000Y-123610000I0J175000D01*
G01*
G37*
G36*
G01*
X72920000Y-122340000D02*
X72920000Y-121990000D01*
G75*
G02*
X73095000Y-121815000I175000J0D01*
G01*
X74795000Y-121815000D01*
G75*
G02*
X74970000Y-121990000I0J-175000D01*
G01*
X74970000Y-122340000D01*
G75*
G02*
X74795000Y-122515000I-175000J0D01*
G01*
X73095000Y-122515000D01*
G75*
G02*
X72920000Y-122340000I0J175000D01*
G01*
G37*
G36*
G01*
X72920000Y-121070000D02*
X72920000Y-120720000D01*
G75*
G02*
X73095000Y-120545000I175000J0D01*
G01*
X74795000Y-120545000D01*
G75*
G02*
X74970000Y-120720000I0J-175000D01*
G01*
X74970000Y-121070000D01*
G75*
G02*
X74795000Y-121245000I-175000J0D01*
G01*
X73095000Y-121245000D01*
G75*
G02*
X72920000Y-121070000I0J175000D01*
G01*
G37*
G36*
G01*
X72920000Y-119800000D02*
X72920000Y-119450000D01*
G75*
G02*
X73095000Y-119275000I175000J0D01*
G01*
X74795000Y-119275000D01*
G75*
G02*
X74970000Y-119450000I0J-175000D01*
G01*
X74970000Y-119800000D01*
G75*
G02*
X74795000Y-119975000I-175000J0D01*
G01*
X73095000Y-119975000D01*
G75*
G02*
X72920000Y-119800000I0J175000D01*
G01*
G37*
G36*
G01*
X72920000Y-118530000D02*
X72920000Y-118180000D01*
G75*
G02*
X73095000Y-118005000I175000J0D01*
G01*
X74795000Y-118005000D01*
G75*
G02*
X74970000Y-118180000I0J-175000D01*
G01*
X74970000Y-118530000D01*
G75*
G02*
X74795000Y-118705000I-175000J0D01*
G01*
X73095000Y-118705000D01*
G75*
G02*
X72920000Y-118530000I0J175000D01*
G01*
G37*
G36*
G01*
X72920000Y-117260000D02*
X72920000Y-116910000D01*
G75*
G02*
X73095000Y-116735000I175000J0D01*
G01*
X74795000Y-116735000D01*
G75*
G02*
X74970000Y-116910000I0J-175000D01*
G01*
X74970000Y-117260000D01*
G75*
G02*
X74795000Y-117435000I-175000J0D01*
G01*
X73095000Y-117435000D01*
G75*
G02*
X72920000Y-117260000I0J175000D01*
G01*
G37*
G36*
G01*
X72920000Y-115990000D02*
X72920000Y-115640000D01*
G75*
G02*
X73095000Y-115465000I175000J0D01*
G01*
X74795000Y-115465000D01*
G75*
G02*
X74970000Y-115640000I0J-175000D01*
G01*
X74970000Y-115990000D01*
G75*
G02*
X74795000Y-116165000I-175000J0D01*
G01*
X73095000Y-116165000D01*
G75*
G02*
X72920000Y-115990000I0J175000D01*
G01*
G37*
G36*
G01*
X72920000Y-114720000D02*
X72920000Y-114370000D01*
G75*
G02*
X73095000Y-114195000I175000J0D01*
G01*
X74795000Y-114195000D01*
G75*
G02*
X74970000Y-114370000I0J-175000D01*
G01*
X74970000Y-114720000D01*
G75*
G02*
X74795000Y-114895000I-175000J0D01*
G01*
X73095000Y-114895000D01*
G75*
G02*
X72920000Y-114720000I0J175000D01*
G01*
G37*
%TD*%
D19*
%TO.C,JP1*%
X67220000Y-132490000D03*
D20*
X65220000Y-132490000D03*
%TD*%
D21*
%TO.C,J5*%
X53030000Y-112750000D03*
D22*
X53030000Y-108370000D03*
X53030000Y-117130000D03*
%TD*%
D15*
%TO.C,Q1*%
X97910000Y-117200000D03*
X99810000Y-117200000D03*
X98860000Y-115200000D03*
%TD*%
%TO.C,Q2*%
X103020000Y-115210000D03*
X103970000Y-117210000D03*
X102070000Y-117210000D03*
%TD*%
%TO.C,C5*%
G36*
G01*
X84292500Y-111570000D02*
X84687500Y-111570000D01*
G75*
G02*
X84860000Y-111742500I0J-172500D01*
G01*
X84860000Y-112087500D01*
G75*
G02*
X84687500Y-112260000I-172500J0D01*
G01*
X84292500Y-112260000D01*
G75*
G02*
X84120000Y-112087500I0J172500D01*
G01*
X84120000Y-111742500D01*
G75*
G02*
X84292500Y-111570000I172500J0D01*
G01*
G37*
G36*
G01*
X84292500Y-112540000D02*
X84687500Y-112540000D01*
G75*
G02*
X84860000Y-112712500I0J-172500D01*
G01*
X84860000Y-113057500D01*
G75*
G02*
X84687500Y-113230000I-172500J0D01*
G01*
X84292500Y-113230000D01*
G75*
G02*
X84120000Y-113057500I0J172500D01*
G01*
X84120000Y-112712500D01*
G75*
G02*
X84292500Y-112540000I172500J0D01*
G01*
G37*
%TD*%
%TO.C,C7*%
G36*
G01*
X85798750Y-112400000D02*
X86361250Y-112400000D01*
G75*
G02*
X86605000Y-112643750I0J-243750D01*
G01*
X86605000Y-113131250D01*
G75*
G02*
X86361250Y-113375000I-243750J0D01*
G01*
X85798750Y-113375000D01*
G75*
G02*
X85555000Y-113131250I0J243750D01*
G01*
X85555000Y-112643750D01*
G75*
G02*
X85798750Y-112400000I243750J0D01*
G01*
G37*
G36*
G01*
X85798750Y-110825000D02*
X86361250Y-110825000D01*
G75*
G02*
X86605000Y-111068750I0J-243750D01*
G01*
X86605000Y-111556250D01*
G75*
G02*
X86361250Y-111800000I-243750J0D01*
G01*
X85798750Y-111800000D01*
G75*
G02*
X85555000Y-111556250I0J243750D01*
G01*
X85555000Y-111068750D01*
G75*
G02*
X85798750Y-110825000I243750J0D01*
G01*
G37*
%TD*%
%TO.C,C8*%
G36*
G01*
X87628750Y-110825000D02*
X88191250Y-110825000D01*
G75*
G02*
X88435000Y-111068750I0J-243750D01*
G01*
X88435000Y-111556250D01*
G75*
G02*
X88191250Y-111800000I-243750J0D01*
G01*
X87628750Y-111800000D01*
G75*
G02*
X87385000Y-111556250I0J243750D01*
G01*
X87385000Y-111068750D01*
G75*
G02*
X87628750Y-110825000I243750J0D01*
G01*
G37*
G36*
G01*
X87628750Y-112400000D02*
X88191250Y-112400000D01*
G75*
G02*
X88435000Y-112643750I0J-243750D01*
G01*
X88435000Y-113131250D01*
G75*
G02*
X88191250Y-113375000I-243750J0D01*
G01*
X87628750Y-113375000D01*
G75*
G02*
X87385000Y-113131250I0J243750D01*
G01*
X87385000Y-112643750D01*
G75*
G02*
X87628750Y-112400000I243750J0D01*
G01*
G37*
%TD*%
D19*
%TO.C,JP3*%
X67190000Y-136750000D03*
D20*
X65190000Y-136750000D03*
%TD*%
D23*
%TO.C,U2*%
X78570000Y-115457500D03*
X78570000Y-116092500D03*
X78570000Y-116727500D03*
X78570000Y-117362500D03*
X78570000Y-117997500D03*
X78570000Y-118632500D03*
X78570000Y-119267500D03*
X78570000Y-119902500D03*
X78570000Y-120537500D03*
X78570000Y-121172500D03*
X78570000Y-121807500D03*
X78570000Y-122442500D03*
X83770000Y-122442500D03*
X83770000Y-121807500D03*
X83770000Y-121172500D03*
X83770000Y-120537500D03*
X83770000Y-119902500D03*
X83770000Y-119267500D03*
X83770000Y-118632500D03*
X83770000Y-117997500D03*
X83770000Y-117362500D03*
X83770000Y-116727500D03*
X83770000Y-116092500D03*
X83770000Y-115457500D03*
%TD*%
D24*
%TO.C,X1*%
X93815000Y-120750000D03*
X93815000Y-118650000D03*
X92165000Y-118650000D03*
X92165000Y-120750000D03*
%TD*%
D25*
%TO.C,J7*%
X92660000Y-138000000D03*
D26*
X90120000Y-138000000D03*
X87580000Y-138000000D03*
X85040000Y-138000000D03*
X82500000Y-138000000D03*
X79960000Y-138000000D03*
X77420000Y-138000000D03*
X74880000Y-138000000D03*
X72340000Y-138000000D03*
%TD*%
D27*
%TO.C,SH1*%
X63585000Y-102715000D03*
X89595000Y-102715000D03*
X89595000Y-128725000D03*
X63585000Y-128725000D03*
D28*
X65370000Y-102715000D03*
X65370000Y-128725000D03*
D29*
X70755000Y-102715000D03*
X70755000Y-128725000D03*
D30*
X76590000Y-102715000D03*
X76590000Y-128725000D03*
D29*
X82425000Y-102715000D03*
X82425000Y-128725000D03*
D28*
X87810000Y-102715000D03*
X87810000Y-128725000D03*
D31*
X63585000Y-104500000D03*
X89595000Y-104500000D03*
D32*
X63585000Y-109885000D03*
X89595000Y-109885000D03*
D33*
X63585000Y-115720000D03*
X89595000Y-115720000D03*
D32*
X63585000Y-121555000D03*
X89595000Y-121555000D03*
D31*
X63585000Y-126940000D03*
X89595000Y-126940000D03*
%TD*%
%TO.C,C1*%
G36*
G01*
X92510000Y-122532500D02*
X92510000Y-122927500D01*
G75*
G02*
X92337500Y-123100000I-172500J0D01*
G01*
X91992500Y-123100000D01*
G75*
G02*
X91820000Y-122927500I0J172500D01*
G01*
X91820000Y-122532500D01*
G75*
G02*
X91992500Y-122360000I172500J0D01*
G01*
X92337500Y-122360000D01*
G75*
G02*
X92510000Y-122532500I0J-172500D01*
G01*
G37*
G36*
G01*
X93480000Y-122532500D02*
X93480000Y-122927500D01*
G75*
G02*
X93307500Y-123100000I-172500J0D01*
G01*
X92962500Y-123100000D01*
G75*
G02*
X92790000Y-122927500I0J172500D01*
G01*
X92790000Y-122532500D01*
G75*
G02*
X92962500Y-122360000I172500J0D01*
G01*
X93307500Y-122360000D01*
G75*
G02*
X93480000Y-122532500I0J-172500D01*
G01*
G37*
%TD*%
%TO.C,C2*%
G36*
G01*
X93480000Y-123552500D02*
X93480000Y-123947500D01*
G75*
G02*
X93307500Y-124120000I-172500J0D01*
G01*
X92962500Y-124120000D01*
G75*
G02*
X92790000Y-123947500I0J172500D01*
G01*
X92790000Y-123552500D01*
G75*
G02*
X92962500Y-123380000I172500J0D01*
G01*
X93307500Y-123380000D01*
G75*
G02*
X93480000Y-123552500I0J-172500D01*
G01*
G37*
G36*
G01*
X92510000Y-123552500D02*
X92510000Y-123947500D01*
G75*
G02*
X92337500Y-124120000I-172500J0D01*
G01*
X91992500Y-124120000D01*
G75*
G02*
X91820000Y-123947500I0J172500D01*
G01*
X91820000Y-123552500D01*
G75*
G02*
X91992500Y-123380000I172500J0D01*
G01*
X92337500Y-123380000D01*
G75*
G02*
X92510000Y-123552500I0J-172500D01*
G01*
G37*
%TD*%
%TO.C,C12*%
G36*
G01*
X100985000Y-121511250D02*
X100985000Y-120948750D01*
G75*
G02*
X101228750Y-120705000I243750J0D01*
G01*
X101716250Y-120705000D01*
G75*
G02*
X101960000Y-120948750I0J-243750D01*
G01*
X101960000Y-121511250D01*
G75*
G02*
X101716250Y-121755000I-243750J0D01*
G01*
X101228750Y-121755000D01*
G75*
G02*
X100985000Y-121511250I0J243750D01*
G01*
G37*
G36*
G01*
X102560000Y-121511250D02*
X102560000Y-120948750D01*
G75*
G02*
X102803750Y-120705000I243750J0D01*
G01*
X103291250Y-120705000D01*
G75*
G02*
X103535000Y-120948750I0J-243750D01*
G01*
X103535000Y-121511250D01*
G75*
G02*
X103291250Y-121755000I-243750J0D01*
G01*
X102803750Y-121755000D01*
G75*
G02*
X102560000Y-121511250I0J243750D01*
G01*
G37*
%TD*%
D34*
%TO.C,J6*%
X111230000Y-125000000D03*
D35*
X111230000Y-128500000D03*
%TD*%
D36*
%TO.C,JP0*%
G36*
X69395245Y-106809039D02*
G01*
X69385866Y-106806194D01*
X69377221Y-106801573D01*
X69369645Y-106795355D01*
X69363427Y-106787779D01*
X69358806Y-106779134D01*
X69355961Y-106769755D01*
X69355000Y-106760000D01*
X69355000Y-105260000D01*
X69355961Y-105250245D01*
X69358806Y-105240866D01*
X69363427Y-105232221D01*
X69369645Y-105224645D01*
X69377221Y-105218427D01*
X69385866Y-105213806D01*
X69395245Y-105210961D01*
X69405000Y-105210000D01*
X70555000Y-105210000D01*
X70564755Y-105210961D01*
X70574134Y-105213806D01*
X70582779Y-105218427D01*
X70590355Y-105224645D01*
X70596573Y-105232221D01*
X70601194Y-105240866D01*
X70604039Y-105250245D01*
X70605000Y-105260000D01*
X70604039Y-105269755D01*
X70601194Y-105279134D01*
X70596603Y-105287735D01*
X70115093Y-106010000D01*
X70596603Y-106732265D01*
X70601214Y-106740914D01*
X70604049Y-106750297D01*
X70605000Y-106760052D01*
X70604029Y-106769806D01*
X70601174Y-106779182D01*
X70596544Y-106787822D01*
X70590318Y-106795392D01*
X70582735Y-106801603D01*
X70574086Y-106806214D01*
X70564703Y-106809049D01*
X70555000Y-106810000D01*
X69405000Y-106810000D01*
X69395245Y-106809039D01*
G37*
G36*
X70845245Y-106809039D02*
G01*
X70835866Y-106806194D01*
X70827221Y-106801573D01*
X70819645Y-106795355D01*
X70813397Y-106787735D01*
X70313397Y-106037735D01*
X70308786Y-106029086D01*
X70305951Y-106019703D01*
X70305000Y-106009948D01*
X70305971Y-106000194D01*
X70308826Y-105990818D01*
X70313397Y-105982265D01*
X70813397Y-105232265D01*
X70819608Y-105224682D01*
X70827178Y-105218456D01*
X70835818Y-105213826D01*
X70845194Y-105210971D01*
X70855000Y-105210000D01*
X71855000Y-105210000D01*
X71864755Y-105210961D01*
X71874134Y-105213806D01*
X71882779Y-105218427D01*
X71890355Y-105224645D01*
X71896573Y-105232221D01*
X71901194Y-105240866D01*
X71904039Y-105250245D01*
X71905000Y-105260000D01*
X71905000Y-106760000D01*
X71904039Y-106769755D01*
X71901194Y-106779134D01*
X71896573Y-106787779D01*
X71890355Y-106795355D01*
X71882779Y-106801573D01*
X71874134Y-106806194D01*
X71864755Y-106809039D01*
X71855000Y-106810000D01*
X70855000Y-106810000D01*
X70845245Y-106809039D01*
G37*
%TD*%
D16*
%TO.C,J4*%
X53350000Y-126000000D03*
X59350000Y-126000000D03*
D37*
X53150000Y-120650000D03*
X59650000Y-131350000D03*
D38*
X59500000Y-120650000D03*
%TD*%
%TO.C,D1*%
G36*
G01*
X98075000Y-137762500D02*
X98075000Y-138237500D01*
G75*
G02*
X97837500Y-138475000I-237500J0D01*
G01*
X96987500Y-138475000D01*
G75*
G02*
X96750000Y-138237500I0J237500D01*
G01*
X96750000Y-137762500D01*
G75*
G02*
X96987500Y-137525000I237500J0D01*
G01*
X97837500Y-137525000D01*
G75*
G02*
X98075000Y-137762500I0J-237500D01*
G01*
G37*
G36*
G01*
X96450000Y-137762500D02*
X96450000Y-138237500D01*
G75*
G02*
X96212500Y-138475000I-237500J0D01*
G01*
X95362500Y-138475000D01*
G75*
G02*
X95125000Y-138237500I0J237500D01*
G01*
X95125000Y-137762500D01*
G75*
G02*
X95362500Y-137525000I237500J0D01*
G01*
X96212500Y-137525000D01*
G75*
G02*
X96450000Y-137762500I0J-237500D01*
G01*
G37*
%TD*%
%TO.C,R6*%
G36*
G01*
X98725000Y-138281250D02*
X98725000Y-137718750D01*
G75*
G02*
X98968750Y-137475000I243750J0D01*
G01*
X99456250Y-137475000D01*
G75*
G02*
X99700000Y-137718750I0J-243750D01*
G01*
X99700000Y-138281250D01*
G75*
G02*
X99456250Y-138525000I-243750J0D01*
G01*
X98968750Y-138525000D01*
G75*
G02*
X98725000Y-138281250I0J243750D01*
G01*
G37*
G36*
G01*
X100300000Y-138281250D02*
X100300000Y-137718750D01*
G75*
G02*
X100543750Y-137475000I243750J0D01*
G01*
X101031250Y-137475000D01*
G75*
G02*
X101275000Y-137718750I0J-243750D01*
G01*
X101275000Y-138281250D01*
G75*
G02*
X101031250Y-138525000I-243750J0D01*
G01*
X100543750Y-138525000D01*
G75*
G02*
X100300000Y-138281250I0J243750D01*
G01*
G37*
%TD*%
%TO.C,C11*%
G36*
G01*
X84725000Y-107931250D02*
X84725000Y-107368750D01*
G75*
G02*
X84968750Y-107125000I243750J0D01*
G01*
X85456250Y-107125000D01*
G75*
G02*
X85700000Y-107368750I0J-243750D01*
G01*
X85700000Y-107931250D01*
G75*
G02*
X85456250Y-108175000I-243750J0D01*
G01*
X84968750Y-108175000D01*
G75*
G02*
X84725000Y-107931250I0J243750D01*
G01*
G37*
G36*
G01*
X86300000Y-107931250D02*
X86300000Y-107368750D01*
G75*
G02*
X86543750Y-107125000I243750J0D01*
G01*
X87031250Y-107125000D01*
G75*
G02*
X87275000Y-107368750I0J-243750D01*
G01*
X87275000Y-107931250D01*
G75*
G02*
X87031250Y-108175000I-243750J0D01*
G01*
X86543750Y-108175000D01*
G75*
G02*
X86300000Y-107931250I0J243750D01*
G01*
G37*
%TD*%
%TO.C,C15*%
G36*
G01*
X86300000Y-106381250D02*
X86300000Y-105818750D01*
G75*
G02*
X86543750Y-105575000I243750J0D01*
G01*
X87031250Y-105575000D01*
G75*
G02*
X87275000Y-105818750I0J-243750D01*
G01*
X87275000Y-106381250D01*
G75*
G02*
X87031250Y-106625000I-243750J0D01*
G01*
X86543750Y-106625000D01*
G75*
G02*
X86300000Y-106381250I0J243750D01*
G01*
G37*
G36*
G01*
X84725000Y-106381250D02*
X84725000Y-105818750D01*
G75*
G02*
X84968750Y-105575000I243750J0D01*
G01*
X85456250Y-105575000D01*
G75*
G02*
X85700000Y-105818750I0J-243750D01*
G01*
X85700000Y-106381250D01*
G75*
G02*
X85456250Y-106625000I-243750J0D01*
G01*
X84968750Y-106625000D01*
G75*
G02*
X84725000Y-106381250I0J243750D01*
G01*
G37*
%TD*%
%TO.C,R7*%
G36*
G01*
X102450000Y-118398750D02*
X102450000Y-118961250D01*
G75*
G02*
X102206250Y-119205000I-243750J0D01*
G01*
X101718750Y-119205000D01*
G75*
G02*
X101475000Y-118961250I0J243750D01*
G01*
X101475000Y-118398750D01*
G75*
G02*
X101718750Y-118155000I243750J0D01*
G01*
X102206250Y-118155000D01*
G75*
G02*
X102450000Y-118398750I0J-243750D01*
G01*
G37*
G36*
G01*
X104025000Y-118398750D02*
X104025000Y-118961250D01*
G75*
G02*
X103781250Y-119205000I-243750J0D01*
G01*
X103293750Y-119205000D01*
G75*
G02*
X103050000Y-118961250I0J243750D01*
G01*
X103050000Y-118398750D01*
G75*
G02*
X103293750Y-118155000I243750J0D01*
G01*
X103781250Y-118155000D01*
G75*
G02*
X104025000Y-118398750I0J-243750D01*
G01*
G37*
%TD*%
%TO.C,R3*%
G36*
G01*
X76135000Y-126648750D02*
X76135000Y-127211250D01*
G75*
G02*
X75891250Y-127455000I-243750J0D01*
G01*
X75403750Y-127455000D01*
G75*
G02*
X75160000Y-127211250I0J243750D01*
G01*
X75160000Y-126648750D01*
G75*
G02*
X75403750Y-126405000I243750J0D01*
G01*
X75891250Y-126405000D01*
G75*
G02*
X76135000Y-126648750I0J-243750D01*
G01*
G37*
G36*
G01*
X74560000Y-126648750D02*
X74560000Y-127211250D01*
G75*
G02*
X74316250Y-127455000I-243750J0D01*
G01*
X73828750Y-127455000D01*
G75*
G02*
X73585000Y-127211250I0J243750D01*
G01*
X73585000Y-126648750D01*
G75*
G02*
X73828750Y-126405000I243750J0D01*
G01*
X74316250Y-126405000D01*
G75*
G02*
X74560000Y-126648750I0J-243750D01*
G01*
G37*
%TD*%
%TO.C,R1*%
G36*
G01*
X86100000Y-122698750D02*
X86100000Y-123261250D01*
G75*
G02*
X85856250Y-123505000I-243750J0D01*
G01*
X85368750Y-123505000D01*
G75*
G02*
X85125000Y-123261250I0J243750D01*
G01*
X85125000Y-122698750D01*
G75*
G02*
X85368750Y-122455000I243750J0D01*
G01*
X85856250Y-122455000D01*
G75*
G02*
X86100000Y-122698750I0J-243750D01*
G01*
G37*
G36*
G01*
X87675000Y-122698750D02*
X87675000Y-123261250D01*
G75*
G02*
X87431250Y-123505000I-243750J0D01*
G01*
X86943750Y-123505000D01*
G75*
G02*
X86700000Y-123261250I0J243750D01*
G01*
X86700000Y-122698750D01*
G75*
G02*
X86943750Y-122455000I243750J0D01*
G01*
X87431250Y-122455000D01*
G75*
G02*
X87675000Y-122698750I0J-243750D01*
G01*
G37*
%TD*%
%TO.C,R4*%
G36*
G01*
X87675000Y-121178750D02*
X87675000Y-121741250D01*
G75*
G02*
X87431250Y-121985000I-243750J0D01*
G01*
X86943750Y-121985000D01*
G75*
G02*
X86700000Y-121741250I0J243750D01*
G01*
X86700000Y-121178750D01*
G75*
G02*
X86943750Y-120935000I243750J0D01*
G01*
X87431250Y-120935000D01*
G75*
G02*
X87675000Y-121178750I0J-243750D01*
G01*
G37*
G36*
G01*
X86100000Y-121178750D02*
X86100000Y-121741250D01*
G75*
G02*
X85856250Y-121985000I-243750J0D01*
G01*
X85368750Y-121985000D01*
G75*
G02*
X85125000Y-121741250I0J243750D01*
G01*
X85125000Y-121178750D01*
G75*
G02*
X85368750Y-120935000I243750J0D01*
G01*
X85856250Y-120935000D01*
G75*
G02*
X86100000Y-121178750I0J-243750D01*
G01*
G37*
%TD*%
%TO.C,R14*%
G36*
G01*
X85125000Y-124781250D02*
X85125000Y-124218750D01*
G75*
G02*
X85368750Y-123975000I243750J0D01*
G01*
X85856250Y-123975000D01*
G75*
G02*
X86100000Y-124218750I0J-243750D01*
G01*
X86100000Y-124781250D01*
G75*
G02*
X85856250Y-125025000I-243750J0D01*
G01*
X85368750Y-125025000D01*
G75*
G02*
X85125000Y-124781250I0J243750D01*
G01*
G37*
G36*
G01*
X86700000Y-124781250D02*
X86700000Y-124218750D01*
G75*
G02*
X86943750Y-123975000I243750J0D01*
G01*
X87431250Y-123975000D01*
G75*
G02*
X87675000Y-124218750I0J-243750D01*
G01*
X87675000Y-124781250D01*
G75*
G02*
X87431250Y-125025000I-243750J0D01*
G01*
X86943750Y-125025000D01*
G75*
G02*
X86700000Y-124781250I0J243750D01*
G01*
G37*
%TD*%
%TO.C,R10*%
G36*
G01*
X81285000Y-125368750D02*
X81285000Y-125931250D01*
G75*
G02*
X81041250Y-126175000I-243750J0D01*
G01*
X80553750Y-126175000D01*
G75*
G02*
X80310000Y-125931250I0J243750D01*
G01*
X80310000Y-125368750D01*
G75*
G02*
X80553750Y-125125000I243750J0D01*
G01*
X81041250Y-125125000D01*
G75*
G02*
X81285000Y-125368750I0J-243750D01*
G01*
G37*
G36*
G01*
X79710000Y-125368750D02*
X79710000Y-125931250D01*
G75*
G02*
X79466250Y-126175000I-243750J0D01*
G01*
X78978750Y-126175000D01*
G75*
G02*
X78735000Y-125931250I0J243750D01*
G01*
X78735000Y-125368750D01*
G75*
G02*
X78978750Y-125125000I243750J0D01*
G01*
X79466250Y-125125000D01*
G75*
G02*
X79710000Y-125368750I0J-243750D01*
G01*
G37*
%TD*%
%TO.C,R11*%
G36*
G01*
X85125000Y-120221250D02*
X85125000Y-119658750D01*
G75*
G02*
X85368750Y-119415000I243750J0D01*
G01*
X85856250Y-119415000D01*
G75*
G02*
X86100000Y-119658750I0J-243750D01*
G01*
X86100000Y-120221250D01*
G75*
G02*
X85856250Y-120465000I-243750J0D01*
G01*
X85368750Y-120465000D01*
G75*
G02*
X85125000Y-120221250I0J243750D01*
G01*
G37*
G36*
G01*
X86700000Y-120221250D02*
X86700000Y-119658750D01*
G75*
G02*
X86943750Y-119415000I243750J0D01*
G01*
X87431250Y-119415000D01*
G75*
G02*
X87675000Y-119658750I0J-243750D01*
G01*
X87675000Y-120221250D01*
G75*
G02*
X87431250Y-120465000I-243750J0D01*
G01*
X86943750Y-120465000D01*
G75*
G02*
X86700000Y-120221250I0J243750D01*
G01*
G37*
%TD*%
%TO.C,R15*%
G36*
G01*
X72070000Y-127211250D02*
X72070000Y-126648750D01*
G75*
G02*
X72313750Y-126405000I243750J0D01*
G01*
X72801250Y-126405000D01*
G75*
G02*
X73045000Y-126648750I0J-243750D01*
G01*
X73045000Y-127211250D01*
G75*
G02*
X72801250Y-127455000I-243750J0D01*
G01*
X72313750Y-127455000D01*
G75*
G02*
X72070000Y-127211250I0J243750D01*
G01*
G37*
G36*
G01*
X70495000Y-127211250D02*
X70495000Y-126648750D01*
G75*
G02*
X70738750Y-126405000I243750J0D01*
G01*
X71226250Y-126405000D01*
G75*
G02*
X71470000Y-126648750I0J-243750D01*
G01*
X71470000Y-127211250D01*
G75*
G02*
X71226250Y-127455000I-243750J0D01*
G01*
X70738750Y-127455000D01*
G75*
G02*
X70495000Y-127211250I0J243750D01*
G01*
G37*
%TD*%
%TO.C,R16*%
G36*
G01*
X73485000Y-125701250D02*
X73485000Y-125138750D01*
G75*
G02*
X73728750Y-124895000I243750J0D01*
G01*
X74216250Y-124895000D01*
G75*
G02*
X74460000Y-125138750I0J-243750D01*
G01*
X74460000Y-125701250D01*
G75*
G02*
X74216250Y-125945000I-243750J0D01*
G01*
X73728750Y-125945000D01*
G75*
G02*
X73485000Y-125701250I0J243750D01*
G01*
G37*
G36*
G01*
X75060000Y-125701250D02*
X75060000Y-125138750D01*
G75*
G02*
X75303750Y-124895000I243750J0D01*
G01*
X75791250Y-124895000D01*
G75*
G02*
X76035000Y-125138750I0J-243750D01*
G01*
X76035000Y-125701250D01*
G75*
G02*
X75791250Y-125945000I-243750J0D01*
G01*
X75303750Y-125945000D01*
G75*
G02*
X75060000Y-125701250I0J243750D01*
G01*
G37*
%TD*%
%TO.C,R2*%
G36*
G01*
X97525000Y-120548750D02*
X97525000Y-121111250D01*
G75*
G02*
X97281250Y-121355000I-243750J0D01*
G01*
X96793750Y-121355000D01*
G75*
G02*
X96550000Y-121111250I0J243750D01*
G01*
X96550000Y-120548750D01*
G75*
G02*
X96793750Y-120305000I243750J0D01*
G01*
X97281250Y-120305000D01*
G75*
G02*
X97525000Y-120548750I0J-243750D01*
G01*
G37*
G36*
G01*
X95950000Y-120548750D02*
X95950000Y-121111250D01*
G75*
G02*
X95706250Y-121355000I-243750J0D01*
G01*
X95218750Y-121355000D01*
G75*
G02*
X94975000Y-121111250I0J243750D01*
G01*
X94975000Y-120548750D01*
G75*
G02*
X95218750Y-120305000I243750J0D01*
G01*
X95706250Y-120305000D01*
G75*
G02*
X95950000Y-120548750I0J-243750D01*
G01*
G37*
%TD*%
%TO.C,R5*%
G36*
G01*
X98940000Y-120948750D02*
X98940000Y-121511250D01*
G75*
G02*
X98696250Y-121755000I-243750J0D01*
G01*
X98208750Y-121755000D01*
G75*
G02*
X97965000Y-121511250I0J243750D01*
G01*
X97965000Y-120948750D01*
G75*
G02*
X98208750Y-120705000I243750J0D01*
G01*
X98696250Y-120705000D01*
G75*
G02*
X98940000Y-120948750I0J-243750D01*
G01*
G37*
G36*
G01*
X100515000Y-120948750D02*
X100515000Y-121511250D01*
G75*
G02*
X100271250Y-121755000I-243750J0D01*
G01*
X99783750Y-121755000D01*
G75*
G02*
X99540000Y-121511250I0J243750D01*
G01*
X99540000Y-120948750D01*
G75*
G02*
X99783750Y-120705000I243750J0D01*
G01*
X100271250Y-120705000D01*
G75*
G02*
X100515000Y-120948750I0J-243750D01*
G01*
G37*
%TD*%
%TO.C,R12*%
G36*
G01*
X104505000Y-120291250D02*
X104505000Y-119728750D01*
G75*
G02*
X104748750Y-119485000I243750J0D01*
G01*
X105236250Y-119485000D01*
G75*
G02*
X105480000Y-119728750I0J-243750D01*
G01*
X105480000Y-120291250D01*
G75*
G02*
X105236250Y-120535000I-243750J0D01*
G01*
X104748750Y-120535000D01*
G75*
G02*
X104505000Y-120291250I0J243750D01*
G01*
G37*
G36*
G01*
X106080000Y-120291250D02*
X106080000Y-119728750D01*
G75*
G02*
X106323750Y-119485000I243750J0D01*
G01*
X106811250Y-119485000D01*
G75*
G02*
X107055000Y-119728750I0J-243750D01*
G01*
X107055000Y-120291250D01*
G75*
G02*
X106811250Y-120535000I-243750J0D01*
G01*
X106323750Y-120535000D01*
G75*
G02*
X106080000Y-120291250I0J243750D01*
G01*
G37*
%TD*%
%TO.C,R13*%
G36*
G01*
X105435000Y-123778750D02*
X105435000Y-124341250D01*
G75*
G02*
X105191250Y-124585000I-243750J0D01*
G01*
X104703750Y-124585000D01*
G75*
G02*
X104460000Y-124341250I0J243750D01*
G01*
X104460000Y-123778750D01*
G75*
G02*
X104703750Y-123535000I243750J0D01*
G01*
X105191250Y-123535000D01*
G75*
G02*
X105435000Y-123778750I0J-243750D01*
G01*
G37*
G36*
G01*
X103860000Y-123778750D02*
X103860000Y-124341250D01*
G75*
G02*
X103616250Y-124585000I-243750J0D01*
G01*
X103128750Y-124585000D01*
G75*
G02*
X102885000Y-124341250I0J243750D01*
G01*
X102885000Y-123778750D01*
G75*
G02*
X103128750Y-123535000I243750J0D01*
G01*
X103616250Y-123535000D01*
G75*
G02*
X103860000Y-123778750I0J-243750D01*
G01*
G37*
%TD*%
%TO.C,R9*%
G36*
G01*
X87675000Y-118138750D02*
X87675000Y-118701250D01*
G75*
G02*
X87431250Y-118945000I-243750J0D01*
G01*
X86943750Y-118945000D01*
G75*
G02*
X86700000Y-118701250I0J243750D01*
G01*
X86700000Y-118138750D01*
G75*
G02*
X86943750Y-117895000I243750J0D01*
G01*
X87431250Y-117895000D01*
G75*
G02*
X87675000Y-118138750I0J-243750D01*
G01*
G37*
G36*
G01*
X86100000Y-118138750D02*
X86100000Y-118701250D01*
G75*
G02*
X85856250Y-118945000I-243750J0D01*
G01*
X85368750Y-118945000D01*
G75*
G02*
X85125000Y-118701250I0J243750D01*
G01*
X85125000Y-118138750D01*
G75*
G02*
X85368750Y-117895000I243750J0D01*
G01*
X85856250Y-117895000D01*
G75*
G02*
X86100000Y-118138750I0J-243750D01*
G01*
G37*
%TD*%
%TO.C,C10*%
G36*
G01*
X87675000Y-116468750D02*
X87675000Y-117031250D01*
G75*
G02*
X87431250Y-117275000I-243750J0D01*
G01*
X86943750Y-117275000D01*
G75*
G02*
X86700000Y-117031250I0J243750D01*
G01*
X86700000Y-116468750D01*
G75*
G02*
X86943750Y-116225000I243750J0D01*
G01*
X87431250Y-116225000D01*
G75*
G02*
X87675000Y-116468750I0J-243750D01*
G01*
G37*
G36*
G01*
X86100000Y-116468750D02*
X86100000Y-117031250D01*
G75*
G02*
X85856250Y-117275000I-243750J0D01*
G01*
X85368750Y-117275000D01*
G75*
G02*
X85125000Y-117031250I0J243750D01*
G01*
X85125000Y-116468750D01*
G75*
G02*
X85368750Y-116225000I243750J0D01*
G01*
X85856250Y-116225000D01*
G75*
G02*
X86100000Y-116468750I0J-243750D01*
G01*
G37*
%TD*%
%TO.C,C9*%
G36*
G01*
X64685000Y-124851250D02*
X64685000Y-124288750D01*
G75*
G02*
X64928750Y-124045000I243750J0D01*
G01*
X65416250Y-124045000D01*
G75*
G02*
X65660000Y-124288750I0J-243750D01*
G01*
X65660000Y-124851250D01*
G75*
G02*
X65416250Y-125095000I-243750J0D01*
G01*
X64928750Y-125095000D01*
G75*
G02*
X64685000Y-124851250I0J243750D01*
G01*
G37*
G36*
G01*
X66260000Y-124851250D02*
X66260000Y-124288750D01*
G75*
G02*
X66503750Y-124045000I243750J0D01*
G01*
X66991250Y-124045000D01*
G75*
G02*
X67235000Y-124288750I0J-243750D01*
G01*
X67235000Y-124851250D01*
G75*
G02*
X66991250Y-125095000I-243750J0D01*
G01*
X66503750Y-125095000D01*
G75*
G02*
X66260000Y-124851250I0J243750D01*
G01*
G37*
%TD*%
M02*
