%TF.GenerationSoftware,KiCad,Pcbnew,(5.1.6-0-10_14)*%
%TF.CreationDate,2021-04-21T18:18:53-05:00*%
%TF.ProjectId,MBRadio_4732_BO3,4d425261-6469-46f5-9f34-3733325f424f,rev?*%
%TF.SameCoordinates,Original*%
%TF.FileFunction,Paste,Top*%
%TF.FilePolarity,Positive*%
%FSLAX46Y46*%
G04 Gerber Fmt 4.6, Leading zero omitted, Abs format (unit mm)*
G04 Created by KiCad (PCBNEW (5.1.6-0-10_14)) date 2021-04-21 18:18:53*
%MOMM*%
%LPD*%
G01*
G04 APERTURE LIST*
%ADD10R,1.346200X0.553200*%
%ADD11R,0.553200X1.193800*%
%ADD12R,0.553200X1.346200*%
%ADD13R,1.193800X0.553200*%
%ADD14R,0.800000X0.900000*%
%ADD15R,2.700000X2.900000*%
%ADD16R,2.700000X2.100000*%
%ADD17R,5.080000X2.290000*%
%ADD18R,5.080000X2.420000*%
%ADD19R,1.200000X0.400000*%
%ADD20R,1.100000X1.300000*%
%ADD21R,1.000000X1.000000*%
%ADD22R,2.570000X1.000000*%
%ADD23R,3.800000X1.000000*%
%ADD24R,3.470000X1.000000*%
%ADD25R,1.000000X2.570000*%
%ADD26R,1.000000X3.800000*%
%ADD27R,1.000000X3.470000*%
%ADD28R,2.900000X2.700000*%
%ADD29R,2.100000X2.700000*%
G04 APERTURE END LIST*
%TO.C,R8*%
G36*
G01*
X97365000Y-118926250D02*
X97365000Y-118413750D01*
G75*
G02*
X97583750Y-118195000I218750J0D01*
G01*
X98021250Y-118195000D01*
G75*
G02*
X98240000Y-118413750I0J-218750D01*
G01*
X98240000Y-118926250D01*
G75*
G02*
X98021250Y-119145000I-218750J0D01*
G01*
X97583750Y-119145000D01*
G75*
G02*
X97365000Y-118926250I0J218750D01*
G01*
G37*
G36*
G01*
X98940000Y-118926250D02*
X98940000Y-118413750D01*
G75*
G02*
X99158750Y-118195000I218750J0D01*
G01*
X99596250Y-118195000D01*
G75*
G02*
X99815000Y-118413750I0J-218750D01*
G01*
X99815000Y-118926250D01*
G75*
G02*
X99596250Y-119145000I-218750J0D01*
G01*
X99158750Y-119145000D01*
G75*
G02*
X98940000Y-118926250I0J218750D01*
G01*
G37*
%TD*%
D10*
%TO.C,C4*%
X91950000Y-112881700D03*
X91950000Y-115238300D03*
D11*
X92696500Y-114060000D03*
X91203500Y-114060000D03*
%TD*%
D12*
%TO.C,C3*%
X101678300Y-132940000D03*
X99321700Y-132940000D03*
D13*
X100500000Y-133686500D03*
X100500000Y-132193500D03*
%TD*%
%TO.C,C13*%
G36*
G01*
X96816250Y-127030000D02*
X96303750Y-127030000D01*
G75*
G02*
X96085000Y-126811250I0J218750D01*
G01*
X96085000Y-126373750D01*
G75*
G02*
X96303750Y-126155000I218750J0D01*
G01*
X96816250Y-126155000D01*
G75*
G02*
X97035000Y-126373750I0J-218750D01*
G01*
X97035000Y-126811250D01*
G75*
G02*
X96816250Y-127030000I-218750J0D01*
G01*
G37*
G36*
G01*
X96816250Y-128605000D02*
X96303750Y-128605000D01*
G75*
G02*
X96085000Y-128386250I0J218750D01*
G01*
X96085000Y-127948750D01*
G75*
G02*
X96303750Y-127730000I218750J0D01*
G01*
X96816250Y-127730000D01*
G75*
G02*
X97035000Y-127948750I0J-218750D01*
G01*
X97035000Y-128386250D01*
G75*
G02*
X96816250Y-128605000I-218750J0D01*
G01*
G37*
%TD*%
%TO.C,U5*%
G36*
G01*
X97790000Y-126745000D02*
X97790000Y-126445000D01*
G75*
G02*
X97940000Y-126295000I150000J0D01*
G01*
X99590000Y-126295000D01*
G75*
G02*
X99740000Y-126445000I0J-150000D01*
G01*
X99740000Y-126745000D01*
G75*
G02*
X99590000Y-126895000I-150000J0D01*
G01*
X97940000Y-126895000D01*
G75*
G02*
X97790000Y-126745000I0J150000D01*
G01*
G37*
G36*
G01*
X97790000Y-128015000D02*
X97790000Y-127715000D01*
G75*
G02*
X97940000Y-127565000I150000J0D01*
G01*
X99590000Y-127565000D01*
G75*
G02*
X99740000Y-127715000I0J-150000D01*
G01*
X99740000Y-128015000D01*
G75*
G02*
X99590000Y-128165000I-150000J0D01*
G01*
X97940000Y-128165000D01*
G75*
G02*
X97790000Y-128015000I0J150000D01*
G01*
G37*
G36*
G01*
X97790000Y-129285000D02*
X97790000Y-128985000D01*
G75*
G02*
X97940000Y-128835000I150000J0D01*
G01*
X99590000Y-128835000D01*
G75*
G02*
X99740000Y-128985000I0J-150000D01*
G01*
X99740000Y-129285000D01*
G75*
G02*
X99590000Y-129435000I-150000J0D01*
G01*
X97940000Y-129435000D01*
G75*
G02*
X97790000Y-129285000I0J150000D01*
G01*
G37*
G36*
G01*
X97790000Y-130555000D02*
X97790000Y-130255000D01*
G75*
G02*
X97940000Y-130105000I150000J0D01*
G01*
X99590000Y-130105000D01*
G75*
G02*
X99740000Y-130255000I0J-150000D01*
G01*
X99740000Y-130555000D01*
G75*
G02*
X99590000Y-130705000I-150000J0D01*
G01*
X97940000Y-130705000D01*
G75*
G02*
X97790000Y-130555000I0J150000D01*
G01*
G37*
G36*
G01*
X102740000Y-130555000D02*
X102740000Y-130255000D01*
G75*
G02*
X102890000Y-130105000I150000J0D01*
G01*
X104540000Y-130105000D01*
G75*
G02*
X104690000Y-130255000I0J-150000D01*
G01*
X104690000Y-130555000D01*
G75*
G02*
X104540000Y-130705000I-150000J0D01*
G01*
X102890000Y-130705000D01*
G75*
G02*
X102740000Y-130555000I0J150000D01*
G01*
G37*
G36*
G01*
X102740000Y-129285000D02*
X102740000Y-128985000D01*
G75*
G02*
X102890000Y-128835000I150000J0D01*
G01*
X104540000Y-128835000D01*
G75*
G02*
X104690000Y-128985000I0J-150000D01*
G01*
X104690000Y-129285000D01*
G75*
G02*
X104540000Y-129435000I-150000J0D01*
G01*
X102890000Y-129435000D01*
G75*
G02*
X102740000Y-129285000I0J150000D01*
G01*
G37*
G36*
G01*
X102740000Y-128015000D02*
X102740000Y-127715000D01*
G75*
G02*
X102890000Y-127565000I150000J0D01*
G01*
X104540000Y-127565000D01*
G75*
G02*
X104690000Y-127715000I0J-150000D01*
G01*
X104690000Y-128015000D01*
G75*
G02*
X104540000Y-128165000I-150000J0D01*
G01*
X102890000Y-128165000D01*
G75*
G02*
X102740000Y-128015000I0J150000D01*
G01*
G37*
G36*
G01*
X102740000Y-126745000D02*
X102740000Y-126445000D01*
G75*
G02*
X102890000Y-126295000I150000J0D01*
G01*
X104540000Y-126295000D01*
G75*
G02*
X104690000Y-126445000I0J-150000D01*
G01*
X104690000Y-126745000D01*
G75*
G02*
X104540000Y-126895000I-150000J0D01*
G01*
X102890000Y-126895000D01*
G75*
G02*
X102740000Y-126745000I0J150000D01*
G01*
G37*
%TD*%
%TO.C,C6*%
G36*
G01*
X64580000Y-112942500D02*
X64580000Y-112597500D01*
G75*
G02*
X64727500Y-112450000I147500J0D01*
G01*
X65022500Y-112450000D01*
G75*
G02*
X65170000Y-112597500I0J-147500D01*
G01*
X65170000Y-112942500D01*
G75*
G02*
X65022500Y-113090000I-147500J0D01*
G01*
X64727500Y-113090000D01*
G75*
G02*
X64580000Y-112942500I0J147500D01*
G01*
G37*
G36*
G01*
X65550000Y-112942500D02*
X65550000Y-112597500D01*
G75*
G02*
X65697500Y-112450000I147500J0D01*
G01*
X65992500Y-112450000D01*
G75*
G02*
X66140000Y-112597500I0J-147500D01*
G01*
X66140000Y-112942500D01*
G75*
G02*
X65992500Y-113090000I-147500J0D01*
G01*
X65697500Y-113090000D01*
G75*
G02*
X65550000Y-112942500I0J147500D01*
G01*
G37*
%TD*%
%TO.C,C14*%
G36*
G01*
X103340000Y-122842500D02*
X103340000Y-122497500D01*
G75*
G02*
X103487500Y-122350000I147500J0D01*
G01*
X103782500Y-122350000D01*
G75*
G02*
X103930000Y-122497500I0J-147500D01*
G01*
X103930000Y-122842500D01*
G75*
G02*
X103782500Y-122990000I-147500J0D01*
G01*
X103487500Y-122990000D01*
G75*
G02*
X103340000Y-122842500I0J147500D01*
G01*
G37*
G36*
G01*
X104310000Y-122842500D02*
X104310000Y-122497500D01*
G75*
G02*
X104457500Y-122350000I147500J0D01*
G01*
X104752500Y-122350000D01*
G75*
G02*
X104900000Y-122497500I0J-147500D01*
G01*
X104900000Y-122842500D01*
G75*
G02*
X104752500Y-122990000I-147500J0D01*
G01*
X104457500Y-122990000D01*
G75*
G02*
X104310000Y-122842500I0J147500D01*
G01*
G37*
%TD*%
D14*
%TO.C,D2*%
X68100000Y-110780000D03*
X70000000Y-110780000D03*
X69050000Y-108780000D03*
%TD*%
D15*
%TO.C,J3*%
X106350000Y-103300000D03*
X95650000Y-109800000D03*
D16*
X106350000Y-109650000D03*
%TD*%
%TO.C,L1*%
G36*
G01*
X67675000Y-112996250D02*
X67675000Y-112483750D01*
G75*
G02*
X67893750Y-112265000I218750J0D01*
G01*
X68331250Y-112265000D01*
G75*
G02*
X68550000Y-112483750I0J-218750D01*
G01*
X68550000Y-112996250D01*
G75*
G02*
X68331250Y-113215000I-218750J0D01*
G01*
X67893750Y-113215000D01*
G75*
G02*
X67675000Y-112996250I0J218750D01*
G01*
G37*
G36*
G01*
X69250000Y-112996250D02*
X69250000Y-112483750D01*
G75*
G02*
X69468750Y-112265000I218750J0D01*
G01*
X69906250Y-112265000D01*
G75*
G02*
X70125000Y-112483750I0J-218750D01*
G01*
X70125000Y-112996250D01*
G75*
G02*
X69906250Y-113215000I-218750J0D01*
G01*
X69468750Y-113215000D01*
G75*
G02*
X69250000Y-112996250I0J218750D01*
G01*
G37*
%TD*%
%TO.C,U1*%
G36*
G01*
X68020000Y-114695000D02*
X68020000Y-114395000D01*
G75*
G02*
X68170000Y-114245000I150000J0D01*
G01*
X69820000Y-114245000D01*
G75*
G02*
X69970000Y-114395000I0J-150000D01*
G01*
X69970000Y-114695000D01*
G75*
G02*
X69820000Y-114845000I-150000J0D01*
G01*
X68170000Y-114845000D01*
G75*
G02*
X68020000Y-114695000I0J150000D01*
G01*
G37*
G36*
G01*
X68020000Y-115965000D02*
X68020000Y-115665000D01*
G75*
G02*
X68170000Y-115515000I150000J0D01*
G01*
X69820000Y-115515000D01*
G75*
G02*
X69970000Y-115665000I0J-150000D01*
G01*
X69970000Y-115965000D01*
G75*
G02*
X69820000Y-116115000I-150000J0D01*
G01*
X68170000Y-116115000D01*
G75*
G02*
X68020000Y-115965000I0J150000D01*
G01*
G37*
G36*
G01*
X68020000Y-117235000D02*
X68020000Y-116935000D01*
G75*
G02*
X68170000Y-116785000I150000J0D01*
G01*
X69820000Y-116785000D01*
G75*
G02*
X69970000Y-116935000I0J-150000D01*
G01*
X69970000Y-117235000D01*
G75*
G02*
X69820000Y-117385000I-150000J0D01*
G01*
X68170000Y-117385000D01*
G75*
G02*
X68020000Y-117235000I0J150000D01*
G01*
G37*
G36*
G01*
X68020000Y-118505000D02*
X68020000Y-118205000D01*
G75*
G02*
X68170000Y-118055000I150000J0D01*
G01*
X69820000Y-118055000D01*
G75*
G02*
X69970000Y-118205000I0J-150000D01*
G01*
X69970000Y-118505000D01*
G75*
G02*
X69820000Y-118655000I-150000J0D01*
G01*
X68170000Y-118655000D01*
G75*
G02*
X68020000Y-118505000I0J150000D01*
G01*
G37*
G36*
G01*
X68020000Y-119775000D02*
X68020000Y-119475000D01*
G75*
G02*
X68170000Y-119325000I150000J0D01*
G01*
X69820000Y-119325000D01*
G75*
G02*
X69970000Y-119475000I0J-150000D01*
G01*
X69970000Y-119775000D01*
G75*
G02*
X69820000Y-119925000I-150000J0D01*
G01*
X68170000Y-119925000D01*
G75*
G02*
X68020000Y-119775000I0J150000D01*
G01*
G37*
G36*
G01*
X68020000Y-121045000D02*
X68020000Y-120745000D01*
G75*
G02*
X68170000Y-120595000I150000J0D01*
G01*
X69820000Y-120595000D01*
G75*
G02*
X69970000Y-120745000I0J-150000D01*
G01*
X69970000Y-121045000D01*
G75*
G02*
X69820000Y-121195000I-150000J0D01*
G01*
X68170000Y-121195000D01*
G75*
G02*
X68020000Y-121045000I0J150000D01*
G01*
G37*
G36*
G01*
X68020000Y-122315000D02*
X68020000Y-122015000D01*
G75*
G02*
X68170000Y-121865000I150000J0D01*
G01*
X69820000Y-121865000D01*
G75*
G02*
X69970000Y-122015000I0J-150000D01*
G01*
X69970000Y-122315000D01*
G75*
G02*
X69820000Y-122465000I-150000J0D01*
G01*
X68170000Y-122465000D01*
G75*
G02*
X68020000Y-122315000I0J150000D01*
G01*
G37*
G36*
G01*
X68020000Y-123585000D02*
X68020000Y-123285000D01*
G75*
G02*
X68170000Y-123135000I150000J0D01*
G01*
X69820000Y-123135000D01*
G75*
G02*
X69970000Y-123285000I0J-150000D01*
G01*
X69970000Y-123585000D01*
G75*
G02*
X69820000Y-123735000I-150000J0D01*
G01*
X68170000Y-123735000D01*
G75*
G02*
X68020000Y-123585000I0J150000D01*
G01*
G37*
G36*
G01*
X72970000Y-123585000D02*
X72970000Y-123285000D01*
G75*
G02*
X73120000Y-123135000I150000J0D01*
G01*
X74770000Y-123135000D01*
G75*
G02*
X74920000Y-123285000I0J-150000D01*
G01*
X74920000Y-123585000D01*
G75*
G02*
X74770000Y-123735000I-150000J0D01*
G01*
X73120000Y-123735000D01*
G75*
G02*
X72970000Y-123585000I0J150000D01*
G01*
G37*
G36*
G01*
X72970000Y-122315000D02*
X72970000Y-122015000D01*
G75*
G02*
X73120000Y-121865000I150000J0D01*
G01*
X74770000Y-121865000D01*
G75*
G02*
X74920000Y-122015000I0J-150000D01*
G01*
X74920000Y-122315000D01*
G75*
G02*
X74770000Y-122465000I-150000J0D01*
G01*
X73120000Y-122465000D01*
G75*
G02*
X72970000Y-122315000I0J150000D01*
G01*
G37*
G36*
G01*
X72970000Y-121045000D02*
X72970000Y-120745000D01*
G75*
G02*
X73120000Y-120595000I150000J0D01*
G01*
X74770000Y-120595000D01*
G75*
G02*
X74920000Y-120745000I0J-150000D01*
G01*
X74920000Y-121045000D01*
G75*
G02*
X74770000Y-121195000I-150000J0D01*
G01*
X73120000Y-121195000D01*
G75*
G02*
X72970000Y-121045000I0J150000D01*
G01*
G37*
G36*
G01*
X72970000Y-119775000D02*
X72970000Y-119475000D01*
G75*
G02*
X73120000Y-119325000I150000J0D01*
G01*
X74770000Y-119325000D01*
G75*
G02*
X74920000Y-119475000I0J-150000D01*
G01*
X74920000Y-119775000D01*
G75*
G02*
X74770000Y-119925000I-150000J0D01*
G01*
X73120000Y-119925000D01*
G75*
G02*
X72970000Y-119775000I0J150000D01*
G01*
G37*
G36*
G01*
X72970000Y-118505000D02*
X72970000Y-118205000D01*
G75*
G02*
X73120000Y-118055000I150000J0D01*
G01*
X74770000Y-118055000D01*
G75*
G02*
X74920000Y-118205000I0J-150000D01*
G01*
X74920000Y-118505000D01*
G75*
G02*
X74770000Y-118655000I-150000J0D01*
G01*
X73120000Y-118655000D01*
G75*
G02*
X72970000Y-118505000I0J150000D01*
G01*
G37*
G36*
G01*
X72970000Y-117235000D02*
X72970000Y-116935000D01*
G75*
G02*
X73120000Y-116785000I150000J0D01*
G01*
X74770000Y-116785000D01*
G75*
G02*
X74920000Y-116935000I0J-150000D01*
G01*
X74920000Y-117235000D01*
G75*
G02*
X74770000Y-117385000I-150000J0D01*
G01*
X73120000Y-117385000D01*
G75*
G02*
X72970000Y-117235000I0J150000D01*
G01*
G37*
G36*
G01*
X72970000Y-115965000D02*
X72970000Y-115665000D01*
G75*
G02*
X73120000Y-115515000I150000J0D01*
G01*
X74770000Y-115515000D01*
G75*
G02*
X74920000Y-115665000I0J-150000D01*
G01*
X74920000Y-115965000D01*
G75*
G02*
X74770000Y-116115000I-150000J0D01*
G01*
X73120000Y-116115000D01*
G75*
G02*
X72970000Y-115965000I0J150000D01*
G01*
G37*
G36*
G01*
X72970000Y-114695000D02*
X72970000Y-114395000D01*
G75*
G02*
X73120000Y-114245000I150000J0D01*
G01*
X74770000Y-114245000D01*
G75*
G02*
X74920000Y-114395000I0J-150000D01*
G01*
X74920000Y-114695000D01*
G75*
G02*
X74770000Y-114845000I-150000J0D01*
G01*
X73120000Y-114845000D01*
G75*
G02*
X72970000Y-114695000I0J150000D01*
G01*
G37*
%TD*%
D17*
%TO.C,J5*%
X53030000Y-112750000D03*
D18*
X53030000Y-108370000D03*
X53030000Y-117130000D03*
%TD*%
D14*
%TO.C,Q1*%
X97910000Y-117200000D03*
X99810000Y-117200000D03*
X98860000Y-115200000D03*
%TD*%
%TO.C,Q2*%
X103020000Y-115210000D03*
X103970000Y-117210000D03*
X102070000Y-117210000D03*
%TD*%
%TO.C,C5*%
G36*
G01*
X84317500Y-111620000D02*
X84662500Y-111620000D01*
G75*
G02*
X84810000Y-111767500I0J-147500D01*
G01*
X84810000Y-112062500D01*
G75*
G02*
X84662500Y-112210000I-147500J0D01*
G01*
X84317500Y-112210000D01*
G75*
G02*
X84170000Y-112062500I0J147500D01*
G01*
X84170000Y-111767500D01*
G75*
G02*
X84317500Y-111620000I147500J0D01*
G01*
G37*
G36*
G01*
X84317500Y-112590000D02*
X84662500Y-112590000D01*
G75*
G02*
X84810000Y-112737500I0J-147500D01*
G01*
X84810000Y-113032500D01*
G75*
G02*
X84662500Y-113180000I-147500J0D01*
G01*
X84317500Y-113180000D01*
G75*
G02*
X84170000Y-113032500I0J147500D01*
G01*
X84170000Y-112737500D01*
G75*
G02*
X84317500Y-112590000I147500J0D01*
G01*
G37*
%TD*%
%TO.C,C7*%
G36*
G01*
X85823750Y-112450000D02*
X86336250Y-112450000D01*
G75*
G02*
X86555000Y-112668750I0J-218750D01*
G01*
X86555000Y-113106250D01*
G75*
G02*
X86336250Y-113325000I-218750J0D01*
G01*
X85823750Y-113325000D01*
G75*
G02*
X85605000Y-113106250I0J218750D01*
G01*
X85605000Y-112668750D01*
G75*
G02*
X85823750Y-112450000I218750J0D01*
G01*
G37*
G36*
G01*
X85823750Y-110875000D02*
X86336250Y-110875000D01*
G75*
G02*
X86555000Y-111093750I0J-218750D01*
G01*
X86555000Y-111531250D01*
G75*
G02*
X86336250Y-111750000I-218750J0D01*
G01*
X85823750Y-111750000D01*
G75*
G02*
X85605000Y-111531250I0J218750D01*
G01*
X85605000Y-111093750D01*
G75*
G02*
X85823750Y-110875000I218750J0D01*
G01*
G37*
%TD*%
%TO.C,C8*%
G36*
G01*
X87653750Y-110875000D02*
X88166250Y-110875000D01*
G75*
G02*
X88385000Y-111093750I0J-218750D01*
G01*
X88385000Y-111531250D01*
G75*
G02*
X88166250Y-111750000I-218750J0D01*
G01*
X87653750Y-111750000D01*
G75*
G02*
X87435000Y-111531250I0J218750D01*
G01*
X87435000Y-111093750D01*
G75*
G02*
X87653750Y-110875000I218750J0D01*
G01*
G37*
G36*
G01*
X87653750Y-112450000D02*
X88166250Y-112450000D01*
G75*
G02*
X88385000Y-112668750I0J-218750D01*
G01*
X88385000Y-113106250D01*
G75*
G02*
X88166250Y-113325000I-218750J0D01*
G01*
X87653750Y-113325000D01*
G75*
G02*
X87435000Y-113106250I0J218750D01*
G01*
X87435000Y-112668750D01*
G75*
G02*
X87653750Y-112450000I218750J0D01*
G01*
G37*
%TD*%
D19*
%TO.C,U2*%
X78570000Y-115457500D03*
X78570000Y-116092500D03*
X78570000Y-116727500D03*
X78570000Y-117362500D03*
X78570000Y-117997500D03*
X78570000Y-118632500D03*
X78570000Y-119267500D03*
X78570000Y-119902500D03*
X78570000Y-120537500D03*
X78570000Y-121172500D03*
X78570000Y-121807500D03*
X78570000Y-122442500D03*
X83770000Y-122442500D03*
X83770000Y-121807500D03*
X83770000Y-121172500D03*
X83770000Y-120537500D03*
X83770000Y-119902500D03*
X83770000Y-119267500D03*
X83770000Y-118632500D03*
X83770000Y-117997500D03*
X83770000Y-117362500D03*
X83770000Y-116727500D03*
X83770000Y-116092500D03*
X83770000Y-115457500D03*
%TD*%
D20*
%TO.C,X1*%
X93815000Y-120750000D03*
X93815000Y-118650000D03*
X92165000Y-118650000D03*
X92165000Y-120750000D03*
%TD*%
D21*
%TO.C,SH1*%
X63585000Y-102715000D03*
X89595000Y-102715000D03*
X89595000Y-128725000D03*
X63585000Y-128725000D03*
D22*
X65370000Y-102715000D03*
X65370000Y-128725000D03*
D23*
X70755000Y-102715000D03*
X70755000Y-128725000D03*
D24*
X76590000Y-102715000D03*
X76590000Y-128725000D03*
D23*
X82425000Y-102715000D03*
X82425000Y-128725000D03*
D22*
X87810000Y-102715000D03*
X87810000Y-128725000D03*
D25*
X63585000Y-104500000D03*
X89595000Y-104500000D03*
D26*
X63585000Y-109885000D03*
X89595000Y-109885000D03*
D27*
X63585000Y-115720000D03*
X89595000Y-115720000D03*
D26*
X63585000Y-121555000D03*
X89595000Y-121555000D03*
D25*
X63585000Y-126940000D03*
X89595000Y-126940000D03*
%TD*%
%TO.C,C1*%
G36*
G01*
X92460000Y-122557500D02*
X92460000Y-122902500D01*
G75*
G02*
X92312500Y-123050000I-147500J0D01*
G01*
X92017500Y-123050000D01*
G75*
G02*
X91870000Y-122902500I0J147500D01*
G01*
X91870000Y-122557500D01*
G75*
G02*
X92017500Y-122410000I147500J0D01*
G01*
X92312500Y-122410000D01*
G75*
G02*
X92460000Y-122557500I0J-147500D01*
G01*
G37*
G36*
G01*
X93430000Y-122557500D02*
X93430000Y-122902500D01*
G75*
G02*
X93282500Y-123050000I-147500J0D01*
G01*
X92987500Y-123050000D01*
G75*
G02*
X92840000Y-122902500I0J147500D01*
G01*
X92840000Y-122557500D01*
G75*
G02*
X92987500Y-122410000I147500J0D01*
G01*
X93282500Y-122410000D01*
G75*
G02*
X93430000Y-122557500I0J-147500D01*
G01*
G37*
%TD*%
%TO.C,C2*%
G36*
G01*
X93430000Y-123577500D02*
X93430000Y-123922500D01*
G75*
G02*
X93282500Y-124070000I-147500J0D01*
G01*
X92987500Y-124070000D01*
G75*
G02*
X92840000Y-123922500I0J147500D01*
G01*
X92840000Y-123577500D01*
G75*
G02*
X92987500Y-123430000I147500J0D01*
G01*
X93282500Y-123430000D01*
G75*
G02*
X93430000Y-123577500I0J-147500D01*
G01*
G37*
G36*
G01*
X92460000Y-123577500D02*
X92460000Y-123922500D01*
G75*
G02*
X92312500Y-124070000I-147500J0D01*
G01*
X92017500Y-124070000D01*
G75*
G02*
X91870000Y-123922500I0J147500D01*
G01*
X91870000Y-123577500D01*
G75*
G02*
X92017500Y-123430000I147500J0D01*
G01*
X92312500Y-123430000D01*
G75*
G02*
X92460000Y-123577500I0J-147500D01*
G01*
G37*
%TD*%
%TO.C,C12*%
G36*
G01*
X101035000Y-121486250D02*
X101035000Y-120973750D01*
G75*
G02*
X101253750Y-120755000I218750J0D01*
G01*
X101691250Y-120755000D01*
G75*
G02*
X101910000Y-120973750I0J-218750D01*
G01*
X101910000Y-121486250D01*
G75*
G02*
X101691250Y-121705000I-218750J0D01*
G01*
X101253750Y-121705000D01*
G75*
G02*
X101035000Y-121486250I0J218750D01*
G01*
G37*
G36*
G01*
X102610000Y-121486250D02*
X102610000Y-120973750D01*
G75*
G02*
X102828750Y-120755000I218750J0D01*
G01*
X103266250Y-120755000D01*
G75*
G02*
X103485000Y-120973750I0J-218750D01*
G01*
X103485000Y-121486250D01*
G75*
G02*
X103266250Y-121705000I-218750J0D01*
G01*
X102828750Y-121705000D01*
G75*
G02*
X102610000Y-121486250I0J218750D01*
G01*
G37*
%TD*%
D28*
%TO.C,J4*%
X53150000Y-120650000D03*
X59650000Y-131350000D03*
D29*
X59500000Y-120650000D03*
%TD*%
%TO.C,D1*%
G36*
G01*
X98025000Y-137787500D02*
X98025000Y-138212500D01*
G75*
G02*
X97812500Y-138425000I-212500J0D01*
G01*
X97012500Y-138425000D01*
G75*
G02*
X96800000Y-138212500I0J212500D01*
G01*
X96800000Y-137787500D01*
G75*
G02*
X97012500Y-137575000I212500J0D01*
G01*
X97812500Y-137575000D01*
G75*
G02*
X98025000Y-137787500I0J-212500D01*
G01*
G37*
G36*
G01*
X96400000Y-137787500D02*
X96400000Y-138212500D01*
G75*
G02*
X96187500Y-138425000I-212500J0D01*
G01*
X95387500Y-138425000D01*
G75*
G02*
X95175000Y-138212500I0J212500D01*
G01*
X95175000Y-137787500D01*
G75*
G02*
X95387500Y-137575000I212500J0D01*
G01*
X96187500Y-137575000D01*
G75*
G02*
X96400000Y-137787500I0J-212500D01*
G01*
G37*
%TD*%
%TO.C,R6*%
G36*
G01*
X98775000Y-138256250D02*
X98775000Y-137743750D01*
G75*
G02*
X98993750Y-137525000I218750J0D01*
G01*
X99431250Y-137525000D01*
G75*
G02*
X99650000Y-137743750I0J-218750D01*
G01*
X99650000Y-138256250D01*
G75*
G02*
X99431250Y-138475000I-218750J0D01*
G01*
X98993750Y-138475000D01*
G75*
G02*
X98775000Y-138256250I0J218750D01*
G01*
G37*
G36*
G01*
X100350000Y-138256250D02*
X100350000Y-137743750D01*
G75*
G02*
X100568750Y-137525000I218750J0D01*
G01*
X101006250Y-137525000D01*
G75*
G02*
X101225000Y-137743750I0J-218750D01*
G01*
X101225000Y-138256250D01*
G75*
G02*
X101006250Y-138475000I-218750J0D01*
G01*
X100568750Y-138475000D01*
G75*
G02*
X100350000Y-138256250I0J218750D01*
G01*
G37*
%TD*%
%TO.C,C11*%
G36*
G01*
X84775000Y-107906250D02*
X84775000Y-107393750D01*
G75*
G02*
X84993750Y-107175000I218750J0D01*
G01*
X85431250Y-107175000D01*
G75*
G02*
X85650000Y-107393750I0J-218750D01*
G01*
X85650000Y-107906250D01*
G75*
G02*
X85431250Y-108125000I-218750J0D01*
G01*
X84993750Y-108125000D01*
G75*
G02*
X84775000Y-107906250I0J218750D01*
G01*
G37*
G36*
G01*
X86350000Y-107906250D02*
X86350000Y-107393750D01*
G75*
G02*
X86568750Y-107175000I218750J0D01*
G01*
X87006250Y-107175000D01*
G75*
G02*
X87225000Y-107393750I0J-218750D01*
G01*
X87225000Y-107906250D01*
G75*
G02*
X87006250Y-108125000I-218750J0D01*
G01*
X86568750Y-108125000D01*
G75*
G02*
X86350000Y-107906250I0J218750D01*
G01*
G37*
%TD*%
%TO.C,C15*%
G36*
G01*
X86350000Y-106356250D02*
X86350000Y-105843750D01*
G75*
G02*
X86568750Y-105625000I218750J0D01*
G01*
X87006250Y-105625000D01*
G75*
G02*
X87225000Y-105843750I0J-218750D01*
G01*
X87225000Y-106356250D01*
G75*
G02*
X87006250Y-106575000I-218750J0D01*
G01*
X86568750Y-106575000D01*
G75*
G02*
X86350000Y-106356250I0J218750D01*
G01*
G37*
G36*
G01*
X84775000Y-106356250D02*
X84775000Y-105843750D01*
G75*
G02*
X84993750Y-105625000I218750J0D01*
G01*
X85431250Y-105625000D01*
G75*
G02*
X85650000Y-105843750I0J-218750D01*
G01*
X85650000Y-106356250D01*
G75*
G02*
X85431250Y-106575000I-218750J0D01*
G01*
X84993750Y-106575000D01*
G75*
G02*
X84775000Y-106356250I0J218750D01*
G01*
G37*
%TD*%
%TO.C,R7*%
G36*
G01*
X102400000Y-118423750D02*
X102400000Y-118936250D01*
G75*
G02*
X102181250Y-119155000I-218750J0D01*
G01*
X101743750Y-119155000D01*
G75*
G02*
X101525000Y-118936250I0J218750D01*
G01*
X101525000Y-118423750D01*
G75*
G02*
X101743750Y-118205000I218750J0D01*
G01*
X102181250Y-118205000D01*
G75*
G02*
X102400000Y-118423750I0J-218750D01*
G01*
G37*
G36*
G01*
X103975000Y-118423750D02*
X103975000Y-118936250D01*
G75*
G02*
X103756250Y-119155000I-218750J0D01*
G01*
X103318750Y-119155000D01*
G75*
G02*
X103100000Y-118936250I0J218750D01*
G01*
X103100000Y-118423750D01*
G75*
G02*
X103318750Y-118205000I218750J0D01*
G01*
X103756250Y-118205000D01*
G75*
G02*
X103975000Y-118423750I0J-218750D01*
G01*
G37*
%TD*%
%TO.C,R3*%
G36*
G01*
X76085000Y-126673750D02*
X76085000Y-127186250D01*
G75*
G02*
X75866250Y-127405000I-218750J0D01*
G01*
X75428750Y-127405000D01*
G75*
G02*
X75210000Y-127186250I0J218750D01*
G01*
X75210000Y-126673750D01*
G75*
G02*
X75428750Y-126455000I218750J0D01*
G01*
X75866250Y-126455000D01*
G75*
G02*
X76085000Y-126673750I0J-218750D01*
G01*
G37*
G36*
G01*
X74510000Y-126673750D02*
X74510000Y-127186250D01*
G75*
G02*
X74291250Y-127405000I-218750J0D01*
G01*
X73853750Y-127405000D01*
G75*
G02*
X73635000Y-127186250I0J218750D01*
G01*
X73635000Y-126673750D01*
G75*
G02*
X73853750Y-126455000I218750J0D01*
G01*
X74291250Y-126455000D01*
G75*
G02*
X74510000Y-126673750I0J-218750D01*
G01*
G37*
%TD*%
%TO.C,R1*%
G36*
G01*
X86050000Y-122723750D02*
X86050000Y-123236250D01*
G75*
G02*
X85831250Y-123455000I-218750J0D01*
G01*
X85393750Y-123455000D01*
G75*
G02*
X85175000Y-123236250I0J218750D01*
G01*
X85175000Y-122723750D01*
G75*
G02*
X85393750Y-122505000I218750J0D01*
G01*
X85831250Y-122505000D01*
G75*
G02*
X86050000Y-122723750I0J-218750D01*
G01*
G37*
G36*
G01*
X87625000Y-122723750D02*
X87625000Y-123236250D01*
G75*
G02*
X87406250Y-123455000I-218750J0D01*
G01*
X86968750Y-123455000D01*
G75*
G02*
X86750000Y-123236250I0J218750D01*
G01*
X86750000Y-122723750D01*
G75*
G02*
X86968750Y-122505000I218750J0D01*
G01*
X87406250Y-122505000D01*
G75*
G02*
X87625000Y-122723750I0J-218750D01*
G01*
G37*
%TD*%
%TO.C,R4*%
G36*
G01*
X87625000Y-121203750D02*
X87625000Y-121716250D01*
G75*
G02*
X87406250Y-121935000I-218750J0D01*
G01*
X86968750Y-121935000D01*
G75*
G02*
X86750000Y-121716250I0J218750D01*
G01*
X86750000Y-121203750D01*
G75*
G02*
X86968750Y-120985000I218750J0D01*
G01*
X87406250Y-120985000D01*
G75*
G02*
X87625000Y-121203750I0J-218750D01*
G01*
G37*
G36*
G01*
X86050000Y-121203750D02*
X86050000Y-121716250D01*
G75*
G02*
X85831250Y-121935000I-218750J0D01*
G01*
X85393750Y-121935000D01*
G75*
G02*
X85175000Y-121716250I0J218750D01*
G01*
X85175000Y-121203750D01*
G75*
G02*
X85393750Y-120985000I218750J0D01*
G01*
X85831250Y-120985000D01*
G75*
G02*
X86050000Y-121203750I0J-218750D01*
G01*
G37*
%TD*%
%TO.C,R14*%
G36*
G01*
X85175000Y-124756250D02*
X85175000Y-124243750D01*
G75*
G02*
X85393750Y-124025000I218750J0D01*
G01*
X85831250Y-124025000D01*
G75*
G02*
X86050000Y-124243750I0J-218750D01*
G01*
X86050000Y-124756250D01*
G75*
G02*
X85831250Y-124975000I-218750J0D01*
G01*
X85393750Y-124975000D01*
G75*
G02*
X85175000Y-124756250I0J218750D01*
G01*
G37*
G36*
G01*
X86750000Y-124756250D02*
X86750000Y-124243750D01*
G75*
G02*
X86968750Y-124025000I218750J0D01*
G01*
X87406250Y-124025000D01*
G75*
G02*
X87625000Y-124243750I0J-218750D01*
G01*
X87625000Y-124756250D01*
G75*
G02*
X87406250Y-124975000I-218750J0D01*
G01*
X86968750Y-124975000D01*
G75*
G02*
X86750000Y-124756250I0J218750D01*
G01*
G37*
%TD*%
%TO.C,R10*%
G36*
G01*
X81235000Y-125393750D02*
X81235000Y-125906250D01*
G75*
G02*
X81016250Y-126125000I-218750J0D01*
G01*
X80578750Y-126125000D01*
G75*
G02*
X80360000Y-125906250I0J218750D01*
G01*
X80360000Y-125393750D01*
G75*
G02*
X80578750Y-125175000I218750J0D01*
G01*
X81016250Y-125175000D01*
G75*
G02*
X81235000Y-125393750I0J-218750D01*
G01*
G37*
G36*
G01*
X79660000Y-125393750D02*
X79660000Y-125906250D01*
G75*
G02*
X79441250Y-126125000I-218750J0D01*
G01*
X79003750Y-126125000D01*
G75*
G02*
X78785000Y-125906250I0J218750D01*
G01*
X78785000Y-125393750D01*
G75*
G02*
X79003750Y-125175000I218750J0D01*
G01*
X79441250Y-125175000D01*
G75*
G02*
X79660000Y-125393750I0J-218750D01*
G01*
G37*
%TD*%
%TO.C,R11*%
G36*
G01*
X85175000Y-120196250D02*
X85175000Y-119683750D01*
G75*
G02*
X85393750Y-119465000I218750J0D01*
G01*
X85831250Y-119465000D01*
G75*
G02*
X86050000Y-119683750I0J-218750D01*
G01*
X86050000Y-120196250D01*
G75*
G02*
X85831250Y-120415000I-218750J0D01*
G01*
X85393750Y-120415000D01*
G75*
G02*
X85175000Y-120196250I0J218750D01*
G01*
G37*
G36*
G01*
X86750000Y-120196250D02*
X86750000Y-119683750D01*
G75*
G02*
X86968750Y-119465000I218750J0D01*
G01*
X87406250Y-119465000D01*
G75*
G02*
X87625000Y-119683750I0J-218750D01*
G01*
X87625000Y-120196250D01*
G75*
G02*
X87406250Y-120415000I-218750J0D01*
G01*
X86968750Y-120415000D01*
G75*
G02*
X86750000Y-120196250I0J218750D01*
G01*
G37*
%TD*%
%TO.C,R15*%
G36*
G01*
X72120000Y-127186250D02*
X72120000Y-126673750D01*
G75*
G02*
X72338750Y-126455000I218750J0D01*
G01*
X72776250Y-126455000D01*
G75*
G02*
X72995000Y-126673750I0J-218750D01*
G01*
X72995000Y-127186250D01*
G75*
G02*
X72776250Y-127405000I-218750J0D01*
G01*
X72338750Y-127405000D01*
G75*
G02*
X72120000Y-127186250I0J218750D01*
G01*
G37*
G36*
G01*
X70545000Y-127186250D02*
X70545000Y-126673750D01*
G75*
G02*
X70763750Y-126455000I218750J0D01*
G01*
X71201250Y-126455000D01*
G75*
G02*
X71420000Y-126673750I0J-218750D01*
G01*
X71420000Y-127186250D01*
G75*
G02*
X71201250Y-127405000I-218750J0D01*
G01*
X70763750Y-127405000D01*
G75*
G02*
X70545000Y-127186250I0J218750D01*
G01*
G37*
%TD*%
%TO.C,R16*%
G36*
G01*
X73535000Y-125676250D02*
X73535000Y-125163750D01*
G75*
G02*
X73753750Y-124945000I218750J0D01*
G01*
X74191250Y-124945000D01*
G75*
G02*
X74410000Y-125163750I0J-218750D01*
G01*
X74410000Y-125676250D01*
G75*
G02*
X74191250Y-125895000I-218750J0D01*
G01*
X73753750Y-125895000D01*
G75*
G02*
X73535000Y-125676250I0J218750D01*
G01*
G37*
G36*
G01*
X75110000Y-125676250D02*
X75110000Y-125163750D01*
G75*
G02*
X75328750Y-124945000I218750J0D01*
G01*
X75766250Y-124945000D01*
G75*
G02*
X75985000Y-125163750I0J-218750D01*
G01*
X75985000Y-125676250D01*
G75*
G02*
X75766250Y-125895000I-218750J0D01*
G01*
X75328750Y-125895000D01*
G75*
G02*
X75110000Y-125676250I0J218750D01*
G01*
G37*
%TD*%
%TO.C,R2*%
G36*
G01*
X97475000Y-120573750D02*
X97475000Y-121086250D01*
G75*
G02*
X97256250Y-121305000I-218750J0D01*
G01*
X96818750Y-121305000D01*
G75*
G02*
X96600000Y-121086250I0J218750D01*
G01*
X96600000Y-120573750D01*
G75*
G02*
X96818750Y-120355000I218750J0D01*
G01*
X97256250Y-120355000D01*
G75*
G02*
X97475000Y-120573750I0J-218750D01*
G01*
G37*
G36*
G01*
X95900000Y-120573750D02*
X95900000Y-121086250D01*
G75*
G02*
X95681250Y-121305000I-218750J0D01*
G01*
X95243750Y-121305000D01*
G75*
G02*
X95025000Y-121086250I0J218750D01*
G01*
X95025000Y-120573750D01*
G75*
G02*
X95243750Y-120355000I218750J0D01*
G01*
X95681250Y-120355000D01*
G75*
G02*
X95900000Y-120573750I0J-218750D01*
G01*
G37*
%TD*%
%TO.C,R5*%
G36*
G01*
X98890000Y-120973750D02*
X98890000Y-121486250D01*
G75*
G02*
X98671250Y-121705000I-218750J0D01*
G01*
X98233750Y-121705000D01*
G75*
G02*
X98015000Y-121486250I0J218750D01*
G01*
X98015000Y-120973750D01*
G75*
G02*
X98233750Y-120755000I218750J0D01*
G01*
X98671250Y-120755000D01*
G75*
G02*
X98890000Y-120973750I0J-218750D01*
G01*
G37*
G36*
G01*
X100465000Y-120973750D02*
X100465000Y-121486250D01*
G75*
G02*
X100246250Y-121705000I-218750J0D01*
G01*
X99808750Y-121705000D01*
G75*
G02*
X99590000Y-121486250I0J218750D01*
G01*
X99590000Y-120973750D01*
G75*
G02*
X99808750Y-120755000I218750J0D01*
G01*
X100246250Y-120755000D01*
G75*
G02*
X100465000Y-120973750I0J-218750D01*
G01*
G37*
%TD*%
%TO.C,R12*%
G36*
G01*
X104555000Y-120266250D02*
X104555000Y-119753750D01*
G75*
G02*
X104773750Y-119535000I218750J0D01*
G01*
X105211250Y-119535000D01*
G75*
G02*
X105430000Y-119753750I0J-218750D01*
G01*
X105430000Y-120266250D01*
G75*
G02*
X105211250Y-120485000I-218750J0D01*
G01*
X104773750Y-120485000D01*
G75*
G02*
X104555000Y-120266250I0J218750D01*
G01*
G37*
G36*
G01*
X106130000Y-120266250D02*
X106130000Y-119753750D01*
G75*
G02*
X106348750Y-119535000I218750J0D01*
G01*
X106786250Y-119535000D01*
G75*
G02*
X107005000Y-119753750I0J-218750D01*
G01*
X107005000Y-120266250D01*
G75*
G02*
X106786250Y-120485000I-218750J0D01*
G01*
X106348750Y-120485000D01*
G75*
G02*
X106130000Y-120266250I0J218750D01*
G01*
G37*
%TD*%
%TO.C,R13*%
G36*
G01*
X105385000Y-123803750D02*
X105385000Y-124316250D01*
G75*
G02*
X105166250Y-124535000I-218750J0D01*
G01*
X104728750Y-124535000D01*
G75*
G02*
X104510000Y-124316250I0J218750D01*
G01*
X104510000Y-123803750D01*
G75*
G02*
X104728750Y-123585000I218750J0D01*
G01*
X105166250Y-123585000D01*
G75*
G02*
X105385000Y-123803750I0J-218750D01*
G01*
G37*
G36*
G01*
X103810000Y-123803750D02*
X103810000Y-124316250D01*
G75*
G02*
X103591250Y-124535000I-218750J0D01*
G01*
X103153750Y-124535000D01*
G75*
G02*
X102935000Y-124316250I0J218750D01*
G01*
X102935000Y-123803750D01*
G75*
G02*
X103153750Y-123585000I218750J0D01*
G01*
X103591250Y-123585000D01*
G75*
G02*
X103810000Y-123803750I0J-218750D01*
G01*
G37*
%TD*%
%TO.C,R9*%
G36*
G01*
X87625000Y-118163750D02*
X87625000Y-118676250D01*
G75*
G02*
X87406250Y-118895000I-218750J0D01*
G01*
X86968750Y-118895000D01*
G75*
G02*
X86750000Y-118676250I0J218750D01*
G01*
X86750000Y-118163750D01*
G75*
G02*
X86968750Y-117945000I218750J0D01*
G01*
X87406250Y-117945000D01*
G75*
G02*
X87625000Y-118163750I0J-218750D01*
G01*
G37*
G36*
G01*
X86050000Y-118163750D02*
X86050000Y-118676250D01*
G75*
G02*
X85831250Y-118895000I-218750J0D01*
G01*
X85393750Y-118895000D01*
G75*
G02*
X85175000Y-118676250I0J218750D01*
G01*
X85175000Y-118163750D01*
G75*
G02*
X85393750Y-117945000I218750J0D01*
G01*
X85831250Y-117945000D01*
G75*
G02*
X86050000Y-118163750I0J-218750D01*
G01*
G37*
%TD*%
%TO.C,C10*%
G36*
G01*
X87625000Y-116493750D02*
X87625000Y-117006250D01*
G75*
G02*
X87406250Y-117225000I-218750J0D01*
G01*
X86968750Y-117225000D01*
G75*
G02*
X86750000Y-117006250I0J218750D01*
G01*
X86750000Y-116493750D01*
G75*
G02*
X86968750Y-116275000I218750J0D01*
G01*
X87406250Y-116275000D01*
G75*
G02*
X87625000Y-116493750I0J-218750D01*
G01*
G37*
G36*
G01*
X86050000Y-116493750D02*
X86050000Y-117006250D01*
G75*
G02*
X85831250Y-117225000I-218750J0D01*
G01*
X85393750Y-117225000D01*
G75*
G02*
X85175000Y-117006250I0J218750D01*
G01*
X85175000Y-116493750D01*
G75*
G02*
X85393750Y-116275000I218750J0D01*
G01*
X85831250Y-116275000D01*
G75*
G02*
X86050000Y-116493750I0J-218750D01*
G01*
G37*
%TD*%
%TO.C,C9*%
G36*
G01*
X64735000Y-124826250D02*
X64735000Y-124313750D01*
G75*
G02*
X64953750Y-124095000I218750J0D01*
G01*
X65391250Y-124095000D01*
G75*
G02*
X65610000Y-124313750I0J-218750D01*
G01*
X65610000Y-124826250D01*
G75*
G02*
X65391250Y-125045000I-218750J0D01*
G01*
X64953750Y-125045000D01*
G75*
G02*
X64735000Y-124826250I0J218750D01*
G01*
G37*
G36*
G01*
X66310000Y-124826250D02*
X66310000Y-124313750D01*
G75*
G02*
X66528750Y-124095000I218750J0D01*
G01*
X66966250Y-124095000D01*
G75*
G02*
X67185000Y-124313750I0J-218750D01*
G01*
X67185000Y-124826250D01*
G75*
G02*
X66966250Y-125045000I-218750J0D01*
G01*
X66528750Y-125045000D01*
G75*
G02*
X66310000Y-124826250I0J218750D01*
G01*
G37*
%TD*%
M02*
