M48
; DRILL file {KiCad (5.1.6-0-10_14)} date Thursday, March 25, 2021 at 12:15:07 PM
; FORMAT={-:-/ absolute / inch / decimal}
; #@! TF.CreationDate,2021-03-25T12:15:07-05:00
; #@! TF.GenerationSoftware,Kicad,Pcbnew,(5.1.6-0-10_14)
; #@! TF.FileFunction,Plated,1,2,PTH
FMAT,2
INCH
T1C0.0118
T2C0.0157
T3C0.0181
T4C0.0315
T5C0.0394
T6C0.0472
T7C0.1260
%
G90
G05
T1
X2.853Y-4.8096
X2.8541Y-4.7596
X2.8732Y-4.9398
X2.9657Y-4.6524
X2.9681Y-4.6949
X3.0252Y-4.978
X3.1528Y-4.635
X3.2359Y-4.7469
X3.2373Y-4.6969
X3.2579Y-4.6705
X3.2647Y-4.7206
X3.2992Y-4.9406
X3.4228Y-4.7921
X3.5823Y-4.7539
X3.937Y-4.6732
T2
X2.6445Y-4.8094
X2.6953Y-4.1736
X2.7953Y-4.3622
X2.8488Y-4.5602
X2.8634Y-4.1744
X3.1531Y-4.7134
X3.1559Y-4.8098
X3.2543Y-4.8213
X3.3268Y-4.3717
X3.6213Y-4.578
X3.6933Y-4.6146
X3.698Y-4.8333
X3.698Y-5.2283
X3.7398Y-5.2579
X3.8677Y-5.2339
X3.8815Y-5.4327
X3.9Y-4.613
X3.9457Y-4.9831
X3.9545Y-5.1341
X3.995Y-4.8291
X4.0606Y-4.615
X4.0882Y-4.0697
X4.1425Y-5.0335
X4.1516Y-4.8287
T3
X2.5543Y-5.0165
X2.2232Y-4.2665
X2.2232Y-4.6114
T4
X2.5677Y-5.2161
X2.6465Y-5.2161
X2.5665Y-5.3839
X2.6453Y-5.3839
T5
X2.848Y-5.4331
X2.948Y-5.4331
X3.048Y-5.4331
X3.148Y-5.4331
X3.248Y-5.4331
X3.348Y-5.4331
X3.448Y-5.4331
X3.548Y-5.4331
X3.648Y-5.4331
T6
X4.3791Y-4.9213
X4.3791Y-5.0591
T7
X4.3898Y-5.374
X4.3898Y-4.0748
X2.1063Y-5.374
X2.1063Y-4.0748
T0
M30
