%TF.GenerationSoftware,KiCad,Pcbnew,(5.1.6-0-10_14)*%
%TF.CreationDate,2021-03-25T12:14:58-05:00*%
%TF.ProjectId,MBRadio_4732_BO3,4d425261-6469-46f5-9f34-3733325f424f,rev?*%
%TF.SameCoordinates,Original*%
%TF.FileFunction,Paste,Top*%
%TF.FilePolarity,Positive*%
%FSLAX46Y46*%
G04 Gerber Fmt 4.6, Leading zero omitted, Abs format (unit mm)*
G04 Created by KiCad (PCBNEW (5.1.6-0-10_14)) date 2021-03-25 12:14:58*
%MOMM*%
%LPD*%
G01*
G04 APERTURE LIST*
%ADD10R,0.800000X0.900000*%
%ADD11R,2.700000X2.900000*%
%ADD12R,2.700000X2.100000*%
%ADD13R,5.080000X2.290000*%
%ADD14R,5.080000X2.420000*%
%ADD15R,1.200000X0.400000*%
%ADD16R,1.100000X1.300000*%
%ADD17R,1.346200X0.553200*%
%ADD18R,0.553200X1.193800*%
%ADD19R,1.000000X1.000000*%
%ADD20R,2.570000X1.000000*%
%ADD21R,3.800000X1.000000*%
%ADD22R,3.470000X1.000000*%
%ADD23R,1.000000X2.570000*%
%ADD24R,1.000000X3.800000*%
%ADD25R,1.000000X3.470000*%
%ADD26R,2.900000X2.700000*%
%ADD27R,2.100000X2.700000*%
%ADD28R,0.553200X1.346200*%
%ADD29R,1.193800X0.553200*%
G04 APERTURE END LIST*
%TO.C,R12*%
G36*
G01*
X102720000Y-120102500D02*
X102720000Y-119757500D01*
G75*
G02*
X102867500Y-119610000I147500J0D01*
G01*
X103162500Y-119610000D01*
G75*
G02*
X103310000Y-119757500I0J-147500D01*
G01*
X103310000Y-120102500D01*
G75*
G02*
X103162500Y-120250000I-147500J0D01*
G01*
X102867500Y-120250000D01*
G75*
G02*
X102720000Y-120102500I0J147500D01*
G01*
G37*
G36*
G01*
X103690000Y-120102500D02*
X103690000Y-119757500D01*
G75*
G02*
X103837500Y-119610000I147500J0D01*
G01*
X104132500Y-119610000D01*
G75*
G02*
X104280000Y-119757500I0J-147500D01*
G01*
X104280000Y-120102500D01*
G75*
G02*
X104132500Y-120250000I-147500J0D01*
G01*
X103837500Y-120250000D01*
G75*
G02*
X103690000Y-120102500I0J147500D01*
G01*
G37*
%TD*%
%TO.C,R13*%
G36*
G01*
X103910000Y-123617500D02*
X103910000Y-123962500D01*
G75*
G02*
X103762500Y-124110000I-147500J0D01*
G01*
X103467500Y-124110000D01*
G75*
G02*
X103320000Y-123962500I0J147500D01*
G01*
X103320000Y-123617500D01*
G75*
G02*
X103467500Y-123470000I147500J0D01*
G01*
X103762500Y-123470000D01*
G75*
G02*
X103910000Y-123617500I0J-147500D01*
G01*
G37*
G36*
G01*
X104880000Y-123617500D02*
X104880000Y-123962500D01*
G75*
G02*
X104732500Y-124110000I-147500J0D01*
G01*
X104437500Y-124110000D01*
G75*
G02*
X104290000Y-123962500I0J147500D01*
G01*
X104290000Y-123617500D01*
G75*
G02*
X104437500Y-123470000I147500J0D01*
G01*
X104732500Y-123470000D01*
G75*
G02*
X104880000Y-123617500I0J-147500D01*
G01*
G37*
%TD*%
%TO.C,C10*%
G36*
G01*
X85412500Y-117020000D02*
X85067500Y-117020000D01*
G75*
G02*
X84920000Y-116872500I0J147500D01*
G01*
X84920000Y-116577500D01*
G75*
G02*
X85067500Y-116430000I147500J0D01*
G01*
X85412500Y-116430000D01*
G75*
G02*
X85560000Y-116577500I0J-147500D01*
G01*
X85560000Y-116872500D01*
G75*
G02*
X85412500Y-117020000I-147500J0D01*
G01*
G37*
G36*
G01*
X85412500Y-117990000D02*
X85067500Y-117990000D01*
G75*
G02*
X84920000Y-117842500I0J147500D01*
G01*
X84920000Y-117547500D01*
G75*
G02*
X85067500Y-117400000I147500J0D01*
G01*
X85412500Y-117400000D01*
G75*
G02*
X85560000Y-117547500I0J-147500D01*
G01*
X85560000Y-117842500D01*
G75*
G02*
X85412500Y-117990000I-147500J0D01*
G01*
G37*
%TD*%
%TO.C,C13*%
G36*
G01*
X96816250Y-127030000D02*
X96303750Y-127030000D01*
G75*
G02*
X96085000Y-126811250I0J218750D01*
G01*
X96085000Y-126373750D01*
G75*
G02*
X96303750Y-126155000I218750J0D01*
G01*
X96816250Y-126155000D01*
G75*
G02*
X97035000Y-126373750I0J-218750D01*
G01*
X97035000Y-126811250D01*
G75*
G02*
X96816250Y-127030000I-218750J0D01*
G01*
G37*
G36*
G01*
X96816250Y-128605000D02*
X96303750Y-128605000D01*
G75*
G02*
X96085000Y-128386250I0J218750D01*
G01*
X96085000Y-127948750D01*
G75*
G02*
X96303750Y-127730000I218750J0D01*
G01*
X96816250Y-127730000D01*
G75*
G02*
X97035000Y-127948750I0J-218750D01*
G01*
X97035000Y-128386250D01*
G75*
G02*
X96816250Y-128605000I-218750J0D01*
G01*
G37*
%TD*%
%TO.C,U5*%
G36*
G01*
X97790000Y-126745000D02*
X97790000Y-126445000D01*
G75*
G02*
X97940000Y-126295000I150000J0D01*
G01*
X99590000Y-126295000D01*
G75*
G02*
X99740000Y-126445000I0J-150000D01*
G01*
X99740000Y-126745000D01*
G75*
G02*
X99590000Y-126895000I-150000J0D01*
G01*
X97940000Y-126895000D01*
G75*
G02*
X97790000Y-126745000I0J150000D01*
G01*
G37*
G36*
G01*
X97790000Y-128015000D02*
X97790000Y-127715000D01*
G75*
G02*
X97940000Y-127565000I150000J0D01*
G01*
X99590000Y-127565000D01*
G75*
G02*
X99740000Y-127715000I0J-150000D01*
G01*
X99740000Y-128015000D01*
G75*
G02*
X99590000Y-128165000I-150000J0D01*
G01*
X97940000Y-128165000D01*
G75*
G02*
X97790000Y-128015000I0J150000D01*
G01*
G37*
G36*
G01*
X97790000Y-129285000D02*
X97790000Y-128985000D01*
G75*
G02*
X97940000Y-128835000I150000J0D01*
G01*
X99590000Y-128835000D01*
G75*
G02*
X99740000Y-128985000I0J-150000D01*
G01*
X99740000Y-129285000D01*
G75*
G02*
X99590000Y-129435000I-150000J0D01*
G01*
X97940000Y-129435000D01*
G75*
G02*
X97790000Y-129285000I0J150000D01*
G01*
G37*
G36*
G01*
X97790000Y-130555000D02*
X97790000Y-130255000D01*
G75*
G02*
X97940000Y-130105000I150000J0D01*
G01*
X99590000Y-130105000D01*
G75*
G02*
X99740000Y-130255000I0J-150000D01*
G01*
X99740000Y-130555000D01*
G75*
G02*
X99590000Y-130705000I-150000J0D01*
G01*
X97940000Y-130705000D01*
G75*
G02*
X97790000Y-130555000I0J150000D01*
G01*
G37*
G36*
G01*
X102740000Y-130555000D02*
X102740000Y-130255000D01*
G75*
G02*
X102890000Y-130105000I150000J0D01*
G01*
X104540000Y-130105000D01*
G75*
G02*
X104690000Y-130255000I0J-150000D01*
G01*
X104690000Y-130555000D01*
G75*
G02*
X104540000Y-130705000I-150000J0D01*
G01*
X102890000Y-130705000D01*
G75*
G02*
X102740000Y-130555000I0J150000D01*
G01*
G37*
G36*
G01*
X102740000Y-129285000D02*
X102740000Y-128985000D01*
G75*
G02*
X102890000Y-128835000I150000J0D01*
G01*
X104540000Y-128835000D01*
G75*
G02*
X104690000Y-128985000I0J-150000D01*
G01*
X104690000Y-129285000D01*
G75*
G02*
X104540000Y-129435000I-150000J0D01*
G01*
X102890000Y-129435000D01*
G75*
G02*
X102740000Y-129285000I0J150000D01*
G01*
G37*
G36*
G01*
X102740000Y-128015000D02*
X102740000Y-127715000D01*
G75*
G02*
X102890000Y-127565000I150000J0D01*
G01*
X104540000Y-127565000D01*
G75*
G02*
X104690000Y-127715000I0J-150000D01*
G01*
X104690000Y-128015000D01*
G75*
G02*
X104540000Y-128165000I-150000J0D01*
G01*
X102890000Y-128165000D01*
G75*
G02*
X102740000Y-128015000I0J150000D01*
G01*
G37*
G36*
G01*
X102740000Y-126745000D02*
X102740000Y-126445000D01*
G75*
G02*
X102890000Y-126295000I150000J0D01*
G01*
X104540000Y-126295000D01*
G75*
G02*
X104690000Y-126445000I0J-150000D01*
G01*
X104690000Y-126745000D01*
G75*
G02*
X104540000Y-126895000I-150000J0D01*
G01*
X102890000Y-126895000D01*
G75*
G02*
X102740000Y-126745000I0J150000D01*
G01*
G37*
%TD*%
%TO.C,C6*%
G36*
G01*
X64580000Y-112942500D02*
X64580000Y-112597500D01*
G75*
G02*
X64727500Y-112450000I147500J0D01*
G01*
X65022500Y-112450000D01*
G75*
G02*
X65170000Y-112597500I0J-147500D01*
G01*
X65170000Y-112942500D01*
G75*
G02*
X65022500Y-113090000I-147500J0D01*
G01*
X64727500Y-113090000D01*
G75*
G02*
X64580000Y-112942500I0J147500D01*
G01*
G37*
G36*
G01*
X65550000Y-112942500D02*
X65550000Y-112597500D01*
G75*
G02*
X65697500Y-112450000I147500J0D01*
G01*
X65992500Y-112450000D01*
G75*
G02*
X66140000Y-112597500I0J-147500D01*
G01*
X66140000Y-112942500D01*
G75*
G02*
X65992500Y-113090000I-147500J0D01*
G01*
X65697500Y-113090000D01*
G75*
G02*
X65550000Y-112942500I0J147500D01*
G01*
G37*
%TD*%
%TO.C,C9*%
G36*
G01*
X65570000Y-124772500D02*
X65570000Y-124427500D01*
G75*
G02*
X65717500Y-124280000I147500J0D01*
G01*
X66012500Y-124280000D01*
G75*
G02*
X66160000Y-124427500I0J-147500D01*
G01*
X66160000Y-124772500D01*
G75*
G02*
X66012500Y-124920000I-147500J0D01*
G01*
X65717500Y-124920000D01*
G75*
G02*
X65570000Y-124772500I0J147500D01*
G01*
G37*
G36*
G01*
X64600000Y-124772500D02*
X64600000Y-124427500D01*
G75*
G02*
X64747500Y-124280000I147500J0D01*
G01*
X65042500Y-124280000D01*
G75*
G02*
X65190000Y-124427500I0J-147500D01*
G01*
X65190000Y-124772500D01*
G75*
G02*
X65042500Y-124920000I-147500J0D01*
G01*
X64747500Y-124920000D01*
G75*
G02*
X64600000Y-124772500I0J147500D01*
G01*
G37*
%TD*%
%TO.C,C14*%
G36*
G01*
X103340000Y-122842500D02*
X103340000Y-122497500D01*
G75*
G02*
X103487500Y-122350000I147500J0D01*
G01*
X103782500Y-122350000D01*
G75*
G02*
X103930000Y-122497500I0J-147500D01*
G01*
X103930000Y-122842500D01*
G75*
G02*
X103782500Y-122990000I-147500J0D01*
G01*
X103487500Y-122990000D01*
G75*
G02*
X103340000Y-122842500I0J147500D01*
G01*
G37*
G36*
G01*
X104310000Y-122842500D02*
X104310000Y-122497500D01*
G75*
G02*
X104457500Y-122350000I147500J0D01*
G01*
X104752500Y-122350000D01*
G75*
G02*
X104900000Y-122497500I0J-147500D01*
G01*
X104900000Y-122842500D01*
G75*
G02*
X104752500Y-122990000I-147500J0D01*
G01*
X104457500Y-122990000D01*
G75*
G02*
X104310000Y-122842500I0J147500D01*
G01*
G37*
%TD*%
D10*
%TO.C,D2*%
X68100000Y-110780000D03*
X70000000Y-110780000D03*
X69050000Y-108780000D03*
%TD*%
D11*
%TO.C,J3*%
X106350000Y-103300000D03*
X95650000Y-109800000D03*
D12*
X106350000Y-109650000D03*
%TD*%
%TO.C,L1*%
G36*
G01*
X67675000Y-112996250D02*
X67675000Y-112483750D01*
G75*
G02*
X67893750Y-112265000I218750J0D01*
G01*
X68331250Y-112265000D01*
G75*
G02*
X68550000Y-112483750I0J-218750D01*
G01*
X68550000Y-112996250D01*
G75*
G02*
X68331250Y-113215000I-218750J0D01*
G01*
X67893750Y-113215000D01*
G75*
G02*
X67675000Y-112996250I0J218750D01*
G01*
G37*
G36*
G01*
X69250000Y-112996250D02*
X69250000Y-112483750D01*
G75*
G02*
X69468750Y-112265000I218750J0D01*
G01*
X69906250Y-112265000D01*
G75*
G02*
X70125000Y-112483750I0J-218750D01*
G01*
X70125000Y-112996250D01*
G75*
G02*
X69906250Y-113215000I-218750J0D01*
G01*
X69468750Y-113215000D01*
G75*
G02*
X69250000Y-112996250I0J218750D01*
G01*
G37*
%TD*%
%TO.C,U1*%
G36*
G01*
X68020000Y-114695000D02*
X68020000Y-114395000D01*
G75*
G02*
X68170000Y-114245000I150000J0D01*
G01*
X69820000Y-114245000D01*
G75*
G02*
X69970000Y-114395000I0J-150000D01*
G01*
X69970000Y-114695000D01*
G75*
G02*
X69820000Y-114845000I-150000J0D01*
G01*
X68170000Y-114845000D01*
G75*
G02*
X68020000Y-114695000I0J150000D01*
G01*
G37*
G36*
G01*
X68020000Y-115965000D02*
X68020000Y-115665000D01*
G75*
G02*
X68170000Y-115515000I150000J0D01*
G01*
X69820000Y-115515000D01*
G75*
G02*
X69970000Y-115665000I0J-150000D01*
G01*
X69970000Y-115965000D01*
G75*
G02*
X69820000Y-116115000I-150000J0D01*
G01*
X68170000Y-116115000D01*
G75*
G02*
X68020000Y-115965000I0J150000D01*
G01*
G37*
G36*
G01*
X68020000Y-117235000D02*
X68020000Y-116935000D01*
G75*
G02*
X68170000Y-116785000I150000J0D01*
G01*
X69820000Y-116785000D01*
G75*
G02*
X69970000Y-116935000I0J-150000D01*
G01*
X69970000Y-117235000D01*
G75*
G02*
X69820000Y-117385000I-150000J0D01*
G01*
X68170000Y-117385000D01*
G75*
G02*
X68020000Y-117235000I0J150000D01*
G01*
G37*
G36*
G01*
X68020000Y-118505000D02*
X68020000Y-118205000D01*
G75*
G02*
X68170000Y-118055000I150000J0D01*
G01*
X69820000Y-118055000D01*
G75*
G02*
X69970000Y-118205000I0J-150000D01*
G01*
X69970000Y-118505000D01*
G75*
G02*
X69820000Y-118655000I-150000J0D01*
G01*
X68170000Y-118655000D01*
G75*
G02*
X68020000Y-118505000I0J150000D01*
G01*
G37*
G36*
G01*
X68020000Y-119775000D02*
X68020000Y-119475000D01*
G75*
G02*
X68170000Y-119325000I150000J0D01*
G01*
X69820000Y-119325000D01*
G75*
G02*
X69970000Y-119475000I0J-150000D01*
G01*
X69970000Y-119775000D01*
G75*
G02*
X69820000Y-119925000I-150000J0D01*
G01*
X68170000Y-119925000D01*
G75*
G02*
X68020000Y-119775000I0J150000D01*
G01*
G37*
G36*
G01*
X68020000Y-121045000D02*
X68020000Y-120745000D01*
G75*
G02*
X68170000Y-120595000I150000J0D01*
G01*
X69820000Y-120595000D01*
G75*
G02*
X69970000Y-120745000I0J-150000D01*
G01*
X69970000Y-121045000D01*
G75*
G02*
X69820000Y-121195000I-150000J0D01*
G01*
X68170000Y-121195000D01*
G75*
G02*
X68020000Y-121045000I0J150000D01*
G01*
G37*
G36*
G01*
X68020000Y-122315000D02*
X68020000Y-122015000D01*
G75*
G02*
X68170000Y-121865000I150000J0D01*
G01*
X69820000Y-121865000D01*
G75*
G02*
X69970000Y-122015000I0J-150000D01*
G01*
X69970000Y-122315000D01*
G75*
G02*
X69820000Y-122465000I-150000J0D01*
G01*
X68170000Y-122465000D01*
G75*
G02*
X68020000Y-122315000I0J150000D01*
G01*
G37*
G36*
G01*
X68020000Y-123585000D02*
X68020000Y-123285000D01*
G75*
G02*
X68170000Y-123135000I150000J0D01*
G01*
X69820000Y-123135000D01*
G75*
G02*
X69970000Y-123285000I0J-150000D01*
G01*
X69970000Y-123585000D01*
G75*
G02*
X69820000Y-123735000I-150000J0D01*
G01*
X68170000Y-123735000D01*
G75*
G02*
X68020000Y-123585000I0J150000D01*
G01*
G37*
G36*
G01*
X72970000Y-123585000D02*
X72970000Y-123285000D01*
G75*
G02*
X73120000Y-123135000I150000J0D01*
G01*
X74770000Y-123135000D01*
G75*
G02*
X74920000Y-123285000I0J-150000D01*
G01*
X74920000Y-123585000D01*
G75*
G02*
X74770000Y-123735000I-150000J0D01*
G01*
X73120000Y-123735000D01*
G75*
G02*
X72970000Y-123585000I0J150000D01*
G01*
G37*
G36*
G01*
X72970000Y-122315000D02*
X72970000Y-122015000D01*
G75*
G02*
X73120000Y-121865000I150000J0D01*
G01*
X74770000Y-121865000D01*
G75*
G02*
X74920000Y-122015000I0J-150000D01*
G01*
X74920000Y-122315000D01*
G75*
G02*
X74770000Y-122465000I-150000J0D01*
G01*
X73120000Y-122465000D01*
G75*
G02*
X72970000Y-122315000I0J150000D01*
G01*
G37*
G36*
G01*
X72970000Y-121045000D02*
X72970000Y-120745000D01*
G75*
G02*
X73120000Y-120595000I150000J0D01*
G01*
X74770000Y-120595000D01*
G75*
G02*
X74920000Y-120745000I0J-150000D01*
G01*
X74920000Y-121045000D01*
G75*
G02*
X74770000Y-121195000I-150000J0D01*
G01*
X73120000Y-121195000D01*
G75*
G02*
X72970000Y-121045000I0J150000D01*
G01*
G37*
G36*
G01*
X72970000Y-119775000D02*
X72970000Y-119475000D01*
G75*
G02*
X73120000Y-119325000I150000J0D01*
G01*
X74770000Y-119325000D01*
G75*
G02*
X74920000Y-119475000I0J-150000D01*
G01*
X74920000Y-119775000D01*
G75*
G02*
X74770000Y-119925000I-150000J0D01*
G01*
X73120000Y-119925000D01*
G75*
G02*
X72970000Y-119775000I0J150000D01*
G01*
G37*
G36*
G01*
X72970000Y-118505000D02*
X72970000Y-118205000D01*
G75*
G02*
X73120000Y-118055000I150000J0D01*
G01*
X74770000Y-118055000D01*
G75*
G02*
X74920000Y-118205000I0J-150000D01*
G01*
X74920000Y-118505000D01*
G75*
G02*
X74770000Y-118655000I-150000J0D01*
G01*
X73120000Y-118655000D01*
G75*
G02*
X72970000Y-118505000I0J150000D01*
G01*
G37*
G36*
G01*
X72970000Y-117235000D02*
X72970000Y-116935000D01*
G75*
G02*
X73120000Y-116785000I150000J0D01*
G01*
X74770000Y-116785000D01*
G75*
G02*
X74920000Y-116935000I0J-150000D01*
G01*
X74920000Y-117235000D01*
G75*
G02*
X74770000Y-117385000I-150000J0D01*
G01*
X73120000Y-117385000D01*
G75*
G02*
X72970000Y-117235000I0J150000D01*
G01*
G37*
G36*
G01*
X72970000Y-115965000D02*
X72970000Y-115665000D01*
G75*
G02*
X73120000Y-115515000I150000J0D01*
G01*
X74770000Y-115515000D01*
G75*
G02*
X74920000Y-115665000I0J-150000D01*
G01*
X74920000Y-115965000D01*
G75*
G02*
X74770000Y-116115000I-150000J0D01*
G01*
X73120000Y-116115000D01*
G75*
G02*
X72970000Y-115965000I0J150000D01*
G01*
G37*
G36*
G01*
X72970000Y-114695000D02*
X72970000Y-114395000D01*
G75*
G02*
X73120000Y-114245000I150000J0D01*
G01*
X74770000Y-114245000D01*
G75*
G02*
X74920000Y-114395000I0J-150000D01*
G01*
X74920000Y-114695000D01*
G75*
G02*
X74770000Y-114845000I-150000J0D01*
G01*
X73120000Y-114845000D01*
G75*
G02*
X72970000Y-114695000I0J150000D01*
G01*
G37*
%TD*%
%TO.C,R1*%
G36*
G01*
X86590000Y-121557500D02*
X86590000Y-121902500D01*
G75*
G02*
X86442500Y-122050000I-147500J0D01*
G01*
X86147500Y-122050000D01*
G75*
G02*
X86000000Y-121902500I0J147500D01*
G01*
X86000000Y-121557500D01*
G75*
G02*
X86147500Y-121410000I147500J0D01*
G01*
X86442500Y-121410000D01*
G75*
G02*
X86590000Y-121557500I0J-147500D01*
G01*
G37*
G36*
G01*
X85620000Y-121557500D02*
X85620000Y-121902500D01*
G75*
G02*
X85472500Y-122050000I-147500J0D01*
G01*
X85177500Y-122050000D01*
G75*
G02*
X85030000Y-121902500I0J147500D01*
G01*
X85030000Y-121557500D01*
G75*
G02*
X85177500Y-121410000I147500J0D01*
G01*
X85472500Y-121410000D01*
G75*
G02*
X85620000Y-121557500I0J-147500D01*
G01*
G37*
%TD*%
%TO.C,R4*%
G36*
G01*
X85620000Y-120537500D02*
X85620000Y-120882500D01*
G75*
G02*
X85472500Y-121030000I-147500J0D01*
G01*
X85177500Y-121030000D01*
G75*
G02*
X85030000Y-120882500I0J147500D01*
G01*
X85030000Y-120537500D01*
G75*
G02*
X85177500Y-120390000I147500J0D01*
G01*
X85472500Y-120390000D01*
G75*
G02*
X85620000Y-120537500I0J-147500D01*
G01*
G37*
G36*
G01*
X86590000Y-120537500D02*
X86590000Y-120882500D01*
G75*
G02*
X86442500Y-121030000I-147500J0D01*
G01*
X86147500Y-121030000D01*
G75*
G02*
X86000000Y-120882500I0J147500D01*
G01*
X86000000Y-120537500D01*
G75*
G02*
X86147500Y-120390000I147500J0D01*
G01*
X86442500Y-120390000D01*
G75*
G02*
X86590000Y-120537500I0J-147500D01*
G01*
G37*
%TD*%
D13*
%TO.C,J5*%
X53030000Y-112750000D03*
D14*
X53030000Y-108370000D03*
X53030000Y-117130000D03*
%TD*%
D10*
%TO.C,Q1*%
X97910000Y-117200000D03*
X99810000Y-117200000D03*
X98860000Y-115200000D03*
%TD*%
%TO.C,Q2*%
X103020000Y-115210000D03*
X103970000Y-117210000D03*
X102070000Y-117210000D03*
%TD*%
%TO.C,R7*%
G36*
G01*
X102365000Y-118527500D02*
X102365000Y-118872500D01*
G75*
G02*
X102217500Y-119020000I-147500J0D01*
G01*
X101922500Y-119020000D01*
G75*
G02*
X101775000Y-118872500I0J147500D01*
G01*
X101775000Y-118527500D01*
G75*
G02*
X101922500Y-118380000I147500J0D01*
G01*
X102217500Y-118380000D01*
G75*
G02*
X102365000Y-118527500I0J-147500D01*
G01*
G37*
G36*
G01*
X101395000Y-118527500D02*
X101395000Y-118872500D01*
G75*
G02*
X101247500Y-119020000I-147500J0D01*
G01*
X100952500Y-119020000D01*
G75*
G02*
X100805000Y-118872500I0J147500D01*
G01*
X100805000Y-118527500D01*
G75*
G02*
X100952500Y-118380000I147500J0D01*
G01*
X101247500Y-118380000D01*
G75*
G02*
X101395000Y-118527500I0J-147500D01*
G01*
G37*
%TD*%
%TO.C,R8*%
G36*
G01*
X97615000Y-118872500D02*
X97615000Y-118527500D01*
G75*
G02*
X97762500Y-118380000I147500J0D01*
G01*
X98057500Y-118380000D01*
G75*
G02*
X98205000Y-118527500I0J-147500D01*
G01*
X98205000Y-118872500D01*
G75*
G02*
X98057500Y-119020000I-147500J0D01*
G01*
X97762500Y-119020000D01*
G75*
G02*
X97615000Y-118872500I0J147500D01*
G01*
G37*
G36*
G01*
X98585000Y-118872500D02*
X98585000Y-118527500D01*
G75*
G02*
X98732500Y-118380000I147500J0D01*
G01*
X99027500Y-118380000D01*
G75*
G02*
X99175000Y-118527500I0J-147500D01*
G01*
X99175000Y-118872500D01*
G75*
G02*
X99027500Y-119020000I-147500J0D01*
G01*
X98732500Y-119020000D01*
G75*
G02*
X98585000Y-118872500I0J147500D01*
G01*
G37*
%TD*%
%TO.C,C5*%
G36*
G01*
X84317500Y-111620000D02*
X84662500Y-111620000D01*
G75*
G02*
X84810000Y-111767500I0J-147500D01*
G01*
X84810000Y-112062500D01*
G75*
G02*
X84662500Y-112210000I-147500J0D01*
G01*
X84317500Y-112210000D01*
G75*
G02*
X84170000Y-112062500I0J147500D01*
G01*
X84170000Y-111767500D01*
G75*
G02*
X84317500Y-111620000I147500J0D01*
G01*
G37*
G36*
G01*
X84317500Y-112590000D02*
X84662500Y-112590000D01*
G75*
G02*
X84810000Y-112737500I0J-147500D01*
G01*
X84810000Y-113032500D01*
G75*
G02*
X84662500Y-113180000I-147500J0D01*
G01*
X84317500Y-113180000D01*
G75*
G02*
X84170000Y-113032500I0J147500D01*
G01*
X84170000Y-112737500D01*
G75*
G02*
X84317500Y-112590000I147500J0D01*
G01*
G37*
%TD*%
%TO.C,C7*%
G36*
G01*
X85823750Y-112450000D02*
X86336250Y-112450000D01*
G75*
G02*
X86555000Y-112668750I0J-218750D01*
G01*
X86555000Y-113106250D01*
G75*
G02*
X86336250Y-113325000I-218750J0D01*
G01*
X85823750Y-113325000D01*
G75*
G02*
X85605000Y-113106250I0J218750D01*
G01*
X85605000Y-112668750D01*
G75*
G02*
X85823750Y-112450000I218750J0D01*
G01*
G37*
G36*
G01*
X85823750Y-110875000D02*
X86336250Y-110875000D01*
G75*
G02*
X86555000Y-111093750I0J-218750D01*
G01*
X86555000Y-111531250D01*
G75*
G02*
X86336250Y-111750000I-218750J0D01*
G01*
X85823750Y-111750000D01*
G75*
G02*
X85605000Y-111531250I0J218750D01*
G01*
X85605000Y-111093750D01*
G75*
G02*
X85823750Y-110875000I218750J0D01*
G01*
G37*
%TD*%
%TO.C,C8*%
G36*
G01*
X87653750Y-110875000D02*
X88166250Y-110875000D01*
G75*
G02*
X88385000Y-111093750I0J-218750D01*
G01*
X88385000Y-111531250D01*
G75*
G02*
X88166250Y-111750000I-218750J0D01*
G01*
X87653750Y-111750000D01*
G75*
G02*
X87435000Y-111531250I0J218750D01*
G01*
X87435000Y-111093750D01*
G75*
G02*
X87653750Y-110875000I218750J0D01*
G01*
G37*
G36*
G01*
X87653750Y-112450000D02*
X88166250Y-112450000D01*
G75*
G02*
X88385000Y-112668750I0J-218750D01*
G01*
X88385000Y-113106250D01*
G75*
G02*
X88166250Y-113325000I-218750J0D01*
G01*
X87653750Y-113325000D01*
G75*
G02*
X87435000Y-113106250I0J218750D01*
G01*
X87435000Y-112668750D01*
G75*
G02*
X87653750Y-112450000I218750J0D01*
G01*
G37*
%TD*%
%TO.C,C11*%
G36*
G01*
X87350000Y-107782500D02*
X87350000Y-107437500D01*
G75*
G02*
X87497500Y-107290000I147500J0D01*
G01*
X87792500Y-107290000D01*
G75*
G02*
X87940000Y-107437500I0J-147500D01*
G01*
X87940000Y-107782500D01*
G75*
G02*
X87792500Y-107930000I-147500J0D01*
G01*
X87497500Y-107930000D01*
G75*
G02*
X87350000Y-107782500I0J147500D01*
G01*
G37*
G36*
G01*
X86380000Y-107782500D02*
X86380000Y-107437500D01*
G75*
G02*
X86527500Y-107290000I147500J0D01*
G01*
X86822500Y-107290000D01*
G75*
G02*
X86970000Y-107437500I0J-147500D01*
G01*
X86970000Y-107782500D01*
G75*
G02*
X86822500Y-107930000I-147500J0D01*
G01*
X86527500Y-107930000D01*
G75*
G02*
X86380000Y-107782500I0J147500D01*
G01*
G37*
%TD*%
%TO.C,C15*%
G36*
G01*
X86380000Y-106582500D02*
X86380000Y-106237500D01*
G75*
G02*
X86527500Y-106090000I147500J0D01*
G01*
X86822500Y-106090000D01*
G75*
G02*
X86970000Y-106237500I0J-147500D01*
G01*
X86970000Y-106582500D01*
G75*
G02*
X86822500Y-106730000I-147500J0D01*
G01*
X86527500Y-106730000D01*
G75*
G02*
X86380000Y-106582500I0J147500D01*
G01*
G37*
G36*
G01*
X87350000Y-106582500D02*
X87350000Y-106237500D01*
G75*
G02*
X87497500Y-106090000I147500J0D01*
G01*
X87792500Y-106090000D01*
G75*
G02*
X87940000Y-106237500I0J-147500D01*
G01*
X87940000Y-106582500D01*
G75*
G02*
X87792500Y-106730000I-147500J0D01*
G01*
X87497500Y-106730000D01*
G75*
G02*
X87350000Y-106582500I0J147500D01*
G01*
G37*
%TD*%
%TO.C,R9*%
G36*
G01*
X85620000Y-118487500D02*
X85620000Y-118832500D01*
G75*
G02*
X85472500Y-118980000I-147500J0D01*
G01*
X85177500Y-118980000D01*
G75*
G02*
X85030000Y-118832500I0J147500D01*
G01*
X85030000Y-118487500D01*
G75*
G02*
X85177500Y-118340000I147500J0D01*
G01*
X85472500Y-118340000D01*
G75*
G02*
X85620000Y-118487500I0J-147500D01*
G01*
G37*
G36*
G01*
X86590000Y-118487500D02*
X86590000Y-118832500D01*
G75*
G02*
X86442500Y-118980000I-147500J0D01*
G01*
X86147500Y-118980000D01*
G75*
G02*
X86000000Y-118832500I0J147500D01*
G01*
X86000000Y-118487500D01*
G75*
G02*
X86147500Y-118340000I147500J0D01*
G01*
X86442500Y-118340000D01*
G75*
G02*
X86590000Y-118487500I0J-147500D01*
G01*
G37*
%TD*%
D15*
%TO.C,U2*%
X78570000Y-115457500D03*
X78570000Y-116092500D03*
X78570000Y-116727500D03*
X78570000Y-117362500D03*
X78570000Y-117997500D03*
X78570000Y-118632500D03*
X78570000Y-119267500D03*
X78570000Y-119902500D03*
X78570000Y-120537500D03*
X78570000Y-121172500D03*
X78570000Y-121807500D03*
X78570000Y-122442500D03*
X83770000Y-122442500D03*
X83770000Y-121807500D03*
X83770000Y-121172500D03*
X83770000Y-120537500D03*
X83770000Y-119902500D03*
X83770000Y-119267500D03*
X83770000Y-118632500D03*
X83770000Y-117997500D03*
X83770000Y-117362500D03*
X83770000Y-116727500D03*
X83770000Y-116092500D03*
X83770000Y-115457500D03*
%TD*%
D16*
%TO.C,X1*%
X93815000Y-120750000D03*
X93815000Y-118650000D03*
X92165000Y-118650000D03*
X92165000Y-120750000D03*
%TD*%
%TO.C,R11*%
G36*
G01*
X86000000Y-119862500D02*
X86000000Y-119517500D01*
G75*
G02*
X86147500Y-119370000I147500J0D01*
G01*
X86442500Y-119370000D01*
G75*
G02*
X86590000Y-119517500I0J-147500D01*
G01*
X86590000Y-119862500D01*
G75*
G02*
X86442500Y-120010000I-147500J0D01*
G01*
X86147500Y-120010000D01*
G75*
G02*
X86000000Y-119862500I0J147500D01*
G01*
G37*
G36*
G01*
X85030000Y-119862500D02*
X85030000Y-119517500D01*
G75*
G02*
X85177500Y-119370000I147500J0D01*
G01*
X85472500Y-119370000D01*
G75*
G02*
X85620000Y-119517500I0J-147500D01*
G01*
X85620000Y-119862500D01*
G75*
G02*
X85472500Y-120010000I-147500J0D01*
G01*
X85177500Y-120010000D01*
G75*
G02*
X85030000Y-119862500I0J147500D01*
G01*
G37*
%TD*%
%TO.C,R14*%
G36*
G01*
X85030000Y-122942500D02*
X85030000Y-122597500D01*
G75*
G02*
X85177500Y-122450000I147500J0D01*
G01*
X85472500Y-122450000D01*
G75*
G02*
X85620000Y-122597500I0J-147500D01*
G01*
X85620000Y-122942500D01*
G75*
G02*
X85472500Y-123090000I-147500J0D01*
G01*
X85177500Y-123090000D01*
G75*
G02*
X85030000Y-122942500I0J147500D01*
G01*
G37*
G36*
G01*
X86000000Y-122942500D02*
X86000000Y-122597500D01*
G75*
G02*
X86147500Y-122450000I147500J0D01*
G01*
X86442500Y-122450000D01*
G75*
G02*
X86590000Y-122597500I0J-147500D01*
G01*
X86590000Y-122942500D01*
G75*
G02*
X86442500Y-123090000I-147500J0D01*
G01*
X86147500Y-123090000D01*
G75*
G02*
X86000000Y-122942500I0J147500D01*
G01*
G37*
%TD*%
%TO.C,R15*%
G36*
G01*
X72300000Y-124557500D02*
X72300000Y-124902500D01*
G75*
G02*
X72152500Y-125050000I-147500J0D01*
G01*
X71857500Y-125050000D01*
G75*
G02*
X71710000Y-124902500I0J147500D01*
G01*
X71710000Y-124557500D01*
G75*
G02*
X71857500Y-124410000I147500J0D01*
G01*
X72152500Y-124410000D01*
G75*
G02*
X72300000Y-124557500I0J-147500D01*
G01*
G37*
G36*
G01*
X73270000Y-124557500D02*
X73270000Y-124902500D01*
G75*
G02*
X73122500Y-125050000I-147500J0D01*
G01*
X72827500Y-125050000D01*
G75*
G02*
X72680000Y-124902500I0J147500D01*
G01*
X72680000Y-124557500D01*
G75*
G02*
X72827500Y-124410000I147500J0D01*
G01*
X73122500Y-124410000D01*
G75*
G02*
X73270000Y-124557500I0J-147500D01*
G01*
G37*
%TD*%
%TO.C,R16*%
G36*
G01*
X73650000Y-124902500D02*
X73650000Y-124557500D01*
G75*
G02*
X73797500Y-124410000I147500J0D01*
G01*
X74092500Y-124410000D01*
G75*
G02*
X74240000Y-124557500I0J-147500D01*
G01*
X74240000Y-124902500D01*
G75*
G02*
X74092500Y-125050000I-147500J0D01*
G01*
X73797500Y-125050000D01*
G75*
G02*
X73650000Y-124902500I0J147500D01*
G01*
G37*
G36*
G01*
X74620000Y-124902500D02*
X74620000Y-124557500D01*
G75*
G02*
X74767500Y-124410000I147500J0D01*
G01*
X75062500Y-124410000D01*
G75*
G02*
X75210000Y-124557500I0J-147500D01*
G01*
X75210000Y-124902500D01*
G75*
G02*
X75062500Y-125050000I-147500J0D01*
G01*
X74767500Y-125050000D01*
G75*
G02*
X74620000Y-124902500I0J147500D01*
G01*
G37*
%TD*%
D17*
%TO.C,C4*%
X91950000Y-112881700D03*
X91950000Y-115238300D03*
D18*
X92696500Y-114060000D03*
X91203500Y-114060000D03*
%TD*%
D19*
%TO.C,SH1*%
X63585000Y-102715000D03*
X89595000Y-102715000D03*
X89595000Y-128725000D03*
X63585000Y-128725000D03*
D20*
X65370000Y-102715000D03*
X65370000Y-128725000D03*
D21*
X70755000Y-102715000D03*
X70755000Y-128725000D03*
D22*
X76590000Y-102715000D03*
X76590000Y-128725000D03*
D21*
X82425000Y-102715000D03*
X82425000Y-128725000D03*
D20*
X87810000Y-102715000D03*
X87810000Y-128725000D03*
D23*
X63585000Y-104500000D03*
X89595000Y-104500000D03*
D24*
X63585000Y-109885000D03*
X89595000Y-109885000D03*
D25*
X63585000Y-115720000D03*
X89595000Y-115720000D03*
D24*
X63585000Y-121555000D03*
X89595000Y-121555000D03*
D23*
X63585000Y-126940000D03*
X89595000Y-126940000D03*
%TD*%
%TO.C,C1*%
G36*
G01*
X92460000Y-122557500D02*
X92460000Y-122902500D01*
G75*
G02*
X92312500Y-123050000I-147500J0D01*
G01*
X92017500Y-123050000D01*
G75*
G02*
X91870000Y-122902500I0J147500D01*
G01*
X91870000Y-122557500D01*
G75*
G02*
X92017500Y-122410000I147500J0D01*
G01*
X92312500Y-122410000D01*
G75*
G02*
X92460000Y-122557500I0J-147500D01*
G01*
G37*
G36*
G01*
X93430000Y-122557500D02*
X93430000Y-122902500D01*
G75*
G02*
X93282500Y-123050000I-147500J0D01*
G01*
X92987500Y-123050000D01*
G75*
G02*
X92840000Y-122902500I0J147500D01*
G01*
X92840000Y-122557500D01*
G75*
G02*
X92987500Y-122410000I147500J0D01*
G01*
X93282500Y-122410000D01*
G75*
G02*
X93430000Y-122557500I0J-147500D01*
G01*
G37*
%TD*%
%TO.C,C2*%
G36*
G01*
X93430000Y-123577500D02*
X93430000Y-123922500D01*
G75*
G02*
X93282500Y-124070000I-147500J0D01*
G01*
X92987500Y-124070000D01*
G75*
G02*
X92840000Y-123922500I0J147500D01*
G01*
X92840000Y-123577500D01*
G75*
G02*
X92987500Y-123430000I147500J0D01*
G01*
X93282500Y-123430000D01*
G75*
G02*
X93430000Y-123577500I0J-147500D01*
G01*
G37*
G36*
G01*
X92460000Y-123577500D02*
X92460000Y-123922500D01*
G75*
G02*
X92312500Y-124070000I-147500J0D01*
G01*
X92017500Y-124070000D01*
G75*
G02*
X91870000Y-123922500I0J147500D01*
G01*
X91870000Y-123577500D01*
G75*
G02*
X92017500Y-123430000I147500J0D01*
G01*
X92312500Y-123430000D01*
G75*
G02*
X92460000Y-123577500I0J-147500D01*
G01*
G37*
%TD*%
%TO.C,C12*%
G36*
G01*
X101035000Y-121486250D02*
X101035000Y-120973750D01*
G75*
G02*
X101253750Y-120755000I218750J0D01*
G01*
X101691250Y-120755000D01*
G75*
G02*
X101910000Y-120973750I0J-218750D01*
G01*
X101910000Y-121486250D01*
G75*
G02*
X101691250Y-121705000I-218750J0D01*
G01*
X101253750Y-121705000D01*
G75*
G02*
X101035000Y-121486250I0J218750D01*
G01*
G37*
G36*
G01*
X102610000Y-121486250D02*
X102610000Y-120973750D01*
G75*
G02*
X102828750Y-120755000I218750J0D01*
G01*
X103266250Y-120755000D01*
G75*
G02*
X103485000Y-120973750I0J-218750D01*
G01*
X103485000Y-121486250D01*
G75*
G02*
X103266250Y-121705000I-218750J0D01*
G01*
X102828750Y-121705000D01*
G75*
G02*
X102610000Y-121486250I0J218750D01*
G01*
G37*
%TD*%
%TO.C,D1*%
G36*
G01*
X96397500Y-136730000D02*
X96742500Y-136730000D01*
G75*
G02*
X96890000Y-136877500I0J-147500D01*
G01*
X96890000Y-137172500D01*
G75*
G02*
X96742500Y-137320000I-147500J0D01*
G01*
X96397500Y-137320000D01*
G75*
G02*
X96250000Y-137172500I0J147500D01*
G01*
X96250000Y-136877500D01*
G75*
G02*
X96397500Y-136730000I147500J0D01*
G01*
G37*
G36*
G01*
X96397500Y-137700000D02*
X96742500Y-137700000D01*
G75*
G02*
X96890000Y-137847500I0J-147500D01*
G01*
X96890000Y-138142500D01*
G75*
G02*
X96742500Y-138290000I-147500J0D01*
G01*
X96397500Y-138290000D01*
G75*
G02*
X96250000Y-138142500I0J147500D01*
G01*
X96250000Y-137847500D01*
G75*
G02*
X96397500Y-137700000I147500J0D01*
G01*
G37*
%TD*%
%TO.C,R2*%
G36*
G01*
X95087500Y-119490000D02*
X95432500Y-119490000D01*
G75*
G02*
X95580000Y-119637500I0J-147500D01*
G01*
X95580000Y-119932500D01*
G75*
G02*
X95432500Y-120080000I-147500J0D01*
G01*
X95087500Y-120080000D01*
G75*
G02*
X94940000Y-119932500I0J147500D01*
G01*
X94940000Y-119637500D01*
G75*
G02*
X95087500Y-119490000I147500J0D01*
G01*
G37*
G36*
G01*
X95087500Y-120460000D02*
X95432500Y-120460000D01*
G75*
G02*
X95580000Y-120607500I0J-147500D01*
G01*
X95580000Y-120902500D01*
G75*
G02*
X95432500Y-121050000I-147500J0D01*
G01*
X95087500Y-121050000D01*
G75*
G02*
X94940000Y-120902500I0J147500D01*
G01*
X94940000Y-120607500D01*
G75*
G02*
X95087500Y-120460000I147500J0D01*
G01*
G37*
%TD*%
%TO.C,R3*%
G36*
G01*
X72330000Y-126267500D02*
X72330000Y-126612500D01*
G75*
G02*
X72182500Y-126760000I-147500J0D01*
G01*
X71887500Y-126760000D01*
G75*
G02*
X71740000Y-126612500I0J147500D01*
G01*
X71740000Y-126267500D01*
G75*
G02*
X71887500Y-126120000I147500J0D01*
G01*
X72182500Y-126120000D01*
G75*
G02*
X72330000Y-126267500I0J-147500D01*
G01*
G37*
G36*
G01*
X73300000Y-126267500D02*
X73300000Y-126612500D01*
G75*
G02*
X73152500Y-126760000I-147500J0D01*
G01*
X72857500Y-126760000D01*
G75*
G02*
X72710000Y-126612500I0J147500D01*
G01*
X72710000Y-126267500D01*
G75*
G02*
X72857500Y-126120000I147500J0D01*
G01*
X73152500Y-126120000D01*
G75*
G02*
X73300000Y-126267500I0J-147500D01*
G01*
G37*
%TD*%
%TO.C,R5*%
G36*
G01*
X99040000Y-119757500D02*
X99040000Y-120102500D01*
G75*
G02*
X98892500Y-120250000I-147500J0D01*
G01*
X98597500Y-120250000D01*
G75*
G02*
X98450000Y-120102500I0J147500D01*
G01*
X98450000Y-119757500D01*
G75*
G02*
X98597500Y-119610000I147500J0D01*
G01*
X98892500Y-119610000D01*
G75*
G02*
X99040000Y-119757500I0J-147500D01*
G01*
G37*
G36*
G01*
X100010000Y-119757500D02*
X100010000Y-120102500D01*
G75*
G02*
X99862500Y-120250000I-147500J0D01*
G01*
X99567500Y-120250000D01*
G75*
G02*
X99420000Y-120102500I0J147500D01*
G01*
X99420000Y-119757500D01*
G75*
G02*
X99567500Y-119610000I147500J0D01*
G01*
X99862500Y-119610000D01*
G75*
G02*
X100010000Y-119757500I0J-147500D01*
G01*
G37*
%TD*%
%TO.C,R6*%
G36*
G01*
X97487500Y-137700000D02*
X97832500Y-137700000D01*
G75*
G02*
X97980000Y-137847500I0J-147500D01*
G01*
X97980000Y-138142500D01*
G75*
G02*
X97832500Y-138290000I-147500J0D01*
G01*
X97487500Y-138290000D01*
G75*
G02*
X97340000Y-138142500I0J147500D01*
G01*
X97340000Y-137847500D01*
G75*
G02*
X97487500Y-137700000I147500J0D01*
G01*
G37*
G36*
G01*
X97487500Y-136730000D02*
X97832500Y-136730000D01*
G75*
G02*
X97980000Y-136877500I0J-147500D01*
G01*
X97980000Y-137172500D01*
G75*
G02*
X97832500Y-137320000I-147500J0D01*
G01*
X97487500Y-137320000D01*
G75*
G02*
X97340000Y-137172500I0J147500D01*
G01*
X97340000Y-136877500D01*
G75*
G02*
X97487500Y-136730000I147500J0D01*
G01*
G37*
%TD*%
%TO.C,R10*%
G36*
G01*
X79080000Y-125317500D02*
X79080000Y-125662500D01*
G75*
G02*
X78932500Y-125810000I-147500J0D01*
G01*
X78637500Y-125810000D01*
G75*
G02*
X78490000Y-125662500I0J147500D01*
G01*
X78490000Y-125317500D01*
G75*
G02*
X78637500Y-125170000I147500J0D01*
G01*
X78932500Y-125170000D01*
G75*
G02*
X79080000Y-125317500I0J-147500D01*
G01*
G37*
G36*
G01*
X78110000Y-125317500D02*
X78110000Y-125662500D01*
G75*
G02*
X77962500Y-125810000I-147500J0D01*
G01*
X77667500Y-125810000D01*
G75*
G02*
X77520000Y-125662500I0J147500D01*
G01*
X77520000Y-125317500D01*
G75*
G02*
X77667500Y-125170000I147500J0D01*
G01*
X77962500Y-125170000D01*
G75*
G02*
X78110000Y-125317500I0J-147500D01*
G01*
G37*
%TD*%
D26*
%TO.C,J4*%
X53150000Y-120650000D03*
X59650000Y-131350000D03*
D27*
X59500000Y-120650000D03*
%TD*%
D28*
%TO.C,C3*%
X101678300Y-132940000D03*
X99321700Y-132940000D03*
D29*
X100500000Y-133686500D03*
X100500000Y-132193500D03*
%TD*%
M02*
