%TF.GenerationSoftware,KiCad,Pcbnew,(5.1.6-0-10_14)*%
%TF.CreationDate,2021-04-04T15:55:47-05:00*%
%TF.ProjectId,MBRadio_4732_BO3,4d425261-6469-46f5-9f34-3733325f424f,rev?*%
%TF.SameCoordinates,Original*%
%TF.FileFunction,Copper,L1,Top*%
%TF.FilePolarity,Positive*%
%FSLAX46Y46*%
G04 Gerber Fmt 4.6, Leading zero omitted, Abs format (unit mm)*
G04 Created by KiCad (PCBNEW (5.1.6-0-10_14)) date 2021-04-04 15:55:47*
%MOMM*%
%LPD*%
G01*
G04 APERTURE LIST*
%TA.AperFunction,SMDPad,CuDef*%
%ADD10R,1.346200X0.553200*%
%TD*%
%TA.AperFunction,SMDPad,CuDef*%
%ADD11R,0.553200X1.193800*%
%TD*%
%TA.AperFunction,SMDPad,CuDef*%
%ADD12R,0.553200X1.346200*%
%TD*%
%TA.AperFunction,SMDPad,CuDef*%
%ADD13R,1.193800X0.553200*%
%TD*%
%TA.AperFunction,ComponentPad*%
%ADD14C,5.600000*%
%TD*%
%TA.AperFunction,SMDPad,CuDef*%
%ADD15R,0.800000X0.900000*%
%TD*%
%TA.AperFunction,SMDPad,CuDef*%
%ADD16R,2.700000X2.900000*%
%TD*%
%TA.AperFunction,SMDPad,CuDef*%
%ADD17R,2.700000X2.100000*%
%TD*%
%TA.AperFunction,ComponentPad*%
%ADD18R,1.350000X1.350000*%
%TD*%
%TA.AperFunction,ComponentPad*%
%ADD19O,1.350000X1.350000*%
%TD*%
%TA.AperFunction,SMDPad,CuDef*%
%ADD20R,5.080000X2.290000*%
%TD*%
%TA.AperFunction,SMDPad,CuDef*%
%ADD21R,5.080000X2.420000*%
%TD*%
%TA.AperFunction,ViaPad*%
%ADD22C,0.970000*%
%TD*%
%TA.AperFunction,Conductor*%
%ADD23R,0.950000X0.460000*%
%TD*%
%TA.AperFunction,SMDPad,CuDef*%
%ADD24R,1.200000X0.400000*%
%TD*%
%TA.AperFunction,SMDPad,CuDef*%
%ADD25R,1.100000X1.300000*%
%TD*%
%TA.AperFunction,ComponentPad*%
%ADD26R,1.700000X1.700000*%
%TD*%
%TA.AperFunction,ComponentPad*%
%ADD27O,1.700000X1.700000*%
%TD*%
%TA.AperFunction,SMDPad,CuDef*%
%ADD28R,1.000000X1.000000*%
%TD*%
%TA.AperFunction,SMDPad,CuDef*%
%ADD29R,2.570000X1.000000*%
%TD*%
%TA.AperFunction,SMDPad,CuDef*%
%ADD30R,3.800000X1.000000*%
%TD*%
%TA.AperFunction,SMDPad,CuDef*%
%ADD31R,3.470000X1.000000*%
%TD*%
%TA.AperFunction,SMDPad,CuDef*%
%ADD32R,1.000000X2.570000*%
%TD*%
%TA.AperFunction,SMDPad,CuDef*%
%ADD33R,1.000000X3.800000*%
%TD*%
%TA.AperFunction,SMDPad,CuDef*%
%ADD34R,1.000000X3.470000*%
%TD*%
%TA.AperFunction,ComponentPad*%
%ADD35R,1.800000X1.800000*%
%TD*%
%TA.AperFunction,ComponentPad*%
%ADD36C,1.800000*%
%TD*%
%TA.AperFunction,SMDPad,CuDef*%
%ADD37C,0.100000*%
%TD*%
%TA.AperFunction,SMDPad,CuDef*%
%ADD38R,2.900000X2.700000*%
%TD*%
%TA.AperFunction,SMDPad,CuDef*%
%ADD39R,2.100000X2.700000*%
%TD*%
%TA.AperFunction,ViaPad*%
%ADD40C,0.800000*%
%TD*%
%TA.AperFunction,ViaPad*%
%ADD41C,0.600000*%
%TD*%
%TA.AperFunction,Conductor*%
%ADD42C,0.250000*%
%TD*%
%TA.AperFunction,Conductor*%
%ADD43C,0.350000*%
%TD*%
%TA.AperFunction,Conductor*%
%ADD44C,0.500000*%
%TD*%
%TA.AperFunction,Conductor*%
%ADD45C,0.200000*%
%TD*%
G04 APERTURE END LIST*
D10*
%TO.P,C4,1*%
%TO.N,Net-(C10-Pad1)*%
X91950000Y-112881700D03*
%TO.P,C4,3*%
%TO.N,+3V3*%
X91950000Y-115238300D03*
D11*
%TO.P,C4,2*%
%TO.N,GND*%
X92696500Y-114060000D03*
X91203500Y-114060000D03*
%TD*%
D12*
%TO.P,C3,1*%
%TO.N,Net-(C3-Pad1)*%
X101678300Y-132940000D03*
%TO.P,C3,3*%
%TO.N,+3V3*%
X99321700Y-132940000D03*
D13*
%TO.P,C3,2*%
%TO.N,GND*%
X100500000Y-133686500D03*
X100500000Y-132193500D03*
%TD*%
%TO.P,R12,1*%
%TO.N,Net-(C12-Pad2)*%
%TA.AperFunction,SMDPad,CuDef*%
G36*
G01*
X102720000Y-120102500D02*
X102720000Y-119757500D01*
G75*
G02*
X102867500Y-119610000I147500J0D01*
G01*
X103162500Y-119610000D01*
G75*
G02*
X103310000Y-119757500I0J-147500D01*
G01*
X103310000Y-120102500D01*
G75*
G02*
X103162500Y-120250000I-147500J0D01*
G01*
X102867500Y-120250000D01*
G75*
G02*
X102720000Y-120102500I0J147500D01*
G01*
G37*
%TD.AperFunction*%
%TO.P,R12,2*%
%TO.N,L-OUT*%
%TA.AperFunction,SMDPad,CuDef*%
G36*
G01*
X103690000Y-120102500D02*
X103690000Y-119757500D01*
G75*
G02*
X103837500Y-119610000I147500J0D01*
G01*
X104132500Y-119610000D01*
G75*
G02*
X104280000Y-119757500I0J-147500D01*
G01*
X104280000Y-120102500D01*
G75*
G02*
X104132500Y-120250000I-147500J0D01*
G01*
X103837500Y-120250000D01*
G75*
G02*
X103690000Y-120102500I0J147500D01*
G01*
G37*
%TD.AperFunction*%
%TD*%
%TO.P,R13,2*%
%TO.N,Net-(C12-Pad1)*%
%TA.AperFunction,SMDPad,CuDef*%
G36*
G01*
X103910000Y-123617500D02*
X103910000Y-123962500D01*
G75*
G02*
X103762500Y-124110000I-147500J0D01*
G01*
X103467500Y-124110000D01*
G75*
G02*
X103320000Y-123962500I0J147500D01*
G01*
X103320000Y-123617500D01*
G75*
G02*
X103467500Y-123470000I147500J0D01*
G01*
X103762500Y-123470000D01*
G75*
G02*
X103910000Y-123617500I0J-147500D01*
G01*
G37*
%TD.AperFunction*%
%TO.P,R13,1*%
%TO.N,Net-(C14-Pad2)*%
%TA.AperFunction,SMDPad,CuDef*%
G36*
G01*
X104880000Y-123617500D02*
X104880000Y-123962500D01*
G75*
G02*
X104732500Y-124110000I-147500J0D01*
G01*
X104437500Y-124110000D01*
G75*
G02*
X104290000Y-123962500I0J147500D01*
G01*
X104290000Y-123617500D01*
G75*
G02*
X104437500Y-123470000I147500J0D01*
G01*
X104732500Y-123470000D01*
G75*
G02*
X104880000Y-123617500I0J-147500D01*
G01*
G37*
%TD.AperFunction*%
%TD*%
D14*
%TO.P,REF\u002A\u002A,*%
%TO.N,GND*%
X111500000Y-136500000D03*
%TD*%
%TO.P,REF\u002A\u002A,*%
%TO.N,GND*%
X111500000Y-103500000D03*
%TD*%
%TO.P,REF\u002A\u002A,*%
%TO.N,Earth*%
X53500000Y-136500000D03*
%TD*%
%TO.P,REF\u002A\u002A,*%
%TO.N,Earth*%
X53500000Y-103500000D03*
%TD*%
%TO.P,C10,2*%
%TO.N,Net-(C10-Pad2)*%
%TA.AperFunction,SMDPad,CuDef*%
G36*
G01*
X85412500Y-117020000D02*
X85067500Y-117020000D01*
G75*
G02*
X84920000Y-116872500I0J147500D01*
G01*
X84920000Y-116577500D01*
G75*
G02*
X85067500Y-116430000I147500J0D01*
G01*
X85412500Y-116430000D01*
G75*
G02*
X85560000Y-116577500I0J-147500D01*
G01*
X85560000Y-116872500D01*
G75*
G02*
X85412500Y-117020000I-147500J0D01*
G01*
G37*
%TD.AperFunction*%
%TO.P,C10,1*%
%TO.N,Net-(C10-Pad1)*%
%TA.AperFunction,SMDPad,CuDef*%
G36*
G01*
X85412500Y-117990000D02*
X85067500Y-117990000D01*
G75*
G02*
X84920000Y-117842500I0J147500D01*
G01*
X84920000Y-117547500D01*
G75*
G02*
X85067500Y-117400000I147500J0D01*
G01*
X85412500Y-117400000D01*
G75*
G02*
X85560000Y-117547500I0J-147500D01*
G01*
X85560000Y-117842500D01*
G75*
G02*
X85412500Y-117990000I-147500J0D01*
G01*
G37*
%TD.AperFunction*%
%TD*%
%TO.P,C13,2*%
%TO.N,GND*%
%TA.AperFunction,SMDPad,CuDef*%
G36*
G01*
X96816250Y-127030000D02*
X96303750Y-127030000D01*
G75*
G02*
X96085000Y-126811250I0J218750D01*
G01*
X96085000Y-126373750D01*
G75*
G02*
X96303750Y-126155000I218750J0D01*
G01*
X96816250Y-126155000D01*
G75*
G02*
X97035000Y-126373750I0J-218750D01*
G01*
X97035000Y-126811250D01*
G75*
G02*
X96816250Y-127030000I-218750J0D01*
G01*
G37*
%TD.AperFunction*%
%TO.P,C13,1*%
%TO.N,Net-(C13-Pad1)*%
%TA.AperFunction,SMDPad,CuDef*%
G36*
G01*
X96816250Y-128605000D02*
X96303750Y-128605000D01*
G75*
G02*
X96085000Y-128386250I0J218750D01*
G01*
X96085000Y-127948750D01*
G75*
G02*
X96303750Y-127730000I218750J0D01*
G01*
X96816250Y-127730000D01*
G75*
G02*
X97035000Y-127948750I0J-218750D01*
G01*
X97035000Y-128386250D01*
G75*
G02*
X96816250Y-128605000I-218750J0D01*
G01*
G37*
%TD.AperFunction*%
%TD*%
%TO.P,U5,1*%
%TO.N,GND*%
%TA.AperFunction,SMDPad,CuDef*%
G36*
G01*
X97790000Y-126745000D02*
X97790000Y-126445000D01*
G75*
G02*
X97940000Y-126295000I150000J0D01*
G01*
X99590000Y-126295000D01*
G75*
G02*
X99740000Y-126445000I0J-150000D01*
G01*
X99740000Y-126745000D01*
G75*
G02*
X99590000Y-126895000I-150000J0D01*
G01*
X97940000Y-126895000D01*
G75*
G02*
X97790000Y-126745000I0J150000D01*
G01*
G37*
%TD.AperFunction*%
%TO.P,U5,2*%
%TO.N,Net-(C13-Pad1)*%
%TA.AperFunction,SMDPad,CuDef*%
G36*
G01*
X97790000Y-128015000D02*
X97790000Y-127715000D01*
G75*
G02*
X97940000Y-127565000I150000J0D01*
G01*
X99590000Y-127565000D01*
G75*
G02*
X99740000Y-127715000I0J-150000D01*
G01*
X99740000Y-128015000D01*
G75*
G02*
X99590000Y-128165000I-150000J0D01*
G01*
X97940000Y-128165000D01*
G75*
G02*
X97790000Y-128015000I0J150000D01*
G01*
G37*
%TD.AperFunction*%
%TO.P,U5,3*%
%TA.AperFunction,SMDPad,CuDef*%
G36*
G01*
X97790000Y-129285000D02*
X97790000Y-128985000D01*
G75*
G02*
X97940000Y-128835000I150000J0D01*
G01*
X99590000Y-128835000D01*
G75*
G02*
X99740000Y-128985000I0J-150000D01*
G01*
X99740000Y-129285000D01*
G75*
G02*
X99590000Y-129435000I-150000J0D01*
G01*
X97940000Y-129435000D01*
G75*
G02*
X97790000Y-129285000I0J150000D01*
G01*
G37*
%TD.AperFunction*%
%TO.P,U5,4*%
%TO.N,Net-(C12-Pad1)*%
%TA.AperFunction,SMDPad,CuDef*%
G36*
G01*
X97790000Y-130555000D02*
X97790000Y-130255000D01*
G75*
G02*
X97940000Y-130105000I150000J0D01*
G01*
X99590000Y-130105000D01*
G75*
G02*
X99740000Y-130255000I0J-150000D01*
G01*
X99740000Y-130555000D01*
G75*
G02*
X99590000Y-130705000I-150000J0D01*
G01*
X97940000Y-130705000D01*
G75*
G02*
X97790000Y-130555000I0J150000D01*
G01*
G37*
%TD.AperFunction*%
%TO.P,U5,5*%
%TO.N,Net-(C14-Pad2)*%
%TA.AperFunction,SMDPad,CuDef*%
G36*
G01*
X102740000Y-130555000D02*
X102740000Y-130255000D01*
G75*
G02*
X102890000Y-130105000I150000J0D01*
G01*
X104540000Y-130105000D01*
G75*
G02*
X104690000Y-130255000I0J-150000D01*
G01*
X104690000Y-130555000D01*
G75*
G02*
X104540000Y-130705000I-150000J0D01*
G01*
X102890000Y-130705000D01*
G75*
G02*
X102740000Y-130555000I0J150000D01*
G01*
G37*
%TD.AperFunction*%
%TO.P,U5,6*%
%TO.N,Net-(C3-Pad1)*%
%TA.AperFunction,SMDPad,CuDef*%
G36*
G01*
X102740000Y-129285000D02*
X102740000Y-128985000D01*
G75*
G02*
X102890000Y-128835000I150000J0D01*
G01*
X104540000Y-128835000D01*
G75*
G02*
X104690000Y-128985000I0J-150000D01*
G01*
X104690000Y-129285000D01*
G75*
G02*
X104540000Y-129435000I-150000J0D01*
G01*
X102890000Y-129435000D01*
G75*
G02*
X102740000Y-129285000I0J150000D01*
G01*
G37*
%TD.AperFunction*%
%TO.P,U5,7*%
%TO.N,GND*%
%TA.AperFunction,SMDPad,CuDef*%
G36*
G01*
X102740000Y-128015000D02*
X102740000Y-127715000D01*
G75*
G02*
X102890000Y-127565000I150000J0D01*
G01*
X104540000Y-127565000D01*
G75*
G02*
X104690000Y-127715000I0J-150000D01*
G01*
X104690000Y-128015000D01*
G75*
G02*
X104540000Y-128165000I-150000J0D01*
G01*
X102890000Y-128165000D01*
G75*
G02*
X102740000Y-128015000I0J150000D01*
G01*
G37*
%TD.AperFunction*%
%TO.P,U5,8*%
%TO.N,Net-(J6-Pad1)*%
%TA.AperFunction,SMDPad,CuDef*%
G36*
G01*
X102740000Y-126745000D02*
X102740000Y-126445000D01*
G75*
G02*
X102890000Y-126295000I150000J0D01*
G01*
X104540000Y-126295000D01*
G75*
G02*
X104690000Y-126445000I0J-150000D01*
G01*
X104690000Y-126745000D01*
G75*
G02*
X104540000Y-126895000I-150000J0D01*
G01*
X102890000Y-126895000D01*
G75*
G02*
X102740000Y-126745000I0J150000D01*
G01*
G37*
%TD.AperFunction*%
%TD*%
%TO.P,C6,1*%
%TO.N,Net-(C6-Pad1)*%
%TA.AperFunction,SMDPad,CuDef*%
G36*
G01*
X64580000Y-112942500D02*
X64580000Y-112597500D01*
G75*
G02*
X64727500Y-112450000I147500J0D01*
G01*
X65022500Y-112450000D01*
G75*
G02*
X65170000Y-112597500I0J-147500D01*
G01*
X65170000Y-112942500D01*
G75*
G02*
X65022500Y-113090000I-147500J0D01*
G01*
X64727500Y-113090000D01*
G75*
G02*
X64580000Y-112942500I0J147500D01*
G01*
G37*
%TD.AperFunction*%
%TO.P,C6,2*%
%TO.N,FM-SW*%
%TA.AperFunction,SMDPad,CuDef*%
G36*
G01*
X65550000Y-112942500D02*
X65550000Y-112597500D01*
G75*
G02*
X65697500Y-112450000I147500J0D01*
G01*
X65992500Y-112450000D01*
G75*
G02*
X66140000Y-112597500I0J-147500D01*
G01*
X66140000Y-112942500D01*
G75*
G02*
X65992500Y-113090000I-147500J0D01*
G01*
X65697500Y-113090000D01*
G75*
G02*
X65550000Y-112942500I0J147500D01*
G01*
G37*
%TD.AperFunction*%
%TD*%
%TO.P,C9,2*%
%TO.N,AM*%
%TA.AperFunction,SMDPad,CuDef*%
G36*
G01*
X65570000Y-124772500D02*
X65570000Y-124427500D01*
G75*
G02*
X65717500Y-124280000I147500J0D01*
G01*
X66012500Y-124280000D01*
G75*
G02*
X66160000Y-124427500I0J-147500D01*
G01*
X66160000Y-124772500D01*
G75*
G02*
X66012500Y-124920000I-147500J0D01*
G01*
X65717500Y-124920000D01*
G75*
G02*
X65570000Y-124772500I0J147500D01*
G01*
G37*
%TD.AperFunction*%
%TO.P,C9,1*%
%TO.N,Net-(C9-Pad1)*%
%TA.AperFunction,SMDPad,CuDef*%
G36*
G01*
X64600000Y-124772500D02*
X64600000Y-124427500D01*
G75*
G02*
X64747500Y-124280000I147500J0D01*
G01*
X65042500Y-124280000D01*
G75*
G02*
X65190000Y-124427500I0J-147500D01*
G01*
X65190000Y-124772500D01*
G75*
G02*
X65042500Y-124920000I-147500J0D01*
G01*
X64747500Y-124920000D01*
G75*
G02*
X64600000Y-124772500I0J147500D01*
G01*
G37*
%TD.AperFunction*%
%TD*%
%TO.P,C14,1*%
%TO.N,Net-(C12-Pad1)*%
%TA.AperFunction,SMDPad,CuDef*%
G36*
G01*
X103340000Y-122842500D02*
X103340000Y-122497500D01*
G75*
G02*
X103487500Y-122350000I147500J0D01*
G01*
X103782500Y-122350000D01*
G75*
G02*
X103930000Y-122497500I0J-147500D01*
G01*
X103930000Y-122842500D01*
G75*
G02*
X103782500Y-122990000I-147500J0D01*
G01*
X103487500Y-122990000D01*
G75*
G02*
X103340000Y-122842500I0J147500D01*
G01*
G37*
%TD.AperFunction*%
%TO.P,C14,2*%
%TO.N,Net-(C14-Pad2)*%
%TA.AperFunction,SMDPad,CuDef*%
G36*
G01*
X104310000Y-122842500D02*
X104310000Y-122497500D01*
G75*
G02*
X104457500Y-122350000I147500J0D01*
G01*
X104752500Y-122350000D01*
G75*
G02*
X104900000Y-122497500I0J-147500D01*
G01*
X104900000Y-122842500D01*
G75*
G02*
X104752500Y-122990000I-147500J0D01*
G01*
X104457500Y-122990000D01*
G75*
G02*
X104310000Y-122842500I0J147500D01*
G01*
G37*
%TD.AperFunction*%
%TD*%
D15*
%TO.P,D2,1*%
%TO.N,FM-SW*%
X68100000Y-110780000D03*
%TO.P,D2,2*%
%TO.N,Earth*%
X70000000Y-110780000D03*
%TO.P,D2,3*%
X69050000Y-108780000D03*
%TD*%
D16*
%TO.P,J3,1*%
%TO.N,GND*%
X106350000Y-103300000D03*
%TO.P,J3,2*%
%TO.N,R-OUT*%
X95650000Y-109800000D03*
D17*
%TO.P,J3,3*%
%TO.N,L-OUT*%
X106350000Y-109650000D03*
%TD*%
%TO.P,L1,1*%
%TO.N,FM-SW*%
%TA.AperFunction,SMDPad,CuDef*%
G36*
G01*
X67675000Y-112996250D02*
X67675000Y-112483750D01*
G75*
G02*
X67893750Y-112265000I218750J0D01*
G01*
X68331250Y-112265000D01*
G75*
G02*
X68550000Y-112483750I0J-218750D01*
G01*
X68550000Y-112996250D01*
G75*
G02*
X68331250Y-113215000I-218750J0D01*
G01*
X67893750Y-113215000D01*
G75*
G02*
X67675000Y-112996250I0J218750D01*
G01*
G37*
%TD.AperFunction*%
%TO.P,L1,2*%
%TO.N,Earth*%
%TA.AperFunction,SMDPad,CuDef*%
G36*
G01*
X69250000Y-112996250D02*
X69250000Y-112483750D01*
G75*
G02*
X69468750Y-112265000I218750J0D01*
G01*
X69906250Y-112265000D01*
G75*
G02*
X70125000Y-112483750I0J-218750D01*
G01*
X70125000Y-112996250D01*
G75*
G02*
X69906250Y-113215000I-218750J0D01*
G01*
X69468750Y-113215000D01*
G75*
G02*
X69250000Y-112996250I0J218750D01*
G01*
G37*
%TD.AperFunction*%
%TD*%
%TO.P,U1,1*%
%TO.N,Net-(C15-Pad1)*%
%TA.AperFunction,SMDPad,CuDef*%
G36*
G01*
X68020000Y-114695000D02*
X68020000Y-114395000D01*
G75*
G02*
X68170000Y-114245000I150000J0D01*
G01*
X69820000Y-114245000D01*
G75*
G02*
X69970000Y-114395000I0J-150000D01*
G01*
X69970000Y-114695000D01*
G75*
G02*
X69820000Y-114845000I-150000J0D01*
G01*
X68170000Y-114845000D01*
G75*
G02*
X68020000Y-114695000I0J150000D01*
G01*
G37*
%TD.AperFunction*%
%TO.P,U1,2*%
%TO.N,Net-(U1-Pad2)*%
%TA.AperFunction,SMDPad,CuDef*%
G36*
G01*
X68020000Y-115965000D02*
X68020000Y-115665000D01*
G75*
G02*
X68170000Y-115515000I150000J0D01*
G01*
X69820000Y-115515000D01*
G75*
G02*
X69970000Y-115665000I0J-150000D01*
G01*
X69970000Y-115965000D01*
G75*
G02*
X69820000Y-116115000I-150000J0D01*
G01*
X68170000Y-116115000D01*
G75*
G02*
X68020000Y-115965000I0J150000D01*
G01*
G37*
%TD.AperFunction*%
%TO.P,U1,3*%
%TO.N,Net-(U1-Pad3)*%
%TA.AperFunction,SMDPad,CuDef*%
G36*
G01*
X68020000Y-117235000D02*
X68020000Y-116935000D01*
G75*
G02*
X68170000Y-116785000I150000J0D01*
G01*
X69820000Y-116785000D01*
G75*
G02*
X69970000Y-116935000I0J-150000D01*
G01*
X69970000Y-117235000D01*
G75*
G02*
X69820000Y-117385000I-150000J0D01*
G01*
X68170000Y-117385000D01*
G75*
G02*
X68020000Y-117235000I0J150000D01*
G01*
G37*
%TD.AperFunction*%
%TO.P,U1,4*%
%TO.N,Net-(R10-Pad1)*%
%TA.AperFunction,SMDPad,CuDef*%
G36*
G01*
X68020000Y-118505000D02*
X68020000Y-118205000D01*
G75*
G02*
X68170000Y-118055000I150000J0D01*
G01*
X69820000Y-118055000D01*
G75*
G02*
X69970000Y-118205000I0J-150000D01*
G01*
X69970000Y-118505000D01*
G75*
G02*
X69820000Y-118655000I-150000J0D01*
G01*
X68170000Y-118655000D01*
G75*
G02*
X68020000Y-118505000I0J150000D01*
G01*
G37*
%TD.AperFunction*%
%TO.P,U1,5*%
%TO.N,Net-(U1-Pad5)*%
%TA.AperFunction,SMDPad,CuDef*%
G36*
G01*
X68020000Y-119775000D02*
X68020000Y-119475000D01*
G75*
G02*
X68170000Y-119325000I150000J0D01*
G01*
X69820000Y-119325000D01*
G75*
G02*
X69970000Y-119475000I0J-150000D01*
G01*
X69970000Y-119775000D01*
G75*
G02*
X69820000Y-119925000I-150000J0D01*
G01*
X68170000Y-119925000D01*
G75*
G02*
X68020000Y-119775000I0J150000D01*
G01*
G37*
%TD.AperFunction*%
%TO.P,U1,6*%
%TO.N,FM-SW*%
%TA.AperFunction,SMDPad,CuDef*%
G36*
G01*
X68020000Y-121045000D02*
X68020000Y-120745000D01*
G75*
G02*
X68170000Y-120595000I150000J0D01*
G01*
X69820000Y-120595000D01*
G75*
G02*
X69970000Y-120745000I0J-150000D01*
G01*
X69970000Y-121045000D01*
G75*
G02*
X69820000Y-121195000I-150000J0D01*
G01*
X68170000Y-121195000D01*
G75*
G02*
X68020000Y-121045000I0J150000D01*
G01*
G37*
%TD.AperFunction*%
%TO.P,U1,7*%
%TO.N,Earth*%
%TA.AperFunction,SMDPad,CuDef*%
G36*
G01*
X68020000Y-122315000D02*
X68020000Y-122015000D01*
G75*
G02*
X68170000Y-121865000I150000J0D01*
G01*
X69820000Y-121865000D01*
G75*
G02*
X69970000Y-122015000I0J-150000D01*
G01*
X69970000Y-122315000D01*
G75*
G02*
X69820000Y-122465000I-150000J0D01*
G01*
X68170000Y-122465000D01*
G75*
G02*
X68020000Y-122315000I0J150000D01*
G01*
G37*
%TD.AperFunction*%
%TO.P,U1,8*%
%TO.N,AM*%
%TA.AperFunction,SMDPad,CuDef*%
G36*
G01*
X68020000Y-123585000D02*
X68020000Y-123285000D01*
G75*
G02*
X68170000Y-123135000I150000J0D01*
G01*
X69820000Y-123135000D01*
G75*
G02*
X69970000Y-123285000I0J-150000D01*
G01*
X69970000Y-123585000D01*
G75*
G02*
X69820000Y-123735000I-150000J0D01*
G01*
X68170000Y-123735000D01*
G75*
G02*
X68020000Y-123585000I0J150000D01*
G01*
G37*
%TD.AperFunction*%
%TO.P,U1,9*%
%TO.N,Net-(R16-Pad1)*%
%TA.AperFunction,SMDPad,CuDef*%
G36*
G01*
X72970000Y-123585000D02*
X72970000Y-123285000D01*
G75*
G02*
X73120000Y-123135000I150000J0D01*
G01*
X74770000Y-123135000D01*
G75*
G02*
X74920000Y-123285000I0J-150000D01*
G01*
X74920000Y-123585000D01*
G75*
G02*
X74770000Y-123735000I-150000J0D01*
G01*
X73120000Y-123735000D01*
G75*
G02*
X72970000Y-123585000I0J150000D01*
G01*
G37*
%TD.AperFunction*%
%TO.P,U1,10*%
%TO.N,Net-(R15-Pad1)*%
%TA.AperFunction,SMDPad,CuDef*%
G36*
G01*
X72970000Y-122315000D02*
X72970000Y-122015000D01*
G75*
G02*
X73120000Y-121865000I150000J0D01*
G01*
X74770000Y-121865000D01*
G75*
G02*
X74920000Y-122015000I0J-150000D01*
G01*
X74920000Y-122315000D01*
G75*
G02*
X74770000Y-122465000I-150000J0D01*
G01*
X73120000Y-122465000D01*
G75*
G02*
X72970000Y-122315000I0J150000D01*
G01*
G37*
%TD.AperFunction*%
%TO.P,U1,11*%
%TO.N,Net-(R1-Pad2)*%
%TA.AperFunction,SMDPad,CuDef*%
G36*
G01*
X72970000Y-121045000D02*
X72970000Y-120745000D01*
G75*
G02*
X73120000Y-120595000I150000J0D01*
G01*
X74770000Y-120595000D01*
G75*
G02*
X74920000Y-120745000I0J-150000D01*
G01*
X74920000Y-121045000D01*
G75*
G02*
X74770000Y-121195000I-150000J0D01*
G01*
X73120000Y-121195000D01*
G75*
G02*
X72970000Y-121045000I0J150000D01*
G01*
G37*
%TD.AperFunction*%
%TO.P,U1,12*%
%TO.N,Net-(R11-Pad1)*%
%TA.AperFunction,SMDPad,CuDef*%
G36*
G01*
X72970000Y-119775000D02*
X72970000Y-119475000D01*
G75*
G02*
X73120000Y-119325000I150000J0D01*
G01*
X74770000Y-119325000D01*
G75*
G02*
X74920000Y-119475000I0J-150000D01*
G01*
X74920000Y-119775000D01*
G75*
G02*
X74770000Y-119925000I-150000J0D01*
G01*
X73120000Y-119925000D01*
G75*
G02*
X72970000Y-119775000I0J150000D01*
G01*
G37*
%TD.AperFunction*%
%TO.P,U1,13*%
%TO.N,Net-(R9-Pad2)*%
%TA.AperFunction,SMDPad,CuDef*%
G36*
G01*
X72970000Y-118505000D02*
X72970000Y-118205000D01*
G75*
G02*
X73120000Y-118055000I150000J0D01*
G01*
X74770000Y-118055000D01*
G75*
G02*
X74920000Y-118205000I0J-150000D01*
G01*
X74920000Y-118505000D01*
G75*
G02*
X74770000Y-118655000I-150000J0D01*
G01*
X73120000Y-118655000D01*
G75*
G02*
X72970000Y-118505000I0J150000D01*
G01*
G37*
%TD.AperFunction*%
%TO.P,U1,14*%
%TO.N,Net-(C10-Pad1)*%
%TA.AperFunction,SMDPad,CuDef*%
G36*
G01*
X72970000Y-117235000D02*
X72970000Y-116935000D01*
G75*
G02*
X73120000Y-116785000I150000J0D01*
G01*
X74770000Y-116785000D01*
G75*
G02*
X74920000Y-116935000I0J-150000D01*
G01*
X74920000Y-117235000D01*
G75*
G02*
X74770000Y-117385000I-150000J0D01*
G01*
X73120000Y-117385000D01*
G75*
G02*
X72970000Y-117235000I0J150000D01*
G01*
G37*
%TD.AperFunction*%
%TO.P,U1,15*%
%TO.N,GND*%
%TA.AperFunction,SMDPad,CuDef*%
G36*
G01*
X72970000Y-115965000D02*
X72970000Y-115665000D01*
G75*
G02*
X73120000Y-115515000I150000J0D01*
G01*
X74770000Y-115515000D01*
G75*
G02*
X74920000Y-115665000I0J-150000D01*
G01*
X74920000Y-115965000D01*
G75*
G02*
X74770000Y-116115000I-150000J0D01*
G01*
X73120000Y-116115000D01*
G75*
G02*
X72970000Y-115965000I0J150000D01*
G01*
G37*
%TD.AperFunction*%
%TO.P,U1,16*%
%TO.N,Net-(C11-Pad1)*%
%TA.AperFunction,SMDPad,CuDef*%
G36*
G01*
X72970000Y-114695000D02*
X72970000Y-114395000D01*
G75*
G02*
X73120000Y-114245000I150000J0D01*
G01*
X74770000Y-114245000D01*
G75*
G02*
X74920000Y-114395000I0J-150000D01*
G01*
X74920000Y-114695000D01*
G75*
G02*
X74770000Y-114845000I-150000J0D01*
G01*
X73120000Y-114845000D01*
G75*
G02*
X72970000Y-114695000I0J150000D01*
G01*
G37*
%TD.AperFunction*%
%TD*%
D18*
%TO.P,JP1,1*%
%TO.N,Net-(JP1-Pad1)*%
X67220000Y-132490000D03*
D19*
%TO.P,JP1,2*%
%TO.N,GND*%
X65220000Y-132490000D03*
%TD*%
%TO.P,R1,1*%
%TO.N,+3V3*%
%TA.AperFunction,SMDPad,CuDef*%
G36*
G01*
X86590000Y-121557500D02*
X86590000Y-121902500D01*
G75*
G02*
X86442500Y-122050000I-147500J0D01*
G01*
X86147500Y-122050000D01*
G75*
G02*
X86000000Y-121902500I0J147500D01*
G01*
X86000000Y-121557500D01*
G75*
G02*
X86147500Y-121410000I147500J0D01*
G01*
X86442500Y-121410000D01*
G75*
G02*
X86590000Y-121557500I0J-147500D01*
G01*
G37*
%TD.AperFunction*%
%TO.P,R1,2*%
%TO.N,Net-(R1-Pad2)*%
%TA.AperFunction,SMDPad,CuDef*%
G36*
G01*
X85620000Y-121557500D02*
X85620000Y-121902500D01*
G75*
G02*
X85472500Y-122050000I-147500J0D01*
G01*
X85177500Y-122050000D01*
G75*
G02*
X85030000Y-121902500I0J147500D01*
G01*
X85030000Y-121557500D01*
G75*
G02*
X85177500Y-121410000I147500J0D01*
G01*
X85472500Y-121410000D01*
G75*
G02*
X85620000Y-121557500I0J-147500D01*
G01*
G37*
%TD.AperFunction*%
%TD*%
%TO.P,R4,2*%
%TO.N,Net-(R11-Pad1)*%
%TA.AperFunction,SMDPad,CuDef*%
G36*
G01*
X85620000Y-120537500D02*
X85620000Y-120882500D01*
G75*
G02*
X85472500Y-121030000I-147500J0D01*
G01*
X85177500Y-121030000D01*
G75*
G02*
X85030000Y-120882500I0J147500D01*
G01*
X85030000Y-120537500D01*
G75*
G02*
X85177500Y-120390000I147500J0D01*
G01*
X85472500Y-120390000D01*
G75*
G02*
X85620000Y-120537500I0J-147500D01*
G01*
G37*
%TD.AperFunction*%
%TO.P,R4,1*%
%TO.N,+3V3*%
%TA.AperFunction,SMDPad,CuDef*%
G36*
G01*
X86590000Y-120537500D02*
X86590000Y-120882500D01*
G75*
G02*
X86442500Y-121030000I-147500J0D01*
G01*
X86147500Y-121030000D01*
G75*
G02*
X86000000Y-120882500I0J147500D01*
G01*
X86000000Y-120537500D01*
G75*
G02*
X86147500Y-120390000I147500J0D01*
G01*
X86442500Y-120390000D01*
G75*
G02*
X86590000Y-120537500I0J-147500D01*
G01*
G37*
%TD.AperFunction*%
%TD*%
D20*
%TO.P,J5,1*%
%TO.N,Net-(C6-Pad1)*%
X53030000Y-112750000D03*
D21*
%TO.P,J5,2*%
%TO.N,Earth*%
X53030000Y-108370000D03*
X53030000Y-117130000D03*
D22*
%TD*%
%TO.N,Earth*%
%TO.C,J5*%
X56470000Y-108370000D03*
%TO.N,Earth*%
%TO.C,J5*%
X56470000Y-117130000D03*
D23*
X56020000Y-108370000D03*
X56020000Y-117130000D03*
%TD*%
D15*
%TO.P,Q1,1*%
%TO.N,Net-(Q1-Pad1)*%
X97910000Y-117200000D03*
%TO.P,Q1,2*%
%TO.N,GND*%
X99810000Y-117200000D03*
%TO.P,Q1,3*%
%TO.N,R-OUT*%
X98860000Y-115200000D03*
%TD*%
%TO.P,Q2,3*%
%TO.N,L-OUT*%
X103020000Y-115210000D03*
%TO.P,Q2,2*%
%TO.N,GND*%
X103970000Y-117210000D03*
%TO.P,Q2,1*%
%TO.N,Net-(Q2-Pad1)*%
X102070000Y-117210000D03*
%TD*%
%TO.P,R7,1*%
%TO.N,Net-(Q2-Pad1)*%
%TA.AperFunction,SMDPad,CuDef*%
G36*
G01*
X102365000Y-118527500D02*
X102365000Y-118872500D01*
G75*
G02*
X102217500Y-119020000I-147500J0D01*
G01*
X101922500Y-119020000D01*
G75*
G02*
X101775000Y-118872500I0J147500D01*
G01*
X101775000Y-118527500D01*
G75*
G02*
X101922500Y-118380000I147500J0D01*
G01*
X102217500Y-118380000D01*
G75*
G02*
X102365000Y-118527500I0J-147500D01*
G01*
G37*
%TD.AperFunction*%
%TO.P,R7,2*%
%TO.N,Net-(J7-Pad6)*%
%TA.AperFunction,SMDPad,CuDef*%
G36*
G01*
X101395000Y-118527500D02*
X101395000Y-118872500D01*
G75*
G02*
X101247500Y-119020000I-147500J0D01*
G01*
X100952500Y-119020000D01*
G75*
G02*
X100805000Y-118872500I0J147500D01*
G01*
X100805000Y-118527500D01*
G75*
G02*
X100952500Y-118380000I147500J0D01*
G01*
X101247500Y-118380000D01*
G75*
G02*
X101395000Y-118527500I0J-147500D01*
G01*
G37*
%TD.AperFunction*%
%TD*%
%TO.P,R8,1*%
%TO.N,Net-(Q1-Pad1)*%
%TA.AperFunction,SMDPad,CuDef*%
G36*
G01*
X97615000Y-118872500D02*
X97615000Y-118527500D01*
G75*
G02*
X97762500Y-118380000I147500J0D01*
G01*
X98057500Y-118380000D01*
G75*
G02*
X98205000Y-118527500I0J-147500D01*
G01*
X98205000Y-118872500D01*
G75*
G02*
X98057500Y-119020000I-147500J0D01*
G01*
X97762500Y-119020000D01*
G75*
G02*
X97615000Y-118872500I0J147500D01*
G01*
G37*
%TD.AperFunction*%
%TO.P,R8,2*%
%TO.N,Net-(J7-Pad6)*%
%TA.AperFunction,SMDPad,CuDef*%
G36*
G01*
X98585000Y-118872500D02*
X98585000Y-118527500D01*
G75*
G02*
X98732500Y-118380000I147500J0D01*
G01*
X99027500Y-118380000D01*
G75*
G02*
X99175000Y-118527500I0J-147500D01*
G01*
X99175000Y-118872500D01*
G75*
G02*
X99027500Y-119020000I-147500J0D01*
G01*
X98732500Y-119020000D01*
G75*
G02*
X98585000Y-118872500I0J147500D01*
G01*
G37*
%TD.AperFunction*%
%TD*%
%TO.P,C5,1*%
%TO.N,GND*%
%TA.AperFunction,SMDPad,CuDef*%
G36*
G01*
X84317500Y-111620000D02*
X84662500Y-111620000D01*
G75*
G02*
X84810000Y-111767500I0J-147500D01*
G01*
X84810000Y-112062500D01*
G75*
G02*
X84662500Y-112210000I-147500J0D01*
G01*
X84317500Y-112210000D01*
G75*
G02*
X84170000Y-112062500I0J147500D01*
G01*
X84170000Y-111767500D01*
G75*
G02*
X84317500Y-111620000I147500J0D01*
G01*
G37*
%TD.AperFunction*%
%TO.P,C5,2*%
%TO.N,Net-(C10-Pad1)*%
%TA.AperFunction,SMDPad,CuDef*%
G36*
G01*
X84317500Y-112590000D02*
X84662500Y-112590000D01*
G75*
G02*
X84810000Y-112737500I0J-147500D01*
G01*
X84810000Y-113032500D01*
G75*
G02*
X84662500Y-113180000I-147500J0D01*
G01*
X84317500Y-113180000D01*
G75*
G02*
X84170000Y-113032500I0J147500D01*
G01*
X84170000Y-112737500D01*
G75*
G02*
X84317500Y-112590000I147500J0D01*
G01*
G37*
%TD.AperFunction*%
%TD*%
%TO.P,C7,2*%
%TO.N,Net-(C10-Pad1)*%
%TA.AperFunction,SMDPad,CuDef*%
G36*
G01*
X85823750Y-112450000D02*
X86336250Y-112450000D01*
G75*
G02*
X86555000Y-112668750I0J-218750D01*
G01*
X86555000Y-113106250D01*
G75*
G02*
X86336250Y-113325000I-218750J0D01*
G01*
X85823750Y-113325000D01*
G75*
G02*
X85605000Y-113106250I0J218750D01*
G01*
X85605000Y-112668750D01*
G75*
G02*
X85823750Y-112450000I218750J0D01*
G01*
G37*
%TD.AperFunction*%
%TO.P,C7,1*%
%TO.N,GND*%
%TA.AperFunction,SMDPad,CuDef*%
G36*
G01*
X85823750Y-110875000D02*
X86336250Y-110875000D01*
G75*
G02*
X86555000Y-111093750I0J-218750D01*
G01*
X86555000Y-111531250D01*
G75*
G02*
X86336250Y-111750000I-218750J0D01*
G01*
X85823750Y-111750000D01*
G75*
G02*
X85605000Y-111531250I0J218750D01*
G01*
X85605000Y-111093750D01*
G75*
G02*
X85823750Y-110875000I218750J0D01*
G01*
G37*
%TD.AperFunction*%
%TD*%
%TO.P,C8,1*%
%TO.N,GND*%
%TA.AperFunction,SMDPad,CuDef*%
G36*
G01*
X87653750Y-110875000D02*
X88166250Y-110875000D01*
G75*
G02*
X88385000Y-111093750I0J-218750D01*
G01*
X88385000Y-111531250D01*
G75*
G02*
X88166250Y-111750000I-218750J0D01*
G01*
X87653750Y-111750000D01*
G75*
G02*
X87435000Y-111531250I0J218750D01*
G01*
X87435000Y-111093750D01*
G75*
G02*
X87653750Y-110875000I218750J0D01*
G01*
G37*
%TD.AperFunction*%
%TO.P,C8,2*%
%TO.N,Net-(C10-Pad1)*%
%TA.AperFunction,SMDPad,CuDef*%
G36*
G01*
X87653750Y-112450000D02*
X88166250Y-112450000D01*
G75*
G02*
X88385000Y-112668750I0J-218750D01*
G01*
X88385000Y-113106250D01*
G75*
G02*
X88166250Y-113325000I-218750J0D01*
G01*
X87653750Y-113325000D01*
G75*
G02*
X87435000Y-113106250I0J218750D01*
G01*
X87435000Y-112668750D01*
G75*
G02*
X87653750Y-112450000I218750J0D01*
G01*
G37*
%TD.AperFunction*%
%TD*%
%TO.P,C11,2*%
%TO.N,R-OUT*%
%TA.AperFunction,SMDPad,CuDef*%
G36*
G01*
X87350000Y-107782500D02*
X87350000Y-107437500D01*
G75*
G02*
X87497500Y-107290000I147500J0D01*
G01*
X87792500Y-107290000D01*
G75*
G02*
X87940000Y-107437500I0J-147500D01*
G01*
X87940000Y-107782500D01*
G75*
G02*
X87792500Y-107930000I-147500J0D01*
G01*
X87497500Y-107930000D01*
G75*
G02*
X87350000Y-107782500I0J147500D01*
G01*
G37*
%TD.AperFunction*%
%TO.P,C11,1*%
%TO.N,Net-(C11-Pad1)*%
%TA.AperFunction,SMDPad,CuDef*%
G36*
G01*
X86380000Y-107782500D02*
X86380000Y-107437500D01*
G75*
G02*
X86527500Y-107290000I147500J0D01*
G01*
X86822500Y-107290000D01*
G75*
G02*
X86970000Y-107437500I0J-147500D01*
G01*
X86970000Y-107782500D01*
G75*
G02*
X86822500Y-107930000I-147500J0D01*
G01*
X86527500Y-107930000D01*
G75*
G02*
X86380000Y-107782500I0J147500D01*
G01*
G37*
%TD.AperFunction*%
%TD*%
%TO.P,C15,1*%
%TO.N,Net-(C15-Pad1)*%
%TA.AperFunction,SMDPad,CuDef*%
G36*
G01*
X86380000Y-106582500D02*
X86380000Y-106237500D01*
G75*
G02*
X86527500Y-106090000I147500J0D01*
G01*
X86822500Y-106090000D01*
G75*
G02*
X86970000Y-106237500I0J-147500D01*
G01*
X86970000Y-106582500D01*
G75*
G02*
X86822500Y-106730000I-147500J0D01*
G01*
X86527500Y-106730000D01*
G75*
G02*
X86380000Y-106582500I0J147500D01*
G01*
G37*
%TD.AperFunction*%
%TO.P,C15,2*%
%TO.N,L-OUT*%
%TA.AperFunction,SMDPad,CuDef*%
G36*
G01*
X87350000Y-106582500D02*
X87350000Y-106237500D01*
G75*
G02*
X87497500Y-106090000I147500J0D01*
G01*
X87792500Y-106090000D01*
G75*
G02*
X87940000Y-106237500I0J-147500D01*
G01*
X87940000Y-106582500D01*
G75*
G02*
X87792500Y-106730000I-147500J0D01*
G01*
X87497500Y-106730000D01*
G75*
G02*
X87350000Y-106582500I0J147500D01*
G01*
G37*
%TD.AperFunction*%
%TD*%
D18*
%TO.P,JP3,1*%
%TO.N,Net-(J7-Pad6)*%
X67190000Y-136750000D03*
D19*
%TO.P,JP3,2*%
%TO.N,Net-(J7-Pad5)*%
X65190000Y-136750000D03*
%TD*%
%TO.P,R9,2*%
%TO.N,Net-(R9-Pad2)*%
%TA.AperFunction,SMDPad,CuDef*%
G36*
G01*
X85620000Y-118487500D02*
X85620000Y-118832500D01*
G75*
G02*
X85472500Y-118980000I-147500J0D01*
G01*
X85177500Y-118980000D01*
G75*
G02*
X85030000Y-118832500I0J147500D01*
G01*
X85030000Y-118487500D01*
G75*
G02*
X85177500Y-118340000I147500J0D01*
G01*
X85472500Y-118340000D01*
G75*
G02*
X85620000Y-118487500I0J-147500D01*
G01*
G37*
%TD.AperFunction*%
%TO.P,R9,1*%
%TO.N,Net-(R9-Pad1)*%
%TA.AperFunction,SMDPad,CuDef*%
G36*
G01*
X86590000Y-118487500D02*
X86590000Y-118832500D01*
G75*
G02*
X86442500Y-118980000I-147500J0D01*
G01*
X86147500Y-118980000D01*
G75*
G02*
X86000000Y-118832500I0J147500D01*
G01*
X86000000Y-118487500D01*
G75*
G02*
X86147500Y-118340000I147500J0D01*
G01*
X86442500Y-118340000D01*
G75*
G02*
X86590000Y-118487500I0J-147500D01*
G01*
G37*
%TD.AperFunction*%
%TD*%
D24*
%TO.P,U2,1*%
%TO.N,Net-(U2-Pad1)*%
X78570000Y-115457500D03*
%TO.P,U2,2*%
%TO.N,Net-(U2-Pad2)*%
X78570000Y-116092500D03*
%TO.P,U2,3*%
%TO.N,Net-(U2-Pad3)*%
X78570000Y-116727500D03*
%TO.P,U2,4*%
%TO.N,Net-(U2-Pad4)*%
X78570000Y-117362500D03*
%TO.P,U2,5*%
%TO.N,Net-(R10-Pad1)*%
X78570000Y-117997500D03*
%TO.P,U2,6*%
%TO.N,Net-(U2-Pad6)*%
X78570000Y-118632500D03*
%TO.P,U2,7*%
%TO.N,GND*%
X78570000Y-119267500D03*
%TO.P,U2,8*%
%TO.N,FM-SW*%
X78570000Y-119902500D03*
%TO.P,U2,9*%
%TO.N,Earth*%
X78570000Y-120537500D03*
%TO.P,U2,10*%
%TO.N,GND*%
X78570000Y-121172500D03*
%TO.P,U2,11*%
X78570000Y-121807500D03*
%TO.P,U2,12*%
%TO.N,AM*%
X78570000Y-122442500D03*
%TO.P,U2,13*%
%TO.N,GND*%
X83770000Y-122442500D03*
%TO.P,U2,14*%
X83770000Y-121807500D03*
%TO.P,U2,15*%
%TO.N,Net-(R16-Pad1)*%
X83770000Y-121172500D03*
%TO.P,U2,16*%
%TO.N,Net-(R15-Pad1)*%
X83770000Y-120537500D03*
%TO.P,U2,17*%
%TO.N,Net-(R1-Pad2)*%
X83770000Y-119902500D03*
%TO.P,U2,18*%
%TO.N,Net-(R11-Pad1)*%
X83770000Y-119267500D03*
%TO.P,U2,19*%
%TO.N,Net-(R9-Pad2)*%
X83770000Y-118632500D03*
%TO.P,U2,20*%
%TO.N,Net-(C10-Pad1)*%
X83770000Y-117997500D03*
%TO.P,U2,21*%
X83770000Y-117362500D03*
%TO.P,U2,22*%
%TO.N,Net-(C10-Pad2)*%
X83770000Y-116727500D03*
%TO.P,U2,23*%
%TO.N,Net-(C11-Pad1)*%
X83770000Y-116092500D03*
%TO.P,U2,24*%
%TO.N,Net-(C15-Pad1)*%
X83770000Y-115457500D03*
%TD*%
D25*
%TO.P,X1,1*%
%TO.N,Net-(R2-Pad2)*%
X93815000Y-120750000D03*
%TO.P,X1,2*%
%TO.N,GND*%
X93815000Y-118650000D03*
%TO.P,X1,3*%
%TO.N,Net-(R9-Pad1)*%
X92165000Y-118650000D03*
%TO.P,X1,4*%
%TO.N,+3V3*%
X92165000Y-120750000D03*
%TD*%
%TO.P,R11,2*%
%TO.N,Net-(J7-Pad2)*%
%TA.AperFunction,SMDPad,CuDef*%
G36*
G01*
X86000000Y-119862500D02*
X86000000Y-119517500D01*
G75*
G02*
X86147500Y-119370000I147500J0D01*
G01*
X86442500Y-119370000D01*
G75*
G02*
X86590000Y-119517500I0J-147500D01*
G01*
X86590000Y-119862500D01*
G75*
G02*
X86442500Y-120010000I-147500J0D01*
G01*
X86147500Y-120010000D01*
G75*
G02*
X86000000Y-119862500I0J147500D01*
G01*
G37*
%TD.AperFunction*%
%TO.P,R11,1*%
%TO.N,Net-(R11-Pad1)*%
%TA.AperFunction,SMDPad,CuDef*%
G36*
G01*
X85030000Y-119862500D02*
X85030000Y-119517500D01*
G75*
G02*
X85177500Y-119370000I147500J0D01*
G01*
X85472500Y-119370000D01*
G75*
G02*
X85620000Y-119517500I0J-147500D01*
G01*
X85620000Y-119862500D01*
G75*
G02*
X85472500Y-120010000I-147500J0D01*
G01*
X85177500Y-120010000D01*
G75*
G02*
X85030000Y-119862500I0J147500D01*
G01*
G37*
%TD.AperFunction*%
%TD*%
%TO.P,R14,1*%
%TO.N,Net-(R1-Pad2)*%
%TA.AperFunction,SMDPad,CuDef*%
G36*
G01*
X85030000Y-122942500D02*
X85030000Y-122597500D01*
G75*
G02*
X85177500Y-122450000I147500J0D01*
G01*
X85472500Y-122450000D01*
G75*
G02*
X85620000Y-122597500I0J-147500D01*
G01*
X85620000Y-122942500D01*
G75*
G02*
X85472500Y-123090000I-147500J0D01*
G01*
X85177500Y-123090000D01*
G75*
G02*
X85030000Y-122942500I0J147500D01*
G01*
G37*
%TD.AperFunction*%
%TO.P,R14,2*%
%TO.N,Net-(J7-Pad3)*%
%TA.AperFunction,SMDPad,CuDef*%
G36*
G01*
X86000000Y-122942500D02*
X86000000Y-122597500D01*
G75*
G02*
X86147500Y-122450000I147500J0D01*
G01*
X86442500Y-122450000D01*
G75*
G02*
X86590000Y-122597500I0J-147500D01*
G01*
X86590000Y-122942500D01*
G75*
G02*
X86442500Y-123090000I-147500J0D01*
G01*
X86147500Y-123090000D01*
G75*
G02*
X86000000Y-122942500I0J147500D01*
G01*
G37*
%TD.AperFunction*%
%TD*%
%TO.P,R15,2*%
%TO.N,Net-(JP1-Pad1)*%
%TA.AperFunction,SMDPad,CuDef*%
G36*
G01*
X72300000Y-124557500D02*
X72300000Y-124902500D01*
G75*
G02*
X72152500Y-125050000I-147500J0D01*
G01*
X71857500Y-125050000D01*
G75*
G02*
X71710000Y-124902500I0J147500D01*
G01*
X71710000Y-124557500D01*
G75*
G02*
X71857500Y-124410000I147500J0D01*
G01*
X72152500Y-124410000D01*
G75*
G02*
X72300000Y-124557500I0J-147500D01*
G01*
G37*
%TD.AperFunction*%
%TO.P,R15,1*%
%TO.N,Net-(R15-Pad1)*%
%TA.AperFunction,SMDPad,CuDef*%
G36*
G01*
X73270000Y-124557500D02*
X73270000Y-124902500D01*
G75*
G02*
X73122500Y-125050000I-147500J0D01*
G01*
X72827500Y-125050000D01*
G75*
G02*
X72680000Y-124902500I0J147500D01*
G01*
X72680000Y-124557500D01*
G75*
G02*
X72827500Y-124410000I147500J0D01*
G01*
X73122500Y-124410000D01*
G75*
G02*
X73270000Y-124557500I0J-147500D01*
G01*
G37*
%TD.AperFunction*%
%TD*%
%TO.P,R16,1*%
%TO.N,Net-(R16-Pad1)*%
%TA.AperFunction,SMDPad,CuDef*%
G36*
G01*
X73650000Y-124902500D02*
X73650000Y-124557500D01*
G75*
G02*
X73797500Y-124410000I147500J0D01*
G01*
X74092500Y-124410000D01*
G75*
G02*
X74240000Y-124557500I0J-147500D01*
G01*
X74240000Y-124902500D01*
G75*
G02*
X74092500Y-125050000I-147500J0D01*
G01*
X73797500Y-125050000D01*
G75*
G02*
X73650000Y-124902500I0J147500D01*
G01*
G37*
%TD.AperFunction*%
%TO.P,R16,2*%
%TO.N,Net-(J7-Pad4)*%
%TA.AperFunction,SMDPad,CuDef*%
G36*
G01*
X74620000Y-124902500D02*
X74620000Y-124557500D01*
G75*
G02*
X74767500Y-124410000I147500J0D01*
G01*
X75062500Y-124410000D01*
G75*
G02*
X75210000Y-124557500I0J-147500D01*
G01*
X75210000Y-124902500D01*
G75*
G02*
X75062500Y-125050000I-147500J0D01*
G01*
X74767500Y-125050000D01*
G75*
G02*
X74620000Y-124902500I0J147500D01*
G01*
G37*
%TD.AperFunction*%
%TD*%
D26*
%TO.P,J7,1*%
%TO.N,+3V3*%
X92660000Y-138000000D03*
D27*
%TO.P,J7,2*%
%TO.N,Net-(J7-Pad2)*%
X90120000Y-138000000D03*
%TO.P,J7,3*%
%TO.N,Net-(J7-Pad3)*%
X87580000Y-138000000D03*
%TO.P,J7,4*%
%TO.N,Net-(J7-Pad4)*%
X85040000Y-138000000D03*
%TO.P,J7,5*%
%TO.N,Net-(J7-Pad5)*%
X82500000Y-138000000D03*
%TO.P,J7,6*%
%TO.N,Net-(J7-Pad6)*%
X79960000Y-138000000D03*
%TO.P,J7,7*%
%TO.N,L-OUT*%
X77420000Y-138000000D03*
%TO.P,J7,8*%
%TO.N,R-OUT*%
X74880000Y-138000000D03*
%TO.P,J7,9*%
%TO.N,GND*%
X72340000Y-138000000D03*
%TD*%
D28*
%TO.P,SH1,1*%
%TO.N,Earth*%
X63585000Y-102715000D03*
X89595000Y-102715000D03*
%TO.P,SH1,*%
%TO.N,*%
X89595000Y-128725000D03*
%TO.P,SH1,1*%
%TO.N,Earth*%
X63585000Y-128725000D03*
D29*
X65370000Y-102715000D03*
X65370000Y-128725000D03*
D30*
X70755000Y-102715000D03*
X70755000Y-128725000D03*
D31*
X76590000Y-102715000D03*
X76590000Y-128725000D03*
D30*
X82425000Y-102715000D03*
%TO.P,SH1,*%
%TO.N,*%
X82425000Y-128725000D03*
D29*
%TO.P,SH1,1*%
%TO.N,Earth*%
X87810000Y-102715000D03*
%TO.P,SH1,*%
%TO.N,*%
X87810000Y-128725000D03*
D32*
%TO.P,SH1,1*%
%TO.N,Earth*%
X63585000Y-104500000D03*
X89595000Y-104500000D03*
D33*
X63585000Y-109885000D03*
%TO.P,SH1,*%
%TO.N,*%
X89595000Y-109885000D03*
D34*
%TO.P,SH1,1*%
%TO.N,Earth*%
X63585000Y-115720000D03*
%TO.P,SH1,*%
%TO.N,*%
X89595000Y-115720000D03*
D33*
%TO.P,SH1,1*%
%TO.N,Earth*%
X63585000Y-121555000D03*
%TO.P,SH1,*%
%TO.N,*%
X89595000Y-121555000D03*
D32*
%TO.P,SH1,1*%
%TO.N,Earth*%
X63585000Y-126940000D03*
%TO.P,SH1,*%
%TO.N,*%
X89595000Y-126940000D03*
%TD*%
%TO.P,C1,2*%
%TO.N,+3V3*%
%TA.AperFunction,SMDPad,CuDef*%
G36*
G01*
X92460000Y-122557500D02*
X92460000Y-122902500D01*
G75*
G02*
X92312500Y-123050000I-147500J0D01*
G01*
X92017500Y-123050000D01*
G75*
G02*
X91870000Y-122902500I0J147500D01*
G01*
X91870000Y-122557500D01*
G75*
G02*
X92017500Y-122410000I147500J0D01*
G01*
X92312500Y-122410000D01*
G75*
G02*
X92460000Y-122557500I0J-147500D01*
G01*
G37*
%TD.AperFunction*%
%TO.P,C1,1*%
%TO.N,GND*%
%TA.AperFunction,SMDPad,CuDef*%
G36*
G01*
X93430000Y-122557500D02*
X93430000Y-122902500D01*
G75*
G02*
X93282500Y-123050000I-147500J0D01*
G01*
X92987500Y-123050000D01*
G75*
G02*
X92840000Y-122902500I0J147500D01*
G01*
X92840000Y-122557500D01*
G75*
G02*
X92987500Y-122410000I147500J0D01*
G01*
X93282500Y-122410000D01*
G75*
G02*
X93430000Y-122557500I0J-147500D01*
G01*
G37*
%TD.AperFunction*%
%TD*%
%TO.P,C2,1*%
%TO.N,GND*%
%TA.AperFunction,SMDPad,CuDef*%
G36*
G01*
X93430000Y-123577500D02*
X93430000Y-123922500D01*
G75*
G02*
X93282500Y-124070000I-147500J0D01*
G01*
X92987500Y-124070000D01*
G75*
G02*
X92840000Y-123922500I0J147500D01*
G01*
X92840000Y-123577500D01*
G75*
G02*
X92987500Y-123430000I147500J0D01*
G01*
X93282500Y-123430000D01*
G75*
G02*
X93430000Y-123577500I0J-147500D01*
G01*
G37*
%TD.AperFunction*%
%TO.P,C2,2*%
%TO.N,+3V3*%
%TA.AperFunction,SMDPad,CuDef*%
G36*
G01*
X92460000Y-123577500D02*
X92460000Y-123922500D01*
G75*
G02*
X92312500Y-124070000I-147500J0D01*
G01*
X92017500Y-124070000D01*
G75*
G02*
X91870000Y-123922500I0J147500D01*
G01*
X91870000Y-123577500D01*
G75*
G02*
X92017500Y-123430000I147500J0D01*
G01*
X92312500Y-123430000D01*
G75*
G02*
X92460000Y-123577500I0J-147500D01*
G01*
G37*
%TD.AperFunction*%
%TD*%
%TO.P,C12,1*%
%TO.N,Net-(C12-Pad1)*%
%TA.AperFunction,SMDPad,CuDef*%
G36*
G01*
X101035000Y-121486250D02*
X101035000Y-120973750D01*
G75*
G02*
X101253750Y-120755000I218750J0D01*
G01*
X101691250Y-120755000D01*
G75*
G02*
X101910000Y-120973750I0J-218750D01*
G01*
X101910000Y-121486250D01*
G75*
G02*
X101691250Y-121705000I-218750J0D01*
G01*
X101253750Y-121705000D01*
G75*
G02*
X101035000Y-121486250I0J218750D01*
G01*
G37*
%TD.AperFunction*%
%TO.P,C12,2*%
%TO.N,Net-(C12-Pad2)*%
%TA.AperFunction,SMDPad,CuDef*%
G36*
G01*
X102610000Y-121486250D02*
X102610000Y-120973750D01*
G75*
G02*
X102828750Y-120755000I218750J0D01*
G01*
X103266250Y-120755000D01*
G75*
G02*
X103485000Y-120973750I0J-218750D01*
G01*
X103485000Y-121486250D01*
G75*
G02*
X103266250Y-121705000I-218750J0D01*
G01*
X102828750Y-121705000D01*
G75*
G02*
X102610000Y-121486250I0J218750D01*
G01*
G37*
%TD.AperFunction*%
%TD*%
%TO.P,D1,1*%
%TO.N,Net-(D1-Pad1)*%
%TA.AperFunction,SMDPad,CuDef*%
G36*
G01*
X96397500Y-136730000D02*
X96742500Y-136730000D01*
G75*
G02*
X96890000Y-136877500I0J-147500D01*
G01*
X96890000Y-137172500D01*
G75*
G02*
X96742500Y-137320000I-147500J0D01*
G01*
X96397500Y-137320000D01*
G75*
G02*
X96250000Y-137172500I0J147500D01*
G01*
X96250000Y-136877500D01*
G75*
G02*
X96397500Y-136730000I147500J0D01*
G01*
G37*
%TD.AperFunction*%
%TO.P,D1,2*%
%TO.N,+3V3*%
%TA.AperFunction,SMDPad,CuDef*%
G36*
G01*
X96397500Y-137700000D02*
X96742500Y-137700000D01*
G75*
G02*
X96890000Y-137847500I0J-147500D01*
G01*
X96890000Y-138142500D01*
G75*
G02*
X96742500Y-138290000I-147500J0D01*
G01*
X96397500Y-138290000D01*
G75*
G02*
X96250000Y-138142500I0J147500D01*
G01*
X96250000Y-137847500D01*
G75*
G02*
X96397500Y-137700000I147500J0D01*
G01*
G37*
%TD.AperFunction*%
%TD*%
%TO.P,R2,1*%
%TO.N,+3V3*%
%TA.AperFunction,SMDPad,CuDef*%
G36*
G01*
X95087500Y-119490000D02*
X95432500Y-119490000D01*
G75*
G02*
X95580000Y-119637500I0J-147500D01*
G01*
X95580000Y-119932500D01*
G75*
G02*
X95432500Y-120080000I-147500J0D01*
G01*
X95087500Y-120080000D01*
G75*
G02*
X94940000Y-119932500I0J147500D01*
G01*
X94940000Y-119637500D01*
G75*
G02*
X95087500Y-119490000I147500J0D01*
G01*
G37*
%TD.AperFunction*%
%TO.P,R2,2*%
%TO.N,Net-(R2-Pad2)*%
%TA.AperFunction,SMDPad,CuDef*%
G36*
G01*
X95087500Y-120460000D02*
X95432500Y-120460000D01*
G75*
G02*
X95580000Y-120607500I0J-147500D01*
G01*
X95580000Y-120902500D01*
G75*
G02*
X95432500Y-121050000I-147500J0D01*
G01*
X95087500Y-121050000D01*
G75*
G02*
X94940000Y-120902500I0J147500D01*
G01*
X94940000Y-120607500D01*
G75*
G02*
X95087500Y-120460000I147500J0D01*
G01*
G37*
%TD.AperFunction*%
%TD*%
%TO.P,R3,2*%
%TO.N,Net-(JP1-Pad1)*%
%TA.AperFunction,SMDPad,CuDef*%
G36*
G01*
X72330000Y-126267500D02*
X72330000Y-126612500D01*
G75*
G02*
X72182500Y-126760000I-147500J0D01*
G01*
X71887500Y-126760000D01*
G75*
G02*
X71740000Y-126612500I0J147500D01*
G01*
X71740000Y-126267500D01*
G75*
G02*
X71887500Y-126120000I147500J0D01*
G01*
X72182500Y-126120000D01*
G75*
G02*
X72330000Y-126267500I0J-147500D01*
G01*
G37*
%TD.AperFunction*%
%TO.P,R3,1*%
%TO.N,+3V3*%
%TA.AperFunction,SMDPad,CuDef*%
G36*
G01*
X73300000Y-126267500D02*
X73300000Y-126612500D01*
G75*
G02*
X73152500Y-126760000I-147500J0D01*
G01*
X72857500Y-126760000D01*
G75*
G02*
X72710000Y-126612500I0J147500D01*
G01*
X72710000Y-126267500D01*
G75*
G02*
X72857500Y-126120000I147500J0D01*
G01*
X73152500Y-126120000D01*
G75*
G02*
X73300000Y-126267500I0J-147500D01*
G01*
G37*
%TD.AperFunction*%
%TD*%
%TO.P,R5,2*%
%TO.N,R-OUT*%
%TA.AperFunction,SMDPad,CuDef*%
G36*
G01*
X99040000Y-119757500D02*
X99040000Y-120102500D01*
G75*
G02*
X98892500Y-120250000I-147500J0D01*
G01*
X98597500Y-120250000D01*
G75*
G02*
X98450000Y-120102500I0J147500D01*
G01*
X98450000Y-119757500D01*
G75*
G02*
X98597500Y-119610000I147500J0D01*
G01*
X98892500Y-119610000D01*
G75*
G02*
X99040000Y-119757500I0J-147500D01*
G01*
G37*
%TD.AperFunction*%
%TO.P,R5,1*%
%TO.N,Net-(C12-Pad2)*%
%TA.AperFunction,SMDPad,CuDef*%
G36*
G01*
X100010000Y-119757500D02*
X100010000Y-120102500D01*
G75*
G02*
X99862500Y-120250000I-147500J0D01*
G01*
X99567500Y-120250000D01*
G75*
G02*
X99420000Y-120102500I0J147500D01*
G01*
X99420000Y-119757500D01*
G75*
G02*
X99567500Y-119610000I147500J0D01*
G01*
X99862500Y-119610000D01*
G75*
G02*
X100010000Y-119757500I0J-147500D01*
G01*
G37*
%TD.AperFunction*%
%TD*%
%TO.P,R6,2*%
%TO.N,GND*%
%TA.AperFunction,SMDPad,CuDef*%
G36*
G01*
X97487500Y-137700000D02*
X97832500Y-137700000D01*
G75*
G02*
X97980000Y-137847500I0J-147500D01*
G01*
X97980000Y-138142500D01*
G75*
G02*
X97832500Y-138290000I-147500J0D01*
G01*
X97487500Y-138290000D01*
G75*
G02*
X97340000Y-138142500I0J147500D01*
G01*
X97340000Y-137847500D01*
G75*
G02*
X97487500Y-137700000I147500J0D01*
G01*
G37*
%TD.AperFunction*%
%TO.P,R6,1*%
%TO.N,Net-(D1-Pad1)*%
%TA.AperFunction,SMDPad,CuDef*%
G36*
G01*
X97487500Y-136730000D02*
X97832500Y-136730000D01*
G75*
G02*
X97980000Y-136877500I0J-147500D01*
G01*
X97980000Y-137172500D01*
G75*
G02*
X97832500Y-137320000I-147500J0D01*
G01*
X97487500Y-137320000D01*
G75*
G02*
X97340000Y-137172500I0J147500D01*
G01*
X97340000Y-136877500D01*
G75*
G02*
X97487500Y-136730000I147500J0D01*
G01*
G37*
%TD.AperFunction*%
%TD*%
%TO.P,R10,1*%
%TO.N,Net-(R10-Pad1)*%
%TA.AperFunction,SMDPad,CuDef*%
G36*
G01*
X79080000Y-125317500D02*
X79080000Y-125662500D01*
G75*
G02*
X78932500Y-125810000I-147500J0D01*
G01*
X78637500Y-125810000D01*
G75*
G02*
X78490000Y-125662500I0J147500D01*
G01*
X78490000Y-125317500D01*
G75*
G02*
X78637500Y-125170000I147500J0D01*
G01*
X78932500Y-125170000D01*
G75*
G02*
X79080000Y-125317500I0J-147500D01*
G01*
G37*
%TD.AperFunction*%
%TO.P,R10,2*%
%TO.N,Net-(J7-Pad5)*%
%TA.AperFunction,SMDPad,CuDef*%
G36*
G01*
X78110000Y-125317500D02*
X78110000Y-125662500D01*
G75*
G02*
X77962500Y-125810000I-147500J0D01*
G01*
X77667500Y-125810000D01*
G75*
G02*
X77520000Y-125662500I0J147500D01*
G01*
X77520000Y-125317500D01*
G75*
G02*
X77667500Y-125170000I147500J0D01*
G01*
X77962500Y-125170000D01*
G75*
G02*
X78110000Y-125317500I0J-147500D01*
G01*
G37*
%TD.AperFunction*%
%TD*%
D35*
%TO.P,J6,1*%
%TO.N,Net-(J6-Pad1)*%
X111230000Y-125000000D03*
D36*
%TO.P,J6,2*%
%TO.N,Net-(C14-Pad2)*%
X111230000Y-128500000D03*
%TD*%
%TA.AperFunction,SMDPad,CuDef*%
D37*
%TO.P,JP0,2*%
%TO.N,Earth*%
G36*
X69405000Y-105260000D02*
G01*
X70555000Y-105260000D01*
X70055000Y-106010000D01*
X70555000Y-106760000D01*
X69405000Y-106760000D01*
X69405000Y-105260000D01*
G37*
%TD.AperFunction*%
%TA.AperFunction,SMDPad,CuDef*%
%TO.P,JP0,1*%
%TO.N,GND*%
G36*
X70355000Y-106010000D02*
G01*
X70855000Y-105260000D01*
X71855000Y-105260000D01*
X71855000Y-106760000D01*
X70855000Y-106760000D01*
X70355000Y-106010000D01*
G37*
%TD.AperFunction*%
%TD*%
D38*
%TO.P,J4,1*%
%TO.N,Earth*%
X53150000Y-120650000D03*
%TO.P,J4,2*%
%TO.N,Net-(C9-Pad1)*%
X59650000Y-131350000D03*
D39*
%TO.P,J4,3*%
X59500000Y-120650000D03*
%TD*%
D40*
%TO.N,GND*%
X103140000Y-117220000D03*
X99060000Y-117170000D03*
X100220000Y-126570000D03*
X80160000Y-122170000D03*
X80090000Y-119720000D03*
X72360000Y-115830000D03*
X93790000Y-114070000D03*
X93810000Y-117210000D03*
X93930000Y-122765000D03*
X103840000Y-103370000D03*
X98590000Y-137990000D03*
X82660000Y-122460000D03*
X84499998Y-111040000D03*
X72730000Y-106030000D03*
X100490000Y-134650000D03*
X105220000Y-127850000D03*
D41*
%TO.N,+3V3*%
X86940000Y-121720000D03*
X90990000Y-120750000D03*
X76840000Y-126440000D03*
D40*
%TO.N,Net-(C12-Pad1)*%
X100445004Y-130405000D03*
X101472499Y-122660000D03*
%TO.N,Net-(C14-Pad2)*%
X105450000Y-122650000D03*
%TO.N,R-OUT*%
X93930000Y-132800000D03*
%TO.N,L-OUT*%
X94990000Y-133550000D03*
%TO.N,Earth*%
X71000000Y-110800000D03*
X68460000Y-106010000D03*
D22*
X64880000Y-127419998D03*
D40*
X67170000Y-122160000D03*
D41*
%TO.N,Net-(R9-Pad2)*%
X82750000Y-118630000D03*
X75330000Y-118170501D03*
%TO.N,Net-(R1-Pad2)*%
X72495000Y-120895000D03*
X82923456Y-119902504D03*
%TO.N,Net-(R11-Pad1)*%
X82228024Y-119302494D03*
X75390000Y-119250000D03*
%TO.N,Net-(R10-Pad1)*%
X80080000Y-117729990D03*
X83800000Y-125490002D03*
%TO.N,Net-(R15-Pad1)*%
X72465000Y-122165000D03*
X72980000Y-125470000D03*
X82192076Y-120570284D03*
%TO.N,Net-(J7-Pad6)*%
X100000000Y-118700000D03*
%TD*%
D42*
%TO.N,GND*%
X103150000Y-117210000D02*
X103140000Y-117220000D01*
X103970000Y-117210000D02*
X103150000Y-117210000D01*
X99090000Y-117200000D02*
X99060000Y-117170000D01*
X99810000Y-117200000D02*
X99090000Y-117200000D01*
X98765000Y-126595000D02*
X100195000Y-126595000D01*
X100195000Y-126595000D02*
X100220000Y-126570000D01*
X97822500Y-126592500D02*
X96560000Y-126592500D01*
X97825000Y-126595000D02*
X97822500Y-126592500D01*
X98765000Y-126595000D02*
X97825000Y-126595000D01*
D43*
X83770000Y-121807500D02*
X83770000Y-122442500D01*
X78570000Y-121807500D02*
X78570000Y-121430000D01*
X78570000Y-121172500D02*
X78570000Y-121430000D01*
X79797500Y-121807500D02*
X80160000Y-122170000D01*
X78570000Y-121807500D02*
X79797500Y-121807500D01*
X78570000Y-119267500D02*
X79647500Y-119267500D01*
X80090000Y-119710000D02*
X80090000Y-119720000D01*
X79647500Y-119267500D02*
X80090000Y-119710000D01*
X72375000Y-115815000D02*
X72360000Y-115830000D01*
X73945000Y-115815000D02*
X72375000Y-115815000D01*
X85477500Y-111915000D02*
X86080000Y-111312500D01*
X84490000Y-111915000D02*
X85477500Y-111915000D01*
X86080000Y-111312500D02*
X87910000Y-111312500D01*
X93815000Y-117215000D02*
X93810000Y-117210000D01*
X93815000Y-118650000D02*
X93815000Y-117215000D01*
X93135000Y-122730000D02*
X93135000Y-123750000D01*
X93895000Y-122730000D02*
X93930000Y-122765000D01*
X93135000Y-122730000D02*
X93895000Y-122730000D01*
X103910000Y-103300000D02*
X103840000Y-103370000D01*
X106350000Y-103300000D02*
X103910000Y-103300000D01*
X98585000Y-137995000D02*
X98590000Y-137990000D01*
X97660000Y-137995000D02*
X98585000Y-137995000D01*
X82677500Y-122442500D02*
X82660000Y-122460000D01*
X83770000Y-122442500D02*
X82677500Y-122442500D01*
%TO.N,+3V3*%
X91950000Y-115238300D02*
X91980000Y-115268300D01*
%TO.N,GND*%
X84490000Y-111915000D02*
X84490000Y-111049998D01*
X84490000Y-111049998D02*
X84499998Y-111040000D01*
X72340000Y-138000000D02*
X69820000Y-138000000D01*
X69820000Y-138000000D02*
X69180000Y-138640000D01*
X69180000Y-138640000D02*
X63970000Y-138640000D01*
X63970000Y-138640000D02*
X63140000Y-137810000D01*
X63140000Y-137810000D02*
X63140000Y-133300000D01*
X63950000Y-132490000D02*
X65220000Y-132490000D01*
X63140000Y-133300000D02*
X63950000Y-132490000D01*
D44*
X72710000Y-106010000D02*
X72730000Y-106030000D01*
X71355000Y-106010000D02*
X72710000Y-106010000D01*
D42*
X103715000Y-127865000D02*
X105205000Y-127865000D01*
X105205000Y-127865000D02*
X105220000Y-127850000D01*
D43*
X100500000Y-133686500D02*
X100500000Y-132193500D01*
X100500000Y-134640000D02*
X100500000Y-133686500D01*
X100490000Y-134650000D02*
X100500000Y-134640000D01*
X92706500Y-114070000D02*
X92696500Y-114060000D01*
X93790000Y-114070000D02*
X92706500Y-114070000D01*
X92696500Y-114060000D02*
X91203500Y-114060000D01*
%TO.N,+3V3*%
X86295000Y-121730000D02*
X86295000Y-120710000D01*
D45*
X86930000Y-121730000D02*
X86940000Y-121720000D01*
X86295000Y-121730000D02*
X86930000Y-121730000D01*
D43*
X90990000Y-120750000D02*
X92165000Y-120750000D01*
X92165000Y-123750000D02*
X92165000Y-122730000D01*
X90990000Y-121680000D02*
X90990000Y-120750000D01*
X92040000Y-122730000D02*
X90990000Y-121680000D01*
X92165000Y-122730000D02*
X92040000Y-122730000D01*
X92165000Y-122315000D02*
X92165000Y-122730000D01*
X92490000Y-121990000D02*
X92165000Y-122315000D01*
X96310000Y-121590000D02*
X95910000Y-121990000D01*
X95260000Y-119785000D02*
X95895000Y-119785000D01*
X96310000Y-120200000D02*
X96310000Y-121590000D01*
X95910000Y-121990000D02*
X92490000Y-121990000D01*
X95895000Y-119785000D02*
X96310000Y-120200000D01*
X92665000Y-137995000D02*
X92660000Y-138000000D01*
X96570000Y-137995000D02*
X92665000Y-137995000D01*
X92720000Y-138000000D02*
X95290000Y-135430000D01*
X92660000Y-138000000D02*
X92720000Y-138000000D01*
D45*
X73005000Y-126440000D02*
X76840000Y-126440000D01*
X76840000Y-126440000D02*
X75367856Y-126440000D01*
D43*
X92660000Y-135040000D02*
X92660000Y-138000000D01*
X92165000Y-134545000D02*
X92660000Y-135040000D01*
X92165000Y-123750000D02*
X92165000Y-134545000D01*
X96130000Y-135430000D02*
X96550000Y-135430000D01*
X95290000Y-135430000D02*
X96130000Y-135430000D01*
X98230000Y-135430000D02*
X96130000Y-135430000D01*
X99321700Y-134338300D02*
X98230000Y-135430000D01*
X99321700Y-132940000D02*
X99321700Y-134338300D01*
X95260000Y-115990000D02*
X95260000Y-119785000D01*
X94508300Y-115238300D02*
X95260000Y-115990000D01*
X91950000Y-115238300D02*
X94508300Y-115238300D01*
D42*
%TO.N,Net-(C6-Pad1)*%
X64855000Y-112750000D02*
X64875000Y-112770000D01*
D44*
X53050000Y-112770000D02*
X53030000Y-112750000D01*
X64875000Y-112770000D02*
X53050000Y-112770000D01*
%TO.N,Net-(C9-Pad1)*%
X64895000Y-124600000D02*
X61890000Y-124600000D01*
X61890000Y-124600000D02*
X59650000Y-131350000D01*
X61890000Y-124600000D02*
X59500000Y-120650000D01*
D42*
%TO.N,Net-(C12-Pad1)*%
X98765000Y-130405000D02*
X100445004Y-130405000D01*
X103635000Y-123770000D02*
X103615000Y-123790000D01*
X103635000Y-122670000D02*
X103635000Y-123770000D01*
X101472500Y-121230000D02*
X101472500Y-122347500D01*
X101472500Y-122659999D02*
X101472499Y-122660000D01*
X101472500Y-122347500D02*
X101472500Y-122659999D01*
X101482499Y-122670000D02*
X101472499Y-122660000D01*
X103635000Y-122670000D02*
X101482499Y-122670000D01*
%TO.N,Net-(C12-Pad2)*%
X99715000Y-119930000D02*
X103015000Y-119930000D01*
X103047500Y-121295000D02*
X103032500Y-121310000D01*
X103015000Y-121197500D02*
X103047500Y-121230000D01*
X103047500Y-121230000D02*
X103047500Y-121295000D01*
X103015000Y-119930000D02*
X103015000Y-121197500D01*
%TO.N,Net-(C13-Pad1)*%
X98765000Y-129135000D02*
X98765000Y-127865000D01*
X96667500Y-128167500D02*
X96980000Y-127855000D01*
X96560000Y-128167500D02*
X96667500Y-128167500D01*
X96862500Y-127865000D02*
X96560000Y-128167500D01*
X98765000Y-127865000D02*
X96862500Y-127865000D01*
%TO.N,Net-(C14-Pad2)*%
X104607500Y-122667500D02*
X104605000Y-122670000D01*
X104605000Y-123770000D02*
X104585000Y-123790000D01*
X104605000Y-122670000D02*
X104605000Y-123770000D01*
X104605000Y-122670000D02*
X105210000Y-122670000D01*
X105230000Y-122650000D02*
X105450000Y-122650000D01*
X105210000Y-122670000D02*
X105230000Y-122650000D01*
D44*
X108255000Y-130405000D02*
X103715000Y-130405000D01*
X110160000Y-128500000D02*
X108255000Y-130405000D01*
X111230000Y-128500000D02*
X110160000Y-128500000D01*
%TO.N,Net-(J6-Pad1)*%
X107505000Y-126595000D02*
X103715000Y-126595000D01*
X109130000Y-124970000D02*
X107505000Y-126595000D01*
X111200000Y-124970000D02*
X109130000Y-124970000D01*
X111230000Y-125000000D02*
X111200000Y-124970000D01*
D42*
%TO.N,Net-(D1-Pad1)*%
X96570000Y-137025000D02*
X97660000Y-137025000D01*
D45*
%TO.N,Net-(Q1-Pad1)*%
X97910000Y-117200000D02*
X97910000Y-118700000D01*
%TO.N,Net-(Q2-Pad1)*%
X102070000Y-117210000D02*
X102070000Y-118700000D01*
D42*
%TO.N,Net-(C10-Pad1)*%
X85240000Y-117695000D02*
X84905000Y-117695000D01*
X84602500Y-117997500D02*
X83770000Y-117997500D01*
X84905000Y-117695000D02*
X84602500Y-117997500D01*
X83770000Y-117997500D02*
X83770000Y-117362500D01*
X73945000Y-117085000D02*
X75025000Y-117085000D01*
X75025000Y-117085000D02*
X75980000Y-116130000D01*
X75980000Y-116130000D02*
X75980000Y-115260000D01*
X75980000Y-115260000D02*
X76430000Y-114810000D01*
X76430000Y-114810000D02*
X81720000Y-114810000D01*
X81720000Y-114810000D02*
X82110000Y-115200000D01*
X82110000Y-115200000D02*
X82110000Y-116850000D01*
X82622500Y-117362500D02*
X83770000Y-117362500D01*
X82110000Y-116850000D02*
X82622500Y-117362500D01*
X87914200Y-112891700D02*
X87910000Y-112887500D01*
X87910000Y-112887500D02*
X86080000Y-112887500D01*
X84492500Y-112887500D02*
X84490000Y-112885000D01*
X86080000Y-112887500D02*
X84492500Y-112887500D01*
X85635000Y-117695000D02*
X86080000Y-117250000D01*
X86080000Y-117250000D02*
X86080000Y-112887500D01*
X85240000Y-117695000D02*
X85635000Y-117695000D01*
X87915800Y-112881700D02*
X87910000Y-112887500D01*
D43*
X91950000Y-112881700D02*
X87915800Y-112881700D01*
D42*
%TO.N,FM-SW*%
X67690000Y-112740000D02*
X68112500Y-112740000D01*
X68112500Y-110792500D02*
X68100000Y-110780000D01*
X68112500Y-112740000D02*
X68112500Y-110792500D01*
D44*
X68082500Y-112770000D02*
X68112500Y-112740000D01*
X65845000Y-112770000D02*
X68082500Y-112770000D01*
X68995000Y-120895000D02*
X67035000Y-120895000D01*
X65845000Y-119705000D02*
X65845000Y-112770000D01*
X67035000Y-120895000D02*
X65845000Y-119705000D01*
D42*
X68995000Y-120895000D02*
X69620010Y-120269990D01*
X76940010Y-120269990D02*
X77307500Y-119902500D01*
X69620010Y-120269990D02*
X76940010Y-120269990D01*
X77307500Y-119902500D02*
X78570000Y-119902500D01*
%TO.N,AM*%
X68995000Y-123435000D02*
X70385000Y-123435000D01*
X71025001Y-122794999D02*
X76765001Y-122794999D01*
X70385000Y-123435000D02*
X71025001Y-122794999D01*
X77117500Y-122442500D02*
X78570000Y-122442500D01*
X76765001Y-122794999D02*
X77117500Y-122442500D01*
D44*
X67985000Y-123435000D02*
X65865000Y-124600000D01*
X68995000Y-123435000D02*
X67985000Y-123435000D01*
D42*
%TO.N,Net-(C10-Pad2)*%
X85237500Y-116727500D02*
X85240000Y-116725000D01*
X83770000Y-116727500D02*
X85237500Y-116727500D01*
%TO.N,R-OUT*%
X87645000Y-107610000D02*
X94470000Y-107610000D01*
X95240000Y-108380000D02*
X95240000Y-110520000D01*
X94470000Y-107610000D02*
X95240000Y-108380000D01*
X95240000Y-110520000D02*
X95240000Y-113690000D01*
X96750000Y-115200000D02*
X98860000Y-115200000D01*
X95240000Y-113690000D02*
X96750000Y-115200000D01*
X96750000Y-115280000D02*
X96380000Y-115650000D01*
X96750000Y-115200000D02*
X96750000Y-115280000D01*
X96380000Y-115650000D02*
X96380000Y-119000000D01*
X97310000Y-119930000D02*
X98745000Y-119930000D01*
X96380000Y-119000000D02*
X97310000Y-119930000D01*
X98745000Y-119930000D02*
X98745000Y-122355000D01*
X98230000Y-122870000D02*
X95830000Y-122870000D01*
X93900000Y-132770000D02*
X93930000Y-132800000D01*
X93900000Y-124800000D02*
X93900000Y-132770000D01*
X95830000Y-122870000D02*
X93900000Y-124800000D01*
X98745000Y-122355000D02*
X98230000Y-122870000D01*
%TO.N,Net-(C11-Pad1)*%
X83019998Y-116092500D02*
X82590000Y-115662502D01*
X83770000Y-116092500D02*
X83019998Y-116092500D01*
X82590000Y-115662502D02*
X82590000Y-114660000D01*
X82590000Y-114660000D02*
X82150000Y-114220000D01*
X82150000Y-114220000D02*
X75820000Y-114220000D01*
X75495000Y-114545000D02*
X73945000Y-114545000D01*
X75820000Y-114220000D02*
X75495000Y-114545000D01*
X84620000Y-116092500D02*
X83770000Y-116092500D01*
X84697500Y-116015000D02*
X84620000Y-116092500D01*
X84697500Y-114397500D02*
X84697500Y-116015000D01*
X83610000Y-113310000D02*
X84697500Y-114397500D01*
X83610000Y-109190000D02*
X83610000Y-113310000D01*
X85190000Y-107610000D02*
X83610000Y-109190000D01*
X86675000Y-107610000D02*
X85190000Y-107610000D01*
%TO.N,Net-(C15-Pad1)*%
X83770000Y-114170000D02*
X83770000Y-115457500D01*
X83330000Y-113730000D02*
X83770000Y-114170000D01*
X82820000Y-109343589D02*
X82820000Y-113220000D01*
X86675000Y-106410000D02*
X85753589Y-106410000D01*
X85753589Y-106410000D02*
X82820000Y-109343589D01*
X82820000Y-113220000D02*
X83330000Y-113730000D01*
X72800000Y-113730000D02*
X82310000Y-113730000D01*
X82310000Y-113730000D02*
X82820000Y-113220000D01*
X71985000Y-114545000D02*
X72800000Y-113730000D01*
X68995000Y-114545000D02*
X71985000Y-114545000D01*
%TO.N,L-OUT*%
X103020000Y-115210000D02*
X103020000Y-114810000D01*
X87645000Y-106410000D02*
X103880000Y-106410000D01*
X105940000Y-108470000D02*
X105940000Y-110370000D01*
X103880000Y-106410000D02*
X105940000Y-108470000D01*
X105940000Y-110370000D02*
X104010000Y-110370000D01*
X103020000Y-111360000D02*
X103020000Y-115210000D01*
X104010000Y-110370000D02*
X103020000Y-111360000D01*
X94990000Y-126400000D02*
X94990000Y-133550000D01*
X95840000Y-125550000D02*
X94990000Y-126400000D01*
X103020000Y-115210000D02*
X104420000Y-115210000D01*
X104420000Y-115210000D02*
X105420000Y-116210000D01*
X105420000Y-116210000D02*
X105420000Y-119500000D01*
X105420000Y-119500000D02*
X104990000Y-119930000D01*
X105190000Y-125550000D02*
X95840000Y-125550000D01*
X106290000Y-124450000D02*
X105190000Y-125550000D01*
X106290000Y-121230000D02*
X106290000Y-124450000D01*
X104990000Y-119930000D02*
X106290000Y-121230000D01*
X104990000Y-119930000D02*
X103985000Y-119930000D01*
%TO.N,Earth*%
X68995000Y-122165000D02*
X70775000Y-122165000D01*
X71400010Y-121539990D02*
X76580010Y-121539990D01*
X70775000Y-122165000D02*
X71400010Y-121539990D01*
X77582500Y-120537500D02*
X78570000Y-120537500D01*
X76580010Y-121539990D02*
X77582500Y-120537500D01*
X56470000Y-108370000D02*
X53030000Y-108370000D01*
X53030000Y-103970000D02*
X53500000Y-103500000D01*
X63250000Y-126940000D02*
X63585000Y-126940000D01*
D44*
X65370000Y-102715000D02*
X70755000Y-102715000D01*
X70755000Y-102715000D02*
X76590000Y-102715000D01*
X76590000Y-102715000D02*
X82425000Y-102715000D01*
X63585000Y-104500000D02*
X63585000Y-109885000D01*
X82425000Y-102715000D02*
X87810000Y-102715000D01*
X53030000Y-117130000D02*
X56470000Y-117130000D01*
X56470000Y-117130000D02*
X60940000Y-117130000D01*
X62350000Y-115720000D02*
X63585000Y-115720000D01*
X60940000Y-117130000D02*
X62350000Y-115720000D01*
X63585000Y-115720000D02*
X63585000Y-121555000D01*
X69050000Y-108780000D02*
X66210000Y-108780000D01*
X65105000Y-109885000D02*
X63585000Y-109885000D01*
X66210000Y-108780000D02*
X65105000Y-109885000D01*
X57985000Y-109885000D02*
X56470000Y-108370000D01*
X63585000Y-109885000D02*
X57985000Y-109885000D01*
X53500000Y-107900000D02*
X53030000Y-108370000D01*
X53500000Y-103500000D02*
X53500000Y-107900000D01*
X70755000Y-128725000D02*
X65370000Y-128725000D01*
X63585000Y-104500000D02*
X63585000Y-102715000D01*
X65370000Y-102715000D02*
X63585000Y-102715000D01*
X63585000Y-126940000D02*
X63585000Y-128725000D01*
X65370000Y-128725000D02*
X63585000Y-128725000D01*
X87810000Y-102715000D02*
X89595000Y-102715000D01*
X89595000Y-102715000D02*
X89595000Y-104500000D01*
X70755000Y-128725000D02*
X76590000Y-128725000D01*
X70000000Y-110780000D02*
X69687500Y-112740000D01*
X69050000Y-108780000D02*
X70000000Y-110780000D01*
X70980000Y-110780000D02*
X71000000Y-110800000D01*
X70000000Y-110780000D02*
X70980000Y-110780000D01*
X69905000Y-106010000D02*
X68460000Y-106010000D01*
X53030000Y-120530000D02*
X53150000Y-120650000D01*
X53030000Y-117130000D02*
X53030000Y-120530000D01*
X63585000Y-128725000D02*
X64880000Y-127430000D01*
X64880000Y-127430000D02*
X64880000Y-127419998D01*
X67175000Y-122165000D02*
X67170000Y-122160000D01*
X68995000Y-122165000D02*
X67175000Y-122165000D01*
D45*
%TO.N,Net-(R2-Pad2)*%
X93820000Y-120755000D02*
X93815000Y-120750000D01*
X95260000Y-120755000D02*
X93820000Y-120755000D01*
D42*
%TO.N,Net-(R9-Pad2)*%
X83767500Y-118630000D02*
X83770000Y-118632500D01*
X82750000Y-118630000D02*
X83767500Y-118630000D01*
X83797500Y-118660000D02*
X85215000Y-118660000D01*
X83770000Y-118632500D02*
X83797500Y-118660000D01*
X73945000Y-118355000D02*
X75145501Y-118355000D01*
X75145501Y-118355000D02*
X75330000Y-118170501D01*
%TO.N,Net-(R9-Pad1)*%
X92155000Y-118660000D02*
X92165000Y-118650000D01*
X86185000Y-118660000D02*
X92155000Y-118660000D01*
D45*
%TO.N,Net-(JP1-Pad1)*%
X72005000Y-126410000D02*
X72035000Y-126440000D01*
X72005000Y-124730000D02*
X72005000Y-126410000D01*
X73110000Y-127515000D02*
X72035000Y-126440000D01*
X78840000Y-128199998D02*
X78155002Y-127515000D01*
X78155002Y-127515000D02*
X73110000Y-127515000D01*
X78840000Y-129880000D02*
X78840000Y-128199998D01*
X76230000Y-132490000D02*
X78840000Y-129880000D01*
X67220000Y-132490000D02*
X76230000Y-132490000D01*
%TO.N,Net-(R1-Pad2)*%
X73945000Y-120895000D02*
X72495000Y-120895000D01*
X82923460Y-119902500D02*
X82923456Y-119902504D01*
X83770000Y-119902500D02*
X82923460Y-119902500D01*
X85325000Y-122760000D02*
X85335000Y-122770000D01*
X85325000Y-121730000D02*
X85325000Y-122760000D01*
X84642500Y-119902500D02*
X84730000Y-119990000D01*
X83770000Y-119902500D02*
X84642500Y-119902500D01*
X84730000Y-121610000D02*
X84850000Y-121730000D01*
X84850000Y-121730000D02*
X85325000Y-121730000D01*
X84730000Y-119990000D02*
X84730000Y-121610000D01*
%TO.N,Net-(R11-Pad1)*%
X82263018Y-119267500D02*
X82228024Y-119302494D01*
X83770000Y-119267500D02*
X82263018Y-119267500D01*
X84802500Y-119267500D02*
X85225000Y-119690000D01*
X83770000Y-119267500D02*
X84802500Y-119267500D01*
X85325000Y-120710000D02*
X85325000Y-119690000D01*
X75015000Y-119625000D02*
X75390000Y-119250000D01*
X73945000Y-119625000D02*
X75015000Y-119625000D01*
%TO.N,Net-(R10-Pad1)*%
X79812490Y-117997500D02*
X80080000Y-117729990D01*
X78570000Y-117997500D02*
X79812490Y-117997500D01*
X83799998Y-125490000D02*
X83800000Y-125490002D01*
X78785000Y-125490000D02*
X83799998Y-125490000D01*
X74956402Y-117685010D02*
X75070913Y-117570499D01*
X77342999Y-117570499D02*
X77770000Y-117997500D01*
X69664990Y-117685010D02*
X74956402Y-117685010D01*
X77770000Y-117997500D02*
X78570000Y-117997500D01*
X68995000Y-118355000D02*
X69664990Y-117685010D01*
X75070913Y-117570499D02*
X77342999Y-117570499D01*
%TO.N,Net-(R15-Pad1)*%
X73945000Y-122165000D02*
X72465000Y-122165000D01*
X72975000Y-125465000D02*
X72980000Y-125470000D01*
X72975000Y-124730000D02*
X72975000Y-125465000D01*
X82224860Y-120537500D02*
X82192076Y-120570284D01*
X83770000Y-120537500D02*
X82224860Y-120537500D01*
%TO.N,Net-(R16-Pad1)*%
X73945000Y-123435000D02*
X73945000Y-124730000D01*
X73945000Y-123435000D02*
X80495000Y-123435000D01*
X82757500Y-121172500D02*
X80495000Y-123435000D01*
X83770000Y-121172500D02*
X82757500Y-121172500D01*
%TO.N,Net-(J7-Pad6)*%
X79960000Y-136400000D02*
X79960000Y-138000000D01*
X78130000Y-134570000D02*
X79960000Y-136400000D01*
X67980000Y-134570000D02*
X78130000Y-134570000D01*
X67190000Y-135360000D02*
X67980000Y-134570000D01*
X67190000Y-136750000D02*
X67190000Y-135360000D01*
X98880000Y-118700000D02*
X100000000Y-118700000D01*
X101100000Y-118700000D02*
X100000000Y-118700000D01*
%TO.N,Net-(J7-Pad5)*%
X78600000Y-134100000D02*
X82500000Y-138000000D01*
X78580000Y-134120000D02*
X78600000Y-134100000D01*
X65190000Y-135220000D02*
X66290000Y-134120000D01*
X66290000Y-134120000D02*
X78580000Y-134120000D01*
X65190000Y-136750000D02*
X65190000Y-135220000D01*
X77815000Y-126525000D02*
X77815000Y-125490000D01*
X79360000Y-129860000D02*
X79360000Y-128070000D01*
X79360000Y-128070000D02*
X77815000Y-126525000D01*
X82500000Y-133000000D02*
X79360000Y-129860000D01*
X82500000Y-138000000D02*
X82500000Y-133000000D01*
%TO.N,Net-(J7-Pad2)*%
X85930010Y-133810010D02*
X90120000Y-138000000D01*
X85930010Y-124509990D02*
X85930010Y-133810010D01*
X87600000Y-120540000D02*
X87600000Y-122840000D01*
X87600000Y-122840000D02*
X85930010Y-124509990D01*
X86750000Y-119690000D02*
X87600000Y-120540000D01*
X86295000Y-119690000D02*
X86750000Y-119690000D01*
%TO.N,Net-(J7-Pad3)*%
X85530000Y-124300000D02*
X86305000Y-123525000D01*
X85530000Y-135950000D02*
X85530000Y-124300000D01*
X86305000Y-123525000D02*
X86305000Y-122770000D01*
X87580000Y-138000000D02*
X85530000Y-135950000D01*
%TO.N,Net-(J7-Pad4)*%
X84900000Y-137860000D02*
X85040000Y-138000000D01*
X84900000Y-125290000D02*
X84900000Y-137860000D01*
X84340000Y-124730000D02*
X84900000Y-125290000D01*
X74915000Y-124730000D02*
X84340000Y-124730000D01*
D42*
%TO.N,Net-(C3-Pad1)*%
X103689998Y-129160002D02*
X103715000Y-129135000D01*
D43*
X101678300Y-129971700D02*
X101678300Y-132940000D01*
X102515000Y-129135000D02*
X101678300Y-129971700D01*
X103715000Y-129135000D02*
X102515000Y-129135000D01*
%TD*%
M02*
