%TF.GenerationSoftware,KiCad,Pcbnew,7.0.5-0*%
%TF.CreationDate,2023-08-23T15:17:08-05:00*%
%TF.ProjectId,4732_THT_V2,34373332-5f54-4485-945f-56322e6b6963,rev?*%
%TF.SameCoordinates,Original*%
%TF.FileFunction,Soldermask,Bot*%
%TF.FilePolarity,Negative*%
%FSLAX46Y46*%
G04 Gerber Fmt 4.6, Leading zero omitted, Abs format (unit mm)*
G04 Created by KiCad (PCBNEW 7.0.5-0) date 2023-08-23 15:17:08*
%MOMM*%
%LPD*%
G01*
G04 APERTURE LIST*
G04 Aperture macros list*
%AMRoundRect*
0 Rectangle with rounded corners*
0 $1 Rounding radius*
0 $2 $3 $4 $5 $6 $7 $8 $9 X,Y pos of 4 corners*
0 Add a 4 corners polygon primitive as box body*
4,1,4,$2,$3,$4,$5,$6,$7,$8,$9,$2,$3,0*
0 Add four circle primitives for the rounded corners*
1,1,$1+$1,$2,$3*
1,1,$1+$1,$4,$5*
1,1,$1+$1,$6,$7*
1,1,$1+$1,$8,$9*
0 Add four rect primitives between the rounded corners*
20,1,$1+$1,$2,$3,$4,$5,0*
20,1,$1+$1,$4,$5,$6,$7,0*
20,1,$1+$1,$6,$7,$8,$9,0*
20,1,$1+$1,$8,$9,$2,$3,0*%
G04 Aperture macros list end*
%ADD10C,5.700000*%
%ADD11C,1.700000*%
%ADD12O,1.700000X1.700000*%
%ADD13RoundRect,0.050000X-0.800000X-0.800000X0.800000X-0.800000X0.800000X0.800000X-0.800000X0.800000X0*%
%ADD14RoundRect,0.050000X0.647700X0.647700X-0.647700X0.647700X-0.647700X-0.647700X0.647700X-0.647700X0*%
%ADD15C,1.395400*%
%ADD16RoundRect,0.050000X0.525000X0.525000X-0.525000X0.525000X-0.525000X-0.525000X0.525000X-0.525000X0*%
%ADD17C,1.150000*%
%ADD18RoundRect,0.050000X-1.210000X2.540000X-1.210000X-2.540000X1.210000X-2.540000X1.210000X2.540000X0*%
%ADD19C,1.300000*%
%ADD20O,2.716000X1.408000*%
%ADD21O,1.408000X2.716000*%
%ADD22C,1.700200*%
%ADD23RoundRect,0.050000X-0.850000X-0.850000X0.850000X-0.850000X0.850000X0.850000X-0.850000X0.850000X0*%
%ADD24O,1.800000X1.800000*%
%ADD25C,1.100000*%
%ADD26RoundRect,0.050000X0.600000X0.600000X-0.600000X0.600000X-0.600000X-0.600000X0.600000X-0.600000X0*%
%ADD27RoundRect,0.050000X-0.647700X-0.647700X0.647700X-0.647700X0.647700X0.647700X-0.647700X0.647700X0*%
G04 APERTURE END LIST*
D10*
%TO.C,REF\u002A\u002A*%
X96500000Y-53500000D03*
%TD*%
D11*
%TO.C,R2*%
X58000000Y-73390000D03*
D12*
X65620000Y-73390000D03*
%TD*%
D13*
%TO.C,U3*%
X58000000Y-80000000D03*
D12*
X58000000Y-82540000D03*
X58000000Y-85080000D03*
X58000000Y-87620000D03*
X58000000Y-90160000D03*
X58000000Y-92700000D03*
X58000000Y-95240000D03*
X65620000Y-95240000D03*
X65620000Y-92700000D03*
X65620000Y-90160000D03*
X65620000Y-87620000D03*
X65620000Y-85080000D03*
X65620000Y-82540000D03*
X65620000Y-80000000D03*
%TD*%
D14*
%TO.C,C3*%
X65901000Y-76630000D03*
D15*
X57519000Y-76630000D03*
%TD*%
D16*
%TO.C,C11*%
X91250000Y-98000000D03*
D17*
X88750000Y-98000000D03*
%TD*%
D11*
%TO.C,R16*%
X83000000Y-69660000D03*
D12*
X90620000Y-69660000D03*
%TD*%
D18*
%TO.C,J4*%
X79380000Y-52980000D03*
X70620000Y-52980000D03*
%TD*%
D16*
%TO.C,C4*%
X55690000Y-65140000D03*
D17*
X53190000Y-65140000D03*
%TD*%
D10*
%TO.C,REF\u002A\u002A*%
X96500000Y-101500000D03*
%TD*%
D11*
%TO.C,C1*%
X74040000Y-76000000D03*
X71540000Y-76000000D03*
%TD*%
D19*
%TO.C,J2*%
X70000000Y-103000000D03*
X80000000Y-103000000D03*
X70000000Y-100500000D03*
X80000000Y-100500000D03*
X75000000Y-95500000D03*
D20*
X75000000Y-100500000D03*
D21*
X80000000Y-95500000D03*
X70000000Y-95500000D03*
X77500000Y-95500000D03*
X72500000Y-95500000D03*
%TD*%
D11*
%TO.C,R5*%
X92500000Y-91000000D03*
D12*
X84880000Y-91000000D03*
%TD*%
D11*
%TO.C,C5*%
X85000000Y-79825000D03*
X82500000Y-79825000D03*
%TD*%
%TO.C,C2*%
X79940000Y-76000000D03*
X82440000Y-76000000D03*
%TD*%
D22*
%TO.C,J3*%
X89000000Y-53590000D03*
X86460000Y-53590000D03*
X89000000Y-51050000D03*
X86460000Y-51050000D03*
%TD*%
D16*
%TO.C,C15*%
X85750000Y-98000000D03*
D17*
X83250000Y-98000000D03*
%TD*%
D23*
%TO.C,J1*%
X97460000Y-60160000D03*
D24*
X97460000Y-62700000D03*
X97460000Y-65240000D03*
X97460000Y-67780000D03*
X97460000Y-70320000D03*
%TD*%
D10*
%TO.C,REF\u002A\u002A*%
X53500000Y-101500000D03*
%TD*%
D25*
%TO.C,Y1*%
X76250000Y-76000000D03*
X77750000Y-76000000D03*
%TD*%
D26*
%TO.C,C8*%
X55000000Y-78000000D03*
D19*
X53500000Y-78000000D03*
%TD*%
D11*
%TO.C,C10*%
X72000000Y-91000000D03*
X69500000Y-91000000D03*
%TD*%
%TO.C,R4*%
X83000000Y-60660000D03*
D12*
X90620000Y-60660000D03*
%TD*%
D13*
%TO.C,U2*%
X58000000Y-62600000D03*
D12*
X58000000Y-65140000D03*
X58000000Y-67680000D03*
X58000000Y-70220000D03*
X65620000Y-70220000D03*
X65620000Y-67680000D03*
X65620000Y-65140000D03*
X65620000Y-62600000D03*
%TD*%
D10*
%TO.C,REF\u002A\u002A*%
X53500000Y-53500000D03*
%TD*%
D11*
%TO.C,C9*%
X80000000Y-61500000D03*
X77500000Y-61500000D03*
%TD*%
%TO.C,R1*%
X83000000Y-63660000D03*
D12*
X90620000Y-63660000D03*
%TD*%
D27*
%TO.C,C7*%
X83000000Y-72660000D03*
D15*
X91382000Y-72660000D03*
%TD*%
D11*
%TO.C,R3*%
X83000000Y-66660000D03*
D12*
X90620000Y-66660000D03*
%TD*%
D11*
%TO.C,C6*%
X71720000Y-61500000D03*
X69220000Y-61500000D03*
%TD*%
D22*
%TO.C,J5*%
X63540000Y-53590000D03*
X61000000Y-53590000D03*
X63540000Y-51050000D03*
X61000000Y-51050000D03*
%TD*%
D11*
%TO.C,R12*%
X74500000Y-91000000D03*
D12*
X82120000Y-91000000D03*
%TD*%
M02*
