%TF.GenerationSoftware,KiCad,Pcbnew,7.0.5-0*%
%TF.CreationDate,2023-08-23T15:17:08-05:00*%
%TF.ProjectId,4732_THT_V2,34373332-5f54-4485-945f-56322e6b6963,rev?*%
%TF.SameCoordinates,Original*%
%TF.FileFunction,Copper,L2,Bot*%
%TF.FilePolarity,Positive*%
%FSLAX46Y46*%
G04 Gerber Fmt 4.6, Leading zero omitted, Abs format (unit mm)*
G04 Created by KiCad (PCBNEW 7.0.5-0) date 2023-08-23 15:17:08*
%MOMM*%
%LPD*%
G01*
G04 APERTURE LIST*
%TA.AperFunction,ComponentPad*%
%ADD10C,5.600000*%
%TD*%
%TA.AperFunction,ComponentPad*%
%ADD11C,1.600000*%
%TD*%
%TA.AperFunction,ComponentPad*%
%ADD12O,1.600000X1.600000*%
%TD*%
%TA.AperFunction,ComponentPad*%
%ADD13R,1.600000X1.600000*%
%TD*%
%TA.AperFunction,ComponentPad*%
%ADD14R,1.295400X1.295400*%
%TD*%
%TA.AperFunction,ComponentPad*%
%ADD15C,1.295400*%
%TD*%
%TA.AperFunction,ComponentPad*%
%ADD16R,1.050000X1.050000*%
%TD*%
%TA.AperFunction,ComponentPad*%
%ADD17C,1.050000*%
%TD*%
%TA.AperFunction,SMDPad,CuDef*%
%ADD18R,2.420000X5.080000*%
%TD*%
%TA.AperFunction,SMDPad,CuDef*%
%ADD19R,0.460000X0.950000*%
%TD*%
%TA.AperFunction,ComponentPad*%
%ADD20C,0.970000*%
%TD*%
%TA.AperFunction,ComponentPad*%
%ADD21O,2.616000X1.308000*%
%TD*%
%TA.AperFunction,ComponentPad*%
%ADD22O,1.308000X2.616000*%
%TD*%
%TA.AperFunction,ComponentPad*%
%ADD23C,1.600200*%
%TD*%
%TA.AperFunction,ComponentPad*%
%ADD24R,1.700000X1.700000*%
%TD*%
%TA.AperFunction,ComponentPad*%
%ADD25O,1.700000X1.700000*%
%TD*%
%TA.AperFunction,ComponentPad*%
%ADD26C,1.000000*%
%TD*%
%TA.AperFunction,ComponentPad*%
%ADD27R,1.200000X1.200000*%
%TD*%
%TA.AperFunction,ComponentPad*%
%ADD28C,1.200000*%
%TD*%
%TA.AperFunction,ViaPad*%
%ADD29C,0.800000*%
%TD*%
%TA.AperFunction,ViaPad*%
%ADD30C,0.600000*%
%TD*%
%TA.AperFunction,Conductor*%
%ADD31C,0.500000*%
%TD*%
%TA.AperFunction,Conductor*%
%ADD32C,0.350000*%
%TD*%
%TA.AperFunction,Conductor*%
%ADD33C,0.200000*%
%TD*%
%TA.AperFunction,Conductor*%
%ADD34C,0.250000*%
%TD*%
G04 APERTURE END LIST*
D10*
%TO.P,REF\u002A\u002A,1*%
%TO.N,GND*%
X96500000Y-53500000D03*
%TD*%
D11*
%TO.P,R2,1*%
%TO.N,Net-(U2--VIN)*%
X58000000Y-73390000D03*
D12*
%TO.P,R2,2*%
%TO.N,Net-(J5-Pin_2)*%
X65620000Y-73390000D03*
%TD*%
D13*
%TO.P,U3,1*%
%TO.N,GND*%
X58000000Y-80000000D03*
D12*
%TO.P,U3,2*%
%TO.N,unconnected-(U3-Pad2)*%
X58000000Y-82540000D03*
%TO.P,U3,3*%
%TO.N,GND*%
X58000000Y-85080000D03*
%TO.P,U3,4*%
%TO.N,unconnected-(U3-Pad4)*%
X58000000Y-87620000D03*
%TO.P,U3,5*%
%TO.N,GND*%
X58000000Y-90160000D03*
%TO.P,U3,6*%
%TO.N,unconnected-(U3-Pad6)*%
X58000000Y-92700000D03*
%TO.P,U3,7,GND*%
%TO.N,GND*%
X58000000Y-95240000D03*
%TO.P,U3,8*%
%TO.N,unconnected-(U3-Pad8)*%
X65620000Y-95240000D03*
%TO.P,U3,9*%
%TO.N,GND*%
X65620000Y-92700000D03*
%TO.P,U3,10*%
%TO.N,unconnected-(U3-Pad10)*%
X65620000Y-90160000D03*
%TO.P,U3,11*%
%TO.N,GND*%
X65620000Y-87620000D03*
%TO.P,U3,12*%
%TO.N,Net-(U2-PD)*%
X65620000Y-85080000D03*
%TO.P,U3,13*%
%TO.N,Net-(U1-GPIO1)*%
X65620000Y-82540000D03*
%TO.P,U3,14,VCC*%
%TO.N,+3.3V*%
X65620000Y-80000000D03*
%TD*%
D14*
%TO.P,C3,1*%
%TO.N,GND*%
X65901000Y-76630000D03*
D15*
%TO.P,C3,2*%
%TO.N,Net-(U2-+VIN)*%
X57519000Y-76630000D03*
%TD*%
D16*
%TO.P,C11,1*%
%TO.N,Net-(U1-ROUT)*%
X91250000Y-98000000D03*
D17*
%TO.P,C11,2*%
%TO.N,Net-(C11-Pad2)*%
X88750000Y-98000000D03*
%TD*%
D11*
%TO.P,R16,1*%
%TO.N,Net-(U1-RST)*%
X83000000Y-69660000D03*
D12*
%TO.P,R16,2*%
%TO.N,Net-(J1-Pin_4)*%
X90620000Y-69660000D03*
%TD*%
D18*
%TO.P,J4,2,Ext*%
%TO.N,GND*%
X79380000Y-52980000D03*
X70620000Y-52980000D03*
D19*
X79380000Y-55970000D03*
X70620000Y-55970000D03*
D20*
X79380000Y-56420000D03*
X70620000Y-56420000D03*
%TD*%
D16*
%TO.P,C4,1*%
%TO.N,Net-(U2-VREF)*%
X55690000Y-65140000D03*
D17*
%TO.P,C4,2*%
%TO.N,GND*%
X53190000Y-65140000D03*
%TD*%
D10*
%TO.P,REF\u002A\u002A,1*%
%TO.N,GND*%
X96500000Y-101500000D03*
%TD*%
D11*
%TO.P,C1,1*%
%TO.N,Net-(U1-DCLK)*%
X74040000Y-76000000D03*
%TO.P,C1,2*%
%TO.N,GND*%
X71540000Y-76000000D03*
%TD*%
D21*
%TO.P,J2,1*%
%TO.N,GND*%
X75000000Y-100500000D03*
D22*
%TO.P,J2,2*%
%TO.N,Net-(C11-Pad2)*%
X80000000Y-95500000D03*
%TO.P,J2,3*%
%TO.N,Net-(C15-Pad2)*%
X70000000Y-95500000D03*
%TO.P,J2,10*%
%TO.N,Net-(J2-Pad10)*%
X77500000Y-95500000D03*
%TO.P,J2,11*%
%TO.N,Net-(J2-Pad11)*%
X72500000Y-95500000D03*
%TD*%
D11*
%TO.P,R5,1*%
%TO.N,Net-(J2-Pad10)*%
X92500000Y-91000000D03*
D12*
%TO.P,R5,2*%
%TO.N,Net-(C10-Pad1)*%
X84880000Y-91000000D03*
%TD*%
D11*
%TO.P,C5,1*%
%TO.N,+3.3V*%
X85000000Y-79825000D03*
%TO.P,C5,2*%
%TO.N,GND*%
X82500000Y-79825000D03*
%TD*%
%TO.P,C2,1*%
%TO.N,Net-(U1-RCLK)*%
X79940000Y-76000000D03*
%TO.P,C2,2*%
%TO.N,GND*%
X82440000Y-76000000D03*
%TD*%
D23*
%TO.P,J3,1,Pin_1*%
%TO.N,Net-(J3-Pin_1)*%
X89000000Y-53590000D03*
%TO.P,J3,2,Pin_2*%
%TO.N,GND*%
X86460000Y-53590000D03*
%TO.P,J3,3*%
%TO.N,N/C*%
X89000000Y-51050000D03*
%TO.P,J3,4*%
X86460000Y-51050000D03*
%TD*%
D16*
%TO.P,C15,1*%
%TO.N,Net-(U1-LOUT)*%
X85750000Y-98000000D03*
D17*
%TO.P,C15,2*%
%TO.N,Net-(C15-Pad2)*%
X83250000Y-98000000D03*
%TD*%
D24*
%TO.P,J1,1,Pin_1*%
%TO.N,+3.3V*%
X97460000Y-60160000D03*
D25*
%TO.P,J1,2,Pin_2*%
%TO.N,Net-(J1-Pin_2)*%
X97460000Y-62700000D03*
%TO.P,J1,3,Pin_3*%
%TO.N,Net-(J1-Pin_3)*%
X97460000Y-65240000D03*
%TO.P,J1,4,Pin_4*%
%TO.N,Net-(J1-Pin_4)*%
X97460000Y-67780000D03*
%TO.P,J1,5,Pin_5*%
%TO.N,GND*%
X97460000Y-70320000D03*
%TD*%
D10*
%TO.P,REF\u002A\u002A,1*%
%TO.N,GND*%
X53500000Y-101500000D03*
%TD*%
D26*
%TO.P,Y1,1,1*%
%TO.N,Net-(U1-DCLK)*%
X76250000Y-76000000D03*
%TO.P,Y1,2,2*%
%TO.N,Net-(U1-RCLK)*%
X77750000Y-76000000D03*
%TD*%
D27*
%TO.P,C8,1*%
%TO.N,+3.3V*%
X55000000Y-78000000D03*
D28*
%TO.P,C8,2*%
%TO.N,GND*%
X53500000Y-78000000D03*
%TD*%
D11*
%TO.P,C10,1*%
%TO.N,Net-(C10-Pad1)*%
X72000000Y-91000000D03*
%TO.P,C10,2*%
%TO.N,Net-(U2--VIN)*%
X69500000Y-91000000D03*
%TD*%
%TO.P,R4,1*%
%TO.N,+3.3V*%
X83000000Y-60660000D03*
D12*
%TO.P,R4,2*%
%TO.N,Net-(J1-Pin_2)*%
X90620000Y-60660000D03*
%TD*%
D13*
%TO.P,U2,1,PD*%
%TO.N,Net-(U2-PD)*%
X58000000Y-62600000D03*
D12*
%TO.P,U2,2,VREF*%
%TO.N,Net-(U2-VREF)*%
X58000000Y-65140000D03*
%TO.P,U2,3,+VIN*%
%TO.N,Net-(U2-+VIN)*%
X58000000Y-67680000D03*
%TO.P,U2,4,-VIN*%
%TO.N,Net-(U2--VIN)*%
X58000000Y-70220000D03*
%TO.P,U2,5,VO-*%
%TO.N,Net-(J5-Pin_2)*%
X65620000Y-70220000D03*
%TO.P,U2,6,VCC*%
%TO.N,+3.3V*%
X65620000Y-67680000D03*
%TO.P,U2,7,GND*%
%TO.N,GND*%
X65620000Y-65140000D03*
%TO.P,U2,8,VO+*%
%TO.N,Net-(J5-Pin_1)*%
X65620000Y-62600000D03*
%TD*%
D10*
%TO.P,REF\u002A\u002A,1*%
%TO.N,GND*%
X53500000Y-53500000D03*
%TD*%
D11*
%TO.P,C9,1*%
%TO.N,Net-(J3-Pin_1)*%
X80000000Y-61500000D03*
%TO.P,C9,2*%
%TO.N,Net-(U1-AMI)*%
X77500000Y-61500000D03*
%TD*%
%TO.P,R1,1*%
%TO.N,+3.3V*%
X83000000Y-63660000D03*
D12*
%TO.P,R1,2*%
%TO.N,Net-(J1-Pin_3)*%
X90620000Y-63660000D03*
%TD*%
D14*
%TO.P,C7,1*%
%TO.N,+3.3V*%
X83000000Y-72660000D03*
D15*
%TO.P,C7,2*%
%TO.N,GND*%
X91382000Y-72660000D03*
%TD*%
D11*
%TO.P,R3,1*%
%TO.N,+3.3V*%
X83000000Y-66660000D03*
D12*
%TO.P,R3,2*%
%TO.N,Net-(JP2-B)*%
X90620000Y-66660000D03*
%TD*%
D11*
%TO.P,C6,1*%
%TO.N,Net-(J4-In)*%
X71720000Y-61500000D03*
%TO.P,C6,2*%
%TO.N,Net-(U1-FMI)*%
X69220000Y-61500000D03*
%TD*%
D23*
%TO.P,J5,1,Pin_1*%
%TO.N,Net-(J5-Pin_1)*%
X63540000Y-53590000D03*
%TO.P,J5,2,Pin_2*%
%TO.N,Net-(J5-Pin_2)*%
X61000000Y-53590000D03*
%TO.P,J5,3*%
%TO.N,N/C*%
X63540000Y-51050000D03*
%TO.P,J5,4*%
X61000000Y-51050000D03*
%TD*%
D11*
%TO.P,R12,1*%
%TO.N,Net-(C10-Pad1)*%
X74500000Y-91000000D03*
D12*
%TO.P,R12,2*%
%TO.N,Net-(J2-Pad11)*%
X82120000Y-91000000D03*
%TD*%
D29*
%TO.N,GND*%
X76120000Y-86190000D03*
X95750000Y-76230000D03*
%TO.N,Net-(J4-In)*%
X75000000Y-57340000D03*
%TO.N,Net-(U1-ROUT)*%
X84070000Y-77930000D03*
D30*
%TO.N,Net-(U1-RST)*%
X89739500Y-74160000D03*
D29*
%TO.N,Net-(U1-FMI)*%
X70700000Y-84905000D03*
%TO.N,Net-(U1-AMI)*%
X72500000Y-87445000D03*
%TO.N,Net-(U1-LOUT)*%
X72785000Y-78555000D03*
D30*
%TO.N,Net-(U1-GPIO1)*%
X68184500Y-82365000D03*
%TD*%
D31*
%TO.N,GND*%
X70610000Y-53040000D02*
X70620000Y-53030000D01*
D32*
%TO.N,+3.3V*%
X65620000Y-67680000D02*
X63490000Y-69810000D01*
X63490000Y-69810000D02*
X63490000Y-77870000D01*
X63490000Y-77870000D02*
X65620000Y-80000000D01*
D31*
%TO.N,Net-(J4-In)*%
X75000000Y-57340000D02*
X75000000Y-59271573D01*
X72771573Y-61500000D02*
X71720000Y-61500000D01*
X74414213Y-60685787D02*
X74185786Y-60914214D01*
X72771573Y-61499980D02*
G75*
G03*
X74185785Y-60914213I27J1999980D01*
G01*
X74414227Y-60685801D02*
G75*
G03*
X75000000Y-59271573I-1414227J1414201D01*
G01*
D32*
%TO.N,Net-(J3-Pin_1)*%
X80878680Y-58381320D02*
X81441321Y-57818679D01*
X86528680Y-56061320D02*
X89000000Y-53590000D01*
X83562641Y-56940000D02*
X84407359Y-56940000D01*
X80000000Y-61500000D02*
X80000000Y-60502641D01*
X80878660Y-58381300D02*
G75*
G03*
X80000000Y-60502641I2121340J-2121300D01*
G01*
X83562641Y-56940029D02*
G75*
G03*
X81441321Y-57818679I-41J-2999971D01*
G01*
X84407359Y-56939971D02*
G75*
G03*
X86528680Y-56061320I41J2999971D01*
G01*
%TO.N,Net-(U1-ROUT)*%
X89770000Y-81092641D02*
X89770000Y-95347359D01*
X90648680Y-97468680D02*
X91180000Y-98000000D01*
X91180000Y-98000000D02*
X91250000Y-98000000D01*
X84070000Y-77930000D02*
X86607359Y-77930000D01*
X88728680Y-78808680D02*
X88891321Y-78971321D01*
X89769971Y-81092641D02*
G75*
G03*
X88891321Y-78971321I-2999971J41D01*
G01*
X89770029Y-95347359D02*
G75*
G03*
X90648680Y-97468680I2999971J-41D01*
G01*
X88728700Y-78808660D02*
G75*
G03*
X86607359Y-77930000I-2121300J-2121340D01*
G01*
D33*
%TO.N,Net-(U1-RST)*%
X89739500Y-71209500D02*
X88190000Y-69660000D01*
X89739500Y-74160000D02*
X89739500Y-71209500D01*
X88190000Y-69660000D02*
X83000000Y-69660000D01*
D32*
%TO.N,Net-(U1-FMI)*%
X69210000Y-61430000D02*
X69210000Y-82586573D01*
X69795787Y-84000787D02*
X70700000Y-84905000D01*
X69209978Y-82586573D02*
G75*
G03*
X69795787Y-84000787I2000122J73D01*
G01*
%TO.N,Net-(U1-AMI)*%
X70260000Y-77834718D02*
X70260000Y-70396854D01*
X71621321Y-80438680D02*
X71138680Y-79956039D01*
X72500000Y-87445000D02*
X72500000Y-82560000D01*
X71431573Y-67568427D02*
X77500000Y-61500000D01*
X72500000Y-82560000D02*
G75*
G03*
X71621321Y-80438680I-3000000J0D01*
G01*
X70260029Y-77834718D02*
G75*
G03*
X71138680Y-79956039I2999871J-82D01*
G01*
X71431596Y-67568450D02*
G75*
G03*
X70260000Y-70396854I2828404J-2828450D01*
G01*
D34*
%TO.N,Net-(U2-PD)*%
X61380000Y-80840000D02*
X65620000Y-85080000D01*
X61380000Y-65980000D02*
X61380000Y-80840000D01*
X58000000Y-62600000D02*
X61380000Y-65980000D01*
D32*
%TO.N,Net-(U1-LOUT)*%
X75672359Y-78555000D02*
X78311321Y-81193962D01*
X80068680Y-92318680D02*
X85750000Y-98000000D01*
X72785000Y-78555000D02*
X75672359Y-78555000D01*
X79190000Y-83315282D02*
X79190000Y-90197359D01*
X79190029Y-90197359D02*
G75*
G03*
X80068680Y-92318680I2999971J-41D01*
G01*
X79190012Y-83315282D02*
G75*
G03*
X78311320Y-81193963I-3000012J-18D01*
G01*
D33*
%TO.N,Net-(U1-GPIO1)*%
X65795000Y-82365000D02*
X65620000Y-82540000D01*
X68184500Y-82365000D02*
X65795000Y-82365000D01*
%TD*%
%TA.AperFunction,Conductor*%
%TO.N,GND*%
G36*
X50234012Y-102180592D02*
G01*
X50272396Y-102240318D01*
X50272907Y-102242107D01*
X50360559Y-102557801D01*
X50493326Y-102891021D01*
X50493330Y-102891030D01*
X50661350Y-103207952D01*
X50661352Y-103207956D01*
X50862654Y-103504854D01*
X50988167Y-103652621D01*
X52199994Y-102440794D01*
X52201570Y-102443365D01*
X52365130Y-102634870D01*
X52556635Y-102798430D01*
X52559204Y-102800004D01*
X51344502Y-104014706D01*
X51355299Y-104024932D01*
X51640861Y-104242013D01*
X51640867Y-104242017D01*
X51948227Y-104426949D01*
X51948234Y-104426953D01*
X52273766Y-104577561D01*
X52273785Y-104577569D01*
X52613706Y-104692101D01*
X52613723Y-104692106D01*
X52765185Y-104725446D01*
X52827414Y-104759624D01*
X52861285Y-104822020D01*
X52856046Y-104892823D01*
X52813359Y-104949554D01*
X52746778Y-104974201D01*
X52738099Y-104974500D01*
X52501903Y-104974500D01*
X52498099Y-104974385D01*
X52453724Y-104971700D01*
X52205539Y-104956688D01*
X52197980Y-104955770D01*
X52015862Y-104922396D01*
X51911562Y-104903283D01*
X51904172Y-104901461D01*
X51626167Y-104814831D01*
X51619048Y-104812131D01*
X51353525Y-104692628D01*
X51346783Y-104689089D01*
X51097588Y-104538447D01*
X51091325Y-104534124D01*
X50862100Y-104354538D01*
X50856409Y-104349496D01*
X50650502Y-104143589D01*
X50645461Y-104137899D01*
X50584721Y-104060370D01*
X50465872Y-103908671D01*
X50461552Y-103902411D01*
X50310910Y-103653216D01*
X50307371Y-103646474D01*
X50295948Y-103621093D01*
X50187864Y-103380941D01*
X50185168Y-103373832D01*
X50139997Y-103228875D01*
X50098536Y-103095822D01*
X50096719Y-103088449D01*
X50044228Y-102802012D01*
X50043312Y-102794470D01*
X50025614Y-102501900D01*
X50025500Y-102498097D01*
X50025500Y-102275816D01*
X50045502Y-102207695D01*
X50099158Y-102161202D01*
X50169432Y-102151098D01*
X50234012Y-102180592D01*
G37*
%TD.AperFunction*%
%TA.AperFunction,Conductor*%
G36*
X60387077Y-50045502D02*
G01*
X60433570Y-50099158D01*
X60443674Y-50169432D01*
X60414180Y-50234012D01*
X60398890Y-50248899D01*
X60289046Y-50339046D01*
X60164006Y-50491406D01*
X60071093Y-50665234D01*
X60071091Y-50665239D01*
X60013878Y-50853844D01*
X60013876Y-50853855D01*
X59994559Y-51049996D01*
X59994559Y-51050003D01*
X60013876Y-51246144D01*
X60013878Y-51246155D01*
X60071091Y-51434760D01*
X60071093Y-51434765D01*
X60103367Y-51495145D01*
X60164006Y-51608593D01*
X60289046Y-51760954D01*
X60441407Y-51885994D01*
X60605315Y-51973604D01*
X60615234Y-51978906D01*
X60615239Y-51978908D01*
X60803844Y-52036121D01*
X60803845Y-52036121D01*
X60803848Y-52036122D01*
X60803851Y-52036122D01*
X60803855Y-52036123D01*
X60999997Y-52055441D01*
X61000000Y-52055441D01*
X61000003Y-52055441D01*
X61196144Y-52036123D01*
X61196146Y-52036122D01*
X61196152Y-52036122D01*
X61259023Y-52017050D01*
X61384760Y-51978908D01*
X61384761Y-51978907D01*
X61384766Y-51978906D01*
X61558593Y-51885994D01*
X61710954Y-51760954D01*
X61835994Y-51608593D01*
X61928906Y-51434766D01*
X61986122Y-51246152D01*
X62001076Y-51094324D01*
X62005441Y-51050003D01*
X62005441Y-51049996D01*
X61986123Y-50853855D01*
X61986121Y-50853844D01*
X61928908Y-50665239D01*
X61928906Y-50665234D01*
X61879633Y-50573050D01*
X61835994Y-50491407D01*
X61710954Y-50339046D01*
X61601109Y-50248898D01*
X61561141Y-50190222D01*
X61559241Y-50119251D01*
X61596012Y-50058519D01*
X61659780Y-50027307D01*
X61681044Y-50025500D01*
X62858956Y-50025500D01*
X62927077Y-50045502D01*
X62973570Y-50099158D01*
X62983674Y-50169432D01*
X62954180Y-50234012D01*
X62938890Y-50248899D01*
X62829046Y-50339046D01*
X62704006Y-50491406D01*
X62611093Y-50665234D01*
X62611091Y-50665239D01*
X62553878Y-50853844D01*
X62553876Y-50853855D01*
X62534559Y-51049996D01*
X62534559Y-51050003D01*
X62553876Y-51246144D01*
X62553878Y-51246155D01*
X62611091Y-51434760D01*
X62611093Y-51434765D01*
X62643367Y-51495145D01*
X62704006Y-51608593D01*
X62829046Y-51760954D01*
X62981407Y-51885994D01*
X63145315Y-51973604D01*
X63155234Y-51978906D01*
X63155239Y-51978908D01*
X63343844Y-52036121D01*
X63343845Y-52036121D01*
X63343848Y-52036122D01*
X63343851Y-52036122D01*
X63343855Y-52036123D01*
X63539997Y-52055441D01*
X63540000Y-52055441D01*
X63540003Y-52055441D01*
X63736144Y-52036123D01*
X63736146Y-52036122D01*
X63736152Y-52036122D01*
X63799023Y-52017050D01*
X63924760Y-51978908D01*
X63924761Y-51978907D01*
X63924766Y-51978906D01*
X64098593Y-51885994D01*
X64250954Y-51760954D01*
X64375994Y-51608593D01*
X64468906Y-51434766D01*
X64526122Y-51246152D01*
X64541076Y-51094324D01*
X64545441Y-51050003D01*
X64545441Y-51049996D01*
X64526123Y-50853855D01*
X64526121Y-50853844D01*
X64468908Y-50665239D01*
X64468906Y-50665234D01*
X64419633Y-50573050D01*
X64375994Y-50491407D01*
X64250954Y-50339046D01*
X64141109Y-50248898D01*
X64101141Y-50190222D01*
X64099241Y-50119251D01*
X64136012Y-50058519D01*
X64199780Y-50027307D01*
X64221044Y-50025500D01*
X68840941Y-50025500D01*
X68909062Y-50045502D01*
X68955555Y-50099158D01*
X68965659Y-50169432D01*
X68958997Y-50195532D01*
X68908505Y-50330905D01*
X68902000Y-50391402D01*
X68902000Y-52726000D01*
X72338000Y-52726000D01*
X72338000Y-50391414D01*
X72337999Y-50391402D01*
X72331494Y-50330905D01*
X72281003Y-50195532D01*
X72275939Y-50124717D01*
X72309964Y-50062404D01*
X72372276Y-50028379D01*
X72399059Y-50025500D01*
X77600941Y-50025500D01*
X77669062Y-50045502D01*
X77715555Y-50099158D01*
X77725659Y-50169432D01*
X77718997Y-50195532D01*
X77668505Y-50330905D01*
X77662000Y-50391402D01*
X77662000Y-52726000D01*
X81098000Y-52726000D01*
X81098000Y-50391414D01*
X81097999Y-50391402D01*
X81091494Y-50330905D01*
X81041003Y-50195532D01*
X81035939Y-50124717D01*
X81069964Y-50062404D01*
X81132276Y-50028379D01*
X81159059Y-50025500D01*
X85778956Y-50025500D01*
X85847077Y-50045502D01*
X85893570Y-50099158D01*
X85903674Y-50169432D01*
X85874180Y-50234012D01*
X85858890Y-50248899D01*
X85749046Y-50339046D01*
X85624006Y-50491406D01*
X85531093Y-50665234D01*
X85531091Y-50665239D01*
X85473878Y-50853844D01*
X85473876Y-50853855D01*
X85454559Y-51049996D01*
X85454559Y-51050003D01*
X85473876Y-51246144D01*
X85473878Y-51246155D01*
X85531091Y-51434760D01*
X85531093Y-51434765D01*
X85563367Y-51495145D01*
X85624006Y-51608593D01*
X85749046Y-51760954D01*
X85901407Y-51885994D01*
X86065315Y-51973604D01*
X86075234Y-51978906D01*
X86075239Y-51978908D01*
X86234247Y-52027142D01*
X86263848Y-52036122D01*
X86302281Y-52039907D01*
X86368111Y-52066488D01*
X86409122Y-52124441D01*
X86412291Y-52195367D01*
X86376611Y-52256747D01*
X86313411Y-52289093D01*
X86300914Y-52290820D01*
X86231988Y-52296851D01*
X86231981Y-52296852D01*
X86010895Y-52356091D01*
X86010891Y-52356093D01*
X85803452Y-52452824D01*
X85732038Y-52502828D01*
X86295340Y-53066129D01*
X86173588Y-53119015D01*
X86057138Y-53213754D01*
X85970567Y-53336397D01*
X85938216Y-53427425D01*
X85372828Y-52862038D01*
X85322824Y-52933452D01*
X85226093Y-53140891D01*
X85226091Y-53140895D01*
X85166852Y-53361979D01*
X85146903Y-53589999D01*
X85166852Y-53818020D01*
X85226091Y-54039104D01*
X85226093Y-54039108D01*
X85322826Y-54246552D01*
X85372826Y-54317960D01*
X85372829Y-54317960D01*
X85936395Y-53754393D01*
X85940594Y-53774597D01*
X86009658Y-53907886D01*
X86112123Y-54017598D01*
X86240388Y-54095598D01*
X86297584Y-54111623D01*
X85732038Y-54677170D01*
X85803455Y-54727177D01*
X86010891Y-54823906D01*
X86010895Y-54823908D01*
X86231979Y-54883147D01*
X86460000Y-54903096D01*
X86688020Y-54883147D01*
X86900144Y-54826309D01*
X86971120Y-54827999D01*
X87029916Y-54867793D01*
X87057864Y-54933057D01*
X87046091Y-55003071D01*
X87021851Y-55037109D01*
X86554107Y-55504854D01*
X86264417Y-55794544D01*
X86261848Y-55796973D01*
X86046347Y-55989552D01*
X86040819Y-55993961D01*
X85806566Y-56160168D01*
X85800580Y-56163930D01*
X85549185Y-56302867D01*
X85542815Y-56305935D01*
X85277452Y-56415848D01*
X85270778Y-56418183D01*
X84994769Y-56497697D01*
X84987876Y-56499270D01*
X84704705Y-56547379D01*
X84697679Y-56548171D01*
X84408606Y-56564401D01*
X84405074Y-56564500D01*
X83529241Y-56564500D01*
X83528548Y-56564527D01*
X83396801Y-56564527D01*
X83066760Y-56597030D01*
X83066755Y-56597030D01*
X82741480Y-56661727D01*
X82424110Y-56757997D01*
X82424093Y-56758003D01*
X82117698Y-56884912D01*
X81825204Y-57041248D01*
X81825200Y-57041251D01*
X81549438Y-57225505D01*
X81549432Y-57225509D01*
X81293063Y-57435903D01*
X81293057Y-57435908D01*
X81220111Y-57508852D01*
X81175805Y-57553158D01*
X81144811Y-57584150D01*
X81144810Y-57584149D01*
X81144809Y-57584150D01*
X81144810Y-57584151D01*
X81137627Y-57591333D01*
X81137627Y-57591334D01*
X80650080Y-58078880D01*
X80649997Y-58078925D01*
X80495882Y-58233041D01*
X80495879Y-58233044D01*
X80285480Y-58489424D01*
X80101224Y-58765188D01*
X79944886Y-59057685D01*
X79817976Y-59364082D01*
X79817970Y-59364099D01*
X79721699Y-59681472D01*
X79721698Y-59681478D01*
X79657001Y-60006750D01*
X79657000Y-60006757D01*
X79624498Y-60336799D01*
X79624498Y-60336817D01*
X79624500Y-60463715D01*
X79624500Y-60490732D01*
X79604498Y-60558853D01*
X79557897Y-60601854D01*
X79441459Y-60664091D01*
X79289117Y-60789117D01*
X79164090Y-60941461D01*
X79071186Y-61115271D01*
X79013974Y-61303873D01*
X79013974Y-61303875D01*
X78994659Y-61499996D01*
X78994659Y-61500003D01*
X79013974Y-61696124D01*
X79013974Y-61696126D01*
X79071186Y-61884728D01*
X79106342Y-61950500D01*
X79164090Y-62058538D01*
X79289117Y-62210883D01*
X79441462Y-62335910D01*
X79615273Y-62428814D01*
X79803868Y-62486024D01*
X79803872Y-62486024D01*
X79803874Y-62486025D01*
X79999997Y-62505341D01*
X80000000Y-62505341D01*
X80000003Y-62505341D01*
X80196124Y-62486025D01*
X80196126Y-62486025D01*
X80196127Y-62486024D01*
X80196132Y-62486024D01*
X80384727Y-62428814D01*
X80558538Y-62335910D01*
X80710883Y-62210883D01*
X80835910Y-62058538D01*
X80928814Y-61884727D01*
X80986024Y-61696132D01*
X80990959Y-61646024D01*
X81005341Y-61500003D01*
X81005341Y-61499996D01*
X80986025Y-61303875D01*
X80986025Y-61303873D01*
X80986024Y-61303870D01*
X80986024Y-61303868D01*
X80928814Y-61115273D01*
X80835910Y-60941462D01*
X80710883Y-60789117D01*
X80558538Y-60664090D01*
X80550892Y-60660003D01*
X81994659Y-60660003D01*
X82013974Y-60856124D01*
X82013974Y-60856126D01*
X82071186Y-61044728D01*
X82129888Y-61154551D01*
X82164090Y-61218538D01*
X82289117Y-61370883D01*
X82441462Y-61495910D01*
X82615273Y-61588814D01*
X82803868Y-61646024D01*
X82803872Y-61646024D01*
X82803874Y-61646025D01*
X82999997Y-61665341D01*
X83000000Y-61665341D01*
X83000003Y-61665341D01*
X83196124Y-61646025D01*
X83196126Y-61646025D01*
X83196127Y-61646024D01*
X83196132Y-61646024D01*
X83384727Y-61588814D01*
X83558538Y-61495910D01*
X83710883Y-61370883D01*
X83835910Y-61218538D01*
X83928814Y-61044727D01*
X83986024Y-60856132D01*
X83987652Y-60839601D01*
X84005341Y-60660003D01*
X89614659Y-60660003D01*
X89633974Y-60856124D01*
X89633974Y-60856126D01*
X89691186Y-61044728D01*
X89749888Y-61154551D01*
X89784090Y-61218538D01*
X89909117Y-61370883D01*
X90061462Y-61495910D01*
X90235273Y-61588814D01*
X90423868Y-61646024D01*
X90423872Y-61646024D01*
X90423874Y-61646025D01*
X90619997Y-61665341D01*
X90620000Y-61665341D01*
X90620003Y-61665341D01*
X90816124Y-61646025D01*
X90816126Y-61646025D01*
X90816127Y-61646024D01*
X90816132Y-61646024D01*
X91004727Y-61588814D01*
X91178538Y-61495910D01*
X91330883Y-61370883D01*
X91455910Y-61218538D01*
X91548814Y-61044727D01*
X91553357Y-61029750D01*
X96409500Y-61029750D01*
X96414214Y-61053451D01*
X96421133Y-61088231D01*
X96465448Y-61154552D01*
X96531769Y-61198867D01*
X96590252Y-61210500D01*
X96590253Y-61210500D01*
X98329747Y-61210500D01*
X98329748Y-61210500D01*
X98388231Y-61198867D01*
X98454552Y-61154552D01*
X98498867Y-61088231D01*
X98510500Y-61029748D01*
X98510500Y-59290252D01*
X98498867Y-59231769D01*
X98454552Y-59165448D01*
X98388231Y-59121133D01*
X98388228Y-59121132D01*
X98329750Y-59109500D01*
X98329748Y-59109500D01*
X96590252Y-59109500D01*
X96590249Y-59109500D01*
X96531771Y-59121132D01*
X96531768Y-59121133D01*
X96465448Y-59165448D01*
X96421133Y-59231768D01*
X96421132Y-59231771D01*
X96409500Y-59290249D01*
X96409500Y-61029750D01*
X91553357Y-61029750D01*
X91606024Y-60856132D01*
X91607652Y-60839601D01*
X91625341Y-60660003D01*
X91625341Y-60659996D01*
X91606025Y-60463875D01*
X91606025Y-60463873D01*
X91606024Y-60463870D01*
X91606024Y-60463868D01*
X91548814Y-60275273D01*
X91455910Y-60101462D01*
X91330883Y-59949117D01*
X91178538Y-59824090D01*
X91178537Y-59824090D01*
X91004728Y-59731186D01*
X90844888Y-59682699D01*
X90816132Y-59673976D01*
X90816131Y-59673975D01*
X90816125Y-59673974D01*
X90620003Y-59654659D01*
X90619997Y-59654659D01*
X90423875Y-59673974D01*
X90423873Y-59673974D01*
X90235271Y-59731186D01*
X90061461Y-59824090D01*
X89909117Y-59949117D01*
X89784090Y-60101461D01*
X89691186Y-60275271D01*
X89633974Y-60463873D01*
X89633974Y-60463875D01*
X89614659Y-60659996D01*
X89614659Y-60660003D01*
X84005341Y-60660003D01*
X84005341Y-60659996D01*
X83986025Y-60463875D01*
X83986025Y-60463873D01*
X83986024Y-60463870D01*
X83986024Y-60463868D01*
X83928814Y-60275273D01*
X83835910Y-60101462D01*
X83710883Y-59949117D01*
X83558538Y-59824090D01*
X83558537Y-59824090D01*
X83384728Y-59731186D01*
X83224888Y-59682699D01*
X83196132Y-59673976D01*
X83196131Y-59673975D01*
X83196125Y-59673974D01*
X83000003Y-59654659D01*
X82999997Y-59654659D01*
X82803875Y-59673974D01*
X82803873Y-59673974D01*
X82615271Y-59731186D01*
X82441461Y-59824090D01*
X82289117Y-59949117D01*
X82164090Y-60101461D01*
X82071186Y-60275271D01*
X82013974Y-60463873D01*
X82013974Y-60463875D01*
X81994659Y-60659996D01*
X81994659Y-60660003D01*
X80550892Y-60660003D01*
X80442945Y-60602304D01*
X80392297Y-60552552D01*
X80376539Y-60484121D01*
X80391800Y-60212304D01*
X80392591Y-60205290D01*
X80410231Y-60101461D01*
X80440702Y-59922105D01*
X80442268Y-59915241D01*
X80521792Y-59639197D01*
X80524114Y-59632560D01*
X80634049Y-59367145D01*
X80637097Y-59360817D01*
X80776051Y-59109391D01*
X80779806Y-59103417D01*
X80812256Y-59057682D01*
X80946028Y-58869145D01*
X80950411Y-58863648D01*
X81142682Y-58648491D01*
X81145080Y-58645955D01*
X81705590Y-58085446D01*
X81708128Y-58083046D01*
X81923667Y-57890433D01*
X81929164Y-57886050D01*
X82163435Y-57719830D01*
X82169412Y-57716074D01*
X82420831Y-57577122D01*
X82427164Y-57574072D01*
X82692549Y-57464150D01*
X82699221Y-57461816D01*
X82740601Y-57449894D01*
X82975247Y-57382298D01*
X82982107Y-57380732D01*
X83265301Y-57332619D01*
X83272308Y-57331829D01*
X83476093Y-57320387D01*
X83561394Y-57315599D01*
X83564926Y-57315500D01*
X84440767Y-57315500D01*
X84441454Y-57315471D01*
X84573181Y-57315473D01*
X84573191Y-57315472D01*
X84573197Y-57315472D01*
X84701810Y-57302806D01*
X84903239Y-57282970D01*
X84903244Y-57282969D01*
X84903245Y-57282969D01*
X85228507Y-57218274D01*
X85228509Y-57218273D01*
X85228521Y-57218271D01*
X85545896Y-57122001D01*
X85852306Y-56995086D01*
X86144801Y-56838749D01*
X86420563Y-56654494D01*
X86676937Y-56444097D01*
X86739511Y-56381523D01*
X86739519Y-56381517D01*
X86749889Y-56371146D01*
X86749891Y-56371146D01*
X88551780Y-54569255D01*
X88614089Y-54535233D01*
X88677448Y-54537779D01*
X88803844Y-54576121D01*
X88803845Y-54576121D01*
X88803848Y-54576122D01*
X88803851Y-54576122D01*
X88803855Y-54576123D01*
X88999997Y-54595441D01*
X89000000Y-54595441D01*
X89000003Y-54595441D01*
X89196144Y-54576123D01*
X89196146Y-54576122D01*
X89196152Y-54576122D01*
X89330944Y-54535233D01*
X89384760Y-54518908D01*
X89384761Y-54518907D01*
X89384766Y-54518906D01*
X89558593Y-54425994D01*
X89710954Y-54300954D01*
X89835994Y-54148593D01*
X89928906Y-53974766D01*
X89986122Y-53786152D01*
X89987260Y-53774597D01*
X90005441Y-53590003D01*
X90005441Y-53589996D01*
X89986123Y-53393855D01*
X89986121Y-53393844D01*
X89928908Y-53205239D01*
X89928906Y-53205234D01*
X89906012Y-53162402D01*
X89835994Y-53031407D01*
X89710954Y-52879046D01*
X89558593Y-52754006D01*
X89502798Y-52724183D01*
X89384765Y-52661093D01*
X89384760Y-52661091D01*
X89196155Y-52603878D01*
X89196144Y-52603876D01*
X89000003Y-52584559D01*
X88999997Y-52584559D01*
X88803855Y-52603876D01*
X88803844Y-52603878D01*
X88615239Y-52661091D01*
X88615234Y-52661093D01*
X88441406Y-52754006D01*
X88289046Y-52879046D01*
X88164006Y-53031406D01*
X88071093Y-53205234D01*
X88071091Y-53205239D01*
X88013878Y-53393844D01*
X88013876Y-53393855D01*
X88010092Y-53432281D01*
X87983510Y-53498113D01*
X87925555Y-53539123D01*
X87854629Y-53542290D01*
X87793250Y-53506609D01*
X87760906Y-53443409D01*
X87759178Y-53430913D01*
X87753147Y-53361979D01*
X87693908Y-53140895D01*
X87693906Y-53140891D01*
X87597173Y-52933448D01*
X87547172Y-52862038D01*
X87547170Y-52862038D01*
X86983603Y-53425604D01*
X86979406Y-53405403D01*
X86910342Y-53272114D01*
X86807877Y-53162402D01*
X86679612Y-53084402D01*
X86622414Y-53068375D01*
X87187960Y-52502829D01*
X87187960Y-52502826D01*
X87116552Y-52452826D01*
X87116553Y-52452826D01*
X86909108Y-52356093D01*
X86909104Y-52356091D01*
X86688018Y-52296852D01*
X86688011Y-52296851D01*
X86619085Y-52290820D01*
X86552967Y-52264957D01*
X86511328Y-52207452D01*
X86507388Y-52136565D01*
X86542398Y-52074801D01*
X86605243Y-52041770D01*
X86617700Y-52039909D01*
X86656152Y-52036122D01*
X86656155Y-52036121D01*
X86844760Y-51978908D01*
X86844761Y-51978907D01*
X86844766Y-51978906D01*
X87018593Y-51885994D01*
X87170954Y-51760954D01*
X87295994Y-51608593D01*
X87388906Y-51434766D01*
X87446122Y-51246152D01*
X87461076Y-51094324D01*
X87465441Y-51050003D01*
X87465441Y-51049996D01*
X87446123Y-50853855D01*
X87446121Y-50853844D01*
X87388908Y-50665239D01*
X87388906Y-50665234D01*
X87339633Y-50573050D01*
X87295994Y-50491407D01*
X87170954Y-50339046D01*
X87061109Y-50248898D01*
X87021141Y-50190222D01*
X87019241Y-50119251D01*
X87056012Y-50058519D01*
X87119780Y-50027307D01*
X87141044Y-50025500D01*
X88318956Y-50025500D01*
X88387077Y-50045502D01*
X88433570Y-50099158D01*
X88443674Y-50169432D01*
X88414180Y-50234012D01*
X88398890Y-50248899D01*
X88289046Y-50339046D01*
X88164006Y-50491406D01*
X88071093Y-50665234D01*
X88071091Y-50665239D01*
X88013878Y-50853844D01*
X88013876Y-50853855D01*
X87994559Y-51049996D01*
X87994559Y-51050003D01*
X88013876Y-51246144D01*
X88013878Y-51246155D01*
X88071091Y-51434760D01*
X88071093Y-51434765D01*
X88103367Y-51495145D01*
X88164006Y-51608593D01*
X88289046Y-51760954D01*
X88441407Y-51885994D01*
X88605315Y-51973604D01*
X88615234Y-51978906D01*
X88615239Y-51978908D01*
X88803844Y-52036121D01*
X88803845Y-52036121D01*
X88803848Y-52036122D01*
X88803851Y-52036122D01*
X88803855Y-52036123D01*
X88999997Y-52055441D01*
X89000000Y-52055441D01*
X89000003Y-52055441D01*
X89196144Y-52036123D01*
X89196146Y-52036122D01*
X89196152Y-52036122D01*
X89259023Y-52017050D01*
X89384760Y-51978908D01*
X89384761Y-51978907D01*
X89384766Y-51978906D01*
X89558593Y-51885994D01*
X89710954Y-51760954D01*
X89835994Y-51608593D01*
X89928906Y-51434766D01*
X89986122Y-51246152D01*
X90001076Y-51094324D01*
X90005441Y-51050003D01*
X90005441Y-51049996D01*
X89986123Y-50853855D01*
X89986121Y-50853844D01*
X89928908Y-50665239D01*
X89928906Y-50665234D01*
X89879633Y-50573050D01*
X89835994Y-50491407D01*
X89710954Y-50339046D01*
X89601109Y-50248898D01*
X89561141Y-50190222D01*
X89559241Y-50119251D01*
X89596012Y-50058519D01*
X89659780Y-50027307D01*
X89681044Y-50025500D01*
X95738099Y-50025500D01*
X95806220Y-50045502D01*
X95852713Y-50099158D01*
X95862817Y-50169432D01*
X95833323Y-50234012D01*
X95773597Y-50272396D01*
X95765185Y-50274554D01*
X95613723Y-50307893D01*
X95613706Y-50307898D01*
X95273785Y-50422430D01*
X95273766Y-50422438D01*
X94948234Y-50573046D01*
X94948227Y-50573050D01*
X94640867Y-50757982D01*
X94640861Y-50757986D01*
X94355299Y-50975066D01*
X94344502Y-50985292D01*
X95559204Y-52199995D01*
X95556635Y-52201570D01*
X95365130Y-52365130D01*
X95201570Y-52556635D01*
X95199995Y-52559205D01*
X93988167Y-51347377D01*
X93988166Y-51347378D01*
X93862665Y-51495131D01*
X93661349Y-51792050D01*
X93493330Y-52108969D01*
X93493326Y-52108978D01*
X93360559Y-52442198D01*
X93264592Y-52787837D01*
X93206561Y-53141816D01*
X93187141Y-53499996D01*
X93187141Y-53500003D01*
X93206561Y-53858183D01*
X93264592Y-54212162D01*
X93360559Y-54557801D01*
X93493326Y-54891021D01*
X93493330Y-54891030D01*
X93661350Y-55207952D01*
X93661352Y-55207956D01*
X93862654Y-55504854D01*
X93988167Y-55652621D01*
X95199994Y-54440794D01*
X95201570Y-54443365D01*
X95365130Y-54634870D01*
X95556635Y-54798430D01*
X95559204Y-54800004D01*
X94344502Y-56014706D01*
X94355299Y-56024932D01*
X94640861Y-56242013D01*
X94640867Y-56242017D01*
X94948227Y-56426949D01*
X94948234Y-56426953D01*
X95273766Y-56577561D01*
X95273785Y-56577569D01*
X95613706Y-56692101D01*
X95613723Y-56692106D01*
X95964022Y-56769213D01*
X95964050Y-56769218D01*
X96320637Y-56807999D01*
X96320653Y-56808000D01*
X96679347Y-56808000D01*
X96679362Y-56807999D01*
X97035949Y-56769218D01*
X97035977Y-56769213D01*
X97386276Y-56692106D01*
X97386293Y-56692101D01*
X97726214Y-56577569D01*
X97726233Y-56577561D01*
X98051765Y-56426953D01*
X98051772Y-56426949D01*
X98359132Y-56242017D01*
X98359150Y-56242005D01*
X98644699Y-56024934D01*
X98644702Y-56024932D01*
X98655496Y-56014707D01*
X98655496Y-56014706D01*
X97440795Y-54800004D01*
X97443365Y-54798430D01*
X97634870Y-54634870D01*
X97798430Y-54443365D01*
X97800004Y-54440795D01*
X99011832Y-55652621D01*
X99137345Y-55504854D01*
X99338647Y-55207956D01*
X99338649Y-55207952D01*
X99506669Y-54891030D01*
X99506673Y-54891021D01*
X99639440Y-54557801D01*
X99727093Y-54242107D01*
X99764590Y-54181821D01*
X99828728Y-54151377D01*
X99899144Y-54160442D01*
X99953480Y-54206137D01*
X99974486Y-54273955D01*
X99974500Y-54275816D01*
X99974500Y-100724183D01*
X99954498Y-100792304D01*
X99900842Y-100838797D01*
X99830568Y-100848901D01*
X99765988Y-100819407D01*
X99727604Y-100759681D01*
X99727093Y-100757892D01*
X99639440Y-100442198D01*
X99506673Y-100108978D01*
X99506669Y-100108969D01*
X99338649Y-99792047D01*
X99338647Y-99792043D01*
X99137345Y-99495145D01*
X99011831Y-99347377D01*
X97800004Y-100559203D01*
X97798430Y-100556635D01*
X97634870Y-100365130D01*
X97443365Y-100201570D01*
X97440794Y-100199994D01*
X98655496Y-98985292D01*
X98644700Y-98975067D01*
X98359138Y-98757986D01*
X98359132Y-98757982D01*
X98051772Y-98573050D01*
X98051765Y-98573046D01*
X97726233Y-98422438D01*
X97726214Y-98422430D01*
X97386293Y-98307898D01*
X97386276Y-98307893D01*
X97035977Y-98230786D01*
X97035949Y-98230781D01*
X96679362Y-98192000D01*
X96320637Y-98192000D01*
X95964050Y-98230781D01*
X95964022Y-98230786D01*
X95613723Y-98307893D01*
X95613706Y-98307898D01*
X95273785Y-98422430D01*
X95273766Y-98422438D01*
X94948234Y-98573046D01*
X94948227Y-98573050D01*
X94640867Y-98757982D01*
X94640861Y-98757986D01*
X94355299Y-98975066D01*
X94344502Y-98985292D01*
X95559204Y-100199995D01*
X95556635Y-100201570D01*
X95365130Y-100365130D01*
X95201570Y-100556635D01*
X95199995Y-100559205D01*
X93988167Y-99347377D01*
X93988166Y-99347378D01*
X93862665Y-99495131D01*
X93661349Y-99792050D01*
X93493330Y-100108969D01*
X93493326Y-100108978D01*
X93360559Y-100442198D01*
X93264592Y-100787837D01*
X93206561Y-101141816D01*
X93187141Y-101499996D01*
X93187141Y-101500003D01*
X93206561Y-101858183D01*
X93264592Y-102212162D01*
X93360559Y-102557801D01*
X93493326Y-102891021D01*
X93493330Y-102891030D01*
X93661350Y-103207952D01*
X93661352Y-103207956D01*
X93862654Y-103504854D01*
X93988167Y-103652621D01*
X95199994Y-102440794D01*
X95201570Y-102443365D01*
X95365130Y-102634870D01*
X95556635Y-102798430D01*
X95559204Y-102800004D01*
X94344502Y-104014706D01*
X94355299Y-104024932D01*
X94640861Y-104242013D01*
X94640867Y-104242017D01*
X94948227Y-104426949D01*
X94948234Y-104426953D01*
X95273766Y-104577561D01*
X95273785Y-104577569D01*
X95613706Y-104692101D01*
X95613723Y-104692106D01*
X95765185Y-104725446D01*
X95827414Y-104759624D01*
X95861285Y-104822020D01*
X95856046Y-104892823D01*
X95813359Y-104949554D01*
X95746778Y-104974201D01*
X95738099Y-104974500D01*
X54261901Y-104974500D01*
X54193780Y-104954498D01*
X54147287Y-104900842D01*
X54137183Y-104830568D01*
X54166677Y-104765988D01*
X54226403Y-104727604D01*
X54234815Y-104725446D01*
X54386276Y-104692106D01*
X54386293Y-104692101D01*
X54726214Y-104577569D01*
X54726233Y-104577561D01*
X55051765Y-104426953D01*
X55051772Y-104426949D01*
X55359132Y-104242017D01*
X55359150Y-104242005D01*
X55644699Y-104024934D01*
X55644702Y-104024932D01*
X55655496Y-104014707D01*
X55655496Y-104014706D01*
X54440795Y-102800004D01*
X54443365Y-102798430D01*
X54634870Y-102634870D01*
X54798430Y-102443365D01*
X54800005Y-102440794D01*
X56011832Y-103652621D01*
X56137345Y-103504854D01*
X56338647Y-103207956D01*
X56338649Y-103207952D01*
X56473453Y-102953683D01*
X69145740Y-102953683D01*
X69155754Y-103138404D01*
X69155756Y-103138415D01*
X69205243Y-103316651D01*
X69205246Y-103316659D01*
X69291899Y-103480104D01*
X69354541Y-103553851D01*
X69411663Y-103621100D01*
X69490554Y-103681071D01*
X69558939Y-103733056D01*
X69652721Y-103776444D01*
X69726833Y-103810732D01*
X69907503Y-103850500D01*
X69907506Y-103850500D01*
X70046105Y-103850500D01*
X70046113Y-103850500D01*
X70057365Y-103849276D01*
X70183903Y-103835515D01*
X70183905Y-103835514D01*
X70183910Y-103835514D01*
X70359221Y-103776444D01*
X70517736Y-103681070D01*
X70652041Y-103553849D01*
X70755858Y-103400730D01*
X70824331Y-103228875D01*
X70854260Y-103046317D01*
X70849238Y-102953683D01*
X79145740Y-102953683D01*
X79155754Y-103138404D01*
X79155756Y-103138415D01*
X79205243Y-103316651D01*
X79205246Y-103316659D01*
X79291899Y-103480104D01*
X79354541Y-103553851D01*
X79411663Y-103621100D01*
X79490554Y-103681071D01*
X79558939Y-103733056D01*
X79652721Y-103776444D01*
X79726833Y-103810732D01*
X79907503Y-103850500D01*
X79907506Y-103850500D01*
X80046105Y-103850500D01*
X80046113Y-103850500D01*
X80057365Y-103849276D01*
X80183903Y-103835515D01*
X80183905Y-103835514D01*
X80183910Y-103835514D01*
X80359221Y-103776444D01*
X80517736Y-103681070D01*
X80652041Y-103553849D01*
X80755858Y-103400730D01*
X80824331Y-103228875D01*
X80854260Y-103046317D01*
X80844245Y-102861593D01*
X80794754Y-102683341D01*
X80754041Y-102606548D01*
X80708100Y-102519895D01*
X80588342Y-102378906D01*
X80588337Y-102378900D01*
X80441064Y-102266946D01*
X80441063Y-102266945D01*
X80441060Y-102266943D01*
X80273166Y-102189267D01*
X80092503Y-102149501D01*
X80092500Y-102149500D01*
X80092497Y-102149500D01*
X79953887Y-102149500D01*
X79953877Y-102149500D01*
X79816096Y-102164484D01*
X79816087Y-102164486D01*
X79640779Y-102223555D01*
X79640776Y-102223557D01*
X79482266Y-102318928D01*
X79482265Y-102318929D01*
X79347961Y-102446148D01*
X79244139Y-102599273D01*
X79175669Y-102771122D01*
X79175668Y-102771125D01*
X79145740Y-102953682D01*
X79145740Y-102953683D01*
X70849238Y-102953683D01*
X70844245Y-102861593D01*
X70794754Y-102683341D01*
X70754041Y-102606549D01*
X70708100Y-102519895D01*
X70588342Y-102378906D01*
X70588337Y-102378900D01*
X70441064Y-102266946D01*
X70441063Y-102266945D01*
X70441060Y-102266943D01*
X70273166Y-102189267D01*
X70092503Y-102149501D01*
X70092500Y-102149500D01*
X70092497Y-102149500D01*
X69953887Y-102149500D01*
X69953877Y-102149500D01*
X69816096Y-102164484D01*
X69816087Y-102164486D01*
X69640779Y-102223555D01*
X69640776Y-102223557D01*
X69482266Y-102318928D01*
X69482265Y-102318929D01*
X69347961Y-102446148D01*
X69244139Y-102599273D01*
X69175669Y-102771122D01*
X69175668Y-102771125D01*
X69145740Y-102953682D01*
X69145740Y-102953683D01*
X56473453Y-102953683D01*
X56506669Y-102891030D01*
X56506673Y-102891021D01*
X56639440Y-102557801D01*
X56735407Y-102212162D01*
X56793438Y-101858183D01*
X56812859Y-101500003D01*
X56812859Y-101499996D01*
X56793438Y-101141816D01*
X56735407Y-100787837D01*
X56642629Y-100453683D01*
X69145740Y-100453683D01*
X69155754Y-100638404D01*
X69155756Y-100638415D01*
X69205243Y-100816651D01*
X69205246Y-100816659D01*
X69291899Y-100980104D01*
X69354541Y-101053851D01*
X69411663Y-101121100D01*
X69519743Y-101203260D01*
X69558939Y-101233056D01*
X69652721Y-101276444D01*
X69726833Y-101310732D01*
X69907503Y-101350500D01*
X69907506Y-101350500D01*
X70046105Y-101350500D01*
X70046113Y-101350500D01*
X70057365Y-101349276D01*
X70183903Y-101335515D01*
X70183905Y-101335514D01*
X70183910Y-101335514D01*
X70359221Y-101276444D01*
X70517736Y-101181070D01*
X70652041Y-101053849D01*
X70755858Y-100900730D01*
X70776509Y-100848901D01*
X70814320Y-100754000D01*
X73211354Y-100754000D01*
X73223571Y-100819360D01*
X73301365Y-101020168D01*
X73301370Y-101020178D01*
X73414729Y-101203259D01*
X73414730Y-101203260D01*
X73559809Y-101362405D01*
X73731663Y-101492183D01*
X73924439Y-101588174D01*
X73924447Y-101588177D01*
X74131566Y-101647107D01*
X74292286Y-101662000D01*
X74746000Y-101662000D01*
X74746000Y-100900000D01*
X75254000Y-100900000D01*
X75254000Y-101662000D01*
X75707714Y-101662000D01*
X75868433Y-101647107D01*
X76075552Y-101588177D01*
X76075560Y-101588174D01*
X76268336Y-101492183D01*
X76440190Y-101362405D01*
X76585269Y-101203260D01*
X76585270Y-101203259D01*
X76698629Y-101020178D01*
X76698634Y-101020168D01*
X76776428Y-100819360D01*
X76788646Y-100754000D01*
X75661686Y-100754000D01*
X75677641Y-100738045D01*
X75735165Y-100625148D01*
X75754986Y-100500000D01*
X75747650Y-100453683D01*
X79145740Y-100453683D01*
X79155754Y-100638404D01*
X79155756Y-100638415D01*
X79205243Y-100816651D01*
X79205246Y-100816659D01*
X79291899Y-100980104D01*
X79354541Y-101053851D01*
X79411663Y-101121100D01*
X79519743Y-101203260D01*
X79558939Y-101233056D01*
X79652721Y-101276444D01*
X79726833Y-101310732D01*
X79907503Y-101350500D01*
X79907506Y-101350500D01*
X80046105Y-101350500D01*
X80046113Y-101350500D01*
X80057365Y-101349276D01*
X80183903Y-101335515D01*
X80183905Y-101335514D01*
X80183910Y-101335514D01*
X80359221Y-101276444D01*
X80517736Y-101181070D01*
X80652041Y-101053849D01*
X80755858Y-100900730D01*
X80776509Y-100848901D01*
X80824330Y-100728877D01*
X80824331Y-100728874D01*
X80839161Y-100638415D01*
X80854260Y-100546317D01*
X80844245Y-100361593D01*
X80794754Y-100183341D01*
X80750569Y-100100000D01*
X80708100Y-100019895D01*
X80588342Y-99878906D01*
X80588337Y-99878900D01*
X80441064Y-99766946D01*
X80441063Y-99766945D01*
X80441060Y-99766943D01*
X80273166Y-99689267D01*
X80092503Y-99649501D01*
X80092500Y-99649500D01*
X80092497Y-99649500D01*
X79953887Y-99649500D01*
X79953877Y-99649500D01*
X79816096Y-99664484D01*
X79816087Y-99664486D01*
X79640779Y-99723555D01*
X79640776Y-99723557D01*
X79482266Y-99818928D01*
X79482265Y-99818929D01*
X79347961Y-99946148D01*
X79244139Y-100099273D01*
X79175669Y-100271122D01*
X79175668Y-100271125D01*
X79145740Y-100453682D01*
X79145740Y-100453683D01*
X75747650Y-100453683D01*
X75735165Y-100374852D01*
X75677641Y-100261955D01*
X75661686Y-100246000D01*
X76788646Y-100246000D01*
X76776428Y-100180639D01*
X76698634Y-99979831D01*
X76698629Y-99979821D01*
X76585270Y-99796740D01*
X76585269Y-99796739D01*
X76440190Y-99637594D01*
X76268336Y-99507816D01*
X76075560Y-99411825D01*
X76075552Y-99411822D01*
X75868433Y-99352892D01*
X75707714Y-99338000D01*
X75254000Y-99338000D01*
X75254000Y-100100000D01*
X74746000Y-100100000D01*
X74746000Y-99338000D01*
X74292286Y-99338000D01*
X74131566Y-99352892D01*
X73924447Y-99411822D01*
X73924439Y-99411825D01*
X73731663Y-99507816D01*
X73559809Y-99637594D01*
X73414730Y-99796739D01*
X73414729Y-99796740D01*
X73301370Y-99979821D01*
X73301365Y-99979831D01*
X73223571Y-100180639D01*
X73211354Y-100246000D01*
X74338314Y-100246000D01*
X74322359Y-100261955D01*
X74264835Y-100374852D01*
X74245014Y-100500000D01*
X74264835Y-100625148D01*
X74322359Y-100738045D01*
X74338314Y-100754000D01*
X73211354Y-100754000D01*
X70814320Y-100754000D01*
X70824330Y-100728877D01*
X70824331Y-100728874D01*
X70839161Y-100638415D01*
X70854260Y-100546317D01*
X70844245Y-100361593D01*
X70794754Y-100183341D01*
X70750569Y-100100000D01*
X70708100Y-100019895D01*
X70588342Y-99878906D01*
X70588337Y-99878900D01*
X70441064Y-99766946D01*
X70441063Y-99766945D01*
X70441060Y-99766943D01*
X70273166Y-99689267D01*
X70092503Y-99649501D01*
X70092500Y-99649500D01*
X70092497Y-99649500D01*
X69953887Y-99649500D01*
X69953877Y-99649500D01*
X69816096Y-99664484D01*
X69816087Y-99664486D01*
X69640779Y-99723555D01*
X69640776Y-99723557D01*
X69482266Y-99818928D01*
X69482265Y-99818929D01*
X69347961Y-99946148D01*
X69244139Y-100099273D01*
X69175669Y-100271122D01*
X69175668Y-100271125D01*
X69145740Y-100453682D01*
X69145740Y-100453683D01*
X56642629Y-100453683D01*
X56639440Y-100442198D01*
X56506673Y-100108978D01*
X56506669Y-100108969D01*
X56338649Y-99792047D01*
X56338647Y-99792043D01*
X56137345Y-99495145D01*
X56011831Y-99347377D01*
X54800004Y-100559204D01*
X54798430Y-100556635D01*
X54634870Y-100365130D01*
X54443365Y-100201570D01*
X54440794Y-100199994D01*
X55655496Y-98985292D01*
X55644700Y-98975067D01*
X55359138Y-98757986D01*
X55359132Y-98757982D01*
X55051772Y-98573050D01*
X55051765Y-98573046D01*
X54726233Y-98422438D01*
X54726214Y-98422430D01*
X54386293Y-98307898D01*
X54386276Y-98307893D01*
X54035977Y-98230786D01*
X54035949Y-98230781D01*
X53679362Y-98192000D01*
X53320637Y-98192000D01*
X52964050Y-98230781D01*
X52964022Y-98230786D01*
X52613723Y-98307893D01*
X52613706Y-98307898D01*
X52273785Y-98422430D01*
X52273766Y-98422438D01*
X51948234Y-98573046D01*
X51948227Y-98573050D01*
X51640867Y-98757982D01*
X51640861Y-98757986D01*
X51355299Y-98975066D01*
X51344502Y-98985292D01*
X52559204Y-100199995D01*
X52556635Y-100201570D01*
X52365130Y-100365130D01*
X52201570Y-100556635D01*
X52199995Y-100559205D01*
X50988167Y-99347377D01*
X50988166Y-99347378D01*
X50862665Y-99495131D01*
X50661349Y-99792050D01*
X50493330Y-100108969D01*
X50493326Y-100108978D01*
X50360559Y-100442198D01*
X50272907Y-100757892D01*
X50235410Y-100818178D01*
X50171272Y-100848622D01*
X50100856Y-100839557D01*
X50046520Y-100793862D01*
X50025514Y-100726044D01*
X50025500Y-100724183D01*
X50025500Y-98000000D01*
X82519909Y-98000000D01*
X82538214Y-98162461D01*
X82538215Y-98162463D01*
X82592211Y-98316775D01*
X82592212Y-98316778D01*
X82679190Y-98455202D01*
X82679191Y-98455204D01*
X82794795Y-98570808D01*
X82794797Y-98570809D01*
X82933221Y-98657787D01*
X82933222Y-98657787D01*
X82933225Y-98657789D01*
X83087539Y-98711786D01*
X83250000Y-98730091D01*
X83412461Y-98711786D01*
X83566775Y-98657789D01*
X83705204Y-98570808D01*
X83820808Y-98455204D01*
X83907789Y-98316775D01*
X83961786Y-98162461D01*
X83980091Y-98000000D01*
X83961786Y-97837539D01*
X83907789Y-97683225D01*
X83907787Y-97683222D01*
X83907787Y-97683221D01*
X83820809Y-97544797D01*
X83820808Y-97544795D01*
X83705204Y-97429191D01*
X83705202Y-97429190D01*
X83566778Y-97342212D01*
X83566775Y-97342211D01*
X83533158Y-97330448D01*
X83412461Y-97288214D01*
X83250000Y-97269909D01*
X83087539Y-97288214D01*
X83087536Y-97288214D01*
X83087536Y-97288215D01*
X82933224Y-97342211D01*
X82933221Y-97342212D01*
X82794797Y-97429190D01*
X82794795Y-97429191D01*
X82679191Y-97544795D01*
X82679190Y-97544797D01*
X82592212Y-97683221D01*
X82592211Y-97683224D01*
X82589878Y-97689891D01*
X82538214Y-97837539D01*
X82519909Y-98000000D01*
X50025500Y-98000000D01*
X50025500Y-80848597D01*
X56692000Y-80848597D01*
X56698505Y-80909093D01*
X56749555Y-81045964D01*
X56749555Y-81045965D01*
X56837095Y-81162904D01*
X56954034Y-81250444D01*
X57090906Y-81301494D01*
X57151402Y-81307999D01*
X57151415Y-81308000D01*
X57765320Y-81308000D01*
X57833441Y-81328002D01*
X57879934Y-81381658D01*
X57890038Y-81451932D01*
X57860544Y-81516512D01*
X57801898Y-81554573D01*
X57695940Y-81586715D01*
X57615271Y-81611186D01*
X57441461Y-81704090D01*
X57289117Y-81829117D01*
X57164090Y-81981461D01*
X57071186Y-82155271D01*
X57013974Y-82343873D01*
X57013974Y-82343875D01*
X56994659Y-82539996D01*
X56994659Y-82540003D01*
X57013974Y-82736124D01*
X57013974Y-82736126D01*
X57071186Y-82924728D01*
X57122876Y-83021433D01*
X57164090Y-83098538D01*
X57289117Y-83250883D01*
X57441462Y-83375910D01*
X57615273Y-83468814D01*
X57803868Y-83526024D01*
X57803873Y-83526024D01*
X57803875Y-83526025D01*
X57843359Y-83529914D01*
X57909192Y-83556496D01*
X57950202Y-83614450D01*
X57953370Y-83685376D01*
X57917689Y-83746755D01*
X57854488Y-83779100D01*
X57841992Y-83780828D01*
X57771997Y-83786951D01*
X57550931Y-83846186D01*
X57550926Y-83846188D01*
X57343501Y-83942912D01*
X57156025Y-84074184D01*
X57156019Y-84074189D01*
X56994189Y-84236019D01*
X56994184Y-84236025D01*
X56862912Y-84423501D01*
X56766188Y-84630926D01*
X56766186Y-84630931D01*
X56713917Y-84826000D01*
X57688314Y-84826000D01*
X57672359Y-84841955D01*
X57614835Y-84954852D01*
X57595014Y-85080000D01*
X57614835Y-85205148D01*
X57672359Y-85318045D01*
X57688314Y-85334000D01*
X56713918Y-85334000D01*
X56766186Y-85529068D01*
X56766188Y-85529073D01*
X56862912Y-85736498D01*
X56994184Y-85923974D01*
X56994189Y-85923980D01*
X57156019Y-86085810D01*
X57156025Y-86085815D01*
X57343501Y-86217087D01*
X57550926Y-86313811D01*
X57550931Y-86313813D01*
X57771999Y-86373048D01*
X57771996Y-86373048D01*
X57841990Y-86379171D01*
X57908109Y-86405034D01*
X57949749Y-86462537D01*
X57953690Y-86533424D01*
X57918682Y-86595189D01*
X57855838Y-86628222D01*
X57843362Y-86630085D01*
X57803874Y-86633974D01*
X57803873Y-86633974D01*
X57615271Y-86691186D01*
X57441461Y-86784090D01*
X57289117Y-86909117D01*
X57164090Y-87061461D01*
X57071186Y-87235271D01*
X57013974Y-87423873D01*
X57013974Y-87423875D01*
X56994659Y-87619996D01*
X56994659Y-87620003D01*
X57013974Y-87816124D01*
X57013974Y-87816126D01*
X57071186Y-88004728D01*
X57164090Y-88178537D01*
X57164090Y-88178538D01*
X57289117Y-88330883D01*
X57441462Y-88455910D01*
X57615273Y-88548814D01*
X57803868Y-88606024D01*
X57803873Y-88606024D01*
X57803875Y-88606025D01*
X57843359Y-88609914D01*
X57909192Y-88636496D01*
X57950202Y-88694450D01*
X57953370Y-88765376D01*
X57917689Y-88826755D01*
X57854488Y-88859100D01*
X57841992Y-88860828D01*
X57771997Y-88866951D01*
X57550931Y-88926186D01*
X57550926Y-88926188D01*
X57343501Y-89022912D01*
X57156025Y-89154184D01*
X57156019Y-89154189D01*
X56994189Y-89316019D01*
X56994184Y-89316025D01*
X56862912Y-89503501D01*
X56766188Y-89710926D01*
X56766186Y-89710931D01*
X56713917Y-89906000D01*
X57688314Y-89906000D01*
X57672359Y-89921955D01*
X57614835Y-90034852D01*
X57595014Y-90160000D01*
X57614835Y-90285148D01*
X57672359Y-90398045D01*
X57688314Y-90414000D01*
X56713918Y-90414000D01*
X56766186Y-90609068D01*
X56766188Y-90609073D01*
X56862912Y-90816498D01*
X56994184Y-91003974D01*
X56994189Y-91003980D01*
X57156019Y-91165810D01*
X57156025Y-91165815D01*
X57343501Y-91297087D01*
X57550926Y-91393811D01*
X57550931Y-91393813D01*
X57771999Y-91453048D01*
X57771996Y-91453048D01*
X57841990Y-91459171D01*
X57908109Y-91485034D01*
X57949749Y-91542537D01*
X57953690Y-91613424D01*
X57918682Y-91675189D01*
X57855838Y-91708222D01*
X57843362Y-91710085D01*
X57803874Y-91713974D01*
X57803873Y-91713974D01*
X57615271Y-91771186D01*
X57441461Y-91864090D01*
X57289117Y-91989117D01*
X57164090Y-92141461D01*
X57071186Y-92315271D01*
X57013974Y-92503873D01*
X57013974Y-92503875D01*
X56994659Y-92699996D01*
X56994659Y-92700003D01*
X57013974Y-92896124D01*
X57013974Y-92896126D01*
X57071186Y-93084728D01*
X57164090Y-93258538D01*
X57289117Y-93410883D01*
X57441462Y-93535910D01*
X57615273Y-93628814D01*
X57803868Y-93686024D01*
X57803873Y-93686024D01*
X57803875Y-93686025D01*
X57843359Y-93689914D01*
X57909192Y-93716496D01*
X57950202Y-93774450D01*
X57953370Y-93845376D01*
X57917689Y-93906755D01*
X57854488Y-93939100D01*
X57841992Y-93940828D01*
X57771997Y-93946951D01*
X57550931Y-94006186D01*
X57550926Y-94006188D01*
X57343501Y-94102912D01*
X57156025Y-94234184D01*
X57156019Y-94234189D01*
X56994189Y-94396019D01*
X56994184Y-94396025D01*
X56862912Y-94583501D01*
X56766188Y-94790926D01*
X56766186Y-94790931D01*
X56713917Y-94986000D01*
X57688314Y-94986000D01*
X57672359Y-95001955D01*
X57614835Y-95114852D01*
X57595014Y-95240000D01*
X57614835Y-95365148D01*
X57672359Y-95478045D01*
X57688314Y-95494000D01*
X56713918Y-95494000D01*
X56766186Y-95689068D01*
X56766188Y-95689073D01*
X56862912Y-95896498D01*
X56994184Y-96083974D01*
X56994189Y-96083980D01*
X57156019Y-96245810D01*
X57156025Y-96245815D01*
X57343501Y-96377087D01*
X57550926Y-96473811D01*
X57550931Y-96473813D01*
X57746000Y-96526081D01*
X57746000Y-95551686D01*
X57761955Y-95567641D01*
X57874852Y-95625165D01*
X57968519Y-95640000D01*
X58031481Y-95640000D01*
X58125148Y-95625165D01*
X58238045Y-95567641D01*
X58254000Y-95551686D01*
X58254000Y-96526081D01*
X58449068Y-96473813D01*
X58449073Y-96473811D01*
X58656498Y-96377087D01*
X58843974Y-96245815D01*
X58843980Y-96245810D01*
X59005810Y-96083980D01*
X59005815Y-96083974D01*
X59137087Y-95896498D01*
X59233811Y-95689073D01*
X59233813Y-95689068D01*
X59286082Y-95494000D01*
X58311686Y-95494000D01*
X58327641Y-95478045D01*
X58385165Y-95365148D01*
X58404986Y-95240000D01*
X58385165Y-95114852D01*
X58327641Y-95001955D01*
X58311686Y-94986000D01*
X59286082Y-94986000D01*
X59233813Y-94790931D01*
X59233811Y-94790926D01*
X59137087Y-94583501D01*
X59005815Y-94396025D01*
X59005810Y-94396019D01*
X58843980Y-94234189D01*
X58843974Y-94234184D01*
X58656498Y-94102912D01*
X58449073Y-94006188D01*
X58449068Y-94006186D01*
X58228002Y-93946951D01*
X58158007Y-93940828D01*
X58091889Y-93914964D01*
X58050250Y-93857461D01*
X58046309Y-93786574D01*
X58081318Y-93724809D01*
X58144163Y-93691777D01*
X58156640Y-93689914D01*
X58196123Y-93686025D01*
X58196126Y-93686025D01*
X58196127Y-93686024D01*
X58196132Y-93686024D01*
X58384727Y-93628814D01*
X58558538Y-93535910D01*
X58710883Y-93410883D01*
X58835910Y-93258538D01*
X58928814Y-93084727D01*
X58986024Y-92896132D01*
X59005341Y-92700000D01*
X58993015Y-92574852D01*
X58986025Y-92503875D01*
X58986025Y-92503873D01*
X58986024Y-92503870D01*
X58986024Y-92503868D01*
X58928814Y-92315273D01*
X58835910Y-92141462D01*
X58710883Y-91989117D01*
X58558538Y-91864090D01*
X58558537Y-91864089D01*
X58384728Y-91771186D01*
X58196125Y-91713974D01*
X58156637Y-91710085D01*
X58090805Y-91683502D01*
X58049796Y-91625547D01*
X58046630Y-91554621D01*
X58082312Y-91493242D01*
X58145513Y-91460898D01*
X58158009Y-91459171D01*
X58228002Y-91453048D01*
X58449068Y-91393813D01*
X58449073Y-91393811D01*
X58656498Y-91297087D01*
X58843974Y-91165815D01*
X58843980Y-91165810D01*
X59005810Y-91003980D01*
X59005815Y-91003974D01*
X59137087Y-90816498D01*
X59233811Y-90609073D01*
X59233813Y-90609068D01*
X59286082Y-90414000D01*
X58311686Y-90414000D01*
X58327641Y-90398045D01*
X58385165Y-90285148D01*
X58404986Y-90160000D01*
X58385165Y-90034852D01*
X58327641Y-89921955D01*
X58311686Y-89906000D01*
X59286082Y-89906000D01*
X59233813Y-89710931D01*
X59233811Y-89710926D01*
X59137087Y-89503501D01*
X59005815Y-89316025D01*
X59005810Y-89316019D01*
X58843980Y-89154189D01*
X58843974Y-89154184D01*
X58656498Y-89022912D01*
X58449073Y-88926188D01*
X58449068Y-88926186D01*
X58228002Y-88866951D01*
X58158007Y-88860828D01*
X58091889Y-88834964D01*
X58050250Y-88777461D01*
X58046309Y-88706574D01*
X58081318Y-88644809D01*
X58144163Y-88611777D01*
X58156640Y-88609914D01*
X58196123Y-88606025D01*
X58196126Y-88606025D01*
X58196127Y-88606024D01*
X58196132Y-88606024D01*
X58384727Y-88548814D01*
X58558538Y-88455910D01*
X58710883Y-88330883D01*
X58835910Y-88178538D01*
X58928814Y-88004727D01*
X58986024Y-87816132D01*
X59005341Y-87620000D01*
X58993015Y-87494852D01*
X58986025Y-87423875D01*
X58986025Y-87423873D01*
X58986024Y-87423870D01*
X58986024Y-87423868D01*
X58928814Y-87235273D01*
X58835910Y-87061462D01*
X58710883Y-86909117D01*
X58558538Y-86784090D01*
X58558537Y-86784089D01*
X58384728Y-86691186D01*
X58196125Y-86633974D01*
X58156637Y-86630085D01*
X58090805Y-86603502D01*
X58049796Y-86545547D01*
X58046630Y-86474621D01*
X58082312Y-86413242D01*
X58145513Y-86380898D01*
X58158009Y-86379171D01*
X58228002Y-86373048D01*
X58449068Y-86313813D01*
X58449073Y-86313811D01*
X58656498Y-86217087D01*
X58843974Y-86085815D01*
X58843980Y-86085810D01*
X59005810Y-85923980D01*
X59005815Y-85923974D01*
X59137087Y-85736498D01*
X59233811Y-85529073D01*
X59233813Y-85529068D01*
X59286082Y-85334000D01*
X58311686Y-85334000D01*
X58327641Y-85318045D01*
X58385165Y-85205148D01*
X58404986Y-85080000D01*
X58385165Y-84954852D01*
X58327641Y-84841955D01*
X58311686Y-84826000D01*
X59286082Y-84826000D01*
X59233813Y-84630931D01*
X59233811Y-84630926D01*
X59137087Y-84423501D01*
X59005815Y-84236025D01*
X59005810Y-84236019D01*
X58843980Y-84074189D01*
X58843974Y-84074184D01*
X58656498Y-83942912D01*
X58449073Y-83846188D01*
X58449068Y-83846186D01*
X58228002Y-83786951D01*
X58158007Y-83780828D01*
X58091889Y-83754964D01*
X58050250Y-83697461D01*
X58046309Y-83626574D01*
X58081318Y-83564809D01*
X58144163Y-83531777D01*
X58156640Y-83529914D01*
X58196123Y-83526025D01*
X58196126Y-83526025D01*
X58196127Y-83526024D01*
X58196132Y-83526024D01*
X58384727Y-83468814D01*
X58558538Y-83375910D01*
X58710883Y-83250883D01*
X58835910Y-83098538D01*
X58928814Y-82924727D01*
X58986024Y-82736132D01*
X58987912Y-82716964D01*
X59005341Y-82540003D01*
X59005341Y-82539996D01*
X58986025Y-82343875D01*
X58986025Y-82343873D01*
X58986024Y-82343870D01*
X58986024Y-82343868D01*
X58928814Y-82155273D01*
X58835910Y-81981462D01*
X58710883Y-81829117D01*
X58558538Y-81704090D01*
X58544493Y-81696583D01*
X58384728Y-81611186D01*
X58333272Y-81595577D01*
X58198101Y-81554573D01*
X58138723Y-81515659D01*
X58109807Y-81450818D01*
X58120538Y-81380637D01*
X58167508Y-81327398D01*
X58234680Y-81308000D01*
X58848585Y-81308000D01*
X58848597Y-81307999D01*
X58909093Y-81301494D01*
X59045964Y-81250444D01*
X59045965Y-81250444D01*
X59162904Y-81162904D01*
X59250444Y-81045965D01*
X59250444Y-81045964D01*
X59301494Y-80909093D01*
X59307999Y-80848597D01*
X59308000Y-80848585D01*
X59308000Y-80254000D01*
X58311686Y-80254000D01*
X58327641Y-80238045D01*
X58385165Y-80125148D01*
X58404986Y-80000000D01*
X58385165Y-79874852D01*
X58327641Y-79761955D01*
X58311686Y-79746000D01*
X59308000Y-79746000D01*
X59308000Y-79151414D01*
X59307999Y-79151402D01*
X59301494Y-79090906D01*
X59250444Y-78954035D01*
X59250444Y-78954034D01*
X59162904Y-78837095D01*
X59045965Y-78749555D01*
X58909093Y-78698505D01*
X58848597Y-78692000D01*
X58254000Y-78692000D01*
X58254000Y-79688314D01*
X58238045Y-79672359D01*
X58125148Y-79614835D01*
X58031481Y-79600000D01*
X57968519Y-79600000D01*
X57874852Y-79614835D01*
X57761955Y-79672359D01*
X57746000Y-79688314D01*
X57746000Y-78692000D01*
X57151402Y-78692000D01*
X57090906Y-78698505D01*
X56954035Y-78749555D01*
X56954034Y-78749555D01*
X56837095Y-78837095D01*
X56749555Y-78954034D01*
X56749555Y-78954035D01*
X56698505Y-79090906D01*
X56692000Y-79151402D01*
X56692000Y-79746000D01*
X57688314Y-79746000D01*
X57672359Y-79761955D01*
X57614835Y-79874852D01*
X57595014Y-80000000D01*
X57614835Y-80125148D01*
X57672359Y-80238045D01*
X57688314Y-80254000D01*
X56692000Y-80254000D01*
X56692000Y-80848597D01*
X50025500Y-80848597D01*
X50025500Y-78942214D01*
X52916994Y-78942214D01*
X53004002Y-78996087D01*
X53004011Y-78996092D01*
X53195474Y-79070266D01*
X53195477Y-79070267D01*
X53397331Y-79108000D01*
X53602669Y-79108000D01*
X53804522Y-79070267D01*
X53804525Y-79070266D01*
X53995988Y-78996092D01*
X53995997Y-78996087D01*
X54083004Y-78942214D01*
X53500000Y-78359210D01*
X53499999Y-78359210D01*
X52916994Y-78942214D01*
X50025500Y-78942214D01*
X50025500Y-78000004D01*
X52387253Y-78000004D01*
X52406199Y-78204461D01*
X52406199Y-78204465D01*
X52462391Y-78401962D01*
X52462394Y-78401970D01*
X52553925Y-78585789D01*
X52554386Y-78586400D01*
X52554387Y-78586400D01*
X53140789Y-77999999D01*
X53112630Y-77971840D01*
X53196105Y-77971840D01*
X53206454Y-78083521D01*
X53256448Y-78183922D01*
X53339334Y-78259484D01*
X53443920Y-78300000D01*
X53527802Y-78300000D01*
X53610250Y-78284588D01*
X53705610Y-78225543D01*
X53773201Y-78136038D01*
X53803895Y-78028160D01*
X53801285Y-77999999D01*
X53859210Y-77999999D01*
X54162595Y-78303384D01*
X54196620Y-78365697D01*
X54199500Y-78392480D01*
X54199500Y-78619750D01*
X54207936Y-78662163D01*
X54211133Y-78678231D01*
X54255448Y-78744552D01*
X54321769Y-78788867D01*
X54380252Y-78800500D01*
X54380253Y-78800500D01*
X55619747Y-78800500D01*
X55619748Y-78800500D01*
X55678231Y-78788867D01*
X55744552Y-78744552D01*
X55788867Y-78678231D01*
X55800500Y-78619748D01*
X55800500Y-77380252D01*
X55788867Y-77321769D01*
X55744552Y-77255448D01*
X55678231Y-77211133D01*
X55678228Y-77211132D01*
X55619750Y-77199500D01*
X55619748Y-77199500D01*
X54380252Y-77199500D01*
X54380249Y-77199500D01*
X54321771Y-77211132D01*
X54321768Y-77211133D01*
X54255448Y-77255448D01*
X54211133Y-77321768D01*
X54211132Y-77321771D01*
X54199500Y-77380249D01*
X54199500Y-77607519D01*
X54179498Y-77675640D01*
X54162595Y-77696614D01*
X53859210Y-77999999D01*
X53801285Y-77999999D01*
X53793546Y-77916479D01*
X53743552Y-77816078D01*
X53660666Y-77740516D01*
X53556080Y-77700000D01*
X53472198Y-77700000D01*
X53389750Y-77715412D01*
X53294390Y-77774457D01*
X53226799Y-77863962D01*
X53196105Y-77971840D01*
X53112630Y-77971840D01*
X52554387Y-77413597D01*
X52554386Y-77413597D01*
X52553926Y-77414208D01*
X52462394Y-77598029D01*
X52462391Y-77598037D01*
X52406199Y-77795534D01*
X52406199Y-77795538D01*
X52387253Y-77999995D01*
X52387253Y-78000004D01*
X50025500Y-78000004D01*
X50025500Y-77057784D01*
X52916994Y-77057784D01*
X53499999Y-77640789D01*
X53500000Y-77640789D01*
X54083003Y-77057784D01*
X53995995Y-77003910D01*
X53995988Y-77003907D01*
X53804525Y-76929733D01*
X53804522Y-76929732D01*
X53602669Y-76892000D01*
X53397331Y-76892000D01*
X53195477Y-76929732D01*
X53195474Y-76929733D01*
X53004012Y-77003907D01*
X53004000Y-77003913D01*
X52916994Y-77057784D01*
X50025500Y-77057784D01*
X50025500Y-76630000D01*
X56666128Y-76630000D01*
X56684764Y-76807321D01*
X56712279Y-76892000D01*
X56739863Y-76976894D01*
X56739866Y-76976899D01*
X56829010Y-77131303D01*
X56829015Y-77131310D01*
X56948314Y-77263805D01*
X56948317Y-77263807D01*
X57092564Y-77368609D01*
X57255448Y-77441129D01*
X57429851Y-77478200D01*
X57429855Y-77478200D01*
X57608145Y-77478200D01*
X57608149Y-77478200D01*
X57782552Y-77441129D01*
X57945436Y-77368609D01*
X58089683Y-77263807D01*
X58208988Y-77131306D01*
X58298137Y-76976894D01*
X58353235Y-76807322D01*
X58371872Y-76630000D01*
X58353235Y-76452678D01*
X58298137Y-76283106D01*
X58208988Y-76128694D01*
X58208985Y-76128691D01*
X58208984Y-76128689D01*
X58089685Y-75996194D01*
X57945436Y-75891391D01*
X57782552Y-75818871D01*
X57608149Y-75781800D01*
X57429851Y-75781800D01*
X57296900Y-75810060D01*
X57255447Y-75818871D01*
X57092563Y-75891391D01*
X56948314Y-75996194D01*
X56829015Y-76128689D01*
X56829010Y-76128696D01*
X56739866Y-76283100D01*
X56739863Y-76283107D01*
X56684764Y-76452678D01*
X56666128Y-76630000D01*
X50025500Y-76630000D01*
X50025500Y-73390003D01*
X56994659Y-73390003D01*
X57013974Y-73586124D01*
X57013974Y-73586126D01*
X57071186Y-73774728D01*
X57130997Y-73886626D01*
X57164090Y-73948538D01*
X57289117Y-74100883D01*
X57441462Y-74225910D01*
X57615273Y-74318814D01*
X57803868Y-74376024D01*
X57803872Y-74376024D01*
X57803874Y-74376025D01*
X57999997Y-74395341D01*
X58000000Y-74395341D01*
X58000003Y-74395341D01*
X58196124Y-74376025D01*
X58196126Y-74376025D01*
X58196127Y-74376024D01*
X58196132Y-74376024D01*
X58384727Y-74318814D01*
X58558538Y-74225910D01*
X58710883Y-74100883D01*
X58835910Y-73948538D01*
X58928814Y-73774727D01*
X58986024Y-73586132D01*
X58994845Y-73496567D01*
X59005341Y-73390003D01*
X59005341Y-73389996D01*
X58986025Y-73193875D01*
X58986025Y-73193873D01*
X58986024Y-73193870D01*
X58986024Y-73193868D01*
X58928814Y-73005273D01*
X58835910Y-72831462D01*
X58710883Y-72679117D01*
X58558538Y-72554090D01*
X58526234Y-72536823D01*
X58384728Y-72461186D01*
X58196125Y-72403974D01*
X58000003Y-72384659D01*
X57999997Y-72384659D01*
X57803875Y-72403974D01*
X57803873Y-72403974D01*
X57615271Y-72461186D01*
X57441461Y-72554090D01*
X57289117Y-72679117D01*
X57164090Y-72831461D01*
X57071186Y-73005271D01*
X57013974Y-73193873D01*
X57013974Y-73193875D01*
X56994659Y-73389996D01*
X56994659Y-73390003D01*
X50025500Y-73390003D01*
X50025500Y-70220003D01*
X56994659Y-70220003D01*
X57013974Y-70416124D01*
X57013974Y-70416126D01*
X57071186Y-70604728D01*
X57093260Y-70646025D01*
X57164090Y-70778538D01*
X57289117Y-70930883D01*
X57441462Y-71055910D01*
X57615273Y-71148814D01*
X57803868Y-71206024D01*
X57803872Y-71206024D01*
X57803874Y-71206025D01*
X57999997Y-71225341D01*
X58000000Y-71225341D01*
X58000003Y-71225341D01*
X58196124Y-71206025D01*
X58196126Y-71206025D01*
X58196127Y-71206024D01*
X58196132Y-71206024D01*
X58384727Y-71148814D01*
X58558538Y-71055910D01*
X58710883Y-70930883D01*
X58835910Y-70778538D01*
X58928814Y-70604727D01*
X58986024Y-70416132D01*
X58994094Y-70334193D01*
X59005341Y-70220003D01*
X59005341Y-70219996D01*
X58986025Y-70023875D01*
X58986025Y-70023873D01*
X58986024Y-70023870D01*
X58986024Y-70023868D01*
X58928814Y-69835273D01*
X58835910Y-69661462D01*
X58710883Y-69509117D01*
X58558538Y-69384090D01*
X58533444Y-69370677D01*
X58384728Y-69291186D01*
X58196125Y-69233974D01*
X58000003Y-69214659D01*
X57999997Y-69214659D01*
X57803875Y-69233974D01*
X57803873Y-69233974D01*
X57615271Y-69291186D01*
X57441461Y-69384090D01*
X57289117Y-69509117D01*
X57164090Y-69661461D01*
X57071186Y-69835271D01*
X57013974Y-70023873D01*
X57013974Y-70023875D01*
X56994659Y-70219996D01*
X56994659Y-70220003D01*
X50025500Y-70220003D01*
X50025500Y-67680003D01*
X56994659Y-67680003D01*
X57013974Y-67876124D01*
X57013974Y-67876126D01*
X57071186Y-68064728D01*
X57075731Y-68073231D01*
X57164090Y-68238538D01*
X57289117Y-68390883D01*
X57441462Y-68515910D01*
X57615273Y-68608814D01*
X57803868Y-68666024D01*
X57803872Y-68666024D01*
X57803874Y-68666025D01*
X57999997Y-68685341D01*
X58000000Y-68685341D01*
X58000003Y-68685341D01*
X58196124Y-68666025D01*
X58196126Y-68666025D01*
X58196127Y-68666024D01*
X58196132Y-68666024D01*
X58384727Y-68608814D01*
X58558538Y-68515910D01*
X58710883Y-68390883D01*
X58835910Y-68238538D01*
X58928814Y-68064727D01*
X58986024Y-67876132D01*
X58990113Y-67834619D01*
X59005341Y-67680003D01*
X59005341Y-67679996D01*
X58986025Y-67483875D01*
X58986025Y-67483873D01*
X58986024Y-67483870D01*
X58986024Y-67483868D01*
X58928814Y-67295273D01*
X58835910Y-67121462D01*
X58710883Y-66969117D01*
X58558538Y-66844090D01*
X58484972Y-66804768D01*
X58384728Y-66751186D01*
X58196125Y-66693974D01*
X58000003Y-66674659D01*
X57999997Y-66674659D01*
X57803875Y-66693974D01*
X57803873Y-66693974D01*
X57615271Y-66751186D01*
X57441461Y-66844090D01*
X57289117Y-66969117D01*
X57164090Y-67121461D01*
X57071186Y-67295271D01*
X57013974Y-67483873D01*
X57013974Y-67483875D01*
X56994659Y-67679996D01*
X56994659Y-67680003D01*
X50025500Y-67680003D01*
X50025500Y-66028430D01*
X52660778Y-66028430D01*
X52792777Y-66098985D01*
X52987503Y-66158054D01*
X53189997Y-66177998D01*
X53190003Y-66177998D01*
X53392496Y-66158054D01*
X53587222Y-66098985D01*
X53719219Y-66028430D01*
X53375538Y-65684748D01*
X54964500Y-65684748D01*
X54976133Y-65743231D01*
X55020448Y-65809552D01*
X55086769Y-65853867D01*
X55145252Y-65865500D01*
X55145253Y-65865500D01*
X56234747Y-65865500D01*
X56234748Y-65865500D01*
X56293231Y-65853867D01*
X56359552Y-65809552D01*
X56403867Y-65743231D01*
X56415500Y-65684748D01*
X56415500Y-65140003D01*
X56994659Y-65140003D01*
X57013974Y-65336124D01*
X57013974Y-65336126D01*
X57071186Y-65524728D01*
X57134914Y-65643954D01*
X57164090Y-65698538D01*
X57289117Y-65850883D01*
X57441462Y-65975910D01*
X57615273Y-66068814D01*
X57803868Y-66126024D01*
X57803872Y-66126024D01*
X57803874Y-66126025D01*
X57999997Y-66145341D01*
X58000000Y-66145341D01*
X58000003Y-66145341D01*
X58196124Y-66126025D01*
X58196126Y-66126025D01*
X58196127Y-66126024D01*
X58196132Y-66126024D01*
X58384727Y-66068814D01*
X58558538Y-65975910D01*
X58710883Y-65850883D01*
X58835910Y-65698538D01*
X58928814Y-65524727D01*
X58986024Y-65336132D01*
X58986226Y-65334079D01*
X59005341Y-65140003D01*
X59005341Y-65139996D01*
X58986025Y-64943875D01*
X58986025Y-64943873D01*
X58986024Y-64943870D01*
X58986024Y-64943868D01*
X58928814Y-64755273D01*
X58835910Y-64581462D01*
X58710883Y-64429117D01*
X58558538Y-64304090D01*
X58558537Y-64304090D01*
X58384728Y-64211186D01*
X58196125Y-64153974D01*
X58000003Y-64134659D01*
X57999997Y-64134659D01*
X57803875Y-64153974D01*
X57803873Y-64153974D01*
X57615271Y-64211186D01*
X57441461Y-64304090D01*
X57289117Y-64429117D01*
X57164090Y-64581461D01*
X57071186Y-64755271D01*
X57013974Y-64943873D01*
X57013974Y-64943875D01*
X56994659Y-65139996D01*
X56994659Y-65140003D01*
X56415500Y-65140003D01*
X56415500Y-64595252D01*
X56403867Y-64536769D01*
X56359552Y-64470448D01*
X56293231Y-64426133D01*
X56293228Y-64426132D01*
X56234750Y-64414500D01*
X56234748Y-64414500D01*
X55145252Y-64414500D01*
X55145249Y-64414500D01*
X55086771Y-64426132D01*
X55086768Y-64426133D01*
X55020448Y-64470448D01*
X54976133Y-64536768D01*
X54976132Y-64536771D01*
X54964500Y-64595249D01*
X54964500Y-64595252D01*
X54964500Y-65684748D01*
X53375538Y-65684748D01*
X53190000Y-65499210D01*
X53189999Y-65499210D01*
X52660778Y-66028430D01*
X50025500Y-66028430D01*
X50025500Y-65140003D01*
X52152002Y-65140003D01*
X52171945Y-65342496D01*
X52231015Y-65537225D01*
X52301567Y-65669219D01*
X52301568Y-65669220D01*
X52801486Y-65169302D01*
X52836372Y-65169302D01*
X52865047Y-65282538D01*
X52928936Y-65380327D01*
X53021115Y-65452072D01*
X53131595Y-65490000D01*
X53219005Y-65490000D01*
X53305216Y-65475614D01*
X53407947Y-65420019D01*
X53487060Y-65334079D01*
X53533982Y-65227108D01*
X53541200Y-65139999D01*
X53549210Y-65139999D01*
X54078430Y-65669219D01*
X54148985Y-65537222D01*
X54208054Y-65342496D01*
X54227998Y-65140003D01*
X54227998Y-65139996D01*
X54208054Y-64937503D01*
X54148985Y-64742777D01*
X54078430Y-64610778D01*
X53549210Y-65139999D01*
X53541200Y-65139999D01*
X53543628Y-65110698D01*
X53514953Y-64997462D01*
X53451064Y-64899673D01*
X53358885Y-64827928D01*
X53248405Y-64790000D01*
X53160995Y-64790000D01*
X53074784Y-64804386D01*
X52972053Y-64859981D01*
X52892940Y-64945921D01*
X52846018Y-65052892D01*
X52836372Y-65169302D01*
X52801486Y-65169302D01*
X52830789Y-65139999D01*
X52830789Y-65139998D01*
X52301568Y-64610778D01*
X52301567Y-64610779D01*
X52231015Y-64742774D01*
X52171945Y-64937503D01*
X52152002Y-65139996D01*
X52152002Y-65140003D01*
X50025500Y-65140003D01*
X50025500Y-64251568D01*
X52660778Y-64251568D01*
X53189999Y-64780789D01*
X53190000Y-64780789D01*
X53719220Y-64251568D01*
X53719219Y-64251567D01*
X53587225Y-64181015D01*
X53392496Y-64121945D01*
X53190003Y-64102002D01*
X53189997Y-64102002D01*
X52987503Y-64121945D01*
X52792774Y-64181015D01*
X52660779Y-64251567D01*
X52660778Y-64251568D01*
X50025500Y-64251568D01*
X50025500Y-63419750D01*
X56999500Y-63419750D01*
X57002714Y-63435910D01*
X57011133Y-63478231D01*
X57055448Y-63544552D01*
X57121769Y-63588867D01*
X57180252Y-63600500D01*
X58487984Y-63600500D01*
X58556105Y-63620502D01*
X58577078Y-63637404D01*
X61017596Y-66077922D01*
X61051620Y-66140232D01*
X61054500Y-66167015D01*
X61054500Y-80823039D01*
X61054260Y-80828526D01*
X61053614Y-80835909D01*
X61050736Y-80868804D01*
X61050736Y-80868806D01*
X61061203Y-80907872D01*
X61062391Y-80913234D01*
X61065139Y-80928813D01*
X61069412Y-80953047D01*
X61071503Y-80958791D01*
X61077866Y-80974152D01*
X61080445Y-80979683D01*
X61103634Y-81012800D01*
X61106587Y-81017436D01*
X61126806Y-81052455D01*
X61157787Y-81078451D01*
X61161829Y-81082155D01*
X62945174Y-82865500D01*
X64657278Y-84577604D01*
X64691304Y-84639916D01*
X64688758Y-84703274D01*
X64633975Y-84883870D01*
X64633974Y-84883875D01*
X64614659Y-85079996D01*
X64614659Y-85080003D01*
X64633974Y-85276124D01*
X64633974Y-85276126D01*
X64691186Y-85464728D01*
X64784090Y-85638537D01*
X64784090Y-85638538D01*
X64909117Y-85790883D01*
X65061462Y-85915910D01*
X65235273Y-86008814D01*
X65423868Y-86066024D01*
X65423873Y-86066024D01*
X65423875Y-86066025D01*
X65463359Y-86069914D01*
X65529192Y-86096496D01*
X65570202Y-86154450D01*
X65573370Y-86225376D01*
X65537689Y-86286755D01*
X65474488Y-86319100D01*
X65461992Y-86320828D01*
X65391997Y-86326951D01*
X65170931Y-86386186D01*
X65170926Y-86386188D01*
X64963501Y-86482912D01*
X64776025Y-86614184D01*
X64776019Y-86614189D01*
X64614189Y-86776019D01*
X64614184Y-86776025D01*
X64482912Y-86963501D01*
X64386188Y-87170926D01*
X64386186Y-87170931D01*
X64333917Y-87366000D01*
X65308314Y-87366000D01*
X65292359Y-87381955D01*
X65234835Y-87494852D01*
X65215014Y-87620000D01*
X65234835Y-87745148D01*
X65292359Y-87858045D01*
X65308314Y-87874000D01*
X64333918Y-87874000D01*
X64386186Y-88069068D01*
X64386188Y-88069073D01*
X64482912Y-88276498D01*
X64614184Y-88463974D01*
X64614189Y-88463980D01*
X64776019Y-88625810D01*
X64776025Y-88625815D01*
X64963501Y-88757087D01*
X65170926Y-88853811D01*
X65170931Y-88853813D01*
X65391999Y-88913048D01*
X65391996Y-88913048D01*
X65461990Y-88919171D01*
X65528109Y-88945034D01*
X65569749Y-89002537D01*
X65573690Y-89073424D01*
X65538682Y-89135189D01*
X65475838Y-89168222D01*
X65463362Y-89170085D01*
X65423874Y-89173974D01*
X65423873Y-89173974D01*
X65235271Y-89231186D01*
X65061461Y-89324090D01*
X64909117Y-89449117D01*
X64784090Y-89601461D01*
X64691186Y-89775271D01*
X64633974Y-89963873D01*
X64633974Y-89963875D01*
X64614659Y-90159996D01*
X64614659Y-90160003D01*
X64633974Y-90356124D01*
X64633974Y-90356126D01*
X64691186Y-90544728D01*
X64770567Y-90693239D01*
X64784090Y-90718538D01*
X64909117Y-90870883D01*
X65061462Y-90995910D01*
X65235273Y-91088814D01*
X65423868Y-91146024D01*
X65423873Y-91146024D01*
X65423875Y-91146025D01*
X65463359Y-91149914D01*
X65529192Y-91176496D01*
X65570202Y-91234450D01*
X65573370Y-91305376D01*
X65537689Y-91366755D01*
X65474488Y-91399100D01*
X65461992Y-91400828D01*
X65391997Y-91406951D01*
X65170931Y-91466186D01*
X65170926Y-91466188D01*
X64963501Y-91562912D01*
X64776025Y-91694184D01*
X64776019Y-91694189D01*
X64614189Y-91856019D01*
X64614184Y-91856025D01*
X64482912Y-92043501D01*
X64386188Y-92250926D01*
X64386186Y-92250931D01*
X64333917Y-92446000D01*
X65308314Y-92446000D01*
X65292359Y-92461955D01*
X65234835Y-92574852D01*
X65215014Y-92700000D01*
X65234835Y-92825148D01*
X65292359Y-92938045D01*
X65308314Y-92954000D01*
X64333918Y-92954000D01*
X64386186Y-93149068D01*
X64386188Y-93149073D01*
X64482912Y-93356498D01*
X64614184Y-93543974D01*
X64614189Y-93543980D01*
X64776019Y-93705810D01*
X64776025Y-93705815D01*
X64963501Y-93837087D01*
X65170926Y-93933811D01*
X65170931Y-93933813D01*
X65391999Y-93993048D01*
X65391996Y-93993048D01*
X65461990Y-93999171D01*
X65528109Y-94025034D01*
X65569749Y-94082537D01*
X65573690Y-94153424D01*
X65538682Y-94215189D01*
X65475838Y-94248222D01*
X65463362Y-94250085D01*
X65423874Y-94253974D01*
X65423873Y-94253974D01*
X65235271Y-94311186D01*
X65061461Y-94404090D01*
X64909117Y-94529117D01*
X64784090Y-94681461D01*
X64691186Y-94855271D01*
X64633974Y-95043873D01*
X64633974Y-95043875D01*
X64614659Y-95239996D01*
X64614659Y-95240003D01*
X64633974Y-95436124D01*
X64633974Y-95436126D01*
X64691186Y-95624728D01*
X64746854Y-95728874D01*
X64784090Y-95798538D01*
X64909117Y-95950883D01*
X65061462Y-96075910D01*
X65235273Y-96168814D01*
X65423868Y-96226024D01*
X65423872Y-96226024D01*
X65423874Y-96226025D01*
X65619997Y-96245341D01*
X65620000Y-96245341D01*
X65620003Y-96245341D01*
X65816124Y-96226025D01*
X65816126Y-96226025D01*
X65816127Y-96226024D01*
X65816132Y-96226024D01*
X65900804Y-96200339D01*
X69145500Y-96200339D01*
X69160556Y-96338774D01*
X69160556Y-96338775D01*
X69219902Y-96514908D01*
X69219903Y-96514909D01*
X69219904Y-96514911D01*
X69269376Y-96597135D01*
X69315728Y-96674172D01*
X69315730Y-96674174D01*
X69427626Y-96792302D01*
X69443546Y-96809108D01*
X69526615Y-96865430D01*
X69597383Y-96913412D01*
X69597384Y-96913412D01*
X69597385Y-96913413D01*
X69770049Y-96982209D01*
X69953465Y-97012278D01*
X69953466Y-97012277D01*
X69953467Y-97012278D01*
X70027702Y-97008253D01*
X70139058Y-97002216D01*
X70139063Y-97002214D01*
X70139066Y-97002214D01*
X70228602Y-96977354D01*
X70318148Y-96952492D01*
X70482362Y-96865431D01*
X70624021Y-96745105D01*
X70736502Y-96597139D01*
X70814545Y-96428452D01*
X70854500Y-96246933D01*
X70854500Y-96200339D01*
X71645500Y-96200339D01*
X71660556Y-96338774D01*
X71660556Y-96338775D01*
X71719902Y-96514908D01*
X71719903Y-96514909D01*
X71719904Y-96514911D01*
X71769376Y-96597135D01*
X71815728Y-96674172D01*
X71815730Y-96674174D01*
X71927626Y-96792302D01*
X71943546Y-96809108D01*
X72026615Y-96865430D01*
X72097383Y-96913412D01*
X72097384Y-96913412D01*
X72097385Y-96913413D01*
X72270049Y-96982209D01*
X72453465Y-97012278D01*
X72453466Y-97012277D01*
X72453467Y-97012278D01*
X72527702Y-97008253D01*
X72639058Y-97002216D01*
X72639063Y-97002214D01*
X72639066Y-97002214D01*
X72728602Y-96977354D01*
X72818148Y-96952492D01*
X72982362Y-96865431D01*
X73124021Y-96745105D01*
X73236502Y-96597139D01*
X73314545Y-96428452D01*
X73354500Y-96246933D01*
X73354500Y-95453683D01*
X74145740Y-95453683D01*
X74155754Y-95638404D01*
X74155756Y-95638415D01*
X74205243Y-95816651D01*
X74205246Y-95816659D01*
X74291899Y-95980104D01*
X74354541Y-96053851D01*
X74411663Y-96121100D01*
X74549690Y-96226025D01*
X74558939Y-96233056D01*
X74652721Y-96276444D01*
X74726833Y-96310732D01*
X74907503Y-96350500D01*
X74907506Y-96350500D01*
X75046105Y-96350500D01*
X75046113Y-96350500D01*
X75057365Y-96349276D01*
X75183903Y-96335515D01*
X75183905Y-96335514D01*
X75183910Y-96335514D01*
X75359221Y-96276444D01*
X75485710Y-96200339D01*
X76645500Y-96200339D01*
X76660556Y-96338774D01*
X76660556Y-96338775D01*
X76719902Y-96514908D01*
X76719903Y-96514909D01*
X76719904Y-96514911D01*
X76769376Y-96597135D01*
X76815728Y-96674172D01*
X76815730Y-96674174D01*
X76927626Y-96792302D01*
X76943546Y-96809108D01*
X77026615Y-96865430D01*
X77097383Y-96913412D01*
X77097384Y-96913412D01*
X77097385Y-96913413D01*
X77270049Y-96982209D01*
X77453465Y-97012278D01*
X77453466Y-97012277D01*
X77453467Y-97012278D01*
X77527702Y-97008253D01*
X77639058Y-97002216D01*
X77639063Y-97002214D01*
X77639066Y-97002214D01*
X77728602Y-96977354D01*
X77818148Y-96952492D01*
X77982362Y-96865431D01*
X78124021Y-96745105D01*
X78236502Y-96597139D01*
X78314545Y-96428452D01*
X78354500Y-96246933D01*
X78354500Y-96200339D01*
X79145500Y-96200339D01*
X79160556Y-96338774D01*
X79160556Y-96338775D01*
X79219902Y-96514908D01*
X79219903Y-96514909D01*
X79219904Y-96514911D01*
X79269376Y-96597135D01*
X79315728Y-96674172D01*
X79315730Y-96674174D01*
X79427626Y-96792302D01*
X79443546Y-96809108D01*
X79526615Y-96865430D01*
X79597383Y-96913412D01*
X79597384Y-96913412D01*
X79597385Y-96913413D01*
X79770049Y-96982209D01*
X79953465Y-97012278D01*
X79953466Y-97012277D01*
X79953467Y-97012278D01*
X80027702Y-97008253D01*
X80139058Y-97002216D01*
X80139063Y-97002214D01*
X80139066Y-97002214D01*
X80228602Y-96977354D01*
X80318148Y-96952492D01*
X80482362Y-96865431D01*
X80624021Y-96745105D01*
X80736502Y-96597139D01*
X80814545Y-96428452D01*
X80854500Y-96246933D01*
X80854500Y-94799668D01*
X80839443Y-94661225D01*
X80835492Y-94649500D01*
X80780097Y-94485091D01*
X80780096Y-94485090D01*
X80780096Y-94485089D01*
X80684273Y-94325829D01*
X80556454Y-94190892D01*
X80481516Y-94140083D01*
X80402616Y-94086587D01*
X80229950Y-94017790D01*
X80046535Y-93987722D01*
X80046532Y-93987721D01*
X79860944Y-93997783D01*
X79860933Y-93997785D01*
X79681859Y-94047505D01*
X79681854Y-94047507D01*
X79517637Y-94134569D01*
X79375980Y-94254894D01*
X79263495Y-94402864D01*
X79185454Y-94571547D01*
X79185454Y-94571548D01*
X79145501Y-94753060D01*
X79145500Y-94753070D01*
X79145500Y-96200339D01*
X78354500Y-96200339D01*
X78354500Y-94799668D01*
X78339443Y-94661225D01*
X78335492Y-94649500D01*
X78280097Y-94485091D01*
X78280096Y-94485090D01*
X78280096Y-94485089D01*
X78184273Y-94325829D01*
X78056454Y-94190892D01*
X77981516Y-94140083D01*
X77902616Y-94086587D01*
X77729950Y-94017790D01*
X77546535Y-93987722D01*
X77546532Y-93987721D01*
X77360944Y-93997783D01*
X77360933Y-93997785D01*
X77181859Y-94047505D01*
X77181854Y-94047507D01*
X77017637Y-94134569D01*
X76875980Y-94254894D01*
X76763495Y-94402864D01*
X76685454Y-94571547D01*
X76685454Y-94571548D01*
X76645501Y-94753060D01*
X76645500Y-94753070D01*
X76645500Y-96200339D01*
X75485710Y-96200339D01*
X75517736Y-96181070D01*
X75652041Y-96053849D01*
X75755858Y-95900730D01*
X75757545Y-95896498D01*
X75824330Y-95728877D01*
X75824331Y-95728874D01*
X75830857Y-95689068D01*
X75854260Y-95546317D01*
X75852464Y-95513198D01*
X75845322Y-95381456D01*
X75844245Y-95361593D01*
X75840639Y-95348606D01*
X75794756Y-95183348D01*
X75794755Y-95183347D01*
X75794754Y-95183341D01*
X75754041Y-95106549D01*
X75708100Y-95019895D01*
X75588342Y-94878906D01*
X75588337Y-94878900D01*
X75441064Y-94766946D01*
X75441063Y-94766945D01*
X75441060Y-94766943D01*
X75273166Y-94689267D01*
X75092503Y-94649501D01*
X75092500Y-94649500D01*
X75092497Y-94649500D01*
X74953887Y-94649500D01*
X74953877Y-94649500D01*
X74816096Y-94664484D01*
X74816087Y-94664486D01*
X74640779Y-94723555D01*
X74640776Y-94723557D01*
X74482266Y-94818928D01*
X74482265Y-94818929D01*
X74347961Y-94946148D01*
X74244139Y-95099273D01*
X74175669Y-95271122D01*
X74175668Y-95271125D01*
X74145740Y-95453682D01*
X74145740Y-95453683D01*
X73354500Y-95453683D01*
X73354500Y-94799668D01*
X73339443Y-94661225D01*
X73335492Y-94649500D01*
X73280097Y-94485091D01*
X73280096Y-94485090D01*
X73280096Y-94485089D01*
X73184273Y-94325829D01*
X73056454Y-94190892D01*
X72981516Y-94140083D01*
X72902616Y-94086587D01*
X72729950Y-94017790D01*
X72546535Y-93987722D01*
X72546532Y-93987721D01*
X72360944Y-93997783D01*
X72360933Y-93997785D01*
X72181859Y-94047505D01*
X72181854Y-94047507D01*
X72017637Y-94134569D01*
X71875980Y-94254894D01*
X71763495Y-94402864D01*
X71685454Y-94571547D01*
X71685454Y-94571548D01*
X71645501Y-94753060D01*
X71645500Y-94753070D01*
X71645500Y-96200339D01*
X70854500Y-96200339D01*
X70854500Y-94799668D01*
X70839443Y-94661225D01*
X70835492Y-94649500D01*
X70780097Y-94485091D01*
X70780096Y-94485090D01*
X70780096Y-94485089D01*
X70684273Y-94325829D01*
X70556454Y-94190892D01*
X70481516Y-94140083D01*
X70402616Y-94086587D01*
X70229950Y-94017790D01*
X70046535Y-93987722D01*
X70046532Y-93987721D01*
X69860944Y-93997783D01*
X69860933Y-93997785D01*
X69681859Y-94047505D01*
X69681854Y-94047507D01*
X69517637Y-94134569D01*
X69375980Y-94254894D01*
X69263495Y-94402864D01*
X69185454Y-94571547D01*
X69185454Y-94571548D01*
X69145501Y-94753060D01*
X69145500Y-94753070D01*
X69145500Y-96200339D01*
X65900804Y-96200339D01*
X66004727Y-96168814D01*
X66178538Y-96075910D01*
X66330883Y-95950883D01*
X66455910Y-95798538D01*
X66548814Y-95624727D01*
X66606024Y-95436132D01*
X66613365Y-95361595D01*
X66625341Y-95240003D01*
X66625341Y-95239996D01*
X66606025Y-95043875D01*
X66606025Y-95043873D01*
X66606024Y-95043870D01*
X66606024Y-95043868D01*
X66548814Y-94855273D01*
X66455910Y-94681462D01*
X66330883Y-94529117D01*
X66178538Y-94404090D01*
X66176239Y-94402861D01*
X66004728Y-94311186D01*
X65870674Y-94270521D01*
X65816132Y-94253976D01*
X65816131Y-94253975D01*
X65816125Y-94253974D01*
X65776637Y-94250085D01*
X65710805Y-94223502D01*
X65669796Y-94165547D01*
X65666630Y-94094621D01*
X65702312Y-94033242D01*
X65765513Y-94000898D01*
X65778009Y-93999171D01*
X65848002Y-93993048D01*
X66069068Y-93933813D01*
X66069073Y-93933811D01*
X66276498Y-93837087D01*
X66463974Y-93705815D01*
X66463980Y-93705810D01*
X66625810Y-93543980D01*
X66625815Y-93543974D01*
X66757087Y-93356498D01*
X66853811Y-93149073D01*
X66853813Y-93149068D01*
X66906082Y-92954000D01*
X65931686Y-92954000D01*
X65947641Y-92938045D01*
X66005165Y-92825148D01*
X66024986Y-92700000D01*
X66005165Y-92574852D01*
X65947641Y-92461955D01*
X65931686Y-92446000D01*
X66906082Y-92446000D01*
X66853813Y-92250931D01*
X66853811Y-92250926D01*
X66757087Y-92043501D01*
X66625815Y-91856025D01*
X66625810Y-91856019D01*
X66463980Y-91694189D01*
X66463974Y-91694184D01*
X66276498Y-91562912D01*
X66069073Y-91466188D01*
X66069068Y-91466186D01*
X65848002Y-91406951D01*
X65778007Y-91400828D01*
X65711889Y-91374964D01*
X65670250Y-91317461D01*
X65666309Y-91246574D01*
X65701318Y-91184809D01*
X65764163Y-91151777D01*
X65776640Y-91149914D01*
X65816123Y-91146025D01*
X65816126Y-91146025D01*
X65816127Y-91146024D01*
X65816132Y-91146024D01*
X66004727Y-91088814D01*
X66170881Y-91000003D01*
X68494659Y-91000003D01*
X68513974Y-91196124D01*
X68513974Y-91196126D01*
X68571186Y-91384728D01*
X68655537Y-91542537D01*
X68664090Y-91558538D01*
X68789117Y-91710883D01*
X68941462Y-91835910D01*
X69115273Y-91928814D01*
X69303868Y-91986024D01*
X69303872Y-91986024D01*
X69303874Y-91986025D01*
X69499997Y-92005341D01*
X69500000Y-92005341D01*
X69500003Y-92005341D01*
X69696124Y-91986025D01*
X69696126Y-91986025D01*
X69696127Y-91986024D01*
X69696132Y-91986024D01*
X69884727Y-91928814D01*
X70058538Y-91835910D01*
X70210883Y-91710883D01*
X70335910Y-91558538D01*
X70428814Y-91384727D01*
X70486024Y-91196132D01*
X70489010Y-91165815D01*
X70505341Y-91000003D01*
X70994659Y-91000003D01*
X71013974Y-91196124D01*
X71013974Y-91196126D01*
X71071186Y-91384728D01*
X71155537Y-91542537D01*
X71164090Y-91558538D01*
X71289117Y-91710883D01*
X71441462Y-91835910D01*
X71615273Y-91928814D01*
X71803868Y-91986024D01*
X71803872Y-91986024D01*
X71803874Y-91986025D01*
X71999997Y-92005341D01*
X72000000Y-92005341D01*
X72000003Y-92005341D01*
X72196124Y-91986025D01*
X72196126Y-91986025D01*
X72196127Y-91986024D01*
X72196132Y-91986024D01*
X72384727Y-91928814D01*
X72558538Y-91835910D01*
X72710883Y-91710883D01*
X72835910Y-91558538D01*
X72928814Y-91384727D01*
X72986024Y-91196132D01*
X72989010Y-91165815D01*
X73005341Y-91000003D01*
X73494659Y-91000003D01*
X73513974Y-91196124D01*
X73513974Y-91196126D01*
X73571186Y-91384728D01*
X73655537Y-91542537D01*
X73664090Y-91558538D01*
X73789117Y-91710883D01*
X73941462Y-91835910D01*
X74115273Y-91928814D01*
X74303868Y-91986024D01*
X74303872Y-91986024D01*
X74303874Y-91986025D01*
X74499997Y-92005341D01*
X74500000Y-92005341D01*
X74500003Y-92005341D01*
X74696124Y-91986025D01*
X74696126Y-91986025D01*
X74696127Y-91986024D01*
X74696132Y-91986024D01*
X74884727Y-91928814D01*
X75058538Y-91835910D01*
X75210883Y-91710883D01*
X75335910Y-91558538D01*
X75428814Y-91384727D01*
X75486024Y-91196132D01*
X75489010Y-91165815D01*
X75505341Y-91000003D01*
X75505341Y-90999996D01*
X75486025Y-90803875D01*
X75486025Y-90803873D01*
X75486024Y-90803870D01*
X75486024Y-90803868D01*
X75428814Y-90615273D01*
X75335910Y-90441462D01*
X75210883Y-90289117D01*
X75058538Y-90164090D01*
X75019783Y-90143375D01*
X74884728Y-90071186D01*
X74696125Y-90013974D01*
X74500003Y-89994659D01*
X74499997Y-89994659D01*
X74303875Y-90013974D01*
X74303873Y-90013974D01*
X74115271Y-90071186D01*
X73941461Y-90164090D01*
X73789117Y-90289117D01*
X73664090Y-90441461D01*
X73571186Y-90615271D01*
X73513974Y-90803873D01*
X73513974Y-90803875D01*
X73494659Y-90999996D01*
X73494659Y-91000003D01*
X73005341Y-91000003D01*
X73005341Y-90999996D01*
X72986025Y-90803875D01*
X72986025Y-90803873D01*
X72986024Y-90803870D01*
X72986024Y-90803868D01*
X72928814Y-90615273D01*
X72835910Y-90441462D01*
X72710883Y-90289117D01*
X72558538Y-90164090D01*
X72519783Y-90143375D01*
X72384728Y-90071186D01*
X72196125Y-90013974D01*
X72000003Y-89994659D01*
X71999997Y-89994659D01*
X71803875Y-90013974D01*
X71803873Y-90013974D01*
X71615271Y-90071186D01*
X71441461Y-90164090D01*
X71289117Y-90289117D01*
X71164090Y-90441461D01*
X71071186Y-90615271D01*
X71013974Y-90803873D01*
X71013974Y-90803875D01*
X70994659Y-90999996D01*
X70994659Y-91000003D01*
X70505341Y-91000003D01*
X70505341Y-90999996D01*
X70486025Y-90803875D01*
X70486025Y-90803873D01*
X70486024Y-90803870D01*
X70486024Y-90803868D01*
X70428814Y-90615273D01*
X70335910Y-90441462D01*
X70210883Y-90289117D01*
X70058538Y-90164090D01*
X70019783Y-90143375D01*
X69884728Y-90071186D01*
X69696125Y-90013974D01*
X69500003Y-89994659D01*
X69499997Y-89994659D01*
X69303875Y-90013974D01*
X69303873Y-90013974D01*
X69115271Y-90071186D01*
X68941461Y-90164090D01*
X68789117Y-90289117D01*
X68664090Y-90441461D01*
X68571186Y-90615271D01*
X68513974Y-90803873D01*
X68513974Y-90803875D01*
X68494659Y-90999996D01*
X68494659Y-91000003D01*
X66170881Y-91000003D01*
X66178538Y-90995910D01*
X66330883Y-90870883D01*
X66455910Y-90718538D01*
X66548814Y-90544727D01*
X66606024Y-90356132D01*
X66606025Y-90356124D01*
X66625341Y-90160003D01*
X66625341Y-90159996D01*
X66606025Y-89963875D01*
X66606025Y-89963873D01*
X66606024Y-89963870D01*
X66606024Y-89963868D01*
X66548814Y-89775273D01*
X66455910Y-89601462D01*
X66330883Y-89449117D01*
X66178538Y-89324090D01*
X66178537Y-89324089D01*
X66004728Y-89231186D01*
X65816125Y-89173974D01*
X65776637Y-89170085D01*
X65710805Y-89143502D01*
X65669796Y-89085547D01*
X65666630Y-89014621D01*
X65702312Y-88953242D01*
X65765513Y-88920898D01*
X65778009Y-88919171D01*
X65848002Y-88913048D01*
X66069068Y-88853813D01*
X66069073Y-88853811D01*
X66276498Y-88757087D01*
X66463974Y-88625815D01*
X66463980Y-88625810D01*
X66625810Y-88463980D01*
X66625815Y-88463974D01*
X66757087Y-88276498D01*
X66853811Y-88069073D01*
X66853813Y-88069068D01*
X66906082Y-87874000D01*
X65931686Y-87874000D01*
X65947641Y-87858045D01*
X66005165Y-87745148D01*
X66024986Y-87620000D01*
X66005165Y-87494852D01*
X65947641Y-87381955D01*
X65931686Y-87366000D01*
X66906082Y-87366000D01*
X66853813Y-87170931D01*
X66853811Y-87170926D01*
X66757087Y-86963501D01*
X66625815Y-86776025D01*
X66625810Y-86776019D01*
X66463980Y-86614189D01*
X66463974Y-86614184D01*
X66276498Y-86482912D01*
X66069073Y-86386188D01*
X66069068Y-86386186D01*
X65848002Y-86326951D01*
X65778007Y-86320828D01*
X65711889Y-86294964D01*
X65670250Y-86237461D01*
X65666309Y-86166574D01*
X65701318Y-86104809D01*
X65764163Y-86071777D01*
X65776640Y-86069914D01*
X65816123Y-86066025D01*
X65816126Y-86066025D01*
X65816127Y-86066024D01*
X65816132Y-86066024D01*
X66004727Y-86008814D01*
X66178538Y-85915910D01*
X66330883Y-85790883D01*
X66455910Y-85638538D01*
X66548814Y-85464727D01*
X66606024Y-85276132D01*
X66625341Y-85080000D01*
X66613015Y-84954852D01*
X66606025Y-84883875D01*
X66606025Y-84883873D01*
X66606024Y-84883870D01*
X66606024Y-84883868D01*
X66548814Y-84695273D01*
X66455910Y-84521462D01*
X66330883Y-84369117D01*
X66178538Y-84244090D01*
X66178537Y-84244089D01*
X66004728Y-84151186D01*
X65816125Y-84093974D01*
X65620003Y-84074659D01*
X65619997Y-84074659D01*
X65423875Y-84093974D01*
X65423870Y-84093975D01*
X65243274Y-84148758D01*
X65172280Y-84149391D01*
X65117604Y-84117278D01*
X63540329Y-82540003D01*
X64614659Y-82540003D01*
X64633974Y-82736124D01*
X64633974Y-82736126D01*
X64691186Y-82924728D01*
X64742876Y-83021433D01*
X64784090Y-83098538D01*
X64909117Y-83250883D01*
X65061462Y-83375910D01*
X65235273Y-83468814D01*
X65423868Y-83526024D01*
X65423872Y-83526024D01*
X65423874Y-83526025D01*
X65619997Y-83545341D01*
X65620000Y-83545341D01*
X65620003Y-83545341D01*
X65816124Y-83526025D01*
X65816126Y-83526025D01*
X65816127Y-83526024D01*
X65816132Y-83526024D01*
X66004727Y-83468814D01*
X66178538Y-83375910D01*
X66330883Y-83250883D01*
X66455910Y-83098538D01*
X66548814Y-82924727D01*
X66548816Y-82924722D01*
X66600324Y-82754924D01*
X66639239Y-82695543D01*
X66704080Y-82666627D01*
X66720898Y-82665500D01*
X67725086Y-82665500D01*
X67793207Y-82685502D01*
X67820311Y-82708988D01*
X67853373Y-82747144D01*
X67865479Y-82754924D01*
X67974447Y-82824953D01*
X68112539Y-82865500D01*
X68256461Y-82865500D01*
X68394553Y-82824953D01*
X68515628Y-82747143D01*
X68609877Y-82638373D01*
X68609878Y-82638370D01*
X68613257Y-82634471D01*
X68672983Y-82596087D01*
X68743979Y-82596087D01*
X68803706Y-82634470D01*
X68833199Y-82699050D01*
X68834482Y-82716964D01*
X68834482Y-82719990D01*
X68864364Y-82985125D01*
X68923736Y-83245229D01*
X68925715Y-83250883D01*
X69011866Y-83497074D01*
X69011868Y-83497078D01*
X69127631Y-83737458D01*
X69127632Y-83737459D01*
X69269584Y-83963371D01*
X69417929Y-84149391D01*
X69435942Y-84171978D01*
X69478775Y-84214811D01*
X69478778Y-84214815D01*
X69485960Y-84221997D01*
X69485961Y-84221998D01*
X70059065Y-84795102D01*
X70093089Y-84857413D01*
X70094892Y-84900634D01*
X70094318Y-84904996D01*
X70094318Y-84905001D01*
X70114955Y-85061760D01*
X70174349Y-85205148D01*
X70175464Y-85207841D01*
X70271718Y-85333282D01*
X70397159Y-85429536D01*
X70543238Y-85490044D01*
X70700000Y-85510682D01*
X70856762Y-85490044D01*
X71002841Y-85429536D01*
X71128282Y-85333282D01*
X71224536Y-85207841D01*
X71285044Y-85061762D01*
X71305682Y-84905000D01*
X71305681Y-84904996D01*
X71291213Y-84795100D01*
X71285044Y-84748238D01*
X71224536Y-84602159D01*
X71128282Y-84476718D01*
X71002841Y-84380464D01*
X70856762Y-84319956D01*
X70856760Y-84319955D01*
X70700001Y-84299318D01*
X70699998Y-84299318D01*
X70695636Y-84299892D01*
X70691956Y-84299318D01*
X70691743Y-84299318D01*
X70691743Y-84299284D01*
X70625488Y-84288949D01*
X70590102Y-84264064D01*
X70062764Y-83736726D01*
X70059944Y-83733716D01*
X69923913Y-83578600D01*
X69918910Y-83572080D01*
X69805434Y-83402251D01*
X69801312Y-83395111D01*
X69791843Y-83375910D01*
X69710978Y-83211938D01*
X69707825Y-83204325D01*
X69642173Y-83010925D01*
X69640038Y-83002958D01*
X69630079Y-82952901D01*
X69600187Y-82802644D01*
X69599113Y-82794486D01*
X69585635Y-82588952D01*
X69585500Y-82584829D01*
X69585500Y-77868174D01*
X69884500Y-77868174D01*
X69884527Y-77868849D01*
X69884524Y-77985770D01*
X69884524Y-78000536D01*
X69917025Y-78330596D01*
X69917026Y-78330602D01*
X69917027Y-78330610D01*
X69981718Y-78655869D01*
X69981722Y-78655885D01*
X70077991Y-78973257D01*
X70077993Y-78973262D01*
X70204905Y-79279666D01*
X70204908Y-79279673D01*
X70361240Y-79572155D01*
X70361254Y-79572178D01*
X70488059Y-79761955D01*
X70545504Y-79847927D01*
X70729065Y-80071597D01*
X70755901Y-80104297D01*
X70755906Y-80104303D01*
X70828853Y-80177249D01*
X71317625Y-80666021D01*
X71317626Y-80666023D01*
X71317627Y-80666023D01*
X71354549Y-80702946D01*
X71356977Y-80705514D01*
X71541593Y-80912099D01*
X71549556Y-80921009D01*
X71553964Y-80926537D01*
X71720180Y-81160798D01*
X71723942Y-81166784D01*
X71862879Y-81418173D01*
X71865947Y-81424543D01*
X71975866Y-81689909D01*
X71978201Y-81696583D01*
X72057717Y-81972592D01*
X72059291Y-81979485D01*
X72107404Y-82262658D01*
X72108196Y-82269684D01*
X72124401Y-82558237D01*
X72124500Y-82561771D01*
X72124500Y-86914080D01*
X72104498Y-86982201D01*
X72075208Y-87014040D01*
X72071718Y-87016717D01*
X71975465Y-87142157D01*
X71975463Y-87142160D01*
X71914955Y-87288239D01*
X71894318Y-87444999D01*
X71894318Y-87445000D01*
X71914955Y-87601760D01*
X71974349Y-87745148D01*
X71975464Y-87747841D01*
X72071718Y-87873282D01*
X72197159Y-87969536D01*
X72343238Y-88030044D01*
X72421619Y-88040363D01*
X72499999Y-88050682D01*
X72499999Y-88050681D01*
X72500000Y-88050682D01*
X72656762Y-88030044D01*
X72802841Y-87969536D01*
X72928282Y-87873282D01*
X73024536Y-87747841D01*
X73085044Y-87601762D01*
X73105682Y-87445000D01*
X73085044Y-87288238D01*
X73024536Y-87142159D01*
X72928282Y-87016718D01*
X72924792Y-87014040D01*
X72922592Y-87011027D01*
X72922443Y-87010878D01*
X72922466Y-87010854D01*
X72882927Y-86956700D01*
X72875500Y-86914080D01*
X72875500Y-82394181D01*
X72875500Y-82394172D01*
X72842992Y-82064114D01*
X72778290Y-81738831D01*
X72722396Y-81554575D01*
X72682022Y-81421479D01*
X72682015Y-81421458D01*
X72681938Y-81421272D01*
X72555096Y-81115048D01*
X72398755Y-80822554D01*
X72214497Y-80546792D01*
X72205544Y-80535883D01*
X72004102Y-80290425D01*
X72004094Y-80290416D01*
X71985157Y-80271479D01*
X71948869Y-80235191D01*
X71948867Y-80235188D01*
X71697597Y-79983918D01*
X71405441Y-79691762D01*
X71403031Y-79689212D01*
X71210441Y-79473705D01*
X71206033Y-79468177D01*
X71078983Y-79289117D01*
X71039823Y-79233926D01*
X71036065Y-79227943D01*
X70935738Y-79046414D01*
X70897119Y-78976537D01*
X70894055Y-78970172D01*
X70880700Y-78937930D01*
X70802905Y-78750110D01*
X70784143Y-78704812D01*
X70781808Y-78698139D01*
X70771441Y-78662152D01*
X70740573Y-78555000D01*
X72179318Y-78555000D01*
X72199955Y-78711760D01*
X72246061Y-78823068D01*
X72260464Y-78857841D01*
X72356718Y-78983282D01*
X72482159Y-79079536D01*
X72628238Y-79140044D01*
X72706619Y-79150363D01*
X72784999Y-79160682D01*
X72784999Y-79160681D01*
X72785000Y-79160682D01*
X72941762Y-79140044D01*
X73087841Y-79079536D01*
X73213282Y-78983282D01*
X73215955Y-78979798D01*
X73218963Y-78977601D01*
X73219122Y-78977443D01*
X73219146Y-78977467D01*
X73273291Y-78937930D01*
X73315919Y-78930500D01*
X75464632Y-78930500D01*
X75532753Y-78950502D01*
X75553726Y-78967404D01*
X78042955Y-81456634D01*
X78044558Y-81458237D01*
X78046969Y-81460787D01*
X78239562Y-81676298D01*
X78243964Y-81681817D01*
X78402356Y-81905047D01*
X78410180Y-81916074D01*
X78413942Y-81922061D01*
X78552883Y-82173452D01*
X78555951Y-82179822D01*
X78665876Y-82445201D01*
X78668207Y-82451861D01*
X78747725Y-82727868D01*
X78749298Y-82734761D01*
X78797414Y-83017942D01*
X78798205Y-83024968D01*
X78814401Y-83313309D01*
X78814500Y-83316842D01*
X78814500Y-90230767D01*
X78814527Y-90231456D01*
X78814527Y-90363198D01*
X78847030Y-90693240D01*
X78847030Y-90693245D01*
X78911725Y-91018507D01*
X78911731Y-91018528D01*
X79007999Y-91335896D01*
X79008001Y-91335901D01*
X79134912Y-91642302D01*
X79249145Y-91856025D01*
X79291251Y-91934801D01*
X79475506Y-92210563D01*
X79681814Y-92461955D01*
X79685899Y-92466932D01*
X79685905Y-92466939D01*
X79756159Y-92537195D01*
X79756184Y-92537222D01*
X84987595Y-97768632D01*
X85021621Y-97830944D01*
X85024500Y-97857727D01*
X85024500Y-98544750D01*
X85030129Y-98573050D01*
X85036133Y-98603231D01*
X85080448Y-98669552D01*
X85146769Y-98713867D01*
X85205252Y-98725500D01*
X85205253Y-98725500D01*
X86294747Y-98725500D01*
X86294748Y-98725500D01*
X86353231Y-98713867D01*
X86419552Y-98669552D01*
X86463867Y-98603231D01*
X86475500Y-98544748D01*
X86475500Y-98000000D01*
X88019909Y-98000000D01*
X88038214Y-98162461D01*
X88038215Y-98162463D01*
X88092211Y-98316775D01*
X88092212Y-98316778D01*
X88179190Y-98455202D01*
X88179191Y-98455204D01*
X88294795Y-98570808D01*
X88294797Y-98570809D01*
X88433221Y-98657787D01*
X88433222Y-98657787D01*
X88433225Y-98657789D01*
X88587539Y-98711786D01*
X88750000Y-98730091D01*
X88912461Y-98711786D01*
X89066775Y-98657789D01*
X89205204Y-98570808D01*
X89320808Y-98455204D01*
X89407789Y-98316775D01*
X89461786Y-98162461D01*
X89480091Y-98000000D01*
X89461786Y-97837539D01*
X89407789Y-97683225D01*
X89407787Y-97683222D01*
X89407787Y-97683221D01*
X89320809Y-97544797D01*
X89320808Y-97544795D01*
X89205204Y-97429191D01*
X89205202Y-97429190D01*
X89066778Y-97342212D01*
X89066775Y-97342211D01*
X89033158Y-97330448D01*
X88912461Y-97288214D01*
X88750000Y-97269909D01*
X88749999Y-97269909D01*
X88726368Y-97272571D01*
X88587539Y-97288214D01*
X88587536Y-97288214D01*
X88587536Y-97288215D01*
X88433224Y-97342211D01*
X88433221Y-97342212D01*
X88294797Y-97429190D01*
X88294795Y-97429191D01*
X88179191Y-97544795D01*
X88179190Y-97544797D01*
X88092212Y-97683221D01*
X88092211Y-97683224D01*
X88089878Y-97689891D01*
X88038214Y-97837539D01*
X88019909Y-98000000D01*
X86475500Y-98000000D01*
X86475500Y-97455252D01*
X86463867Y-97396769D01*
X86419552Y-97330448D01*
X86353231Y-97286133D01*
X86353228Y-97286132D01*
X86294750Y-97274500D01*
X86294748Y-97274500D01*
X85607727Y-97274500D01*
X85539606Y-97254498D01*
X85518632Y-97237595D01*
X82945521Y-94664484D01*
X80335428Y-92054390D01*
X80333031Y-92051854D01*
X80140432Y-91836331D01*
X80136052Y-91830838D01*
X80002281Y-91642302D01*
X79969831Y-91596566D01*
X79966069Y-91590579D01*
X79827132Y-91339185D01*
X79824070Y-91332828D01*
X79714150Y-91067450D01*
X79711816Y-91060778D01*
X79694307Y-91000003D01*
X81114659Y-91000003D01*
X81133974Y-91196124D01*
X81133974Y-91196126D01*
X81191186Y-91384728D01*
X81275537Y-91542537D01*
X81284090Y-91558538D01*
X81409117Y-91710883D01*
X81561462Y-91835910D01*
X81735273Y-91928814D01*
X81923868Y-91986024D01*
X81923872Y-91986024D01*
X81923874Y-91986025D01*
X82119997Y-92005341D01*
X82120000Y-92005341D01*
X82120003Y-92005341D01*
X82316124Y-91986025D01*
X82316126Y-91986025D01*
X82316127Y-91986024D01*
X82316132Y-91986024D01*
X82504727Y-91928814D01*
X82678538Y-91835910D01*
X82830883Y-91710883D01*
X82955910Y-91558538D01*
X83048814Y-91384727D01*
X83106024Y-91196132D01*
X83109010Y-91165815D01*
X83125341Y-91000003D01*
X83874659Y-91000003D01*
X83893974Y-91196124D01*
X83893974Y-91196126D01*
X83951186Y-91384728D01*
X84035537Y-91542537D01*
X84044090Y-91558538D01*
X84169117Y-91710883D01*
X84321462Y-91835910D01*
X84495273Y-91928814D01*
X84683868Y-91986024D01*
X84683872Y-91986024D01*
X84683874Y-91986025D01*
X84879997Y-92005341D01*
X84880000Y-92005341D01*
X84880003Y-92005341D01*
X85076124Y-91986025D01*
X85076126Y-91986025D01*
X85076127Y-91986024D01*
X85076132Y-91986024D01*
X85264727Y-91928814D01*
X85438538Y-91835910D01*
X85590883Y-91710883D01*
X85715910Y-91558538D01*
X85808814Y-91384727D01*
X85866024Y-91196132D01*
X85869010Y-91165815D01*
X85885341Y-91000003D01*
X85885341Y-90999996D01*
X85866025Y-90803875D01*
X85866025Y-90803873D01*
X85866024Y-90803870D01*
X85866024Y-90803868D01*
X85808814Y-90615273D01*
X85715910Y-90441462D01*
X85590883Y-90289117D01*
X85438538Y-90164090D01*
X85399783Y-90143375D01*
X85264728Y-90071186D01*
X85076125Y-90013974D01*
X84880003Y-89994659D01*
X84879997Y-89994659D01*
X84683875Y-90013974D01*
X84683873Y-90013974D01*
X84495271Y-90071186D01*
X84321461Y-90164090D01*
X84169117Y-90289117D01*
X84044090Y-90441461D01*
X83951186Y-90615271D01*
X83893974Y-90803873D01*
X83893974Y-90803875D01*
X83874659Y-90999996D01*
X83874659Y-91000003D01*
X83125341Y-91000003D01*
X83125341Y-90999996D01*
X83106025Y-90803875D01*
X83106025Y-90803873D01*
X83106024Y-90803870D01*
X83106024Y-90803868D01*
X83048814Y-90615273D01*
X82955910Y-90441462D01*
X82830883Y-90289117D01*
X82678538Y-90164090D01*
X82639783Y-90143375D01*
X82504728Y-90071186D01*
X82316125Y-90013974D01*
X82120003Y-89994659D01*
X82119997Y-89994659D01*
X81923875Y-90013974D01*
X81923873Y-90013974D01*
X81735271Y-90071186D01*
X81561461Y-90164090D01*
X81409117Y-90289117D01*
X81284090Y-90441461D01*
X81191186Y-90615271D01*
X81133974Y-90803873D01*
X81133974Y-90803875D01*
X81114659Y-90999996D01*
X81114659Y-91000003D01*
X79694307Y-91000003D01*
X79681337Y-90954981D01*
X79632299Y-90784756D01*
X79630731Y-90777888D01*
X79582619Y-90494700D01*
X79581829Y-90487689D01*
X79567443Y-90231456D01*
X79565599Y-90198606D01*
X79565500Y-90195074D01*
X79565500Y-83367482D01*
X79565511Y-83367441D01*
X79565511Y-83315280D01*
X79565512Y-83315280D01*
X79565511Y-83149452D01*
X79533001Y-82819393D01*
X79468297Y-82494111D01*
X79372020Y-82176736D01*
X79245100Y-81870327D01*
X79088757Y-81577834D01*
X78904498Y-81302073D01*
X78788555Y-81160798D01*
X78706944Y-81061355D01*
X78694096Y-81045700D01*
X78638869Y-80990474D01*
X78638867Y-80990470D01*
X78636369Y-80987972D01*
X78636365Y-80987965D01*
X78558194Y-80909798D01*
X78558194Y-80909797D01*
X78558191Y-80909795D01*
X77473396Y-79825000D01*
X81187004Y-79825000D01*
X81206951Y-80053002D01*
X81266186Y-80274068D01*
X81266188Y-80274073D01*
X81362913Y-80481501D01*
X81412899Y-80552888D01*
X82101272Y-79864516D01*
X82114835Y-79950148D01*
X82172359Y-80063045D01*
X82261955Y-80152641D01*
X82374852Y-80210165D01*
X82460482Y-80223727D01*
X81772110Y-80912098D01*
X81772110Y-80912100D01*
X81843498Y-80962086D01*
X82050926Y-81058811D01*
X82050931Y-81058813D01*
X82271999Y-81118048D01*
X82271995Y-81118048D01*
X82500000Y-81137995D01*
X82728002Y-81118048D01*
X82949068Y-81058813D01*
X82949073Y-81058811D01*
X83156497Y-80962088D01*
X83227888Y-80912099D01*
X83227888Y-80912097D01*
X82539518Y-80223727D01*
X82625148Y-80210165D01*
X82738045Y-80152641D01*
X82827641Y-80063045D01*
X82885165Y-79950148D01*
X82898727Y-79864516D01*
X83587098Y-80552888D01*
X83587099Y-80552888D01*
X83637088Y-80481497D01*
X83733811Y-80274073D01*
X83733813Y-80274068D01*
X83787003Y-80075562D01*
X83823955Y-80014939D01*
X83887815Y-79983918D01*
X83958310Y-79992346D01*
X84013057Y-80037549D01*
X84029284Y-80071597D01*
X84071183Y-80209722D01*
X84071185Y-80209726D01*
X84114315Y-80290416D01*
X84164090Y-80383538D01*
X84289117Y-80535883D01*
X84441462Y-80660910D01*
X84615273Y-80753814D01*
X84803868Y-80811024D01*
X84803872Y-80811024D01*
X84803874Y-80811025D01*
X84999997Y-80830341D01*
X85000000Y-80830341D01*
X85000003Y-80830341D01*
X85196124Y-80811025D01*
X85196126Y-80811025D01*
X85196127Y-80811024D01*
X85196132Y-80811024D01*
X85384727Y-80753814D01*
X85558538Y-80660910D01*
X85710883Y-80535883D01*
X85835910Y-80383538D01*
X85928814Y-80209727D01*
X85986024Y-80021132D01*
X85988105Y-80000003D01*
X86005341Y-79825003D01*
X86005341Y-79824996D01*
X85986025Y-79628875D01*
X85986025Y-79628873D01*
X85986024Y-79628870D01*
X85986024Y-79628868D01*
X85928814Y-79440273D01*
X85835910Y-79266462D01*
X85710883Y-79114117D01*
X85558538Y-78989090D01*
X85486345Y-78950502D01*
X85384728Y-78896186D01*
X85196125Y-78838974D01*
X85000003Y-78819659D01*
X84999997Y-78819659D01*
X84803875Y-78838974D01*
X84803873Y-78838974D01*
X84615271Y-78896186D01*
X84441461Y-78989090D01*
X84289117Y-79114117D01*
X84164090Y-79266461D01*
X84071185Y-79440273D01*
X84071183Y-79440278D01*
X84029284Y-79578402D01*
X83990369Y-79637783D01*
X83925528Y-79666699D01*
X83855347Y-79655968D01*
X83802108Y-79608998D01*
X83787003Y-79574437D01*
X83733813Y-79375931D01*
X83733811Y-79375926D01*
X83637086Y-79168498D01*
X83587100Y-79097110D01*
X83587097Y-79097110D01*
X82898726Y-79785480D01*
X82885165Y-79699852D01*
X82827641Y-79586955D01*
X82738045Y-79497359D01*
X82625148Y-79439835D01*
X82539517Y-79426272D01*
X83227888Y-78737899D01*
X83227888Y-78737898D01*
X83156501Y-78687913D01*
X82949073Y-78591188D01*
X82949068Y-78591186D01*
X82728000Y-78531951D01*
X82728004Y-78531951D01*
X82500000Y-78512004D01*
X82271997Y-78531951D01*
X82050931Y-78591186D01*
X82050926Y-78591188D01*
X81843500Y-78687913D01*
X81772109Y-78737900D01*
X82460481Y-79426272D01*
X82374852Y-79439835D01*
X82261955Y-79497359D01*
X82172359Y-79586955D01*
X82114835Y-79699852D01*
X82101272Y-79785481D01*
X81412900Y-79097109D01*
X81362913Y-79168500D01*
X81266188Y-79375926D01*
X81266186Y-79375931D01*
X81206951Y-79596997D01*
X81187004Y-79825000D01*
X77473396Y-79825000D01*
X75974655Y-78326258D01*
X75958268Y-78306080D01*
X75952442Y-78297163D01*
X75936285Y-78284588D01*
X75924470Y-78275392D01*
X75918627Y-78270230D01*
X75915877Y-78267480D01*
X75913125Y-78265515D01*
X75897923Y-78254661D01*
X75895836Y-78253105D01*
X75853547Y-78220190D01*
X75846636Y-78216450D01*
X75839559Y-78212990D01*
X75788186Y-78197695D01*
X75785708Y-78196901D01*
X75735019Y-78179500D01*
X75735018Y-78179500D01*
X75735015Y-78179499D01*
X75727273Y-78178207D01*
X75719446Y-78177231D01*
X75675062Y-78179067D01*
X75665903Y-78179446D01*
X75663310Y-78179500D01*
X73315919Y-78179500D01*
X73247798Y-78159498D01*
X73215956Y-78130202D01*
X73213282Y-78126718D01*
X73087841Y-78030464D01*
X73014305Y-78000004D01*
X72941760Y-77969955D01*
X72785000Y-77949318D01*
X72628239Y-77969955D01*
X72482160Y-78030463D01*
X72482157Y-78030465D01*
X72356718Y-78126718D01*
X72260465Y-78252157D01*
X72260463Y-78252160D01*
X72199955Y-78398239D01*
X72179318Y-78554999D01*
X72179318Y-78555000D01*
X70740573Y-78555000D01*
X70702292Y-78422115D01*
X70700726Y-78415255D01*
X70652616Y-78132062D01*
X70651826Y-78125053D01*
X70640876Y-77930000D01*
X83464318Y-77930000D01*
X83484955Y-78086760D01*
X83538675Y-78216450D01*
X83545464Y-78232841D01*
X83641718Y-78358282D01*
X83767159Y-78454536D01*
X83913238Y-78515044D01*
X83991619Y-78525363D01*
X84069999Y-78535682D01*
X84069999Y-78535681D01*
X84070000Y-78535682D01*
X84226762Y-78515044D01*
X84372841Y-78454536D01*
X84498282Y-78358282D01*
X84500955Y-78354798D01*
X84503963Y-78352601D01*
X84504122Y-78352443D01*
X84504146Y-78352467D01*
X84558291Y-78312930D01*
X84600919Y-78305500D01*
X86553375Y-78305500D01*
X86605595Y-78305500D01*
X86609127Y-78305599D01*
X86897693Y-78321800D01*
X86904704Y-78322590D01*
X87187890Y-78370702D01*
X87194762Y-78372270D01*
X87470796Y-78451790D01*
X87477445Y-78454117D01*
X87742847Y-78564046D01*
X87749189Y-78567100D01*
X88000599Y-78706046D01*
X88006582Y-78709806D01*
X88073502Y-78757287D01*
X88240845Y-78876021D01*
X88246365Y-78880424D01*
X88461501Y-79072677D01*
X88464051Y-79075088D01*
X88620002Y-79231039D01*
X88624562Y-79235599D01*
X88626961Y-79238137D01*
X88819554Y-79453653D01*
X88823957Y-79459175D01*
X88904119Y-79572155D01*
X88990163Y-79693426D01*
X88993925Y-79699412D01*
X89132870Y-79950818D01*
X89135933Y-79957179D01*
X89175623Y-80053002D01*
X89245848Y-80222548D01*
X89248183Y-80229221D01*
X89327697Y-80505230D01*
X89329270Y-80512123D01*
X89377379Y-80795294D01*
X89378171Y-80802320D01*
X89394401Y-81091393D01*
X89394500Y-81094925D01*
X89394500Y-95380767D01*
X89394527Y-95381456D01*
X89394527Y-95513198D01*
X89427030Y-95843240D01*
X89427030Y-95843245D01*
X89491725Y-96168507D01*
X89491731Y-96168528D01*
X89587999Y-96485896D01*
X89588001Y-96485901D01*
X89714912Y-96792302D01*
X89827108Y-97002214D01*
X89871251Y-97084801D01*
X90035384Y-97330448D01*
X90055504Y-97360560D01*
X90055510Y-97360568D01*
X90265899Y-97616932D01*
X90265905Y-97616939D01*
X90336159Y-97687195D01*
X90336171Y-97687208D01*
X90338853Y-97689890D01*
X90338854Y-97689891D01*
X90487596Y-97838633D01*
X90521620Y-97900943D01*
X90524500Y-97927727D01*
X90524500Y-98544750D01*
X90530129Y-98573050D01*
X90536133Y-98603231D01*
X90580448Y-98669552D01*
X90646769Y-98713867D01*
X90705252Y-98725500D01*
X90705253Y-98725500D01*
X91794747Y-98725500D01*
X91794748Y-98725500D01*
X91853231Y-98713867D01*
X91919552Y-98669552D01*
X91963867Y-98603231D01*
X91975500Y-98544748D01*
X91975500Y-97455252D01*
X91963867Y-97396769D01*
X91919552Y-97330448D01*
X91853231Y-97286133D01*
X91853228Y-97286132D01*
X91794750Y-97274500D01*
X91794748Y-97274500D01*
X91037728Y-97274500D01*
X90969607Y-97254498D01*
X90948633Y-97237595D01*
X90915428Y-97204390D01*
X90913031Y-97201854D01*
X90720432Y-96986331D01*
X90716052Y-96980838D01*
X90582281Y-96792302D01*
X90549831Y-96746566D01*
X90546069Y-96740579D01*
X90407132Y-96489185D01*
X90404070Y-96482828D01*
X90294150Y-96217450D01*
X90291816Y-96210778D01*
X90261337Y-96104981D01*
X90212299Y-95934756D01*
X90210731Y-95927888D01*
X90162619Y-95644700D01*
X90161829Y-95637689D01*
X90150513Y-95436132D01*
X90145599Y-95348606D01*
X90145500Y-95345074D01*
X90145500Y-91000003D01*
X91494659Y-91000003D01*
X91513974Y-91196124D01*
X91513974Y-91196126D01*
X91571186Y-91384728D01*
X91655537Y-91542537D01*
X91664090Y-91558538D01*
X91789117Y-91710883D01*
X91941462Y-91835910D01*
X92115273Y-91928814D01*
X92303868Y-91986024D01*
X92303872Y-91986024D01*
X92303874Y-91986025D01*
X92499997Y-92005341D01*
X92500000Y-92005341D01*
X92500003Y-92005341D01*
X92696124Y-91986025D01*
X92696126Y-91986025D01*
X92696127Y-91986024D01*
X92696132Y-91986024D01*
X92884727Y-91928814D01*
X93058538Y-91835910D01*
X93210883Y-91710883D01*
X93335910Y-91558538D01*
X93428814Y-91384727D01*
X93486024Y-91196132D01*
X93489010Y-91165815D01*
X93505341Y-91000003D01*
X93505341Y-90999996D01*
X93486025Y-90803875D01*
X93486025Y-90803873D01*
X93486024Y-90803870D01*
X93486024Y-90803868D01*
X93428814Y-90615273D01*
X93335910Y-90441462D01*
X93210883Y-90289117D01*
X93058538Y-90164090D01*
X93019783Y-90143375D01*
X92884728Y-90071186D01*
X92696125Y-90013974D01*
X92500003Y-89994659D01*
X92499997Y-89994659D01*
X92303875Y-90013974D01*
X92303873Y-90013974D01*
X92115271Y-90071186D01*
X91941461Y-90164090D01*
X91789117Y-90289117D01*
X91664090Y-90441461D01*
X91571186Y-90615271D01*
X91513974Y-90803873D01*
X91513974Y-90803875D01*
X91494659Y-90999996D01*
X91494659Y-91000003D01*
X90145500Y-91000003D01*
X90145500Y-81059243D01*
X90145471Y-81058549D01*
X90145471Y-81045698D01*
X90145473Y-80926819D01*
X90145472Y-80926808D01*
X90145472Y-80926802D01*
X90124208Y-80710882D01*
X90112970Y-80596762D01*
X90105367Y-80558538D01*
X90052039Y-80290419D01*
X90048272Y-80271479D01*
X89952001Y-79954105D01*
X89825086Y-79647695D01*
X89668749Y-79355200D01*
X89484495Y-79079438D01*
X89274098Y-78823064D01*
X89208331Y-78757295D01*
X89208324Y-78757287D01*
X89188935Y-78737898D01*
X89147976Y-78696939D01*
X89143037Y-78692000D01*
X89113202Y-78662163D01*
X89113190Y-78662152D01*
X89031791Y-78580752D01*
X89031744Y-78580666D01*
X88876958Y-78425882D01*
X88876955Y-78425879D01*
X88787663Y-78352601D01*
X88620580Y-78215483D01*
X88344816Y-78031227D01*
X88344813Y-78031225D01*
X88344811Y-78031224D01*
X88052314Y-77874886D01*
X87745917Y-77747976D01*
X87745900Y-77747970D01*
X87428527Y-77651699D01*
X87428521Y-77651698D01*
X87103249Y-77587001D01*
X87103242Y-77587000D01*
X86773191Y-77554498D01*
X86773182Y-77554498D01*
X86623936Y-77554499D01*
X86607353Y-77554500D01*
X84600919Y-77554500D01*
X84532798Y-77534498D01*
X84500956Y-77505202D01*
X84498282Y-77501718D01*
X84372841Y-77405464D01*
X84327766Y-77386793D01*
X84226760Y-77344955D01*
X84070000Y-77324318D01*
X83913239Y-77344955D01*
X83767160Y-77405463D01*
X83767157Y-77405465D01*
X83641718Y-77501718D01*
X83545465Y-77627157D01*
X83545463Y-77627160D01*
X83484955Y-77773239D01*
X83464318Y-77929999D01*
X83464318Y-77930000D01*
X70640876Y-77930000D01*
X70635598Y-77835972D01*
X70635500Y-77832446D01*
X70635500Y-77816078D01*
X70635501Y-77780740D01*
X70635500Y-77780736D01*
X70635500Y-77205478D01*
X70655502Y-77137358D01*
X70709158Y-77090865D01*
X70779432Y-77080761D01*
X70833771Y-77102266D01*
X70883501Y-77137087D01*
X71090926Y-77233811D01*
X71090931Y-77233813D01*
X71311999Y-77293048D01*
X71311995Y-77293048D01*
X71540000Y-77312995D01*
X71768002Y-77293048D01*
X71989068Y-77233813D01*
X71989073Y-77233811D01*
X72196497Y-77137088D01*
X72267888Y-77087099D01*
X72267888Y-77087097D01*
X71579518Y-76398727D01*
X71665148Y-76385165D01*
X71778045Y-76327641D01*
X71867641Y-76238045D01*
X71925165Y-76125148D01*
X71938727Y-76039518D01*
X72627097Y-76727888D01*
X72627099Y-76727888D01*
X72677088Y-76656497D01*
X72773811Y-76449073D01*
X72773813Y-76449068D01*
X72827003Y-76250562D01*
X72863955Y-76189939D01*
X72927815Y-76158918D01*
X72998310Y-76167346D01*
X73053057Y-76212549D01*
X73069284Y-76246597D01*
X73111183Y-76384722D01*
X73111185Y-76384726D01*
X73155658Y-76467928D01*
X73204090Y-76558538D01*
X73329117Y-76710883D01*
X73481462Y-76835910D01*
X73655273Y-76928814D01*
X73843868Y-76986024D01*
X73843872Y-76986024D01*
X73843874Y-76986025D01*
X74039997Y-77005341D01*
X74040000Y-77005341D01*
X74040003Y-77005341D01*
X74236124Y-76986025D01*
X74236126Y-76986025D01*
X74236127Y-76986024D01*
X74236132Y-76986024D01*
X74424727Y-76928814D01*
X74598538Y-76835910D01*
X74750883Y-76710883D01*
X74875910Y-76558538D01*
X74968814Y-76384727D01*
X75026024Y-76196132D01*
X75032666Y-76128694D01*
X75045341Y-76000003D01*
X75045341Y-76000002D01*
X75544355Y-76000002D01*
X75564859Y-76168871D01*
X75625179Y-76327925D01*
X75625181Y-76327929D01*
X75721816Y-76467928D01*
X75721818Y-76467930D01*
X75824093Y-76558538D01*
X75849148Y-76580734D01*
X75999775Y-76659790D01*
X75999776Y-76659790D01*
X75999778Y-76659791D01*
X76156461Y-76698409D01*
X76164944Y-76700500D01*
X76164947Y-76700500D01*
X76335053Y-76700500D01*
X76335056Y-76700500D01*
X76500225Y-76659790D01*
X76650852Y-76580734D01*
X76778183Y-76467929D01*
X76874818Y-76327930D01*
X76882187Y-76308498D01*
X76925044Y-76251897D01*
X76991700Y-76227451D01*
X77060990Y-76242922D01*
X77110917Y-76293398D01*
X77117813Y-76308499D01*
X77125181Y-76327928D01*
X77125181Y-76327929D01*
X77221816Y-76467928D01*
X77221818Y-76467930D01*
X77324093Y-76558538D01*
X77349148Y-76580734D01*
X77499775Y-76659790D01*
X77499776Y-76659790D01*
X77499778Y-76659791D01*
X77656461Y-76698409D01*
X77664944Y-76700500D01*
X77664947Y-76700500D01*
X77835053Y-76700500D01*
X77835056Y-76700500D01*
X78000225Y-76659790D01*
X78150852Y-76580734D01*
X78278183Y-76467929D01*
X78374818Y-76327930D01*
X78435140Y-76168872D01*
X78455645Y-76000003D01*
X78934659Y-76000003D01*
X78953974Y-76196124D01*
X78953974Y-76196126D01*
X79011186Y-76384728D01*
X79055658Y-76467928D01*
X79104090Y-76558538D01*
X79229117Y-76710883D01*
X79381462Y-76835910D01*
X79555273Y-76928814D01*
X79743868Y-76986024D01*
X79743872Y-76986024D01*
X79743874Y-76986025D01*
X79939997Y-77005341D01*
X79940000Y-77005341D01*
X79940003Y-77005341D01*
X80136124Y-76986025D01*
X80136126Y-76986025D01*
X80136127Y-76986024D01*
X80136132Y-76986024D01*
X80324727Y-76928814D01*
X80498538Y-76835910D01*
X80650883Y-76710883D01*
X80775910Y-76558538D01*
X80868814Y-76384727D01*
X80910716Y-76246594D01*
X80949629Y-76187216D01*
X81014470Y-76158301D01*
X81084651Y-76169031D01*
X81137890Y-76216000D01*
X81152996Y-76250561D01*
X81206187Y-76449071D01*
X81206188Y-76449073D01*
X81302913Y-76656501D01*
X81352899Y-76727888D01*
X82041272Y-76039516D01*
X82054835Y-76125148D01*
X82112359Y-76238045D01*
X82201955Y-76327641D01*
X82314852Y-76385165D01*
X82400482Y-76398727D01*
X81712110Y-77087098D01*
X81712110Y-77087100D01*
X81783498Y-77137086D01*
X81990926Y-77233811D01*
X81990931Y-77233813D01*
X82211999Y-77293048D01*
X82211995Y-77293048D01*
X82440000Y-77312995D01*
X82668002Y-77293048D01*
X82889068Y-77233813D01*
X82889073Y-77233811D01*
X83096497Y-77137088D01*
X83167888Y-77087099D01*
X83167888Y-77087097D01*
X82479518Y-76398727D01*
X82565148Y-76385165D01*
X82678045Y-76327641D01*
X82767641Y-76238045D01*
X82825165Y-76125148D01*
X82838727Y-76039518D01*
X83527097Y-76727888D01*
X83527099Y-76727888D01*
X83577088Y-76656497D01*
X83673811Y-76449073D01*
X83673813Y-76449068D01*
X83733048Y-76228002D01*
X83752995Y-76000000D01*
X83733048Y-75771997D01*
X83673813Y-75550931D01*
X83673811Y-75550926D01*
X83577086Y-75343498D01*
X83527100Y-75272110D01*
X83527098Y-75272110D01*
X82838727Y-75960481D01*
X82825165Y-75874852D01*
X82767641Y-75761955D01*
X82678045Y-75672359D01*
X82565148Y-75614835D01*
X82479517Y-75601272D01*
X83167888Y-74912899D01*
X83167888Y-74912898D01*
X83096501Y-74862913D01*
X82889073Y-74766188D01*
X82889068Y-74766186D01*
X82668000Y-74706951D01*
X82668004Y-74706951D01*
X82440000Y-74687004D01*
X82211997Y-74706951D01*
X81990931Y-74766186D01*
X81990926Y-74766188D01*
X81783500Y-74862913D01*
X81712109Y-74912900D01*
X82400481Y-75601272D01*
X82314852Y-75614835D01*
X82201955Y-75672359D01*
X82112359Y-75761955D01*
X82054835Y-75874852D01*
X82041272Y-75960481D01*
X81352900Y-75272109D01*
X81302913Y-75343500D01*
X81206188Y-75550926D01*
X81206183Y-75550938D01*
X81152995Y-75749438D01*
X81116044Y-75810060D01*
X81052183Y-75841082D01*
X80981689Y-75832653D01*
X80926942Y-75787449D01*
X80910716Y-75753406D01*
X80868814Y-75615273D01*
X80775910Y-75441462D01*
X80650883Y-75289117D01*
X80498538Y-75164090D01*
X80498537Y-75164090D01*
X80324728Y-75071186D01*
X80136125Y-75013974D01*
X79940003Y-74994659D01*
X79939997Y-74994659D01*
X79743875Y-75013974D01*
X79743873Y-75013974D01*
X79555271Y-75071186D01*
X79381461Y-75164090D01*
X79229117Y-75289117D01*
X79104090Y-75441461D01*
X79011186Y-75615271D01*
X78953974Y-75803873D01*
X78953974Y-75803875D01*
X78934659Y-75999996D01*
X78934659Y-76000003D01*
X78455645Y-76000003D01*
X78455645Y-76000000D01*
X78450298Y-75955967D01*
X78435140Y-75831128D01*
X78374820Y-75672074D01*
X78374818Y-75672070D01*
X78278183Y-75532071D01*
X78278181Y-75532069D01*
X78150857Y-75419270D01*
X78150851Y-75419265D01*
X78000225Y-75340210D01*
X78000221Y-75340208D01*
X77835059Y-75299500D01*
X77835056Y-75299500D01*
X77664944Y-75299500D01*
X77664940Y-75299500D01*
X77499778Y-75340208D01*
X77499774Y-75340210D01*
X77349148Y-75419265D01*
X77349142Y-75419270D01*
X77221818Y-75532069D01*
X77221816Y-75532071D01*
X77125181Y-75672070D01*
X77125179Y-75672074D01*
X77117812Y-75691502D01*
X77074954Y-75748103D01*
X77008299Y-75772548D01*
X76939009Y-75757076D01*
X76889083Y-75706600D01*
X76882188Y-75691502D01*
X76874820Y-75672074D01*
X76874818Y-75672070D01*
X76778183Y-75532071D01*
X76778181Y-75532069D01*
X76650857Y-75419270D01*
X76650851Y-75419265D01*
X76500225Y-75340210D01*
X76500221Y-75340208D01*
X76335059Y-75299500D01*
X76335056Y-75299500D01*
X76164944Y-75299500D01*
X76164940Y-75299500D01*
X75999778Y-75340208D01*
X75999774Y-75340210D01*
X75849148Y-75419265D01*
X75849142Y-75419270D01*
X75721818Y-75532069D01*
X75721816Y-75532071D01*
X75625181Y-75672070D01*
X75625179Y-75672074D01*
X75564859Y-75831128D01*
X75544355Y-75999997D01*
X75544355Y-76000002D01*
X75045341Y-76000002D01*
X75045341Y-75999996D01*
X75026025Y-75803875D01*
X75026025Y-75803873D01*
X75026024Y-75803870D01*
X75026024Y-75803868D01*
X74968814Y-75615273D01*
X74875910Y-75441462D01*
X74750883Y-75289117D01*
X74598538Y-75164090D01*
X74598537Y-75164090D01*
X74424728Y-75071186D01*
X74236125Y-75013974D01*
X74040003Y-74994659D01*
X74039997Y-74994659D01*
X73843875Y-75013974D01*
X73843873Y-75013974D01*
X73655271Y-75071186D01*
X73481461Y-75164090D01*
X73329117Y-75289117D01*
X73204090Y-75441461D01*
X73111185Y-75615273D01*
X73111183Y-75615278D01*
X73069284Y-75753402D01*
X73030369Y-75812783D01*
X72965528Y-75841699D01*
X72895347Y-75830968D01*
X72842108Y-75783998D01*
X72827003Y-75749437D01*
X72773813Y-75550931D01*
X72773811Y-75550926D01*
X72677086Y-75343498D01*
X72627100Y-75272110D01*
X72627098Y-75272110D01*
X71938727Y-75960481D01*
X71925165Y-75874852D01*
X71867641Y-75761955D01*
X71778045Y-75672359D01*
X71665148Y-75614835D01*
X71579516Y-75601272D01*
X72267888Y-74912899D01*
X72267888Y-74912898D01*
X72196501Y-74862913D01*
X71989073Y-74766188D01*
X71989068Y-74766186D01*
X71768000Y-74706951D01*
X71768004Y-74706951D01*
X71540000Y-74687004D01*
X71311997Y-74706951D01*
X71090931Y-74766186D01*
X71090926Y-74766188D01*
X70883502Y-74862911D01*
X70833770Y-74897734D01*
X70766495Y-74920421D01*
X70697635Y-74903135D01*
X70649052Y-74851365D01*
X70635500Y-74794520D01*
X70635500Y-73327448D01*
X82151800Y-73327448D01*
X82163433Y-73385931D01*
X82207748Y-73452252D01*
X82274069Y-73496567D01*
X82332552Y-73508200D01*
X82332553Y-73508200D01*
X83667447Y-73508200D01*
X83667448Y-73508200D01*
X83725931Y-73496567D01*
X83792252Y-73452252D01*
X83836567Y-73385931D01*
X83848200Y-73327448D01*
X83848200Y-71992552D01*
X83836567Y-71934069D01*
X83792252Y-71867748D01*
X83725931Y-71823433D01*
X83725928Y-71823432D01*
X83667450Y-71811800D01*
X83667448Y-71811800D01*
X82332552Y-71811800D01*
X82332549Y-71811800D01*
X82274071Y-71823432D01*
X82274068Y-71823433D01*
X82207748Y-71867748D01*
X82163433Y-71934068D01*
X82163432Y-71934071D01*
X82151800Y-71992549D01*
X82151800Y-71992551D01*
X82151800Y-71992552D01*
X82151800Y-73327448D01*
X70635500Y-73327448D01*
X70635500Y-70398393D01*
X70635576Y-70395301D01*
X70644191Y-70219996D01*
X70652804Y-70044691D01*
X70653411Y-70038535D01*
X70656498Y-70017727D01*
X70704698Y-69692807D01*
X70705900Y-69686766D01*
X70712604Y-69660003D01*
X81994659Y-69660003D01*
X82013974Y-69856124D01*
X82013974Y-69856126D01*
X82071186Y-70044728D01*
X82157282Y-70205801D01*
X82164090Y-70218538D01*
X82289117Y-70370883D01*
X82441462Y-70495910D01*
X82615273Y-70588814D01*
X82803868Y-70646024D01*
X82803872Y-70646024D01*
X82803874Y-70646025D01*
X82999997Y-70665341D01*
X83000000Y-70665341D01*
X83000003Y-70665341D01*
X83196124Y-70646025D01*
X83196126Y-70646025D01*
X83196127Y-70646024D01*
X83196132Y-70646024D01*
X83384727Y-70588814D01*
X83558538Y-70495910D01*
X83710883Y-70370883D01*
X83835910Y-70218538D01*
X83928814Y-70044727D01*
X83928815Y-70044723D01*
X83931184Y-70039006D01*
X83933714Y-70040054D01*
X83966125Y-69990567D01*
X84030958Y-69961632D01*
X84047812Y-69960500D01*
X88013339Y-69960500D01*
X88081460Y-69980502D01*
X88102434Y-69997405D01*
X89402095Y-71297066D01*
X89436121Y-71359378D01*
X89439000Y-71386161D01*
X89439000Y-73695514D01*
X89418998Y-73763635D01*
X89408225Y-73778026D01*
X89314123Y-73886626D01*
X89254335Y-74017543D01*
X89233853Y-74160000D01*
X89254335Y-74302456D01*
X89314123Y-74433373D01*
X89408373Y-74542144D01*
X89468909Y-74581047D01*
X89529447Y-74619953D01*
X89667539Y-74660500D01*
X89811461Y-74660500D01*
X89949553Y-74619953D01*
X90070628Y-74542143D01*
X90164877Y-74433373D01*
X90224665Y-74302457D01*
X90245147Y-74160000D01*
X90224665Y-74017543D01*
X90164877Y-73886627D01*
X90103419Y-73815700D01*
X90070775Y-73778026D01*
X90041282Y-73713445D01*
X90040000Y-73695514D01*
X90040000Y-73069702D01*
X90060002Y-73001581D01*
X90113658Y-72955088D01*
X90183932Y-72944984D01*
X90248512Y-72974478D01*
X90286896Y-73034204D01*
X90287190Y-73035221D01*
X90299722Y-73079268D01*
X90299728Y-73079284D01*
X90395191Y-73270997D01*
X90395196Y-73271006D01*
X90402331Y-73280455D01*
X90988778Y-72694009D01*
X91002901Y-72783177D01*
X91059519Y-72894296D01*
X91147704Y-72982481D01*
X91258823Y-73039099D01*
X91347987Y-73053221D01*
X90764345Y-73636863D01*
X90864649Y-73698969D01*
X90864658Y-73698974D01*
X91064368Y-73776342D01*
X91064367Y-73776342D01*
X91274911Y-73815700D01*
X91489089Y-73815700D01*
X91699632Y-73776342D01*
X91899341Y-73698974D01*
X91899350Y-73698969D01*
X91999652Y-73636864D01*
X91999653Y-73636863D01*
X91416011Y-73053221D01*
X91505177Y-73039099D01*
X91616296Y-72982481D01*
X91704481Y-72894296D01*
X91761099Y-72783177D01*
X91775221Y-72694010D01*
X92361666Y-73280456D01*
X92361667Y-73280455D01*
X92368805Y-73271004D01*
X92368808Y-73270998D01*
X92464271Y-73079284D01*
X92464277Y-73079268D01*
X92522888Y-72873272D01*
X92542650Y-72660000D01*
X92522888Y-72446727D01*
X92464277Y-72240731D01*
X92464273Y-72240719D01*
X92368805Y-72048997D01*
X92368801Y-72048991D01*
X92361666Y-72039542D01*
X91775221Y-72625987D01*
X91761099Y-72536823D01*
X91704481Y-72425704D01*
X91616296Y-72337519D01*
X91505177Y-72280901D01*
X91416010Y-72266778D01*
X91999652Y-71683135D01*
X91899352Y-71621031D01*
X91899342Y-71621026D01*
X91699631Y-71543657D01*
X91699632Y-71543657D01*
X91489089Y-71504300D01*
X91274911Y-71504300D01*
X91064367Y-71543657D01*
X90864659Y-71621025D01*
X90864652Y-71621028D01*
X90764345Y-71683135D01*
X91347988Y-72266778D01*
X91258823Y-72280901D01*
X91147704Y-72337519D01*
X91059519Y-72425704D01*
X91002901Y-72536823D01*
X90988778Y-72625988D01*
X90402332Y-72039542D01*
X90402331Y-72039543D01*
X90395196Y-72048994D01*
X90299726Y-72240719D01*
X90299723Y-72240728D01*
X90287190Y-72284779D01*
X90249309Y-72344825D01*
X90184978Y-72374860D01*
X90114622Y-72365346D01*
X90060578Y-72319306D01*
X90040004Y-72251355D01*
X90040000Y-72250297D01*
X90040000Y-71272406D01*
X90040605Y-71263690D01*
X90042271Y-71251741D01*
X90042273Y-71251736D01*
X90040067Y-71204010D01*
X90040000Y-71201101D01*
X90040000Y-71181661D01*
X90040000Y-71181656D01*
X90039520Y-71179092D01*
X90038513Y-71170426D01*
X90037085Y-71139509D01*
X90037084Y-71139506D01*
X90034381Y-71133384D01*
X90025790Y-71105640D01*
X90024561Y-71099069D01*
X90024561Y-71099067D01*
X90008279Y-71072770D01*
X90004206Y-71065044D01*
X89991707Y-71036737D01*
X89991702Y-71036730D01*
X89986975Y-71032003D01*
X89968944Y-71009240D01*
X89965421Y-71003551D01*
X89965418Y-71003547D01*
X89957096Y-70997262D01*
X89940722Y-70984898D01*
X89934145Y-70979174D01*
X88614974Y-69660003D01*
X89614659Y-69660003D01*
X89633974Y-69856124D01*
X89633974Y-69856126D01*
X89691186Y-70044728D01*
X89777282Y-70205801D01*
X89784090Y-70218538D01*
X89909117Y-70370883D01*
X90061462Y-70495910D01*
X90235273Y-70588814D01*
X90423868Y-70646024D01*
X90423872Y-70646024D01*
X90423874Y-70646025D01*
X90619997Y-70665341D01*
X90620000Y-70665341D01*
X90620003Y-70665341D01*
X90816124Y-70646025D01*
X90816126Y-70646025D01*
X90816127Y-70646024D01*
X90816132Y-70646024D01*
X91004727Y-70588814D01*
X91032442Y-70574000D01*
X96123455Y-70574000D01*
X96171176Y-70762449D01*
X96171179Y-70762456D01*
X96261580Y-70968548D01*
X96384674Y-71156958D01*
X96537097Y-71322534D01*
X96714698Y-71460767D01*
X96714699Y-71460768D01*
X96912628Y-71567882D01*
X96912630Y-71567883D01*
X97125483Y-71640955D01*
X97125492Y-71640957D01*
X97206000Y-71654391D01*
X97206000Y-70753674D01*
X97317685Y-70804680D01*
X97424237Y-70820000D01*
X97495763Y-70820000D01*
X97602315Y-70804680D01*
X97714000Y-70753674D01*
X97714000Y-71654390D01*
X97794507Y-71640957D01*
X97794516Y-71640955D01*
X98007369Y-71567883D01*
X98007371Y-71567882D01*
X98205300Y-71460768D01*
X98205301Y-71460767D01*
X98382902Y-71322534D01*
X98535325Y-71156958D01*
X98658419Y-70968548D01*
X98748820Y-70762456D01*
X98748823Y-70762449D01*
X98796544Y-70574000D01*
X97891116Y-70574000D01*
X97919493Y-70529844D01*
X97960000Y-70391889D01*
X97960000Y-70248111D01*
X97919493Y-70110156D01*
X97891116Y-70066000D01*
X98796544Y-70066000D01*
X98796544Y-70065999D01*
X98748823Y-69877550D01*
X98748820Y-69877543D01*
X98658419Y-69671451D01*
X98535325Y-69483041D01*
X98382902Y-69317465D01*
X98205301Y-69179232D01*
X98205300Y-69179231D01*
X98007371Y-69072117D01*
X98007368Y-69072116D01*
X97818769Y-69007370D01*
X97760834Y-68966333D01*
X97734282Y-68900488D01*
X97747544Y-68830741D01*
X97796408Y-68779236D01*
X97823105Y-68767623D01*
X97863954Y-68755232D01*
X98046450Y-68657685D01*
X98206410Y-68526410D01*
X98337685Y-68366450D01*
X98435232Y-68183954D01*
X98495300Y-67985934D01*
X98506115Y-67876135D01*
X98515583Y-67780003D01*
X98515583Y-67779996D01*
X98495301Y-67574072D01*
X98495300Y-67574070D01*
X98495300Y-67574066D01*
X98435232Y-67376046D01*
X98337685Y-67193550D01*
X98206410Y-67033590D01*
X98046450Y-66902315D01*
X98046448Y-66902314D01*
X98046447Y-66902313D01*
X97863954Y-66804768D01*
X97863953Y-66804768D01*
X97665934Y-66744700D01*
X97665933Y-66744699D01*
X97665927Y-66744698D01*
X97460003Y-66724417D01*
X97459997Y-66724417D01*
X97254072Y-66744698D01*
X97056045Y-66804768D01*
X96873552Y-66902313D01*
X96713590Y-67033590D01*
X96582313Y-67193552D01*
X96484768Y-67376045D01*
X96424698Y-67574072D01*
X96404417Y-67779996D01*
X96404417Y-67780003D01*
X96424698Y-67985927D01*
X96424699Y-67985933D01*
X96424700Y-67985934D01*
X96484768Y-68183954D01*
X96582315Y-68366450D01*
X96713590Y-68526410D01*
X96873550Y-68657685D01*
X97056046Y-68755232D01*
X97096893Y-68767622D01*
X97156274Y-68806536D01*
X97185190Y-68871377D01*
X97174461Y-68941558D01*
X97127492Y-68994798D01*
X97101231Y-69007370D01*
X96912628Y-69072118D01*
X96714699Y-69179231D01*
X96714698Y-69179232D01*
X96537097Y-69317465D01*
X96384674Y-69483041D01*
X96261580Y-69671451D01*
X96171179Y-69877543D01*
X96171176Y-69877550D01*
X96123455Y-70065999D01*
X96123456Y-70066000D01*
X97028884Y-70066000D01*
X97000507Y-70110156D01*
X96960000Y-70248111D01*
X96960000Y-70391889D01*
X97000507Y-70529844D01*
X97028884Y-70574000D01*
X96123455Y-70574000D01*
X91032442Y-70574000D01*
X91178538Y-70495910D01*
X91330883Y-70370883D01*
X91455910Y-70218538D01*
X91548814Y-70044727D01*
X91606024Y-69856132D01*
X91608074Y-69835320D01*
X91625341Y-69660003D01*
X91625341Y-69659996D01*
X91606025Y-69463875D01*
X91606025Y-69463873D01*
X91606024Y-69463870D01*
X91606024Y-69463868D01*
X91548814Y-69275273D01*
X91455910Y-69101462D01*
X91330883Y-68949117D01*
X91178538Y-68824090D01*
X91145697Y-68806536D01*
X91004728Y-68731186D01*
X90816125Y-68673974D01*
X90620003Y-68654659D01*
X90619997Y-68654659D01*
X90423875Y-68673974D01*
X90423873Y-68673974D01*
X90235271Y-68731186D01*
X90061461Y-68824090D01*
X89909117Y-68949117D01*
X89784090Y-69101461D01*
X89691186Y-69275271D01*
X89633974Y-69463873D01*
X89633974Y-69463875D01*
X89614659Y-69659996D01*
X89614659Y-69660003D01*
X88614974Y-69660003D01*
X88446961Y-69491990D01*
X88441233Y-69485407D01*
X88433957Y-69475771D01*
X88398640Y-69443575D01*
X88396556Y-69441585D01*
X88382797Y-69427826D01*
X88382796Y-69427825D01*
X88382795Y-69427824D01*
X88380642Y-69426349D01*
X88373799Y-69420929D01*
X88350934Y-69400084D01*
X88350931Y-69400083D01*
X88344685Y-69397663D01*
X88318998Y-69384123D01*
X88313480Y-69380343D01*
X88313479Y-69380342D01*
X88283367Y-69373259D01*
X88275027Y-69370677D01*
X88246174Y-69359500D01*
X88246173Y-69359500D01*
X88239480Y-69359500D01*
X88210633Y-69356153D01*
X88204119Y-69354621D01*
X88204118Y-69354621D01*
X88173478Y-69358895D01*
X88164764Y-69359500D01*
X84047812Y-69359500D01*
X83979691Y-69339498D01*
X83933198Y-69285842D01*
X83931341Y-69280928D01*
X83931184Y-69280994D01*
X83928814Y-69275273D01*
X83835909Y-69101461D01*
X83818187Y-69079867D01*
X83710883Y-68949117D01*
X83558538Y-68824090D01*
X83525697Y-68806536D01*
X83384728Y-68731186D01*
X83196125Y-68673974D01*
X83000003Y-68654659D01*
X82999997Y-68654659D01*
X82803875Y-68673974D01*
X82803873Y-68673974D01*
X82615271Y-68731186D01*
X82441461Y-68824090D01*
X82289117Y-68949117D01*
X82164090Y-69101461D01*
X82071186Y-69275271D01*
X82013974Y-69463873D01*
X82013974Y-69463875D01*
X81994659Y-69659996D01*
X81994659Y-69660003D01*
X70712604Y-69660003D01*
X70790831Y-69347720D01*
X70792621Y-69341821D01*
X70910372Y-69012736D01*
X70912725Y-69007053D01*
X71062176Y-68691072D01*
X71065079Y-68685643D01*
X71244775Y-68385845D01*
X71248185Y-68380742D01*
X71456414Y-68099984D01*
X71460309Y-68095237D01*
X71696557Y-67834582D01*
X71698616Y-67832420D01*
X71735265Y-67795772D01*
X71735264Y-67795772D01*
X72871033Y-66660003D01*
X81994659Y-66660003D01*
X82013974Y-66856124D01*
X82013974Y-66856126D01*
X82071186Y-67044728D01*
X82150734Y-67193550D01*
X82164090Y-67218538D01*
X82289117Y-67370883D01*
X82441462Y-67495910D01*
X82615273Y-67588814D01*
X82803868Y-67646024D01*
X82803872Y-67646024D01*
X82803874Y-67646025D01*
X82999997Y-67665341D01*
X83000000Y-67665341D01*
X83000003Y-67665341D01*
X83196124Y-67646025D01*
X83196126Y-67646025D01*
X83196127Y-67646024D01*
X83196132Y-67646024D01*
X83384727Y-67588814D01*
X83558538Y-67495910D01*
X83710883Y-67370883D01*
X83835910Y-67218538D01*
X83928814Y-67044727D01*
X83986024Y-66856132D01*
X84002378Y-66690085D01*
X84005341Y-66660003D01*
X89614659Y-66660003D01*
X89633974Y-66856124D01*
X89633974Y-66856126D01*
X89691186Y-67044728D01*
X89770734Y-67193550D01*
X89784090Y-67218538D01*
X89909117Y-67370883D01*
X90061462Y-67495910D01*
X90235273Y-67588814D01*
X90423868Y-67646024D01*
X90423872Y-67646024D01*
X90423874Y-67646025D01*
X90619997Y-67665341D01*
X90620000Y-67665341D01*
X90620003Y-67665341D01*
X90816124Y-67646025D01*
X90816126Y-67646025D01*
X90816127Y-67646024D01*
X90816132Y-67646024D01*
X91004727Y-67588814D01*
X91178538Y-67495910D01*
X91330883Y-67370883D01*
X91455910Y-67218538D01*
X91548814Y-67044727D01*
X91606024Y-66856132D01*
X91622378Y-66690085D01*
X91625341Y-66660003D01*
X91625341Y-66659996D01*
X91606025Y-66463875D01*
X91606025Y-66463873D01*
X91606024Y-66463870D01*
X91606024Y-66463868D01*
X91548814Y-66275273D01*
X91455910Y-66101462D01*
X91330883Y-65949117D01*
X91178538Y-65824090D01*
X91151339Y-65809552D01*
X91004728Y-65731186D01*
X90816125Y-65673974D01*
X90620003Y-65654659D01*
X90619997Y-65654659D01*
X90423875Y-65673974D01*
X90423873Y-65673974D01*
X90235271Y-65731186D01*
X90061461Y-65824090D01*
X89909117Y-65949117D01*
X89784090Y-66101461D01*
X89691186Y-66275271D01*
X89633974Y-66463873D01*
X89633974Y-66463875D01*
X89614659Y-66659996D01*
X89614659Y-66660003D01*
X84005341Y-66660003D01*
X84005341Y-66659996D01*
X83986025Y-66463875D01*
X83986025Y-66463873D01*
X83986024Y-66463870D01*
X83986024Y-66463868D01*
X83928814Y-66275273D01*
X83835910Y-66101462D01*
X83710883Y-65949117D01*
X83558538Y-65824090D01*
X83531339Y-65809552D01*
X83384728Y-65731186D01*
X83196125Y-65673974D01*
X83000003Y-65654659D01*
X82999997Y-65654659D01*
X82803875Y-65673974D01*
X82803873Y-65673974D01*
X82615271Y-65731186D01*
X82441461Y-65824090D01*
X82289117Y-65949117D01*
X82164090Y-66101461D01*
X82071186Y-66275271D01*
X82013974Y-66463873D01*
X82013974Y-66463875D01*
X81994659Y-66659996D01*
X81994659Y-66660003D01*
X72871033Y-66660003D01*
X74291033Y-65240003D01*
X96404417Y-65240003D01*
X96424698Y-65445927D01*
X96424699Y-65445933D01*
X96424700Y-65445934D01*
X96453234Y-65540000D01*
X96484768Y-65643954D01*
X96581053Y-65824090D01*
X96582315Y-65826450D01*
X96713590Y-65986410D01*
X96873550Y-66117685D01*
X97056046Y-66215232D01*
X97254066Y-66275300D01*
X97254070Y-66275300D01*
X97254072Y-66275301D01*
X97459997Y-66295583D01*
X97460000Y-66295583D01*
X97460003Y-66295583D01*
X97665927Y-66275301D01*
X97665928Y-66275300D01*
X97665934Y-66275300D01*
X97863954Y-66215232D01*
X98046450Y-66117685D01*
X98206410Y-65986410D01*
X98337685Y-65826450D01*
X98435232Y-65643954D01*
X98495300Y-65445934D01*
X98497853Y-65420019D01*
X98515583Y-65240003D01*
X98515583Y-65239996D01*
X98495301Y-65034072D01*
X98495300Y-65034070D01*
X98495300Y-65034066D01*
X98435232Y-64836046D01*
X98337685Y-64653550D01*
X98206410Y-64493590D01*
X98046450Y-64362315D01*
X98046448Y-64362314D01*
X98046447Y-64362313D01*
X97863954Y-64264768D01*
X97711552Y-64218538D01*
X97665934Y-64204700D01*
X97665933Y-64204699D01*
X97665927Y-64204698D01*
X97460003Y-64184417D01*
X97459997Y-64184417D01*
X97254072Y-64204698D01*
X97056045Y-64264768D01*
X96873552Y-64362313D01*
X96713590Y-64493590D01*
X96582313Y-64653552D01*
X96484768Y-64836045D01*
X96424698Y-65034072D01*
X96404417Y-65239996D01*
X96404417Y-65240003D01*
X74291033Y-65240003D01*
X75871033Y-63660003D01*
X81994659Y-63660003D01*
X82013974Y-63856124D01*
X82013974Y-63856126D01*
X82071186Y-64044728D01*
X82145852Y-64184417D01*
X82164090Y-64218538D01*
X82289117Y-64370883D01*
X82441462Y-64495910D01*
X82592826Y-64576816D01*
X82601516Y-64581461D01*
X82615273Y-64588814D01*
X82803868Y-64646024D01*
X82803872Y-64646024D01*
X82803874Y-64646025D01*
X82999997Y-64665341D01*
X83000000Y-64665341D01*
X83000003Y-64665341D01*
X83196124Y-64646025D01*
X83196126Y-64646025D01*
X83196127Y-64646024D01*
X83196132Y-64646024D01*
X83384727Y-64588814D01*
X83558538Y-64495910D01*
X83710883Y-64370883D01*
X83835910Y-64218538D01*
X83928814Y-64044727D01*
X83986024Y-63856132D01*
X83986928Y-63846951D01*
X84005341Y-63660003D01*
X89614659Y-63660003D01*
X89633974Y-63856124D01*
X89633974Y-63856126D01*
X89691186Y-64044728D01*
X89765852Y-64184417D01*
X89784090Y-64218538D01*
X89909117Y-64370883D01*
X90061462Y-64495910D01*
X90212826Y-64576816D01*
X90221516Y-64581461D01*
X90235273Y-64588814D01*
X90423868Y-64646024D01*
X90423872Y-64646024D01*
X90423874Y-64646025D01*
X90619997Y-64665341D01*
X90620000Y-64665341D01*
X90620003Y-64665341D01*
X90816124Y-64646025D01*
X90816126Y-64646025D01*
X90816127Y-64646024D01*
X90816132Y-64646024D01*
X91004727Y-64588814D01*
X91178538Y-64495910D01*
X91330883Y-64370883D01*
X91455910Y-64218538D01*
X91548814Y-64044727D01*
X91606024Y-63856132D01*
X91606928Y-63846951D01*
X91625341Y-63660003D01*
X91625341Y-63659996D01*
X91606025Y-63463875D01*
X91606025Y-63463873D01*
X91606024Y-63463870D01*
X91606024Y-63463868D01*
X91548814Y-63275273D01*
X91455910Y-63101462D01*
X91330883Y-62949117D01*
X91178538Y-62824090D01*
X91178537Y-62824090D01*
X91004728Y-62731186D01*
X90901931Y-62700003D01*
X96404417Y-62700003D01*
X96424698Y-62905927D01*
X96484768Y-63103954D01*
X96576340Y-63275273D01*
X96582315Y-63286450D01*
X96713590Y-63446410D01*
X96873550Y-63577685D01*
X97056046Y-63675232D01*
X97254066Y-63735300D01*
X97254070Y-63735300D01*
X97254072Y-63735301D01*
X97459997Y-63755583D01*
X97460000Y-63755583D01*
X97460003Y-63755583D01*
X97665927Y-63735301D01*
X97665928Y-63735300D01*
X97665934Y-63735300D01*
X97863954Y-63675232D01*
X98046450Y-63577685D01*
X98206410Y-63446410D01*
X98337685Y-63286450D01*
X98435232Y-63103954D01*
X98495300Y-62905934D01*
X98506116Y-62796126D01*
X98515583Y-62700003D01*
X98515583Y-62699996D01*
X98495301Y-62494072D01*
X98495300Y-62494070D01*
X98495300Y-62494066D01*
X98435232Y-62296046D01*
X98337685Y-62113550D01*
X98206410Y-61953590D01*
X98046450Y-61822315D01*
X98046448Y-61822314D01*
X98046447Y-61822313D01*
X97863954Y-61724768D01*
X97854074Y-61721771D01*
X97665934Y-61664700D01*
X97665933Y-61664699D01*
X97665927Y-61664698D01*
X97460003Y-61644417D01*
X97459997Y-61644417D01*
X97254072Y-61664698D01*
X97056045Y-61724768D01*
X96873552Y-61822313D01*
X96713590Y-61953590D01*
X96582313Y-62113552D01*
X96484768Y-62296045D01*
X96424698Y-62494072D01*
X96404417Y-62699996D01*
X96404417Y-62700003D01*
X90901931Y-62700003D01*
X90816125Y-62673974D01*
X90620003Y-62654659D01*
X90619997Y-62654659D01*
X90423875Y-62673974D01*
X90423873Y-62673974D01*
X90235271Y-62731186D01*
X90061461Y-62824090D01*
X89909117Y-62949117D01*
X89784090Y-63101461D01*
X89691186Y-63275271D01*
X89633974Y-63463873D01*
X89633974Y-63463875D01*
X89614659Y-63659996D01*
X89614659Y-63660003D01*
X84005341Y-63660003D01*
X84005341Y-63659996D01*
X83986025Y-63463875D01*
X83986025Y-63463873D01*
X83986024Y-63463870D01*
X83986024Y-63463868D01*
X83928814Y-63275273D01*
X83835910Y-63101462D01*
X83710883Y-62949117D01*
X83558538Y-62824090D01*
X83558537Y-62824090D01*
X83384728Y-62731186D01*
X83196125Y-62673974D01*
X83000003Y-62654659D01*
X82999997Y-62654659D01*
X82803875Y-62673974D01*
X82803873Y-62673974D01*
X82615271Y-62731186D01*
X82441461Y-62824090D01*
X82289117Y-62949117D01*
X82164090Y-63101461D01*
X82071186Y-63275271D01*
X82013974Y-63463873D01*
X82013974Y-63463875D01*
X81994659Y-63659996D01*
X81994659Y-63660003D01*
X75871033Y-63660003D01*
X77051860Y-62479176D01*
X77114170Y-62445152D01*
X77177527Y-62447698D01*
X77303868Y-62486024D01*
X77303872Y-62486024D01*
X77303875Y-62486025D01*
X77499997Y-62505341D01*
X77500000Y-62505341D01*
X77500003Y-62505341D01*
X77696124Y-62486025D01*
X77696126Y-62486025D01*
X77696127Y-62486024D01*
X77696132Y-62486024D01*
X77884727Y-62428814D01*
X78058538Y-62335910D01*
X78210883Y-62210883D01*
X78335910Y-62058538D01*
X78428814Y-61884727D01*
X78486024Y-61696132D01*
X78490959Y-61646024D01*
X78505341Y-61500003D01*
X78505341Y-61499996D01*
X78486025Y-61303875D01*
X78486025Y-61303873D01*
X78486024Y-61303870D01*
X78486024Y-61303868D01*
X78428814Y-61115273D01*
X78335910Y-60941462D01*
X78210883Y-60789117D01*
X78058538Y-60664090D01*
X77942103Y-60601854D01*
X77884728Y-60571186D01*
X77696125Y-60513974D01*
X77500003Y-60494659D01*
X77499997Y-60494659D01*
X77303875Y-60513974D01*
X77303873Y-60513974D01*
X77115271Y-60571186D01*
X76941461Y-60664090D01*
X76789117Y-60789117D01*
X76664090Y-60941461D01*
X76571186Y-61115271D01*
X76513974Y-61303873D01*
X76513974Y-61303875D01*
X76494659Y-61499996D01*
X76494659Y-61500003D01*
X76513974Y-61696124D01*
X76513976Y-61696135D01*
X76552300Y-61822469D01*
X76552934Y-61893463D01*
X76520821Y-61948140D01*
X71142505Y-67326455D01*
X71141949Y-67327058D01*
X71031009Y-67437996D01*
X71030989Y-67438018D01*
X70785394Y-67730702D01*
X70566246Y-68043675D01*
X70566243Y-68043680D01*
X70375207Y-68374556D01*
X70375198Y-68374573D01*
X70213734Y-68720826D01*
X70213731Y-68720833D01*
X70213731Y-68720834D01*
X70085871Y-69072117D01*
X70083050Y-69079867D01*
X70083042Y-69079890D01*
X69984162Y-69448901D01*
X69984158Y-69448917D01*
X69984158Y-69448921D01*
X69949969Y-69642804D01*
X69917805Y-69825202D01*
X69884503Y-70205801D01*
X69884502Y-70205816D01*
X69884500Y-70334193D01*
X69884500Y-77868174D01*
X69585500Y-77868174D01*
X69585500Y-62514612D01*
X69605502Y-62446491D01*
X69652102Y-62403491D01*
X69778538Y-62335910D01*
X69930883Y-62210883D01*
X70055910Y-62058538D01*
X70148814Y-61884727D01*
X70206024Y-61696132D01*
X70210959Y-61646024D01*
X70225341Y-61500003D01*
X70714659Y-61500003D01*
X70733974Y-61696124D01*
X70733974Y-61696126D01*
X70791186Y-61884728D01*
X70826342Y-61950500D01*
X70884090Y-62058538D01*
X71009117Y-62210883D01*
X71161462Y-62335910D01*
X71335273Y-62428814D01*
X71523868Y-62486024D01*
X71523872Y-62486024D01*
X71523874Y-62486025D01*
X71719997Y-62505341D01*
X71720000Y-62505341D01*
X71720003Y-62505341D01*
X71916124Y-62486025D01*
X71916126Y-62486025D01*
X71916127Y-62486024D01*
X71916132Y-62486024D01*
X72104727Y-62428814D01*
X72278538Y-62335910D01*
X72430883Y-62210883D01*
X72555910Y-62058538D01*
X72578057Y-62017103D01*
X72627809Y-61966456D01*
X72689179Y-61950500D01*
X72807488Y-61950500D01*
X72808004Y-61950480D01*
X72909184Y-61950482D01*
X73182687Y-61919669D01*
X73182696Y-61919667D01*
X73451009Y-61858430D01*
X73451013Y-61858428D01*
X73451020Y-61858427D01*
X73710809Y-61767526D01*
X73958787Y-61648110D01*
X74191835Y-61501680D01*
X74407023Y-61330077D01*
X74447813Y-61289287D01*
X74447831Y-61289272D01*
X74456322Y-61280780D01*
X74456324Y-61280780D01*
X74683648Y-61053454D01*
X74683653Y-61053451D01*
X74695851Y-61041254D01*
X74695906Y-61041223D01*
X74732780Y-61004348D01*
X74732781Y-61004349D01*
X74830091Y-60907038D01*
X75001695Y-60691848D01*
X75148127Y-60458798D01*
X75267545Y-60210818D01*
X75358446Y-59951026D01*
X75366618Y-59915224D01*
X75419687Y-59682699D01*
X75419687Y-59682698D01*
X75419689Y-59682690D01*
X75450502Y-59409185D01*
X75450500Y-59271567D01*
X75450500Y-57782097D01*
X75470502Y-57713976D01*
X75476531Y-57705401D01*
X75524536Y-57642841D01*
X75585044Y-57496762D01*
X75605682Y-57340000D01*
X75604710Y-57332620D01*
X75597635Y-57278875D01*
X78880334Y-57278875D01*
X78998150Y-57341848D01*
X78998163Y-57341853D01*
X79185344Y-57398633D01*
X79379997Y-57417805D01*
X79380003Y-57417805D01*
X79574655Y-57398633D01*
X79761843Y-57341851D01*
X79879664Y-57278875D01*
X79879665Y-57278874D01*
X79380001Y-56779210D01*
X79380000Y-56779210D01*
X78880334Y-57278875D01*
X75597635Y-57278875D01*
X75590609Y-57225509D01*
X75585044Y-57183238D01*
X75524536Y-57037159D01*
X75428282Y-56911718D01*
X75302841Y-56815464D01*
X75284822Y-56808000D01*
X75156760Y-56754955D01*
X75000000Y-56734318D01*
X74843239Y-56754955D01*
X74697160Y-56815463D01*
X74697157Y-56815465D01*
X74571718Y-56911718D01*
X74475465Y-57037157D01*
X74475463Y-57037160D01*
X74414955Y-57183239D01*
X74394318Y-57339999D01*
X74394318Y-57340000D01*
X74414955Y-57496760D01*
X74454129Y-57591333D01*
X74475464Y-57642841D01*
X74523462Y-57705393D01*
X74549063Y-57771613D01*
X74549500Y-57782097D01*
X74549500Y-59269522D01*
X74549365Y-59273636D01*
X74536515Y-59469714D01*
X74535440Y-59477885D01*
X74497514Y-59668564D01*
X74495379Y-59676532D01*
X74432886Y-59860637D01*
X74429729Y-59868258D01*
X74343742Y-60042628D01*
X74339617Y-60049773D01*
X74231604Y-60211429D01*
X74226582Y-60217973D01*
X74097227Y-60365478D01*
X74094410Y-60368486D01*
X74083865Y-60379032D01*
X73868715Y-60594182D01*
X73865705Y-60597001D01*
X73717956Y-60726570D01*
X73711411Y-60731592D01*
X73549762Y-60839601D01*
X73542618Y-60843725D01*
X73368251Y-60929711D01*
X73360629Y-60932868D01*
X73176527Y-60995359D01*
X73168559Y-60997495D01*
X73134165Y-61004336D01*
X72977878Y-61035421D01*
X72969711Y-61036496D01*
X72848498Y-61044439D01*
X72773328Y-61049365D01*
X72769207Y-61049500D01*
X72689179Y-61049500D01*
X72621058Y-61029498D01*
X72578057Y-60982896D01*
X72555909Y-60941461D01*
X72527662Y-60907042D01*
X72430883Y-60789117D01*
X72278538Y-60664090D01*
X72162103Y-60601854D01*
X72104728Y-60571186D01*
X71916125Y-60513974D01*
X71720003Y-60494659D01*
X71719997Y-60494659D01*
X71523875Y-60513974D01*
X71523873Y-60513974D01*
X71335271Y-60571186D01*
X71161461Y-60664090D01*
X71009117Y-60789117D01*
X70884090Y-60941461D01*
X70791186Y-61115271D01*
X70733974Y-61303873D01*
X70733974Y-61303875D01*
X70714659Y-61499996D01*
X70714659Y-61500003D01*
X70225341Y-61500003D01*
X70225341Y-61499996D01*
X70206025Y-61303875D01*
X70206025Y-61303873D01*
X70206024Y-61303870D01*
X70206024Y-61303868D01*
X70148814Y-61115273D01*
X70055910Y-60941462D01*
X69930883Y-60789117D01*
X69778538Y-60664090D01*
X69662103Y-60601854D01*
X69604728Y-60571186D01*
X69416125Y-60513974D01*
X69220003Y-60494659D01*
X69219997Y-60494659D01*
X69023875Y-60513974D01*
X69023873Y-60513974D01*
X68835271Y-60571186D01*
X68661461Y-60664090D01*
X68509117Y-60789117D01*
X68384090Y-60941461D01*
X68291186Y-61115271D01*
X68233974Y-61303873D01*
X68233974Y-61303875D01*
X68214659Y-61499996D01*
X68214659Y-61500003D01*
X68233974Y-61696124D01*
X68233974Y-61696126D01*
X68291186Y-61884728D01*
X68326342Y-61950500D01*
X68384090Y-62058538D01*
X68509117Y-62210883D01*
X68612887Y-62296045D01*
X68661459Y-62335908D01*
X68661460Y-62335908D01*
X68661462Y-62335910D01*
X68767897Y-62392800D01*
X68818544Y-62442550D01*
X68834500Y-62503921D01*
X68834500Y-82013036D01*
X68814498Y-82081157D01*
X68760842Y-82127650D01*
X68690568Y-82137754D01*
X68625988Y-82108260D01*
X68613276Y-82095548D01*
X68515630Y-81982858D01*
X68515626Y-81982855D01*
X68394553Y-81905047D01*
X68256461Y-81864500D01*
X68112539Y-81864500D01*
X67974446Y-81905047D01*
X67853373Y-81982855D01*
X67820311Y-82021012D01*
X67760585Y-82059396D01*
X67725086Y-82064500D01*
X66575816Y-82064500D01*
X66507695Y-82044498D01*
X66464694Y-81997896D01*
X66456656Y-81982858D01*
X66455910Y-81981462D01*
X66330883Y-81829117D01*
X66178538Y-81704090D01*
X66164493Y-81696583D01*
X66004728Y-81611186D01*
X65870674Y-81570521D01*
X65816132Y-81553976D01*
X65816131Y-81553975D01*
X65816125Y-81553974D01*
X65620003Y-81534659D01*
X65619997Y-81534659D01*
X65423875Y-81553974D01*
X65423873Y-81553974D01*
X65235271Y-81611186D01*
X65061461Y-81704090D01*
X64909117Y-81829117D01*
X64784090Y-81981461D01*
X64691186Y-82155271D01*
X64633974Y-82343873D01*
X64633974Y-82343875D01*
X64614659Y-82539996D01*
X64614659Y-82540003D01*
X63540329Y-82540003D01*
X61742405Y-80742079D01*
X61708379Y-80679767D01*
X61705500Y-80652984D01*
X61705500Y-77854267D01*
X63109632Y-77854267D01*
X63111967Y-77872994D01*
X63114016Y-77889436D01*
X63114500Y-77897225D01*
X63114500Y-77901114D01*
X63118129Y-77922867D01*
X63118504Y-77925442D01*
X63125133Y-77978621D01*
X63127383Y-77986180D01*
X63129934Y-77993610D01*
X63155433Y-78040727D01*
X63156624Y-78043041D01*
X63180173Y-78091210D01*
X63184755Y-78097627D01*
X63189576Y-78103822D01*
X63229026Y-78140138D01*
X63230880Y-78141917D01*
X64316905Y-79227943D01*
X64640821Y-79551859D01*
X64674847Y-79614171D01*
X64672300Y-79677530D01*
X64633976Y-79803864D01*
X64633974Y-79803875D01*
X64614659Y-79999996D01*
X64614659Y-80000003D01*
X64633974Y-80196124D01*
X64633974Y-80196126D01*
X64691186Y-80384728D01*
X64742913Y-80481501D01*
X64784090Y-80558538D01*
X64909117Y-80710883D01*
X65061462Y-80835910D01*
X65235273Y-80928814D01*
X65423868Y-80986024D01*
X65423872Y-80986024D01*
X65423874Y-80986025D01*
X65619997Y-81005341D01*
X65620000Y-81005341D01*
X65620003Y-81005341D01*
X65816124Y-80986025D01*
X65816126Y-80986025D01*
X65816127Y-80986024D01*
X65816132Y-80986024D01*
X66004727Y-80928814D01*
X66178538Y-80835910D01*
X66330883Y-80710883D01*
X66455910Y-80558538D01*
X66548814Y-80384727D01*
X66606024Y-80196132D01*
X66607884Y-80177249D01*
X66625341Y-80000003D01*
X66625341Y-79999996D01*
X66606025Y-79803875D01*
X66606025Y-79803873D01*
X66606024Y-79803870D01*
X66606024Y-79803868D01*
X66548814Y-79615273D01*
X66455910Y-79441462D01*
X66330883Y-79289117D01*
X66178538Y-79164090D01*
X66154823Y-79151414D01*
X66004728Y-79071186D01*
X65816125Y-79013974D01*
X65620003Y-78994659D01*
X65619997Y-78994659D01*
X65423875Y-79013974D01*
X65423873Y-79013974D01*
X65341813Y-79038867D01*
X65297528Y-79052301D01*
X65226535Y-79052934D01*
X65171858Y-79020821D01*
X64543517Y-78392480D01*
X63902405Y-77751367D01*
X63868379Y-77689055D01*
X63865500Y-77662272D01*
X63865500Y-77326297D01*
X64745300Y-77326297D01*
X64751805Y-77386793D01*
X64802855Y-77523664D01*
X64802855Y-77523665D01*
X64890395Y-77640604D01*
X65007334Y-77728144D01*
X65144206Y-77779194D01*
X65204702Y-77785699D01*
X65204715Y-77785700D01*
X65647000Y-77785700D01*
X65646999Y-76932777D01*
X65666704Y-76952481D01*
X65777823Y-77009099D01*
X65870012Y-77023700D01*
X65931988Y-77023700D01*
X66024177Y-77009099D01*
X66135296Y-76952481D01*
X66155000Y-76932777D01*
X66155000Y-77785700D01*
X66597285Y-77785700D01*
X66597297Y-77785699D01*
X66657793Y-77779194D01*
X66794664Y-77728144D01*
X66794665Y-77728144D01*
X66911604Y-77640604D01*
X66999144Y-77523665D01*
X66999144Y-77523664D01*
X67050194Y-77386793D01*
X67056699Y-77326297D01*
X67056700Y-77326285D01*
X67056700Y-76884000D01*
X66203777Y-76884000D01*
X66223481Y-76864296D01*
X66280099Y-76753177D01*
X66299608Y-76630000D01*
X66280099Y-76506823D01*
X66223481Y-76395704D01*
X66203777Y-76376000D01*
X67056700Y-76376000D01*
X67056700Y-75933714D01*
X67056699Y-75933702D01*
X67050194Y-75873206D01*
X66999144Y-75736335D01*
X66999144Y-75736334D01*
X66911604Y-75619395D01*
X66794665Y-75531855D01*
X66657793Y-75480805D01*
X66597297Y-75474300D01*
X66155000Y-75474300D01*
X66155000Y-76327223D01*
X66135296Y-76307519D01*
X66024177Y-76250901D01*
X65931988Y-76236300D01*
X65870012Y-76236300D01*
X65777823Y-76250901D01*
X65666704Y-76307519D01*
X65646999Y-76327223D01*
X65647000Y-75474300D01*
X65204702Y-75474300D01*
X65144206Y-75480805D01*
X65007335Y-75531855D01*
X65007334Y-75531855D01*
X64890395Y-75619395D01*
X64802855Y-75736334D01*
X64802855Y-75736335D01*
X64751805Y-75873206D01*
X64745300Y-75933702D01*
X64745300Y-76376000D01*
X65598223Y-76376000D01*
X65578519Y-76395704D01*
X65521901Y-76506823D01*
X65502392Y-76630000D01*
X65521901Y-76753177D01*
X65578519Y-76864296D01*
X65598223Y-76884000D01*
X64745300Y-76884000D01*
X64745300Y-77326297D01*
X63865500Y-77326297D01*
X63865500Y-73390003D01*
X64614659Y-73390003D01*
X64633974Y-73586124D01*
X64633974Y-73586126D01*
X64691186Y-73774728D01*
X64750997Y-73886626D01*
X64784090Y-73948538D01*
X64909117Y-74100883D01*
X65061462Y-74225910D01*
X65235273Y-74318814D01*
X65423868Y-74376024D01*
X65423872Y-74376024D01*
X65423874Y-74376025D01*
X65619997Y-74395341D01*
X65620000Y-74395341D01*
X65620003Y-74395341D01*
X65816124Y-74376025D01*
X65816126Y-74376025D01*
X65816127Y-74376024D01*
X65816132Y-74376024D01*
X66004727Y-74318814D01*
X66178538Y-74225910D01*
X66330883Y-74100883D01*
X66455910Y-73948538D01*
X66548814Y-73774727D01*
X66606024Y-73586132D01*
X66614845Y-73496567D01*
X66625341Y-73390003D01*
X66625341Y-73389996D01*
X66606025Y-73193875D01*
X66606025Y-73193873D01*
X66606024Y-73193870D01*
X66606024Y-73193868D01*
X66548814Y-73005273D01*
X66455910Y-72831462D01*
X66330883Y-72679117D01*
X66178538Y-72554090D01*
X66146234Y-72536823D01*
X66004728Y-72461186D01*
X65816125Y-72403974D01*
X65620003Y-72384659D01*
X65619997Y-72384659D01*
X65423875Y-72403974D01*
X65423873Y-72403974D01*
X65235271Y-72461186D01*
X65061461Y-72554090D01*
X64909117Y-72679117D01*
X64784090Y-72831461D01*
X64691186Y-73005271D01*
X64633974Y-73193873D01*
X64633974Y-73193875D01*
X64614659Y-73389996D01*
X64614659Y-73390003D01*
X63865500Y-73390003D01*
X63865500Y-70220003D01*
X64614659Y-70220003D01*
X64633974Y-70416124D01*
X64633974Y-70416126D01*
X64691186Y-70604728D01*
X64713260Y-70646025D01*
X64784090Y-70778538D01*
X64909117Y-70930883D01*
X65061462Y-71055910D01*
X65235273Y-71148814D01*
X65423868Y-71206024D01*
X65423872Y-71206024D01*
X65423874Y-71206025D01*
X65619997Y-71225341D01*
X65620000Y-71225341D01*
X65620003Y-71225341D01*
X65816124Y-71206025D01*
X65816126Y-71206025D01*
X65816127Y-71206024D01*
X65816132Y-71206024D01*
X66004727Y-71148814D01*
X66178538Y-71055910D01*
X66330883Y-70930883D01*
X66455910Y-70778538D01*
X66548814Y-70604727D01*
X66606024Y-70416132D01*
X66614094Y-70334193D01*
X66625341Y-70220003D01*
X66625341Y-70219996D01*
X66606025Y-70023875D01*
X66606025Y-70023873D01*
X66606024Y-70023870D01*
X66606024Y-70023868D01*
X66548814Y-69835273D01*
X66455910Y-69661462D01*
X66330883Y-69509117D01*
X66178538Y-69384090D01*
X66153444Y-69370677D01*
X66004728Y-69291186D01*
X65816125Y-69233974D01*
X65620003Y-69214659D01*
X65619997Y-69214659D01*
X65423875Y-69233974D01*
X65423873Y-69233974D01*
X65235271Y-69291186D01*
X65061461Y-69384090D01*
X64909117Y-69509117D01*
X64784090Y-69661461D01*
X64691186Y-69835271D01*
X64633974Y-70023873D01*
X64633974Y-70023875D01*
X64614659Y-70219996D01*
X64614659Y-70220003D01*
X63865500Y-70220003D01*
X63865500Y-70017727D01*
X63885502Y-69949606D01*
X63902405Y-69928632D01*
X64513572Y-69317465D01*
X65171860Y-68659176D01*
X65234170Y-68625153D01*
X65297527Y-68627698D01*
X65423868Y-68666024D01*
X65423872Y-68666024D01*
X65423875Y-68666025D01*
X65619997Y-68685341D01*
X65620000Y-68685341D01*
X65620003Y-68685341D01*
X65816124Y-68666025D01*
X65816126Y-68666025D01*
X65816127Y-68666024D01*
X65816132Y-68666024D01*
X66004727Y-68608814D01*
X66178538Y-68515910D01*
X66330883Y-68390883D01*
X66455910Y-68238538D01*
X66548814Y-68064727D01*
X66606024Y-67876132D01*
X66610113Y-67834619D01*
X66625341Y-67680003D01*
X66625341Y-67679996D01*
X66606025Y-67483875D01*
X66606025Y-67483873D01*
X66606024Y-67483870D01*
X66606024Y-67483868D01*
X66548814Y-67295273D01*
X66455910Y-67121462D01*
X66330883Y-66969117D01*
X66178538Y-66844090D01*
X66104972Y-66804768D01*
X66004728Y-66751186D01*
X65816125Y-66693974D01*
X65776637Y-66690085D01*
X65710805Y-66663502D01*
X65669796Y-66605547D01*
X65666630Y-66534621D01*
X65702312Y-66473242D01*
X65765513Y-66440898D01*
X65778009Y-66439171D01*
X65848002Y-66433048D01*
X66069068Y-66373813D01*
X66069073Y-66373811D01*
X66276498Y-66277087D01*
X66463974Y-66145815D01*
X66463980Y-66145810D01*
X66625810Y-65983980D01*
X66625815Y-65983974D01*
X66757087Y-65796498D01*
X66853811Y-65589073D01*
X66853813Y-65589068D01*
X66906082Y-65394000D01*
X65931686Y-65394000D01*
X65947641Y-65378045D01*
X66005165Y-65265148D01*
X66024986Y-65140000D01*
X66005165Y-65014852D01*
X65947641Y-64901955D01*
X65931686Y-64886000D01*
X66906082Y-64886000D01*
X66853813Y-64690931D01*
X66853811Y-64690926D01*
X66757087Y-64483501D01*
X66625815Y-64296025D01*
X66625810Y-64296019D01*
X66463980Y-64134189D01*
X66463974Y-64134184D01*
X66276498Y-64002912D01*
X66069073Y-63906188D01*
X66069068Y-63906186D01*
X65848002Y-63846951D01*
X65778007Y-63840828D01*
X65711889Y-63814964D01*
X65670250Y-63757461D01*
X65666309Y-63686574D01*
X65701318Y-63624809D01*
X65764163Y-63591777D01*
X65776640Y-63589914D01*
X65816123Y-63586025D01*
X65816126Y-63586025D01*
X65816127Y-63586024D01*
X65816132Y-63586024D01*
X66004727Y-63528814D01*
X66178538Y-63435910D01*
X66330883Y-63310883D01*
X66455910Y-63158538D01*
X66548814Y-62984727D01*
X66606024Y-62796132D01*
X66615492Y-62700000D01*
X66625341Y-62600003D01*
X66625341Y-62599996D01*
X66606025Y-62403875D01*
X66606025Y-62403873D01*
X66606024Y-62403870D01*
X66606024Y-62403868D01*
X66548814Y-62215273D01*
X66546467Y-62210883D01*
X66455909Y-62041461D01*
X66330883Y-61889117D01*
X66178538Y-61764090D01*
X66099365Y-61721771D01*
X66004728Y-61671186D01*
X65816125Y-61613974D01*
X65620003Y-61594659D01*
X65619997Y-61594659D01*
X65423875Y-61613974D01*
X65423873Y-61613974D01*
X65235271Y-61671186D01*
X65061461Y-61764090D01*
X64909117Y-61889117D01*
X64784090Y-62041461D01*
X64691186Y-62215271D01*
X64633974Y-62403873D01*
X64633974Y-62403875D01*
X64614659Y-62599996D01*
X64614659Y-62600003D01*
X64633974Y-62796124D01*
X64633974Y-62796126D01*
X64691186Y-62984728D01*
X64746378Y-63087984D01*
X64784090Y-63158538D01*
X64909117Y-63310883D01*
X65061462Y-63435910D01*
X65235273Y-63528814D01*
X65423868Y-63586024D01*
X65423873Y-63586024D01*
X65423875Y-63586025D01*
X65463359Y-63589914D01*
X65529192Y-63616496D01*
X65570202Y-63674450D01*
X65573370Y-63745376D01*
X65537689Y-63806755D01*
X65474488Y-63839100D01*
X65461992Y-63840828D01*
X65391997Y-63846951D01*
X65170931Y-63906186D01*
X65170926Y-63906188D01*
X64963501Y-64002912D01*
X64776025Y-64134184D01*
X64776019Y-64134189D01*
X64614189Y-64296019D01*
X64614184Y-64296025D01*
X64482912Y-64483501D01*
X64386188Y-64690926D01*
X64386186Y-64690931D01*
X64333917Y-64886000D01*
X65308314Y-64886000D01*
X65292359Y-64901955D01*
X65234835Y-65014852D01*
X65215014Y-65140000D01*
X65234835Y-65265148D01*
X65292359Y-65378045D01*
X65308314Y-65394000D01*
X64333918Y-65394000D01*
X64386186Y-65589068D01*
X64386188Y-65589073D01*
X64482912Y-65796498D01*
X64614184Y-65983974D01*
X64614189Y-65983980D01*
X64776019Y-66145810D01*
X64776025Y-66145815D01*
X64963501Y-66277087D01*
X65170926Y-66373811D01*
X65170931Y-66373813D01*
X65391999Y-66433048D01*
X65391996Y-66433048D01*
X65461990Y-66439171D01*
X65528109Y-66465034D01*
X65569749Y-66522537D01*
X65573690Y-66593424D01*
X65538682Y-66655189D01*
X65475838Y-66688222D01*
X65463362Y-66690085D01*
X65423874Y-66693974D01*
X65423873Y-66693974D01*
X65235271Y-66751186D01*
X65061461Y-66844090D01*
X64909117Y-66969117D01*
X64784090Y-67121461D01*
X64691186Y-67295271D01*
X64633974Y-67483873D01*
X64633974Y-67483875D01*
X64614659Y-67679996D01*
X64614659Y-67680003D01*
X64633974Y-67876124D01*
X64633976Y-67876135D01*
X64672300Y-68002469D01*
X64672934Y-68073463D01*
X64640821Y-68128140D01*
X63261255Y-69507705D01*
X63241080Y-69524090D01*
X63232166Y-69529914D01*
X63232165Y-69529915D01*
X63210403Y-69557872D01*
X63205244Y-69563716D01*
X63202480Y-69566481D01*
X63202478Y-69566482D01*
X63189661Y-69584434D01*
X63188106Y-69586519D01*
X63155191Y-69628810D01*
X63151448Y-69635726D01*
X63147988Y-69642804D01*
X63132704Y-69694141D01*
X63131911Y-69696619D01*
X63114499Y-69747339D01*
X63113209Y-69755073D01*
X63112231Y-69762915D01*
X63114446Y-69816444D01*
X63114500Y-69819048D01*
X63114500Y-77817989D01*
X63111818Y-77843846D01*
X63109632Y-77854267D01*
X61705500Y-77854267D01*
X61705500Y-65996959D01*
X61705740Y-65991465D01*
X61709264Y-65951193D01*
X61698792Y-65912114D01*
X61697610Y-65906782D01*
X61690588Y-65866955D01*
X61690585Y-65866949D01*
X61688485Y-65861181D01*
X61682144Y-65845870D01*
X61679554Y-65840316D01*
X61656363Y-65807196D01*
X61653409Y-65802558D01*
X61633193Y-65767544D01*
X61602212Y-65741547D01*
X61598169Y-65737843D01*
X59037405Y-63177079D01*
X59003379Y-63114767D01*
X59000500Y-63087984D01*
X59000500Y-62434646D01*
X59000500Y-61780252D01*
X58988867Y-61721769D01*
X58944552Y-61655448D01*
X58878231Y-61611133D01*
X58878228Y-61611132D01*
X58819750Y-61599500D01*
X58819748Y-61599500D01*
X57180252Y-61599500D01*
X57180249Y-61599500D01*
X57121771Y-61611132D01*
X57121768Y-61611133D01*
X57055448Y-61655448D01*
X57011133Y-61721768D01*
X57011132Y-61721771D01*
X56999500Y-61780249D01*
X56999500Y-63419750D01*
X50025500Y-63419750D01*
X50025500Y-57278875D01*
X70120333Y-57278875D01*
X70238150Y-57341848D01*
X70238163Y-57341853D01*
X70425344Y-57398633D01*
X70619997Y-57417805D01*
X70620003Y-57417805D01*
X70814655Y-57398633D01*
X71001843Y-57341851D01*
X71119664Y-57278875D01*
X70620000Y-56779209D01*
X70120334Y-57278875D01*
X70120333Y-57278875D01*
X50025500Y-57278875D01*
X50025500Y-54275816D01*
X50045502Y-54207695D01*
X50099158Y-54161202D01*
X50169432Y-54151098D01*
X50234012Y-54180592D01*
X50272396Y-54240318D01*
X50272907Y-54242107D01*
X50360559Y-54557801D01*
X50493326Y-54891021D01*
X50493330Y-54891030D01*
X50661350Y-55207952D01*
X50661352Y-55207956D01*
X50862654Y-55504854D01*
X50988167Y-55652621D01*
X52199994Y-54440794D01*
X52201570Y-54443365D01*
X52365130Y-54634870D01*
X52556635Y-54798430D01*
X52559204Y-54800004D01*
X51344502Y-56014706D01*
X51355299Y-56024932D01*
X51640861Y-56242013D01*
X51640867Y-56242017D01*
X51948227Y-56426949D01*
X51948234Y-56426953D01*
X52273766Y-56577561D01*
X52273785Y-56577569D01*
X52613706Y-56692101D01*
X52613723Y-56692106D01*
X52964022Y-56769213D01*
X52964050Y-56769218D01*
X53320637Y-56807999D01*
X53320653Y-56808000D01*
X53679347Y-56808000D01*
X53679362Y-56807999D01*
X54035949Y-56769218D01*
X54035977Y-56769213D01*
X54386276Y-56692106D01*
X54386293Y-56692101D01*
X54726214Y-56577569D01*
X54726233Y-56577561D01*
X55051765Y-56426953D01*
X55051772Y-56426949D01*
X55359132Y-56242017D01*
X55359150Y-56242005D01*
X55644699Y-56024934D01*
X55644702Y-56024932D01*
X55655496Y-56014707D01*
X55655496Y-56014706D01*
X54440795Y-54800004D01*
X54443365Y-54798430D01*
X54634870Y-54634870D01*
X54798430Y-54443365D01*
X54800005Y-54440794D01*
X56011832Y-55652621D01*
X56137345Y-55504854D01*
X56338647Y-55207956D01*
X56338649Y-55207952D01*
X56506669Y-54891030D01*
X56506673Y-54891021D01*
X56639440Y-54557801D01*
X56735407Y-54212162D01*
X56793438Y-53858183D01*
X56807979Y-53590003D01*
X59994559Y-53590003D01*
X60013876Y-53786144D01*
X60013878Y-53786155D01*
X60071091Y-53974760D01*
X60071093Y-53974765D01*
X60075785Y-53983543D01*
X60164006Y-54148593D01*
X60289046Y-54300954D01*
X60441407Y-54425994D01*
X60606693Y-54514341D01*
X60615234Y-54518906D01*
X60615239Y-54518908D01*
X60803844Y-54576121D01*
X60803845Y-54576121D01*
X60803848Y-54576122D01*
X60803851Y-54576122D01*
X60803855Y-54576123D01*
X60999997Y-54595441D01*
X61000000Y-54595441D01*
X61000003Y-54595441D01*
X61196144Y-54576123D01*
X61196146Y-54576122D01*
X61196152Y-54576122D01*
X61330944Y-54535233D01*
X61384760Y-54518908D01*
X61384761Y-54518907D01*
X61384766Y-54518906D01*
X61558593Y-54425994D01*
X61710954Y-54300954D01*
X61835994Y-54148593D01*
X61928906Y-53974766D01*
X61986122Y-53786152D01*
X61987260Y-53774597D01*
X62005441Y-53590003D01*
X62534559Y-53590003D01*
X62553876Y-53786144D01*
X62553878Y-53786155D01*
X62611091Y-53974760D01*
X62611093Y-53974765D01*
X62615785Y-53983543D01*
X62704006Y-54148593D01*
X62829046Y-54300954D01*
X62981407Y-54425994D01*
X63146693Y-54514341D01*
X63155234Y-54518906D01*
X63155239Y-54518908D01*
X63343844Y-54576121D01*
X63343845Y-54576121D01*
X63343848Y-54576122D01*
X63343851Y-54576122D01*
X63343855Y-54576123D01*
X63539997Y-54595441D01*
X63540000Y-54595441D01*
X63540003Y-54595441D01*
X63736144Y-54576123D01*
X63736146Y-54576122D01*
X63736152Y-54576122D01*
X63870944Y-54535233D01*
X63924760Y-54518908D01*
X63924761Y-54518907D01*
X63924766Y-54518906D01*
X64098593Y-54425994D01*
X64250954Y-54300954D01*
X64375994Y-54148593D01*
X64468906Y-53974766D01*
X64526122Y-53786152D01*
X64527260Y-53774597D01*
X64545441Y-53590003D01*
X64545441Y-53589996D01*
X64526123Y-53393855D01*
X64526121Y-53393844D01*
X64477633Y-53234000D01*
X68902000Y-53234000D01*
X68902000Y-55568597D01*
X68908505Y-55629093D01*
X68959555Y-55765964D01*
X68959555Y-55765965D01*
X69047095Y-55882904D01*
X69164034Y-55970444D01*
X69300906Y-56021494D01*
X69361402Y-56027999D01*
X69361415Y-56028000D01*
X69531339Y-56028000D01*
X69599460Y-56048002D01*
X69645953Y-56101658D01*
X69656057Y-56171932D01*
X69651913Y-56190576D01*
X69641366Y-56225341D01*
X69622195Y-56419997D01*
X69622195Y-56420002D01*
X69641366Y-56614655D01*
X69698146Y-56801836D01*
X69698148Y-56801841D01*
X69761124Y-56919664D01*
X70236208Y-56444579D01*
X70386150Y-56444579D01*
X70416365Y-56537569D01*
X70481789Y-56610231D01*
X70571112Y-56650000D01*
X70644172Y-56650000D01*
X70715639Y-56634809D01*
X70794742Y-56577338D01*
X70843630Y-56492662D01*
X70853850Y-56395421D01*
X70823635Y-56302431D01*
X70758211Y-56229769D01*
X70691348Y-56200000D01*
X70759209Y-56200000D01*
X71478874Y-56919665D01*
X71478875Y-56919664D01*
X71541851Y-56801843D01*
X71598633Y-56614655D01*
X71617805Y-56420002D01*
X71617805Y-56419997D01*
X71598633Y-56225341D01*
X71588087Y-56190576D01*
X71587453Y-56119582D01*
X71625302Y-56059516D01*
X71689617Y-56029448D01*
X71708661Y-56028000D01*
X71878585Y-56028000D01*
X71878597Y-56027999D01*
X71939093Y-56021494D01*
X72075964Y-55970444D01*
X72075965Y-55970444D01*
X72192904Y-55882904D01*
X72280444Y-55765965D01*
X72280444Y-55765964D01*
X72331494Y-55629093D01*
X72337999Y-55568597D01*
X72338000Y-55568585D01*
X72338000Y-53234000D01*
X77662000Y-53234000D01*
X77662000Y-55568597D01*
X77668505Y-55629093D01*
X77719555Y-55765964D01*
X77719555Y-55765965D01*
X77807095Y-55882904D01*
X77924034Y-55970444D01*
X78060906Y-56021494D01*
X78121402Y-56027999D01*
X78121415Y-56028000D01*
X78291339Y-56028000D01*
X78359460Y-56048002D01*
X78405953Y-56101658D01*
X78416057Y-56171932D01*
X78411913Y-56190576D01*
X78401366Y-56225341D01*
X78382195Y-56419997D01*
X78382195Y-56420002D01*
X78401366Y-56614655D01*
X78458146Y-56801836D01*
X78458148Y-56801841D01*
X78521124Y-56919664D01*
X78996208Y-56444579D01*
X79146150Y-56444579D01*
X79176365Y-56537569D01*
X79241789Y-56610231D01*
X79331112Y-56650000D01*
X79404172Y-56650000D01*
X79475639Y-56634809D01*
X79554742Y-56577338D01*
X79603630Y-56492662D01*
X79613850Y-56395421D01*
X79583635Y-56302431D01*
X79518211Y-56229769D01*
X79451348Y-56200000D01*
X79519209Y-56200000D01*
X80238874Y-56919665D01*
X80238875Y-56919664D01*
X80301851Y-56801843D01*
X80358633Y-56614655D01*
X80377805Y-56420002D01*
X80377805Y-56419997D01*
X80358633Y-56225341D01*
X80348087Y-56190576D01*
X80347453Y-56119582D01*
X80385302Y-56059516D01*
X80449617Y-56029448D01*
X80468661Y-56028000D01*
X80638585Y-56028000D01*
X80638597Y-56027999D01*
X80699093Y-56021494D01*
X80835964Y-55970444D01*
X80835965Y-55970444D01*
X80952904Y-55882904D01*
X81040444Y-55765965D01*
X81040444Y-55765964D01*
X81091494Y-55629093D01*
X81097999Y-55568597D01*
X81098000Y-55568585D01*
X81098000Y-53234000D01*
X79634000Y-53234000D01*
X79634000Y-55991809D01*
X79613998Y-56059930D01*
X79610000Y-56064890D01*
X79610000Y-56074000D01*
X79589998Y-56142121D01*
X79536342Y-56188614D01*
X79522696Y-56191582D01*
X79519209Y-56200000D01*
X79451348Y-56200000D01*
X79428888Y-56190000D01*
X79355828Y-56190000D01*
X79284361Y-56205191D01*
X79205258Y-56262662D01*
X79156370Y-56347338D01*
X79146150Y-56444579D01*
X78996208Y-56444579D01*
X79240789Y-56199998D01*
X79235915Y-56188230D01*
X79207879Y-56179998D01*
X79161386Y-56126342D01*
X79150000Y-56074000D01*
X79150000Y-56057271D01*
X79128879Y-56018592D01*
X79126000Y-55991809D01*
X79126000Y-53234000D01*
X77662000Y-53234000D01*
X72338000Y-53234000D01*
X70874000Y-53234000D01*
X70874000Y-55991808D01*
X70853998Y-56059929D01*
X70850000Y-56064890D01*
X70850000Y-56074000D01*
X70829998Y-56142121D01*
X70776342Y-56188614D01*
X70762696Y-56191582D01*
X70759209Y-56200000D01*
X70691348Y-56200000D01*
X70668888Y-56190000D01*
X70595828Y-56190000D01*
X70524361Y-56205191D01*
X70445258Y-56262662D01*
X70396370Y-56347338D01*
X70386150Y-56444579D01*
X70236208Y-56444579D01*
X70480789Y-56199998D01*
X70475915Y-56188230D01*
X70447879Y-56179998D01*
X70401386Y-56126342D01*
X70390000Y-56074000D01*
X70390000Y-56057271D01*
X70368879Y-56018592D01*
X70366000Y-55991809D01*
X70366000Y-53234000D01*
X68902000Y-53234000D01*
X64477633Y-53234000D01*
X64468908Y-53205239D01*
X64468906Y-53205234D01*
X64446012Y-53162402D01*
X64375994Y-53031407D01*
X64250954Y-52879046D01*
X64098593Y-52754006D01*
X64042798Y-52724183D01*
X63924765Y-52661093D01*
X63924760Y-52661091D01*
X63736155Y-52603878D01*
X63736144Y-52603876D01*
X63540003Y-52584559D01*
X63539997Y-52584559D01*
X63343855Y-52603876D01*
X63343844Y-52603878D01*
X63155239Y-52661091D01*
X63155234Y-52661093D01*
X62981406Y-52754006D01*
X62829046Y-52879046D01*
X62704006Y-53031406D01*
X62611093Y-53205234D01*
X62611091Y-53205239D01*
X62553878Y-53393844D01*
X62553876Y-53393855D01*
X62534559Y-53589996D01*
X62534559Y-53590003D01*
X62005441Y-53590003D01*
X62005441Y-53589996D01*
X61986123Y-53393855D01*
X61986121Y-53393844D01*
X61928908Y-53205239D01*
X61928906Y-53205234D01*
X61906012Y-53162402D01*
X61835994Y-53031407D01*
X61710954Y-52879046D01*
X61558593Y-52754006D01*
X61502798Y-52724183D01*
X61384765Y-52661093D01*
X61384760Y-52661091D01*
X61196155Y-52603878D01*
X61196144Y-52603876D01*
X61000003Y-52584559D01*
X60999997Y-52584559D01*
X60803855Y-52603876D01*
X60803844Y-52603878D01*
X60615239Y-52661091D01*
X60615234Y-52661093D01*
X60441406Y-52754006D01*
X60289046Y-52879046D01*
X60164006Y-53031406D01*
X60071093Y-53205234D01*
X60071091Y-53205239D01*
X60013878Y-53393844D01*
X60013876Y-53393855D01*
X59994559Y-53589996D01*
X59994559Y-53590003D01*
X56807979Y-53590003D01*
X56812859Y-53500003D01*
X56812859Y-53499996D01*
X56793438Y-53141816D01*
X56735407Y-52787837D01*
X56639440Y-52442198D01*
X56506673Y-52108978D01*
X56506669Y-52108969D01*
X56338649Y-51792047D01*
X56338647Y-51792043D01*
X56137345Y-51495145D01*
X56011831Y-51347377D01*
X54800004Y-52559203D01*
X54798430Y-52556635D01*
X54634870Y-52365130D01*
X54443365Y-52201570D01*
X54440794Y-52199994D01*
X55655496Y-50985292D01*
X55644700Y-50975067D01*
X55359138Y-50757986D01*
X55359132Y-50757982D01*
X55051772Y-50573050D01*
X55051765Y-50573046D01*
X54726233Y-50422438D01*
X54726214Y-50422430D01*
X54386293Y-50307898D01*
X54386276Y-50307893D01*
X54234815Y-50274554D01*
X54172586Y-50240376D01*
X54138715Y-50177980D01*
X54143954Y-50107177D01*
X54186641Y-50050446D01*
X54253222Y-50025799D01*
X54261901Y-50025500D01*
X60318956Y-50025500D01*
X60387077Y-50045502D01*
G37*
%TD.AperFunction*%
%TA.AperFunction,Conductor*%
G36*
X99899144Y-102160442D02*
G01*
X99953480Y-102206137D01*
X99974486Y-102273955D01*
X99974500Y-102275816D01*
X99974500Y-102498097D01*
X99974385Y-102501902D01*
X99956688Y-102794460D01*
X99955770Y-102802019D01*
X99903284Y-103088433D01*
X99901461Y-103095827D01*
X99814831Y-103373832D01*
X99812131Y-103380951D01*
X99692628Y-103646474D01*
X99689089Y-103653216D01*
X99538447Y-103902411D01*
X99534121Y-103908679D01*
X99354538Y-104137899D01*
X99349489Y-104143598D01*
X99143598Y-104349489D01*
X99137899Y-104354538D01*
X98908679Y-104534121D01*
X98902411Y-104538447D01*
X98653216Y-104689089D01*
X98646474Y-104692628D01*
X98380951Y-104812131D01*
X98373832Y-104814831D01*
X98095827Y-104901461D01*
X98088433Y-104903284D01*
X97802019Y-104955770D01*
X97794460Y-104956688D01*
X97539453Y-104972113D01*
X97501900Y-104974385D01*
X97498097Y-104974500D01*
X97261901Y-104974500D01*
X97193780Y-104954498D01*
X97147287Y-104900842D01*
X97137183Y-104830568D01*
X97166677Y-104765988D01*
X97226403Y-104727604D01*
X97234815Y-104725446D01*
X97386276Y-104692106D01*
X97386293Y-104692101D01*
X97726214Y-104577569D01*
X97726233Y-104577561D01*
X98051765Y-104426953D01*
X98051772Y-104426949D01*
X98359132Y-104242017D01*
X98359150Y-104242005D01*
X98644699Y-104024934D01*
X98644702Y-104024932D01*
X98655496Y-104014707D01*
X98655496Y-104014706D01*
X97440795Y-102800004D01*
X97443365Y-102798430D01*
X97634870Y-102634870D01*
X97798430Y-102443365D01*
X97800004Y-102440795D01*
X99011832Y-103652621D01*
X99137345Y-103504854D01*
X99338647Y-103207956D01*
X99338649Y-103207952D01*
X99506669Y-102891030D01*
X99506673Y-102891021D01*
X99639440Y-102557801D01*
X99727093Y-102242107D01*
X99764590Y-102181821D01*
X99828728Y-102151377D01*
X99899144Y-102160442D01*
G37*
%TD.AperFunction*%
%TA.AperFunction,Conductor*%
G36*
X97501900Y-50025614D02*
G01*
X97794470Y-50043312D01*
X97802012Y-50044228D01*
X98088449Y-50096719D01*
X98095822Y-50098536D01*
X98373837Y-50185169D01*
X98380941Y-50187864D01*
X98646479Y-50307373D01*
X98653216Y-50310910D01*
X98902411Y-50461552D01*
X98908671Y-50465872D01*
X99045468Y-50573046D01*
X99137899Y-50645461D01*
X99143589Y-50650502D01*
X99349496Y-50856409D01*
X99354538Y-50862100D01*
X99501748Y-51050000D01*
X99534121Y-51091320D01*
X99538447Y-51097588D01*
X99689089Y-51346783D01*
X99692628Y-51353525D01*
X99807425Y-51608593D01*
X99812131Y-51619048D01*
X99814831Y-51626167D01*
X99901461Y-51904172D01*
X99903283Y-51911562D01*
X99922396Y-52015862D01*
X99955770Y-52197980D01*
X99956688Y-52205539D01*
X99971646Y-52452826D01*
X99974385Y-52498097D01*
X99974500Y-52501902D01*
X99974500Y-52724183D01*
X99954498Y-52792304D01*
X99900842Y-52838797D01*
X99830568Y-52848901D01*
X99765988Y-52819407D01*
X99727604Y-52759681D01*
X99727093Y-52757892D01*
X99639440Y-52442198D01*
X99506673Y-52108978D01*
X99506669Y-52108969D01*
X99338649Y-51792047D01*
X99338647Y-51792043D01*
X99137345Y-51495145D01*
X99011831Y-51347377D01*
X97800004Y-52559203D01*
X97798430Y-52556635D01*
X97634870Y-52365130D01*
X97443365Y-52201570D01*
X97440794Y-52199994D01*
X98655496Y-50985292D01*
X98644700Y-50975067D01*
X98359138Y-50757986D01*
X98359132Y-50757982D01*
X98051772Y-50573050D01*
X98051765Y-50573046D01*
X97726233Y-50422438D01*
X97726214Y-50422430D01*
X97386293Y-50307898D01*
X97386276Y-50307893D01*
X97234815Y-50274554D01*
X97172586Y-50240376D01*
X97138715Y-50177980D01*
X97143954Y-50107177D01*
X97186641Y-50050446D01*
X97253222Y-50025799D01*
X97261901Y-50025500D01*
X97491715Y-50025500D01*
X97498097Y-50025500D01*
X97501900Y-50025614D01*
G37*
%TD.AperFunction*%
%TA.AperFunction,Conductor*%
G36*
X52806220Y-50045502D02*
G01*
X52852713Y-50099158D01*
X52862817Y-50169432D01*
X52833323Y-50234012D01*
X52773597Y-50272396D01*
X52765185Y-50274554D01*
X52613723Y-50307893D01*
X52613706Y-50307898D01*
X52273785Y-50422430D01*
X52273766Y-50422438D01*
X51948234Y-50573046D01*
X51948227Y-50573050D01*
X51640867Y-50757982D01*
X51640861Y-50757986D01*
X51355299Y-50975066D01*
X51344502Y-50985292D01*
X52559205Y-52199995D01*
X52556635Y-52201570D01*
X52365130Y-52365130D01*
X52201570Y-52556635D01*
X52199995Y-52559205D01*
X50988167Y-51347377D01*
X50988166Y-51347378D01*
X50862665Y-51495131D01*
X50661349Y-51792050D01*
X50493330Y-52108969D01*
X50493326Y-52108978D01*
X50360559Y-52442198D01*
X50272907Y-52757892D01*
X50235410Y-52818178D01*
X50171272Y-52848622D01*
X50100856Y-52839557D01*
X50046520Y-52793862D01*
X50025514Y-52726044D01*
X50025500Y-52724183D01*
X50025500Y-52501901D01*
X50025615Y-52498096D01*
X50028353Y-52452826D01*
X50043312Y-52205527D01*
X50044227Y-52197989D01*
X50096719Y-51911546D01*
X50098535Y-51904180D01*
X50185171Y-51626157D01*
X50187861Y-51619063D01*
X50307377Y-51353513D01*
X50310910Y-51346783D01*
X50405038Y-51191075D01*
X50461558Y-51097578D01*
X50465867Y-51091335D01*
X50645469Y-50862090D01*
X50650494Y-50856418D01*
X50856418Y-50650494D01*
X50862090Y-50645469D01*
X51091335Y-50465867D01*
X51097578Y-50461558D01*
X51346783Y-50310910D01*
X51353513Y-50307377D01*
X51619063Y-50187861D01*
X51626157Y-50185171D01*
X51904180Y-50098535D01*
X51911546Y-50096719D01*
X52197989Y-50044227D01*
X52205527Y-50043312D01*
X52498099Y-50025614D01*
X52501903Y-50025500D01*
X52508285Y-50025500D01*
X52738099Y-50025500D01*
X52806220Y-50045502D01*
G37*
%TD.AperFunction*%
%TD*%
M02*
