M48
; DRILL file {KiCad 7.0.5-0} date 2023 August 23, Wednesday 15:17:12
; FORMAT={-:-/ absolute / inch / decimal}
; #@! TF.CreationDate,2023-08-23T15:17:12-05:00
; #@! TF.GenerationSoftware,Kicad,Pcbnew,7.0.5-0
; #@! TF.FileFunction,Plated,1,2,PTH
FMAT,2
INCH
; #@! TA.AperFunction,Plated,PTH,ViaDrill
T1C0.0118
; #@! TA.AperFunction,Plated,PTH,ViaDrill
T2C0.0157
; #@! TA.AperFunction,Plated,PTH,ComponentDrill
T3C0.0181
; #@! TA.AperFunction,Plated,PTH,ComponentDrill
T4C0.0217
; #@! TA.AperFunction,Plated,PTH,ComponentDrill
T5C0.0236
; #@! TA.AperFunction,Plated,PTH,ComponentDrill
T6C0.0276
; #@! TA.AperFunction,Plated,PTH,ComponentDrill
T7C0.0310
; #@! TA.AperFunction,Plated,PTH,ComponentDrill
T8C0.0315
; #@! TA.AperFunction,Plated,PTH,ComponentDrill
T9C0.0394
; #@! TA.AperFunction,Plated,PTH,ComponentDrill
T10C0.0430
; #@! TA.AperFunction,Plated,PTH,ComponentDrill
T11C0.1260
%
G90
G05
T1
X2.6844Y-3.2427
X3.5331Y-2.9197
T2
X2.7835Y-3.3427
X2.8543Y-3.4427
X2.8656Y-3.0927
X2.9528Y-2.2575
X2.9969Y-3.3933
X3.3098Y-3.0681
X3.7697Y-3.0012
T3
X2.7803Y-2.2213
X3.1252Y-2.2213
T4
X3.002Y-2.9921
X3.061Y-2.9921
T5
X2.1063Y-3.0709
X2.1654Y-3.0709
T6
X2.0941Y-2.5646
X2.1925Y-2.5646
X3.2776Y-3.8583
X3.376Y-3.8583
X3.4941Y-3.8583
X3.5925Y-3.8583
T7
X2.2645Y-3.0169
X2.5945Y-3.0169
X3.2677Y-2.8606
X3.5977Y-2.8606
T8
X2.2835Y-2.4646
X2.2835Y-2.5646
X2.2835Y-2.6646
X2.2835Y-2.7646
X2.2835Y-2.8894
X2.2835Y-3.1496
X2.2835Y-3.2496
X2.2835Y-3.3496
X2.2835Y-3.4496
X2.2835Y-3.5496
X2.2835Y-3.6496
X2.2835Y-3.7496
X2.5835Y-2.4646
X2.5835Y-2.5646
X2.5835Y-2.6646
X2.5835Y-2.7646
X2.5835Y-2.8894
X2.5835Y-3.1496
X2.5835Y-3.2496
X2.5835Y-3.3496
X2.5835Y-3.4496
X2.5835Y-3.5496
X2.5835Y-3.6496
X2.5835Y-3.7496
X2.7252Y-2.4213
X2.7362Y-3.5827
X2.8165Y-2.9921
X2.8236Y-2.4213
X2.8346Y-3.5827
X2.915Y-2.9921
X2.9331Y-3.5827
X3.0512Y-2.4213
X3.1472Y-2.9921
X3.1496Y-2.4213
X3.2331Y-3.5827
X3.2457Y-2.9921
X3.248Y-3.1427
X3.2677Y-2.3882
X3.2677Y-2.5063
X3.2677Y-2.6244
X3.2677Y-2.7425
X3.3417Y-3.5827
X3.3465Y-3.1427
X3.5677Y-2.3882
X3.5677Y-2.5063
X3.5677Y-2.6244
X3.5677Y-2.7425
X3.6417Y-3.5827
T9
X3.837Y-2.3685
X3.837Y-2.4685
X3.837Y-2.5685
X3.837Y-2.6685
X3.837Y-2.7685
T10
X2.4016Y-2.0098
X2.4016Y-2.1098
X2.5016Y-2.0098
X2.5016Y-2.1098
X3.4039Y-2.0098
X3.4039Y-2.1098
X3.5039Y-2.0098
X3.5039Y-2.1098
T11
X2.1063Y-2.1063
X2.1063Y-3.9961
X3.7992Y-2.1063
X3.7992Y-3.9961
T8
G00X2.7559Y-3.7736
M15
G01X2.7559Y-3.7461
M16
G05
G00X2.8543Y-3.7736
M15
G01X2.8543Y-3.7461
M16
G05
G00X2.939Y-3.9567
M15
G01X2.9665Y-3.9567
M16
G05
G00X3.0512Y-3.7736
M15
G01X3.0512Y-3.7461
M16
G05
G00X3.1496Y-3.7736
M15
G01X3.1496Y-3.7461
M16
G05
T0
M30
