%TF.GenerationSoftware,KiCad,Pcbnew,(5.1.6-0-10_14)*%
%TF.CreationDate,2021-02-23T09:24:48-06:00*%
%TF.ProjectId,MBFrontEnd,4d424672-6f6e-4744-956e-642e6b696361,rev?*%
%TF.SameCoordinates,Original*%
%TF.FileFunction,Legend,Top*%
%TF.FilePolarity,Positive*%
%FSLAX46Y46*%
G04 Gerber Fmt 4.6, Leading zero omitted, Abs format (unit mm)*
G04 Created by KiCad (PCBNEW (5.1.6-0-10_14)) date 2021-02-23 09:24:48*
%MOMM*%
%LPD*%
G01*
G04 APERTURE LIST*
%ADD10C,0.150000*%
%ADD11C,0.100000*%
%ADD12C,0.120000*%
%ADD13C,0.152400*%
%ADD14C,0.110000*%
G04 APERTURE END LIST*
D10*
X104551428Y-115502380D02*
X104218095Y-115026190D01*
X103980000Y-115502380D02*
X103980000Y-114502380D01*
X104360952Y-114502380D01*
X104456190Y-114550000D01*
X104503809Y-114597619D01*
X104551428Y-114692857D01*
X104551428Y-114835714D01*
X104503809Y-114930952D01*
X104456190Y-114978571D01*
X104360952Y-115026190D01*
X103980000Y-115026190D01*
X105313333Y-114978571D02*
X104980000Y-114978571D01*
X104980000Y-115502380D02*
X104980000Y-114502380D01*
X105456190Y-114502380D01*
X106789523Y-114502380D02*
X106980000Y-114502380D01*
X107075238Y-114550000D01*
X107170476Y-114645238D01*
X107218095Y-114835714D01*
X107218095Y-115169047D01*
X107170476Y-115359523D01*
X107075238Y-115454761D01*
X106980000Y-115502380D01*
X106789523Y-115502380D01*
X106694285Y-115454761D01*
X106599047Y-115359523D01*
X106551428Y-115169047D01*
X106551428Y-114835714D01*
X106599047Y-114645238D01*
X106694285Y-114550000D01*
X106789523Y-114502380D01*
X107646666Y-114502380D02*
X107646666Y-115311904D01*
X107694285Y-115407142D01*
X107741904Y-115454761D01*
X107837142Y-115502380D01*
X108027619Y-115502380D01*
X108122857Y-115454761D01*
X108170476Y-115407142D01*
X108218095Y-115311904D01*
X108218095Y-114502380D01*
X108551428Y-114502380D02*
X109122857Y-114502380D01*
X108837142Y-115502380D02*
X108837142Y-114502380D01*
X57428095Y-115562380D02*
X57094761Y-115086190D01*
X56856666Y-115562380D02*
X56856666Y-114562380D01*
X57237619Y-114562380D01*
X57332857Y-114610000D01*
X57380476Y-114657619D01*
X57428095Y-114752857D01*
X57428095Y-114895714D01*
X57380476Y-114990952D01*
X57332857Y-115038571D01*
X57237619Y-115086190D01*
X56856666Y-115086190D01*
X58190000Y-115038571D02*
X57856666Y-115038571D01*
X57856666Y-115562380D02*
X57856666Y-114562380D01*
X58332857Y-114562380D01*
X59475714Y-115562380D02*
X59475714Y-114562380D01*
X59951904Y-115562380D02*
X59951904Y-114562380D01*
X60523333Y-115562380D01*
X60523333Y-114562380D01*
D11*
X66007142Y-106732380D02*
X65530952Y-106732380D01*
X65530952Y-105732380D01*
X66340476Y-106732380D02*
X66340476Y-105732380D01*
X66911904Y-106732380D01*
X66911904Y-105732380D01*
X67340476Y-106446666D02*
X67816666Y-106446666D01*
X67245238Y-106732380D02*
X67578571Y-105732380D01*
X67911904Y-106732380D01*
X68292857Y-106684761D02*
X68292857Y-106732380D01*
X68245238Y-106827619D01*
X68197619Y-106875238D01*
X69483333Y-106732380D02*
X69483333Y-105732380D01*
X69911904Y-105827619D02*
X69959523Y-105780000D01*
X70054761Y-105732380D01*
X70292857Y-105732380D01*
X70388095Y-105780000D01*
X70435714Y-105827619D01*
X70483333Y-105922857D01*
X70483333Y-106018095D01*
X70435714Y-106160952D01*
X69864285Y-106732380D01*
X70483333Y-106732380D01*
X71483333Y-106637142D02*
X71435714Y-106684761D01*
X71292857Y-106732380D01*
X71197619Y-106732380D01*
X71054761Y-106684761D01*
X70959523Y-106589523D01*
X70911904Y-106494285D01*
X70864285Y-106303809D01*
X70864285Y-106160952D01*
X70911904Y-105970476D01*
X70959523Y-105875238D01*
X71054761Y-105780000D01*
X71197619Y-105732380D01*
X71292857Y-105732380D01*
X71435714Y-105780000D01*
X71483333Y-105827619D01*
X72626190Y-106446666D02*
X73102380Y-106446666D01*
X72530952Y-106732380D02*
X72864285Y-105732380D01*
X73197619Y-106732380D01*
X73388095Y-106065714D02*
X73769047Y-106065714D01*
X73530952Y-105732380D02*
X73530952Y-106589523D01*
X73578571Y-106684761D01*
X73673809Y-106732380D01*
X73769047Y-106732380D01*
X73959523Y-106065714D02*
X74340476Y-106065714D01*
X74102380Y-105732380D02*
X74102380Y-106589523D01*
X74150000Y-106684761D01*
X74245238Y-106732380D01*
X74340476Y-106732380D01*
X75054761Y-106684761D02*
X74959523Y-106732380D01*
X74769047Y-106732380D01*
X74673809Y-106684761D01*
X74626190Y-106589523D01*
X74626190Y-106208571D01*
X74673809Y-106113333D01*
X74769047Y-106065714D01*
X74959523Y-106065714D01*
X75054761Y-106113333D01*
X75102380Y-106208571D01*
X75102380Y-106303809D01*
X74626190Y-106399047D01*
X75530952Y-106065714D02*
X75530952Y-106732380D01*
X75530952Y-106160952D02*
X75578571Y-106113333D01*
X75673809Y-106065714D01*
X75816666Y-106065714D01*
X75911904Y-106113333D01*
X75959523Y-106208571D01*
X75959523Y-106732380D01*
X76864285Y-106065714D02*
X76864285Y-106732380D01*
X76435714Y-106065714D02*
X76435714Y-106589523D01*
X76483333Y-106684761D01*
X76578571Y-106732380D01*
X76721428Y-106732380D01*
X76816666Y-106684761D01*
X76864285Y-106637142D01*
X77769047Y-106732380D02*
X77769047Y-106208571D01*
X77721428Y-106113333D01*
X77626190Y-106065714D01*
X77435714Y-106065714D01*
X77340476Y-106113333D01*
X77769047Y-106684761D02*
X77673809Y-106732380D01*
X77435714Y-106732380D01*
X77340476Y-106684761D01*
X77292857Y-106589523D01*
X77292857Y-106494285D01*
X77340476Y-106399047D01*
X77435714Y-106351428D01*
X77673809Y-106351428D01*
X77769047Y-106303809D01*
X78102380Y-106065714D02*
X78483333Y-106065714D01*
X78245238Y-105732380D02*
X78245238Y-106589523D01*
X78292857Y-106684761D01*
X78388095Y-106732380D01*
X78483333Y-106732380D01*
X78959523Y-106732380D02*
X78864285Y-106684761D01*
X78816666Y-106637142D01*
X78769047Y-106541904D01*
X78769047Y-106256190D01*
X78816666Y-106160952D01*
X78864285Y-106113333D01*
X78959523Y-106065714D01*
X79102380Y-106065714D01*
X79197619Y-106113333D01*
X79245238Y-106160952D01*
X79292857Y-106256190D01*
X79292857Y-106541904D01*
X79245238Y-106637142D01*
X79197619Y-106684761D01*
X79102380Y-106732380D01*
X78959523Y-106732380D01*
X79721428Y-106732380D02*
X79721428Y-106065714D01*
X79721428Y-106256190D02*
X79769047Y-106160952D01*
X79816666Y-106113333D01*
X79911904Y-106065714D01*
X80007142Y-106065714D01*
X80388095Y-106684761D02*
X80388095Y-106732380D01*
X80340476Y-106827619D01*
X80292857Y-106875238D01*
X81578571Y-106732380D02*
X81578571Y-105732380D01*
X81911904Y-106446666D01*
X82245238Y-105732380D01*
X82245238Y-106732380D01*
X82721428Y-106732380D02*
X82721428Y-106065714D01*
X82721428Y-105732380D02*
X82673809Y-105780000D01*
X82721428Y-105827619D01*
X82769047Y-105780000D01*
X82721428Y-105732380D01*
X82721428Y-105827619D01*
X83102380Y-106732380D02*
X83626190Y-106065714D01*
X83102380Y-106065714D02*
X83626190Y-106732380D01*
X84388095Y-106684761D02*
X84292857Y-106732380D01*
X84102380Y-106732380D01*
X84007142Y-106684761D01*
X83959523Y-106589523D01*
X83959523Y-106208571D01*
X84007142Y-106113333D01*
X84102380Y-106065714D01*
X84292857Y-106065714D01*
X84388095Y-106113333D01*
X84435714Y-106208571D01*
X84435714Y-106303809D01*
X83959523Y-106399047D01*
X84864285Y-106732380D02*
X84864285Y-106065714D01*
X84864285Y-106256190D02*
X84911904Y-106160952D01*
X84959523Y-106113333D01*
X85054761Y-106065714D01*
X85150000Y-106065714D01*
X87054761Y-106732380D02*
X87007142Y-106732380D01*
X86911904Y-106684761D01*
X86769047Y-106541904D01*
X86530952Y-106256190D01*
X86435714Y-106113333D01*
X86388095Y-105970476D01*
X86388095Y-105875238D01*
X86435714Y-105780000D01*
X86530952Y-105732380D01*
X86578571Y-105732380D01*
X86673809Y-105780000D01*
X86721428Y-105875238D01*
X86721428Y-105922857D01*
X86673809Y-106018095D01*
X86626190Y-106065714D01*
X86340476Y-106256190D01*
X86292857Y-106303809D01*
X86245238Y-106399047D01*
X86245238Y-106541904D01*
X86292857Y-106637142D01*
X86340476Y-106684761D01*
X86435714Y-106732380D01*
X86578571Y-106732380D01*
X86673809Y-106684761D01*
X86721428Y-106637142D01*
X86864285Y-106446666D01*
X86911904Y-106303809D01*
X86911904Y-106208571D01*
X88721428Y-106732380D02*
X88245238Y-106732380D01*
X88245238Y-105732380D01*
X89197619Y-106732380D02*
X89102380Y-106684761D01*
X89054761Y-106637142D01*
X89007142Y-106541904D01*
X89007142Y-106256190D01*
X89054761Y-106160952D01*
X89102380Y-106113333D01*
X89197619Y-106065714D01*
X89340476Y-106065714D01*
X89435714Y-106113333D01*
X89483333Y-106160952D01*
X89530952Y-106256190D01*
X89530952Y-106541904D01*
X89483333Y-106637142D01*
X89435714Y-106684761D01*
X89340476Y-106732380D01*
X89197619Y-106732380D01*
X90388095Y-106684761D02*
X90292857Y-106732380D01*
X90102380Y-106732380D01*
X90007142Y-106684761D01*
X89959523Y-106637142D01*
X89911904Y-106541904D01*
X89911904Y-106256190D01*
X89959523Y-106160952D01*
X90007142Y-106113333D01*
X90102380Y-106065714D01*
X90292857Y-106065714D01*
X90388095Y-106113333D01*
X91245238Y-106732380D02*
X91245238Y-106208571D01*
X91197619Y-106113333D01*
X91102380Y-106065714D01*
X90911904Y-106065714D01*
X90816666Y-106113333D01*
X91245238Y-106684761D02*
X91150000Y-106732380D01*
X90911904Y-106732380D01*
X90816666Y-106684761D01*
X90769047Y-106589523D01*
X90769047Y-106494285D01*
X90816666Y-106399047D01*
X90911904Y-106351428D01*
X91150000Y-106351428D01*
X91245238Y-106303809D01*
X91864285Y-106732380D02*
X91769047Y-106684761D01*
X91721428Y-106589523D01*
X91721428Y-105732380D01*
X93197619Y-105732380D02*
X93388095Y-105732380D01*
X93483333Y-105780000D01*
X93578571Y-105875238D01*
X93626190Y-106065714D01*
X93626190Y-106399047D01*
X93578571Y-106589523D01*
X93483333Y-106684761D01*
X93388095Y-106732380D01*
X93197619Y-106732380D01*
X93102380Y-106684761D01*
X93007142Y-106589523D01*
X92959523Y-106399047D01*
X92959523Y-106065714D01*
X93007142Y-105875238D01*
X93102380Y-105780000D01*
X93197619Y-105732380D01*
X94007142Y-106684761D02*
X94102380Y-106732380D01*
X94292857Y-106732380D01*
X94388095Y-106684761D01*
X94435714Y-106589523D01*
X94435714Y-106541904D01*
X94388095Y-106446666D01*
X94292857Y-106399047D01*
X94150000Y-106399047D01*
X94054761Y-106351428D01*
X94007142Y-106256190D01*
X94007142Y-106208571D01*
X94054761Y-106113333D01*
X94150000Y-106065714D01*
X94292857Y-106065714D01*
X94388095Y-106113333D01*
X95292857Y-106684761D02*
X95197619Y-106732380D01*
X95007142Y-106732380D01*
X94911904Y-106684761D01*
X94864285Y-106637142D01*
X94816666Y-106541904D01*
X94816666Y-106256190D01*
X94864285Y-106160952D01*
X94911904Y-106113333D01*
X95007142Y-106065714D01*
X95197619Y-106065714D01*
X95292857Y-106113333D01*
X95721428Y-106732380D02*
X95721428Y-106065714D01*
X95721428Y-105732380D02*
X95673809Y-105780000D01*
X95721428Y-105827619D01*
X95769047Y-105780000D01*
X95721428Y-105732380D01*
X95721428Y-105827619D01*
X96340476Y-106732380D02*
X96245238Y-106684761D01*
X96197619Y-106589523D01*
X96197619Y-105732380D01*
X96864285Y-106732380D02*
X96769047Y-106684761D01*
X96721428Y-106589523D01*
X96721428Y-105732380D01*
X97673809Y-106732380D02*
X97673809Y-106208571D01*
X97626190Y-106113333D01*
X97530952Y-106065714D01*
X97340476Y-106065714D01*
X97245238Y-106113333D01*
X97673809Y-106684761D02*
X97578571Y-106732380D01*
X97340476Y-106732380D01*
X97245238Y-106684761D01*
X97197619Y-106589523D01*
X97197619Y-106494285D01*
X97245238Y-106399047D01*
X97340476Y-106351428D01*
X97578571Y-106351428D01*
X97673809Y-106303809D01*
X98007142Y-106065714D02*
X98388095Y-106065714D01*
X98150000Y-105732380D02*
X98150000Y-106589523D01*
X98197619Y-106684761D01*
X98292857Y-106732380D01*
X98388095Y-106732380D01*
X98864285Y-106732380D02*
X98769047Y-106684761D01*
X98721428Y-106637142D01*
X98673809Y-106541904D01*
X98673809Y-106256190D01*
X98721428Y-106160952D01*
X98769047Y-106113333D01*
X98864285Y-106065714D01*
X99007142Y-106065714D01*
X99102380Y-106113333D01*
X99150000Y-106160952D01*
X99197619Y-106256190D01*
X99197619Y-106541904D01*
X99150000Y-106637142D01*
X99102380Y-106684761D01*
X99007142Y-106732380D01*
X98864285Y-106732380D01*
X99626190Y-106732380D02*
X99626190Y-106065714D01*
X99626190Y-106256190D02*
X99673809Y-106160952D01*
X99721428Y-106113333D01*
X99816666Y-106065714D01*
X99911904Y-106065714D01*
X77316666Y-107332380D02*
X77650000Y-108332380D01*
X77983333Y-107332380D01*
X78316666Y-108332380D02*
X78316666Y-107332380D01*
X78316666Y-107808571D02*
X78888095Y-107808571D01*
X78888095Y-108332380D02*
X78888095Y-107332380D01*
X79697619Y-107808571D02*
X79364285Y-107808571D01*
X79364285Y-108332380D02*
X79364285Y-107332380D01*
X79840476Y-107332380D01*
X81316666Y-107808571D02*
X80983333Y-107808571D01*
X80983333Y-108332380D02*
X80983333Y-107332380D01*
X81459523Y-107332380D01*
X81840476Y-108332380D02*
X81840476Y-107665714D01*
X81840476Y-107856190D02*
X81888095Y-107760952D01*
X81935714Y-107713333D01*
X82030952Y-107665714D01*
X82126190Y-107665714D01*
X82602380Y-108332380D02*
X82507142Y-108284761D01*
X82459523Y-108237142D01*
X82411904Y-108141904D01*
X82411904Y-107856190D01*
X82459523Y-107760952D01*
X82507142Y-107713333D01*
X82602380Y-107665714D01*
X82745238Y-107665714D01*
X82840476Y-107713333D01*
X82888095Y-107760952D01*
X82935714Y-107856190D01*
X82935714Y-108141904D01*
X82888095Y-108237142D01*
X82840476Y-108284761D01*
X82745238Y-108332380D01*
X82602380Y-108332380D01*
X83364285Y-107665714D02*
X83364285Y-108332380D01*
X83364285Y-107760952D02*
X83411904Y-107713333D01*
X83507142Y-107665714D01*
X83650000Y-107665714D01*
X83745238Y-107713333D01*
X83792857Y-107808571D01*
X83792857Y-108332380D01*
X84126190Y-107665714D02*
X84507142Y-107665714D01*
X84269047Y-107332380D02*
X84269047Y-108189523D01*
X84316666Y-108284761D01*
X84411904Y-108332380D01*
X84507142Y-108332380D01*
X85602380Y-107808571D02*
X85935714Y-107808571D01*
X86078571Y-108332380D02*
X85602380Y-108332380D01*
X85602380Y-107332380D01*
X86078571Y-107332380D01*
X86507142Y-107665714D02*
X86507142Y-108332380D01*
X86507142Y-107760952D02*
X86554761Y-107713333D01*
X86650000Y-107665714D01*
X86792857Y-107665714D01*
X86888095Y-107713333D01*
X86935714Y-107808571D01*
X86935714Y-108332380D01*
X87840476Y-108332380D02*
X87840476Y-107332380D01*
X87840476Y-108284761D02*
X87745238Y-108332380D01*
X87554761Y-108332380D01*
X87459523Y-108284761D01*
X87411904Y-108237142D01*
X87364285Y-108141904D01*
X87364285Y-107856190D01*
X87411904Y-107760952D01*
X87459523Y-107713333D01*
X87554761Y-107665714D01*
X87745238Y-107665714D01*
X87840476Y-107713333D01*
X75760685Y-144658629D02*
X75861700Y-144608122D01*
X75987969Y-144481852D01*
X76013223Y-144406091D01*
X76013223Y-144355583D01*
X75987969Y-144279822D01*
X75937461Y-144229314D01*
X75861700Y-144204061D01*
X75811192Y-144204061D01*
X75735431Y-144229314D01*
X75609162Y-144305076D01*
X75533400Y-144330330D01*
X75482893Y-144330330D01*
X75407131Y-144305076D01*
X75356624Y-144254568D01*
X75331370Y-144178807D01*
X75331370Y-144128299D01*
X75356624Y-144052538D01*
X75482893Y-143926269D01*
X75583908Y-143875761D01*
X76316269Y-144153553D02*
X75785938Y-143623223D01*
X75912208Y-143496954D01*
X76013223Y-143446446D01*
X76114238Y-143446446D01*
X76189999Y-143471700D01*
X76316269Y-143547461D01*
X76392030Y-143623223D01*
X76467791Y-143749492D01*
X76493045Y-143825253D01*
X76493045Y-143926269D01*
X76442538Y-144027284D01*
X76316269Y-144153553D01*
X76669822Y-143496954D02*
X76922360Y-143244416D01*
X76770837Y-143698984D02*
X76417284Y-142991877D01*
X77124391Y-143345431D01*
X78223312Y-144646002D02*
X78324327Y-144595495D01*
X78450596Y-144469226D01*
X78475850Y-144393464D01*
X78475850Y-144342956D01*
X78450596Y-144267195D01*
X78400088Y-144216687D01*
X78324327Y-144191434D01*
X78273819Y-144191434D01*
X78198058Y-144216687D01*
X78071789Y-144292449D01*
X77996027Y-144317703D01*
X77945520Y-144317703D01*
X77869758Y-144292449D01*
X77819251Y-144241941D01*
X77793997Y-144166180D01*
X77793997Y-144115672D01*
X77819251Y-144039911D01*
X77945520Y-143913642D01*
X78046535Y-143863134D01*
X79031434Y-143787373D02*
X79031434Y-143837880D01*
X78980926Y-143938895D01*
X78930418Y-143989403D01*
X78829403Y-144039911D01*
X78728388Y-144039911D01*
X78652626Y-144014657D01*
X78526357Y-143938895D01*
X78450596Y-143863134D01*
X78374834Y-143736865D01*
X78349581Y-143661104D01*
X78349581Y-143560088D01*
X78400088Y-143459073D01*
X78450596Y-143408565D01*
X78551611Y-143358058D01*
X78602119Y-143358058D01*
X79561764Y-143358058D02*
X79309226Y-143610596D01*
X78778895Y-143080266D01*
X73513730Y-144435076D02*
X73513730Y-144485583D01*
X73463223Y-144586599D01*
X73412715Y-144637106D01*
X73311700Y-144687614D01*
X73210685Y-144687614D01*
X73134923Y-144662360D01*
X73008654Y-144586599D01*
X72932893Y-144510837D01*
X72857131Y-144384568D01*
X72831877Y-144308807D01*
X72831877Y-144207791D01*
X72882385Y-144106776D01*
X72932893Y-144056269D01*
X73033908Y-144005761D01*
X73084416Y-144005761D01*
X74044061Y-144005761D02*
X73791522Y-144258299D01*
X73261192Y-143727969D01*
X74220837Y-143828984D02*
X73690507Y-143298654D01*
X74523883Y-143525938D02*
X73993553Y-143450177D01*
X73993553Y-142995608D02*
X73993553Y-143601700D01*
X70499758Y-143849403D02*
X70247220Y-144101941D01*
X70474504Y-144379733D01*
X70474504Y-144329226D01*
X70499758Y-144253464D01*
X70626027Y-144127195D01*
X70701789Y-144101941D01*
X70752296Y-144101941D01*
X70828058Y-144127195D01*
X70954327Y-144253464D01*
X70979581Y-144329226D01*
X70979581Y-144379733D01*
X70954327Y-144455495D01*
X70828058Y-144581764D01*
X70752296Y-144607018D01*
X70701789Y-144607018D01*
X71232119Y-144076687D02*
X71282626Y-144076687D01*
X71282626Y-144127195D01*
X71232119Y-144127195D01*
X71232119Y-144076687D01*
X71282626Y-144127195D01*
X71105850Y-143243312D02*
X71156357Y-143192804D01*
X71232119Y-143167550D01*
X71282626Y-143167550D01*
X71358388Y-143192804D01*
X71484657Y-143268565D01*
X71610926Y-143394834D01*
X71686687Y-143521104D01*
X71711941Y-143596865D01*
X71711941Y-143647373D01*
X71686687Y-143723134D01*
X71636180Y-143773642D01*
X71560418Y-143798895D01*
X71509911Y-143798895D01*
X71434149Y-143773642D01*
X71307880Y-143697880D01*
X71181611Y-143571611D01*
X71105850Y-143445342D01*
X71080596Y-143369581D01*
X71080596Y-143319073D01*
X71105850Y-143243312D01*
X71434149Y-142915012D02*
X72141256Y-143268565D01*
X71787703Y-142561459D01*
X65490773Y-143858895D02*
X65415012Y-143884149D01*
X65339251Y-143959911D01*
X65288743Y-144060926D01*
X65288743Y-144161941D01*
X65313997Y-144237703D01*
X65389758Y-144363972D01*
X65465520Y-144439733D01*
X65591789Y-144515495D01*
X65667550Y-144540748D01*
X65768565Y-144540748D01*
X65869581Y-144490241D01*
X65920088Y-144439733D01*
X65970596Y-144338718D01*
X65970596Y-144288210D01*
X65793819Y-144111434D01*
X65692804Y-144212449D01*
X66248388Y-144111434D02*
X65718058Y-143581104D01*
X66551434Y-143808388D01*
X66021104Y-143278058D01*
X66803972Y-143555850D02*
X66273642Y-143025520D01*
X66399911Y-142899251D01*
X66500926Y-142848743D01*
X66601941Y-142848743D01*
X66677703Y-142873997D01*
X66803972Y-142949758D01*
X66879733Y-143025520D01*
X66955495Y-143151789D01*
X66980748Y-143227550D01*
X66980748Y-143328565D01*
X66930241Y-143429581D01*
X66803972Y-143555850D01*
X67576712Y-144152449D02*
X67905012Y-143824149D01*
X67930266Y-144202956D01*
X68006027Y-144127195D01*
X68081789Y-144101941D01*
X68132296Y-144101941D01*
X68208058Y-144127195D01*
X68334327Y-144253464D01*
X68359581Y-144329226D01*
X68359581Y-144379733D01*
X68334327Y-144455495D01*
X68182804Y-144607018D01*
X68107043Y-144632271D01*
X68056535Y-144632271D01*
X68612119Y-144076687D02*
X68662626Y-144076687D01*
X68662626Y-144127195D01*
X68612119Y-144127195D01*
X68612119Y-144076687D01*
X68662626Y-144127195D01*
X68334327Y-143394834D02*
X68662626Y-143066535D01*
X68687880Y-143445342D01*
X68763642Y-143369581D01*
X68839403Y-143344327D01*
X68889911Y-143344327D01*
X68965672Y-143369581D01*
X69091941Y-143495850D01*
X69117195Y-143571611D01*
X69117195Y-143622119D01*
X69091941Y-143697880D01*
X68940418Y-143849403D01*
X68864657Y-143874657D01*
X68814149Y-143874657D01*
X68814149Y-142915012D02*
X69521256Y-143268565D01*
X69167703Y-142561459D01*
D12*
%TO.C,A2*%
X73400000Y-140250000D02*
G75*
G02*
X74100000Y-140950000I0J-700000D01*
G01*
X72400000Y-140950000D02*
G75*
G02*
X73100000Y-140250000I700000J0D01*
G01*
X73100000Y-142950000D02*
G75*
G02*
X72400000Y-142250000I0J700000D01*
G01*
X74100000Y-142250000D02*
G75*
G02*
X73400000Y-142950000I-700000J0D01*
G01*
X73100000Y-140250000D02*
X73400000Y-140250000D01*
X72400000Y-142250000D02*
X72400000Y-140950000D01*
X73400000Y-142950000D02*
X73100000Y-142950000D01*
X74100000Y-140950000D02*
X74100000Y-142250000D01*
%TO.C,A1*%
X76200000Y-140950000D02*
X76200000Y-142250000D01*
X75500000Y-142950000D02*
X75200000Y-142950000D01*
X74500000Y-142250000D02*
X74500000Y-140950000D01*
X75200000Y-140250000D02*
X75500000Y-140250000D01*
X76200000Y-142250000D02*
G75*
G02*
X75500000Y-142950000I-700000J0D01*
G01*
X75200000Y-142950000D02*
G75*
G02*
X74500000Y-142250000I0J700000D01*
G01*
X74500000Y-140950000D02*
G75*
G02*
X75200000Y-140250000I700000J0D01*
G01*
X75500000Y-140250000D02*
G75*
G02*
X76200000Y-140950000I0J-700000D01*
G01*
%TO.C,A0*%
X77600000Y-140250000D02*
G75*
G02*
X78300000Y-140950000I0J-700000D01*
G01*
X76600000Y-140950000D02*
G75*
G02*
X77300000Y-140250000I700000J0D01*
G01*
X77300000Y-142950000D02*
G75*
G02*
X76600000Y-142250000I0J700000D01*
G01*
X78300000Y-142250000D02*
G75*
G02*
X77600000Y-142950000I-700000J0D01*
G01*
X77300000Y-140250000D02*
X77600000Y-140250000D01*
X76600000Y-142250000D02*
X76600000Y-140950000D01*
X77600000Y-142950000D02*
X77300000Y-142950000D01*
X78300000Y-140950000D02*
X78300000Y-142250000D01*
%TO.C,REF\u002A\u002A*%
X94160000Y-121240000D02*
X94160000Y-122840000D01*
X64500000Y-121240000D02*
X64500000Y-122840000D01*
X94160000Y-115240000D02*
X94160000Y-116840000D01*
X64500000Y-115240000D02*
X64500000Y-116840000D01*
X87530000Y-128440000D02*
X89130000Y-128440000D01*
X87530000Y-109640000D02*
X89130000Y-109640000D01*
X81530000Y-128440000D02*
X83130000Y-128440000D01*
X81530000Y-109640000D02*
X83130000Y-109640000D01*
X75530000Y-128440000D02*
X77130000Y-128440000D01*
X75530000Y-109640000D02*
X77130000Y-109640000D01*
X69530000Y-128440000D02*
X71130000Y-128440000D01*
X69530000Y-109640000D02*
X71130000Y-109640000D01*
%TO.C,D2*%
X95250000Y-138750000D02*
X97800000Y-138750000D01*
X95250000Y-140450000D02*
X97800000Y-140450000D01*
X95250000Y-138750000D02*
X95250000Y-140450000D01*
D11*
%TO.C,U3*%
X82345000Y-113815000D02*
X81845000Y-113815000D01*
X81845000Y-113815000D02*
X80695000Y-114965000D01*
X80695000Y-114965000D02*
X80695000Y-115465000D01*
X89375000Y-113815000D02*
X91025000Y-113815000D01*
X91025000Y-113815000D02*
X91025000Y-115465000D01*
X82345000Y-124145000D02*
X80695000Y-124145000D01*
X80695000Y-124145000D02*
X80695000Y-122495000D01*
X89375000Y-124145000D02*
X91025000Y-124145000D01*
X91025000Y-124145000D02*
X91025000Y-122495000D01*
D10*
%TO.C,U4*%
X66425000Y-133165000D02*
X66425000Y-133390000D01*
X69775000Y-133165000D02*
X69775000Y-133465000D01*
X69775000Y-136515000D02*
X69775000Y-136215000D01*
X66425000Y-136515000D02*
X66425000Y-136215000D01*
X66425000Y-133165000D02*
X69775000Y-133165000D01*
X66425000Y-136515000D02*
X69775000Y-136515000D01*
X66425000Y-133390000D02*
X65200000Y-133390000D01*
D12*
%TO.C,J1*%
X61700000Y-122000000D02*
X62200000Y-121750000D01*
X62200000Y-121750000D02*
X62200000Y-122250000D01*
X62200000Y-122250000D02*
X61700000Y-122000000D01*
%TO.C,J2*%
X102750000Y-121750000D02*
X103250000Y-122000000D01*
X102750000Y-122250000D02*
X102750000Y-121750000D01*
X103250000Y-122000000D02*
X102750000Y-122250000D01*
%TO.C,U6*%
X90650000Y-140370000D02*
X87200000Y-140370000D01*
X90650000Y-140370000D02*
X92600000Y-140370000D01*
X90650000Y-145490000D02*
X88700000Y-145490000D01*
X90650000Y-145490000D02*
X92600000Y-145490000D01*
%TO.C,C17*%
X81690000Y-142220000D02*
X81690000Y-146430000D01*
X84710000Y-142220000D02*
X81690000Y-142220000D01*
X84710000Y-146430000D02*
X84710000Y-142220000D01*
%TO.C,Y1*%
X64370000Y-132840000D02*
X61070000Y-132840000D01*
X61070000Y-132840000D02*
X61070000Y-136840000D01*
%TO.C,J3*%
X80660000Y-144530000D02*
X80660000Y-145800000D01*
X79390000Y-144530000D02*
X80660000Y-144530000D01*
X66310000Y-146842929D02*
X66310000Y-147240000D01*
X67070000Y-146842929D02*
X67070000Y-147240000D01*
X66310000Y-155900000D02*
X66310000Y-149900000D01*
X67070000Y-155900000D02*
X66310000Y-155900000D01*
X67070000Y-149900000D02*
X67070000Y-155900000D01*
X67960000Y-147240000D02*
X67960000Y-149900000D01*
X68850000Y-146842929D02*
X68850000Y-147240000D01*
X69610000Y-146842929D02*
X69610000Y-147240000D01*
X68850000Y-155900000D02*
X68850000Y-149900000D01*
X69610000Y-155900000D02*
X68850000Y-155900000D01*
X69610000Y-149900000D02*
X69610000Y-155900000D01*
X70500000Y-147240000D02*
X70500000Y-149900000D01*
X71390000Y-146842929D02*
X71390000Y-147240000D01*
X72150000Y-146842929D02*
X72150000Y-147240000D01*
X71390000Y-155900000D02*
X71390000Y-149900000D01*
X72150000Y-155900000D02*
X71390000Y-155900000D01*
X72150000Y-149900000D02*
X72150000Y-155900000D01*
X73040000Y-147240000D02*
X73040000Y-149900000D01*
X73930000Y-146842929D02*
X73930000Y-147240000D01*
X74690000Y-146842929D02*
X74690000Y-147240000D01*
X73930000Y-155900000D02*
X73930000Y-149900000D01*
X74690000Y-155900000D02*
X73930000Y-155900000D01*
X74690000Y-149900000D02*
X74690000Y-155900000D01*
X75580000Y-147240000D02*
X75580000Y-149900000D01*
X76470000Y-146842929D02*
X76470000Y-147240000D01*
X77230000Y-146842929D02*
X77230000Y-147240000D01*
X76470000Y-155900000D02*
X76470000Y-149900000D01*
X77230000Y-155900000D02*
X76470000Y-155900000D01*
X77230000Y-149900000D02*
X77230000Y-155900000D01*
X78120000Y-147240000D02*
X78120000Y-149900000D01*
X79010000Y-146910000D02*
X79010000Y-147240000D01*
X79770000Y-146910000D02*
X79770000Y-147240000D01*
X79110000Y-149900000D02*
X79110000Y-155900000D01*
X79230000Y-149900000D02*
X79230000Y-155900000D01*
X79350000Y-149900000D02*
X79350000Y-155900000D01*
X79470000Y-149900000D02*
X79470000Y-155900000D01*
X79590000Y-149900000D02*
X79590000Y-155900000D01*
X79710000Y-149900000D02*
X79710000Y-155900000D01*
X79010000Y-155900000D02*
X79010000Y-149900000D01*
X79770000Y-155900000D02*
X79010000Y-155900000D01*
X79770000Y-149900000D02*
X79770000Y-155900000D01*
X80720000Y-149900000D02*
X80720000Y-147240000D01*
X65360000Y-149900000D02*
X80720000Y-149900000D01*
X65360000Y-147240000D02*
X65360000Y-149900000D01*
X80720000Y-147240000D02*
X65360000Y-147240000D01*
%TO.C,R3*%
X84797221Y-127100000D02*
X85122779Y-127100000D01*
X84797221Y-126080000D02*
X85122779Y-126080000D01*
%TO.C,R2*%
X92770000Y-117062779D02*
X92770000Y-116737221D01*
X91750000Y-117062779D02*
X91750000Y-116737221D01*
%TO.C,C19*%
X86360000Y-139510000D02*
X94420000Y-139510000D01*
X94420000Y-139510000D02*
X94420000Y-134990000D01*
X94420000Y-134990000D02*
X86360000Y-134990000D01*
%TO.C,C20*%
X95570000Y-129540000D02*
X95570000Y-137600000D01*
X100090000Y-129540000D02*
X95570000Y-129540000D01*
X100090000Y-137600000D02*
X100090000Y-129540000D01*
D13*
%TO.C,L3*%
X94847100Y-143652050D02*
X94847100Y-144727950D01*
X100612900Y-144727950D02*
X100612900Y-143652050D01*
D12*
%TO.C,C12*%
X89547221Y-124890000D02*
X89872779Y-124890000D01*
X89547221Y-125910000D02*
X89872779Y-125910000D01*
%TO.C,C11*%
X82102779Y-125910000D02*
X81777221Y-125910000D01*
X82102779Y-124890000D02*
X81777221Y-124890000D01*
%TO.C,C10*%
X84917221Y-111990000D02*
X85242779Y-111990000D01*
X84917221Y-113010000D02*
X85242779Y-113010000D01*
%TO.C,C6*%
X80010000Y-115132779D02*
X80010000Y-114807221D01*
X78990000Y-115132779D02*
X78990000Y-114807221D01*
%TO.C,C7*%
X80080000Y-124457221D02*
X80080000Y-124782779D01*
X79060000Y-124457221D02*
X79060000Y-124782779D01*
%TO.C,C13*%
X91750000Y-123627221D02*
X91750000Y-123952779D01*
X92770000Y-123627221D02*
X92770000Y-123952779D01*
%TO.C,C1*%
X65860000Y-121451422D02*
X65860000Y-121968578D01*
X67280000Y-121451422D02*
X67280000Y-121968578D01*
%TO.C,C2*%
X70150000Y-125850279D02*
X70150000Y-125524721D01*
X71170000Y-125850279D02*
X71170000Y-125524721D01*
%TO.C,C3*%
X74480000Y-119651422D02*
X74480000Y-120168578D01*
X73060000Y-119651422D02*
X73060000Y-120168578D01*
%TO.C,C4*%
X77380000Y-125702064D02*
X77380000Y-124497936D01*
X75560000Y-125702064D02*
X75560000Y-124497936D01*
%TO.C,D1*%
X66860000Y-112390000D02*
X66860000Y-113320000D01*
X66860000Y-115550000D02*
X66860000Y-114620000D01*
X66860000Y-115550000D02*
X69020000Y-115550000D01*
X66860000Y-112390000D02*
X68320000Y-112390000D01*
%TO.C,L1*%
X68070000Y-125138748D02*
X68070000Y-125661252D01*
X65850000Y-125138748D02*
X65850000Y-125661252D01*
%TO.C,R1*%
X68610000Y-125850279D02*
X68610000Y-125524721D01*
X69630000Y-125850279D02*
X69630000Y-125524721D01*
%TO.C,U1*%
X71250000Y-117520000D02*
X72560000Y-117520000D01*
X72560000Y-117520000D02*
X72560000Y-120240000D01*
X68070000Y-121380000D02*
X68070000Y-120240000D01*
X67840000Y-117520000D02*
X69150000Y-117520000D01*
X67840000Y-120240000D02*
X67840000Y-117520000D01*
X67840000Y-120240000D02*
X68070000Y-120240000D01*
X72560000Y-120240000D02*
X72330000Y-120240000D01*
%TO.C,C21*%
X58877221Y-131530000D02*
X59202779Y-131530000D01*
X58877221Y-132550000D02*
X59202779Y-132550000D01*
%TO.C,X1*%
X57505000Y-136790000D02*
X60655000Y-136790000D01*
X60655000Y-136790000D02*
X60655000Y-132990000D01*
%TO.C,U5*%
X77240000Y-132005000D02*
X75550000Y-132005000D01*
X77240000Y-131730000D02*
X77240000Y-132005000D01*
X80000000Y-131730000D02*
X77240000Y-131730000D01*
X82760000Y-131730000D02*
X82760000Y-132005000D01*
X80000000Y-131730000D02*
X82760000Y-131730000D01*
X77240000Y-139150000D02*
X77240000Y-138875000D01*
X80000000Y-139150000D02*
X77240000Y-139150000D01*
X82760000Y-139150000D02*
X82760000Y-138875000D01*
X80000000Y-139150000D02*
X82760000Y-139150000D01*
%TO.C,U2*%
X76005000Y-117370000D02*
X75280000Y-117370000D01*
X79500000Y-121590000D02*
X79500000Y-120865000D01*
X78775000Y-121590000D02*
X79500000Y-121590000D01*
X75280000Y-121590000D02*
X75280000Y-120865000D01*
X76005000Y-121590000D02*
X75280000Y-121590000D01*
X79500000Y-117370000D02*
X79500000Y-118095000D01*
X78775000Y-117370000D02*
X79500000Y-117370000D01*
%TO.C,A2*%
D11*
X72748333Y-139984285D02*
X72748333Y-139674761D01*
X72934047Y-140046190D02*
X72284047Y-139829523D01*
X72934047Y-139612857D01*
X72345952Y-139427142D02*
X72315000Y-139396190D01*
X72284047Y-139334285D01*
X72284047Y-139179523D01*
X72315000Y-139117619D01*
X72345952Y-139086666D01*
X72407857Y-139055714D01*
X72469761Y-139055714D01*
X72562619Y-139086666D01*
X72934047Y-139458095D01*
X72934047Y-139055714D01*
%TO.C,A1*%
X74848333Y-139984285D02*
X74848333Y-139674761D01*
X75034047Y-140046190D02*
X74384047Y-139829523D01*
X75034047Y-139612857D01*
X75034047Y-139055714D02*
X75034047Y-139427142D01*
X75034047Y-139241428D02*
X74384047Y-139241428D01*
X74476904Y-139303333D01*
X74538809Y-139365238D01*
X74569761Y-139427142D01*
%TO.C,A0*%
X76948333Y-139984285D02*
X76948333Y-139674761D01*
X77134047Y-140046190D02*
X76484047Y-139829523D01*
X77134047Y-139612857D01*
X76484047Y-139272380D02*
X76484047Y-139210476D01*
X76515000Y-139148571D01*
X76545952Y-139117619D01*
X76607857Y-139086666D01*
X76731666Y-139055714D01*
X76886428Y-139055714D01*
X77010238Y-139086666D01*
X77072142Y-139117619D01*
X77103095Y-139148571D01*
X77134047Y-139210476D01*
X77134047Y-139272380D01*
X77103095Y-139334285D01*
X77072142Y-139365238D01*
X77010238Y-139396190D01*
X76886428Y-139427142D01*
X76731666Y-139427142D01*
X76607857Y-139396190D01*
X76545952Y-139365238D01*
X76515000Y-139334285D01*
X76484047Y-139272380D01*
%TO.C,L2*%
X71815000Y-122749285D02*
X71457857Y-122749285D01*
X71457857Y-121999285D01*
X72029285Y-122070714D02*
X72065000Y-122035000D01*
X72136428Y-121999285D01*
X72315000Y-121999285D01*
X72386428Y-122035000D01*
X72422142Y-122070714D01*
X72457857Y-122142142D01*
X72457857Y-122213571D01*
X72422142Y-122320714D01*
X71993571Y-122749285D01*
X72457857Y-122749285D01*
%TO.C,D2*%
X98696428Y-139989285D02*
X98696428Y-139239285D01*
X98875000Y-139239285D01*
X98982142Y-139275000D01*
X99053571Y-139346428D01*
X99089285Y-139417857D01*
X99125000Y-139560714D01*
X99125000Y-139667857D01*
X99089285Y-139810714D01*
X99053571Y-139882142D01*
X98982142Y-139953571D01*
X98875000Y-139989285D01*
X98696428Y-139989285D01*
X99410714Y-139310714D02*
X99446428Y-139275000D01*
X99517857Y-139239285D01*
X99696428Y-139239285D01*
X99767857Y-139275000D01*
X99803571Y-139310714D01*
X99839285Y-139382142D01*
X99839285Y-139453571D01*
X99803571Y-139560714D01*
X99375000Y-139989285D01*
X99839285Y-139989285D01*
%TO.C,R8*%
X85635000Y-146739285D02*
X85385000Y-146382142D01*
X85206428Y-146739285D02*
X85206428Y-145989285D01*
X85492142Y-145989285D01*
X85563571Y-146025000D01*
X85599285Y-146060714D01*
X85635000Y-146132142D01*
X85635000Y-146239285D01*
X85599285Y-146310714D01*
X85563571Y-146346428D01*
X85492142Y-146382142D01*
X85206428Y-146382142D01*
X86063571Y-146310714D02*
X85992142Y-146275000D01*
X85956428Y-146239285D01*
X85920714Y-146167857D01*
X85920714Y-146132142D01*
X85956428Y-146060714D01*
X85992142Y-146025000D01*
X86063571Y-145989285D01*
X86206428Y-145989285D01*
X86277857Y-146025000D01*
X86313571Y-146060714D01*
X86349285Y-146132142D01*
X86349285Y-146167857D01*
X86313571Y-146239285D01*
X86277857Y-146275000D01*
X86206428Y-146310714D01*
X86063571Y-146310714D01*
X85992142Y-146346428D01*
X85956428Y-146382142D01*
X85920714Y-146453571D01*
X85920714Y-146596428D01*
X85956428Y-146667857D01*
X85992142Y-146703571D01*
X86063571Y-146739285D01*
X86206428Y-146739285D01*
X86277857Y-146703571D01*
X86313571Y-146667857D01*
X86349285Y-146596428D01*
X86349285Y-146453571D01*
X86313571Y-146382142D01*
X86277857Y-146346428D01*
X86206428Y-146310714D01*
%TO.C,R7*%
X85485000Y-141719285D02*
X85235000Y-141362142D01*
X85056428Y-141719285D02*
X85056428Y-140969285D01*
X85342142Y-140969285D01*
X85413571Y-141005000D01*
X85449285Y-141040714D01*
X85485000Y-141112142D01*
X85485000Y-141219285D01*
X85449285Y-141290714D01*
X85413571Y-141326428D01*
X85342142Y-141362142D01*
X85056428Y-141362142D01*
X85735000Y-140969285D02*
X86235000Y-140969285D01*
X85913571Y-141719285D01*
%TO.C,R6*%
X83935000Y-140679285D02*
X83685000Y-140322142D01*
X83506428Y-140679285D02*
X83506428Y-139929285D01*
X83792142Y-139929285D01*
X83863571Y-139965000D01*
X83899285Y-140000714D01*
X83935000Y-140072142D01*
X83935000Y-140179285D01*
X83899285Y-140250714D01*
X83863571Y-140286428D01*
X83792142Y-140322142D01*
X83506428Y-140322142D01*
X84577857Y-139929285D02*
X84435000Y-139929285D01*
X84363571Y-139965000D01*
X84327857Y-140000714D01*
X84256428Y-140107857D01*
X84220714Y-140250714D01*
X84220714Y-140536428D01*
X84256428Y-140607857D01*
X84292142Y-140643571D01*
X84363571Y-140679285D01*
X84506428Y-140679285D01*
X84577857Y-140643571D01*
X84613571Y-140607857D01*
X84649285Y-140536428D01*
X84649285Y-140357857D01*
X84613571Y-140286428D01*
X84577857Y-140250714D01*
X84506428Y-140215000D01*
X84363571Y-140215000D01*
X84292142Y-140250714D01*
X84256428Y-140286428D01*
X84220714Y-140357857D01*
%TO.C,U3*%
X81338571Y-114739285D02*
X81338571Y-115346428D01*
X81374285Y-115417857D01*
X81410000Y-115453571D01*
X81481428Y-115489285D01*
X81624285Y-115489285D01*
X81695714Y-115453571D01*
X81731428Y-115417857D01*
X81767142Y-115346428D01*
X81767142Y-114739285D01*
X82052857Y-114739285D02*
X82517142Y-114739285D01*
X82267142Y-115025000D01*
X82374285Y-115025000D01*
X82445714Y-115060714D01*
X82481428Y-115096428D01*
X82517142Y-115167857D01*
X82517142Y-115346428D01*
X82481428Y-115417857D01*
X82445714Y-115453571D01*
X82374285Y-115489285D01*
X82160000Y-115489285D01*
X82088571Y-115453571D01*
X82052857Y-115417857D01*
%TO.C,U4*%
X67478571Y-134549285D02*
X67478571Y-135156428D01*
X67514285Y-135227857D01*
X67550000Y-135263571D01*
X67621428Y-135299285D01*
X67764285Y-135299285D01*
X67835714Y-135263571D01*
X67871428Y-135227857D01*
X67907142Y-135156428D01*
X67907142Y-134549285D01*
X68585714Y-134799285D02*
X68585714Y-135299285D01*
X68407142Y-134513571D02*
X68228571Y-135049285D01*
X68692857Y-135049285D01*
%TO.C,C8*%
X80735000Y-112827857D02*
X80699285Y-112863571D01*
X80592142Y-112899285D01*
X80520714Y-112899285D01*
X80413571Y-112863571D01*
X80342142Y-112792142D01*
X80306428Y-112720714D01*
X80270714Y-112577857D01*
X80270714Y-112470714D01*
X80306428Y-112327857D01*
X80342142Y-112256428D01*
X80413571Y-112185000D01*
X80520714Y-112149285D01*
X80592142Y-112149285D01*
X80699285Y-112185000D01*
X80735000Y-112220714D01*
X81163571Y-112470714D02*
X81092142Y-112435000D01*
X81056428Y-112399285D01*
X81020714Y-112327857D01*
X81020714Y-112292142D01*
X81056428Y-112220714D01*
X81092142Y-112185000D01*
X81163571Y-112149285D01*
X81306428Y-112149285D01*
X81377857Y-112185000D01*
X81413571Y-112220714D01*
X81449285Y-112292142D01*
X81449285Y-112327857D01*
X81413571Y-112399285D01*
X81377857Y-112435000D01*
X81306428Y-112470714D01*
X81163571Y-112470714D01*
X81092142Y-112506428D01*
X81056428Y-112542142D01*
X81020714Y-112613571D01*
X81020714Y-112756428D01*
X81056428Y-112827857D01*
X81092142Y-112863571D01*
X81163571Y-112899285D01*
X81306428Y-112899285D01*
X81377857Y-112863571D01*
X81413571Y-112827857D01*
X81449285Y-112756428D01*
X81449285Y-112613571D01*
X81413571Y-112542142D01*
X81377857Y-112506428D01*
X81306428Y-112470714D01*
%TO.C,C9*%
X89475000Y-112797857D02*
X89439285Y-112833571D01*
X89332142Y-112869285D01*
X89260714Y-112869285D01*
X89153571Y-112833571D01*
X89082142Y-112762142D01*
X89046428Y-112690714D01*
X89010714Y-112547857D01*
X89010714Y-112440714D01*
X89046428Y-112297857D01*
X89082142Y-112226428D01*
X89153571Y-112155000D01*
X89260714Y-112119285D01*
X89332142Y-112119285D01*
X89439285Y-112155000D01*
X89475000Y-112190714D01*
X89832142Y-112869285D02*
X89975000Y-112869285D01*
X90046428Y-112833571D01*
X90082142Y-112797857D01*
X90153571Y-112690714D01*
X90189285Y-112547857D01*
X90189285Y-112262142D01*
X90153571Y-112190714D01*
X90117857Y-112155000D01*
X90046428Y-112119285D01*
X89903571Y-112119285D01*
X89832142Y-112155000D01*
X89796428Y-112190714D01*
X89760714Y-112262142D01*
X89760714Y-112440714D01*
X89796428Y-112512142D01*
X89832142Y-112547857D01*
X89903571Y-112583571D01*
X90046428Y-112583571D01*
X90117857Y-112547857D01*
X90153571Y-112512142D01*
X90189285Y-112440714D01*
%TO.C,J1*%
D10*
X58216666Y-128342380D02*
X58216666Y-129056666D01*
X58169047Y-129199523D01*
X58073809Y-129294761D01*
X57930952Y-129342380D01*
X57835714Y-129342380D01*
X59216666Y-129342380D02*
X58645238Y-129342380D01*
X58930952Y-129342380D02*
X58930952Y-128342380D01*
X58835714Y-128485238D01*
X58740476Y-128580476D01*
X58645238Y-128628095D01*
%TO.C,J2*%
X106686666Y-128442380D02*
X106686666Y-129156666D01*
X106639047Y-129299523D01*
X106543809Y-129394761D01*
X106400952Y-129442380D01*
X106305714Y-129442380D01*
X107115238Y-128537619D02*
X107162857Y-128490000D01*
X107258095Y-128442380D01*
X107496190Y-128442380D01*
X107591428Y-128490000D01*
X107639047Y-128537619D01*
X107686666Y-128632857D01*
X107686666Y-128728095D01*
X107639047Y-128870952D01*
X107067619Y-129442380D01*
X107686666Y-129442380D01*
%TO.C,U6*%
D11*
X90098571Y-142529285D02*
X90098571Y-143136428D01*
X90134285Y-143207857D01*
X90170000Y-143243571D01*
X90241428Y-143279285D01*
X90384285Y-143279285D01*
X90455714Y-143243571D01*
X90491428Y-143207857D01*
X90527142Y-143136428D01*
X90527142Y-142529285D01*
X91205714Y-142529285D02*
X91062857Y-142529285D01*
X90991428Y-142565000D01*
X90955714Y-142600714D01*
X90884285Y-142707857D01*
X90848571Y-142850714D01*
X90848571Y-143136428D01*
X90884285Y-143207857D01*
X90920000Y-143243571D01*
X90991428Y-143279285D01*
X91134285Y-143279285D01*
X91205714Y-143243571D01*
X91241428Y-143207857D01*
X91277142Y-143136428D01*
X91277142Y-142957857D01*
X91241428Y-142886428D01*
X91205714Y-142850714D01*
X91134285Y-142815000D01*
X90991428Y-142815000D01*
X90920000Y-142850714D01*
X90884285Y-142886428D01*
X90848571Y-142957857D01*
%TO.C,C14*%
X65287857Y-131657857D02*
X65252142Y-131693571D01*
X65145000Y-131729285D01*
X65073571Y-131729285D01*
X64966428Y-131693571D01*
X64895000Y-131622142D01*
X64859285Y-131550714D01*
X64823571Y-131407857D01*
X64823571Y-131300714D01*
X64859285Y-131157857D01*
X64895000Y-131086428D01*
X64966428Y-131015000D01*
X65073571Y-130979285D01*
X65145000Y-130979285D01*
X65252142Y-131015000D01*
X65287857Y-131050714D01*
X66002142Y-131729285D02*
X65573571Y-131729285D01*
X65787857Y-131729285D02*
X65787857Y-130979285D01*
X65716428Y-131086428D01*
X65645000Y-131157857D01*
X65573571Y-131193571D01*
X66645000Y-131229285D02*
X66645000Y-131729285D01*
X66466428Y-130943571D02*
X66287857Y-131479285D01*
X66752142Y-131479285D01*
%TO.C,C15*%
X66067857Y-137517857D02*
X66032142Y-137553571D01*
X65925000Y-137589285D01*
X65853571Y-137589285D01*
X65746428Y-137553571D01*
X65675000Y-137482142D01*
X65639285Y-137410714D01*
X65603571Y-137267857D01*
X65603571Y-137160714D01*
X65639285Y-137017857D01*
X65675000Y-136946428D01*
X65746428Y-136875000D01*
X65853571Y-136839285D01*
X65925000Y-136839285D01*
X66032142Y-136875000D01*
X66067857Y-136910714D01*
X66782142Y-137589285D02*
X66353571Y-137589285D01*
X66567857Y-137589285D02*
X66567857Y-136839285D01*
X66496428Y-136946428D01*
X66425000Y-137017857D01*
X66353571Y-137053571D01*
X67460714Y-136839285D02*
X67103571Y-136839285D01*
X67067857Y-137196428D01*
X67103571Y-137160714D01*
X67175000Y-137125000D01*
X67353571Y-137125000D01*
X67425000Y-137160714D01*
X67460714Y-137196428D01*
X67496428Y-137267857D01*
X67496428Y-137446428D01*
X67460714Y-137517857D01*
X67425000Y-137553571D01*
X67353571Y-137589285D01*
X67175000Y-137589285D01*
X67103571Y-137553571D01*
X67067857Y-137517857D01*
%TO.C,C17*%
X82577857Y-141737857D02*
X82542142Y-141773571D01*
X82435000Y-141809285D01*
X82363571Y-141809285D01*
X82256428Y-141773571D01*
X82185000Y-141702142D01*
X82149285Y-141630714D01*
X82113571Y-141487857D01*
X82113571Y-141380714D01*
X82149285Y-141237857D01*
X82185000Y-141166428D01*
X82256428Y-141095000D01*
X82363571Y-141059285D01*
X82435000Y-141059285D01*
X82542142Y-141095000D01*
X82577857Y-141130714D01*
X83292142Y-141809285D02*
X82863571Y-141809285D01*
X83077857Y-141809285D02*
X83077857Y-141059285D01*
X83006428Y-141166428D01*
X82935000Y-141237857D01*
X82863571Y-141273571D01*
X83542142Y-141059285D02*
X84042142Y-141059285D01*
X83720714Y-141809285D01*
%TO.C,R4*%
X66755000Y-138649285D02*
X66505000Y-138292142D01*
X66326428Y-138649285D02*
X66326428Y-137899285D01*
X66612142Y-137899285D01*
X66683571Y-137935000D01*
X66719285Y-137970714D01*
X66755000Y-138042142D01*
X66755000Y-138149285D01*
X66719285Y-138220714D01*
X66683571Y-138256428D01*
X66612142Y-138292142D01*
X66326428Y-138292142D01*
X67397857Y-138149285D02*
X67397857Y-138649285D01*
X67219285Y-137863571D02*
X67040714Y-138399285D01*
X67505000Y-138399285D01*
%TO.C,R5*%
X66465000Y-139769285D02*
X66215000Y-139412142D01*
X66036428Y-139769285D02*
X66036428Y-139019285D01*
X66322142Y-139019285D01*
X66393571Y-139055000D01*
X66429285Y-139090714D01*
X66465000Y-139162142D01*
X66465000Y-139269285D01*
X66429285Y-139340714D01*
X66393571Y-139376428D01*
X66322142Y-139412142D01*
X66036428Y-139412142D01*
X67143571Y-139019285D02*
X66786428Y-139019285D01*
X66750714Y-139376428D01*
X66786428Y-139340714D01*
X66857857Y-139305000D01*
X67036428Y-139305000D01*
X67107857Y-139340714D01*
X67143571Y-139376428D01*
X67179285Y-139447857D01*
X67179285Y-139626428D01*
X67143571Y-139697857D01*
X67107857Y-139733571D01*
X67036428Y-139769285D01*
X66857857Y-139769285D01*
X66786428Y-139733571D01*
X66750714Y-139697857D01*
%TO.C,Y1*%
X62592857Y-132002142D02*
X62592857Y-132359285D01*
X62342857Y-131609285D02*
X62592857Y-132002142D01*
X62842857Y-131609285D01*
X63485714Y-132359285D02*
X63057142Y-132359285D01*
X63271428Y-132359285D02*
X63271428Y-131609285D01*
X63200000Y-131716428D01*
X63128571Y-131787857D01*
X63057142Y-131823571D01*
%TO.C,J3*%
D10*
X61256666Y-148032380D02*
X61256666Y-148746666D01*
X61209047Y-148889523D01*
X61113809Y-148984761D01*
X60970952Y-149032380D01*
X60875714Y-149032380D01*
X61637619Y-148032380D02*
X62256666Y-148032380D01*
X61923333Y-148413333D01*
X62066190Y-148413333D01*
X62161428Y-148460952D01*
X62209047Y-148508571D01*
X62256666Y-148603809D01*
X62256666Y-148841904D01*
X62209047Y-148937142D01*
X62161428Y-148984761D01*
X62066190Y-149032380D01*
X61780476Y-149032380D01*
X61685238Y-148984761D01*
X61637619Y-148937142D01*
%TO.C,R3*%
D11*
X87495000Y-126959285D02*
X87245000Y-126602142D01*
X87066428Y-126959285D02*
X87066428Y-126209285D01*
X87352142Y-126209285D01*
X87423571Y-126245000D01*
X87459285Y-126280714D01*
X87495000Y-126352142D01*
X87495000Y-126459285D01*
X87459285Y-126530714D01*
X87423571Y-126566428D01*
X87352142Y-126602142D01*
X87066428Y-126602142D01*
X87745000Y-126209285D02*
X88209285Y-126209285D01*
X87959285Y-126495000D01*
X88066428Y-126495000D01*
X88137857Y-126530714D01*
X88173571Y-126566428D01*
X88209285Y-126637857D01*
X88209285Y-126816428D01*
X88173571Y-126887857D01*
X88137857Y-126923571D01*
X88066428Y-126959285D01*
X87852142Y-126959285D01*
X87780714Y-126923571D01*
X87745000Y-126887857D01*
%TO.C,R2*%
X92165000Y-115279285D02*
X91915000Y-114922142D01*
X91736428Y-115279285D02*
X91736428Y-114529285D01*
X92022142Y-114529285D01*
X92093571Y-114565000D01*
X92129285Y-114600714D01*
X92165000Y-114672142D01*
X92165000Y-114779285D01*
X92129285Y-114850714D01*
X92093571Y-114886428D01*
X92022142Y-114922142D01*
X91736428Y-114922142D01*
X92450714Y-114600714D02*
X92486428Y-114565000D01*
X92557857Y-114529285D01*
X92736428Y-114529285D01*
X92807857Y-114565000D01*
X92843571Y-114600714D01*
X92879285Y-114672142D01*
X92879285Y-114743571D01*
X92843571Y-114850714D01*
X92415000Y-115279285D01*
X92879285Y-115279285D01*
%TO.C,C18*%
X89377857Y-147987857D02*
X89342142Y-148023571D01*
X89235000Y-148059285D01*
X89163571Y-148059285D01*
X89056428Y-148023571D01*
X88985000Y-147952142D01*
X88949285Y-147880714D01*
X88913571Y-147737857D01*
X88913571Y-147630714D01*
X88949285Y-147487857D01*
X88985000Y-147416428D01*
X89056428Y-147345000D01*
X89163571Y-147309285D01*
X89235000Y-147309285D01*
X89342142Y-147345000D01*
X89377857Y-147380714D01*
X90092142Y-148059285D02*
X89663571Y-148059285D01*
X89877857Y-148059285D02*
X89877857Y-147309285D01*
X89806428Y-147416428D01*
X89735000Y-147487857D01*
X89663571Y-147523571D01*
X90520714Y-147630714D02*
X90449285Y-147595000D01*
X90413571Y-147559285D01*
X90377857Y-147487857D01*
X90377857Y-147452142D01*
X90413571Y-147380714D01*
X90449285Y-147345000D01*
X90520714Y-147309285D01*
X90663571Y-147309285D01*
X90735000Y-147345000D01*
X90770714Y-147380714D01*
X90806428Y-147452142D01*
X90806428Y-147487857D01*
X90770714Y-147559285D01*
X90735000Y-147595000D01*
X90663571Y-147630714D01*
X90520714Y-147630714D01*
X90449285Y-147666428D01*
X90413571Y-147702142D01*
X90377857Y-147773571D01*
X90377857Y-147916428D01*
X90413571Y-147987857D01*
X90449285Y-148023571D01*
X90520714Y-148059285D01*
X90663571Y-148059285D01*
X90735000Y-148023571D01*
X90770714Y-147987857D01*
X90806428Y-147916428D01*
X90806428Y-147773571D01*
X90770714Y-147702142D01*
X90735000Y-147666428D01*
X90663571Y-147630714D01*
%TO.C,C16*%
X84947857Y-147887857D02*
X84912142Y-147923571D01*
X84805000Y-147959285D01*
X84733571Y-147959285D01*
X84626428Y-147923571D01*
X84555000Y-147852142D01*
X84519285Y-147780714D01*
X84483571Y-147637857D01*
X84483571Y-147530714D01*
X84519285Y-147387857D01*
X84555000Y-147316428D01*
X84626428Y-147245000D01*
X84733571Y-147209285D01*
X84805000Y-147209285D01*
X84912142Y-147245000D01*
X84947857Y-147280714D01*
X85662142Y-147959285D02*
X85233571Y-147959285D01*
X85447857Y-147959285D02*
X85447857Y-147209285D01*
X85376428Y-147316428D01*
X85305000Y-147387857D01*
X85233571Y-147423571D01*
X86305000Y-147209285D02*
X86162142Y-147209285D01*
X86090714Y-147245000D01*
X86055000Y-147280714D01*
X85983571Y-147387857D01*
X85947857Y-147530714D01*
X85947857Y-147816428D01*
X85983571Y-147887857D01*
X86019285Y-147923571D01*
X86090714Y-147959285D01*
X86233571Y-147959285D01*
X86305000Y-147923571D01*
X86340714Y-147887857D01*
X86376428Y-147816428D01*
X86376428Y-147637857D01*
X86340714Y-147566428D01*
X86305000Y-147530714D01*
X86233571Y-147495000D01*
X86090714Y-147495000D01*
X86019285Y-147530714D01*
X85983571Y-147566428D01*
X85947857Y-147637857D01*
%TO.C,C19*%
X89667857Y-134327857D02*
X89632142Y-134363571D01*
X89525000Y-134399285D01*
X89453571Y-134399285D01*
X89346428Y-134363571D01*
X89275000Y-134292142D01*
X89239285Y-134220714D01*
X89203571Y-134077857D01*
X89203571Y-133970714D01*
X89239285Y-133827857D01*
X89275000Y-133756428D01*
X89346428Y-133685000D01*
X89453571Y-133649285D01*
X89525000Y-133649285D01*
X89632142Y-133685000D01*
X89667857Y-133720714D01*
X90382142Y-134399285D02*
X89953571Y-134399285D01*
X90167857Y-134399285D02*
X90167857Y-133649285D01*
X90096428Y-133756428D01*
X90025000Y-133827857D01*
X89953571Y-133863571D01*
X90739285Y-134399285D02*
X90882142Y-134399285D01*
X90953571Y-134363571D01*
X90989285Y-134327857D01*
X91060714Y-134220714D01*
X91096428Y-134077857D01*
X91096428Y-133792142D01*
X91060714Y-133720714D01*
X91025000Y-133685000D01*
X90953571Y-133649285D01*
X90810714Y-133649285D01*
X90739285Y-133685000D01*
X90703571Y-133720714D01*
X90667857Y-133792142D01*
X90667857Y-133970714D01*
X90703571Y-134042142D01*
X90739285Y-134077857D01*
X90810714Y-134113571D01*
X90953571Y-134113571D01*
X91025000Y-134077857D01*
X91060714Y-134042142D01*
X91096428Y-133970714D01*
%TO.C,C20*%
X97447857Y-129157857D02*
X97412142Y-129193571D01*
X97305000Y-129229285D01*
X97233571Y-129229285D01*
X97126428Y-129193571D01*
X97055000Y-129122142D01*
X97019285Y-129050714D01*
X96983571Y-128907857D01*
X96983571Y-128800714D01*
X97019285Y-128657857D01*
X97055000Y-128586428D01*
X97126428Y-128515000D01*
X97233571Y-128479285D01*
X97305000Y-128479285D01*
X97412142Y-128515000D01*
X97447857Y-128550714D01*
X97733571Y-128550714D02*
X97769285Y-128515000D01*
X97840714Y-128479285D01*
X98019285Y-128479285D01*
X98090714Y-128515000D01*
X98126428Y-128550714D01*
X98162142Y-128622142D01*
X98162142Y-128693571D01*
X98126428Y-128800714D01*
X97697857Y-129229285D01*
X98162142Y-129229285D01*
X98626428Y-128479285D02*
X98697857Y-128479285D01*
X98769285Y-128515000D01*
X98805000Y-128550714D01*
X98840714Y-128622142D01*
X98876428Y-128765000D01*
X98876428Y-128943571D01*
X98840714Y-129086428D01*
X98805000Y-129157857D01*
X98769285Y-129193571D01*
X98697857Y-129229285D01*
X98626428Y-129229285D01*
X98555000Y-129193571D01*
X98519285Y-129157857D01*
X98483571Y-129086428D01*
X98447857Y-128943571D01*
X98447857Y-128765000D01*
X98483571Y-128622142D01*
X98519285Y-128550714D01*
X98555000Y-128515000D01*
X98626428Y-128479285D01*
%TO.C,L3*%
X101625000Y-141349285D02*
X101267857Y-141349285D01*
X101267857Y-140599285D01*
X101803571Y-140599285D02*
X102267857Y-140599285D01*
X102017857Y-140885000D01*
X102125000Y-140885000D01*
X102196428Y-140920714D01*
X102232142Y-140956428D01*
X102267857Y-141027857D01*
X102267857Y-141206428D01*
X102232142Y-141277857D01*
X102196428Y-141313571D01*
X102125000Y-141349285D01*
X101910714Y-141349285D01*
X101839285Y-141313571D01*
X101803571Y-141277857D01*
D10*
X97182380Y-140126000D02*
X97420476Y-140126000D01*
X97325238Y-140364095D02*
X97420476Y-140126000D01*
X97325238Y-139887904D01*
X97610952Y-140268857D02*
X97420476Y-140126000D01*
X97610952Y-139983142D01*
X97182380Y-140126000D02*
X97420476Y-140126000D01*
X97325238Y-140364095D02*
X97420476Y-140126000D01*
X97325238Y-139887904D01*
X97610952Y-140268857D02*
X97420476Y-140126000D01*
X97610952Y-139983142D01*
%TO.C,C12*%
D14*
X86277857Y-125657857D02*
X86242142Y-125693571D01*
X86135000Y-125729285D01*
X86063571Y-125729285D01*
X85956428Y-125693571D01*
X85885000Y-125622142D01*
X85849285Y-125550714D01*
X85813571Y-125407857D01*
X85813571Y-125300714D01*
X85849285Y-125157857D01*
X85885000Y-125086428D01*
X85956428Y-125015000D01*
X86063571Y-124979285D01*
X86135000Y-124979285D01*
X86242142Y-125015000D01*
X86277857Y-125050714D01*
X86992142Y-125729285D02*
X86563571Y-125729285D01*
X86777857Y-125729285D02*
X86777857Y-124979285D01*
X86706428Y-125086428D01*
X86635000Y-125157857D01*
X86563571Y-125193571D01*
X87277857Y-125050714D02*
X87313571Y-125015000D01*
X87385000Y-124979285D01*
X87563571Y-124979285D01*
X87635000Y-125015000D01*
X87670714Y-125050714D01*
X87706428Y-125122142D01*
X87706428Y-125193571D01*
X87670714Y-125300714D01*
X87242142Y-125729285D01*
X87706428Y-125729285D01*
%TO.C,C11*%
D11*
X83927857Y-125687857D02*
X83892142Y-125723571D01*
X83785000Y-125759285D01*
X83713571Y-125759285D01*
X83606428Y-125723571D01*
X83535000Y-125652142D01*
X83499285Y-125580714D01*
X83463571Y-125437857D01*
X83463571Y-125330714D01*
X83499285Y-125187857D01*
X83535000Y-125116428D01*
X83606428Y-125045000D01*
X83713571Y-125009285D01*
X83785000Y-125009285D01*
X83892142Y-125045000D01*
X83927857Y-125080714D01*
X84642142Y-125759285D02*
X84213571Y-125759285D01*
X84427857Y-125759285D02*
X84427857Y-125009285D01*
X84356428Y-125116428D01*
X84285000Y-125187857D01*
X84213571Y-125223571D01*
X85356428Y-125759285D02*
X84927857Y-125759285D01*
X85142142Y-125759285D02*
X85142142Y-125009285D01*
X85070714Y-125116428D01*
X84999285Y-125187857D01*
X84927857Y-125223571D01*
%TO.C,C10*%
X84597857Y-111337857D02*
X84562142Y-111373571D01*
X84455000Y-111409285D01*
X84383571Y-111409285D01*
X84276428Y-111373571D01*
X84205000Y-111302142D01*
X84169285Y-111230714D01*
X84133571Y-111087857D01*
X84133571Y-110980714D01*
X84169285Y-110837857D01*
X84205000Y-110766428D01*
X84276428Y-110695000D01*
X84383571Y-110659285D01*
X84455000Y-110659285D01*
X84562142Y-110695000D01*
X84597857Y-110730714D01*
X85312142Y-111409285D02*
X84883571Y-111409285D01*
X85097857Y-111409285D02*
X85097857Y-110659285D01*
X85026428Y-110766428D01*
X84955000Y-110837857D01*
X84883571Y-110873571D01*
X85776428Y-110659285D02*
X85847857Y-110659285D01*
X85919285Y-110695000D01*
X85955000Y-110730714D01*
X85990714Y-110802142D01*
X86026428Y-110945000D01*
X86026428Y-111123571D01*
X85990714Y-111266428D01*
X85955000Y-111337857D01*
X85919285Y-111373571D01*
X85847857Y-111409285D01*
X85776428Y-111409285D01*
X85705000Y-111373571D01*
X85669285Y-111337857D01*
X85633571Y-111266428D01*
X85597857Y-111123571D01*
X85597857Y-110945000D01*
X85633571Y-110802142D01*
X85669285Y-110730714D01*
X85705000Y-110695000D01*
X85776428Y-110659285D01*
%TO.C,C6*%
X78045000Y-115387857D02*
X78009285Y-115423571D01*
X77902142Y-115459285D01*
X77830714Y-115459285D01*
X77723571Y-115423571D01*
X77652142Y-115352142D01*
X77616428Y-115280714D01*
X77580714Y-115137857D01*
X77580714Y-115030714D01*
X77616428Y-114887857D01*
X77652142Y-114816428D01*
X77723571Y-114745000D01*
X77830714Y-114709285D01*
X77902142Y-114709285D01*
X78009285Y-114745000D01*
X78045000Y-114780714D01*
X78687857Y-114709285D02*
X78545000Y-114709285D01*
X78473571Y-114745000D01*
X78437857Y-114780714D01*
X78366428Y-114887857D01*
X78330714Y-115030714D01*
X78330714Y-115316428D01*
X78366428Y-115387857D01*
X78402142Y-115423571D01*
X78473571Y-115459285D01*
X78616428Y-115459285D01*
X78687857Y-115423571D01*
X78723571Y-115387857D01*
X78759285Y-115316428D01*
X78759285Y-115137857D01*
X78723571Y-115066428D01*
X78687857Y-115030714D01*
X78616428Y-114995000D01*
X78473571Y-114995000D01*
X78402142Y-115030714D01*
X78366428Y-115066428D01*
X78330714Y-115137857D01*
%TO.C,C7*%
X79475000Y-122827857D02*
X79439285Y-122863571D01*
X79332142Y-122899285D01*
X79260714Y-122899285D01*
X79153571Y-122863571D01*
X79082142Y-122792142D01*
X79046428Y-122720714D01*
X79010714Y-122577857D01*
X79010714Y-122470714D01*
X79046428Y-122327857D01*
X79082142Y-122256428D01*
X79153571Y-122185000D01*
X79260714Y-122149285D01*
X79332142Y-122149285D01*
X79439285Y-122185000D01*
X79475000Y-122220714D01*
X79725000Y-122149285D02*
X80225000Y-122149285D01*
X79903571Y-122899285D01*
%TO.C,C13*%
X91667857Y-121977857D02*
X91632142Y-122013571D01*
X91525000Y-122049285D01*
X91453571Y-122049285D01*
X91346428Y-122013571D01*
X91275000Y-121942142D01*
X91239285Y-121870714D01*
X91203571Y-121727857D01*
X91203571Y-121620714D01*
X91239285Y-121477857D01*
X91275000Y-121406428D01*
X91346428Y-121335000D01*
X91453571Y-121299285D01*
X91525000Y-121299285D01*
X91632142Y-121335000D01*
X91667857Y-121370714D01*
X92382142Y-122049285D02*
X91953571Y-122049285D01*
X92167857Y-122049285D02*
X92167857Y-121299285D01*
X92096428Y-121406428D01*
X92025000Y-121477857D01*
X91953571Y-121513571D01*
X92632142Y-121299285D02*
X93096428Y-121299285D01*
X92846428Y-121585000D01*
X92953571Y-121585000D01*
X93025000Y-121620714D01*
X93060714Y-121656428D01*
X93096428Y-121727857D01*
X93096428Y-121906428D01*
X93060714Y-121977857D01*
X93025000Y-122013571D01*
X92953571Y-122049285D01*
X92739285Y-122049285D01*
X92667857Y-122013571D01*
X92632142Y-121977857D01*
%TO.C,C1*%
X66495000Y-119837857D02*
X66459285Y-119873571D01*
X66352142Y-119909285D01*
X66280714Y-119909285D01*
X66173571Y-119873571D01*
X66102142Y-119802142D01*
X66066428Y-119730714D01*
X66030714Y-119587857D01*
X66030714Y-119480714D01*
X66066428Y-119337857D01*
X66102142Y-119266428D01*
X66173571Y-119195000D01*
X66280714Y-119159285D01*
X66352142Y-119159285D01*
X66459285Y-119195000D01*
X66495000Y-119230714D01*
X67209285Y-119909285D02*
X66780714Y-119909285D01*
X66995000Y-119909285D02*
X66995000Y-119159285D01*
X66923571Y-119266428D01*
X66852142Y-119337857D01*
X66780714Y-119373571D01*
%TO.C,C2*%
X70515000Y-123957857D02*
X70479285Y-123993571D01*
X70372142Y-124029285D01*
X70300714Y-124029285D01*
X70193571Y-123993571D01*
X70122142Y-123922142D01*
X70086428Y-123850714D01*
X70050714Y-123707857D01*
X70050714Y-123600714D01*
X70086428Y-123457857D01*
X70122142Y-123386428D01*
X70193571Y-123315000D01*
X70300714Y-123279285D01*
X70372142Y-123279285D01*
X70479285Y-123315000D01*
X70515000Y-123350714D01*
X70800714Y-123350714D02*
X70836428Y-123315000D01*
X70907857Y-123279285D01*
X71086428Y-123279285D01*
X71157857Y-123315000D01*
X71193571Y-123350714D01*
X71229285Y-123422142D01*
X71229285Y-123493571D01*
X71193571Y-123600714D01*
X70765000Y-124029285D01*
X71229285Y-124029285D01*
%TO.C,C3*%
X73575000Y-118017857D02*
X73539285Y-118053571D01*
X73432142Y-118089285D01*
X73360714Y-118089285D01*
X73253571Y-118053571D01*
X73182142Y-117982142D01*
X73146428Y-117910714D01*
X73110714Y-117767857D01*
X73110714Y-117660714D01*
X73146428Y-117517857D01*
X73182142Y-117446428D01*
X73253571Y-117375000D01*
X73360714Y-117339285D01*
X73432142Y-117339285D01*
X73539285Y-117375000D01*
X73575000Y-117410714D01*
X73825000Y-117339285D02*
X74289285Y-117339285D01*
X74039285Y-117625000D01*
X74146428Y-117625000D01*
X74217857Y-117660714D01*
X74253571Y-117696428D01*
X74289285Y-117767857D01*
X74289285Y-117946428D01*
X74253571Y-118017857D01*
X74217857Y-118053571D01*
X74146428Y-118089285D01*
X73932142Y-118089285D01*
X73860714Y-118053571D01*
X73825000Y-118017857D01*
%TO.C,C4*%
X77785000Y-122867857D02*
X77749285Y-122903571D01*
X77642142Y-122939285D01*
X77570714Y-122939285D01*
X77463571Y-122903571D01*
X77392142Y-122832142D01*
X77356428Y-122760714D01*
X77320714Y-122617857D01*
X77320714Y-122510714D01*
X77356428Y-122367857D01*
X77392142Y-122296428D01*
X77463571Y-122225000D01*
X77570714Y-122189285D01*
X77642142Y-122189285D01*
X77749285Y-122225000D01*
X77785000Y-122260714D01*
X78427857Y-122439285D02*
X78427857Y-122939285D01*
X78249285Y-122153571D02*
X78070714Y-122689285D01*
X78535000Y-122689285D01*
%TO.C,D1*%
X66046428Y-116739285D02*
X66046428Y-115989285D01*
X66225000Y-115989285D01*
X66332142Y-116025000D01*
X66403571Y-116096428D01*
X66439285Y-116167857D01*
X66475000Y-116310714D01*
X66475000Y-116417857D01*
X66439285Y-116560714D01*
X66403571Y-116632142D01*
X66332142Y-116703571D01*
X66225000Y-116739285D01*
X66046428Y-116739285D01*
X67189285Y-116739285D02*
X66760714Y-116739285D01*
X66975000Y-116739285D02*
X66975000Y-115989285D01*
X66903571Y-116096428D01*
X66832142Y-116167857D01*
X66760714Y-116203571D01*
%TO.C,L1*%
X68005000Y-123199285D02*
X67647857Y-123199285D01*
X67647857Y-122449285D01*
X68647857Y-123199285D02*
X68219285Y-123199285D01*
X68433571Y-123199285D02*
X68433571Y-122449285D01*
X68362142Y-122556428D01*
X68290714Y-122627857D01*
X68219285Y-122663571D01*
%TO.C,R1*%
X69015000Y-124109285D02*
X68765000Y-123752142D01*
X68586428Y-124109285D02*
X68586428Y-123359285D01*
X68872142Y-123359285D01*
X68943571Y-123395000D01*
X68979285Y-123430714D01*
X69015000Y-123502142D01*
X69015000Y-123609285D01*
X68979285Y-123680714D01*
X68943571Y-123716428D01*
X68872142Y-123752142D01*
X68586428Y-123752142D01*
X69729285Y-124109285D02*
X69300714Y-124109285D01*
X69515000Y-124109285D02*
X69515000Y-123359285D01*
X69443571Y-123466428D01*
X69372142Y-123537857D01*
X69300714Y-123573571D01*
%TO.C,U1*%
X69628571Y-115709285D02*
X69628571Y-116316428D01*
X69664285Y-116387857D01*
X69700000Y-116423571D01*
X69771428Y-116459285D01*
X69914285Y-116459285D01*
X69985714Y-116423571D01*
X70021428Y-116387857D01*
X70057142Y-116316428D01*
X70057142Y-115709285D01*
X70807142Y-116459285D02*
X70378571Y-116459285D01*
X70592857Y-116459285D02*
X70592857Y-115709285D01*
X70521428Y-115816428D01*
X70450000Y-115887857D01*
X70378571Y-115923571D01*
%TO.C,C21*%
X58557857Y-130877857D02*
X58522142Y-130913571D01*
X58415000Y-130949285D01*
X58343571Y-130949285D01*
X58236428Y-130913571D01*
X58165000Y-130842142D01*
X58129285Y-130770714D01*
X58093571Y-130627857D01*
X58093571Y-130520714D01*
X58129285Y-130377857D01*
X58165000Y-130306428D01*
X58236428Y-130235000D01*
X58343571Y-130199285D01*
X58415000Y-130199285D01*
X58522142Y-130235000D01*
X58557857Y-130270714D01*
X58843571Y-130270714D02*
X58879285Y-130235000D01*
X58950714Y-130199285D01*
X59129285Y-130199285D01*
X59200714Y-130235000D01*
X59236428Y-130270714D01*
X59272142Y-130342142D01*
X59272142Y-130413571D01*
X59236428Y-130520714D01*
X58807857Y-130949285D01*
X59272142Y-130949285D01*
X59986428Y-130949285D02*
X59557857Y-130949285D01*
X59772142Y-130949285D02*
X59772142Y-130199285D01*
X59700714Y-130306428D01*
X59629285Y-130377857D01*
X59557857Y-130413571D01*
%TO.C,R9*%
X57615000Y-137839285D02*
X57365000Y-137482142D01*
X57186428Y-137839285D02*
X57186428Y-137089285D01*
X57472142Y-137089285D01*
X57543571Y-137125000D01*
X57579285Y-137160714D01*
X57615000Y-137232142D01*
X57615000Y-137339285D01*
X57579285Y-137410714D01*
X57543571Y-137446428D01*
X57472142Y-137482142D01*
X57186428Y-137482142D01*
X57972142Y-137839285D02*
X58115000Y-137839285D01*
X58186428Y-137803571D01*
X58222142Y-137767857D01*
X58293571Y-137660714D01*
X58329285Y-137517857D01*
X58329285Y-137232142D01*
X58293571Y-137160714D01*
X58257857Y-137125000D01*
X58186428Y-137089285D01*
X58043571Y-137089285D01*
X57972142Y-137125000D01*
X57936428Y-137160714D01*
X57900714Y-137232142D01*
X57900714Y-137410714D01*
X57936428Y-137482142D01*
X57972142Y-137517857D01*
X58043571Y-137553571D01*
X58186428Y-137553571D01*
X58257857Y-137517857D01*
X58293571Y-137482142D01*
X58329285Y-137410714D01*
%TO.C,X1*%
X56022857Y-134479285D02*
X56522857Y-135229285D01*
X56522857Y-134479285D02*
X56022857Y-135229285D01*
X57201428Y-135229285D02*
X56772857Y-135229285D01*
X56987142Y-135229285D02*
X56987142Y-134479285D01*
X56915714Y-134586428D01*
X56844285Y-134657857D01*
X56772857Y-134693571D01*
%TO.C,R10*%
X75242142Y-122824047D02*
X75025476Y-122514523D01*
X74870714Y-122824047D02*
X74870714Y-122174047D01*
X75118333Y-122174047D01*
X75180238Y-122205000D01*
X75211190Y-122235952D01*
X75242142Y-122297857D01*
X75242142Y-122390714D01*
X75211190Y-122452619D01*
X75180238Y-122483571D01*
X75118333Y-122514523D01*
X74870714Y-122514523D01*
X75861190Y-122824047D02*
X75489761Y-122824047D01*
X75675476Y-122824047D02*
X75675476Y-122174047D01*
X75613571Y-122266904D01*
X75551666Y-122328809D01*
X75489761Y-122359761D01*
X76263571Y-122174047D02*
X76325476Y-122174047D01*
X76387380Y-122205000D01*
X76418333Y-122235952D01*
X76449285Y-122297857D01*
X76480238Y-122421666D01*
X76480238Y-122576428D01*
X76449285Y-122700238D01*
X76418333Y-122762142D01*
X76387380Y-122793095D01*
X76325476Y-122824047D01*
X76263571Y-122824047D01*
X76201666Y-122793095D01*
X76170714Y-122762142D01*
X76139761Y-122700238D01*
X76108809Y-122576428D01*
X76108809Y-122421666D01*
X76139761Y-122297857D01*
X76170714Y-122235952D01*
X76201666Y-122205000D01*
X76263571Y-122174047D01*
%TO.C,U5*%
X79978571Y-130609285D02*
X79978571Y-131216428D01*
X80014285Y-131287857D01*
X80050000Y-131323571D01*
X80121428Y-131359285D01*
X80264285Y-131359285D01*
X80335714Y-131323571D01*
X80371428Y-131287857D01*
X80407142Y-131216428D01*
X80407142Y-130609285D01*
X81121428Y-130609285D02*
X80764285Y-130609285D01*
X80728571Y-130966428D01*
X80764285Y-130930714D01*
X80835714Y-130895000D01*
X81014285Y-130895000D01*
X81085714Y-130930714D01*
X81121428Y-130966428D01*
X81157142Y-131037857D01*
X81157142Y-131216428D01*
X81121428Y-131287857D01*
X81085714Y-131323571D01*
X81014285Y-131359285D01*
X80835714Y-131359285D01*
X80764285Y-131323571D01*
X80728571Y-131287857D01*
%TO.C,U2*%
X76818571Y-115769285D02*
X76818571Y-116376428D01*
X76854285Y-116447857D01*
X76890000Y-116483571D01*
X76961428Y-116519285D01*
X77104285Y-116519285D01*
X77175714Y-116483571D01*
X77211428Y-116447857D01*
X77247142Y-116376428D01*
X77247142Y-115769285D01*
X77568571Y-115840714D02*
X77604285Y-115805000D01*
X77675714Y-115769285D01*
X77854285Y-115769285D01*
X77925714Y-115805000D01*
X77961428Y-115840714D01*
X77997142Y-115912142D01*
X77997142Y-115983571D01*
X77961428Y-116090714D01*
X77532857Y-116519285D01*
X77997142Y-116519285D01*
%TO.C,C5*%
X78051666Y-125052142D02*
X78020714Y-125083095D01*
X77927857Y-125114047D01*
X77865952Y-125114047D01*
X77773095Y-125083095D01*
X77711190Y-125021190D01*
X77680238Y-124959285D01*
X77649285Y-124835476D01*
X77649285Y-124742619D01*
X77680238Y-124618809D01*
X77711190Y-124556904D01*
X77773095Y-124495000D01*
X77865952Y-124464047D01*
X77927857Y-124464047D01*
X78020714Y-124495000D01*
X78051666Y-124525952D01*
X78639761Y-124464047D02*
X78330238Y-124464047D01*
X78299285Y-124773571D01*
X78330238Y-124742619D01*
X78392142Y-124711666D01*
X78546904Y-124711666D01*
X78608809Y-124742619D01*
X78639761Y-124773571D01*
X78670714Y-124835476D01*
X78670714Y-124990238D01*
X78639761Y-125052142D01*
X78608809Y-125083095D01*
X78546904Y-125114047D01*
X78392142Y-125114047D01*
X78330238Y-125083095D01*
X78299285Y-125052142D01*
%TO.C,R11*%
X80192142Y-141154047D02*
X79975476Y-140844523D01*
X79820714Y-141154047D02*
X79820714Y-140504047D01*
X80068333Y-140504047D01*
X80130238Y-140535000D01*
X80161190Y-140565952D01*
X80192142Y-140627857D01*
X80192142Y-140720714D01*
X80161190Y-140782619D01*
X80130238Y-140813571D01*
X80068333Y-140844523D01*
X79820714Y-140844523D01*
X80811190Y-141154047D02*
X80439761Y-141154047D01*
X80625476Y-141154047D02*
X80625476Y-140504047D01*
X80563571Y-140596904D01*
X80501666Y-140658809D01*
X80439761Y-140689761D01*
X81430238Y-141154047D02*
X81058809Y-141154047D01*
X81244523Y-141154047D02*
X81244523Y-140504047D01*
X81182619Y-140596904D01*
X81120714Y-140658809D01*
X81058809Y-140689761D01*
%TO.C,R12*%
X72334047Y-131157857D02*
X72024523Y-131374523D01*
X72334047Y-131529285D02*
X71684047Y-131529285D01*
X71684047Y-131281666D01*
X71715000Y-131219761D01*
X71745952Y-131188809D01*
X71807857Y-131157857D01*
X71900714Y-131157857D01*
X71962619Y-131188809D01*
X71993571Y-131219761D01*
X72024523Y-131281666D01*
X72024523Y-131529285D01*
X72334047Y-130538809D02*
X72334047Y-130910238D01*
X72334047Y-130724523D02*
X71684047Y-130724523D01*
X71776904Y-130786428D01*
X71838809Y-130848333D01*
X71869761Y-130910238D01*
X71745952Y-130291190D02*
X71715000Y-130260238D01*
X71684047Y-130198333D01*
X71684047Y-130043571D01*
X71715000Y-129981666D01*
X71745952Y-129950714D01*
X71807857Y-129919761D01*
X71869761Y-129919761D01*
X71962619Y-129950714D01*
X72334047Y-130322142D01*
X72334047Y-129919761D01*
%TO.C,R13*%
X73334047Y-131157857D02*
X73024523Y-131374523D01*
X73334047Y-131529285D02*
X72684047Y-131529285D01*
X72684047Y-131281666D01*
X72715000Y-131219761D01*
X72745952Y-131188809D01*
X72807857Y-131157857D01*
X72900714Y-131157857D01*
X72962619Y-131188809D01*
X72993571Y-131219761D01*
X73024523Y-131281666D01*
X73024523Y-131529285D01*
X73334047Y-130538809D02*
X73334047Y-130910238D01*
X73334047Y-130724523D02*
X72684047Y-130724523D01*
X72776904Y-130786428D01*
X72838809Y-130848333D01*
X72869761Y-130910238D01*
X72684047Y-130322142D02*
X72684047Y-129919761D01*
X72931666Y-130136428D01*
X72931666Y-130043571D01*
X72962619Y-129981666D01*
X72993571Y-129950714D01*
X73055476Y-129919761D01*
X73210238Y-129919761D01*
X73272142Y-129950714D01*
X73303095Y-129981666D01*
X73334047Y-130043571D01*
X73334047Y-130229285D01*
X73303095Y-130291190D01*
X73272142Y-130322142D01*
%TO.C,R14*%
X74444047Y-131157857D02*
X74134523Y-131374523D01*
X74444047Y-131529285D02*
X73794047Y-131529285D01*
X73794047Y-131281666D01*
X73825000Y-131219761D01*
X73855952Y-131188809D01*
X73917857Y-131157857D01*
X74010714Y-131157857D01*
X74072619Y-131188809D01*
X74103571Y-131219761D01*
X74134523Y-131281666D01*
X74134523Y-131529285D01*
X74444047Y-130538809D02*
X74444047Y-130910238D01*
X74444047Y-130724523D02*
X73794047Y-130724523D01*
X73886904Y-130786428D01*
X73948809Y-130848333D01*
X73979761Y-130910238D01*
X74010714Y-129981666D02*
X74444047Y-129981666D01*
X73763095Y-130136428D02*
X74227380Y-130291190D01*
X74227380Y-129888809D01*
%TD*%
M02*
