M48
; DRILL file {KiCad (5.1.6-0-10_14)} date Tuesday, February 23, 2021 at 09:24:50 AM
; FORMAT={-:-/ absolute / inch / decimal}
; #@! TF.CreationDate,2021-02-23T09:24:50-06:00
; #@! TF.GenerationSoftware,Kicad,Pcbnew,(5.1.6-0-10_14)
; #@! TF.FileFunction,Plated,1,2,PTH
FMAT,2
INCH
T1C0.0118
T2C0.0157
T3C0.0181
T4C0.0394
T5C0.1260
%
G90
G05
T1
X2.6476Y-5.4441
X2.6551Y-5.4874
X2.8331Y-5.2646
X2.8751Y-5.2959
X2.9449Y-4.5913
X2.953Y-5.2652
X2.9602Y-5.2959
X2.9696Y-4.6495
X3.0112Y-4.5629
X3.0494Y-4.5709
X3.0673Y-5.345
X3.0799Y-4.5791
X3.0941Y-5.487
X3.1071Y-5.2079
X3.111Y-4.6071
X3.124Y-5.4441
X3.1402Y-5.2339
X3.152Y-5.4681
X3.1666Y-5.2511
X3.1902Y-5.2748
X3.2138Y-5.298
X3.2374Y-5.3197
T2
X2.435Y-5.4004
X2.5175Y-5.1547
X2.6453Y-5.2126
X2.6689Y-4.489
X2.6839Y-5.3661
X2.6945Y-4.3972
X2.6957Y-5.2846
X2.7319Y-4.8551
X2.7661Y-4.7295
X2.7736Y-5.0476
X2.9173Y-5.1508
X2.9441Y-5.3591
X2.9681Y-5.6457
X3.0055Y-5.0469
X3.0071Y-4.8169
X3.1102Y-4.4642
X3.1472Y-4.8307
X3.1634Y-4.9748
X3.1638Y-4.635
X3.22Y-4.5281
X3.2504Y-4.9929
X3.2996Y-4.6055
X3.3008Y-4.763
X3.3299Y-4.902
X3.3724Y-5.7563
X3.3803Y-4.4732
X3.4299Y-4.7878
X3.435Y-4.9791
X3.461Y-4.6039
X3.4665Y-4.7614
X3.5409Y-4.5075
X3.548Y-4.8748
X3.589Y-4.8417
X3.5986Y-5.5022
X3.6327Y-4.5083
X3.6327Y-4.6862
X3.6327Y-4.9622
X3.6665Y-5.7531
X3.7551Y-4.872
X3.848Y-5.6862
X3.8531Y-5.2252
X3.8894Y-5.4953
X3.9294Y-5.1511
T3
X2.4181Y-4.6307
X2.4181Y-4.9756
X4.076Y-4.6307
X4.076Y-4.9756
T4
X2.6256Y-5.7402
X2.7256Y-5.7402
X2.8256Y-5.7402
X2.9256Y-5.7402
X3.0256Y-5.7402
X3.1256Y-5.7402
T5
X2.3622Y-4.3307
X4.1339Y-4.3307
X2.3622Y-5.7087
X4.1339Y-5.7
T0
M30
