%TF.GenerationSoftware,KiCad,Pcbnew,(5.1.6-0-10_14)*%
%TF.CreationDate,2021-02-23T09:24:48-06:00*%
%TF.ProjectId,MBFrontEnd,4d424672-6f6e-4744-956e-642e6b696361,rev?*%
%TF.SameCoordinates,Original*%
%TF.FileFunction,Soldermask,Top*%
%TF.FilePolarity,Negative*%
%FSLAX46Y46*%
G04 Gerber Fmt 4.6, Leading zero omitted, Abs format (unit mm)*
G04 Created by KiCad (PCBNEW (5.1.6-0-10_14)) date 2021-02-23 09:24:48*
%MOMM*%
%LPD*%
G01*
G04 APERTURE LIST*
%ADD10C,0.100000*%
%ADD11R,1.100000X4.650000*%
%ADD12R,1.100000X3.900000*%
%ADD13R,4.080000X1.100000*%
%ADD14R,3.900000X1.100000*%
%ADD15R,1.100000X1.100000*%
%ADD16R,0.862000X1.370000*%
%ADD17R,0.700000X0.550000*%
%ADD18C,6.500000*%
%ADD19R,0.800000X2.025000*%
%ADD20R,2.025000X0.800000*%
%ADD21R,1.500000X0.400000*%
%ADD22R,5.180000X2.390000*%
%ADD23R,5.180000X2.520000*%
%ADD24R,1.300000X1.500000*%
%ADD25R,1.800000X1.800000*%
%ADD26O,1.800000X1.800000*%
%ADD27R,5.611800X2.259000*%
%ADD28R,1.000000X0.900000*%
%ADD29R,1.000000X1.400000*%
%ADD30R,1.200000X1.400000*%
%ADD31R,2.700000X2.700000*%
G04 APERTURE END LIST*
D10*
%TO.C,A2*%
G36*
X74049398Y-142256111D02*
G01*
X74049398Y-142274534D01*
X74049157Y-142279435D01*
X74044347Y-142328266D01*
X74043627Y-142333119D01*
X74034055Y-142381244D01*
X74032863Y-142386005D01*
X74018619Y-142432960D01*
X74016966Y-142437579D01*
X73998189Y-142482912D01*
X73996091Y-142487349D01*
X73972960Y-142530622D01*
X73970438Y-142534829D01*
X73943178Y-142575628D01*
X73940254Y-142579570D01*
X73909126Y-142617499D01*
X73905831Y-142621134D01*
X73871134Y-142655831D01*
X73867499Y-142659126D01*
X73829570Y-142690254D01*
X73825628Y-142693178D01*
X73784829Y-142720438D01*
X73780622Y-142722960D01*
X73737349Y-142746091D01*
X73732912Y-142748189D01*
X73687579Y-142766966D01*
X73682960Y-142768619D01*
X73636005Y-142782863D01*
X73631244Y-142784055D01*
X73583119Y-142793627D01*
X73578266Y-142794347D01*
X73529435Y-142799157D01*
X73524534Y-142799398D01*
X73506111Y-142799398D01*
X73500000Y-142800000D01*
X73000000Y-142800000D01*
X72993889Y-142799398D01*
X72975466Y-142799398D01*
X72970565Y-142799157D01*
X72921734Y-142794347D01*
X72916881Y-142793627D01*
X72868756Y-142784055D01*
X72863995Y-142782863D01*
X72817040Y-142768619D01*
X72812421Y-142766966D01*
X72767088Y-142748189D01*
X72762651Y-142746091D01*
X72719378Y-142722960D01*
X72715171Y-142720438D01*
X72674372Y-142693178D01*
X72670430Y-142690254D01*
X72632501Y-142659126D01*
X72628866Y-142655831D01*
X72594169Y-142621134D01*
X72590874Y-142617499D01*
X72559746Y-142579570D01*
X72556822Y-142575628D01*
X72529562Y-142534829D01*
X72527040Y-142530622D01*
X72503909Y-142487349D01*
X72501811Y-142482912D01*
X72483034Y-142437579D01*
X72481381Y-142432960D01*
X72467137Y-142386005D01*
X72465945Y-142381244D01*
X72456373Y-142333119D01*
X72455653Y-142328266D01*
X72450843Y-142279435D01*
X72450602Y-142274534D01*
X72450602Y-142256111D01*
X72450000Y-142250000D01*
X72450000Y-141750000D01*
X72450961Y-141740245D01*
X72453806Y-141730866D01*
X72458427Y-141722221D01*
X72464645Y-141714645D01*
X72472221Y-141708427D01*
X72480866Y-141703806D01*
X72490245Y-141700961D01*
X72500000Y-141700000D01*
X74000000Y-141700000D01*
X74009755Y-141700961D01*
X74019134Y-141703806D01*
X74027779Y-141708427D01*
X74035355Y-141714645D01*
X74041573Y-141722221D01*
X74046194Y-141730866D01*
X74049039Y-141740245D01*
X74050000Y-141750000D01*
X74050000Y-142250000D01*
X74049398Y-142256111D01*
G37*
G36*
X74049039Y-141459755D02*
G01*
X74046194Y-141469134D01*
X74041573Y-141477779D01*
X74035355Y-141485355D01*
X74027779Y-141491573D01*
X74019134Y-141496194D01*
X74009755Y-141499039D01*
X74000000Y-141500000D01*
X72500000Y-141500000D01*
X72490245Y-141499039D01*
X72480866Y-141496194D01*
X72472221Y-141491573D01*
X72464645Y-141485355D01*
X72458427Y-141477779D01*
X72453806Y-141469134D01*
X72450961Y-141459755D01*
X72450000Y-141450000D01*
X72450000Y-140950000D01*
X72450602Y-140943889D01*
X72450602Y-140925466D01*
X72450843Y-140920565D01*
X72455653Y-140871734D01*
X72456373Y-140866881D01*
X72465945Y-140818756D01*
X72467137Y-140813995D01*
X72481381Y-140767040D01*
X72483034Y-140762421D01*
X72501811Y-140717088D01*
X72503909Y-140712651D01*
X72527040Y-140669378D01*
X72529562Y-140665171D01*
X72556822Y-140624372D01*
X72559746Y-140620430D01*
X72590874Y-140582501D01*
X72594169Y-140578866D01*
X72628866Y-140544169D01*
X72632501Y-140540874D01*
X72670430Y-140509746D01*
X72674372Y-140506822D01*
X72715171Y-140479562D01*
X72719378Y-140477040D01*
X72762651Y-140453909D01*
X72767088Y-140451811D01*
X72812421Y-140433034D01*
X72817040Y-140431381D01*
X72863995Y-140417137D01*
X72868756Y-140415945D01*
X72916881Y-140406373D01*
X72921734Y-140405653D01*
X72970565Y-140400843D01*
X72975466Y-140400602D01*
X72993889Y-140400602D01*
X73000000Y-140400000D01*
X73500000Y-140400000D01*
X73506111Y-140400602D01*
X73524534Y-140400602D01*
X73529435Y-140400843D01*
X73578266Y-140405653D01*
X73583119Y-140406373D01*
X73631244Y-140415945D01*
X73636005Y-140417137D01*
X73682960Y-140431381D01*
X73687579Y-140433034D01*
X73732912Y-140451811D01*
X73737349Y-140453909D01*
X73780622Y-140477040D01*
X73784829Y-140479562D01*
X73825628Y-140506822D01*
X73829570Y-140509746D01*
X73867499Y-140540874D01*
X73871134Y-140544169D01*
X73905831Y-140578866D01*
X73909126Y-140582501D01*
X73940254Y-140620430D01*
X73943178Y-140624372D01*
X73970438Y-140665171D01*
X73972960Y-140669378D01*
X73996091Y-140712651D01*
X73998189Y-140717088D01*
X74016966Y-140762421D01*
X74018619Y-140767040D01*
X74032863Y-140813995D01*
X74034055Y-140818756D01*
X74043627Y-140866881D01*
X74044347Y-140871734D01*
X74049157Y-140920565D01*
X74049398Y-140925466D01*
X74049398Y-140943889D01*
X74050000Y-140950000D01*
X74050000Y-141450000D01*
X74049039Y-141459755D01*
G37*
%TD*%
%TO.C,A1*%
G36*
X76149039Y-141459755D02*
G01*
X76146194Y-141469134D01*
X76141573Y-141477779D01*
X76135355Y-141485355D01*
X76127779Y-141491573D01*
X76119134Y-141496194D01*
X76109755Y-141499039D01*
X76100000Y-141500000D01*
X74600000Y-141500000D01*
X74590245Y-141499039D01*
X74580866Y-141496194D01*
X74572221Y-141491573D01*
X74564645Y-141485355D01*
X74558427Y-141477779D01*
X74553806Y-141469134D01*
X74550961Y-141459755D01*
X74550000Y-141450000D01*
X74550000Y-140950000D01*
X74550602Y-140943889D01*
X74550602Y-140925466D01*
X74550843Y-140920565D01*
X74555653Y-140871734D01*
X74556373Y-140866881D01*
X74565945Y-140818756D01*
X74567137Y-140813995D01*
X74581381Y-140767040D01*
X74583034Y-140762421D01*
X74601811Y-140717088D01*
X74603909Y-140712651D01*
X74627040Y-140669378D01*
X74629562Y-140665171D01*
X74656822Y-140624372D01*
X74659746Y-140620430D01*
X74690874Y-140582501D01*
X74694169Y-140578866D01*
X74728866Y-140544169D01*
X74732501Y-140540874D01*
X74770430Y-140509746D01*
X74774372Y-140506822D01*
X74815171Y-140479562D01*
X74819378Y-140477040D01*
X74862651Y-140453909D01*
X74867088Y-140451811D01*
X74912421Y-140433034D01*
X74917040Y-140431381D01*
X74963995Y-140417137D01*
X74968756Y-140415945D01*
X75016881Y-140406373D01*
X75021734Y-140405653D01*
X75070565Y-140400843D01*
X75075466Y-140400602D01*
X75093889Y-140400602D01*
X75100000Y-140400000D01*
X75600000Y-140400000D01*
X75606111Y-140400602D01*
X75624534Y-140400602D01*
X75629435Y-140400843D01*
X75678266Y-140405653D01*
X75683119Y-140406373D01*
X75731244Y-140415945D01*
X75736005Y-140417137D01*
X75782960Y-140431381D01*
X75787579Y-140433034D01*
X75832912Y-140451811D01*
X75837349Y-140453909D01*
X75880622Y-140477040D01*
X75884829Y-140479562D01*
X75925628Y-140506822D01*
X75929570Y-140509746D01*
X75967499Y-140540874D01*
X75971134Y-140544169D01*
X76005831Y-140578866D01*
X76009126Y-140582501D01*
X76040254Y-140620430D01*
X76043178Y-140624372D01*
X76070438Y-140665171D01*
X76072960Y-140669378D01*
X76096091Y-140712651D01*
X76098189Y-140717088D01*
X76116966Y-140762421D01*
X76118619Y-140767040D01*
X76132863Y-140813995D01*
X76134055Y-140818756D01*
X76143627Y-140866881D01*
X76144347Y-140871734D01*
X76149157Y-140920565D01*
X76149398Y-140925466D01*
X76149398Y-140943889D01*
X76150000Y-140950000D01*
X76150000Y-141450000D01*
X76149039Y-141459755D01*
G37*
G36*
X76149398Y-142256111D02*
G01*
X76149398Y-142274534D01*
X76149157Y-142279435D01*
X76144347Y-142328266D01*
X76143627Y-142333119D01*
X76134055Y-142381244D01*
X76132863Y-142386005D01*
X76118619Y-142432960D01*
X76116966Y-142437579D01*
X76098189Y-142482912D01*
X76096091Y-142487349D01*
X76072960Y-142530622D01*
X76070438Y-142534829D01*
X76043178Y-142575628D01*
X76040254Y-142579570D01*
X76009126Y-142617499D01*
X76005831Y-142621134D01*
X75971134Y-142655831D01*
X75967499Y-142659126D01*
X75929570Y-142690254D01*
X75925628Y-142693178D01*
X75884829Y-142720438D01*
X75880622Y-142722960D01*
X75837349Y-142746091D01*
X75832912Y-142748189D01*
X75787579Y-142766966D01*
X75782960Y-142768619D01*
X75736005Y-142782863D01*
X75731244Y-142784055D01*
X75683119Y-142793627D01*
X75678266Y-142794347D01*
X75629435Y-142799157D01*
X75624534Y-142799398D01*
X75606111Y-142799398D01*
X75600000Y-142800000D01*
X75100000Y-142800000D01*
X75093889Y-142799398D01*
X75075466Y-142799398D01*
X75070565Y-142799157D01*
X75021734Y-142794347D01*
X75016881Y-142793627D01*
X74968756Y-142784055D01*
X74963995Y-142782863D01*
X74917040Y-142768619D01*
X74912421Y-142766966D01*
X74867088Y-142748189D01*
X74862651Y-142746091D01*
X74819378Y-142722960D01*
X74815171Y-142720438D01*
X74774372Y-142693178D01*
X74770430Y-142690254D01*
X74732501Y-142659126D01*
X74728866Y-142655831D01*
X74694169Y-142621134D01*
X74690874Y-142617499D01*
X74659746Y-142579570D01*
X74656822Y-142575628D01*
X74629562Y-142534829D01*
X74627040Y-142530622D01*
X74603909Y-142487349D01*
X74601811Y-142482912D01*
X74583034Y-142437579D01*
X74581381Y-142432960D01*
X74567137Y-142386005D01*
X74565945Y-142381244D01*
X74556373Y-142333119D01*
X74555653Y-142328266D01*
X74550843Y-142279435D01*
X74550602Y-142274534D01*
X74550602Y-142256111D01*
X74550000Y-142250000D01*
X74550000Y-141750000D01*
X74550961Y-141740245D01*
X74553806Y-141730866D01*
X74558427Y-141722221D01*
X74564645Y-141714645D01*
X74572221Y-141708427D01*
X74580866Y-141703806D01*
X74590245Y-141700961D01*
X74600000Y-141700000D01*
X76100000Y-141700000D01*
X76109755Y-141700961D01*
X76119134Y-141703806D01*
X76127779Y-141708427D01*
X76135355Y-141714645D01*
X76141573Y-141722221D01*
X76146194Y-141730866D01*
X76149039Y-141740245D01*
X76150000Y-141750000D01*
X76150000Y-142250000D01*
X76149398Y-142256111D01*
G37*
%TD*%
%TO.C,A0*%
G36*
X78249398Y-142256111D02*
G01*
X78249398Y-142274534D01*
X78249157Y-142279435D01*
X78244347Y-142328266D01*
X78243627Y-142333119D01*
X78234055Y-142381244D01*
X78232863Y-142386005D01*
X78218619Y-142432960D01*
X78216966Y-142437579D01*
X78198189Y-142482912D01*
X78196091Y-142487349D01*
X78172960Y-142530622D01*
X78170438Y-142534829D01*
X78143178Y-142575628D01*
X78140254Y-142579570D01*
X78109126Y-142617499D01*
X78105831Y-142621134D01*
X78071134Y-142655831D01*
X78067499Y-142659126D01*
X78029570Y-142690254D01*
X78025628Y-142693178D01*
X77984829Y-142720438D01*
X77980622Y-142722960D01*
X77937349Y-142746091D01*
X77932912Y-142748189D01*
X77887579Y-142766966D01*
X77882960Y-142768619D01*
X77836005Y-142782863D01*
X77831244Y-142784055D01*
X77783119Y-142793627D01*
X77778266Y-142794347D01*
X77729435Y-142799157D01*
X77724534Y-142799398D01*
X77706111Y-142799398D01*
X77700000Y-142800000D01*
X77200000Y-142800000D01*
X77193889Y-142799398D01*
X77175466Y-142799398D01*
X77170565Y-142799157D01*
X77121734Y-142794347D01*
X77116881Y-142793627D01*
X77068756Y-142784055D01*
X77063995Y-142782863D01*
X77017040Y-142768619D01*
X77012421Y-142766966D01*
X76967088Y-142748189D01*
X76962651Y-142746091D01*
X76919378Y-142722960D01*
X76915171Y-142720438D01*
X76874372Y-142693178D01*
X76870430Y-142690254D01*
X76832501Y-142659126D01*
X76828866Y-142655831D01*
X76794169Y-142621134D01*
X76790874Y-142617499D01*
X76759746Y-142579570D01*
X76756822Y-142575628D01*
X76729562Y-142534829D01*
X76727040Y-142530622D01*
X76703909Y-142487349D01*
X76701811Y-142482912D01*
X76683034Y-142437579D01*
X76681381Y-142432960D01*
X76667137Y-142386005D01*
X76665945Y-142381244D01*
X76656373Y-142333119D01*
X76655653Y-142328266D01*
X76650843Y-142279435D01*
X76650602Y-142274534D01*
X76650602Y-142256111D01*
X76650000Y-142250000D01*
X76650000Y-141750000D01*
X76650961Y-141740245D01*
X76653806Y-141730866D01*
X76658427Y-141722221D01*
X76664645Y-141714645D01*
X76672221Y-141708427D01*
X76680866Y-141703806D01*
X76690245Y-141700961D01*
X76700000Y-141700000D01*
X78200000Y-141700000D01*
X78209755Y-141700961D01*
X78219134Y-141703806D01*
X78227779Y-141708427D01*
X78235355Y-141714645D01*
X78241573Y-141722221D01*
X78246194Y-141730866D01*
X78249039Y-141740245D01*
X78250000Y-141750000D01*
X78250000Y-142250000D01*
X78249398Y-142256111D01*
G37*
G36*
X78249039Y-141459755D02*
G01*
X78246194Y-141469134D01*
X78241573Y-141477779D01*
X78235355Y-141485355D01*
X78227779Y-141491573D01*
X78219134Y-141496194D01*
X78209755Y-141499039D01*
X78200000Y-141500000D01*
X76700000Y-141500000D01*
X76690245Y-141499039D01*
X76680866Y-141496194D01*
X76672221Y-141491573D01*
X76664645Y-141485355D01*
X76658427Y-141477779D01*
X76653806Y-141469134D01*
X76650961Y-141459755D01*
X76650000Y-141450000D01*
X76650000Y-140950000D01*
X76650602Y-140943889D01*
X76650602Y-140925466D01*
X76650843Y-140920565D01*
X76655653Y-140871734D01*
X76656373Y-140866881D01*
X76665945Y-140818756D01*
X76667137Y-140813995D01*
X76681381Y-140767040D01*
X76683034Y-140762421D01*
X76701811Y-140717088D01*
X76703909Y-140712651D01*
X76727040Y-140669378D01*
X76729562Y-140665171D01*
X76756822Y-140624372D01*
X76759746Y-140620430D01*
X76790874Y-140582501D01*
X76794169Y-140578866D01*
X76828866Y-140544169D01*
X76832501Y-140540874D01*
X76870430Y-140509746D01*
X76874372Y-140506822D01*
X76915171Y-140479562D01*
X76919378Y-140477040D01*
X76962651Y-140453909D01*
X76967088Y-140451811D01*
X77012421Y-140433034D01*
X77017040Y-140431381D01*
X77063995Y-140417137D01*
X77068756Y-140415945D01*
X77116881Y-140406373D01*
X77121734Y-140405653D01*
X77170565Y-140400843D01*
X77175466Y-140400602D01*
X77193889Y-140400602D01*
X77200000Y-140400000D01*
X77700000Y-140400000D01*
X77706111Y-140400602D01*
X77724534Y-140400602D01*
X77729435Y-140400843D01*
X77778266Y-140405653D01*
X77783119Y-140406373D01*
X77831244Y-140415945D01*
X77836005Y-140417137D01*
X77882960Y-140431381D01*
X77887579Y-140433034D01*
X77932912Y-140451811D01*
X77937349Y-140453909D01*
X77980622Y-140477040D01*
X77984829Y-140479562D01*
X78025628Y-140506822D01*
X78029570Y-140509746D01*
X78067499Y-140540874D01*
X78071134Y-140544169D01*
X78105831Y-140578866D01*
X78109126Y-140582501D01*
X78140254Y-140620430D01*
X78143178Y-140624372D01*
X78170438Y-140665171D01*
X78172960Y-140669378D01*
X78196091Y-140712651D01*
X78198189Y-140717088D01*
X78216966Y-140762421D01*
X78218619Y-140767040D01*
X78232863Y-140813995D01*
X78234055Y-140818756D01*
X78243627Y-140866881D01*
X78244347Y-140871734D01*
X78249157Y-140920565D01*
X78249398Y-140925466D01*
X78249398Y-140943889D01*
X78250000Y-140950000D01*
X78250000Y-141450000D01*
X78249039Y-141459755D01*
G37*
%TD*%
D11*
%TO.C,REF\u002A\u002A*%
X93910000Y-125415000D03*
X64750000Y-125415000D03*
D12*
X93910000Y-119040000D03*
X64750000Y-119040000D03*
D11*
X93910000Y-112665000D03*
X64750000Y-112665000D03*
D13*
X91420000Y-128190000D03*
X91420000Y-109890000D03*
D14*
X85330000Y-128190000D03*
X85330000Y-109890000D03*
X79330000Y-128190000D03*
X79330000Y-109890000D03*
X73330000Y-128190000D03*
X73330000Y-109890000D03*
D13*
X67240000Y-128190000D03*
X67240000Y-109890000D03*
D15*
X64750000Y-128190000D03*
X93910000Y-128190000D03*
X93910000Y-109890000D03*
X64750000Y-109890000D03*
%TD*%
D16*
%TO.C,L2*%
X72120000Y-126497000D03*
X74660000Y-126497000D03*
X74660000Y-123703000D03*
X72120000Y-123703000D03*
%TD*%
D17*
%TO.C,D2*%
X95700000Y-139600000D03*
X97800000Y-139600000D03*
%TD*%
D18*
%TO.C,REF\u002A\u002A*%
X60000000Y-110000000D03*
%TD*%
%TO.C,REF\u002A\u002A*%
X105000000Y-110000000D03*
%TD*%
%TO.C,REF\u002A\u002A*%
X60000000Y-145000000D03*
%TD*%
%TO.C,REF\u002A\u002A*%
X105000000Y-144780000D03*
%TD*%
%TO.C,R8*%
G36*
G01*
X85472500Y-144060000D02*
X85867500Y-144060000D01*
G75*
G02*
X86040000Y-144232500I0J-172500D01*
G01*
X86040000Y-144577500D01*
G75*
G02*
X85867500Y-144750000I-172500J0D01*
G01*
X85472500Y-144750000D01*
G75*
G02*
X85300000Y-144577500I0J172500D01*
G01*
X85300000Y-144232500D01*
G75*
G02*
X85472500Y-144060000I172500J0D01*
G01*
G37*
G36*
G01*
X85472500Y-145030000D02*
X85867500Y-145030000D01*
G75*
G02*
X86040000Y-145202500I0J-172500D01*
G01*
X86040000Y-145547500D01*
G75*
G02*
X85867500Y-145720000I-172500J0D01*
G01*
X85472500Y-145720000D01*
G75*
G02*
X85300000Y-145547500I0J172500D01*
G01*
X85300000Y-145202500D01*
G75*
G02*
X85472500Y-145030000I172500J0D01*
G01*
G37*
%TD*%
%TO.C,R7*%
G36*
G01*
X85857500Y-142660000D02*
X85462500Y-142660000D01*
G75*
G02*
X85290000Y-142487500I0J172500D01*
G01*
X85290000Y-142142500D01*
G75*
G02*
X85462500Y-141970000I172500J0D01*
G01*
X85857500Y-141970000D01*
G75*
G02*
X86030000Y-142142500I0J-172500D01*
G01*
X86030000Y-142487500D01*
G75*
G02*
X85857500Y-142660000I-172500J0D01*
G01*
G37*
G36*
G01*
X85857500Y-143630000D02*
X85462500Y-143630000D01*
G75*
G02*
X85290000Y-143457500I0J172500D01*
G01*
X85290000Y-143112500D01*
G75*
G02*
X85462500Y-142940000I172500J0D01*
G01*
X85857500Y-142940000D01*
G75*
G02*
X86030000Y-143112500I0J-172500D01*
G01*
X86030000Y-143457500D01*
G75*
G02*
X85857500Y-143630000I-172500J0D01*
G01*
G37*
%TD*%
%TO.C,R6*%
G36*
G01*
X84970000Y-140457500D02*
X84970000Y-140062500D01*
G75*
G02*
X85142500Y-139890000I172500J0D01*
G01*
X85487500Y-139890000D01*
G75*
G02*
X85660000Y-140062500I0J-172500D01*
G01*
X85660000Y-140457500D01*
G75*
G02*
X85487500Y-140630000I-172500J0D01*
G01*
X85142500Y-140630000D01*
G75*
G02*
X84970000Y-140457500I0J172500D01*
G01*
G37*
G36*
G01*
X85940000Y-140457500D02*
X85940000Y-140062500D01*
G75*
G02*
X86112500Y-139890000I172500J0D01*
G01*
X86457500Y-139890000D01*
G75*
G02*
X86630000Y-140062500I0J-172500D01*
G01*
X86630000Y-140457500D01*
G75*
G02*
X86457500Y-140630000I-172500J0D01*
G01*
X86112500Y-140630000D01*
G75*
G02*
X85940000Y-140457500I0J172500D01*
G01*
G37*
%TD*%
D19*
%TO.C,U3*%
X85860000Y-114927500D03*
X84590000Y-114927500D03*
X83320000Y-114927500D03*
X87130000Y-114927500D03*
X88400000Y-114927500D03*
D20*
X81807500Y-116440000D03*
X81807500Y-117710000D03*
X81807500Y-118980000D03*
X81807500Y-120250000D03*
X81807500Y-121520000D03*
D19*
X83320000Y-123032500D03*
X84590000Y-123032500D03*
X85860000Y-123032500D03*
X87130000Y-123032500D03*
X88400000Y-123032500D03*
D20*
X89912500Y-121520000D03*
X89912500Y-120250000D03*
X89912500Y-118980000D03*
X89912500Y-117710000D03*
X89912500Y-116440000D03*
%TD*%
D21*
%TO.C,U4*%
X65900000Y-133840000D03*
X65900000Y-134340000D03*
X65900000Y-134840000D03*
X65900000Y-135340000D03*
X65900000Y-135840000D03*
X70300000Y-135840000D03*
X70300000Y-135340000D03*
X70300000Y-134840000D03*
X70300000Y-134340000D03*
X70300000Y-133840000D03*
%TD*%
%TO.C,C8*%
G36*
G01*
X83370000Y-112302500D02*
X83370000Y-112697500D01*
G75*
G02*
X83197500Y-112870000I-172500J0D01*
G01*
X82852500Y-112870000D01*
G75*
G02*
X82680000Y-112697500I0J172500D01*
G01*
X82680000Y-112302500D01*
G75*
G02*
X82852500Y-112130000I172500J0D01*
G01*
X83197500Y-112130000D01*
G75*
G02*
X83370000Y-112302500I0J-172500D01*
G01*
G37*
G36*
G01*
X82400000Y-112302500D02*
X82400000Y-112697500D01*
G75*
G02*
X82227500Y-112870000I-172500J0D01*
G01*
X81882500Y-112870000D01*
G75*
G02*
X81710000Y-112697500I0J172500D01*
G01*
X81710000Y-112302500D01*
G75*
G02*
X81882500Y-112130000I172500J0D01*
G01*
X82227500Y-112130000D01*
G75*
G02*
X82400000Y-112302500I0J-172500D01*
G01*
G37*
%TD*%
%TO.C,C9*%
G36*
G01*
X88730000Y-112302500D02*
X88730000Y-112697500D01*
G75*
G02*
X88557500Y-112870000I-172500J0D01*
G01*
X88212500Y-112870000D01*
G75*
G02*
X88040000Y-112697500I0J172500D01*
G01*
X88040000Y-112302500D01*
G75*
G02*
X88212500Y-112130000I172500J0D01*
G01*
X88557500Y-112130000D01*
G75*
G02*
X88730000Y-112302500I0J-172500D01*
G01*
G37*
G36*
G01*
X87760000Y-112302500D02*
X87760000Y-112697500D01*
G75*
G02*
X87587500Y-112870000I-172500J0D01*
G01*
X87242500Y-112870000D01*
G75*
G02*
X87070000Y-112697500I0J172500D01*
G01*
X87070000Y-112302500D01*
G75*
G02*
X87242500Y-112130000I172500J0D01*
G01*
X87587500Y-112130000D01*
G75*
G02*
X87760000Y-112302500I0J-172500D01*
G01*
G37*
%TD*%
D22*
%TO.C,J1*%
X57980000Y-122000000D03*
D23*
X57980000Y-117620000D03*
X57980000Y-126380000D03*
%TD*%
%TO.C,J2*%
X106970000Y-117620000D03*
X106970000Y-126380000D03*
D22*
X106970000Y-122000000D03*
%TD*%
%TO.C,U6*%
G36*
G01*
X87150000Y-141200000D02*
X87150000Y-140850000D01*
G75*
G02*
X87325000Y-140675000I175000J0D01*
G01*
X89025000Y-140675000D01*
G75*
G02*
X89200000Y-140850000I0J-175000D01*
G01*
X89200000Y-141200000D01*
G75*
G02*
X89025000Y-141375000I-175000J0D01*
G01*
X87325000Y-141375000D01*
G75*
G02*
X87150000Y-141200000I0J175000D01*
G01*
G37*
G36*
G01*
X87150000Y-142470000D02*
X87150000Y-142120000D01*
G75*
G02*
X87325000Y-141945000I175000J0D01*
G01*
X89025000Y-141945000D01*
G75*
G02*
X89200000Y-142120000I0J-175000D01*
G01*
X89200000Y-142470000D01*
G75*
G02*
X89025000Y-142645000I-175000J0D01*
G01*
X87325000Y-142645000D01*
G75*
G02*
X87150000Y-142470000I0J175000D01*
G01*
G37*
G36*
G01*
X87150000Y-143740000D02*
X87150000Y-143390000D01*
G75*
G02*
X87325000Y-143215000I175000J0D01*
G01*
X89025000Y-143215000D01*
G75*
G02*
X89200000Y-143390000I0J-175000D01*
G01*
X89200000Y-143740000D01*
G75*
G02*
X89025000Y-143915000I-175000J0D01*
G01*
X87325000Y-143915000D01*
G75*
G02*
X87150000Y-143740000I0J175000D01*
G01*
G37*
G36*
G01*
X87150000Y-145010000D02*
X87150000Y-144660000D01*
G75*
G02*
X87325000Y-144485000I175000J0D01*
G01*
X89025000Y-144485000D01*
G75*
G02*
X89200000Y-144660000I0J-175000D01*
G01*
X89200000Y-145010000D01*
G75*
G02*
X89025000Y-145185000I-175000J0D01*
G01*
X87325000Y-145185000D01*
G75*
G02*
X87150000Y-145010000I0J175000D01*
G01*
G37*
G36*
G01*
X92100000Y-145010000D02*
X92100000Y-144660000D01*
G75*
G02*
X92275000Y-144485000I175000J0D01*
G01*
X93975000Y-144485000D01*
G75*
G02*
X94150000Y-144660000I0J-175000D01*
G01*
X94150000Y-145010000D01*
G75*
G02*
X93975000Y-145185000I-175000J0D01*
G01*
X92275000Y-145185000D01*
G75*
G02*
X92100000Y-145010000I0J175000D01*
G01*
G37*
G36*
G01*
X92100000Y-143740000D02*
X92100000Y-143390000D01*
G75*
G02*
X92275000Y-143215000I175000J0D01*
G01*
X93975000Y-143215000D01*
G75*
G02*
X94150000Y-143390000I0J-175000D01*
G01*
X94150000Y-143740000D01*
G75*
G02*
X93975000Y-143915000I-175000J0D01*
G01*
X92275000Y-143915000D01*
G75*
G02*
X92100000Y-143740000I0J175000D01*
G01*
G37*
G36*
G01*
X92100000Y-142470000D02*
X92100000Y-142120000D01*
G75*
G02*
X92275000Y-141945000I175000J0D01*
G01*
X93975000Y-141945000D01*
G75*
G02*
X94150000Y-142120000I0J-175000D01*
G01*
X94150000Y-142470000D01*
G75*
G02*
X93975000Y-142645000I-175000J0D01*
G01*
X92275000Y-142645000D01*
G75*
G02*
X92100000Y-142470000I0J175000D01*
G01*
G37*
G36*
G01*
X92100000Y-141200000D02*
X92100000Y-140850000D01*
G75*
G02*
X92275000Y-140675000I175000J0D01*
G01*
X93975000Y-140675000D01*
G75*
G02*
X94150000Y-140850000I0J-175000D01*
G01*
X94150000Y-141200000D01*
G75*
G02*
X93975000Y-141375000I-175000J0D01*
G01*
X92275000Y-141375000D01*
G75*
G02*
X92100000Y-141200000I0J175000D01*
G01*
G37*
%TD*%
%TO.C,C14*%
G36*
G01*
X66030000Y-132587500D02*
X66030000Y-132192500D01*
G75*
G02*
X66202500Y-132020000I172500J0D01*
G01*
X66547500Y-132020000D01*
G75*
G02*
X66720000Y-132192500I0J-172500D01*
G01*
X66720000Y-132587500D01*
G75*
G02*
X66547500Y-132760000I-172500J0D01*
G01*
X66202500Y-132760000D01*
G75*
G02*
X66030000Y-132587500I0J172500D01*
G01*
G37*
G36*
G01*
X65060000Y-132587500D02*
X65060000Y-132192500D01*
G75*
G02*
X65232500Y-132020000I172500J0D01*
G01*
X65577500Y-132020000D01*
G75*
G02*
X65750000Y-132192500I0J-172500D01*
G01*
X65750000Y-132587500D01*
G75*
G02*
X65577500Y-132760000I-172500J0D01*
G01*
X65232500Y-132760000D01*
G75*
G02*
X65060000Y-132587500I0J172500D01*
G01*
G37*
%TD*%
%TO.C,C15*%
G36*
G01*
X67840000Y-137437500D02*
X67840000Y-137042500D01*
G75*
G02*
X68012500Y-136870000I172500J0D01*
G01*
X68357500Y-136870000D01*
G75*
G02*
X68530000Y-137042500I0J-172500D01*
G01*
X68530000Y-137437500D01*
G75*
G02*
X68357500Y-137610000I-172500J0D01*
G01*
X68012500Y-137610000D01*
G75*
G02*
X67840000Y-137437500I0J172500D01*
G01*
G37*
G36*
G01*
X68810000Y-137437500D02*
X68810000Y-137042500D01*
G75*
G02*
X68982500Y-136870000I172500J0D01*
G01*
X69327500Y-136870000D01*
G75*
G02*
X69500000Y-137042500I0J-172500D01*
G01*
X69500000Y-137437500D01*
G75*
G02*
X69327500Y-137610000I-172500J0D01*
G01*
X68982500Y-137610000D01*
G75*
G02*
X68810000Y-137437500I0J172500D01*
G01*
G37*
%TD*%
%TO.C,C17*%
G36*
G01*
X82243867Y-142430000D02*
X84156133Y-142430000D01*
G75*
G02*
X84425000Y-142698867I0J-268867D01*
G01*
X84425000Y-143586133D01*
G75*
G02*
X84156133Y-143855000I-268867J0D01*
G01*
X82243867Y-143855000D01*
G75*
G02*
X81975000Y-143586133I0J268867D01*
G01*
X81975000Y-142698867D01*
G75*
G02*
X82243867Y-142430000I268867J0D01*
G01*
G37*
G36*
G01*
X82243867Y-145505000D02*
X84156133Y-145505000D01*
G75*
G02*
X84425000Y-145773867I0J-268867D01*
G01*
X84425000Y-146661133D01*
G75*
G02*
X84156133Y-146930000I-268867J0D01*
G01*
X82243867Y-146930000D01*
G75*
G02*
X81975000Y-146661133I0J268867D01*
G01*
X81975000Y-145773867D01*
G75*
G02*
X82243867Y-145505000I268867J0D01*
G01*
G37*
%TD*%
%TO.C,R4*%
G36*
G01*
X68820000Y-138517500D02*
X68820000Y-138122500D01*
G75*
G02*
X68992500Y-137950000I172500J0D01*
G01*
X69337500Y-137950000D01*
G75*
G02*
X69510000Y-138122500I0J-172500D01*
G01*
X69510000Y-138517500D01*
G75*
G02*
X69337500Y-138690000I-172500J0D01*
G01*
X68992500Y-138690000D01*
G75*
G02*
X68820000Y-138517500I0J172500D01*
G01*
G37*
G36*
G01*
X67850000Y-138517500D02*
X67850000Y-138122500D01*
G75*
G02*
X68022500Y-137950000I172500J0D01*
G01*
X68367500Y-137950000D01*
G75*
G02*
X68540000Y-138122500I0J-172500D01*
G01*
X68540000Y-138517500D01*
G75*
G02*
X68367500Y-138690000I-172500J0D01*
G01*
X68022500Y-138690000D01*
G75*
G02*
X67850000Y-138517500I0J172500D01*
G01*
G37*
%TD*%
%TO.C,R5*%
G36*
G01*
X67850000Y-139577500D02*
X67850000Y-139182500D01*
G75*
G02*
X68022500Y-139010000I172500J0D01*
G01*
X68367500Y-139010000D01*
G75*
G02*
X68540000Y-139182500I0J-172500D01*
G01*
X68540000Y-139577500D01*
G75*
G02*
X68367500Y-139750000I-172500J0D01*
G01*
X68022500Y-139750000D01*
G75*
G02*
X67850000Y-139577500I0J172500D01*
G01*
G37*
G36*
G01*
X68820000Y-139577500D02*
X68820000Y-139182500D01*
G75*
G02*
X68992500Y-139010000I172500J0D01*
G01*
X69337500Y-139010000D01*
G75*
G02*
X69510000Y-139182500I0J-172500D01*
G01*
X69510000Y-139577500D01*
G75*
G02*
X69337500Y-139750000I-172500J0D01*
G01*
X68992500Y-139750000D01*
G75*
G02*
X68820000Y-139577500I0J172500D01*
G01*
G37*
%TD*%
D24*
%TO.C,Y1*%
X61870000Y-133740000D03*
X61870000Y-135940000D03*
X63570000Y-135940000D03*
X63570000Y-133740000D03*
%TD*%
D25*
%TO.C,J3*%
X79390000Y-145800000D03*
D26*
X76850000Y-145800000D03*
X74310000Y-145800000D03*
X71770000Y-145800000D03*
X69230000Y-145800000D03*
X66690000Y-145800000D03*
%TD*%
%TO.C,R3*%
G36*
G01*
X83685000Y-126871250D02*
X83685000Y-126308750D01*
G75*
G02*
X83928750Y-126065000I243750J0D01*
G01*
X84416250Y-126065000D01*
G75*
G02*
X84660000Y-126308750I0J-243750D01*
G01*
X84660000Y-126871250D01*
G75*
G02*
X84416250Y-127115000I-243750J0D01*
G01*
X83928750Y-127115000D01*
G75*
G02*
X83685000Y-126871250I0J243750D01*
G01*
G37*
G36*
G01*
X85260000Y-126871250D02*
X85260000Y-126308750D01*
G75*
G02*
X85503750Y-126065000I243750J0D01*
G01*
X85991250Y-126065000D01*
G75*
G02*
X86235000Y-126308750I0J-243750D01*
G01*
X86235000Y-126871250D01*
G75*
G02*
X85991250Y-127115000I-243750J0D01*
G01*
X85503750Y-127115000D01*
G75*
G02*
X85260000Y-126871250I0J243750D01*
G01*
G37*
%TD*%
%TO.C,R2*%
G36*
G01*
X92541250Y-118175000D02*
X91978750Y-118175000D01*
G75*
G02*
X91735000Y-117931250I0J243750D01*
G01*
X91735000Y-117443750D01*
G75*
G02*
X91978750Y-117200000I243750J0D01*
G01*
X92541250Y-117200000D01*
G75*
G02*
X92785000Y-117443750I0J-243750D01*
G01*
X92785000Y-117931250D01*
G75*
G02*
X92541250Y-118175000I-243750J0D01*
G01*
G37*
G36*
G01*
X92541250Y-116600000D02*
X91978750Y-116600000D01*
G75*
G02*
X91735000Y-116356250I0J243750D01*
G01*
X91735000Y-115868750D01*
G75*
G02*
X91978750Y-115625000I243750J0D01*
G01*
X92541250Y-115625000D01*
G75*
G02*
X92785000Y-115868750I0J-243750D01*
G01*
X92785000Y-116356250D01*
G75*
G02*
X92541250Y-116600000I-243750J0D01*
G01*
G37*
%TD*%
%TO.C,C18*%
G36*
G01*
X87972500Y-145870000D02*
X88367500Y-145870000D01*
G75*
G02*
X88540000Y-146042500I0J-172500D01*
G01*
X88540000Y-146387500D01*
G75*
G02*
X88367500Y-146560000I-172500J0D01*
G01*
X87972500Y-146560000D01*
G75*
G02*
X87800000Y-146387500I0J172500D01*
G01*
X87800000Y-146042500D01*
G75*
G02*
X87972500Y-145870000I172500J0D01*
G01*
G37*
G36*
G01*
X87972500Y-146840000D02*
X88367500Y-146840000D01*
G75*
G02*
X88540000Y-147012500I0J-172500D01*
G01*
X88540000Y-147357500D01*
G75*
G02*
X88367500Y-147530000I-172500J0D01*
G01*
X87972500Y-147530000D01*
G75*
G02*
X87800000Y-147357500I0J172500D01*
G01*
X87800000Y-147012500D01*
G75*
G02*
X87972500Y-146840000I172500J0D01*
G01*
G37*
%TD*%
%TO.C,C16*%
G36*
G01*
X86762500Y-145870000D02*
X87157500Y-145870000D01*
G75*
G02*
X87330000Y-146042500I0J-172500D01*
G01*
X87330000Y-146387500D01*
G75*
G02*
X87157500Y-146560000I-172500J0D01*
G01*
X86762500Y-146560000D01*
G75*
G02*
X86590000Y-146387500I0J172500D01*
G01*
X86590000Y-146042500D01*
G75*
G02*
X86762500Y-145870000I172500J0D01*
G01*
G37*
G36*
G01*
X86762500Y-146840000D02*
X87157500Y-146840000D01*
G75*
G02*
X87330000Y-147012500I0J-172500D01*
G01*
X87330000Y-147357500D01*
G75*
G02*
X87157500Y-147530000I-172500J0D01*
G01*
X86762500Y-147530000D01*
G75*
G02*
X86590000Y-147357500I0J172500D01*
G01*
X86590000Y-147012500D01*
G75*
G02*
X86762500Y-146840000I172500J0D01*
G01*
G37*
%TD*%
%TO.C,C19*%
G36*
G01*
X94210000Y-136187048D02*
X94210000Y-138312952D01*
G75*
G02*
X93947952Y-138575000I-262048J0D01*
G01*
X92297048Y-138575000D01*
G75*
G02*
X92035000Y-138312952I0J262048D01*
G01*
X92035000Y-136187048D01*
G75*
G02*
X92297048Y-135925000I262048J0D01*
G01*
X93947952Y-135925000D01*
G75*
G02*
X94210000Y-136187048I0J-262048D01*
G01*
G37*
G36*
G01*
X87985000Y-136187048D02*
X87985000Y-138312952D01*
G75*
G02*
X87722952Y-138575000I-262048J0D01*
G01*
X86072048Y-138575000D01*
G75*
G02*
X85810000Y-138312952I0J262048D01*
G01*
X85810000Y-136187048D01*
G75*
G02*
X86072048Y-135925000I262048J0D01*
G01*
X87722952Y-135925000D01*
G75*
G02*
X87985000Y-136187048I0J-262048D01*
G01*
G37*
%TD*%
%TO.C,C20*%
G36*
G01*
X96767048Y-135975000D02*
X98892952Y-135975000D01*
G75*
G02*
X99155000Y-136237048I0J-262048D01*
G01*
X99155000Y-137887952D01*
G75*
G02*
X98892952Y-138150000I-262048J0D01*
G01*
X96767048Y-138150000D01*
G75*
G02*
X96505000Y-137887952I0J262048D01*
G01*
X96505000Y-136237048D01*
G75*
G02*
X96767048Y-135975000I262048J0D01*
G01*
G37*
G36*
G01*
X96767048Y-129750000D02*
X98892952Y-129750000D01*
G75*
G02*
X99155000Y-130012048I0J-262048D01*
G01*
X99155000Y-131662952D01*
G75*
G02*
X98892952Y-131925000I-262048J0D01*
G01*
X96767048Y-131925000D01*
G75*
G02*
X96505000Y-131662952I0J262048D01*
G01*
X96505000Y-130012048D01*
G75*
G02*
X96767048Y-129750000I262048J0D01*
G01*
G37*
%TD*%
D27*
%TO.C,L3*%
X97730000Y-142265000D03*
X97730000Y-146115000D03*
%TD*%
%TO.C,C12*%
G36*
G01*
X88435000Y-125681250D02*
X88435000Y-125118750D01*
G75*
G02*
X88678750Y-124875000I243750J0D01*
G01*
X89166250Y-124875000D01*
G75*
G02*
X89410000Y-125118750I0J-243750D01*
G01*
X89410000Y-125681250D01*
G75*
G02*
X89166250Y-125925000I-243750J0D01*
G01*
X88678750Y-125925000D01*
G75*
G02*
X88435000Y-125681250I0J243750D01*
G01*
G37*
G36*
G01*
X90010000Y-125681250D02*
X90010000Y-125118750D01*
G75*
G02*
X90253750Y-124875000I243750J0D01*
G01*
X90741250Y-124875000D01*
G75*
G02*
X90985000Y-125118750I0J-243750D01*
G01*
X90985000Y-125681250D01*
G75*
G02*
X90741250Y-125925000I-243750J0D01*
G01*
X90253750Y-125925000D01*
G75*
G02*
X90010000Y-125681250I0J243750D01*
G01*
G37*
%TD*%
%TO.C,C11*%
G36*
G01*
X83215000Y-125118750D02*
X83215000Y-125681250D01*
G75*
G02*
X82971250Y-125925000I-243750J0D01*
G01*
X82483750Y-125925000D01*
G75*
G02*
X82240000Y-125681250I0J243750D01*
G01*
X82240000Y-125118750D01*
G75*
G02*
X82483750Y-124875000I243750J0D01*
G01*
X82971250Y-124875000D01*
G75*
G02*
X83215000Y-125118750I0J-243750D01*
G01*
G37*
G36*
G01*
X81640000Y-125118750D02*
X81640000Y-125681250D01*
G75*
G02*
X81396250Y-125925000I-243750J0D01*
G01*
X80908750Y-125925000D01*
G75*
G02*
X80665000Y-125681250I0J243750D01*
G01*
X80665000Y-125118750D01*
G75*
G02*
X80908750Y-124875000I243750J0D01*
G01*
X81396250Y-124875000D01*
G75*
G02*
X81640000Y-125118750I0J-243750D01*
G01*
G37*
%TD*%
%TO.C,C10*%
G36*
G01*
X83805000Y-112781250D02*
X83805000Y-112218750D01*
G75*
G02*
X84048750Y-111975000I243750J0D01*
G01*
X84536250Y-111975000D01*
G75*
G02*
X84780000Y-112218750I0J-243750D01*
G01*
X84780000Y-112781250D01*
G75*
G02*
X84536250Y-113025000I-243750J0D01*
G01*
X84048750Y-113025000D01*
G75*
G02*
X83805000Y-112781250I0J243750D01*
G01*
G37*
G36*
G01*
X85380000Y-112781250D02*
X85380000Y-112218750D01*
G75*
G02*
X85623750Y-111975000I243750J0D01*
G01*
X86111250Y-111975000D01*
G75*
G02*
X86355000Y-112218750I0J-243750D01*
G01*
X86355000Y-112781250D01*
G75*
G02*
X86111250Y-113025000I-243750J0D01*
G01*
X85623750Y-113025000D01*
G75*
G02*
X85380000Y-112781250I0J243750D01*
G01*
G37*
%TD*%
%TO.C,C6*%
G36*
G01*
X79781250Y-114670000D02*
X79218750Y-114670000D01*
G75*
G02*
X78975000Y-114426250I0J243750D01*
G01*
X78975000Y-113938750D01*
G75*
G02*
X79218750Y-113695000I243750J0D01*
G01*
X79781250Y-113695000D01*
G75*
G02*
X80025000Y-113938750I0J-243750D01*
G01*
X80025000Y-114426250D01*
G75*
G02*
X79781250Y-114670000I-243750J0D01*
G01*
G37*
G36*
G01*
X79781250Y-116245000D02*
X79218750Y-116245000D01*
G75*
G02*
X78975000Y-116001250I0J243750D01*
G01*
X78975000Y-115513750D01*
G75*
G02*
X79218750Y-115270000I243750J0D01*
G01*
X79781250Y-115270000D01*
G75*
G02*
X80025000Y-115513750I0J-243750D01*
G01*
X80025000Y-116001250D01*
G75*
G02*
X79781250Y-116245000I-243750J0D01*
G01*
G37*
%TD*%
%TO.C,C7*%
G36*
G01*
X79288750Y-123345000D02*
X79851250Y-123345000D01*
G75*
G02*
X80095000Y-123588750I0J-243750D01*
G01*
X80095000Y-124076250D01*
G75*
G02*
X79851250Y-124320000I-243750J0D01*
G01*
X79288750Y-124320000D01*
G75*
G02*
X79045000Y-124076250I0J243750D01*
G01*
X79045000Y-123588750D01*
G75*
G02*
X79288750Y-123345000I243750J0D01*
G01*
G37*
G36*
G01*
X79288750Y-124920000D02*
X79851250Y-124920000D01*
G75*
G02*
X80095000Y-125163750I0J-243750D01*
G01*
X80095000Y-125651250D01*
G75*
G02*
X79851250Y-125895000I-243750J0D01*
G01*
X79288750Y-125895000D01*
G75*
G02*
X79045000Y-125651250I0J243750D01*
G01*
X79045000Y-125163750D01*
G75*
G02*
X79288750Y-124920000I243750J0D01*
G01*
G37*
%TD*%
%TO.C,C13*%
G36*
G01*
X91978750Y-124090000D02*
X92541250Y-124090000D01*
G75*
G02*
X92785000Y-124333750I0J-243750D01*
G01*
X92785000Y-124821250D01*
G75*
G02*
X92541250Y-125065000I-243750J0D01*
G01*
X91978750Y-125065000D01*
G75*
G02*
X91735000Y-124821250I0J243750D01*
G01*
X91735000Y-124333750D01*
G75*
G02*
X91978750Y-124090000I243750J0D01*
G01*
G37*
G36*
G01*
X91978750Y-122515000D02*
X92541250Y-122515000D01*
G75*
G02*
X92785000Y-122758750I0J-243750D01*
G01*
X92785000Y-123246250D01*
G75*
G02*
X92541250Y-123490000I-243750J0D01*
G01*
X91978750Y-123490000D01*
G75*
G02*
X91735000Y-123246250I0J243750D01*
G01*
X91735000Y-122758750D01*
G75*
G02*
X91978750Y-122515000I243750J0D01*
G01*
G37*
%TD*%
%TO.C,C1*%
G36*
G01*
X66088750Y-122110000D02*
X67051250Y-122110000D01*
G75*
G02*
X67320000Y-122378750I0J-268750D01*
G01*
X67320000Y-122916250D01*
G75*
G02*
X67051250Y-123185000I-268750J0D01*
G01*
X66088750Y-123185000D01*
G75*
G02*
X65820000Y-122916250I0J268750D01*
G01*
X65820000Y-122378750D01*
G75*
G02*
X66088750Y-122110000I268750J0D01*
G01*
G37*
G36*
G01*
X66088750Y-120235000D02*
X67051250Y-120235000D01*
G75*
G02*
X67320000Y-120503750I0J-268750D01*
G01*
X67320000Y-121041250D01*
G75*
G02*
X67051250Y-121310000I-268750J0D01*
G01*
X66088750Y-121310000D01*
G75*
G02*
X65820000Y-121041250I0J268750D01*
G01*
X65820000Y-120503750D01*
G75*
G02*
X66088750Y-120235000I268750J0D01*
G01*
G37*
%TD*%
%TO.C,C2*%
G36*
G01*
X70941250Y-126962500D02*
X70378750Y-126962500D01*
G75*
G02*
X70135000Y-126718750I0J243750D01*
G01*
X70135000Y-126231250D01*
G75*
G02*
X70378750Y-125987500I243750J0D01*
G01*
X70941250Y-125987500D01*
G75*
G02*
X71185000Y-126231250I0J-243750D01*
G01*
X71185000Y-126718750D01*
G75*
G02*
X70941250Y-126962500I-243750J0D01*
G01*
G37*
G36*
G01*
X70941250Y-125387500D02*
X70378750Y-125387500D01*
G75*
G02*
X70135000Y-125143750I0J243750D01*
G01*
X70135000Y-124656250D01*
G75*
G02*
X70378750Y-124412500I243750J0D01*
G01*
X70941250Y-124412500D01*
G75*
G02*
X71185000Y-124656250I0J-243750D01*
G01*
X71185000Y-125143750D01*
G75*
G02*
X70941250Y-125387500I-243750J0D01*
G01*
G37*
%TD*%
%TO.C,C3*%
G36*
G01*
X73288750Y-118435000D02*
X74251250Y-118435000D01*
G75*
G02*
X74520000Y-118703750I0J-268750D01*
G01*
X74520000Y-119241250D01*
G75*
G02*
X74251250Y-119510000I-268750J0D01*
G01*
X73288750Y-119510000D01*
G75*
G02*
X73020000Y-119241250I0J268750D01*
G01*
X73020000Y-118703750D01*
G75*
G02*
X73288750Y-118435000I268750J0D01*
G01*
G37*
G36*
G01*
X73288750Y-120310000D02*
X74251250Y-120310000D01*
G75*
G02*
X74520000Y-120578750I0J-268750D01*
G01*
X74520000Y-121116250D01*
G75*
G02*
X74251250Y-121385000I-268750J0D01*
G01*
X73288750Y-121385000D01*
G75*
G02*
X73020000Y-121116250I0J268750D01*
G01*
X73020000Y-120578750D01*
G75*
G02*
X73288750Y-120310000I268750J0D01*
G01*
G37*
%TD*%
%TO.C,C4*%
G36*
G01*
X77125000Y-124375000D02*
X75815000Y-124375000D01*
G75*
G02*
X75545000Y-124105000I0J270000D01*
G01*
X75545000Y-123295000D01*
G75*
G02*
X75815000Y-123025000I270000J0D01*
G01*
X77125000Y-123025000D01*
G75*
G02*
X77395000Y-123295000I0J-270000D01*
G01*
X77395000Y-124105000D01*
G75*
G02*
X77125000Y-124375000I-270000J0D01*
G01*
G37*
G36*
G01*
X77125000Y-127175000D02*
X75815000Y-127175000D01*
G75*
G02*
X75545000Y-126905000I0J270000D01*
G01*
X75545000Y-126095000D01*
G75*
G02*
X75815000Y-125825000I270000J0D01*
G01*
X77125000Y-125825000D01*
G75*
G02*
X77395000Y-126095000I0J-270000D01*
G01*
X77395000Y-126905000D01*
G75*
G02*
X77125000Y-127175000I-270000J0D01*
G01*
G37*
%TD*%
D28*
%TO.C,D1*%
X68620000Y-114920000D03*
X68620000Y-113020000D03*
X66620000Y-113970000D03*
%TD*%
%TO.C,L1*%
G36*
G01*
X66080000Y-123650000D02*
X67840000Y-123650000D01*
G75*
G02*
X68110000Y-123920000I0J-270000D01*
G01*
X68110000Y-124730000D01*
G75*
G02*
X67840000Y-125000000I-270000J0D01*
G01*
X66080000Y-125000000D01*
G75*
G02*
X65810000Y-124730000I0J270000D01*
G01*
X65810000Y-123920000D01*
G75*
G02*
X66080000Y-123650000I270000J0D01*
G01*
G37*
G36*
G01*
X66080000Y-125800000D02*
X67840000Y-125800000D01*
G75*
G02*
X68110000Y-126070000I0J-270000D01*
G01*
X68110000Y-126880000D01*
G75*
G02*
X67840000Y-127150000I-270000J0D01*
G01*
X66080000Y-127150000D01*
G75*
G02*
X65810000Y-126880000I0J270000D01*
G01*
X65810000Y-126070000D01*
G75*
G02*
X66080000Y-125800000I270000J0D01*
G01*
G37*
%TD*%
%TO.C,R1*%
G36*
G01*
X69401250Y-126962500D02*
X68838750Y-126962500D01*
G75*
G02*
X68595000Y-126718750I0J243750D01*
G01*
X68595000Y-126231250D01*
G75*
G02*
X68838750Y-125987500I243750J0D01*
G01*
X69401250Y-125987500D01*
G75*
G02*
X69645000Y-126231250I0J-243750D01*
G01*
X69645000Y-126718750D01*
G75*
G02*
X69401250Y-126962500I-243750J0D01*
G01*
G37*
G36*
G01*
X69401250Y-125387500D02*
X68838750Y-125387500D01*
G75*
G02*
X68595000Y-125143750I0J243750D01*
G01*
X68595000Y-124656250D01*
G75*
G02*
X68838750Y-124412500I243750J0D01*
G01*
X69401250Y-124412500D01*
G75*
G02*
X69645000Y-124656250I0J-243750D01*
G01*
X69645000Y-125143750D01*
G75*
G02*
X69401250Y-125387500I-243750J0D01*
G01*
G37*
%TD*%
D29*
%TO.C,U1*%
X68700000Y-120830000D03*
X71700000Y-120830000D03*
D10*
G36*
X69284461Y-116870245D02*
G01*
X69287306Y-116860866D01*
X69291927Y-116852221D01*
X69298145Y-116844645D01*
X69305721Y-116838427D01*
X69314366Y-116833806D01*
X69323745Y-116830961D01*
X69333500Y-116830000D01*
X71066500Y-116830000D01*
X71076255Y-116830961D01*
X71085634Y-116833806D01*
X71094279Y-116838427D01*
X71101855Y-116844645D01*
X71108073Y-116852221D01*
X71112694Y-116860866D01*
X71115539Y-116870245D01*
X71116500Y-116880000D01*
X71116500Y-120005000D01*
X71115539Y-120014755D01*
X71112694Y-120024134D01*
X71108073Y-120032779D01*
X71101855Y-120040355D01*
X71094279Y-120046573D01*
X71085634Y-120051194D01*
X71076255Y-120054039D01*
X71066500Y-120055000D01*
X70700000Y-120055000D01*
X70700000Y-121480000D01*
X70699039Y-121489755D01*
X70696194Y-121499134D01*
X70691573Y-121507779D01*
X70685355Y-121515355D01*
X70677779Y-121521573D01*
X70669134Y-121526194D01*
X70659755Y-121529039D01*
X70650000Y-121530000D01*
X69750000Y-121530000D01*
X69740245Y-121529039D01*
X69730866Y-121526194D01*
X69722221Y-121521573D01*
X69714645Y-121515355D01*
X69708427Y-121507779D01*
X69703806Y-121499134D01*
X69700961Y-121489755D01*
X69700000Y-121480000D01*
X69700000Y-120055000D01*
X69333500Y-120055000D01*
X69323745Y-120054039D01*
X69314366Y-120051194D01*
X69305721Y-120046573D01*
X69298145Y-120040355D01*
X69291927Y-120032779D01*
X69287306Y-120024134D01*
X69284461Y-120014755D01*
X69283500Y-120005000D01*
X69283500Y-116880000D01*
X69284461Y-116870245D01*
G37*
%TD*%
%TO.C,C21*%
G36*
G01*
X57765000Y-132321250D02*
X57765000Y-131758750D01*
G75*
G02*
X58008750Y-131515000I243750J0D01*
G01*
X58496250Y-131515000D01*
G75*
G02*
X58740000Y-131758750I0J-243750D01*
G01*
X58740000Y-132321250D01*
G75*
G02*
X58496250Y-132565000I-243750J0D01*
G01*
X58008750Y-132565000D01*
G75*
G02*
X57765000Y-132321250I0J243750D01*
G01*
G37*
G36*
G01*
X59340000Y-132321250D02*
X59340000Y-131758750D01*
G75*
G02*
X59583750Y-131515000I243750J0D01*
G01*
X60071250Y-131515000D01*
G75*
G02*
X60315000Y-131758750I0J-243750D01*
G01*
X60315000Y-132321250D01*
G75*
G02*
X60071250Y-132565000I-243750J0D01*
G01*
X59583750Y-132565000D01*
G75*
G02*
X59340000Y-132321250I0J243750D01*
G01*
G37*
%TD*%
%TO.C,R9*%
G36*
G01*
X60250000Y-137252500D02*
X60250000Y-137647500D01*
G75*
G02*
X60077500Y-137820000I-172500J0D01*
G01*
X59732500Y-137820000D01*
G75*
G02*
X59560000Y-137647500I0J172500D01*
G01*
X59560000Y-137252500D01*
G75*
G02*
X59732500Y-137080000I172500J0D01*
G01*
X60077500Y-137080000D01*
G75*
G02*
X60250000Y-137252500I0J-172500D01*
G01*
G37*
G36*
G01*
X59280000Y-137252500D02*
X59280000Y-137647500D01*
G75*
G02*
X59107500Y-137820000I-172500J0D01*
G01*
X58762500Y-137820000D01*
G75*
G02*
X58590000Y-137647500I0J172500D01*
G01*
X58590000Y-137252500D01*
G75*
G02*
X58762500Y-137080000I172500J0D01*
G01*
X59107500Y-137080000D01*
G75*
G02*
X59280000Y-137252500I0J-172500D01*
G01*
G37*
%TD*%
D30*
%TO.C,X1*%
X59905000Y-135940000D03*
X59905000Y-133840000D03*
X58255000Y-133840000D03*
X58255000Y-135940000D03*
%TD*%
%TO.C,R10*%
G36*
G01*
X72940000Y-122607500D02*
X72940000Y-122212500D01*
G75*
G02*
X73112500Y-122040000I172500J0D01*
G01*
X73457500Y-122040000D01*
G75*
G02*
X73630000Y-122212500I0J-172500D01*
G01*
X73630000Y-122607500D01*
G75*
G02*
X73457500Y-122780000I-172500J0D01*
G01*
X73112500Y-122780000D01*
G75*
G02*
X72940000Y-122607500I0J172500D01*
G01*
G37*
G36*
G01*
X73910000Y-122607500D02*
X73910000Y-122212500D01*
G75*
G02*
X74082500Y-122040000I172500J0D01*
G01*
X74427500Y-122040000D01*
G75*
G02*
X74600000Y-122212500I0J-172500D01*
G01*
X74600000Y-122607500D01*
G75*
G02*
X74427500Y-122780000I-172500J0D01*
G01*
X74082500Y-122780000D01*
G75*
G02*
X73910000Y-122607500I0J172500D01*
G01*
G37*
%TD*%
%TO.C,U5*%
G36*
G01*
X75500000Y-132665000D02*
X75500000Y-132365000D01*
G75*
G02*
X75650000Y-132215000I150000J0D01*
G01*
X77350000Y-132215000D01*
G75*
G02*
X77500000Y-132365000I0J-150000D01*
G01*
X77500000Y-132665000D01*
G75*
G02*
X77350000Y-132815000I-150000J0D01*
G01*
X75650000Y-132815000D01*
G75*
G02*
X75500000Y-132665000I0J150000D01*
G01*
G37*
G36*
G01*
X75500000Y-133315000D02*
X75500000Y-133015000D01*
G75*
G02*
X75650000Y-132865000I150000J0D01*
G01*
X77350000Y-132865000D01*
G75*
G02*
X77500000Y-133015000I0J-150000D01*
G01*
X77500000Y-133315000D01*
G75*
G02*
X77350000Y-133465000I-150000J0D01*
G01*
X75650000Y-133465000D01*
G75*
G02*
X75500000Y-133315000I0J150000D01*
G01*
G37*
G36*
G01*
X75500000Y-133965000D02*
X75500000Y-133665000D01*
G75*
G02*
X75650000Y-133515000I150000J0D01*
G01*
X77350000Y-133515000D01*
G75*
G02*
X77500000Y-133665000I0J-150000D01*
G01*
X77500000Y-133965000D01*
G75*
G02*
X77350000Y-134115000I-150000J0D01*
G01*
X75650000Y-134115000D01*
G75*
G02*
X75500000Y-133965000I0J150000D01*
G01*
G37*
G36*
G01*
X75500000Y-134615000D02*
X75500000Y-134315000D01*
G75*
G02*
X75650000Y-134165000I150000J0D01*
G01*
X77350000Y-134165000D01*
G75*
G02*
X77500000Y-134315000I0J-150000D01*
G01*
X77500000Y-134615000D01*
G75*
G02*
X77350000Y-134765000I-150000J0D01*
G01*
X75650000Y-134765000D01*
G75*
G02*
X75500000Y-134615000I0J150000D01*
G01*
G37*
G36*
G01*
X75500000Y-135265000D02*
X75500000Y-134965000D01*
G75*
G02*
X75650000Y-134815000I150000J0D01*
G01*
X77350000Y-134815000D01*
G75*
G02*
X77500000Y-134965000I0J-150000D01*
G01*
X77500000Y-135265000D01*
G75*
G02*
X77350000Y-135415000I-150000J0D01*
G01*
X75650000Y-135415000D01*
G75*
G02*
X75500000Y-135265000I0J150000D01*
G01*
G37*
G36*
G01*
X75500000Y-135915000D02*
X75500000Y-135615000D01*
G75*
G02*
X75650000Y-135465000I150000J0D01*
G01*
X77350000Y-135465000D01*
G75*
G02*
X77500000Y-135615000I0J-150000D01*
G01*
X77500000Y-135915000D01*
G75*
G02*
X77350000Y-136065000I-150000J0D01*
G01*
X75650000Y-136065000D01*
G75*
G02*
X75500000Y-135915000I0J150000D01*
G01*
G37*
G36*
G01*
X75500000Y-136565000D02*
X75500000Y-136265000D01*
G75*
G02*
X75650000Y-136115000I150000J0D01*
G01*
X77350000Y-136115000D01*
G75*
G02*
X77500000Y-136265000I0J-150000D01*
G01*
X77500000Y-136565000D01*
G75*
G02*
X77350000Y-136715000I-150000J0D01*
G01*
X75650000Y-136715000D01*
G75*
G02*
X75500000Y-136565000I0J150000D01*
G01*
G37*
G36*
G01*
X75500000Y-137215000D02*
X75500000Y-136915000D01*
G75*
G02*
X75650000Y-136765000I150000J0D01*
G01*
X77350000Y-136765000D01*
G75*
G02*
X77500000Y-136915000I0J-150000D01*
G01*
X77500000Y-137215000D01*
G75*
G02*
X77350000Y-137365000I-150000J0D01*
G01*
X75650000Y-137365000D01*
G75*
G02*
X75500000Y-137215000I0J150000D01*
G01*
G37*
G36*
G01*
X75500000Y-137865000D02*
X75500000Y-137565000D01*
G75*
G02*
X75650000Y-137415000I150000J0D01*
G01*
X77350000Y-137415000D01*
G75*
G02*
X77500000Y-137565000I0J-150000D01*
G01*
X77500000Y-137865000D01*
G75*
G02*
X77350000Y-138015000I-150000J0D01*
G01*
X75650000Y-138015000D01*
G75*
G02*
X75500000Y-137865000I0J150000D01*
G01*
G37*
G36*
G01*
X75500000Y-138515000D02*
X75500000Y-138215000D01*
G75*
G02*
X75650000Y-138065000I150000J0D01*
G01*
X77350000Y-138065000D01*
G75*
G02*
X77500000Y-138215000I0J-150000D01*
G01*
X77500000Y-138515000D01*
G75*
G02*
X77350000Y-138665000I-150000J0D01*
G01*
X75650000Y-138665000D01*
G75*
G02*
X75500000Y-138515000I0J150000D01*
G01*
G37*
G36*
G01*
X82500000Y-138515000D02*
X82500000Y-138215000D01*
G75*
G02*
X82650000Y-138065000I150000J0D01*
G01*
X84350000Y-138065000D01*
G75*
G02*
X84500000Y-138215000I0J-150000D01*
G01*
X84500000Y-138515000D01*
G75*
G02*
X84350000Y-138665000I-150000J0D01*
G01*
X82650000Y-138665000D01*
G75*
G02*
X82500000Y-138515000I0J150000D01*
G01*
G37*
G36*
G01*
X82500000Y-137865000D02*
X82500000Y-137565000D01*
G75*
G02*
X82650000Y-137415000I150000J0D01*
G01*
X84350000Y-137415000D01*
G75*
G02*
X84500000Y-137565000I0J-150000D01*
G01*
X84500000Y-137865000D01*
G75*
G02*
X84350000Y-138015000I-150000J0D01*
G01*
X82650000Y-138015000D01*
G75*
G02*
X82500000Y-137865000I0J150000D01*
G01*
G37*
G36*
G01*
X82500000Y-137215000D02*
X82500000Y-136915000D01*
G75*
G02*
X82650000Y-136765000I150000J0D01*
G01*
X84350000Y-136765000D01*
G75*
G02*
X84500000Y-136915000I0J-150000D01*
G01*
X84500000Y-137215000D01*
G75*
G02*
X84350000Y-137365000I-150000J0D01*
G01*
X82650000Y-137365000D01*
G75*
G02*
X82500000Y-137215000I0J150000D01*
G01*
G37*
G36*
G01*
X82500000Y-136565000D02*
X82500000Y-136265000D01*
G75*
G02*
X82650000Y-136115000I150000J0D01*
G01*
X84350000Y-136115000D01*
G75*
G02*
X84500000Y-136265000I0J-150000D01*
G01*
X84500000Y-136565000D01*
G75*
G02*
X84350000Y-136715000I-150000J0D01*
G01*
X82650000Y-136715000D01*
G75*
G02*
X82500000Y-136565000I0J150000D01*
G01*
G37*
G36*
G01*
X82500000Y-135915000D02*
X82500000Y-135615000D01*
G75*
G02*
X82650000Y-135465000I150000J0D01*
G01*
X84350000Y-135465000D01*
G75*
G02*
X84500000Y-135615000I0J-150000D01*
G01*
X84500000Y-135915000D01*
G75*
G02*
X84350000Y-136065000I-150000J0D01*
G01*
X82650000Y-136065000D01*
G75*
G02*
X82500000Y-135915000I0J150000D01*
G01*
G37*
G36*
G01*
X82500000Y-135265000D02*
X82500000Y-134965000D01*
G75*
G02*
X82650000Y-134815000I150000J0D01*
G01*
X84350000Y-134815000D01*
G75*
G02*
X84500000Y-134965000I0J-150000D01*
G01*
X84500000Y-135265000D01*
G75*
G02*
X84350000Y-135415000I-150000J0D01*
G01*
X82650000Y-135415000D01*
G75*
G02*
X82500000Y-135265000I0J150000D01*
G01*
G37*
G36*
G01*
X82500000Y-134615000D02*
X82500000Y-134315000D01*
G75*
G02*
X82650000Y-134165000I150000J0D01*
G01*
X84350000Y-134165000D01*
G75*
G02*
X84500000Y-134315000I0J-150000D01*
G01*
X84500000Y-134615000D01*
G75*
G02*
X84350000Y-134765000I-150000J0D01*
G01*
X82650000Y-134765000D01*
G75*
G02*
X82500000Y-134615000I0J150000D01*
G01*
G37*
G36*
G01*
X82500000Y-133965000D02*
X82500000Y-133665000D01*
G75*
G02*
X82650000Y-133515000I150000J0D01*
G01*
X84350000Y-133515000D01*
G75*
G02*
X84500000Y-133665000I0J-150000D01*
G01*
X84500000Y-133965000D01*
G75*
G02*
X84350000Y-134115000I-150000J0D01*
G01*
X82650000Y-134115000D01*
G75*
G02*
X82500000Y-133965000I0J150000D01*
G01*
G37*
G36*
G01*
X82500000Y-133315000D02*
X82500000Y-133015000D01*
G75*
G02*
X82650000Y-132865000I150000J0D01*
G01*
X84350000Y-132865000D01*
G75*
G02*
X84500000Y-133015000I0J-150000D01*
G01*
X84500000Y-133315000D01*
G75*
G02*
X84350000Y-133465000I-150000J0D01*
G01*
X82650000Y-133465000D01*
G75*
G02*
X82500000Y-133315000I0J150000D01*
G01*
G37*
G36*
G01*
X82500000Y-132665000D02*
X82500000Y-132365000D01*
G75*
G02*
X82650000Y-132215000I150000J0D01*
G01*
X84350000Y-132215000D01*
G75*
G02*
X84500000Y-132365000I0J-150000D01*
G01*
X84500000Y-132665000D01*
G75*
G02*
X84350000Y-132815000I-150000J0D01*
G01*
X82650000Y-132815000D01*
G75*
G02*
X82500000Y-132665000I0J150000D01*
G01*
G37*
%TD*%
%TO.C,U2*%
G36*
G01*
X74990000Y-118567500D02*
X74990000Y-118392500D01*
G75*
G02*
X75077500Y-118305000I87500J0D01*
G01*
X75852500Y-118305000D01*
G75*
G02*
X75940000Y-118392500I0J-87500D01*
G01*
X75940000Y-118567500D01*
G75*
G02*
X75852500Y-118655000I-87500J0D01*
G01*
X75077500Y-118655000D01*
G75*
G02*
X74990000Y-118567500I0J87500D01*
G01*
G37*
G36*
G01*
X74990000Y-119067500D02*
X74990000Y-118892500D01*
G75*
G02*
X75077500Y-118805000I87500J0D01*
G01*
X75852500Y-118805000D01*
G75*
G02*
X75940000Y-118892500I0J-87500D01*
G01*
X75940000Y-119067500D01*
G75*
G02*
X75852500Y-119155000I-87500J0D01*
G01*
X75077500Y-119155000D01*
G75*
G02*
X74990000Y-119067500I0J87500D01*
G01*
G37*
G36*
G01*
X74990000Y-119567500D02*
X74990000Y-119392500D01*
G75*
G02*
X75077500Y-119305000I87500J0D01*
G01*
X75852500Y-119305000D01*
G75*
G02*
X75940000Y-119392500I0J-87500D01*
G01*
X75940000Y-119567500D01*
G75*
G02*
X75852500Y-119655000I-87500J0D01*
G01*
X75077500Y-119655000D01*
G75*
G02*
X74990000Y-119567500I0J87500D01*
G01*
G37*
G36*
G01*
X74990000Y-120067500D02*
X74990000Y-119892500D01*
G75*
G02*
X75077500Y-119805000I87500J0D01*
G01*
X75852500Y-119805000D01*
G75*
G02*
X75940000Y-119892500I0J-87500D01*
G01*
X75940000Y-120067500D01*
G75*
G02*
X75852500Y-120155000I-87500J0D01*
G01*
X75077500Y-120155000D01*
G75*
G02*
X74990000Y-120067500I0J87500D01*
G01*
G37*
G36*
G01*
X74990000Y-120567500D02*
X74990000Y-120392500D01*
G75*
G02*
X75077500Y-120305000I87500J0D01*
G01*
X75852500Y-120305000D01*
G75*
G02*
X75940000Y-120392500I0J-87500D01*
G01*
X75940000Y-120567500D01*
G75*
G02*
X75852500Y-120655000I-87500J0D01*
G01*
X75077500Y-120655000D01*
G75*
G02*
X74990000Y-120567500I0J87500D01*
G01*
G37*
G36*
G01*
X76215000Y-121792500D02*
X76215000Y-121017500D01*
G75*
G02*
X76302500Y-120930000I87500J0D01*
G01*
X76477500Y-120930000D01*
G75*
G02*
X76565000Y-121017500I0J-87500D01*
G01*
X76565000Y-121792500D01*
G75*
G02*
X76477500Y-121880000I-87500J0D01*
G01*
X76302500Y-121880000D01*
G75*
G02*
X76215000Y-121792500I0J87500D01*
G01*
G37*
G36*
G01*
X76715000Y-121792500D02*
X76715000Y-121017500D01*
G75*
G02*
X76802500Y-120930000I87500J0D01*
G01*
X76977500Y-120930000D01*
G75*
G02*
X77065000Y-121017500I0J-87500D01*
G01*
X77065000Y-121792500D01*
G75*
G02*
X76977500Y-121880000I-87500J0D01*
G01*
X76802500Y-121880000D01*
G75*
G02*
X76715000Y-121792500I0J87500D01*
G01*
G37*
G36*
G01*
X77215000Y-121792500D02*
X77215000Y-121017500D01*
G75*
G02*
X77302500Y-120930000I87500J0D01*
G01*
X77477500Y-120930000D01*
G75*
G02*
X77565000Y-121017500I0J-87500D01*
G01*
X77565000Y-121792500D01*
G75*
G02*
X77477500Y-121880000I-87500J0D01*
G01*
X77302500Y-121880000D01*
G75*
G02*
X77215000Y-121792500I0J87500D01*
G01*
G37*
G36*
G01*
X77715000Y-121792500D02*
X77715000Y-121017500D01*
G75*
G02*
X77802500Y-120930000I87500J0D01*
G01*
X77977500Y-120930000D01*
G75*
G02*
X78065000Y-121017500I0J-87500D01*
G01*
X78065000Y-121792500D01*
G75*
G02*
X77977500Y-121880000I-87500J0D01*
G01*
X77802500Y-121880000D01*
G75*
G02*
X77715000Y-121792500I0J87500D01*
G01*
G37*
G36*
G01*
X78215000Y-121792500D02*
X78215000Y-121017500D01*
G75*
G02*
X78302500Y-120930000I87500J0D01*
G01*
X78477500Y-120930000D01*
G75*
G02*
X78565000Y-121017500I0J-87500D01*
G01*
X78565000Y-121792500D01*
G75*
G02*
X78477500Y-121880000I-87500J0D01*
G01*
X78302500Y-121880000D01*
G75*
G02*
X78215000Y-121792500I0J87500D01*
G01*
G37*
G36*
G01*
X78840000Y-120567500D02*
X78840000Y-120392500D01*
G75*
G02*
X78927500Y-120305000I87500J0D01*
G01*
X79702500Y-120305000D01*
G75*
G02*
X79790000Y-120392500I0J-87500D01*
G01*
X79790000Y-120567500D01*
G75*
G02*
X79702500Y-120655000I-87500J0D01*
G01*
X78927500Y-120655000D01*
G75*
G02*
X78840000Y-120567500I0J87500D01*
G01*
G37*
G36*
G01*
X78840000Y-120067500D02*
X78840000Y-119892500D01*
G75*
G02*
X78927500Y-119805000I87500J0D01*
G01*
X79702500Y-119805000D01*
G75*
G02*
X79790000Y-119892500I0J-87500D01*
G01*
X79790000Y-120067500D01*
G75*
G02*
X79702500Y-120155000I-87500J0D01*
G01*
X78927500Y-120155000D01*
G75*
G02*
X78840000Y-120067500I0J87500D01*
G01*
G37*
G36*
G01*
X78840000Y-119567500D02*
X78840000Y-119392500D01*
G75*
G02*
X78927500Y-119305000I87500J0D01*
G01*
X79702500Y-119305000D01*
G75*
G02*
X79790000Y-119392500I0J-87500D01*
G01*
X79790000Y-119567500D01*
G75*
G02*
X79702500Y-119655000I-87500J0D01*
G01*
X78927500Y-119655000D01*
G75*
G02*
X78840000Y-119567500I0J87500D01*
G01*
G37*
G36*
G01*
X78840000Y-119067500D02*
X78840000Y-118892500D01*
G75*
G02*
X78927500Y-118805000I87500J0D01*
G01*
X79702500Y-118805000D01*
G75*
G02*
X79790000Y-118892500I0J-87500D01*
G01*
X79790000Y-119067500D01*
G75*
G02*
X79702500Y-119155000I-87500J0D01*
G01*
X78927500Y-119155000D01*
G75*
G02*
X78840000Y-119067500I0J87500D01*
G01*
G37*
G36*
G01*
X78840000Y-118567500D02*
X78840000Y-118392500D01*
G75*
G02*
X78927500Y-118305000I87500J0D01*
G01*
X79702500Y-118305000D01*
G75*
G02*
X79790000Y-118392500I0J-87500D01*
G01*
X79790000Y-118567500D01*
G75*
G02*
X79702500Y-118655000I-87500J0D01*
G01*
X78927500Y-118655000D01*
G75*
G02*
X78840000Y-118567500I0J87500D01*
G01*
G37*
G36*
G01*
X78215000Y-117942500D02*
X78215000Y-117167500D01*
G75*
G02*
X78302500Y-117080000I87500J0D01*
G01*
X78477500Y-117080000D01*
G75*
G02*
X78565000Y-117167500I0J-87500D01*
G01*
X78565000Y-117942500D01*
G75*
G02*
X78477500Y-118030000I-87500J0D01*
G01*
X78302500Y-118030000D01*
G75*
G02*
X78215000Y-117942500I0J87500D01*
G01*
G37*
G36*
G01*
X77715000Y-117942500D02*
X77715000Y-117167500D01*
G75*
G02*
X77802500Y-117080000I87500J0D01*
G01*
X77977500Y-117080000D01*
G75*
G02*
X78065000Y-117167500I0J-87500D01*
G01*
X78065000Y-117942500D01*
G75*
G02*
X77977500Y-118030000I-87500J0D01*
G01*
X77802500Y-118030000D01*
G75*
G02*
X77715000Y-117942500I0J87500D01*
G01*
G37*
G36*
G01*
X77215000Y-117942500D02*
X77215000Y-117167500D01*
G75*
G02*
X77302500Y-117080000I87500J0D01*
G01*
X77477500Y-117080000D01*
G75*
G02*
X77565000Y-117167500I0J-87500D01*
G01*
X77565000Y-117942500D01*
G75*
G02*
X77477500Y-118030000I-87500J0D01*
G01*
X77302500Y-118030000D01*
G75*
G02*
X77215000Y-117942500I0J87500D01*
G01*
G37*
G36*
G01*
X76715000Y-117942500D02*
X76715000Y-117167500D01*
G75*
G02*
X76802500Y-117080000I87500J0D01*
G01*
X76977500Y-117080000D01*
G75*
G02*
X77065000Y-117167500I0J-87500D01*
G01*
X77065000Y-117942500D01*
G75*
G02*
X76977500Y-118030000I-87500J0D01*
G01*
X76802500Y-118030000D01*
G75*
G02*
X76715000Y-117942500I0J87500D01*
G01*
G37*
G36*
G01*
X76215000Y-117942500D02*
X76215000Y-117167500D01*
G75*
G02*
X76302500Y-117080000I87500J0D01*
G01*
X76477500Y-117080000D01*
G75*
G02*
X76565000Y-117167500I0J-87500D01*
G01*
X76565000Y-117942500D01*
G75*
G02*
X76477500Y-118030000I-87500J0D01*
G01*
X76302500Y-118030000D01*
G75*
G02*
X76215000Y-117942500I0J87500D01*
G01*
G37*
D31*
X77390000Y-119480000D03*
%TD*%
%TO.C,C5*%
G36*
G01*
X77982500Y-125340000D02*
X78377500Y-125340000D01*
G75*
G02*
X78550000Y-125512500I0J-172500D01*
G01*
X78550000Y-125857500D01*
G75*
G02*
X78377500Y-126030000I-172500J0D01*
G01*
X77982500Y-126030000D01*
G75*
G02*
X77810000Y-125857500I0J172500D01*
G01*
X77810000Y-125512500D01*
G75*
G02*
X77982500Y-125340000I172500J0D01*
G01*
G37*
G36*
G01*
X77982500Y-126310000D02*
X78377500Y-126310000D01*
G75*
G02*
X78550000Y-126482500I0J-172500D01*
G01*
X78550000Y-126827500D01*
G75*
G02*
X78377500Y-127000000I-172500J0D01*
G01*
X77982500Y-127000000D01*
G75*
G02*
X77810000Y-126827500I0J172500D01*
G01*
X77810000Y-126482500D01*
G75*
G02*
X77982500Y-126310000I172500J0D01*
G01*
G37*
%TD*%
%TO.C,R11*%
G36*
G01*
X80690000Y-140047500D02*
X80690000Y-139652500D01*
G75*
G02*
X80862500Y-139480000I172500J0D01*
G01*
X81207500Y-139480000D01*
G75*
G02*
X81380000Y-139652500I0J-172500D01*
G01*
X81380000Y-140047500D01*
G75*
G02*
X81207500Y-140220000I-172500J0D01*
G01*
X80862500Y-140220000D01*
G75*
G02*
X80690000Y-140047500I0J172500D01*
G01*
G37*
G36*
G01*
X79720000Y-140047500D02*
X79720000Y-139652500D01*
G75*
G02*
X79892500Y-139480000I172500J0D01*
G01*
X80237500Y-139480000D01*
G75*
G02*
X80410000Y-139652500I0J-172500D01*
G01*
X80410000Y-140047500D01*
G75*
G02*
X80237500Y-140220000I-172500J0D01*
G01*
X79892500Y-140220000D01*
G75*
G02*
X79720000Y-140047500I0J172500D01*
G01*
G37*
%TD*%
%TO.C,R12*%
G36*
G01*
X71762500Y-131740000D02*
X72157500Y-131740000D01*
G75*
G02*
X72330000Y-131912500I0J-172500D01*
G01*
X72330000Y-132257500D01*
G75*
G02*
X72157500Y-132430000I-172500J0D01*
G01*
X71762500Y-132430000D01*
G75*
G02*
X71590000Y-132257500I0J172500D01*
G01*
X71590000Y-131912500D01*
G75*
G02*
X71762500Y-131740000I172500J0D01*
G01*
G37*
G36*
G01*
X71762500Y-132710000D02*
X72157500Y-132710000D01*
G75*
G02*
X72330000Y-132882500I0J-172500D01*
G01*
X72330000Y-133227500D01*
G75*
G02*
X72157500Y-133400000I-172500J0D01*
G01*
X71762500Y-133400000D01*
G75*
G02*
X71590000Y-133227500I0J172500D01*
G01*
X71590000Y-132882500D01*
G75*
G02*
X71762500Y-132710000I172500J0D01*
G01*
G37*
%TD*%
%TO.C,R13*%
G36*
G01*
X72822500Y-132710000D02*
X73217500Y-132710000D01*
G75*
G02*
X73390000Y-132882500I0J-172500D01*
G01*
X73390000Y-133227500D01*
G75*
G02*
X73217500Y-133400000I-172500J0D01*
G01*
X72822500Y-133400000D01*
G75*
G02*
X72650000Y-133227500I0J172500D01*
G01*
X72650000Y-132882500D01*
G75*
G02*
X72822500Y-132710000I172500J0D01*
G01*
G37*
G36*
G01*
X72822500Y-131740000D02*
X73217500Y-131740000D01*
G75*
G02*
X73390000Y-131912500I0J-172500D01*
G01*
X73390000Y-132257500D01*
G75*
G02*
X73217500Y-132430000I-172500J0D01*
G01*
X72822500Y-132430000D01*
G75*
G02*
X72650000Y-132257500I0J172500D01*
G01*
X72650000Y-131912500D01*
G75*
G02*
X72822500Y-131740000I172500J0D01*
G01*
G37*
%TD*%
%TO.C,R14*%
G36*
G01*
X73882500Y-131740000D02*
X74277500Y-131740000D01*
G75*
G02*
X74450000Y-131912500I0J-172500D01*
G01*
X74450000Y-132257500D01*
G75*
G02*
X74277500Y-132430000I-172500J0D01*
G01*
X73882500Y-132430000D01*
G75*
G02*
X73710000Y-132257500I0J172500D01*
G01*
X73710000Y-131912500D01*
G75*
G02*
X73882500Y-131740000I172500J0D01*
G01*
G37*
G36*
G01*
X73882500Y-132710000D02*
X74277500Y-132710000D01*
G75*
G02*
X74450000Y-132882500I0J-172500D01*
G01*
X74450000Y-133227500D01*
G75*
G02*
X74277500Y-133400000I-172500J0D01*
G01*
X73882500Y-133400000D01*
G75*
G02*
X73710000Y-133227500I0J172500D01*
G01*
X73710000Y-132882500D01*
G75*
G02*
X73882500Y-132710000I172500J0D01*
G01*
G37*
%TD*%
M02*
